<?xml version="1.0" standalone="no"?><!DOCTYPE svg PUBLIC "-//W3C//DTD SVG 1.1//EN" "http://www.w3.org/Graphics/SVG/1.1/DTD/svg11.dtd"><svg t="1583650589816" class="icon" viewBox="0 0 1024 1024" version="1.1" xmlns="http://www.w3.org/2000/svg" p-id="3082" width="1" height="1" xmlns:xlink="http://www.w3.org/1999/xlink"><defs><style type="text/css"></style></defs><path d="M405.248 593.92l106.496-43.52 107.264 43.264 66.56 26.88C649.216 678.4 585.216 716.8 512 716.8c-72.96 0-136.704-38.144-173.056-95.744l66.304-27.136zM307.2 512c0-110.848 88.32-200.96 198.4-204.544l-25.6 185.6-74.496 58.112-73.728 57.6A201.9072 201.9072 0 0 1 307.2 512z m409.6 0c0 34.816-8.704 67.84-24.064 96.512l-73.728-57.6-73.984-57.856-25.856-185.6C628.736 311.296 716.8 401.152 716.8 512z m-204.8-256c-141.312 0-256 114.688-256 256s114.688 256 256 256 256-114.688 256-256-114.688-256-256-256z" p-id="3083" fill="#ffffff"></path></svg>