<?xml version="1.0" encoding="UTF-8"?>
<svg width="248px" height="81px" viewBox="0 0 248 81" version="1.1" xmlns="http://www.w3.org/2000/svg" xmlns:xlink="http://www.w3.org/1999/xlink">
    <!-- Generator: Sketch 53.2 (72643) - https://sketchapp.com -->
    <title>banner-国六-pc的副本 3</title>
    <desc>Created with Sketch.</desc>
    <g id="Page-1" stroke="none" stroke-width="1" fill="none" fill-rule="evenodd">
        <g id="banner-国六-pc的副本-3" fill="#FFFFFF" fill-rule="nonzero">
            <rect id="Rectangle-Copy-13_3_" x="109.1" y="79.2" width="30.3" height="1"></rect>
            <g id="Group" transform="translate(0.000000, 27.000000)">
                <path d="M12,15.4 L12,5.7 L11.9,1.3 C11.9,1.2 12,1.2 12,1.2 L12.8,1.5 L15.7,2.4 C15.9,2.5 16,2.6 16.1,2.8 C16.2,3 16,3 15.9,3.2 L14.9,4.2 L14.9,15.4 L22,15.4 L23.5,12.9 C23.7,12.6 23.8,12.5 23.8,12.5 C23.8,12.5 24,12.6 24.1,12.7 L26.7,16 C26.8,16.1 26.8,16.2 26.8,16.3 C26.8,16.4 26.7,16.5 26.6,16.5 L14.9,16.5 L14.9,32.9 L15,36.7 C14.9,36.9 14.9,37.2 14.7,37.4 C14.6,37.6 14.3,37.8 13.7,38 C13.2,38.2 12.7,38.3 12.4,38.2 C12.1,38.2 11.9,38.1 11.8,38 C11.7,37.9 11.7,37.7 11.7,37.4 L11.8,32.8 L11.8,16.6 L1.2,16.6 L1.1,16.6 C0.9,16.6 0.8,16.5 0.8,16.4 C0.7,16.3 0.7,16.1 0.7,15.9 C0.7,15.7 0.8,15.5 1.1,15.5 L12,15.4 L12,15.4 Z" id="Path"></path>
                <path d="M40.1,7 C39,9.1 37.9,11.2 36.8,13.1 C35.7,15 34.6,16.7 33.5,18 C32.4,19.3 31.7,20.3 31.2,20.7 L30.3,21.6 C30.1,21.8 30,21.8 29.9,21.8 C29.8,21.8 30,21.7 30,21.6 C30,21.5 30,21.3 30.1,21.2 L30.9,20 C31.8,18.6 32.6,17 33.4,15.1 C34.2,13.2 34.9,11.6 35.4,10.2 C35.9,8.8 36.3,7.7 36.5,6.9 L37,4.9 L37.3,3.7 C37.4,3.7 37.5,3.7 37.7,3.8 L40.7,5.9 C41,6.1 41.1,6.3 41.1,6.5 C41.1,6.7 41,6.8 40.7,6.9 L40.1,7 Z M35,18.7 C34.7,18.7 34.6,18.5 34.5,18.2 C34.4,17.8 34.6,17.7 35,17.7 L46.8,17.7 L47.4,16.6 C47.5,16.4 47.6,16.2 47.7,16.2 C47.8,16.2 47.9,16.3 48.1,16.4 L50.3,18.5 C50.5,18.7 50.5,18.8 50.5,19 C50.5,19.1 50.4,19.3 50.3,19.3 L49.6,20 C49.6,21.4 49.6,22.6 49.6,23.7 C49.6,24.8 49.6,26.1 49.5,27.6 C49.4,29.1 49.3,30.6 49.1,32.1 C48.9,33.6 48.6,34.7 48.2,35.5 C47.8,36.3 47.3,36.9 46.8,37.3 C46.3,37.7 45.8,38.1 45.4,38.2 C45,38.4 44.8,38.4 44.7,38.4 C44.6,38.4 44.5,38.4 44.5,38.3 C44.5,38.2 44.4,38.2 44.4,38.1 C44.4,38 44.3,37.9 44.3,37.8 L44.1,36.7 C44,36.4 43.8,36.1 43.5,35.7 C43.2,35.3 43,35 42.7,34.8 L41.6,34.2 C41.5,34.1 41.4,34.1 41.3,34 C41.2,33.9 41.2,33.8 41.2,33.8 C41.2,33.8 41.2,33.7 41.3,33.6 C41.4,33.5 41.5,33.5 41.6,33.5 L42.8,33.7 C44,33.9 44.8,33.8 45.1,33.5 C45.5,33.2 45.7,32.8 45.9,32.3 C46.1,31.8 46.3,31.1 46.4,30.1 C46.5,29.1 46.6,27.9 46.7,26.5 C46.8,25.1 46.8,23.2 46.8,20.9 L46.8,19.3 L46.8,18.8 L41,18.8 L40.6,19.4 C40.5,20.8 40.4,22.1 40.3,23.4 C40.2,24.7 40,26.1 39.7,27.6 C39.4,29.1 38.8,30.5 38,31.9 C37.2,33.3 36.3,34.4 35.3,35.2 C34.3,36 33.4,36.7 32.5,37.3 L31.5,37.9 C31.4,38 31.3,38 31.2,38 C31.1,38 31,37.9 31,37.8 C31,37.7 31.1,37.5 31.2,37.4 L32.1,36.5 C34.4,34.2 35.9,32 36.4,29.9 C36.9,27.8 37.3,26 37.4,24.5 C37.5,23 37.6,21.8 37.7,20.9 C37.7,20 37.7,19.4 37.8,19.4 L37.8,18.9 L35,18.9 L35,18.7 Z M46.5,4.6 C46.6,5.2 46.8,5.7 47,6.2 C47.2,6.7 47.6,7.6 48.2,9 C48.8,10.4 49.9,11.9 51.4,13.6 C52.9,15.3 54.3,16.4 55.6,17 L56.4,17.4 C56.6,17.5 56.6,17.6 56.7,17.8 C56.8,18 56.6,18.1 56.5,18.1 L55.8,18.3 C55.1,18.5 54.6,18.8 54.2,19.2 C53.8,19.6 53.6,19.9 53.4,20.3 C53.2,20.6 53.1,20.8 53.1,20.8 C52.9,20.8 52.4,20.3 51.5,19.3 C50.6,18.3 49.7,17 48.9,15.5 C48.1,14 47.5,12.6 47.1,11.5 C46.7,10.4 46.2,8.7 45.5,6.3 C44.9,4 44.5,2.6 44.4,2.4 L44.1,1.7 C44,1.6 44,1.5 44,1.4 C44,1.3 44,1.3 44.1,1.3 C44.2,1.3 44.3,1.3 44.5,1.3 L47.4,2.2 C47.6,2.3 47.7,2.4 47.7,2.4 C47.7,2.5 47.7,2.6 47.7,2.6 C47.7,2.6 47.7,2.7 47.6,2.8 C47.5,2.9 47.7,3 47.7,3 L46.5,4.6 Z" id="Shape"></path>
                <path d="M62.7,35.1 L62.7,14.6 L62.6,9.2 L62.7,9.1 C62.7,9.1 62.8,9.2 63.1,9.3 L65.1,10.8 L68,10.8 C68.2,9.9 68.5,9 68.7,8.1 C68.9,7.2 69.1,6.2 69.3,5 L69.6,3 L69.7,2.2 C69.7,2.2 69.7,2.2 69.8,2.2 L70.1,2.4 L73.3,4.1 C73.5,4.2 73.6,4.3 73.6,4.5 C73.6,4.7 73.5,4.8 73.3,4.9 L72.5,5.4 C71.4,7.4 70.4,9.2 69.4,11 L79.1,11 L79.8,9.5 C79.9,9.2 80,9.2 80.2,9.2 L82.7,11.5 C82.7,11.5 82.8,11.6 82.8,11.7 C82.8,11.8 82.9,11.8 82.9,11.9 C82.9,12 82.9,12 82.8,12.1 L81.8,13.2 L81.8,35.3 L82.2,35.3 L83.4,33.3 C83.5,33.1 83.6,33 83.7,33 C83.8,33 83.8,33.1 83.9,33.2 L86,35.8 C86.1,35.9 86.1,36 86.2,36.2 C86.3,36.4 86.1,36.4 85.8,36.4 L82.2,36.4 L59.7,36.4 C59.5,36.4 59.3,36.2 59.3,35.8 C59.3,35.4 59.4,35.2 59.7,35.2 L62.7,35.2 L62.7,35.1 Z M68.2,35.1 L68.2,12.1 L65.2,12.1 L65.2,35.2 L68.2,35.1 L68.2,35.1 Z M73.5,35.1 L73.5,12.1 L70.8,12.1 C70.7,12.3 70.6,12.4 70.4,12.6 L70.4,35.2 L73.5,35.1 L73.5,35.1 Z M79,35.1 L79,12.1 L76.2,12.1 C76.1,12.3 76,12.4 75.8,12.6 L75.8,35.2 L79,35.1 L79,35.1 Z" id="Shape"></path>
                <path d="M90.4,9.7 L90.4,9.7 C90.5,9.8 90.7,10.3 91,11.1 C91.3,11.9 91.5,12.6 91.6,13.2 C91.7,13.8 91.8,14.3 91.8,14.5 C91.8,14.8 91.8,15.1 91.8,15.4 C91.8,15.7 91.8,16.1 91.7,16.5 C91.6,17 91.4,17.5 91.1,18 C90.8,18.4 90.4,18.6 90,18.6 C89.6,18.6 89.3,18.4 89,18.1 C88.7,17.8 88.7,17.3 88.7,16.8 C88.7,16.3 88.8,15.8 89.1,15.3 L89.5,14.6 C89.9,13.9 90.1,13.1 90.2,12.4 C90.3,11.7 90.3,11 90.3,10.4 L90.3,9.9 C90.3,9.8 90.3,9.7 90.4,9.7 Z M95.2,3.6 L95.2,33 L95.4,37.1 C95.3,37.4 95.2,37.7 95,37.9 C94.8,38.1 94.6,38.3 94.3,38.4 C94,38.5 93.8,38.5 93.6,38.5 C93.3,38.5 93.1,38.4 93,38.3 C92.9,38.2 92.8,37.9 92.7,37.6 L92.9,31.9 L92.9,6.6 L92.7,1.4 C92.8,1.3 92.8,1.2 92.9,1.2 L93.3,1.3 L95.7,2 C95.9,2.1 96,2.1 96.1,2.2 C96.2,2.3 96.2,2.4 96.2,2.4 C96.2,2.4 96.2,2.5 96.1,2.7 C96,2.9 95.9,2.9 95.8,3 L95.2,3.6 Z M96.1,8.7 C96.2,8.7 96.4,8.9 96.6,9.2 C96.8,9.5 97.1,9.9 97.4,10.3 C97.7,10.7 98,11.2 98.2,11.8 C98.5,12.3 98.6,13 98.6,13.6 C98.6,14.3 98.4,14.8 98.2,15.2 C98,15.6 97.6,15.7 97.3,15.7 C96.9,15.7 96.6,15.5 96.4,15.2 C96.2,14.9 96.2,14.5 96.2,14.2 C96.2,13.9 96.2,13.7 96.2,13.5 L96.4,12.4 C96.4,12.1 96.5,11.8 96.5,11.5 C96.5,11.3 96.5,11.1 96.4,10.7 C96.4,10.3 96.3,9.9 96.1,9.5 L95.9,9 C95.9,8.7 96,8.7 96.1,8.7 Z M101.4,12.8 L104.6,12.8 L104.6,6.3 L104.4,1.7 C104.5,1.6 104.6,1.5 104.6,1.5 C104.6,1.5 104.9,1.5 105.2,1.6 L107.6,2.3 C107.8,2.4 108,2.4 108,2.5 C108.1,2.6 108.1,2.7 108.1,2.8 C108.1,2.9 108,3 107.8,3.2 L107.1,3.9 L107.1,12.8 L110.2,12.8 L111.1,10.9 L111.4,10.2 C111.4,10.2 111.6,10.3 112,10.7 L113.8,12.9 C114,13.1 114.1,13.3 114.1,13.4 C114.1,13.5 114.2,13.6 114.2,13.7 C114.2,13.8 114,13.9 113.6,13.9 L112.3,13.9 L107.1,13.9 L107.1,22.9 L109.5,22.9 L110.4,21.1 C110.6,20.7 110.7,20.5 110.8,20.5 C110.9,20.5 111.1,20.7 111.4,21 L113.1,23 C113.2,23.2 113.3,23.3 113.4,23.4 C113.4,23.5 113.5,23.6 113.5,23.7 C113.5,23.8 113.5,23.8 113.4,23.9 C113.3,24 113.2,24 113,24 L111.2,24 L107.2,24 L107.2,34.6 L111.2,34.6 L112.1,32.7 C112.4,32.2 112.5,31.9 112.6,31.9 C112.7,31.9 112.8,32.1 113.1,32.4 L115,34.7 C115.2,34.9 115.3,35.1 115.3,35.3 C115.3,35.5 115.1,35.6 114.7,35.6 L105.9,35.6 L97.2,35.6 C97,35.6 96.9,35.4 96.9,35.1 C96.9,34.8 97,34.6 97.2,34.6 L104.7,34.6 L104.7,24 L99,24 C98.8,24 98.7,23.8 98.6,23.4 C98.6,23 98.7,22.8 99,22.8 L104.7,22.8 L104.7,13.8 L101.1,13.8 C100.9,14.2 100.6,15.1 100.1,16.5 C99.6,17.8 99.1,19 98.8,19.8 C98.4,20.7 98,21.7 97.4,22.8 L97,23.6 C96.9,23.9 96.8,24 96.7,23.9 C96.6,23.9 96.6,23.8 96.6,23.7 C96.6,23.6 96.6,23.5 96.7,23.3 L96.9,22.6 C96.9,22.5 97.1,22.1 97.3,21.2 C97.5,20.3 97.8,19.3 98.2,17.9 C98.5,16.5 98.9,14.7 99.3,12.3 C99.7,9.9 100,8 100.1,6.7 L100.2,5.8 L100.2,5.2 C100.2,5.1 100.3,5.1 100.3,5.1 C100.3,5.1 100.6,5.2 101,5.4 L103.5,7 C103.6,7.1 103.6,7.1 103.7,7.2 C103.8,7.3 103.8,7.4 103.8,7.5 C103.8,7.6 103.7,7.7 103.5,7.8 L102.8,8.3 C102.4,9.6 102.2,10.6 102,11.2 C101.8,11.8 101.5,12.5 101.4,12.8 Z" id="Shape"></path>
                <path d="M133.4,13.6 L132.9,12.9 C132.8,12.8 132.8,12.7 132.8,12.7 L132.8,12.6 C132.8,12.5 132.9,12.4 133,12.4 C133.2,12.4 133.7,12.5 134.4,12.8 C135.1,13.1 135.6,13.5 136,14 C136.4,14.5 136.6,15.1 136.6,15.9 C136.6,16.4 136.5,16.9 136.2,17.4 C135.9,17.9 135.6,18.1 135.1,18.1 C134.8,18.1 134.5,18 134.3,17.7 C134.1,17.4 134,17.1 133.9,16.8 C133.8,16.5 133.8,16 133.8,15.3 C133.8,14.6 133.7,14 133.4,13.6 Z M139.4,12.4 C139.4,12.7 139.2,13.5 139,14.7 C138.8,16 138.5,17.6 138.2,19.6 C137.9,21.6 137.6,23.1 137.4,24.2 C137.2,25.3 137.1,26.1 137,26.9 C136.9,27.7 136.8,28.3 136.9,29.1 C136.9,29.5 136.9,29.8 137,30 C137,30.2 137.1,30.7 137.3,31.5 L137.6,33.1 C137.8,34 137.9,34.7 137.8,35.1 C137.8,35.6 137.6,36 137.4,36.5 C137.2,37 136.8,37.2 136.2,37.2 C135.7,37.2 135.4,37 135.1,36.5 C134.8,36 134.8,35.6 134.8,35.1 C134.8,34.6 134.8,34.1 134.8,33.6 C134.8,33.1 134.8,32.7 134.8,32.4 C134.8,32.1 134.8,31.9 134.8,31.7 C134.8,31.1 134.7,30.5 134.5,30 C134.3,29.5 134.2,29.2 134,29 C133.8,28.8 133.7,28.6 133.4,28.4 L132.9,28 C132.8,27.9 132.8,27.8 132.8,27.8 C132.8,27.7 132.9,27.6 133.1,27.6 L133.7,27.5 C134,27.5 134.2,27.4 134.4,27.3 C134.6,27.2 134.8,26.6 135.1,25.4 L135.7,23.3 L136.9,18.9 L137.9,14.8 L138.6,12 L139.4,8.6 C139.4,8.5 139.5,8.4 139.6,8.3 C139.7,8.2 139.7,8.2 139.8,8.4 C139.9,8.6 139.9,8.6 139.9,8.7 L139.9,8.9 L139.4,12.4 Z M135.6,3.6 L135.2,3 C135.1,2.9 135.1,2.8 135.1,2.8 L135.1,2.7 C135.1,2.7 135.1,2.7 135.1,2.6 C135.1,2.5 135.2,2.4 135.4,2.4 C135.6,2.4 136,2.6 136.8,2.9 C137.6,3.2 138.1,3.7 138.5,4.3 C138.8,4.9 139,5.5 139,6.1 C139,6.7 138.9,7.2 138.6,7.6 C138.3,8.2 137.9,8.5 137.4,8.5 C137,8.5 136.7,8.3 136.5,8 C136.3,7.7 136.2,7.2 136.2,6.7 L136.2,5.3 C136.2,4.9 136.1,4.5 136,4.3 C135.8,4.1 135.7,3.9 135.6,3.6 Z M144.3,6.1 L144.3,4.3 L144.2,1.2 C144.3,1.1 144.4,1 144.4,1 L144.6,1.1 L147.1,1.8 C147.2,1.9 147.3,1.9 147.4,2 C147.5,2.1 147.5,2.2 147.5,2.3 C147.5,2.4 147.4,2.6 147.2,2.8 L146.7,3.3 L146.7,6.1 L150.7,6.1 L150.7,4.4 L150.6,1.5 L150.7,1.4 L151.1,1.5 L153.4,2.1 C153.5,2.2 153.6,2.2 153.7,2.3 C153.8,2.4 153.8,2.5 153.8,2.6 C153.8,2.7 153.7,2.9 153.6,3.1 L153.1,3.7 L153.1,6.1 L155.6,6.1 L156.5,4.4 C156.7,4 156.9,3.8 156.9,3.8 C157,3.8 157.2,4 157.5,4.3 L159,6.1 C159.2,6.3 159.3,6.5 159.3,6.6 C159.3,6.7 159.4,6.8 159.4,6.9 C159.4,7 159.3,7.1 159,7.1 L157,7.1 L157,7.2 L153.2,7.2 L153.2,9.1 L153.3,10.6 C153.2,11.1 153,11.4 152.6,11.6 C152.2,11.8 151.8,11.9 151.5,11.9 C151.3,11.9 151.1,11.9 151,11.8 C150.9,11.7 150.8,11.6 150.8,11.4 L150.9,8.6 L150.9,7.3 L146.9,7.3 L146.9,9.5 L147,10.9 C146.9,11.3 146.7,11.6 146.4,11.8 C146,12 145.7,12.1 145.3,12.1 C144.9,12.1 144.7,12 144.6,11.9 C144.5,11.8 144.4,11.6 144.4,11.3 L144.5,8.9 L144.5,7.3 L139.8,7.3 C139.6,7.3 139.5,7.1 139.5,6.7 C139.5,6.3 139.6,6.1 139.8,6.1 C139.8,6.1 144.3,6.1 144.3,6.1 Z M157.4,13.3 L157.4,13.3 L153.6,13.3 C153.5,13.6 153.3,13.9 153,14.1 C153,15.3 152.9,16.1 152.9,16.4 L152.8,18.3 L155,18.3 L155.5,17.3 C155.6,17.1 155.7,16.9 155.8,16.9 C155.9,16.8 156.1,16.9 156.4,17.2 L158.2,18.7 C158.3,18.8 158.4,18.9 158.4,19 C158.4,19.1 158.5,19.2 158.5,19.3 C158.5,19.4 158.4,19.5 158.3,19.7 L157.7,20.4 L157.7,35.7 C157.7,36 157.7,36.3 157.6,36.7 C157.5,37.1 157.3,37.3 156.9,37.6 C156.5,37.8 156.1,38 155.5,38.3 C155,38.5 154.6,38.6 154.6,38.6 C154.5,38.6 154.5,38.6 154.4,38.5 C154.4,38.5 154.4,38.4 154.3,38.4 C154.2,38.4 154.3,38.2 154.3,37.9 C154.3,37.6 154.2,37.2 153.9,36.8 C153.6,36.4 153.3,35.9 153,35.7 L152.1,35.1 C152,35 151.9,34.9 151.9,34.8 C151.9,34.6 152,34.5 152.2,34.6 L153.3,34.7 C153.8,34.8 154.2,34.8 154.6,34.7 C154.9,34.7 155,34.6 155.1,34.5 C155.2,34.4 155.2,34.1 155.2,33.6 L155.2,19.5 L152.8,19.5 C152.7,20.6 152.7,21.1 152.7,21.1 L152.4,23.3 C153,24 153.4,24.8 153.8,25.5 C154.2,26.2 154.4,26.8 154.5,27.3 C154.6,27.8 154.7,28.2 154.7,28.5 C154.7,28.9 154.6,29.2 154.5,29.6 C154.4,30 154.2,30.2 154,30.5 C153.8,30.7 153.5,30.9 153.3,30.8 C153.1,30.8 152.9,30.7 152.7,30.4 C152.5,30.1 152.4,29.7 152.4,29.2 C152.4,29 152.4,28.7 152.5,28.1 C152.6,27.5 152.6,27.1 152.6,26.6 C152.6,25.9 152.6,25.5 152.5,25.2 L152.3,24.3 C152.2,24.8 152.1,25.3 152,25.8 C151.9,26.3 151.7,26.9 151.4,27.5 C151.1,28.1 150.7,29 150,30 C149.4,31 148.7,31.8 148.1,32.3 L147.3,33 C147.2,33.1 147.2,33.1 147.1,33.1 C147,33.1 147,33.1 147,33 C147,32.9 147,32.9 147,32.9 L147,32.8 C147,32.7 147,32.6 147.1,32.5 L147.7,31.6 C148.7,30.2 149.4,28.8 149.8,27.3 C150.2,25.8 150.5,24.5 150.6,23.6 C150.7,22.7 150.8,21.9 150.8,21.2 C150.8,20.5 150.9,19.9 150.9,19.4 L147,19.4 C146.9,19.9 146.8,20.9 146.7,22.2 C147.1,22.6 147.5,23 147.8,23.5 C148.1,24 148.5,24.5 148.7,25 C148.9,25.5 149,26 149.1,26.6 C149.1,27.2 149,27.7 148.9,28.1 C148.8,28.4 148.6,28.6 148.4,28.8 C148.2,29 148,29.1 147.8,29.1 C147.5,29.1 147.3,29 147.1,28.7 C146.9,28.4 146.8,28 146.8,27.4 C146.8,27.1 146.8,26.7 146.9,26.1 C147,25.5 147,25.1 147,24.9 C147,24.4 146.9,23.9 146.8,23.6 L146.6,22.8 C146.5,23.3 146.4,23.8 146.3,24.3 C146.2,24.8 146,25.6 145.7,26.5 C145.4,27.4 145,28.4 144.4,29.4 C143.8,30.4 143.2,31.2 142.6,31.9 L142.6,36.4 C142.6,36.6 142.5,36.8 142.4,37 C142.3,37.2 142,37.3 141.8,37.5 C141.6,37.7 141.3,37.7 141.1,37.7 C140.8,37.7 140.7,37.6 140.6,37.5 C140.5,37.4 140.5,37.2 140.4,37 L140.5,33.4 L140.5,21.3 L140.4,16.9 C140.5,16.8 140.5,16.7 140.6,16.7 C140.7,16.7 140.8,16.8 141.1,17 L142.9,18.3 L145.2,18.3 C145.2,17.1 145.2,16.3 145.2,15.7 L145.2,13.9 L145.2,13.4 L140.2,13.4 C140,13.4 139.9,13.2 139.9,12.8 C139.9,12.4 140,12.2 140.2,12.2 L155.8,12.2 L156.8,10.4 C156.9,10.1 157.1,10 157.1,10 C157.1,10 157.3,10.1 157.6,10.4 L159.2,12.4 C159.3,12.5 159.4,12.6 159.4,12.7 C159.4,12.8 159.5,12.9 159.5,12.9 C159.5,12.9 159.5,13 159.4,13.1 C159.3,13.2 159.2,13.2 159.1,13.2 L157.4,13.3 L157.4,13.3 Z M142.6,19.5 L142.6,31.4 C143.3,30 143.8,28.6 144.2,26.9 C144.6,25.3 144.8,23.8 144.9,22.5 C145,21.2 145,20.5 145,20.4 L145,19.6 L142.6,19.6 L142.6,19.5 L142.6,19.5 Z M147.7,13.4 C147.6,13.6 147.4,13.8 147.3,14.1 C147.2,15.3 147.2,16 147.2,16.2 L147.1,18.3 L150.9,18.3 C150.9,17.1 150.9,16.1 150.9,15.5 L150.9,13.8 L150.9,13.3 L147.7,13.3 L147.7,13.4 L147.7,13.4 Z" id="Shape"></path>
                <path d="M172.4,7 C171.3,9.1 170.2,11.2 169.1,13.1 C168,15 166.9,16.7 165.8,18 C164.7,19.3 164,20.3 163.5,20.7 L162.6,21.6 C162.4,21.8 162.3,21.8 162.2,21.8 C162.1,21.8 162.1,21.6 162.1,21.5 C162.1,21.4 162.1,21.2 162.2,21.1 L163,19.9 C163.9,18.5 164.7,16.9 165.5,15 C166.3,13.1 167,11.5 167.5,10.1 C168,8.7 168.4,7.6 168.6,6.8 L169.1,4.8 L169.4,3.6 C169.5,3.6 169.6,3.6 169.8,3.7 L172.8,5.8 C173.1,6 173.2,6.2 173.2,6.4 C173.2,6.6 173.1,6.7 172.8,6.8 L172.4,7 Z M167.3,18.7 C167,18.7 166.9,18.5 166.8,18.2 C166.7,17.8 166.9,17.7 167.3,17.7 L179.1,17.7 L179.7,16.6 C179.8,16.4 179.9,16.2 180,16.2 C180.1,16.2 180.2,16.3 180.4,16.4 L182.6,18.5 C182.8,18.7 182.8,18.8 182.8,19 C182.8,19.1 182.7,19.3 182.6,19.3 L181.9,20 C181.9,21.4 181.9,22.6 181.9,23.7 C181.9,24.8 181.9,26.1 181.8,27.6 C181.7,29.1 181.6,30.6 181.4,32.1 C181.2,33.6 180.9,34.7 180.5,35.5 C180.1,36.3 179.6,36.9 179.1,37.3 C178.6,37.7 178.1,38.1 177.7,38.2 C177.3,38.4 177.1,38.4 177,38.4 C176.9,38.4 176.8,38.4 176.8,38.3 C176.8,38.2 176.7,38.2 176.7,38.1 C176.7,38 176.6,37.9 176.6,37.8 L176.4,36.7 C176.3,36.4 176.1,36.1 175.8,35.7 C175.5,35.3 175.2,35 174.9,34.8 L173.8,34.2 C173.7,34.1 173.6,34.1 173.5,34 C173.4,33.9 173.4,33.8 173.4,33.8 C173.4,33.8 173.4,33.7 173.5,33.6 C173.6,33.5 173.7,33.5 173.8,33.5 L175,33.7 C176.2,33.9 177,33.8 177.3,33.5 C177.7,33.2 177.9,32.8 178.1,32.3 C178.3,31.8 178.5,31.1 178.6,30.1 C178.7,29.1 178.8,27.9 178.9,26.5 C179,25.1 179,23.2 179,20.9 L179,19.3 L179,18.8 L173.2,18.8 L172.8,19.4 C172.7,20.8 172.6,22.1 172.5,23.4 C172.4,24.7 172.2,26.1 171.9,27.6 C171.6,29.1 171,30.5 170.2,31.9 C169.4,33.3 168.5,34.4 167.5,35.2 C166.5,36 165.6,36.7 164.7,37.3 L163.7,37.9 C163.6,38 163.5,38 163.4,38 C163.3,38 163.2,37.9 163.2,37.8 C163.2,37.7 163.3,37.5 163.4,37.4 L164.3,36.5 C166.6,34.2 168.1,32 168.6,29.9 C169.1,27.8 169.5,26 169.6,24.5 C169.7,23 169.8,21.8 169.9,20.9 C169.9,20 169.9,19.4 170,19.4 L170,18.9 L167.3,18.9 L167.3,18.7 L167.3,18.7 Z M178.8,4.6 C178.9,5.2 179.1,5.7 179.3,6.2 C179.5,6.7 179.9,7.6 180.5,9 C181.1,10.4 182.2,11.9 183.7,13.6 C185.2,15.3 186.6,16.4 187.9,17 L188.7,17.4 C188.9,17.5 188.9,17.6 189,17.8 C189.1,18 188.9,18.1 188.8,18.1 L188.1,18.3 C187.4,18.5 186.9,18.8 186.5,19.2 C186.1,19.6 185.9,19.9 185.7,20.3 C185.5,20.6 185.4,20.8 185.4,20.8 C185.2,20.8 184.7,20.3 183.8,19.3 C182.9,18.3 182,17 181.2,15.5 C180.4,14 179.8,12.6 179.4,11.5 C179,10.4 178.5,8.7 177.8,6.3 C177.2,4 176.8,2.6 176.7,2.4 L176.4,1.7 C176.3,1.6 176.3,1.5 176.3,1.4 C176.3,1.3 176.3,1.3 176.4,1.3 C176.5,1.3 176.6,1.3 176.8,1.3 L179.7,2.2 C179.9,2.3 180,2.4 180,2.4 C180,2.5 180,2.6 180,2.6 C180,2.6 180,2.7 179.9,2.8 C179.8,2.9 180,3 180,3 L178.8,4.6 Z" id="Shape"></path>
                <path d="M201.8,7.8 C201.9,7.3 201.9,6.9 202,6.4 C202.1,5.9 202.1,5.3 202.1,4.5 L202.2,2.4 L202.2,0.9 C202.2,0.9 202.3,0.9 202.3,0.8 C202.3,0.7 202.6,0.8 203,0.9 L205.9,1.7 C206.2,1.8 206.3,1.9 206.3,1.9 C206.3,2 206.3,2.1 206.3,2.2 C206.3,2.3 206.2,2.5 206,2.7 L205.4,3.4 C205.3,4.5 205.2,5.2 205.1,5.8 L204.9,7.2 L204.8,7.7 L212.6,7.7 L213.9,5.3 C214,5.1 214.1,5 214.2,5 C214.3,5 214.5,5.1 214.8,5.5 L217,8 C217.2,8.2 217.3,8.4 217.3,8.6 C217.3,8.7 217.2,8.8 217.2,8.9 C217.1,9 217,9 216.9,9 L215.2,9 L215.2,9 L206.3,9 C206.5,9.4 206.6,9.8 206.8,10.1 C207,10.4 207.4,11.1 208.2,12.2 C209,13.3 210.3,14.3 212.2,15.3 C214.1,16.3 215.9,16.9 217.5,17 L218.3,17.1 C218.4,17.1 218.4,17.2 218.5,17.3 C218.5,17.4 218.5,17.4 218.5,17.5 C218.5,17.6 218.5,17.6 218.4,17.7 C218.4,17.8 218.3,17.8 218.3,17.9 L217.7,18.3 L217.1,18.6 C216.8,18.8 216.6,19.1 216.3,19.4 C216.1,19.8 215.9,20.1 215.8,20.4 C215.7,20.7 215.6,20.9 215.6,21 C215.6,21.1 215.5,21.2 215.3,21.2 C215,21.2 214.2,20.9 212.9,20.1 C211.6,19.3 210.4,18.3 209.3,17 C208.2,15.7 207.4,14.4 206.8,13.1 C206.2,11.8 205.9,10.7 205.8,10 L205.7,9.7 L205.6,9 L204.8,9 C204.6,9.8 204.4,10.7 204.2,11.7 C204,12.7 203.3,13.9 202.5,15.3 C201.6,16.7 200.1,18 198,19.2 C195.9,20.4 194.3,21.2 193.2,21.6 L192.1,22 C191.9,22.1 191.8,22.1 191.7,22 C191.6,22 191.6,21.9 191.6,21.8 C191.6,21.7 191.6,21.6 191.6,21.6 C191.6,21.5 191.7,21.4 191.8,21.4 L192.9,20.8 C194.1,20.1 195.5,19.2 196.9,17.9 C198.4,16.6 199.4,15.3 200.1,13.9 C200.7,12.5 201.1,11.5 201.3,10.9 C201.5,10.3 201.6,9.6 201.7,9 L193,9 C192.8,9 192.6,8.8 192.6,8.4 C192.6,8 192.7,7.8 193,7.8 L201.8,7.8 L201.8,7.8 Z M192.4,25.3 C192.3,25.3 192.2,25.2 192.1,25.1 C192,25 192,24.8 192,24.6 C192,24.4 192.1,24.2 192.4,24.2 L208.3,24.2 L208.3,22.1 L208.2,18.8 C208.3,18.7 208.3,18.7 208.4,18.7 L208.7,18.8 L211.3,19.6 C211.6,19.7 211.8,19.8 211.8,20 C211.8,20.2 211.7,20.3 211.6,20.4 L210.9,21.1 L210.9,24.2 L213.8,24.2 L214.9,22.2 C215.1,21.9 215.2,21.7 215.3,21.7 C215.4,21.7 215.6,21.8 215.8,22.1 L217.9,24.3 C218.1,24.5 218.2,24.6 218.2,24.7 C218.2,24.8 218.3,24.9 218.3,25 C218.3,25.1 218.3,25.2 218.2,25.2 C218.1,25.3 218,25.3 217.9,25.3 L210.8,25.3 L210.8,35.8 C210.8,36.4 210.6,36.9 210.1,37.3 C209.6,37.7 209.1,38 208.5,38.4 C207.9,38.7 207.4,38.9 207.2,38.8 C207.1,38.8 207.1,38.8 207.1,38.8 C207.1,38.8 207.1,38.7 207,38.6 C207,38.5 206.9,38.1 206.8,37.4 C206.7,36.7 206.5,36.2 206.2,35.9 C205.9,35.6 205.5,35.4 204.9,35.1 L204.2,34.8 C204.1,34.7 204,34.7 204,34.6 C204,34.5 203.9,34.4 203.9,34.4 C203.9,34.4 203.9,34.3 204,34.2 C204.1,34.1 204.2,34.1 204.3,34.1 L205.1,34.2 C205.4,34.2 206.1,34.3 207.1,34.3 C207.6,34.3 207.8,34.3 207.9,34.1 C208,33.9 208,33.8 208,33.6 L208,25.4 L192.4,25.4 L192.4,25.3 L192.4,25.3 Z M198.6,27.6 L198.1,26.8 C198.1,26.7 198,26.7 198,26.6 C198,26.5 198,26.5 198,26.5 C198,26.3 198.1,26.2 198.2,26.2 C198.3,26.2 198.8,26.4 199.7,27 C200.6,27.5 201.3,28.2 201.8,29 C202.3,29.8 202.5,30.6 202.5,31.3 C202.5,31.8 202.3,32.3 202,33 C201.7,33.7 201.3,34 200.6,33.9 C200.2,33.9 199.8,33.7 199.6,33.3 C199.4,32.9 199.2,32.5 199.2,31.9 L199.2,30 C199.3,29.3 199.1,28.5 198.6,27.6 Z" id="Shape"></path>
                <path d="M222.8,18.1 C222.7,18.1 222.6,18 222.5,18 C222.4,17.9 222.4,17.8 222.4,17.5 C222.4,17.2 222.5,17.1 222.9,17.1 L231.7,17.1 L232.7,15.4 C232.9,15.1 233,14.9 233.1,14.9 C233.2,14.9 233.4,15 233.6,15.2 L235.2,17.3 C235.3,17.5 235.4,17.6 235.4,17.8 C235.4,18.1 235.3,18.2 235,18.2 L232.8,18.2 C232.7,18.6 232.5,18.9 232.3,19.2 L232.3,31.6 C232.3,31.8 232.3,32 232.3,32.2 C232.3,32.4 232.5,32.7 232.9,33.1 C233.3,33.5 234.7,33.7 237.1,33.7 C240,33.7 241.8,33.5 242.6,33.2 C243.4,32.9 244.1,32.5 244.5,32.1 C244.9,31.7 245.3,30.6 245.8,29.1 L246.7,25.9 C246.7,25.7 246.8,25.6 246.9,25.6 C247,25.6 247.1,25.7 247.1,25.9 C247.1,26.1 247.1,26.1 247.1,26.1 L246.6,29.5 C246.5,30 246.5,30.5 246.5,30.9 C246.5,31.3 246.6,31.7 246.7,32 L247.1,32.7 C247.2,32.8 247.2,33 247.3,33.3 C247.4,33.6 247.3,33.9 247.2,34.4 C246.9,35.2 246.2,35.8 245,36.3 C243.8,36.8 241.6,37.1 238.3,37.1 C234.6,37.1 232.4,36.9 231.6,36.5 C230.8,36.1 230.3,35.7 230.1,35.3 C229.9,34.9 229.7,34 229.7,32.6 L229.7,18.1 L228.4,18.1 L227.9,19 C227.9,20.6 227.8,22 227.7,23.1 C227.6,24.2 227.5,25.3 227.4,26.5 C227.2,27.7 227,28.8 226.6,29.9 C226.2,31 225.8,31.9 225.3,32.8 C224.8,33.7 224.3,34.4 223.8,35.1 C223.3,35.8 222.8,36.3 222.5,36.6 L221.7,37.4 C221.6,37.5 221.5,37.6 221.4,37.6 C221.3,37.6 221.3,37.6 221.3,37.5 C221.3,37.4 221.3,37.4 221.3,37.4 C221.3,37.4 221.3,37.3 221.3,37.2 C221.3,37.1 221.4,37 221.5,36.9 L222.2,35.9 C222.5,35.5 222.8,35 223.2,34.2 C223.6,33.4 224,32.5 224.5,31.3 C225,30.1 225.3,28.5 225.4,26.4 C225.5,24.3 225.6,22.5 225.6,20.9 L225.6,19.9 L225.6,18.4 L223,18.4 L222.8,18.4 L222.8,18.1 Z M242.5,4.8 L243.5,3.1 C243.7,2.8 243.8,2.7 243.9,2.7 C244,2.7 244.1,2.8 244.4,3 L246.8,5.4 C247.1,5.8 247.3,6.1 247.3,6.4 C247.3,6.8 247.1,7.1 246.6,7.1 L245.7,7.1 C245.2,7.1 244.7,7.2 244.2,7.5 C243.7,7.8 243.3,8 243,8.2 L242.1,9.1 C241.9,9.3 241.7,9.4 241.7,9.2 C241.7,9 241.6,9 241.6,8.9 C241.6,8.8 241.6,8.8 241.7,8.6 L242.6,5.8 L225.7,5.8 C225.8,6.6 225.8,7.2 225.8,7.5 C225.8,8 225.7,8.5 225.6,9.1 C225.5,9.7 225.2,10.2 224.9,10.6 C224.5,11 224.1,11.3 223.6,11.3 C223.1,11.3 222.7,11.1 222.4,10.6 C222.2,10.1 222,9.6 222,9.1 C222,8.6 222.2,7.9 222.7,7.1 C222.8,7 223,6.7 223.3,6.3 C223.6,5.9 223.8,5.5 223.9,5.2 C224,4.9 224.1,4.5 224.1,4 L224.2,2.5 C224.2,2.3 224.3,2.2 224.4,2.2 C224.6,2.2 224.7,2.4 224.9,2.8 C225.1,3.2 225.3,3.8 225.5,4.7 L242.5,4.8 L242.5,4.8 Z M230.1,10.7 L231.1,9 C231.2,8.8 231.3,8.7 231.5,8.7 C231.6,8.7 231.7,8.8 231.9,9 L233.3,10.7 C233.4,10.9 233.5,11 233.6,11.2 C233.7,11.4 233.7,11.4 233.7,11.5 C233.7,11.6 233.6,11.7 233.5,11.8 C233.4,11.9 233.3,11.9 233.2,11.9 L225.7,11.9 L225.6,11.9 C225.5,11.9 225.4,11.8 225.3,11.7 C225.2,11.6 225.2,11.4 225.2,11.2 C225.2,11 225.4,10.8 225.6,10.8 L230.1,10.7 L230.1,10.7 Z M235.5,21.1 L235,20 C235,19.9 234.9,19.8 234.9,19.6 C234.9,19.4 235,19.4 235.2,19.4 C235.5,19.4 235.9,19.7 236.5,20.1 C237.1,20.5 237.6,21.1 237.9,21.7 C238.3,22.3 238.4,23 238.4,23.7 C238.4,24.2 238.2,24.7 238,25.2 C237.7,25.7 237.4,25.9 236.9,25.9 C236.5,25.9 236.2,25.7 236,25.4 C235.8,25.1 235.7,24.7 235.6,24.2 C235.5,23.7 235.5,23.2 235.6,22.5 C235.7,21.9 235.6,21.4 235.5,21.1 Z M240.4,16.8 L235.6,16.8 C235.4,16.8 235.2,16.6 235.2,16.2 C235.2,15.8 235.3,15.6 235.6,15.6 L240.4,15.6 L240.4,12.3 L240.3,9.1 C240.3,9 240.4,9 240.4,9 C240.4,9 240.6,9 240.9,9.1 L243.2,9.7 C243.4,9.8 243.6,9.9 243.6,10.1 C243.6,10.3 243.6,10.5 243.4,10.6 L242.9,11.2 L242.9,15.6 L244,15.6 L245.1,13.7 C245.2,13.5 245.3,13.4 245.4,13.4 C245.5,13.4 245.6,13.5 245.8,13.7 L247.4,15.9 C247.6,16.1 247.6,16.3 247.6,16.4 C247.6,16.6 247.5,16.7 247.2,16.7 L242.9,16.7 L242.9,28.7 C242.9,29.3 242.8,29.9 242.7,30.4 C242.6,30.9 242.1,31.3 241.4,31.7 C240.7,32.1 240.1,32.3 239.9,32.3 C239.7,32.3 239.6,32.3 239.6,32.2 C239.6,32.1 239.5,31.9 239.4,31.5 C239.3,31.1 239.2,30.7 239,30.4 C238.8,30.1 238.5,29.8 238.1,29.6 L237.2,29.1 C237.1,29 237,29 237,28.9 C237,28.8 236.9,28.7 236.9,28.6 C236.9,28.5 237,28.4 237.2,28.4 L238.6,28.4 C239.4,28.4 239.9,28.4 240.1,28.3 C240.3,28.2 240.4,27.9 240.4,27.5 L240.4,16.8 L240.4,16.8 Z" id="Shape"></path>
            </g>
            <g id="Group" transform="translate(78.000000, 0.000000)">
                <g transform="translate(37.000000, 0.000000)" id="Shape">
                    <path d="M0.5,3.4 L2.3,3.4 C2.3,3.1 2.3,2.9 2.4,2.7 C2.5,2.5 2.4,2.4 2.4,2.3 C2.4,2.2 2.4,2.1 2.4,2.1 L2.4,1.4 L2.4,1 L2.4,0.9 C2.4,0.9 2.5,0.9 2.6,0.9 L4,1.3 C4.1,1.3 4.1,1.4 4.1,1.4 C4.1,1.4 4.1,1.5 4,1.6 L3.7,1.9 C3.7,2.3 3.6,2.6 3.6,2.8 L3.6,3 L3.6,3.3 L5,3.3 L5.2,2.8 C5.3,2.6 5.3,2.6 5.3,2.5 C5.3,2.4 5.4,2.5 5.5,2.6 L6.4,3.4 C6.5,3.5 6.5,3.5 6.5,3.6 C6.5,3.7 6.5,3.7 6.4,3.8 L6,4.1 C6,4.6 5.9,5.2 5.9,5.8 C5.9,6.4 5.8,6.9 5.6,7.3 C5.4,7.7 5.2,8 4.9,8.1 C4.6,8.2 4.4,8.3 4.3,8.3 C4.3,8.3 4.3,8.2 4.2,8.1 C4.1,8 4.1,7.8 4.1,7.6 C4.1,7.4 3.9,7.2 3.6,7 L3.2,6.8 C3.2,6.8 3.2,6.8 3.1,6.7 C3,6.6 3.1,6.6 3.1,6.6 C3.1,6.6 3.1,6.6 3.1,6.5 C3.1,6.4 3.2,6.4 3.2,6.4 L3.5,6.4 L3.8,6.5 C3.9,6.5 4,6.5 4.1,6.5 C4.3,6.5 4.5,6.5 4.6,6.4 C4.7,6.3 4.8,6.1 4.8,5.8 C4.8,5.5 4.9,5.2 4.9,4.8 C4.9,4.4 4.9,4.1 4.9,3.9 L3.4,3.9 C3.4,4 3.3,4.2 3.3,4.5 C3.3,4.8 3.1,5.2 3,5.6 C2.9,6 2.7,6.4 2.5,6.8 C2.3,7.2 1.9,7.7 1.5,8.1 C1.1,8.5 0.8,8.9 0.6,9.1 L0.3,9.4 C0.2,9.5 0.1,9.5 0.1,9.4 C0.1,9.3 0.1,9.2 0.2,9.2 L0.5,8.9 C0.6,8.8 0.7,8.6 0.9,8.3 C1.1,8 1.3,7.7 1.4,7.4 C1.5,7.1 1.7,6.6 1.9,6.1 C2.1,5.6 2.2,4.9 2.3,4.1 L0.6,4.1 C0.4,4.1 0.4,4 0.4,3.9 L0.5,3.6 L0.5,3.4 L0.5,3.4 Z M8.4,15.1 L8.9,14.2 C8.9,14 9,14 9,14 C9,14 9.1,14.1 9.2,14.2 L10.1,15.3 C10.2,15.4 10.2,15.5 10.2,15.6 C10.2,15.7 10.2,15.7 10.1,15.7 L9.9,15.7 L9.9,15.7 L1,15.7 C0.9,15.7 0.8,15.6 0.8,15.4 C0.8,15.2 0.9,15.1 1,15.1 L8.4,15.1 L8.4,15.1 Z M2,8.8 L2,8.8 L8.5,8.8 L8.8,8.3 C9,8.1 9,8 9.1,8 C9.2,8 9.2,8.1 9.2,8.1 L10.1,9.1 L10.2,9.2 C10.2,9.2 10.2,9.3 10,9.4 L9.7,9.7 L9.3,12.6 L11,12.6 L11.3,12 C11.4,11.9 11.4,11.8 11.4,11.8 C11.4,11.8 11.5,11.8 11.5,11.9 L12.5,13 L12.6,13.1 L12.6,13.1 L12.6,13.1 C12.6,13.1 12.6,13.1 12.5,13.2 L12.1,13.5 C12.1,14 12,14.6 11.9,15.4 C11.8,16.2 11.7,16.8 11.5,17.2 C11.3,17.6 11.1,17.9 10.9,18.1 C10.7,18.3 10.5,18.5 10.3,18.5 L9.7,18.8 C9.6,18.8 9.6,18.9 9.6,18.9 C9.5,18.9 9.5,18.8 9.4,18.6 L9.3,18.2 C9.2,17.8 9,17.5 8.6,17.3 L8.2,17.1 L8.1,17 L8.1,16.9 L8.2,16.9 L8.5,17 C8.8,17.1 9.1,17.1 9.4,17.1 C9.6,17.1 9.8,17.1 10,17 C10.2,16.9 10.3,16.7 10.4,16.4 C10.5,16.1 10.6,15.7 10.7,15.3 C10.8,14.9 10.8,14.6 10.8,14.3 C10.8,14 10.8,13.7 10.9,13.3 L3.5,13.3 L3.2,13.7 L3.1,14 L3.1,14 C3.1,14 3,14 3,13.9 L2.3,13.2 C2.2,13.1 2.2,13.1 2.2,13.1 C2.2,13.1 2.2,13.1 2.2,13 C2.2,12.9 2.2,13 2.2,12.9 L2.3,12.9 L2.6,12.7 C2.7,12.2 2.8,11.9 2.8,11.7 C2.8,11.5 2.9,11.1 3,10.5 L3.1,9.9 L3.1,9.5 L3.1,9.4 L3.3,9.5 L4.3,10.1 C4.4,10.2 4.5,10.3 4.5,10.3 C4.5,10.3 4.5,10.4 4.4,10.4 L4.1,10.7 L3.8,12.8 L8.1,12.8 L8.5,9.3 L2,9.3 C1.9,9.3 1.9,9.2 1.8,9.1 C1.9,9 1.9,8.9 2,8.8 Z M10.4,3 L10.6,2.5 C10.7,2.3 10.8,2.1 10.8,2.1 L10.8,2.1 L10.9,2.2 L11.8,3.1 L11.9,3.2 L11.9,3.3 C11.9,3.3 11.9,3.4 11.8,3.5 L11.5,3.8 L11.5,6 L11.5,7.4 C11.5,7.6 11.4,7.7 11.2,7.8 C11,7.9 10.9,7.9 10.6,7.9 C10.3,7.9 10.3,7.7 10.3,7.4 L10.3,6.8 L8,6.8 L8,7.4 C8,7.5 8,7.7 7.9,7.8 C7.8,7.9 7.7,8 7.5,8 C7.3,8 7.1,8 7.1,7.9 C7.1,7.8 7,7.8 7,7.7 L7,6.4 L7,3.7 L6.9,2.2 L6.9,2.1 C6.9,2.1 6.9,2.1 7,2.2 L8,2.9 L10.4,3 L10.4,3 Z M10.4,6.3 L10.4,3.5 L8.1,3.5 L8.1,6.3 L10.4,6.3 Z"></path>
                    <path d="M15.3,9.8 L16.8,9.8 L17.5,3.1 L14.3,3.1 C14.1,3.1 14,3 14.1,2.8 L14.2,2.6 L14.3,2.6 L17.5,2.6 L17.8,2 C17.9,1.9 17.9,1.8 17.9,1.8 C17.9,1.8 18,1.8 18,1.9 L18.9,2.8 C19,2.9 19,2.9 19,3 C19,3.1 19,3.1 19,3.1 C19,3.1 19,3.2 18.9,3.2 L18.5,3.6 L17.8,9.8 L18,9.8 L18.2,9.4 C18.3,9.2 18.3,9.1 18.4,9.1 C18.5,9.1 18.5,9.1 18.6,9.2 L19.5,10.2 L19.5,6 L19.4,4.5 C19.4,4.4 19.4,4.4 19.5,4.4 L19.6,4.4 L20.6,5 L21.3,5 L22,5 L22,2.1 L21.9,1 C21.9,1 21.9,1 21.9,0.9 L22.1,1 L23.3,1.4 C23.4,1.4 23.4,1.5 23.4,1.5 C23.4,1.5 23.4,1.6 23.5,1.6 C23.6,1.6 23.5,1.7 23.3,1.8 L23,2.1 L23,4.9 L23.7,4.9 L24.4,4.9 L24.6,4.4 L24.8,4.1 C24.9,4.1 24.9,4.1 25,4.2 L25.9,5.2 C26,5.3 26,5.3 26,5.4 C26,5.5 26,5.5 26,5.5 C26,5.5 26,5.6 25.9,5.6 L25.6,5.9 L25.6,9.2 L25.7,10.6 C25.7,10.7 25.6,10.9 25.5,11 C25.4,11.1 25.2,11.2 25,11.2 C24.7,11.2 24.6,11.2 24.5,11.1 C24.4,11 24.4,10.9 24.4,10.7 L24.4,10.3 L23,10.3 C23,10.7 23,11.1 22.9,11.4 C22.8,11.7 22.8,12.1 22.8,12.6 C22.8,13.1 22.7,13.6 22.6,14 L22.4,14.6 C23.1,15.3 23.8,15.7 24.5,16 C25.2,16.3 25.8,16.4 26.2,16.4 L26.6,16.4 C26.7,16.4 26.7,16.5 26.7,16.5 C26.7,16.5 26.7,16.6 26.6,16.7 L26.4,16.9 C26.1,17.1 25.9,17.4 25.8,17.7 L25.7,18.1 C25.6,18.2 25.6,18.3 25.5,18.3 L25.4,18.3 C25.4,18.3 25.2,18.2 25,18.1 C24.8,18 24.4,17.8 23.7,17.4 C23.1,17 22.4,16.4 21.8,15.7 C21.4,16.3 21,16.7 20.6,17.1 C20.2,17.5 19.9,17.8 19.6,17.9 C19.3,18 19.1,18.2 18.7,18.4 L18.2,18.7 L18.1,18.7 L18,18.6 C18,18.6 18,18.5 18.1,18.4 L18.5,18 C19.1,17.5 19.6,17 19.9,16.6 C20.3,16.1 20.6,15.5 21,14.7 C20.9,14.6 20.9,14.5 20.8,14.4 L20.5,13.7 C20.3,13.3 20.2,13 20.1,12.7 C20,12.4 19.9,12.2 19.9,12.1 C19.9,12 19.8,11.8 19.8,11.8 C19.8,11.8 19.8,11.7 19.8,11.6 C19.8,11.5 19.8,11.5 19.9,11.5 C20,11.5 20.1,11.6 20.3,12 C20.5,12.4 20.7,12.6 20.8,12.9 C20.9,13.2 21.1,13.4 21.4,13.7 C21.5,13.3 21.5,13 21.6,12.6 C21.7,12.2 21.7,11.8 21.7,11.4 L21.8,10.2 L20.4,10.2 L20.4,10.8 C20.4,10.9 20.3,11.1 20.2,11.2 C20.1,11.3 19.9,11.3 19.7,11.4 C19.5,11.5 19.4,11.3 19.3,11.2 C19.2,11.1 19.3,11 19.3,11 L19.3,10.4 L18.9,10.8 C18.9,11.4 18.9,11.8 18.9,12.2 C18.9,12.6 18.9,12.9 18.8,13.4 C18.7,13.9 18.7,14.3 18.7,14.9 C18.7,15.5 18.6,16.1 18.4,16.6 C18.2,17.2 18,17.6 17.6,17.9 C17.2,18.2 16.9,18.4 16.6,18.4 L16.5,18.4 C16.5,18.4 16.5,18.3 16.4,18.1 C16.3,17.9 16.3,17.7 16.2,17.4 C16.1,17.1 15.9,17 15.7,16.8 L15.4,16.6 L15.3,16.6 L15.3,16.5 C15.3,16.5 15.3,16.4 15.4,16.4 L15.8,16.5 C16.1,16.6 16.4,16.6 16.6,16.6 C16.9,16.6 17.2,16.4 17.3,16.1 C17.4,15.8 17.5,15.3 17.6,14.7 C17.7,14.1 17.7,13.5 17.7,12.8 C17.7,12.1 17.8,11.7 17.8,11.5 C17.8,11.3 17.8,11.1 17.8,11 C17.8,10.9 17.8,10.8 17.8,10.8 L17.8,10.5 L14.9,10.5 L15,10.8 L14.9,11.1 C14.9,11.1 14.9,11.1 14.8,11.1 C14.7,11.1 14.8,11.1 14.7,11 L14.1,10.4 C14,10.3 14,10.3 14,10.3 L14,10.3 C14,10.3 14,10.3 14.1,10.2 L14.3,9.9 C14.4,9.4 14.4,8.8 14.5,8.2 C14.6,7.6 14.6,7.1 14.7,6.8 L14.9,4.9 L15,4.2 L15,3.8 C15,3.8 15,3.8 15,3.7 C15,3.6 15.1,3.7 15.3,3.8 L16.3,4.3 L16.4,4.4 C16.4,4.4 16.4,4.5 16.3,4.5 L16,4.8 L15.3,9.8 Z M14.4,14.6 L14.1,13.6 L14,13.4 C14,13.4 14,13.4 14,13.3 C14,13.2 14.1,13.3 14.3,13.2 L14.9,13.1 C15.5,13 16.3,12.7 17.3,12.4 L17.7,12.2 C17.8,12.2 17.8,12.2 17.8,12.3 C17.8,12.4 17.8,12.5 17.7,12.5 L17.3,12.8 C17.2,12.9 16.9,13.1 16.5,13.4 C16.1,13.7 15.8,13.9 15.5,14.2 L14.9,14.7 C14.7,14.9 14.6,15 14.5,15 C14.4,15 14.5,14.9 14.4,14.6 Z M22,9.7 C22,9.6 22,9.5 22,9.5 L22,7.8 C22,7.7 22,7.5 22,7.1 L22,6.3 L22,5.7 L20.6,5.7 L20.6,9.7 L22,9.7 Z M23.1,5.7 L23.1,9.7 L24.5,9.7 L24.5,5.7 L23.1,5.7 L23.1,5.7 Z"></path>
                    <path d="M30.7,8.9 C30.6,8.9 30.5,8.8 30.5,8.6 C30.5,8.4 30.5,8.3 30.7,8.3 L36,8.3 L36.3,7.9 C36.4,7.8 36.5,7.7 36.5,7.7 C36.5,7.7 36.6,7.8 36.8,8 L37.6,9 C37.8,9.2 37.8,9.3 37.8,9.4 C37.8,9.5 37.7,9.6 37.6,9.6 L37.2,9.6 C36.6,9.9 36.2,10 36,10.1 L35.3,10.5 C35.4,10.6 35.5,10.6 35.4,10.6 L35.3,10.7 L35,11 L35,12.1 L38.1,12.1 L38.7,11.2 C38.8,11 38.9,10.9 39,10.9 C39.1,10.9 39.2,11 39.3,11.2 L40.2,12.2 C40.3,12.3 40.3,12.4 40.4,12.5 C40.5,12.6 40.4,12.7 40.3,12.7 L35.1,12.7 L35.1,16.5 C35.1,16.8 35.1,17 35.1,17.1 C35.1,17.2 35.1,17.3 35.1,17.4 C35.1,17.6 35,17.7 34.9,17.9 C34.8,18.1 34.7,18.1 34.5,18.2 C34.3,18.3 34.1,18.4 33.9,18.5 C33.7,18.6 33.5,18.6 33.5,18.6 L33.4,18.6 C33.4,18.6 33.4,18.5 33.4,18.3 C33.4,18.1 33.4,18 33.3,17.8 C33.1,17.4 32.9,17.1 32.5,16.9 L32.2,16.8 L32.1,16.7 C32.1,16.6 32.1,16.6 32.1,16.6 C32.1,16.5 32.2,16.5 32.2,16.5 L32.5,16.6 C33,16.7 33.3,16.8 33.5,16.7 C33.6,16.7 33.7,16.7 33.8,16.6 C33.8,16.5 33.9,16.4 33.9,16.3 L33.9,12.7 L28.6,12.7 L28.5,12.7 C28.4,12.6 28.4,12.5 28.4,12.4 C28.4,12.3 28.5,12.2 28.6,12.2 L33.9,12.2 L33.9,11.3 L33.9,10 C33.9,10 33.9,9.9 34,9.9 C34.1,9.9 34.1,9.9 34.2,10 L35.2,10.5 C35.4,10.2 35.5,10 35.6,9.8 L36,9.1 L36.1,8.9 C36.1,8.9 30.7,8.9 30.7,8.9 Z M36.1,5.8 C36.3,5.1 36.5,4.4 36.6,3.7 C36.7,3 36.8,2.5 36.9,2.1 L37,1.4 L37,1 C37,1 37.1,1 37.3,1.1 L38.4,1.8 C38.6,1.9 38.7,2.1 38.7,2.2 C38.7,2.3 38.7,2.3 38.6,2.3 L38.2,2.6 C37.5,3.9 37,5 36.6,5.8 L38.5,5.8 L38.7,5.4 C38.8,5.3 38.8,5.2 38.9,5.2 C39,5.2 39,5.3 39.2,5.5 L40.2,6.7 C40.4,6.9 40.5,7.1 40.5,7.2 C40.5,7.3 40.4,7.4 40.3,7.4 C40.2,7.4 40,7.5 39.8,7.5 C39.6,7.5 39.3,7.6 39.1,7.7 C38.9,7.8 38.6,8.1 38.3,8.5 L38,8.9 C38,9 37.9,9 37.9,9 L37.8,8.9 C37.8,8.9 37.8,8.8 37.8,8.7 L37.9,8.3 C38.1,7.7 38.2,7.2 38.2,7 C38.2,6.8 38.3,6.6 38.3,6.4 L30,6.4 C30.1,7 30.1,7.4 30.1,7.7 C30.1,8.3 30,8.7 29.8,9 C29.6,9.3 29.4,9.5 29.1,9.4 C28.8,9.3 28.7,9.3 28.6,9.1 C28.5,8.9 28.4,8.7 28.4,8.4 C28.4,8.2 28.4,8.1 28.5,7.9 C28.5,7.8 28.6,7.6 28.7,7.5 L28.9,7.1 C29.2,6.6 29.3,6.1 29.3,5.5 L29.3,5.4 L29.3,5 C29.3,4.9 29.3,4.9 29.4,4.9 C29.5,4.9 29.5,5 29.6,5.2 C29.7,5.4 29.8,5.6 29.8,5.8 L36.1,5.8 Z M30.2,1.7 C30.2,1.7 30.1,1.6 30.2,1.7 C30.2,1.6 30.2,1.6 30.3,1.5 C30.4,1.5 30.6,1.6 30.9,1.9 C31.2,2.2 31.6,2.5 32,2.8 C32.4,3.1 32.5,3.7 32.5,4.3 C32.5,4.6 32.4,4.9 32.3,5.1 C32.2,5.3 32,5.4 31.8,5.4 C31.6,5.4 31.5,5.3 31.4,5.2 C31.3,5.1 31.1,5 31,4.7 C31,4.5 30.9,4.2 30.9,3.8 C30.9,3.4 30.8,3.1 30.7,2.9 C30.6,2.7 30.5,2.3 30.3,2 L30.2,1.7 Z M33.1,1.3 C33.1,1.2 33.1,1.2 33.2,1.2 C33.3,1.2 33.6,1.4 34.1,1.9 C34.6,2.4 34.9,2.8 35.1,3.2 C35.2,3.6 35.3,3.9 35.3,4.1 C35.3,4.3 35.3,4.5 35.2,4.7 C35,5.2 34.8,5.4 34.5,5.4 C34.3,5.4 34.2,5.3 34.1,5.2 C34,5.1 33.9,4.9 33.9,4.7 C33.9,4.5 33.9,4.2 33.9,3.8 C33.9,3.4 33.9,3 33.8,2.6 C33.7,2.2 33.6,1.9 33.5,1.6 L33.1,1.3 Z"></path>
                    <path d="M44.7,3.1 L43.4,3.1 L43.4,16 L43.4,18.1 C43.3,18.3 43.2,18.5 43.1,18.6 C43,18.7 42.8,18.7 42.6,18.7 C42.4,18.7 42.4,18.7 42.3,18.6 C42.2,18.5 42.2,18.5 42.2,18.3 L42.3,15.3 L42.3,4.6 L42.2,1.6 C42.2,1.5 42.3,1.5 42.3,1.5 C42.3,1.5 42.4,1.5 42.4,1.6 L43.4,2.5 L44.5,2.5 L44.9,1.8 C45,1.6 45.1,1.5 45.1,1.5 C45.1,1.5 45.2,1.5 45.3,1.6 L46.1,2.5 C46.2,2.6 46.2,2.7 46.3,2.7 L46.3,2.8 C46.3,2.8 46.2,2.9 46.1,3 L45.8,3.3 C45.5,4.3 45.3,4.9 45.2,5 L44.4,7 C44.6,7.3 44.8,7.6 45,7.9 C45.2,8.2 45.4,8.6 45.6,9.1 C45.8,9.6 46,10 46.1,10.4 C46.2,10.8 46.2,11.1 46.2,11.4 C46.2,12 46.1,12.5 45.9,12.9 C45.7,13.3 45.5,13.5 45.2,13.7 C44.9,13.9 44.8,14 44.6,13.9 L44.5,13.9 C44.5,13.9 44.5,13.8 44.5,13.6 C44.5,13.4 44.4,13.2 44.4,13.1 C44.4,13 44.2,12.8 44.1,12.7 L43.7,12.4 C43.6,12.4 43.6,12.3 43.6,12.2 C43.6,12.1 43.7,12.1 43.8,12.1 L44.2,12.1 C44.5,12.1 44.7,12 44.8,11.9 C44.9,11.8 45,11.6 45,11.3 C45,11 45.1,10.8 45.1,10.5 C45.1,10.2 45.1,9.7 45,9.3 C44.9,8.9 44.8,8.4 44.6,8 L44.2,7.2 C44.4,6 44.5,5.3 44.5,4.9 C44.5,4.6 44.6,4 44.7,3.1 Z M50.8,10.9 L51.7,11.4 C51.8,11.5 51.8,11.5 51.8,11.6 C51.8,11.7 51.8,11.7 51.7,11.8 L51.3,12.1 L51.3,16.4 C51.3,16.5 51.3,16.5 51.4,16.6 C51.5,16.7 51.5,16.8 51.7,16.8 C51.9,16.8 52,16.9 52.2,16.8 C52.7,16.8 53,16.7 53.1,16.6 C53.3,16.5 53.4,16.4 53.5,16.2 C53.6,16 53.7,15.8 53.8,15.3 L54.2,13.9 C54.2,13.8 54.3,13.7 54.3,13.7 C54.4,13.7 54.4,13.8 54.4,13.9 L54.3,15.4 C54.3,15.5 54.3,15.6 54.3,15.8 C54.3,16 54.3,16.1 54.3,16.2 L54.5,16.5 C54.6,16.6 54.6,16.7 54.6,16.8 C54.6,16.9 54.6,16.9 54.6,17 L54.6,17.1 C54.6,17.4 54.4,17.7 54,17.9 C53.7,18.1 53.1,18.3 52.3,18.3 C51.1,18.3 50.5,18.1 50.3,17.8 C50.1,17.5 50.1,17.3 50.1,17.1 L50.1,10.9 L48.3,10.9 L49.3,11.4 C49.4,11.5 49.4,11.5 49.4,11.6 C49.4,11.7 49.4,11.7 49.3,11.8 L49,12.2 C48.9,12.8 48.9,13.4 48.8,13.9 C48.7,14.4 48.6,15 48.3,15.7 C48,16.4 47.6,17 46.9,17.5 C46.2,18 45.6,18.3 45,18.5 L44.6,18.6 C44.6,18.6 44.6,18.6 44.5,18.6 C44.4,18.6 44.4,18.6 44.4,18.6 L44.4,18.5 C44.4,18.4 44.4,18.4 44.5,18.3 L44.9,18 C45,17.9 45.2,17.8 45.5,17.6 C45.8,17.4 46,17.1 46.2,16.9 C46.4,16.7 46.7,16.3 46.9,15.8 C47.1,15.3 47.3,14.6 47.4,13.8 C47.5,13 47.5,12.4 47.6,12 L47.6,11 L46.2,11 L46.2,11 C46.2,11 46.1,11 46.1,10.9 C46.1,10.8 46.1,10.8 46,10.6 C45.9,10.4 46.1,10.4 46.2,10.4 L52.3,10.4 L52.8,9.6 C52.9,9.5 52.9,9.4 53,9.4 C53,9.4 53.1,9.5 53.2,9.6 L53.9,10.4 C54,10.5 54.1,10.7 54.1,10.7 C54.1,10.8 54,10.9 53.9,10.9 C53.9,10.9 50.8,10.9 50.8,10.9 Z M52.6,4.6 L53,4 C53.1,3.9 53.1,3.8 53.1,3.8 C53.1,3.8 53.2,3.9 53.3,4 L54.3,5.2 C54.4,5.3 54.5,5.5 54.5,5.6 C54.5,5.7 54.4,5.8 54.4,5.8 C54.4,5.8 54.1,5.9 53.8,5.9 C53.5,5.9 53.2,6.1 53,6.4 L52.7,6.8 C52.5,7 52.4,7 52.4,7 C52.4,7 52.3,7 52.3,6.9 L52.3,6.8 L52.3,6.7 L52.6,5.1 L47.4,5.1 C47.4,5.2 47.4,5.4 47.4,5.5 C47.4,5.6 47.4,5.8 47.4,6 C47.4,6.2 47.3,6.5 47.2,6.8 C47.1,7 47,7.2 46.8,7.3 C46.7,7.4 46.5,7.5 46.4,7.5 C46.2,7.5 46,7.4 45.9,7.2 C45.8,7 45.7,6.8 45.7,6.6 C45.7,6.5 45.7,6.4 45.8,6.2 C45.9,6 45.9,5.8 46.1,5.6 C46.3,5.3 46.4,5.2 46.5,5 C46.6,4.9 46.6,4.6 46.7,4.3 L46.7,3.8 C46.7,3.7 46.7,3.6 46.8,3.6 C46.9,3.6 47,3.7 47,3.9 C47,4.1 47.1,4.3 47.2,4.5 L52.6,4.6 L52.6,4.6 Z M47.3,8.1 C47.2,8.1 47.2,8.1 47.2,8 C47.2,7.9 47.1,7.9 47.1,7.7 C47.1,7.6 47.2,7.5 47.3,7.5 L51.2,7.5 L51.5,6.8 C51.6,6.6 51.6,6.6 51.7,6.6 C51.8,6.6 51.8,6.6 51.9,6.8 L52.6,7.7 C52.6,7.7 52.6,7.8 52.7,7.8 C52.7,7.9 52.7,7.9 52.7,7.9 L52.7,8 L52.6,8 L47.3,8.1 L47.3,8.1 Z M49.2,2 L48.9,1.6 L48.9,1.5 L48.9,1.4 L48.9,1.4 L49,1.3 C49.1,1.3 49.3,1.4 49.7,1.6 C50.1,1.8 50.3,2.1 50.5,2.4 C50.7,2.7 50.8,3 50.8,3.3 C50.8,3.6 50.7,3.9 50.6,4.1 C50.4,4.4 50.2,4.5 50,4.5 C49.9,4.5 49.8,4.5 49.6,4.4 C49.5,4.3 49.4,4.1 49.3,3.9 C49.3,3.8 49.3,3.6 49.3,3.5 L49.3,2.8 C49.3,2.4 49.3,2.1 49.2,2 Z"></path>
                </g>
                <g transform="translate(0.000000, 1.000000)">
                    <path d="M2.9,12.8 C2.8,13.2 2.7,13.6 2.7,13.8 C2.7,14.2 3,14.4 3.8,14.4 L3.8,14.9 C3.1,14.8 2.7,14.8 2.2,14.8 C1.7,14.8 1.3,14.8 0.6,14.9 L0.6,14.4 C1.6,14.3 1.8,14.2 2.2,12.9 L6.1,0.4 L9.6,13.2 C9.9,14.2 10.1,14.3 11.1,14.4 L11.1,14.9 C10.2,14.8 9.7,14.7 9.1,14.7 C8.5,14.7 8,14.7 7,14.9 L7,14.4 C7.7,14.3 8,14.1 8,13.8 C8,13.6 8,13.4 7.9,13.1 L7.3,10.8 L3.5,10.8 L2.9,12.8 Z M7.2,10.2 L5.6,4 L3.7,10.2 L7.2,10.2 Z" id="Shape"></path>
                    <path d="M14,13 L14,13.2 C14,14.1 14.2,14.3 15.4,14.4 L15.4,14.9 C14.6,14.8 14.2,14.8 13.7,14.8 C13.2,14.8 12.9,14.8 12,14.9 L12,14.4 L12.2,14.4 C13.2,14.3 13.3,14.1 13.4,13 L13.8,2.7 L13.8,2.6 C13.8,1.6 13.6,1.4 12.4,1.3 L12.4,0.8 C13.1,0.9 13.4,0.9 13.8,0.9 C14.4,0.9 14.8,0.9 15.4,0.8 L18.5,11.3 L21.6,0.8 C22.4,0.9 22.8,0.9 23.2,0.9 C23.6,0.9 23.9,0.9 24.5,0.8 L24.5,1.3 C23.3,1.4 23.1,1.6 23.1,2.7 L23.3,13 C23.3,14.1 23.5,14.3 24.7,14.4 L24.7,14.9 C23.6,14.8 23.1,14.7 22.6,14.7 C22.1,14.7 21.6,14.7 20.5,14.9 L20.5,14.4 C21.7,14.3 21.9,14.1 21.9,13.1 L21.9,13.1 L21.7,2.5 L19,11.6 L18.2,14.6 L17.9,14.6 L17,11.6 L14.3,2.5 L14,13 Z" id="Path"></path>
                    <path d="M34.1,0.6 L34.4,0.6 L34.4,4.8 L34,4.8 C33.5,2.4 32.6,1.3 31.1,1.3 C29,1.3 28,3.6 28,8 C28,12.3 29.1,14.5 31.1,14.5 C31.8,14.5 32.4,14.3 33.2,13.8 L33.2,10.2 C33.2,9.4 33,9.3 32,9.2 L32,8.6 C32.9,8.7 33.3,8.7 33.9,8.7 C34.5,8.7 34.9,8.7 35.8,8.6 L35.8,9.1 C34.8,9.2 34.7,9.3 34.7,10.2 L34.7,13.7 C33.2,14.7 32.2,15.1 31.1,15.1 C28.2,15.1 26.4,12.3 26.4,7.8 C26.4,3.4 28.2,0.6 31,0.6 C32,0.6 32.9,1 33.6,1.8 L34.1,0.6 Z" id="Path"></path>
                </g>
            </g>
        </g>
    </g>
</svg>