<?xml version="1.0" encoding="UTF-8"?>
<svg width="1440px" height="40px" viewBox="0 0 1440 40" version="1.1" xmlns="http://www.w3.org/2000/svg" xmlns:xlink="http://www.w3.org/1999/xlink">
    <!-- Generator: Sketch 52.5 (67469) - http://www.bohemiancoding.com/sketch -->
    <title>AMG-pc</title>
    <desc>Created with Sketch.</desc>
    <g id="页面-1" stroke="none" stroke-width="1" fill="none" fill-rule="evenodd">
        <g id="AMG-pc">
            <polygon id="路径" fill="#000000" points="0 0 1440 0 1440 40 0 40"></polygon>
            <path d="M1190.1,20.1 C1190.1,19.8 1189.9,19.6 1189.6,19.6 L1180.8,19.6 C1180.5,19.6 1180.3,19.8 1180.3,20.1 L1180.3,20.9 C1180.3,21.2 1180.5,21.4 1180.8,21.4 L1186.3,21.4 C1186.7,21.4 1186.6,21.6 1186.6,22 L1186.6,22.1 C1186.6,22.5 1186.6,22.6 1186.3,22.6 L1175,22.6 C1174.7,22.6 1174.5,22.4 1174.5,22.1 C1174.5,22.1 1174.5,22.1 1174.5,22.1 L1174.5,18.9 C1174.5,18.6 1174.7,18.4 1175,18.4 L1189.5,18.4 C1189.8,18.4 1190,18.2 1190,17.9 L1190,16.7 C1190,16.4 1189.8,16.2 1189.5,16.2 L1171.7,16.2 C1171.4,16.2 1171.2,16.4 1171.2,16.7 C1171.2,16.7 1171.2,16.7 1171.2,16.7 L1171.2,24.6 C1171.2,24.9 1171.4,25.1 1171.7,25.1 L1189.5,25.1 C1189.8,25.1 1190,24.9 1190,24.6 L1190.1,20.1 Z M1161.4,22.3 C1161.2,22.5 1161,22.6 1160.7,22.6 L1158.4,22.6 C1158.1,22.6 1157.9,22.4 1157.7,22.3 L1153.3,19.5 C1153.1,19.3 1152.8,19.5 1152.8,19.7 L1152.8,24.4 C1152.8,24.7 1152.6,24.9 1152.3,24.9 L1150,24.9 C1149.7,24.9 1149.5,24.7 1149.5,24.4 L1149.5,16.5 C1149.5,16.2 1149.7,16 1150,16 L1152.4,16 C1152.7,16 1152.9,16.1 1153.1,16.3 L1159,20.1 C1159.2,20.3 1159.5,20.3 1159.7,20.1 L1165.6,16.3 C1165.8,16.1 1166,16 1166.3,16 L1168.7,16 C1169,16 1169.2,16.2 1169.2,16.5 L1169.2,24.4 C1169.2,24.7 1169,24.9 1168.7,24.9 L1166.4,24.9 C1166.1,24.9 1165.9,24.7 1165.9,24.4 L1165.9,19.7 C1165.9,19.4 1165.7,19.3 1165.4,19.5 L1161.4,22.3 C1161.4,22.3 1161.4,22.3 1161.4,22.3 Z M1129.8,25 L1126.9,25 C1126.7,25 1126.6,24.8 1126.7,24.6 L1133.1,16.4 C1133.2,16.2 1133.5,16 1133.7,16 L1147.4,16 C1147.8,16 1148,16.3 1148,16.7 L1148,24.5 C1148,24.8 1147.8,25 1147.5,25 L1145.2,25 C1144.9,25 1144.7,24.8 1144.7,24.5 L1144.7,23.4 C1144.7,23.1 1144.7,23 1144.4,23 L1132.4,23 C1132.2,23 1132,23.2 1131.9,23.3 L1131,24.5 C1130.5,24.7 1130.2,25 1129.8,25 Z M1135.7,18.3 C1135.6,18.3 1135.4,18.4 1135.3,18.5 L1133.9,20.3 C1133.8,20.4 1133.9,20.5 1134,20.5 L1144.1,20.5 C1144.4,20.5 1144.4,20.4 1144.4,20.1 L1144.4,18.8 C1144.4,18.4 1144.4,18.2 1144.1,18.2 L1135.7,18.2 L1135.7,18.3 Z M1123.8,25 C1124.1,25 1124.4,24.8 1124.6,24.5 L1130.7,16.6 C1130.9,16.3 1130.8,16.1 1130.5,16.1 L1129.3,16.1 C1129.1,16.1 1128.9,16.3 1128.7,16.5 L1122.3,24.7 C1122.2,24.9 1122.3,25.1 1122.5,25.1 L1123.8,25.1 L1123.8,25 Z M1119.6,25 C1119.9,25 1120.2,24.8 1120.4,24.5 L1126.5,16.6 C1126.7,16.3 1126.6,16.1 1126.3,16.1 L1124.6,16.1 C1124.4,16.1 1124.2,16.3 1124,16.5 L1117.6,24.7 C1117.5,24.9 1117.6,25.1 1117.8,25.1 L1119.6,25.1 L1119.6,25 Z M1112.6,25 C1112.4,25 1112.3,24.8 1112.4,24.6 L1118.8,16.4 C1118.9,16.2 1119.2,16 1119.4,16 L1121.9,16 C1122.2,16 1122.3,16.2 1122.1,16.5 L1116,24.4 C1115.8,24.7 1115.5,24.9 1115.2,24.9 L1112.6,25 Z M1106.8,25 C1106.6,25 1106.5,24.8 1106.6,24.6 L1113,16.4 C1113.2,16.2 1113.4,16 1113.6,16 L1117,16 C1117.3,16 1117.4,16.2 1117.2,16.5 L1111.1,24.4 C1110.9,24.7 1110.6,24.9 1110.3,24.9 C1110.1,25 1106.8,25 1106.8,25 Z M1097.3,25 C1097.1,25 1097,24.8 1097.1,24.6 L1103.5,16.4 C1103.6,16.2 1103.9,16 1104.1,16 L1111.6,16 C1111.9,16 1112,16.2 1111.8,16.5 L1105.7,24.4 C1105.5,24.7 1105.2,24.9 1104.9,24.9 C1104.7,25 1097.3,25 1097.3,25 Z" id="形状" fill="#FFFFFF"></path>
        </g>
    </g>
</svg>