<?xml version="1.0" standalone="no"?><!DOCTYPE svg PUBLIC "-//W3C//DTD SVG 1.1//EN" "http://www.w3.org/Graphics/SVG/1.1/DTD/svg11.dtd"><svg t="1581945628438" class="icon" viewBox="0 0 1024 1024" version="1.1" xmlns="http://www.w3.org/2000/svg" p-id="2985" width="32" height="32" xmlns:xlink="http://www.w3.org/1999/xlink"><defs><style type="text/css"></style></defs><path d="M752.561379 500.263701c-11.423167-2.291183-18.841114-5.712095-22.25384-10.269901-3.409656-4.554736-3.983731-8.746198-1.717108-12.570293l3.434216-5.699816c0.7552-0.756223 1.520633-1.90028 2.301416-3.435239 0.778736-1.534959 2.303462-4.774747 4.570085-9.718339 2.2656-4.946662 3.982708-9.892301 5.152347-14.838963 1.169639-4.944616 2.116197-11.035334 2.849908-18.269086 0.730641-7.235798 0.535189-14.093996-0.583285-20.574594-1.122567-6.481621-3.411703-13.521968-6.871501-21.12104-3.461845-7.601118-8.225335-14.46034-14.290471-20.573571-10.66899-10.671037-24.566512-17.528212-41.695634-20.574594-17.127076-3.046383-34.253128-3.239787-51.381228-0.583285-17.127076 2.656503-33.302477 6.079462-48.527227 10.269901-15.225773 4.188392-27.783787 8.18338-37.678134 11.985986l-14.83487 6.870478c-7.624654 2.289136-13.909801 3.812839-18.856463 4.568039-4.946662 0.757247-8.760524 0.563842-11.438517-0.583285-2.679016-1.14508-4.774747-2.289136-6.288217-3.434216-1.511423-1.14508-2.082428-3.810792-1.715061-8.003278 0.36532-4.191462 0.74292-7.807826 1.131777-10.853186 0.388856-3.042289 1.337461-7.80578 2.850931-14.287401 1.5104-6.481621 2.65548-11.622712 3.434216-15.422248 0-9.135054-0.574075-17.698081-1.719154-25.689079-1.14508-7.989975-3.615341-16.931624-7.416923-26.821879-3.800559-9.891278-9.31925-17.881253-16.557094-23.972994-7.235798-6.090718-16.370853-11.036357-27.406187-14.836917-11.037381-3.799536-25.313525-4.943592-42.829458-3.434216-17.517979 1.511423-37.311791 6.077416-59.383482 13.703093-26.65201 9.136078-53.680597 22.64372-81.087806 40.528042-27.40721 17.882276-51.197032 36.531008-71.368444 55.946196-20.171412 19.415189-38.637995 38.258349-55.399751 56.531528-16.760732 18.273179-29.709649 33.121352-38.845727 44.548612l-12.571317 18.269086C60.453349 490.659973 41.80564 523.402701 29.624203 556.144406c-12.180414 32.741705-17.893532 57.483202-17.138332 74.219375l0 23.974018c4.580319 36.542264 15.810081 69.284993 33.691333 98.229209 17.881253 28.941146 39.197744 52.351322 63.950498 70.235644 24.753777 17.881253 53.878095 33.106002 87.373976 45.677319 33.496905 12.57234 65.666582 21.708418 96.511077 27.411303 30.843472 5.697769 63.391772 9.695826 97.643877 11.984962 56.349379 4.581342 114.78221 0.207731 175.296445-13.117762 60.517305-13.328563 116.853381-36.363186 169.015392-69.103868 52.159964-32.742728 88.897679-71.953775 110.212124-117.632117 12.938684-26.65508 19.59836-51.783387 19.990287-75.391061s-3.605108-42.829458-11.988032-57.664328c-8.378831-14.836917-19.235087-27.966958-32.559557-39.394219-13.322423-11.42726-25.88146-19.809161-37.675064-25.140587-11.790534-5.334495-22.25384-8.758478-31.389918-10.269901L752.561379 500.263701 752.561379 500.263701zM404.268882 855.428723c-82.223676 3.800559-152.069441-12.192693-209.541387-47.982828-57.469899-35.787064-86.205361-81.08883-86.203314-135.905296 0-54.057173 28.55229-100.68719 85.656869-139.885957s127.145795-60.711733 210.123648-64.535829c82.97683-3.823072 153.020092 9.878998 210.123648 41.111327 57.105602 31.230282 85.657892 73.863265 85.657892 127.900995 0 54.81442-29.127388 104.111173-87.377046 147.891282-58.249659 43.778062-127.717823 67.566862-208.405517 71.365374L404.268882 855.428723 404.268882 855.428723zM371.15981 539.071565c-22.070668 2.289136-41.86448 7.43125-59.383482 15.420201-17.516956 7.992021-31.219026 17.128099-41.10928 27.40721-9.890254 10.284227-18.270109 21.318538-25.14161 33.108049-6.871501 11.790534-11.633968 23.401989-14.288424 34.827203-2.654456 11.42419-4.371564 21.89159-5.152347 31.389918-0.781806 9.501398-1.157359 16.918321-1.133823 22.254863l1.133823 9.136078 0 4.569062c0 2.289136 0.76748 6.858198 2.302439 13.704117 1.534959 6.845918 3.628644 13.133112 6.285147 18.856463 2.656503 5.727445 7.02909 12.011568 13.119809 18.857487 6.089695 6.844895 13.325493 12.559037 21.707394 17.138332 50.259684 24.362874 97.083106 31.781844 140.470265 22.254863 43.388183-9.524934 78.408791-31.41243 105.061824-65.666582 10.66899-12.936637 17.712407-28.92989 21.123087-47.983851 3.411703-19.050891 2.6432-38.270629-2.301416-57.663304-4.948709-19.391652-13.511735-37.090756-25.690102-53.098335-12.180414-16.006556-30.258141-28.381397-54.231135-37.127595-23.972994-8.746198-51.574632-11.220552-82.806961-7.41897L371.15981 539.071565 371.15981 539.071565zM330.048483 754.934938c-4.580319 0.75213-8.953929 0.949628-13.119809 0.583285-4.16588-0.366344-7.976672-1.134847-11.437493-2.302439-3.459798-1.170662-6.881734-2.496867-10.268878-3.982708-3.385097-1.485841-6.236028-3.580548-8.549723-6.285147-2.313695-2.707668-4.409426-5.374404-6.28617-8.005324-1.876744-2.629897-3.400446-5.676279-4.568039-9.136078-1.169639-3.458775-1.741667-7.077186-1.717108-10.852162 0-8.379854 2.290159-16.565281 6.869455-24.555256s10.866489-14.852266 18.856463-20.574594c7.989975-5.726421 16.931624-8.965186 26.822902-9.721409 6.844895-0.75213 13.508665-0.557702 19.990287 0.586354 6.480598 1.14201 11.998265 3.042289 16.554024 5.699816 4.556783 2.657526 8.55177 5.700839 11.988032 9.136078 3.435239 3.433192 5.907547 7.429203 7.417947 11.985986 1.509377 4.558829 2.27788 9.503445 2.302439 14.83794 0 8.379854-2.472308 16.370853-7.41897 23.971971-4.944616 7.604188-11.608386 14.07046-19.990287 19.404955s-17.516956 8.380878-27.408233 9.138124L330.048483 754.934938 330.048483 754.934938zM427.108053 672.711262c-5.336542 3.800559-10.854209 5.51869-16.557094 5.152347-5.699816-0.36532-9.695826-2.837628-11.983939-7.41897l-2.302439-4.569062c-0.7552-1.533936-1.131777-3.056616-1.131777-4.569062l0-4.565992c0-2.292206 0.376577-4.193509 1.131777-5.703909l2.302439-4.569062c0.754177-1.532913 1.90028-2.677992 3.433192-3.433192l3.434216-4.567016c6.090718-4.581342 11.987009-6.481621 17.686824-5.702885 5.699816 0.780783 9.695826 3.826142 11.987009 9.138124 2.289136 3.045359 3.238764 6.468318 2.849908 10.269901-0.38988 3.797489-1.534959 7.4159-3.433192 10.851139-1.90028 3.436262-4.372587 6.67605-7.41897 9.719362L427.108053 672.711262 427.108053 672.711262zM832.519456 434.010765c4.581342 0 8.770757-1.14508 12.570293-3.434216 3.800559-2.289136 6.845918-5.140067 9.136078-8.550747 2.291183-3.411703 3.815909-7.028067 4.569062-10.851139 0.7552-0.7552 1.133823-1.901303 1.133823-3.436262 9.131985-86.801948-21.319561-136.293129-91.359754-148.47252-20.562315-3.800559-39.600927-4.178159-57.117882-1.131777-5.334495 0-9.901511 1.326205-13.70207 3.982708-3.799536 2.653433-7.039323 6.076392-9.720386 10.268878-2.679016 4.191462-4.00522 8.563026-3.983731 13.118785 0 7.623631 2.668783 14.09195 8.005324 19.402909 5.334495 5.309936 11.803837 7.978718 19.404955 8.004301 59.391668-13.716396 91.367941 5.322216 95.924723 57.115835 1.532913 12.935614 0.765433 25.117051-2.302439 36.542264 0 7.625678 2.667759 14.093996 8.002254 19.404955 5.335519 5.310959 11.803837 7.978718 19.404955 8.003278L832.519456 434.010765 832.519456 434.010765zM813.1145 111.99063c-33.497928-7.624654-78.421071-6.100952-134.772496 4.570085-0.753153 0-1.520633 0.376577-2.299369 1.131777l-1.131777 2.301416-1.130753 1.1328c-8.381901 2.289136-15.241123 7.052626-20.574594 14.288424-5.335519 7.236821-8.003278 15.044648-8.003278 23.423479 0 11.426237 3.811816 20.938891 11.437493 28.54001 7.623631 7.603165 16.761756 11.414981 27.40721 11.437493l3.434216 0c0.7552 0 2.474354-0.376577 5.152347-1.131777 2.681062-0.754177 5.53097-1.327228 8.550747-1.716084 3.019777-0.390903 6.258541-1.157359 9.719362-2.302439 3.458775-1.14508 6.506181-2.291183 9.137101-3.435239 2.63092-1.144056 7.770987-1.717108 15.422248-1.717108 7.649214 0 16.978696 0.573051 27.991518 1.717108 11.009751 1.144056 23.191188 3.994987 36.541241 8.549723 13.353123 4.556783 26.677593 10.269901 39.980573 17.140379 13.298887 6.867408 26.624381 16.382109 39.97648 28.54001 13.350053 12.157901 24.959461 26.237571 34.82311 42.243103 19.809161 44.924165 23.619954 88.324628 11.437493 130.203434 0 0.7552-0.192382 1.521656-0.583285 2.302439-0.388856 0.779759-0.959861 2.680039-1.715061 5.700839-0.756223 3.0208-1.523703 5.870708-2.303462 8.550747-0.780783 2.680039-1.545192 6.101975-2.301416 10.268878-0.7552 4.166903-1.131777 7.78429-1.131777 10.853186 0 6.845918 1.90028 12.558014 5.700839 17.138332 3.801583 4.580319 8.56405 7.820106 14.290471 9.720386 5.723352 1.90028 12.386098 2.850931 19.98824 2.849908 21.317515 0 33.876552-12.947893 37.677111-38.845727 9.135054-29.697369 14.275121-58.055231 15.419178-85.072561 1.147126-27.018354-0.75213-50.806129-5.700839-71.368444-4.944616-20.560268-12.364609-39.783075-22.254863-57.666374-9.888208-17.881253-21.315468-33.108049-34.275641-45.678342-12.961196-12.570293-27.430746-23.99653-43.413765-34.276664-15.980973-10.281157-31.401174-18.466584-46.264697-24.557302-14.860453-6.089695-30.281677-11.036357-46.261627-14.836917L813.1145 111.989607 813.1145 111.99063z" p-id="2986" fill="#ffffff"></path></svg>