<?xml version="1.0" standalone="no"?><!DOCTYPE svg PUBLIC "-//W3C//DTD SVG 1.1//EN" "http://www.w3.org/Graphics/SVG/1.1/DTD/svg11.dtd"><svg t="1581945585067" class="icon" viewBox="0 0 1024 1024" version="1.1" xmlns="http://www.w3.org/2000/svg" p-id="2048" width="32" height="32" xmlns:xlink="http://www.w3.org/1999/xlink"><defs><style type="text/css"></style></defs><path d="M687.86131 351.503633c10.277064 0 20.444635 0.733711 30.522154 1.860371C690.953741 225.64618 554.407855 130.74681 398.535809 130.74681c-174.265976 0-317.004911 118.757754-317.004911 269.581832 0 87.090521 47.490617 158.547992 126.852106 214.010165l-31.708166 95.352695 110.816898-55.558363c39.654138 7.832386 71.470775 15.917528 111.043049 15.917528 9.946536 0 19.806091-0.49835 29.594015-1.26276-6.193049-21.178345-9.787924-43.379996-9.787924-66.427922C418.347017 463.878003 537.272593 351.503633 687.86131 351.503633M515.180436 259.116479c27.068496 0 49.007157 21.943778 49.007157 49.01125 0 27.068496-21.938662 49.007157-49.007157 49.007157s-49.01125-21.938662-49.01125-49.007157C466.168162 281.060257 488.11194 259.116479 515.180436 259.116479M293.38291 358.12647c-27.068496 0-49.01125-21.943778-49.01125-49.01125 0-27.063379 21.943778-49.007157 49.01125-49.007157 27.068496 0 49.01125 21.943778 49.01125 49.007157C342.394161 336.182692 320.450383 358.12647 293.38291 358.12647M974.950887 599.585801c0-126.734426-126.812197-230.04128-269.25642-230.04128-150.83738 0-269.622764 103.306854-269.622764 230.04128 0 126.956484 118.785384 230.04128 269.622764 230.04128 31.558763 0 63.412239-7.972579 95.108125-15.917528l86.963631 47.63081-23.849174-79.221296C927.550321 734.38388 974.950887 671.079088 974.950887 599.585801M622.859877 564.060703c-19.277042 0-34.899858-15.632025-34.899858-34.899858 0-19.277042 15.627932-34.899858 34.899858-34.899858s34.899858 15.623839 34.899858 34.899858C657.764851 548.427654 642.131803 564.060703 622.859877 564.060703M797.125853 566.038754c-19.277042 0-34.899858-15.627932-34.899858-34.899858 0-19.277042 15.623839-34.895765 34.899858-34.895765 19.277042 0 34.899858 15.618723 34.899858 34.895765C832.026734 550.410821 816.402895 566.038754 797.125853 566.038754" p-id="2049" fill="#ffffff"></path></svg>