<?xml version="1.0" standalone="no"?><!DOCTYPE svg PUBLIC "-//W3C//DTD SVG 1.1//EN" "http://www.w3.org/Graphics/SVG/1.1/DTD/svg11.dtd"><svg t="1583412486404" class="icon" viewBox="0 0 1024 1024" version="1.1" xmlns="http://www.w3.org/2000/svg" p-id="21361" width="30" height="30" xmlns:xlink="http://www.w3.org/1999/xlink"><defs><style type="text/css"></style></defs><path d="M512.008 0C229.141 0 0 235.066 0 524.991c0 231.982 146.711 428.758 350.102 498.105 25.586 4.934 34.992-11.303 34.992-25.273 0-12.469-0.434-45.475-0.633-89.217-142.443 31.672-172.467-70.449-172.467-70.449-23.316-60.578-56.977-76.783-56.977-76.783-46.369-32.539 3.604-31.873 3.604-31.873 51.406 3.668 78.393 54.045 78.393 54.045 45.668 80.283 119.859 57.111 149.148 43.676 4.604-33.973 17.779-57.111 32.424-70.248-113.721-13.102-233.244-58.246-233.244-259.419 0-57.313 19.848-104.123 52.707-140.863-5.771-13.252-23.051-66.631 4.502-138.945 0 0 42.867-14.086 140.775 53.811 40.965-11.686 84.498-17.453 128.031-17.721 43.482 0.268 87.051 6.035 128.014 17.721 97.275-67.896 140.107-53.811 140.107-53.811 27.555 72.314 10.275 125.693 5.139 138.945 32.625 36.74 52.506 83.551 52.506 140.863 0 201.673-119.691 246.083-233.645 259.019 17.947 15.736 34.559 47.943 34.559 97.088 0 70.281-0.6 126.727-0.6 143.764 0 13.803 8.939 30.205 35.16 24.938C877.488 953.515 1024 756.64 1024 524.991 1024 235.066 794.758 0 512.008 0" p-id="21362" fill="#803B91"></path></svg>