<?xml version="1.0" standalone="no"?><!DOCTYPE svg PUBLIC "-//W3C//DTD SVG 1.1//EN" "http://www.w3.org/Graphics/SVG/1.1/DTD/svg11.dtd"><svg t="1583463996826" class="icon" viewBox="0 0 1024 1024" version="1.1" xmlns="http://www.w3.org/2000/svg" p-id="4911" width="30" height="30" xmlns:xlink="http://www.w3.org/1999/xlink"><defs><style type="text/css"></style></defs><path d="M511.550395 512.449605m-511.550395 0a511.550395 511.550395 0 1 0 1023.10079 0 511.550395 511.550395 0 1 0-1023.10079 0Z" fill="#E3E3E3" p-id="4912"></path><path d="M895.213192 768.024978v-511.550395c0-7.992975-1.998244-15.386477-5.195434-22.080593L509.9518 538.027125 147.370475 298.83735l491.567958 520.342668h205.219631c28.175237 0 51.055127-22.879891 51.055128-51.15504" fill="#D0CFCF" p-id="4913"></path><path d="M147.370475 298.83735l626.44941 653.026051c45.559957-27.276027 86.523954-61.346083 121.493219-100.911308V285.848766L509.9518 538.027125 147.370475 298.83735z" fill="#D0CFCF" p-id="4914"></path><path d="M844.058152 819.180018h-51.15504V256.474583c0-28.275149 22.879891-51.15504 51.15504-51.15504 28.275149 0 51.15504 22.879891 51.15504 51.15504v511.550395c0 28.275149-22.879891 51.15504-51.15504 51.15504" fill="#AC3D31" p-id="4915"></path><path d="M511.550395 459.596058l299.536735-242.786613c10.690604-8.69236 24.378574-12.688848 38.066544-11.190165 13.68797 1.498683 26.176993 8.492536 34.669528 19.382964 17.884281 22.680066 14.287443 55.551176-8.092887 73.835106L511.550395 594.077861 147.370475 298.83735c-22.38033-18.28393-25.977169-51.15504-8.092887-73.835106 8.492536-10.790516 20.981559-17.784369 34.669529-19.382964 13.68797-1.498683 27.375939 2.497805 38.066543 11.190165L511.550395 459.596058z m0 0" fill="#D54B3D" p-id="4916"></path><path d="M230.197678 819.180018h-51.15504c-28.275149 0-51.15504-22.879891-51.155039-51.15504v-511.550395c0-28.275149 22.879891-51.15504 51.155039-51.15504 28.275149 0 51.15504 22.879891 51.15504 51.15504v562.705435z m0 0" fill="#D54B3D" p-id="4917"></path></svg>