<?xml version="1.0" standalone="no"?><!DOCTYPE svg PUBLIC "-//W3C//DTD SVG 1.1//EN" "http://www.w3.org/Graphics/SVG/1.1/DTD/svg11.dtd"><svg t="1583410795677" class="icon" viewBox="0 0 1024 1024" version="1.1" xmlns="http://www.w3.org/2000/svg" p-id="7824" width="30" height="30" xmlns:xlink="http://www.w3.org/1999/xlink"><defs><style type="text/css"></style></defs><path d="M509.683258 514.316742m-509.683258 0a509.683258 509.683258 0 1 0 1019.366516 0 509.683258 509.683258 0 1 0-1019.366516 0Z" fill="#1296db" p-id="7825"></path><path d="M310.443439 486.515837l-2.316742-2.316742v-25.484163l2.316742-4.633484 2.316742-4.633484 2.316742-4.633484 2.316742-4.633485V433.230769l2.316742-4.633484v-4.633484l2.316742-4.633484V417.013575l2.316742-2.316742v-4.633485h2.316742v-18.533936l2.316743-9.266969 2.316742-6.950226 2.316742-9.266968v-6.950226l2.316742-4.633485 2.316742-4.633484 2.316742-6.950226 2.316742-4.633484 2.316742-6.950226 4.633484-4.633485 2.316742-6.950226 2.316742-2.316742 2.316743-4.633484 4.633484-4.633484 4.633484-6.950226 4.633484-6.950227 4.633484-6.950226 4.633484-4.633484 6.950227-6.950226 6.950226-6.950227 4.633484-4.633484 4.633484-4.633484 6.950226-4.633484 4.633485-2.316742 6.950226-4.633484 6.950226-2.316742 6.950226-4.633485 6.950227-2.316742 6.950226-2.316742 6.950226-2.316742 6.950226-2.316742h6.950227l9.266968-2.316742h6.950226l9.266968-2.316742h39.384616l9.266968 2.316742h6.950226l9.266969 2.316742 6.950226 2.316742 9.266968 2.316742 6.950227 2.316742 9.266968 2.316742 6.950226 4.633485 6.950226 2.316742 9.266969 4.633484 6.950226 4.633484 6.950226 4.633484 4.633484 4.633484 2.316742 2.316742 4.633485 2.316743 4.633484 4.633484 4.633484 4.633484 4.633484 4.633484 4.633484 4.633484 4.633484 6.950226 2.316742 4.633485 4.633485 6.950226 2.316742 4.633484 4.633484 4.633484 2.316742 6.950226 4.633484 11.583711 2.316742 4.633484v4.633484l2.316742 6.950226 2.316742 4.633485v4.633484l2.316742 6.950226 2.316743 9.266968 2.316742 9.266969v6.950226l2.316742 6.950226v13.900453h2.316742l2.316742 6.950226 2.316742 2.316742 2.316742 4.633484 2.316742 4.633484 2.316742 4.633484v4.633485l2.316742 4.633484v9.266968l2.316742 2.316742v4.633484l-2.316742 2.316742V479.565611l-2.316742 2.316742-2.316742 4.633484 2.316742 2.316742v2.316742l6.950226 11.583711 6.950227 9.266968 2.316742 4.633484 4.633484 6.950226 2.316742 6.950227 4.633484 6.950226 2.316742 9.266968 4.633484 9.266969 2.316742 4.633484 2.316743 6.950226 2.316742 4.633484 2.316742 4.633484v6.950227l2.316742 4.633484 2.316742 11.58371v9.266968l2.316742 9.266969V632.470588l-2.316742 4.633484v6.950227l-2.316742 6.950226v6.950226l-2.316742 2.316742v4.633484l-2.316742 2.316742-2.316742 2.316743v2.316742l-2.316743 2.316742h-2.316742v2.316742h-2.316742l-2.316742 2.316742H741.357466l-2.316742-2.316742h-2.316742l-2.316742-2.316742-2.316742-2.316742-2.316742-2.316742-2.316742-4.633485-2.316743-4.633484-2.316742-2.316742-2.316742-4.633484-2.316742-6.950226-4.633484-6.950227-2.316742 2.316743-2.316742 2.316742-2.316742 6.950226-2.316742 11.58371-4.633484 11.583711-4.633485 4.633484-2.316742 6.950226-4.633484 6.950226-4.633484 6.950227-2.316742 2.316742-2.316742 4.633484-6.950226 6.950226h2.316742l2.316742 2.316742 13.900452 6.950226 4.633484 4.633485 6.950227 2.316742 4.633484 4.633484 4.633484 4.633484 2.316742 2.316742 2.316742 2.316742 2.316742 2.316742v2.316742l2.316742 2.316742V757.574661l2.316742 2.316742-2.316742 2.316742V769.158371l-2.316742 2.316742-2.316742 2.316742-2.316742 2.316742-2.316742 2.316742v2.316742l-4.633484 2.316743-4.633484 2.316742-4.633484 2.316742-4.633485 2.316742-4.633484 2.316742-2.316742 2.316742h-2.316742l-6.950226 2.316742h-6.950226l-4.633485 2.316742-9.266968 2.316742H602.352941l-6.950226-2.316742h-9.266968l-9.266969-2.316742-6.950226-2.316742-9.266968-2.316742-9.266969-2.316742-6.950226-2.316742-9.266968-2.316742-4.633484-2.316742-2.316742-2.316743h-20.850679l-2.316742-2.316742h-6.950226l-2.316743 2.316742-4.633484 4.633485-6.950226 2.316742-6.950226 4.633484-2.316742 2.316742-4.633484 2.316742-9.266969 2.316742-6.950226 2.316742-4.633484 2.316742h-11.583711l-4.633484 2.316742h-50.968326l-13.900452-2.316742h-6.950226l-6.950227-2.316742h-4.633484l-6.950226-2.316742-6.950226-2.316742h-4.633484l-6.950227-2.316742-4.633484-2.316742-4.633484-2.316742-4.633484-2.316742-2.316742-4.633484h-2.316742l-2.316742-2.316743v-2.316742l-2.316742-2.316742v-2.316742h-2.316742v-4.633484l-2.316743-2.316742v-9.266968l2.316743-2.316742v-9.266969l2.316742-4.633484v-2.316742l2.316742-2.316742v-2.316742l2.316742-2.316742 2.316742-2.316742h2.316742l2.316742-2.316742h2.316742l2.316742-2.316743 2.316742-2.316742h4.633484l2.316742-2.316742h11.583711l4.633484-2.316742h2.316742l-2.316742-2.316742h-2.316742l-4.633484-6.950226-4.633484-2.316742-4.633485-4.633484-4.633484-4.633484-4.633484-6.950227-6.950226-6.950226-2.316742-4.633484-2.316742-2.316742-2.316742-4.633484-2.316742-4.633485-2.316742-4.633484-2.316743-6.950226-2.316742-4.633484-2.316742-6.950226-2.316742-4.633485v-6.950226h-2.316742v-2.316742 2.316742h-2.316742v2.316742l-2.316742 2.316742-2.316742 6.950227v2.316742l-2.316742 2.316742-2.316742 4.633484-4.633484 2.316742-2.316743 4.633484-2.316742 2.316742-4.633484 2.316742-2.316742 2.316742-4.633484 2.316743-2.316742 2.316742-4.633484 2.316742H240.941176v-4.633484l-2.316742-2.316743-2.316742-2.316742V657.954751l-2.316742-4.633484v-41.701357l2.316742-4.633485v-6.950226l2.316742-4.633484v-6.950226l2.316742-6.950227 2.316743-6.950226 2.316742-6.950226 4.633484-4.633484 2.316742-6.950226 2.316742-6.950227 4.633484-6.950226 4.633484-6.950226 4.633484-6.950226 4.633485-4.633485 4.633484-4.633484 4.633484-6.950226 2.316742-2.316742 2.316742-2.316742 4.633484-4.633484 4.633484-2.316742 6.950227-6.950227 4.633484-4.633484z" fill="#FFFFFF" p-id="7826"></path></svg>