<?xml version="1.0" standalone="no"?><!DOCTYPE svg PUBLIC "-//W3C//DTD SVG 1.1//EN" "http://www.w3.org/Graphics/SVG/1.1/DTD/svg11.dtd"><svg t="1583059684616" class="icon" viewBox="0 0 1024 1024" version="1.1" xmlns="http://www.w3.org/2000/svg" p-id="2459" width="40" height="40" xmlns:xlink="http://www.w3.org/1999/xlink"><defs><style type="text/css"></style></defs><path d="M512 0C229.2224 0 0 229.2224 0 512s229.2224 512 512 512 512-229.2224 512-512S794.7776 0 512 0z m281.9072 671.5904c-13.2608 12.288-35.9424-1.1264-57.7536-31.3344-9.472 25.6-21.8112 49.152-36.1472 70.3488 30.8224 11.008 50.688 28.16 50.688 47.616 0 33.4848-59.2896 60.5696-132.4544 60.5696-43.4176 0-81.7664-9.472-105.984-24.2176-24.064 14.7456-62.6176 24.2176-106.0352 24.2176-73.216 0-132.4544-27.136-132.4544-60.6208 0-19.1488 19.8144-36.5568 50.688-47.616a320.4608 320.4608 0 0 1-36.1472-70.2976c-21.8112 30.0032-44.544 43.6736-57.7536 31.3344-18.0736-16.9984-11.264-76.9536 15.6672-133.7856 6.144-13.0048 12.8-24.6784 19.6096-34.816 3.7376-165.3248 112.64-297.984 246.1696-297.984h0.4608c133.5296 0 242.432 132.4544 246.1696 297.984 6.8096 10.1376 13.4144 21.8112 19.6096 34.816 26.624 56.832 33.7408 116.7872 15.6672 133.7856z" fill="#00ADEF" p-id="2460"></path></svg>