<?xml version="1.0" standalone="no"?><!DOCTYPE svg PUBLIC "-//W3C//DTD SVG 1.1//EN" "http://www.w3.org/Graphics/SVG/1.1/DTD/svg11.dtd"><svg t="1583059719403" class="icon" viewBox="0 0 1024 1024" version="1.1" xmlns="http://www.w3.org/2000/svg" p-id="3420" width="40" height="40" xmlns:xlink="http://www.w3.org/1999/xlink"><defs><style type="text/css"></style></defs><path d="M512 512m-512 0a512 512 0 1 0 1024 0 512 512 0 1 0-1024 0Z" fill="#4FBE23" p-id="3421"></path><path d="M885.76 614.513778c0-94.776889-93.297778-171.576889-207.872-171.576889s-207.872 76.8-207.872 171.576889 93.297778 171.576889 207.872 171.576889c27.761778 0 54.954667-4.664889 78.734222-12.629334 6.599111 3.299556 54.272 44.373333 64.853334 37.091556 7.281778-5.916444-17.180444-50.289778-19.228445-58.254222 50.403556-31.175111 83.512889-81.464889 83.512889-137.784889z m-280.689778-30.492445a29.696 29.696 0 0 1-29.809778-29.809777c0-16.611556 13.198222-29.809778 29.809778-29.809778a29.696 29.696 0 0 1 29.809778 29.809778 29.696 29.696 0 0 1-29.809778 29.809777z m146.318222 0a29.696 29.696 0 0 1-29.809777-29.809777c0-16.611556 13.198222-29.809778 29.809777-29.809778a29.696 29.696 0 0 1 29.809778 29.809778c0 16.497778-13.312 29.809778-29.809778 29.809777z m-72.817777-157.696c6.599111 0 13.198222 0 19.228444 0.682667C683.804444 313.116444 566.727111 224.369778 424.391111 224.369778c-151.552 0-274.773333 101.376-274.773333 226.531555 0 74.183111 43.690667 140.401778 110.592 181.475556-2.616889 9.898667-34.474667 68.835556-25.144889 76.8 13.880889 9.329778 76.8-45.056 85.447111-49.038222 31.744 10.581333 66.901333 16.611556 103.992889 16.611555 13.198222 0 26.510222-0.682667 39.708444-2.616889-7.964444-18.545778-12.629333-39.025778-12.629333-60.984889-0.113778-103.310222 101.831111-186.823111 226.986667-186.823111z m-158.264889-96.028444a39.822222 39.822222 0 0 1 39.708444 39.708444c0.682667 21.845333-17.180444 39.708444-39.708444 39.708445a39.822222 39.822222 0 0 1-39.708445-39.708445 39.822222 39.822222 0 0 1 39.708445-39.708444zM327.68 409.827556a39.822222 39.822222 0 0 1-39.708444-39.708445 39.822222 39.822222 0 0 1 39.708444-39.708444 39.822222 39.822222 0 0 1 39.708444 39.708444 39.822222 39.822222 0 0 1-39.708444 39.708445z" fill="#FFFFFF" p-id="3422"></path></svg>