<?xml version="1.0" encoding="UTF-8"?>
<svg width="228px" height="81px" viewBox="0 0 228 81" version="1.1" xmlns="http://www.w3.org/2000/svg" xmlns:xlink="http://www.w3.org/1999/xlink">
    <!-- Generator: Sketch 52.5 (67469) - http://www.bohemiancoding.com/sketch -->
    <title>brand-pc</title>
    <desc>Created with Sketch.</desc>
    <g id="页面-1" stroke="none" stroke-width="1" fill="none" fill-rule="evenodd">
        <g id="brand-pc" fill="#FFFFFF">
            <rect id="Rectangle-Copy-13_3_" x="98.8" y="79.2" width="30.3" height="1"></rect>
            <g id="编组" transform="translate(55.000000, 0.000000)">
                <g id="分组" transform="translate(97.000000, 1.000000)">
                    <path d="M8,14.9 L0.6,14.9 L0.6,14.4 C1.8,14.3 1.9,14.1 1.9,13 L1.9,2.8 C1.9,1.7 1.7,1.5 0.6,1.4 L0.6,0.9 L7.9,0.9 L8.2,4 L7.8,4 C7.4,2 7,1.5 5.8,1.5 L3.4,1.5 L3.4,7.3 L5.7,7.3 C6.4,7.3 6.6,7 6.7,5.6 L7.1,5.6 L7.1,9.7 L6.8,9.7 C6.7,8.3 6.5,8 5.8,8 L3.6,8 L3.6,13 C3.6,14 3.8,14.2 4.7,14.2 L5.9,14.2 C7.2,14.2 7.7,13.6 8.1,11.5 L8.5,11.5 L8,14.9 Z" id="路径"></path>
                    <path d="M19.7,15.1 C18.8,15.1 18.3,14.8 17.4,13.9 C16.7,14.7 15.8,15.1 14.7,15.1 C13.5,15.1 12.5,14.6 11.7,13.7 C10.8,12.6 10.1,10.2 10.1,7.9 C10.1,3.4 11.8,0.6 14.6,0.6 C17.3,0.6 19.1,3.5 19.1,7.9 C19.1,9.6 18.8,11.1 18.2,12.5 C18.9,13.9 19.5,14.5 20.1,14.6 L20.1,15.1 L19.7,15.1 Z M11.9,7.8 C11.9,12.1 12.9,14.6 14.7,14.6 C15.5,14.6 16.1,14.2 16.5,13.4 C17.1,12.3 17.5,10.3 17.5,8 C17.5,3.7 16.5,1.2 14.7,1.2 C12.9,1.2 11.9,3.6 11.9,7.8 Z" id="形状" fill-rule="nonzero"></path>
                </g>
                <g id="分组" fill-rule="nonzero">
                    <path d="M3,6.3 L1,6.3 C0.9,6.3 0.8,6.2 0.8,6 C0.8,5.8 0.9,5.7 1,5.7 L3,5.7 L3,2.7 L3,1.1 C3,1.1 3,1.1 3.1,1.1 C3.1,1.1 3.2,1.1 3.3,1.2 L4.5,1.7 C4.6,1.8 4.6,1.9 4.5,2 L4.1,2.4 L4.1,5.7 L4.4,5.7 L4.7,5.1 C4.8,5.1 4.9,5 4.9,5 C4.9,5 5.1,5.1 5.3,5.4 L5.7,5.9 C5.9,6.1 5.9,6.2 5.9,6.3 C5.9,6.4 5.8,6.4 5.7,6.4 L4,6.4 L4,8.8 C4.8,9.1 5.3,9.4 5.5,9.8 C5.6,10.2 5.7,10.5 5.7,10.7 L5.7,10.8 L6.3,10.8 C6.3,10.7 6.3,10.6 6.3,10.6 L6.4,9.3 C6.4,8.6 6.5,8.1 6.5,7.7 L6.5,6.7 C6.3,7.1 6.1,7.4 5.9,7.8 L5.6,8.3 C5.5,8.4 5.5,8.5 5.4,8.5 C5.4,8.5 5.4,8.4 5.4,8.2 L5.6,7.6 C5.8,7.1 5.9,6.5 6.1,5.8 C6.3,5.1 6.4,4.7 6.5,4.3 L6.7,3.3 C6.8,2.8 6.9,2.5 6.9,2.3 L7,1.5 L7,1.2 C7,1.2 7,1.2 7.1,1.2 L7.4,1.4 L8.5,2.1 C8.6,2.2 8.6,2.2 8.7,2.3 C8.7,2.4 8.7,2.5 8.5,2.5 L8.3,2.6 L7.6,4.2 L11.3,4.2 L11.7,3.3 C11.7,3.2 11.8,3.1 11.8,3.1 C11.8,3.1 11.9,3.1 11.9,3.2 L12.9,4.3 C13,4.4 13,4.5 13,4.5 C13,4.6 13,4.6 12.9,4.6 L12.3,4.6 L7.4,4.6 L6.7,6 L7.7,6.7 L10.7,6.7 L11,6 C11.1,5.9 11.1,5.8 11.1,5.8 C11.1,5.8 11.2,5.8 11.3,5.9 L12.2,6.7 C12.3,6.8 12.3,6.8 12.3,6.9 C12.3,7 12.3,7 12.2,7.1 L11.9,7.4 L11.8,10.4 L11.9,10.4 L12.2,9.8 C12.3,9.6 12.4,9.5 12.4,9.5 C12.4,9.5 12.5,9.5 12.6,9.7 L13.3,10.5 C13.4,10.6 13.4,10.7 13.4,10.8 C13.4,10.9 13.4,10.9 13.3,10.9 L12.4,10.9 L11.9,10.9 C11.9,11 11.9,11.4 11.9,11.9 C11.9,12.4 11.9,12.9 11.9,13.3 L11.8,14.4 L11.8,14.6 L11.9,14.6 L12.2,13.9 C12.3,13.8 12.3,13.7 12.3,13.7 C12.3,13.7 12.4,13.7 12.5,13.9 L13.1,14.6 C13.3,14.8 13.4,14.9 13.3,15 C13.3,15.1 13.2,15.1 13.2,15.1 L12.1,15.1 L11.7,15.1 C11.7,15.3 11.7,15.4 11.7,15.5 C11.7,15.6 11.7,15.7 11.7,15.9 C11.7,16 11.6,16.3 11.6,16.6 C11.5,16.9 11.4,17.2 11.3,17.4 C11.2,17.6 11,17.8 10.8,18 C10.6,18.2 10.3,18.3 10,18.4 C9.9,18.4 9.9,18.4 9.8,18.4 C9.7,18.4 9.8,18.3 9.7,18.1 C9.7,17.9 9.6,17.7 9.5,17.6 C9.4,17.4 9.3,17.3 9.3,17.3 C9.2,17.2 9.1,17.2 9,17.1 L8.6,16.9 L8.5,16.8 L8.5,16.7 L8.6,16.6 L9,16.7 C9.6,16.8 10,16.8 10.2,16.6 C10.4,16.4 10.5,16.1 10.5,15.8 L10.5,15.5 L10.5,15.2 L7,15.2 L6.7,15.6 C6.6,15.7 6.6,15.8 6.5,15.8 C6.5,15.8 6.4,15.8 6.3,15.7 L5.7,15.1 C5.5,14.9 5.5,14.8 5.5,14.8 L5.5,14.7 L5.7,14.5 L5.9,14.3 C6,13.6 6,13.1 6.1,12.6 C6.1,12.2 6.2,11.6 6.2,11 L5.4,11 C5.2,11.2 5.1,11.2 4.9,11.2 C4.7,11.2 4.6,11.1 4.5,11 C4.4,10.9 4.4,10.7 4.4,10.6 C4.4,10.5 4.4,10.3 4.4,10 C4.4,9.7 4.4,9.5 4.3,9.3 C4.3,9.1 4.2,9 4.1,8.9 L3.9,8.7 L3.9,16 L4,18.1 C4,18.2 4,18.3 3.9,18.3 C3.8,18.3 3.8,18.4 3.7,18.5 C3.6,18.6 3.4,18.6 3.2,18.6 C3,18.6 2.9,18.6 2.8,18.5 C2.7,18.4 2.7,18.3 2.7,18.2 L2.8,16.3 L2.8,11.2 C2.6,11.5 2.5,11.9 2.2,12.3 C2,12.7 1.8,13.1 1.6,13.5 C1.4,13.9 1.3,14 1.2,14.2 C1.1,14.4 1.1,14.4 1.1,14.4 L0.9,14.7 C0.8,14.8 0.8,14.8 0.7,14.8 C0.7,14.8 0.7,14.7 0.7,14.6 L0.9,14 C1.4,12.7 1.8,11.3 2.1,9.9 C2.4,8.5 2.9,7.3 3,6.3 Z M7.1,15 L10.6,15 C10.6,14.9 10.6,14.8 10.6,14.7 C10.6,14.5 10.6,14.2 10.7,13.7 L10.7,12.6 L10.7,11.5 L7.3,11.5 L7.1,15 Z M7.5,10.8 L10.9,10.8 C10.9,10.6 10.9,10.5 10.9,10.4 C10.9,10.3 10.9,10.1 10.9,9.8 C10.9,9.5 10.9,9.1 10.9,8.6 C10.9,8.2 10.9,7.9 10.9,7.8 L10.9,7.6 L7.7,7.6 L7.5,10.8 Z M8.3,12 C8.3,11.9 8.4,11.8 8.5,11.9 C9.1,12.3 9.4,12.6 9.6,13 C9.8,13.4 9.8,13.6 9.7,13.9 C9.7,14.1 9.6,14.3 9.5,14.4 C9.4,14.5 9.3,14.6 9.1,14.6 C8.9,14.6 8.8,14.5 8.7,14.3 C8.6,14.2 8.6,14.1 8.6,14 C8.6,13.9 8.6,13.7 8.6,13.4 C8.6,13.1 8.6,12.9 8.6,12.8 C8.6,12.7 8.5,12.5 8.4,12.3 C8.3,12.1 8.3,12 8.3,12 Z M8.4,7.9 C8.4,7.8 8.6,7.9 8.7,8 C8.9,8.1 9.1,8.2 9.2,8.3 C9.3,8.4 9.5,8.6 9.6,8.7 C9.7,8.8 9.8,9.1 9.8,9.3 C9.8,9.5 9.8,9.8 9.7,10 C9.6,10.2 9.4,10.3 9.2,10.3 C9,10.3 8.9,10.2 8.8,10 C8.7,9.9 8.7,9.7 8.7,9.5 L8.7,9 C8.7,8.6 8.6,8.4 8.5,8.2 C8.4,8 8.3,7.9 8.3,7.8 C8.4,7.9 8.4,7.9 8.4,7.9 Z" id="形状"></path>
                    <path d="M23.7,5.6 L23.9,5.2 C24,5 24.1,4.9 24.2,4.9 L24.4,5.2 L25,5.8 C25,5.8 25.1,5.9 25.1,6 C25.1,6.1 25.1,6.1 25,6.1 L23.2,6.1 L23.2,7.2 L23.9,7.2 L24.2,6.8 C24.3,6.7 24.3,6.6 24.4,6.6 C24.4,6.6 24.5,6.7 24.6,6.8 L25.1,7.4 C25.2,7.5 25.2,7.6 25.2,7.7 C25.2,7.8 25.2,7.8 25.1,7.8 L23.3,7.8 L23.3,9 L25.3,9 L25.7,8.3 C25.8,8.1 25.9,8 25.9,8 C25.9,8 26.1,8.1 26.2,8.3 L26.9,9 C27,9.1 27.1,9.3 27.1,9.3 L27.1,9.4 L27,9.4 L26.1,9.4 L23.5,9.4 C23.5,9.5 23.7,9.6 23.8,9.8 C24,10 24.3,10.4 24.9,10.8 C25.5,11.2 26.2,11.5 27.1,11.6 L27.6,11.6 C27.6,11.6 27.7,11.6 27.7,11.7 C27.7,11.8 27.7,11.8 27.7,11.8 C27.7,11.8 27.7,11.8 27.7,11.9 C27.7,12 27.7,12 27.7,12 L27.5,12.1 C27.2,12.3 26.9,12.6 26.8,12.9 C26.7,13.2 26.5,13.4 26.5,13.4 C26.2,13.4 25.6,12.9 24.7,12 L24.6,12.1 L24.6,13.6 L24.7,15.2 C24.7,15.3 24.7,15.3 24.6,15.4 C24.6,15.4 24.5,15.5 24.4,15.5 C24.3,15.6 24.2,15.6 24.2,15.6 C24.2,15.6 24.1,15.6 23.9,15.6 C23.7,15.6 23.6,15.6 23.6,15.5 C23.6,15.4 23.5,15.3 23.5,15.2 L23.5,11.3 L19.3,11.3 L19.3,15.6 C19.3,15.7 19.2,15.8 19.1,15.9 C19,16 18.8,16.1 18.5,16.1 C18.4,16.1 18.3,16.1 18.3,16 C18.3,15.9 18.2,15.9 18.2,15.8 L18.2,14.1 L18.2,11.6 C17.3,12.3 16.6,12.8 16,13.1 L15.5,13.4 C15.3,13.5 15.2,13.6 15.1,13.6 C15,13.6 15,13.6 15,13.6 L15,13.5 C15,13.4 15,13.3 15.1,13.3 L15.4,13 L15.8,12.6 C16.3,12.2 16.8,11.7 17.3,11 C17.8,10.3 18.2,9.9 18.3,9.6 C18.4,9.4 18.5,9.2 18.6,9.1 L15.5,9.1 C15.4,9.1 15.3,9 15.3,8.8 C15.3,8.6 15.3,8.5 15.5,8.5 L18.9,8.5 L18.9,7.7 L17.4,7.7 L17.3,7.7 C17.3,7.7 17.2,7.7 17.2,7.6 C17.2,7.6 17.2,7.5 17.2,7.4 C17.2,7.3 17.3,7.2 17.3,7.2 L18.9,7.2 L18.9,6.1 L17.4,6.1 L17.3,6.1 C17.3,6.1 17.2,6.1 17.2,6 C17.2,6 17.2,5.9 17.2,5.8 C17.2,5.7 17.3,5.6 17.3,5.6 L18.9,5.6 L18.9,5.4 L18.9,4.1 L18.9,4 L17.2,4 C17.2,4.1 17.2,4.2 17.2,4.3 C17.2,4.4 17.2,4.5 17.2,4.7 C17.2,4.9 17.2,5.1 17.1,5.4 C17,5.6 16.9,5.9 16.8,6.1 C16.7,6.3 16.4,6.5 16.2,6.5 C16,6.5 15.8,6.4 15.6,6.2 C15.4,6 15.4,5.8 15.4,5.5 C15.4,5.2 15.5,5 15.6,4.7 C15.6,4.7 15.8,4.5 16,4.3 C16.3,4 16.4,3.7 16.5,3.3 L16.6,2.9 C16.6,2.8 16.6,2.8 16.7,2.7 C16.8,2.6 16.8,2.8 16.8,2.9 L16.9,3.3 L17,3.5 L21.1,3.5 C20.9,3.4 20.8,3.4 20.8,3.3 C20.7,3.2 20.7,3.1 20.6,3 C20.5,2.9 20.5,2.7 20.4,2.3 C20.3,1.9 20.2,1.6 20,1.4 L19.9,1.2 C19.8,1.1 19.8,1.1 19.8,1 C19.8,0.9 19.9,0.9 20,0.9 C20.4,0.9 20.8,1 21.2,1.2 C21.6,1.4 21.9,1.7 21.9,2.1 C21.9,2.5 21.9,2.7 21.8,2.9 C21.7,3.1 21.6,3.2 21.6,3.3 L21.3,3.5 L25.3,3.5 L25.6,3 C25.7,2.8 25.8,2.7 25.8,2.7 C25.8,2.7 26,2.8 26.1,3 L26.9,4 C27.1,4.2 27.2,4.4 27.2,4.5 C27.2,4.6 27,4.7 26.8,4.7 C26.5,4.7 26.3,4.8 26.1,4.8 C25.9,4.9 25.7,5 25.5,5.1 L25.2,5.4 C25.1,5.5 25,5.6 25,5.5 C25,5.4 25,5.3 25,5.3 L25.3,4 L18.9,4 L19.8,4.3 C20,4.4 20.1,4.4 20.1,4.4 L20.1,4.5 C20.1,4.5 20.1,4.6 19.9,4.7 L19.8,5 L19.8,5.5 L22.2,5.5 L22.2,5.2 C22.2,4.8 22.2,4.5 22.2,4.4 C22.2,4.3 22.2,4.3 22.2,4.3 L22.4,4.3 L23.4,4.5 C23.5,4.5 23.6,4.6 23.6,4.6 L23.6,4.7 C23.6,4.7 23.6,4.7 23.6,4.8 C23.6,4.9 23.5,4.9 23.5,4.9 L23.2,5.1 L23.2,5.6 C23.2,5.6 23.7,5.6 23.7,5.6 Z M21.7,13 C21.7,13.4 21.6,13.9 21.6,14.5 C21.6,15.1 21.4,15.7 21.2,16.2 C21,16.7 20.7,17.1 20.3,17.4 C19.9,17.7 19.5,18 19,18.2 C18.5,18.4 17.9,18.6 17.2,18.8 L16.6,18.9 C16.5,18.9 16.5,18.9 16.4,18.9 C16.3,18.9 16.3,18.9 16.3,18.9 L16.3,18.8 C16.3,18.7 16.3,18.7 16.4,18.7 L16.7,18.6 L17.1,18.5 C17.7,18.3 18.2,18.1 18.6,17.8 C19,17.5 19.4,17.2 19.7,17 C20,16.7 20.2,16.4 20.3,15.9 C20.5,15.4 20.5,15 20.6,14.5 C20.6,14.1 20.7,13.6 20.7,13.2 L20.7,12.1 L20.7,12 C20.7,12 20.7,12 20.8,12 L22,12.4 C22.1,12.4 22.2,12.5 22.2,12.5 L22.3,12.6 C22.3,12.6 22.3,12.7 22.2,12.8 L21.7,13 Z M23.2,11 C23.2,10.9 23.3,10.8 23.4,10.7 C23.5,10.6 23.5,10.7 23.6,10.8 C23.4,10.3 23.2,9.8 23.2,9.4 L19.8,9.4 L20,9.5 C20.1,9.6 20.1,9.6 20.1,9.6 L20.1,9.7 C20.1,9.7 20.1,9.8 20,9.8 L19.8,9.9 L19,10.7 L23.2,10.7 L23.2,11 Z M22.2,7.2 L22.2,6.1 L19.8,6.1 L19.8,7.2 L22.2,7.2 Z M22.2,8.9 L22.2,7.7 L19.8,7.7 L19.8,8.9 L22.2,8.9 Z M21.6,15.9 C21.6,15.8 21.7,15.8 21.8,15.8 C21.8,15.8 21.9,15.8 22,15.8 C22.1,15.8 22.4,15.9 22.8,15.9 C23.2,15.9 23.8,16.1 24.4,16.3 C25,16.5 25.5,16.8 25.6,17.2 C25.8,17.5 25.9,17.8 25.9,18.1 C25.9,18.4 25.9,18.6 25.8,18.8 C25.7,19 25.6,19.1 25.4,19.1 C25.2,19.1 25,19 24.7,18.7 C24.7,18.7 24.4,18.4 24.1,17.8 C23.8,17.2 23.3,16.9 23,16.7 C22.6,16.5 22.4,16.3 22.2,16.2 L21.8,16 C21.6,16 21.6,16 21.6,15.9 Z" id="形状"></path>
                    <path d="M31.7,8.9 L31.9,9.1 C32,9.2 32.1,9.3 32.1,9.3 C32.1,9.3 32.1,9.3 32.1,9.4 C32.1,9.4 32.1,9.4 32.1,9.5 C32.1,9.6 32.1,9.6 32,9.7 L31.8,10 L31.8,16.7 L31.8,18.4 C31.7,18.8 31.5,18.9 31.3,18.9 C31,18.9 30.9,18.9 30.8,18.8 C30.8,18.8 30.7,18.7 30.7,18.6 L30.8,16.6 L30.8,10.3 C30.7,10.5 30.5,10.8 30.2,11.2 C29.9,11.6 29.8,11.8 29.7,11.9 L29.4,12.3 C29.2,12.6 29,12.7 28.9,12.7 L28.8,12.7 C28.8,12.7 28.8,12.7 28.8,12.6 C28.8,12.5 28.8,12.6 28.8,12.5 C28.8,12.4 28.8,12.4 28.9,12.4 L29.1,12.1 L29.5,11.4 C29.7,11 29.9,10.6 30,10.2 C30.1,9.9 30.3,9.4 30.6,8.7 C30.8,8 31,7.6 31.1,7.3 C31.2,7.1 31.3,6.8 31.3,6.5 L31.5,5.7 L31.5,5.6 C31.5,5.6 31.6,5.6 31.7,5.7 L32.7,6.5 C32.8,6.6 32.8,6.6 32.9,6.7 C32.9,6.7 33,6.8 33,6.9 C33,7 32.9,7 32.8,7.1 L32.5,7.3 L31.7,8.9 Z M32.7,2.7 C32.2,3.5 31.7,4.2 31.3,4.8 C30.9,5.4 30.4,6 29.8,6.6 L29.6,7 C29.4,7.2 29.3,7.3 29.3,7.3 C29.3,7.3 29.3,7.3 29.2,7.3 C29.2,7.3 29.2,7.3 29.2,7.2 C29.2,7.2 29.2,7.1 29.2,7 L29.4,6.6 L29.7,6 C30,5.5 30.3,4.8 30.7,4 C31.1,3.1 31.3,2.4 31.5,1.8 L31.7,1.2 C31.7,1.1 31.7,1.1 31.8,1.1 C31.8,1.1 31.9,1.1 31.9,1.2 L33,2 C33.1,2.1 33.2,2.2 33.2,2.2 L33.2,2.3 C33.2,2.3 33.1,2.4 33,2.4 L32.7,2.7 Z M33.6,13.6 C33.7,13.7 33.7,13.9 33.8,14.2 C33.9,14.5 33.9,14.8 33.9,15 C33.9,15.2 33.9,15.4 33.9,15.6 C33.9,16.1 33.8,16.6 33.6,17 C33.4,17.4 33.2,17.6 32.9,17.6 C32.7,17.6 32.5,17.5 32.4,17.3 C32.3,17.1 32.3,16.9 32.2,16.7 C32.2,16.5 32.3,16.2 32.5,15.9 L32.8,15.5 C32.9,15.3 33,15.1 33.1,14.9 C33.2,14.7 33.2,14.5 33.3,14.1 L33.4,13.7 C33.4,13.6 33.4,13.5 33.6,13.6 Z M39.9,11.5 L40.3,10.8 C40.4,10.6 40.5,10.5 40.5,10.5 C40.5,10.5 40.7,10.6 40.8,10.8 L41.4,11.5 C41.5,11.7 41.6,11.8 41.6,11.9 C41.6,12 41.5,12 41.5,12 L32.5,12 C32.4,12 32.4,12 32.3,11.9 C32.2,11.8 32.2,11.8 32.2,11.6 C32.2,11.5 32.3,11.4 32.4,11.4 L39.9,11.4 C39.9,11.4 39.9,11.5 39.9,11.5 Z M33,4.2 C32.9,4.2 32.9,4.2 32.8,4.1 C32.8,4.1 32.7,4 32.7,3.8 C32.7,3.6 32.8,3.6 32.9,3.6 L35.9,3.6 L35.9,2.6 L35.9,1.2 L35.9,1.1 C35.9,1.1 36,1.1 36.1,1.1 L37.2,1.4 C37.3,1.4 37.4,1.5 37.4,1.5 L37.5,1.6 C37.5,1.6 37.5,1.6 37.5,1.7 C37.5,1.7 37.5,1.7 37.4,1.8 L37,2.3 L37,3.7 L39,3.7 L39.4,3 C39.5,2.8 39.6,2.7 39.6,2.6 L39.7,2.6 C39.7,2.6 39.9,2.7 40,2.9 L40.7,3.7 C40.8,3.9 40.9,4 40.9,4.1 C40.9,4.2 40.8,4.2 40.8,4.2 L37,4.2 L36.9,6.2 L39,6.2 L39.3,5.7 C39.4,5.5 39.5,5.5 39.5,5.5 C39.5,5.5 39.6,5.6 39.8,5.7 L40.3,6.2 C40.4,6.3 40.5,6.4 40.5,6.4 L40.5,6.5 C40.5,6.5 40.4,6.6 40.3,6.8 L40,7.1 L40,8.5 L40,10 C39.9,10.2 39.8,10.3 39.6,10.4 C39.4,10.5 39.2,10.5 39.2,10.5 C39.1,10.5 39,10.4 39,10.3 L39,9.8 L34.3,9.8 L34.3,10.5 C34.3,10.6 34.2,10.7 34.1,10.8 C34,10.9 33.8,11 33.4,11 C33.3,11 33.3,11 33.2,11 C33.1,11 33.1,10.9 33.1,10.8 L33.1,9.2 L33.1,7.3 L33.1,5.7 C33.1,5.6 33.2,5.6 33.2,5.6 C33.2,5.6 33.3,5.6 33.4,5.7 L34.3,6.3 L35.7,6.3 L35.7,4.3 L33,4.2 Z M35.4,6.8 L34.5,6.8 L34.5,9.3 L35.4,9.3 L35.4,6.8 Z M35.7,13.9 L35.7,16.8 C35.7,17 35.8,17.2 35.9,17.2 C36,17.2 36.3,17.3 36.6,17.3 C37.2,17.3 37.7,17.3 38,17.1 C38.3,17 38.5,16.8 38.6,16.7 C38.7,16.6 38.8,16.2 38.9,15.9 L39.2,14.7 C39.2,14.6 39.3,14.5 39.4,14.5 C39.4,14.5 39.5,14.5 39.5,14.6 L39.5,14.7 L39.5,14.8 L39.4,15.9 C39.4,16 39.4,16.1 39.4,16.1 C39.4,16.2 39.4,16.3 39.4,16.3 C39.4,16.5 39.5,16.7 39.6,16.8 C39.7,17 39.7,17.1 39.8,17.2 C39.8,17.3 39.8,17.3 39.8,17.4 C39.8,17.8 39.6,18.1 39.2,18.3 C38.8,18.5 38.1,18.6 37.3,18.6 C36.5,18.6 36,18.6 35.6,18.5 C35.2,18.4 35,18.2 35,18 C34.9,17.7 34.9,17.5 34.9,17.4 L34.9,14.4 L34.9,12.8 C34.9,12.8 34.9,12.8 35,12.7 L35.2,12.8 L36.2,13.2 C36.3,13.2 36.3,13.3 36.3,13.4 C36.3,13.5 36.2,13.6 36.1,13.7 L35.7,13.9 Z M37.2,6.8 L36.3,6.8 L36.3,7 L36.3,9.3 L37.3,9.3 L37.2,6.8 Z M36.3,12.6 C36.3,12.6 36.3,12.5 36.3,12.6 C36.4,12.5 36.5,12.5 36.6,12.6 C36.6,12.6 36.7,12.7 37,12.8 C37.2,13 37.5,13.2 37.7,13.5 C37.9,13.8 38,14.2 38,14.4 C38,14.7 38,14.9 37.9,15.1 C37.8,15.4 37.6,15.5 37.3,15.5 C37.2,15.5 37,15.5 36.9,15.4 C36.8,15.3 36.7,15.2 36.7,15.1 C36.7,15 36.6,14.7 36.6,14.4 C36.6,14 36.6,13.8 36.5,13.6 C36.4,13.4 36.4,13.2 36.3,13.1 L36.1,12.7 C36.3,12.7 36.3,12.7 36.3,12.6 Z M39.2,6.8 L38.2,6.8 L38.1,7 L38.1,9.3 L39.2,9.3 C39.2,9.3 39.2,6.8 39.2,6.8 Z M39.3,13.4 C39.3,13.4 39.3,13.3 39.3,13.4 C39.4,13.3 39.6,13.4 39.9,13.6 C40.2,13.8 40.6,14.1 41,14.5 C41.4,14.9 41.6,15.4 41.6,16 C41.6,16.2 41.6,16.4 41.5,16.6 C41.4,16.8 41.3,17 41.1,17.1 C40.9,17.2 40.7,17.2 40.5,16.9 C40.4,16.8 40.3,16.6 40.3,16.5 C40.3,16.3 40.2,16 40.2,15.6 C40.1,15.2 40.1,14.9 40,14.6 C39.9,14.3 39.8,14.1 39.6,13.8 L39.3,13.4 Z" id="形状"></path>
                    <path d="M44.6,12.7 L44.6,5.1 L43.2,5.1 C43.1,5.1 43,5 43,4.8 C43,4.6 43,4.5 43.2,4.5 L44.6,4.5 L44.6,2.7 L44.4,1 C44.4,1 44.4,0.9 44.5,0.9 C44.6,0.9 44.6,0.9 44.8,1 L45.7,1.4 C45.8,1.5 45.9,1.5 45.9,1.5 L45.9,1.6 C45.9,1.6 45.9,1.7 45.8,1.8 L45.6,2 L45.6,4.5 L47.4,4.5 L47.4,2.5 L47.4,1.1 C47.4,1.1 47.4,1 47.5,1 L47.8,1.1 L48.7,1.4 C48.8,1.4 48.9,1.5 48.9,1.5 L48.9,1.6 C48.9,1.6 48.9,1.7 48.8,1.7 L48.5,2 L48.5,4.5 L48.6,4.5 L49,3.7 C49.1,3.6 49.1,3.5 49.2,3.5 C49.2,3.5 49.3,3.6 49.4,3.8 L50,4.7 C50,4.8 50.1,4.8 50.1,4.8 L50.1,4.9 C50.1,4.9 50.1,5 50,5 L49,5 L48.5,5 L48.5,12.5 L48.9,11.8 C49,11.7 49.1,11.6 49.1,11.6 C49.1,11.6 49.2,11.7 49.3,11.8 L49.9,12.8 C50,12.9 50,13 50,13 C50,13 49.9,13.1 49.8,13.1 L43.1,13.1 L43,13.1 C42.9,13.1 42.9,13.1 42.8,13 C42.8,13 42.7,12.9 42.7,12.7 C42.7,12.6 42.8,12.5 42.9,12.5 L44.5,12.5 L44.6,12.7 Z M45.9,14.9 C45.3,15.6 44.8,16.3 44.3,16.8 C43.8,17.3 43.5,17.7 43.4,17.8 L43.1,18.1 C43,18.2 43,18.2 43,18.2 C43,18.2 43,18.2 43,18.1 C43,18 43,18 43.1,17.9 L43.4,17.5 C43.6,17.1 43.9,16.7 44.2,16 C44.5,15.4 44.7,14.9 44.9,14.5 L45.1,14 L45.2,13.6 C45.2,13.6 45.2,13.6 45.3,13.6 L45.5,13.8 L46.4,14.5 C46.5,14.6 46.5,14.6 46.5,14.6 L46.5,14.7 C46.5,14.7 46.5,14.8 46.4,14.8 L45.9,14.9 Z M47.4,7.1 L47.4,5.1 L45.6,5.1 L45.6,7.1 L47.4,7.1 Z M47.4,9.9 L47.4,7.6 L45.6,7.6 L45.6,9.9 L47.4,9.9 Z M47.4,12.7 L47.4,10.4 L45.6,10.4 L45.6,12.7 L47.4,12.7 Z M47.1,14.5 L46.9,14.2 L46.8,14.1 C46.8,14.1 46.8,14.1 46.8,14 C46.8,13.9 46.8,13.9 46.9,13.9 C47,13.9 47.3,14.1 47.7,14.4 C48.2,14.7 48.5,15.1 48.6,15.4 C48.8,15.7 48.9,16 48.9,16.3 C48.9,16.5 48.9,16.6 48.8,16.7 C48.8,16.8 48.7,17 48.6,17.1 C48.5,17.2 48.4,17.3 48.2,17.3 C48,17.3 47.9,17.2 47.8,17 C47.7,16.8 47.6,16.6 47.6,16.4 L47.5,15.8 C47.4,15.5 47.4,15.3 47.3,15.1 C47.2,14.9 47.2,14.7 47.1,14.5 Z M51.2,7.8 L53.8,7.8 L54.3,6.9 C54.4,6.8 54.5,6.7 54.5,6.7 C54.5,6.7 54.6,6.8 54.7,6.9 L55.5,8.1 C55.6,8.2 55.6,8.2 55.6,8.3 C55.6,8.4 55.5,8.4 55.5,8.4 L54.2,8.4 C54.2,8.5 54.1,8.5 54.1,8.6 L54,8.7 L53.9,8.7 L53.9,16.9 L53.9,18.3 C53.8,18.6 53.7,18.8 53.5,18.9 C53.3,19 53.2,19 53,19 C52.8,19 52.7,19 52.7,18.9 C52.6,18.8 52.6,18.7 52.6,18.6 L52.7,16.6 L52.7,8.3 L51.2,8.3 C51.2,9.4 51.2,10.3 51.1,11 C51.1,11.7 51,12.4 50.9,13 C50.8,13.6 50.7,14.2 50.5,14.7 C50.3,15.2 50.1,15.7 50,16.1 C49.8,16.5 49.6,16.9 49.3,17.2 L48.7,18 C48.6,18.2 48.5,18.3 48.4,18.4 L48.1,18.7 C48,18.8 48,18.8 48,18.8 L47.9,18.8 C47.9,18.8 47.9,18.8 47.9,18.7 C47.9,18.7 47.9,18.6 48,18.5 L48.3,18.1 C48.6,17.7 48.9,17.2 49.2,16.6 C49.5,16.1 49.6,15.5 49.8,14.8 C49.9,14.1 50,13.5 50.1,13 C50.2,12.5 50.2,11.9 50.2,11 C50.2,10.2 50.2,9.5 50.2,8.8 C50.2,8.1 50.2,7.7 50.2,7.4 C50.2,7 50.2,6.7 50.2,6.4 L50.2,4.3 L50.2,4.1 L50.1,2.6 C50.1,2.6 50.1,2.6 50.1,2.5 L50.3,2.7 L51.5,3.5 C52.1,3.2 52.5,2.8 52.9,2.5 C53.3,2.2 53.5,2 53.6,1.8 L53.9,1.4 C54,1.3 54.1,1.2 54.1,1.2 C54.1,1.2 54.2,1.3 54.3,1.5 L55,2.6 C55.1,2.7 55.1,2.8 55.1,2.9 C55.1,3 55,3 54.9,3 L54.5,3 C54.4,3 54.1,3.1 53.7,3.2 L52.5,3.4 L51,3.7 L51,7.8 L51.2,7.8 Z" id="形状"></path>
                </g>
                <g id="分组" transform="translate(62.000000, 1.000000)" fill-rule="nonzero">
                    <path d="M11.2,11.9 L11.8,10.9 C11.9,10.8 11.9,10.8 12,10.7 C12.1,10.7 12.1,10.8 12.2,10.9 L13.1,12 C13.2,12.1 13.2,12.2 13.2,12.3 C13.2,12.4 13.1,12.4 13,12.4 L10,12.4 L10,16 L10,17.4 C10,17.5 9.9,17.6 9.8,17.7 C9.7,17.8 9.5,17.9 9.3,17.9 C9.1,17.9 8.9,17.9 8.8,17.8 C8.7,17.7 8.7,17.7 8.7,17.6 L8.8,15.3 L8.8,12.3 L4.8,12.3 C4.8,12.4 4.8,12.5 4.8,12.5 L4.8,13.2 C4.7,14.2 4.5,15 4.2,15.5 C3.9,16 3.5,16.4 3,16.8 C2.5,17.2 2.1,17.4 1.6,17.6 L1.1,17.8 L1,17.8 C1,17.8 1,17.8 0.9,17.8 C0.8,17.8 0.9,17.8 0.9,17.8 C0.9,17.8 0.9,17.8 0.9,17.7 C0.9,17.6 0.9,17.6 1,17.6 L1.5,17.2 C2.4,16.5 3,15.8 3.2,15 C3.4,14.2 3.5,13.7 3.5,13.4 C3.5,13.1 3.5,12.7 3.5,12.5 L0.8,12.5 C0.7,12.5 0.6,12.4 0.6,12.2 C0.6,12 0.6,11.9 0.8,11.9 L3.5,11.9 C3.5,11.8 3.5,11.7 3.5,11.6 C3.5,11.5 3.5,11.4 3.5,11.4 C3.5,11.4 3.5,11.2 3.5,11 C3.5,10.8 3.5,10.7 3.5,10.7 L3.5,10.5 L3.5,9.7 L3.5,9.1 C3.5,9.1 3.5,9 3.6,9 L3.8,9.1 L5,9.5 C5.1,9.5 5.2,9.6 5.2,9.6 L5.3,9.7 C5.3,9.7 5.3,9.8 5.2,9.9 L4.9,10.2 C4.9,10.6 4.9,10.9 4.9,11 L4.9,11.4 L4.9,11.8 L8.9,11.8 L8.9,10.4 L8.7,9 C8.7,9 8.7,8.9 8.8,8.9 L8.9,9 L10.1,9.4 C10.2,9.4 10.3,9.5 10.3,9.6 C10.3,9.7 10.3,9.8 10.2,9.9 L9.9,10.2 L9.9,12 L11.2,12 L11.2,11.9 Z M4.9,2.9 C5,2.7 5.1,2.4 5.2,2.1 C5.3,1.8 5.4,1.5 5.5,1.3 L5.7,0.5 L5.8,0 C5.8,0 5.8,0 5.9,0 C6,0 6,0 6.1,0.1 L7.5,0.9 C7.6,0.9 7.6,1 7.6,1 L7.6,1.1 C7.6,1.1 7.5,1.2 7.4,1.3 L7.1,1.5 C6.6,2.5 6.4,3 6.4,3 L10.5,3 L11.1,2 C11.2,1.8 11.3,1.8 11.3,1.8 C11.3,1.8 11.4,1.9 11.5,2 L12.5,3.2 C12.6,3.3 12.6,3.3 12.6,3.4 C12.6,3.5 12.6,3.5 12.6,3.5 C12.6,3.5 12.6,3.6 12.5,3.6 C12.4,3.6 12.4,3.7 12.3,3.7 L10.4,3.7 L10,3.7 L8.4,3.7 C8.8,4.5 9.2,5.2 9.8,5.8 C10.4,6.4 10.9,6.8 11.4,7.1 C11.9,7.4 12.3,7.5 12.8,7.7 L13.1,7.8 C13.2,7.8 13.2,7.9 13.2,8 C13.2,8.1 13.2,8.2 13.1,8.2 L12.9,8 C12.8,8.1 12.7,8.1 12.6,8.2 C12.5,8.3 12.4,8.4 12.3,8.6 C12.2,8.8 12.1,8.9 12.1,9 C12.1,9.1 12.1,9.1 12,9.2 C11.9,9.3 12,9.2 11.9,9.2 C11.8,9.2 11.4,9 10.8,8.4 C10.2,7.8 9.6,7.2 9.3,6.5 C9,5.8 8.7,5.2 8.6,4.8 C8.5,4.4 8.4,4.1 8.3,3.8 L8.3,3.6 L8.2,3.3 L6.1,3.3 C6.1,3.4 6,3.4 6,3.5 L5.6,4.2 C4.9,5.3 4.3,6.2 3.7,6.9 C3.1,7.6 2.6,8 2.3,8.3 C2,8.6 1.7,8.8 1.4,9 L0.9,9.5 L0.8,9.5 L0.7,9.5 L0.7,9.4 C0.7,9.4 0.7,9.3 0.8,9.2 L1.2,8.8 C1.7,8.3 2.2,7.7 2.6,7 C3,6.3 3.4,5.8 3.6,5.4 C3.8,5 4,4.6 4.2,4.2 L4.4,3.7 L4.5,3.5 L1,3.5 C0.9,3.5 0.8,3.4 0.8,3.2 C0.8,3 0.8,2.9 1,2.9 C1,2.9 4.9,2.9 4.9,2.9 Z M6.1,7.9 L3.7,7.9 C3.6,7.9 3.5,7.8 3.5,7.6 C3.5,7.4 3.5,7.3 3.7,7.3 L6.1,7.3 L6.1,5.7 L6,4.3 C6,4.2 6.1,4.2 6.2,4.2 L7.5,4.5 C7.6,4.5 7.6,4.5 7.6,4.6 C7.6,4.7 7.6,4.7 7.6,4.7 C7.6,4.7 7.6,4.8 7.5,4.9 L7.2,5.2 L7.2,7.2 L7.9,7.2 L8.4,6.4 C8.5,6.3 8.5,6.3 8.5,6.3 C8.5,6.3 8.6,6.3 8.7,6.4 L9.4,7.3 C9.5,7.4 9.5,7.4 9.5,7.5 C9.5,7.6 9.5,7.6 9.5,7.6 C9.5,7.6 9.5,7.7 9.4,7.7 C9.3,7.7 9.3,7.8 9.2,7.8 L7.1,7.8 L7.1,9.5 L7.1,10.6 C7,11 6.7,11.2 6.1,11.2 C6,11.2 5.9,11.2 5.9,11.1 C5.9,11 5.8,11 5.8,10.9 L5.8,9.1 L5.8,7.9 L6.1,7.9 Z" id="形状"></path>
                    <path d="M18.1,2.1 L14.8,2.1 C14.6,2.1 14.6,2 14.6,1.8 L14.6,1.7 C14.6,1.6 14.6,1.5 14.7,1.5 L18,1.5 L18.4,0.9 C18.5,0.8 18.5,0.8 18.5,0.8 L18.6,0.9 L19.5,1.8 L19.6,1.9 L19.6,2 C19.6,2 19.6,2.1 19.5,2.1 L19.1,2.5 L18.6,8.9 L18.9,8.9 L19.1,8.4 C19.2,8.3 19.2,8.2 19.2,8.2 C19.2,8.2 19.2,8.2 19.3,8.2 C19.4,8.2 19.4,8.3 19.4,8.3 L20.3,9.2 C20.4,9.3 20.4,9.3 20.4,9.4 C20.4,9.5 20.4,9.5 20.3,9.6 L20.1,9.9 C20.1,10.4 20,10.7 20,11 L19.9,12.7 C19.8,13.6 19.8,14.3 19.7,14.9 C19.6,15.5 19.5,15.8 19.4,16.2 C19.3,16.6 19.1,16.8 19,17 C18.9,17.2 18.7,17.3 18.4,17.5 C18.1,17.7 17.9,17.7 17.7,17.8 L17.6,17.8 C17.6,17.8 17.6,17.7 17.5,17.6 C17.4,17.5 17.4,17.2 17.3,16.9 C17.2,16.6 17,16.4 16.7,16.2 L16.4,16 L16.4,15.9 C16.4,15.9 16.4,15.8 16.5,15.8 L16.8,15.9 C17.2,16 17.5,16.1 17.7,16.1 C18,16.1 18.3,16 18.4,15.8 C18.5,15.6 18.6,15.3 18.6,15 C18.6,14.7 18.7,14.3 18.8,13.9 C18.9,13.5 18.9,13 18.9,12.6 C18.9,12.2 19,11.7 19,11.2 C19,10.7 19,10.3 19,9.9 L19,9.4 L16.1,9.4 L15.7,10.2 C15.7,10.3 15.6,10.3 15.6,10.3 C15.6,10.3 15.5,10.3 15.5,10.2 L14.9,9.5 C14.8,9.3 14.7,9.2 14.7,9.2 C14.7,9.2 14.7,9.1 14.8,9.1 L15,8.8 C15.1,7.5 15.2,6.4 15.3,5.5 C15.4,4.6 15.4,4 15.5,3.7 L15.6,2.8 L15.6,2.4 L15.6,2.3 L15.8,2.4 L17,3 C17,3 17,3.1 17.1,3.1 C17.2,3.1 17.1,3.2 17,3.3 L16.7,3.6 C16.6,4.6 16.5,5.4 16.5,6 C16.5,6.6 16.4,7.6 16.3,8.8 L17.8,8.8 L18.1,2.1 Z M15.6,14.2 C15.4,14.4 15.3,14.5 15.3,14.5 C15.3,14.5 15.2,14.4 15.2,14.3 L14.7,13 C14.7,12.9 14.6,12.9 14.6,12.8 C14.6,12.7 14.7,12.7 14.9,12.7 L15.3,12.6 C15.6,12.5 16.1,12.3 16.8,12.1 C17.5,11.9 17.9,11.6 18.3,11.5 L18.5,11.4 L18.6,11.4 L18.6,11.5 L18.6,11.6 L18.2,12 L17.2,12.9 L16.3,13.7 L15.6,14.2 Z M20.6,6.5 L20.6,4.7 L20.5,3.2 C20.5,3.2 20.6,3.2 20.7,3.3 L21.9,3.8 C21.9,3.8 22,3.8 22,3.9 C22,4 22,4 22,4 C22,4 22,4.1 21.9,4.2 L21.6,4.5 L21.6,6.2 L22.8,5.8 L22.8,1.8 L22.7,0.3 C22.7,0.3 22.7,0.2 22.8,0.2 C22.8,0.2 22.9,0.2 23.2,0.3 L24.1,0.6 C24.2,0.6 24.2,0.7 24.2,0.7 C24.2,0.8 24.2,0.8 24.1,0.8 L23.8,1.2 L23.8,5.1 L25,4.7 L25.3,4 C25.3,3.9 25.4,3.9 25.4,3.9 L25.5,3.9 L26.4,4.7 C26.5,4.8 26.5,4.8 26.5,4.9 C26.5,4.9 26.5,4.9 26.5,5 C26.5,5 26.5,5 26.5,5.1 C26.5,5.2 26.5,5.2 26.4,5.2 L26.1,5.7 C26.1,6.6 26.1,7.4 26.1,8 C26.1,8.6 26.1,9.2 26.1,9.8 C26.1,10.4 26.1,10.8 26,11.1 C25.9,11.4 25.9,11.7 25.8,12.1 C25.7,12.4 25.5,12.7 25.2,12.8 C24.9,12.9 24.8,13 24.7,13 C24.7,13 24.6,12.8 24.6,12.5 C24.5,12.2 24.4,12 24.2,11.8 L23.9,11.6 L23.8,11.5 C23.8,11.4 23.8,11.4 23.9,11.4 L24,11.4 L24.3,11.4 C24.4,11.4 24.4,11.4 24.5,11.4 C24.7,11.4 24.9,11.2 24.9,10.9 C24.9,10.6 25,10.3 25,10 C25,9.7 25,9.3 25,8.8 C25,8.3 25,7.8 25,7.4 C25,6.9 25,6.5 25,6.1 L25,5.8 L25,5.4 L23.7,5.9 L23.7,12.1 L23.8,13.5 C23.8,13.7 23.7,13.8 23.7,13.8 C23.7,13.9 23.6,13.9 23.5,14 C23.4,14.1 23.3,14.1 23.1,14.1 C23,14.1 22.9,14.1 22.9,14.1 C22.8,14.1 22.8,14 22.7,14 C22.7,14 22.7,13.9 22.7,13.8 L22.8,12 L22.8,6.3 L21.6,6.7 L21.6,14.7 C21.6,15 21.6,15.2 21.7,15.3 C21.8,15.4 21.9,15.5 22.1,15.6 C22.3,15.7 22.9,15.7 23.7,15.7 C24.7,15.7 25.3,15.6 25.5,15.5 C25.7,15.4 25.9,15.2 26,15.1 C26.1,15 26.2,14.7 26.3,14.3 C26.4,13.9 26.5,13.6 26.6,13.3 L26.8,12.4 C26.8,12.3 26.9,12.2 26.9,12.3 L27,12.4 L26.9,13.1 C26.8,13.7 26.8,14.1 26.8,14.3 C26.8,14.5 26.8,14.7 26.9,14.9 L27.1,15.3 C27.2,15.4 27.2,15.5 27.2,15.6 C27.2,15.7 27.2,15.7 27.2,15.8 C27.2,16.2 27.1,16.5 26.8,16.7 C26.6,16.9 26.1,17.1 25.4,17.2 C24.7,17.3 24.2,17.3 23.8,17.3 C23.1,17.3 22.4,17.2 21.7,17.1 C21,16.9 20.6,16.7 20.5,16.3 C20.4,15.9 20.4,15.6 20.4,15.4 L20.4,7 L19.1,7.5 C19,7.5 18.9,7.5 18.9,7.3 C18.9,7.1 18.9,7 19,7 L20.6,6.5 Z" id="形状"></path>
                </g>
                <polygon id="路径" points="56.9 9.8 61.2 9.8 61.2 10.7 56.9 10.7"></polygon>
            </g>
            <g id="分组" transform="translate(0.000000, 26.000000)">
                <path d="M8.2,4.9 C8.1,7.7 8.1,9.4 8.1,10 L7.9,15.1 C9.5,16.8 10.7,18.1 11.4,19.2 C12.1,20.3 12.6,21.4 12.9,22.6 C13.2,23.8 13.4,24.7 13.4,25.6 C13.4,26.4 13.2,27.1 12.9,27.7 C12.6,28.3 12.2,28.5 11.7,28.5 C11.1,28.5 10.7,28.2 10.4,27.6 C10.1,27 10,26 10,24.8 C10,23.6 9.9,22.6 9.8,21.8 C9.7,21 9.5,20.2 9.1,19.2 C8.8,18.2 8.3,17.2 7.7,16.3 C7.7,17 7.6,18.3 7.5,20.2 C7.4,22.1 6.9,24.3 6.1,27 C5.3,29.7 3.7,32.3 1.3,35 L0.4,36 C0.2,36.2 0.1,36.2 0.1,36.1 C0.1,35.9 8.8817842e-16,35.8 8.8817842e-16,35.7 C8.8817842e-16,35.6 8.8817842e-16,35.5 0.1,35.4 L1,34.2 C1.4,33.5 2,32.6 2.7,31.4 C3.4,30.2 3.9,28.5 4.4,26.4 C4.9,24.3 5.2,21.9 5.3,19.4 C5.4,16.9 5.5,14.6 5.5,12.5 C5.5,10.5 5.6,9.2 5.6,8.5 C5.6,7.8 5.6,7.4 5.6,7.1 L5.5,3.3 L5.2,2 L5.3,1.9 L5.8,2.1 L8.9,3.3 C9.2,3.4 9.3,3.6 9.3,3.8 C9.3,4 9.2,4.1 9.1,4.2 L8.2,4.9 Z M18.5,17.9 C18.4,19.5 18.2,21.2 17.9,23 C17.6,24.8 17.1,26.7 16.3,28.6 C15.5,30.5 14.3,32.2 12.5,33.7 C10.7,35.2 8.6,36.6 5.9,37.8 L5,38.2 C4.9,38.2 4.9,38.2 4.8,38.2 C4.7,38.2 4.7,38.1 4.7,38.1 C4.7,38.1 4.7,38 4.7,37.9 C4.7,37.8 4.8,37.7 4.9,37.6 L5.9,37 L7.6,35.9 C9,35 10.5,33.7 12.2,32 C13.9,30.3 15,28 15.4,25.1 C15.8,22.2 16.1,19.4 16.3,16.9 C16.4,14.3 16.5,12 16.5,10.1 C16.5,8.2 16.5,7 16.5,6.6 C16.5,6.2 16.5,5.9 16.5,5.7 L16.4,3.7 L16.3,2.2 C16.3,2.1 16.4,2.1 16.4,2.1 C16.4,2.1 16.5,2.1 16.7,2.2 L20,3.6 C20.1,3.7 20.2,3.8 20.2,4 C20.2,4.2 20.1,4.3 20,4.4 L19,5.3 L19,9.2 C19.1,10.8 19.2,12.4 19.4,14.1 C19.5,15.8 19.7,17.5 20,19.3 C20.3,21.1 20.7,22.9 21.2,24.6 C21.7,26.3 22.4,27.9 23.3,29.4 C24.2,30.9 25.1,32 26,32.8 L26.9,33.6 C27,33.7 27.1,33.8 27.1,33.9 C27.1,34.1 27,34.2 26.8,34.2 L25.7,34.3 C25.1,34.4 24.6,34.7 24,35.4 L23.4,36.1 L23.3,36.3 C23.1,36.3 22.6,35.4 21.8,33.6 C21,31.8 20.4,30.1 20.1,28.7 C19.8,27.3 19.5,25.6 19.3,23.8 C19.1,22 19,20.8 19,20.4 L18.7,12.3 C18.7,14.4 18.6,16.3 18.5,17.9 Z" id="形状" fill-rule="nonzero"></path>
                <path d="M40,17.2 L41.2,17.2 L42.1,15.3 C42.2,15.1 42.3,15 42.3,15 C42.3,15 42.5,15.1 42.6,15.3 L44.1,17.5 C44.2,17.7 44.3,17.9 44.3,18.1 C44.3,18.3 44.2,18.4 44.1,18.4 L40,18.4 L40,30.8 L44.1,29.5 C44.3,29.5 44.3,29.5 44.4,29.7 C44.4,29.9 44.4,30 44.2,30.1 L43.3,30.7 C43.1,30.9 42.2,31.4 40.7,32.2 L37.1,34.4 L34.6,35.9 L32.5,37 L31.8,37.5 C31.7,37.5 31.7,37.5 31.7,37.5 C31.7,37.5 31.6,37.3 31.5,36.9 L30.8,34.4 C30.6,33.7 30.5,33.4 30.5,33.3 C30.5,33.3 30.5,33.2 30.6,33.2 L31.3,33.1 L32.8,32.9 L32.8,15.4 L32.7,10.9 C32.7,10.8 32.8,10.8 32.8,10.8 C32.8,10.8 33,10.8 33.3,11 L35.6,12 C35.8,12.1 35.9,12.2 35.9,12.2 C35.9,12.3 35.9,12.3 35.9,12.4 C35.9,12.5 35.8,12.6 35.7,12.7 L35,13.6 L35,32.4 L37.5,31.7 L37.5,6.9 L37.4,2.3 C37.4,2.2 37.5,2.2 37.5,2.1 L38.1,2.4 L40.7,3.5 C40.8,3.5 40.8,3.6 40.8,3.7 C40.8,3.8 40.8,3.9 40.7,4 L40,4.9 L40,17.2 Z M53.3,15.6 C50.8,17.4 49.5,18.4 49.5,18.4 L47,20.1 L47,32.2 C47,32.8 47.1,33.2 47.2,33.5 C47.3,33.7 47.5,33.9 47.8,34.1 C48.1,34.3 48.9,34.3 50.4,34.3 C51.9,34.3 52.9,34 53.3,33.4 C53.7,32.8 54,32.1 54.3,31.2 C54.6,30.3 54.8,29.6 54.9,29.1 L55.3,27.3 C55.3,27.2 55.4,27.1 55.5,27 C55.6,26.9 55.7,26.9 55.7,27.1 C55.8,27.2 55.8,27.3 55.8,27.4 L55.8,27.5 L55.6,29.3 C55.4,30.6 55.4,31.5 55.4,32.3 C55.4,32.6 55.4,32.8 55.4,32.9 C55.4,33 55.5,33.3 55.8,33.9 C56,34.4 56.1,34.9 56.1,35.3 C56.1,36.2 55.7,36.9 54.8,37.3 C53.9,37.7 52.6,37.9 50.6,37.9 C49.4,37.9 48.3,37.8 47.3,37.6 C46.4,37.4 45.7,37.1 45.4,36.7 C45.1,36.3 44.9,35.9 44.8,35.5 C44.7,35.1 44.6,34.5 44.6,33.8 L44.6,6.7 L44.4,2.3 C44.4,2.2 44.5,2.2 44.5,2.2 L45,2.4 L47.8,3.4 C47.9,3.5 48,3.5 48,3.6 C48,3.7 48,3.7 48,3.8 C48,3.9 48,4 47.8,4.1 L47,5.1 L47,19.2 C47.7,18.4 48.2,17.7 48.5,17.4 C48.8,17.1 49.2,16.4 49.8,15.5 C50.4,14.6 50.8,14 50.9,13.7 L51.6,12.4 L52,11.5 C52,11.5 52.1,11.5 52.2,11.5 L52.3,11.7 L54.7,14.8 C54.8,14.9 54.8,15 54.8,15.2 C54.8,15.4 54.7,15.5 54.5,15.5 L53.3,15.6 Z" id="形状" fill-rule="nonzero"></path>
                <path d="M63.6,37.9 L64.1,37.2 C64.2,37.1 64.3,36.9 64.6,36.4 C64.9,35.9 65,35.6 65.1,35.4 C65.2,35.2 65.3,34.8 65.5,34.2 C65.7,33.6 65.7,33.2 65.6,32.9 C65.5,32.6 65.4,32.5 65.3,32.4 C65.3,32.4 65.1,32.4 64.9,32.5 C64.7,32.6 64.5,32.6 64.4,32.6 C63.9,32.6 63.5,32.3 63.2,31.9 C62.9,31.4 62.7,30.8 62.7,30.1 C62.7,29.4 62.9,28.7 63.3,28.2 C63.7,27.7 64.2,27.4 64.7,27.4 C65.4,27.4 66,27.8 66.4,28.5 C66.8,29.2 67,29.9 67.1,30.7 C67.2,31.5 67.1,32.2 67.1,32.9 C66.9,33.9 66.7,34.8 66.3,35.6 C65.9,36.4 65.6,37 65.3,37.3 C65,37.7 64.7,38 64.4,38.3 C64.1,38.6 63.8,38.8 63.7,38.7 C63.6,38.6 63.4,38.5 63.4,38.4 C63.4,38.3 63.5,38.1 63.6,37.9 Z" id="路径"></path>
                <path d="M107.3,24.7 L101.3,24.7 L101.3,32 C101.3,32.3 101.3,32.5 101.3,32.7 C101.3,32.9 101.5,33.2 101.9,33.5 C102.3,33.8 103.6,34 105.9,34.1 C108.4,34.1 109.9,33.9 110.5,33.3 C111,32.8 111.4,32.2 111.6,31.7 C111.8,31.2 112,30.4 112.3,29.5 L112.9,27.2 C112.9,27 113,26.9 113.1,26.9 C113.2,26.9 113.3,27 113.3,27.1 C113.3,27.2 113.3,27.3 113.3,27.3 L113,30 C112.9,30.7 112.9,31.2 112.9,31.6 C112.9,32 113,32.3 113.1,32.6 C113.2,32.9 113.3,33.1 113.5,33.3 C113.7,33.5 113.7,33.7 113.8,33.9 C113.9,34.1 113.9,34.2 113.9,34.5 C113.9,34.7 113.9,35 113.8,35.2 C113.2,36.9 110.9,37.7 106.9,37.7 C106.2,37.7 105.4,37.7 104.5,37.6 C103.5,37.5 102.5,37.4 101.5,37.2 C100.5,37 99.8,36.6 99.4,35.8 C99.1,35.1 98.9,34.3 98.9,33.3 L98.9,24.7 L93.2,24.7 L93.2,28.1 C93.2,28.4 93,28.7 92.6,28.9 C92.2,29.1 91.9,29.2 91.5,29.2 C91.2,29.2 91,29.1 90.9,29 C90.8,28.9 90.7,28.6 90.6,28.4 L90.7,24.2 L90.7,11.2 L90.6,7.5 C90.7,7.4 90.7,7.4 90.7,7.4 C90.7,7.4 90.9,7.5 91.2,7.7 L93.3,9.2 L98.8,9.2 L98.8,6.9 L98.7,2 C98.8,1.9 98.9,1.9 98.9,1.8 L99.5,2 L101.9,2.7 C102.1,2.8 102.2,2.8 102.3,2.9 C102.4,3 102.4,3.1 102.4,3.2 C102.4,3.3 102.3,3.5 102.1,3.7 L101.4,4.5 L101.4,9.1 L107.3,9.1 L108.1,7.7 C108.2,7.5 108.3,7.4 108.4,7.4 C108.5,7.4 108.7,7.6 109,7.9 L110.8,9.5 C110.9,9.6 111,9.7 111,9.8 L111,9.9 C111,9.9 110.9,10.1 110.7,10.4 L110.1,11.2 L110.1,23 L110.2,26.1 C110,27.1 109.4,27.5 108.6,27.5 C107.8,27.5 107.4,27.2 107.4,26.6 L107.3,24.7 Z M98.8,16.4 L98.8,10.2 L93.1,10.2 L93.1,16.4 L98.8,16.4 Z M98.8,23.6 L98.8,17.5 L93.1,17.5 L93.1,23.6 L98.8,23.6 Z M107.3,16.4 L107.3,10.2 L101.3,10.2 L101.3,16.4 L107.3,16.4 Z M107.3,23.6 L107.3,17.5 L101.3,17.5 L101.3,23.6 L107.3,23.6 Z" id="形状" fill-rule="nonzero"></path>
                <path d="M123.6,17.2 L118.1,17.2 C117.9,17.2 117.8,17 117.8,16.7 C117.8,16.4 117.9,16.2 118.1,16.2 L128.8,16.2 L130,14.1 C130.2,13.8 130.3,13.6 130.4,13.6 C130.5,13.6 130.6,13.7 130.9,14 L132.6,16.2 C132.7,16.4 132.8,16.5 132.9,16.7 C133,16.8 133,16.9 133,17 C133,17.1 133,17.2 132.9,17.2 C132.8,17.3 132.7,17.3 132.6,17.3 L125.1,17.3 L126.8,18.2 C127.1,18.4 127.3,18.6 127.3,18.8 C127.3,19 127.2,19.1 126.9,19.2 L126.3,19.5 C125.5,21.3 124.8,22.9 124.2,24.2 C123.6,25.5 122.8,27.1 121.7,28.9 C124,28.7 126.4,28.4 128.9,28.1 C128.8,27.6 128.7,27.3 128.7,27 C128.6,26.7 128.5,26.3 128.2,25.6 C127.9,24.9 127.7,24.4 127.4,24 L126.7,22.8 C126.7,22.7 126.6,22.7 126.6,22.6 C126.6,22.5 126.6,22.4 126.6,22.4 C126.6,22.4 126.7,22.3 126.8,22.3 C127,22.3 127.5,22.5 128.2,23 C128.9,23.5 129.6,24.1 130.2,24.7 C130.8,25.4 131.2,26 131.6,26.5 C132,27 132.1,27.6 132.2,28.2 C132.3,28.8 132.3,29.3 132.4,29.8 C132.5,30.3 132.3,30.8 132.1,31.2 C131.8,32 131.3,32.4 130.7,32.4 C130.3,32.4 129.9,32.2 129.7,31.8 C129.5,31.4 129.3,30.9 129.3,30.4 L129.1,29.2 C126.1,30.6 123.8,31.7 122.2,32.6 L121.1,33.2 L120.5,33.6 C120.4,33.6 120.4,33.6 120.3,33.6 C120.2,33.6 120.2,33.3 120,32.9 L119.1,30.5 C119,30.3 119,30.1 118.9,30.1 C118.9,30 118.8,30 118.8,29.9 C118.8,29.9 118.9,29.8 119.1,29.6 L119.6,29.2 C119.8,29.1 120.2,28.6 120.7,27.8 C121.2,27 121.8,25.4 122.4,23.2 C123,21 123.4,18.7 123.6,17.2 Z M128,7.6 L129,5.7 C129.1,5.5 129.2,5.3 129.3,5.3 C129.4,5.3 129.6,5.4 129.8,5.7 L131.5,7.6 C131.6,7.8 131.7,7.9 131.8,8 C131.9,8.1 131.9,8.2 131.9,8.3 C131.9,8.4 131.9,8.5 131.8,8.5 C131.7,8.5 131.6,8.6 131.4,8.6 L129.4,8.6 L119.5,8.6 C119.3,8.6 119.1,8.4 119.1,8 C119.1,7.6 119.2,7.4 119.5,7.4 L128,7.4 L128,7.6 Z M130.5,12 L130.7,12 L134.8,11.7 C134.8,10.5 134.8,9.4 134.8,8.4 C134.8,7.4 134.8,6.5 134.8,5.7 L134.7,3.5 L134.6,1.7 C134.7,1.6 134.7,1.6 134.8,1.6 C134.9,1.6 135.1,1.6 135.4,1.7 L138.1,2.4 C138.2,2.4 138.3,2.5 138.4,2.6 C138.5,2.7 138.6,2.7 138.6,2.8 C138.6,2.9 138.6,2.9 138.6,2.9 L138.6,3 L138.3,3.4 L137.5,4.5 C137.5,6.5 137.5,7.7 137.5,8.1 L137.5,11.6 L140.8,11.4 L141.5,10 C141.6,9.7 141.8,9.6 141.9,9.6 C142,9.6 142.2,9.7 142.4,9.9 L144.5,12 C144.5,12 144.6,12.1 144.7,12.2 C144.8,12.3 144.9,12.4 144.9,12.4 L144.9,12.5 C144.9,12.6 144.9,12.6 144.9,12.7 C144.9,12.8 144.8,12.9 144.7,13 L143.7,14 C143.7,15.9 143.6,17.5 143.6,18.7 C143.6,19.9 143.5,21.9 143.4,24.7 C143.3,27.5 143.2,29.6 143.1,31.1 C143,32.6 142.7,33.9 142.4,34.9 C142.1,35.9 141.7,36.6 141.3,37.1 C140.9,37.6 140.5,37.9 140,38.2 C139.5,38.5 139.3,38.6 139.2,38.6 C139.1,38.6 139.1,38.6 139,38.5 C138.9,38.4 138.9,38.4 138.9,38.2 L138.6,37.1 C138.3,36.2 137.8,35.6 137.1,35.2 L136,34.7 C135.9,34.7 135.8,34.6 135.8,34.5 C135.8,34.4 135.7,34.3 135.7,34.3 C135.7,34.1 135.8,34 136.1,34 L137.4,34.1 C138.3,34.2 139,34 139.3,33.7 C139.6,33.4 139.9,32.8 140.2,31.9 C140.4,31 140.6,29.4 140.7,27 L140.9,21.3 C140.9,20.4 141,19 141,17.1 C141,15.2 141,14.2 141,14.1 L141,12.5 L137.4,12.7 C137.4,12.9 137.4,13.1 137.4,13.2 L137.3,15.4 C137.2,20.3 136.8,23.9 136.2,26.2 C135.6,28.5 135,30.3 134.2,31.5 C133.4,32.7 132.6,34 131.6,35 C130.6,36 129.6,37 128.6,37.8 L127.7,38.5 C127.6,38.6 127.4,38.7 127.4,38.7 C127.3,38.7 127.3,38.7 127.2,38.6 C127.2,38.6 127.2,38.5 127.2,38.4 C127.2,38.3 127.2,38.2 127.4,38 L128.4,36.9 C130.6,34.3 132.1,32.1 132.7,30.3 C133.3,28.5 133.8,26.8 134.1,25.1 C134.4,23.4 134.6,21.8 134.7,20.1 C134.8,18.4 134.9,16.9 134.9,15.3 L134.9,14 L134.9,12.8 L130.6,13.1 C130.4,13.1 130.3,13 130.3,12.6 C130.3,12.2 130.2,12.1 130.5,12 Z" id="形状" fill-rule="nonzero"></path>
                <polygon id="路径" points="151.2 17 157 17 157 9.6 159.3 9.6 159.3 17 165.2 17 165.2 19.5 159.3 19.5 159.3 26.9 157 26.9 157 19.5 151.2 19.5"></polygon>
                <path d="M193.6,17.6 L176,17.6 C176,17.9 176,18.3 176,18.8 C176,19.3 175.8,19.9 175.5,20.7 C175.2,21.5 174.6,21.8 173.9,21.8 C173.6,21.8 173.2,21.7 172.9,21.3 C172.6,21 172.5,20.5 172.5,19.9 C172.5,19.4 172.6,19 172.8,18.7 C173,18.5 173.3,18.2 173.7,17.8 C174.1,17.4 174.4,17.1 174.6,16.7 C174.8,16.3 175,15.8 175,15.3 C175,14.8 175,14.5 175.1,14.4 C175.2,14.3 175.3,14.3 175.3,14.4 C175.4,14.5 175.4,14.6 175.5,14.8 C175.5,14.9 175.7,15.5 175.9,16.6 L193.8,16.6 L194.4,15.5 C194.5,15.3 194.6,15.2 194.7,15.2 C194.7,15.2 194.8,15.3 195,15.4 L197.4,18.1 C197.6,18.4 197.7,18.6 197.7,18.8 C197.7,19 197.6,19.2 197.4,19.3 C197.3,19.4 197.1,19.4 196.9,19.4 C196.7,19.4 196.5,19.4 196.5,19.4 C195.8,19.4 195.2,19.6 194.7,20.1 C194.2,20.6 193.8,20.9 193.6,21.1 L193,21.8 C192.9,22 192.8,22 192.7,21.9 C192.6,21.8 192.6,21.7 192.6,21.7 C192.6,21.7 192.6,21.6 192.6,21.5 L193.6,17.6 Z M192.9,6.3 L194.1,4.3 C194.2,4.1 194.3,4 194.3,4 C194.3,4 194.4,4 194.5,4.1 L196.8,7 C196.8,7.1 196.9,7.1 196.9,7.2 C196.9,7.3 196.8,7.4 196.6,7.4 L194.6,7.4 L173.1,7.4 C172.9,7.4 172.7,7.2 172.7,6.8 C172.7,6.4 172.8,6.2 173.1,6.2 L192.9,6.3 Z M176.6,21.2 C176.5,21.2 176.4,21.1 176.3,21.1 C176.2,21 176.2,20.9 176.2,20.6 C176.2,20.3 176.3,20.2 176.6,20.2 L188.7,20.2 L189.5,18.7 C189.6,18.5 189.6,18.4 189.7,18.4 C189.7,18.4 189.8,18.5 190,18.7 L191.6,20.9 C191.7,21 191.7,21.1 191.7,21.1 C191.7,21.1 191.7,21.2 191.7,21.3 C191.7,21.4 191.6,21.4 191.5,21.4 L185.4,21.4 L186,22 C186.1,22.1 186.2,22.2 186.2,22.2 C186.2,22.3 186.1,22.4 185.8,22.4 L185,22.4 L183.9,23 C184.5,23.6 185,24.2 185.4,24.7 C185.8,25.3 186.4,26.2 187.1,27.6 C188.7,26.3 189.8,25.2 190.6,24.3 L191.7,23 C191.8,22.8 191.9,22.8 192,22.8 C192.1,22.8 192.1,22.9 192.1,22.9 L194,25.7 C194,25.8 194.1,25.9 194.1,26 C194.1,26.1 194,26.2 193.7,26.2 L193.2,26.2 L190,27.4 C190.2,28 190.4,28.5 190.7,29.1 C191,29.7 191.5,30.4 192.3,31.3 C193.1,32.2 193.9,32.8 194.7,33.3 C195.5,33.8 196.3,34.1 196.9,34.2 L197.6,34.3 C197.7,34.3 197.8,34.4 197.8,34.6 C197.8,34.8 197.7,34.8 197.6,34.9 L196.9,35.3 C196.2,35.6 195.8,36.2 195.4,36.9 L195,37.8 L194.9,38.1 C194.8,38.2 194.8,38.1 194.6,38 L193.9,37.4 C193.3,36.9 192.6,35.9 191.7,34.5 C190.8,33.1 190.2,31.4 189.8,29.2 L189.5,27.7 L187.4,28.4 C187.7,29.4 187.9,30.4 188.1,31.4 C188.3,32.4 188.2,33.7 187.8,35.4 C187.7,35.9 187.4,36.6 187.1,37.5 C186.7,38.4 185.8,39.1 184.3,39.4 L183.7,39.5 C183.6,39.5 183.6,39.5 183.5,39.4 L183.5,39.3 C183.5,39.2 183.5,39.1 183.5,39.1 L183.4,38.2 C183.4,37.9 183.2,37.5 183,37.3 C182.8,37.1 182.5,36.8 182.2,36.6 L181.4,36.2 C181.2,36.1 181.2,36 181.2,35.9 C181.2,35.8 181.2,35.7 181.3,35.7 C181.4,35.7 181.4,35.6 181.5,35.6 L182.3,35.8 C182.6,35.9 183,35.9 183.5,35.9 C184,35.9 184.4,35.8 184.6,35.6 C184.8,35.4 185.1,34.9 185.3,34.3 C185.5,33.7 185.6,32.9 185.6,31.9 L185.6,31 L185.6,30.2 C181.4,33.3 177.7,35.4 174.5,36.5 L173.7,36.8 C173.6,36.8 173.6,36.8 173.5,36.8 C173.4,36.8 173.4,36.7 173.4,36.6 C173.4,36.5 173.4,36.4 173.5,36.3 L174.2,36 C174.6,35.8 175.2,35.5 176,35 C176.8,34.5 177.7,33.9 178.5,33.3 C179.3,32.7 180.4,31.7 181.7,30.4 C183,29.1 184.1,27.9 184.8,26.6 L184.6,26 C181.1,28.7 177.9,30.6 175,31.9 L174.1,32.3 L174,32.3 C174,32.3 174,32.3 173.9,32.3 L173.8,32.2 C173.8,32.2 173.8,32.1 173.8,32 C173.8,31.9 173.9,31.8 174,31.7 L174.9,31.2 C175.1,31.1 175.7,30.7 176.6,30 C177.5,29.3 178.6,28.5 179.8,27.4 C181,26.3 182.2,25.1 183.4,23.5 L183.2,23.1 C180.8,24.6 179.4,25.4 179,25.6 C178.6,25.8 177.9,26.2 176.9,26.6 C175.8,27.1 175.2,27.4 174.9,27.5 L173.8,27.9 C173.7,27.9 173.7,27.9 173.6,27.9 C173.5,27.9 173.5,27.8 173.5,27.7 C173.5,27.6 173.6,27.5 173.7,27.4 L174.7,26.9 C175.1,26.7 175.8,26.2 177,25.3 C178.2,24.4 179.6,23.1 181.3,21.2 L176.6,21.2 Z M189.4,14.1 L180.1,14.1 L180.1,14.4 C180.1,15 179.7,15.4 179,15.4 C178.3,15.4 177.9,15.4 177.8,15.3 C177.7,15.2 177.7,15 177.7,14.8 L177.8,12.4 L177.8,9.8 L177.7,7.9 L177.8,7.8 C177.8,7.8 177.9,7.8 178,7.9 L180.1,9.4 L189.3,9.4 L190,8.2 C190.1,8.1 190.1,8 190.1,8.1 C190.1,8.1 190.2,8.2 190.3,8.2 L192.3,9.9 C192.4,10 192.4,10 192.4,10 C192.4,10 192.4,10.1 192.4,10.2 C192.4,10.3 192.3,10.3 192.2,10.4 L191.6,10.9 L191.6,13 L191.7,14.3 C191.7,14.5 191.6,14.6 191.5,14.8 C191.4,15 191.1,15.1 190.7,15.2 C190.3,15.3 189.9,15.4 189.7,15.4 C189.5,15.4 189.4,15.3 189.4,15.2 C189.4,15.1 189.3,15 189.3,14.8 L189.3,14.1 L189.4,14.1 Z M189.4,10.7 L180.1,10.7 L180.1,13 L189.4,13 L189.4,10.7 Z M182,0.5 L182.1,0.5 C182.1,0.5 182.2,0.5 182.3,0.5 C182.4,0.5 182.6,0.5 183.2,0.6 C183.7,0.7 184.4,1 185.2,1.5 C186,2 186.4,2.9 186.4,4 C186.4,4.5 186.3,5 186,5.5 C185.7,6 185.4,6.2 184.9,6.2 C184.6,6.2 184.4,6.1 184.2,5.9 C184,5.7 183.8,5.4 183.8,4.9 L183.7,4 C183.6,3.6 183.5,3.1 183.3,2.5 C183.1,1.9 182.9,1.5 182.6,1.3 C182.3,1.1 182.1,0.9 182.1,0.9 C182.1,0.9 182.1,0.8 182.1,0.7 C182.1,0.6 182,0.5 182,0.5 Z" id="形状" fill-rule="nonzero"></path>
                <path d="M210,4 C209.3,5.4 208.6,6.7 207.9,7.8 L209.7,8.8 C209.8,8.9 209.9,8.9 209.9,9 C209.9,9.1 209.9,9.1 209.9,9.3 C209.9,9.4 209.8,9.5 209.7,9.7 L209,10.3 L209,18.8 L209.2,21.8 C209,22.6 208.4,23 207.4,23 C207.1,23 206.9,23 206.8,22.9 C206.7,22.8 206.6,22.6 206.5,22.3 L206.6,18.6 L206.6,10.2 C206.1,10.9 205.8,11.3 205.7,11.5 C205.6,11.7 205,12.5 203.9,13.9 C202.8,15.3 202.2,16.2 202,16.4 L201.5,16.9 C201.3,17.1 201.2,17.2 201.2,17.2 C201.2,17.2 201.1,17.2 201.1,17.1 C201.1,17.1 201.1,17 201.1,16.9 C201.1,16.8 201.1,16.7 201.2,16.5 L201.5,16 L202.2,14.6 C202.7,13.5 203.6,11.7 204.7,9.2 C205.8,6.7 206.7,4.3 207.4,2.1 L207.7,1.2 L207.9,0.5 C208,0.5 208.2,0.6 208.5,0.8 L211,2.6 C211.2,2.8 211.3,2.9 211.4,3 C211.5,3.1 211.5,3.2 211.5,3.2 C211.5,3.2 211.5,3.3 211.4,3.4 C211.3,3.5 211.3,3.5 211.2,3.6 L210,4 Z M223.9,27.2 L215.7,27.2 L215.7,33.7 L215.8,37.8 C215.7,38.1 215.6,38.4 215.4,38.6 C215.2,38.8 214.8,39 214.1,39 C213.4,39 213.1,39 213,38.8 C212.9,38.6 212.8,38.5 212.8,38.2 L212.9,33.9 L212.9,27.2 L201.6,27.2 C201.4,27.2 201.2,27 201.2,26.6 C201.2,26.2 201.3,26 201.6,26 L213,26 L213,23.6 L212.9,20.2 L213,20.1 L213.7,20.3 L216.2,21.1 C216.6,21.2 216.8,21.3 216.8,21.4 C216.8,21.5 216.8,21.6 216.8,21.7 C216.8,21.8 216.7,22 216.6,22.1 L215.7,23.1 L215.7,25.9 L222.7,25.9 L224,24 C224.3,23.6 224.4,23.4 224.5,23.4 C224.6,23.4 224.8,23.6 225.3,24.1 L227.5,26.5 C227.7,26.7 227.8,26.9 227.8,27 C227.8,27.2 227.7,27.3 227.5,27.3 L223.9,27.3 L223.9,27.2 Z M217.7,4.1 L217.7,9.5 C220.2,7 221.7,5.4 222.2,4.8 L222.7,4.2 L223,3.7 C223,3.7 223.2,3.8 223.4,4.2 L225.1,6.6 C225.4,7 225.5,7.3 225.5,7.4 C225.5,7.6 225.3,7.7 225,7.7 L224.1,7.7 C221.6,9.5 220.1,10.7 219.4,11 L217.5,12.1 L217.5,15.8 C217.5,16.2 217.5,16.5 217.6,16.8 C217.7,17.1 217.9,17.4 218.4,17.5 C218.8,17.6 219.7,17.7 221,17.7 C222,17.7 222.6,17.6 223,17.5 C223.4,17.3 223.7,17 224,16.6 C224.3,16.2 224.5,15.8 224.6,15.4 C224.7,15 225,14.4 225.3,13.6 C225.6,12.8 225.8,12.2 225.8,11.9 L226.1,11 C226.1,10.9 226.2,10.8 226.3,10.8 C226.4,10.8 226.4,10.8 226.5,10.8 C226.5,10.9 226.6,10.9 226.6,11.1 C226.6,11.3 226.6,11.3 226.6,11.4 L226.4,12.1 C226.3,12.6 226.2,13.1 226.2,13.6 C226.1,14.1 226.1,14.5 226.1,14.8 C226.1,15.5 226.2,16 226.5,16.4 L226.9,17 C227,17.2 227.1,17.5 227.1,17.6 C227.1,17.7 227.1,18 227,18.2 C226.7,19.1 226.1,19.9 225.2,20.4 C224.3,20.9 222.9,21.1 220.9,21.1 C217.2,21.1 215.3,20.6 215.1,19.6 C215,18.6 214.9,17.8 214.9,17.1 L214.9,13.3 C214.1,13.6 212.9,14.1 211.2,14.7 L210.6,14.9 C210.5,15 210.4,15 210.3,14.9 C210.2,14.8 210.2,14.8 210.2,14.8 L210.2,14.7 C210.2,14.7 210.2,14.6 210.2,14.5 C210.2,14.4 210.3,14.3 210.4,14.3 L211,13.9 C211.8,13.4 213.1,12.5 214.9,11.1 L214.9,4.7 L214.8,1.1 C214.9,1 214.9,1 214.9,1 C214.9,1 215.1,1 215.4,1.1 L217.9,1.9 C218.2,2 218.4,2.1 218.5,2.1 C218.6,2.1 218.6,2.2 218.6,2.4 C218.6,2.5 218.5,2.7 218.4,2.8 L217.7,4.1 Z" id="形状" fill-rule="nonzero"></path>
            </g>
        </g>
    </g>
</svg>