<?xml version="1.0" standalone="no"?><!DOCTYPE svg PUBLIC "-//W3C//DTD SVG 1.1//EN" "http://www.w3.org/Graphics/SVG/1.1/DTD/svg11.dtd"><svg t="1583315887761" class="icon" viewBox="0 0 1024 1024" version="1.1" xmlns="http://www.w3.org/2000/svg" p-id="2858" width="30" height="30" xmlns:xlink="http://www.w3.org/1999/xlink"><defs><style type="text/css"></style></defs><path d="M512 512m-512 0a512 512 0 1 0 1024 0 512 512 0 1 0-1024 0Z" opacity=".8" p-id="2859"></path><path d="M533.942857 512l120.685714-120.685714c7.314286-7.314286 7.314286-14.628571 0-21.942857-7.314286-7.314286-14.628571-7.314286-21.942857 0L512 490.057143l-120.685714-120.685714c-7.314286-7.314286-14.628571-7.314286-21.942857 0-7.314286 7.314286-7.314286 14.628571 0 21.942857l120.685714 120.685714-120.685714 120.685714c-7.314286 7.314286-7.314286 14.628571 0 21.942857 7.314286 7.314286 14.628571 7.314286 21.942857 0l120.685714-120.685714 120.685714 120.685714c7.314286 7.314286 14.628571 7.314286 21.942857 0 7.314286-7.314286 7.314286-14.628571 0-21.942857L533.942857 512z" fill="#FFFFFF" p-id="2860"></path></svg>