<?xml version="1.0" encoding="UTF-8"?>
<svg width="179px" height="81px" viewBox="0 0 179 81" version="1.1" xmlns="http://www.w3.org/2000/svg" xmlns:xlink="http://www.w3.org/1999/xlink">
    <!-- Generator: Sketch 59.1 (86144) - https://sketch.com -->
    <title>banner-1-pc_复制</title>
    <desc>Created with Sketch.</desc>
    <g id="页面-1" stroke="none" stroke-width="1" fill="none" fill-rule="evenodd">
        <g id="banner-1-pc_复制" fill="#FFFFFF" fill-rule="nonzero">
            <rect id="Rectangle-Copy-13_3_" x="74" y="79.2" width="30.3" height="1"></rect>
            <g id="编组" transform="translate(16.000000, 27.000000)">
                <path d="M22.6,16.3 L23.9,14 C24.1,13.7 24.2,13.5 24.2,13.5 C24.2,13.5 24.3,13.6 24.5,13.8 L27,16.4 C27.3,16.7 27.4,16.9 27.3,17.1 C27.3,17.3 27.2,17.4 27,17.4 L16,17.4 L18.5,18.5 C18.7,18.6 18.9,18.7 18.9,18.9 C18.9,19 18.9,19.1 18.8,19.2 L18,20.1 L18,32.2 C18,32.5 18.1,32.8 18.2,33.1 C18.3,33.4 19.5,33.6 21.7,33.5 C22.9,33.5 23.7,33.3 24.2,32.8 C24.7,32.4 25.2,31.4 25.7,29.8 L26.6,26.9 C26.6,26.8 26.7,26.7 26.8,26.7 C26.9,26.7 26.9,26.7 27,26.8 C27,26.9 27,26.9 27,27 L27,27.1 L26.6,29.3 C26.6,29.5 26.5,29.9 26.5,30.4 C26.5,30.9 26.5,31.3 26.5,31.4 C26.5,31.9 26.6,32.3 26.8,32.7 L27.1,33.3 C27.3,33.7 27.3,34 27.3,34.2 C27.3,34.4 27.2,34.6 27.1,34.9 C27,35.2 26.7,35.6 26.1,36 C25.5,36.5 23.7,36.7 20.7,36.7 C18.5,36.7 17.1,36.5 16.5,35.9 C15.9,35.4 15.6,34.9 15.5,34.5 C15.4,34.1 15.3,33.5 15.3,32.9 L15.3,21.1 L15.2,17.4 L14.1,17.4 C13.9,18.7 13.7,20 13.4,21.5 C13.1,23 12.5,24.9 11.4,27.1 C10.3,29.4 9.1,31.1 7.8,32.3 C6.5,33.5 5.3,34.4 4.4,35.2 C3.5,35.9 2.8,36.4 2.3,36.6 L1.6,37 C1.4,37.1 1.3,37.1 1.3,36.9 C1.3,36.7 1.3,36.6 1.4,36.5 L2.4,35.7 C3.3,35 4.2,34.1 5.1,32.9 C6,31.7 6.8,30.7 7.2,29.9 C7.7,29.1 8.1,28.1 8.6,27 C9.1,25.9 9.5,24.9 9.8,23.9 C10.1,22.9 10.4,22 10.6,21 C10.8,20 11,18.8 11.3,17.3 L1.3,17.3 C1.1,17.3 0.9,17.1 0.9,16.7 C0.9,16.3 1,16.1 1.3,16.1 L11.6,16.1 C11.7,15.6 11.7,14.9 11.8,14.2 C11.9,13.5 11.9,12.6 12,11.6 C12.1,10.6 12.1,9.5 12.1,8.5 C12.1,7.5 12.1,6.9 12.1,6.9 L12.1,6.4 L2.6,6.4 C2.4,6.4 2.3,6.2 2.3,5.8 C2.3,5.4 2.4,5.2 2.6,5.2 L20.6,5.2 L21.9,2.9 C22.1,2.6 22.2,2.4 22.3,2.4 C22.4,2.4 22.4,2.5 22.5,2.6 L25.2,5.4 C25.4,5.6 25.5,5.8 25.4,6 C25.3,6.2 25.2,6.3 24.8,6.3 L14.1,6.3 L15.4,7 C15.6,7.1 15.7,7.2 15.7,7.3 C15.7,7.4 15.6,7.6 15.4,7.8 L15.1,8.3 C15,9.2 14.9,10 14.9,10.6 C14.8,11.2 14.8,12.2 14.7,13.5 C14.6,14.8 14.5,15.7 14.4,16.2 L22.6,16.3 L22.6,16.3 Z" id="路径"></path>
                <path d="M36.7,11.2 L40.6,11.2 L41.2,10.3 C41.5,9.9 41.7,9.6 41.8,9.6 C41.9,9.6 42.1,9.7 42.4,10 L43.9,11.4 C44.2,11.7 44.3,11.8 44.4,11.9 C44.4,12 44.5,12.1 44.5,12.2 C44.5,12.3 44.3,12.5 44.1,12.8 L43.5,13.4 C43.3,14.6 43.1,15.8 42.9,17 C42.7,18.2 42.3,19.7 41.9,21.3 C41.5,22.9 40.8,24.9 39.8,27.2 C40.4,28.2 41.4,29.4 42.9,30.6 C44.4,31.8 47.2,32.5 51.4,32.4 C53.3,32.4 54.8,32.3 55.9,32.1 L57,31.9 C57.1,31.9 57.1,31.9 57.2,31.9 C57.3,31.9 57.3,32 57.3,32 L57.3,32.1 C57.3,32.1 57.3,32.2 57.3,32.3 C57.3,32.4 57.2,32.5 57.1,32.6 L56.5,33.3 C56.3,33.5 56.1,33.8 55.9,34.3 C55.7,34.7 55.6,35.2 55.5,35.8 C55.4,36.3 55.3,36.6 55.3,36.7 C55.2,36.8 55,36.8 54.6,36.8 C53.9,36.8 52.6,36.7 51,36.6 C49.3,36.5 47.7,36.2 46.1,35.7 C44.5,35.3 43.1,34.5 41.9,33.5 C40.7,32.5 39.6,31.1 38.6,29.6 C36.7,32.4 34.6,34.5 32.3,36 L31.4,36.6 C31.1,36.8 30.9,36.9 30.8,36.9 C30.6,36.9 30.6,36.9 30.6,36.8 C30.6,36.7 30.6,36.6 30.6,36.6 C30.6,36.5 30.8,36.3 31.2,35.9 L32.1,35.1 C33.2,34.1 34.2,32.8 35.2,31.2 C36.2,29.6 37,28.2 37.5,26.8 C37,24.9 36.8,23.8 36.7,23.3 C36.6,22.8 36.5,22.2 36.3,21.3 C36.1,20.4 36,19.7 36,19.1 C35.9,18.5 35.8,17.3 35.6,15.4 C34.5,18.2 33.4,20.4 32.5,22.1 L31.8,23.4 C31.5,23.9 31.3,24.2 31.1,24.2 C31,24.2 31,24.2 31,24.1 C31,24 31,24 31,23.9 C31,23.8 31,23.7 31.1,23.5 L31.5,22.7 L32,21.4 C32.3,20.6 32.6,19.6 33,18.5 C33.4,17.4 33.9,15.3 34.6,12.5 C35.3,9.6 35.8,7 36.1,4.6 L36.3,2.7 C36.3,2.6 36.4,2.5 36.7,2.7 L39.5,4 C39.8,4.2 40,4.3 40,4.3 C40.1,4.4 40.1,4.4 40.1,4.6 C40.1,4.8 40,4.9 39.7,5.1 L39.1,5.6 L36.7,11.2 Z M36.3,12.3 L35.7,14 C35.8,14.7 35.9,15.7 36.2,17.1 C36.4,18.5 37.1,20.8 38.2,24.2 C38.4,23.6 38.6,23.1 38.7,22.5 C38.9,22 39.1,20.9 39.4,19.4 C39.7,17.9 40,16.5 40.2,15.2 C40.4,13.9 40.6,13 40.6,12.3 L36.3,12.3 Z M48.9,5.5 L48.9,25.4 L49,30.5 C48.8,31.1 48.4,31.4 47.8,31.4 C47.2,31.4 46.8,31.4 46.7,31.3 C46.6,31.2 46.5,31 46.5,30.7 L46.6,25.9 L46.6,7.7 L46.5,3.1 C46.6,3 46.7,2.9 46.7,2.9 C46.7,2.9 46.9,2.9 47,3 L49.4,3.7 C49.6,3.8 49.7,3.8 49.7,3.9 C49.8,4 49.8,4 49.8,4 C49.8,4 49.8,4.1 49.8,4.2 C49.8,4.3 49.7,4.5 49.4,4.8 L48.9,5.5 Z M49.5,12.9 C49.5,12.8 49.6,12.7 49.8,12.7 C50,12.7 50.2,12.8 50.5,13 C50.6,13.1 50.9,13.3 51.5,13.7 C52.1,14.1 52.8,14.7 53.8,15.6 C54.7,16.5 55.3,17.5 55.6,18.4 C55.9,19.4 56,20.1 56,20.5 C56,21 55.9,21.4 55.8,21.8 C55.7,22.2 55.5,22.5 55.2,22.7 C54.9,22.9 54.7,23 54.4,23 C54,23 53.7,22.8 53.5,22.5 C53.3,22.2 53.1,21.5 52.9,20.5 C52.7,19.5 52.5,18.7 52.4,18.1 C52.3,17.5 52,16.9 51.7,16.2 C51.4,15.5 51,14.8 50.4,14.1 L49.8,13.3 C49.5,13.2 49.5,13.1 49.5,12.9 Z" id="形状"></path>
                <path d="M76.7,5.9 L77.9,6.6 C78.1,6.7 78.2,6.8 78.2,6.9 C78.2,7 78.3,7.1 78.3,7.2 C78.3,7.3 78.2,7.4 78,7.6 L77.3,8.1 C76.2,9.9 75,11.8 73.8,13.6 L75.3,14.6 C75.4,14.7 75.5,14.8 75.6,14.9 C75.7,15 75.7,15.1 75.7,15.2 C75.7,15.3 75.6,15.4 75.4,15.6 L74.6,16.4 L74.6,34 L74.7,37.9 C74.7,38.1 74.6,38.3 74.5,38.5 C74.4,38.7 74.2,38.8 73.8,38.9 C73.4,39 73,39.1 72.6,39.1 C72.2,39.1 72,39.1 71.9,38.9 C71.8,38.8 71.8,38.5 71.8,38.2 L71.9,33.2 L71.9,16.3 C69.7,19.3 67.8,21.6 66.3,23.1 C64.8,24.6 63.2,26 61.6,27.4 L60.5,28.3 C60.4,28.4 60.3,28.4 60.2,28.4 C60.1,28.4 60.1,28.4 60.1,28.3 C60.1,28.3 60.1,28.2 60.1,28.1 C60.1,28 60.2,27.8 60.3,27.6 L61.2,26.6 C63.6,23.8 66.1,20.4 68.5,16.4 C70.9,12.4 72.8,8.9 74.1,5.9 L60.7,5.9 C60.5,5.9 60.3,5.7 60.3,5.3 C60.3,4.9 60.4,4.7 60.7,4.7 L81.2,4.7 L82.5,2.3 C82.8,1.8 82.9,1.6 83,1.6 C83.1,1.6 83.2,1.7 83.5,2 L86.2,5.1 C86.3,5.2 86.3,5.3 86.4,5.4 C86.5,5.5 86.5,5.6 86.5,5.6 C86.5,5.8 86.4,5.8 86.1,5.8 L76.7,5.9 L76.7,5.9 Z M76.4,16.9 C76.4,16.7 76.5,16.7 76.6,16.6 C76.7,16.5 76.9,16.6 77,16.7 L78,17.1 C78.5,17.3 79.1,17.7 79.9,18.1 C80.7,18.5 81.5,19.2 82.4,19.9 C83.3,20.6 84.1,21.7 85,23.1 C85.8,24.5 86.2,25.9 86,27.3 C85.8,28.7 85.3,29.4 84.3,29.4 C84,29.4 83.7,29.2 83.4,28.9 C83.1,28.6 82.5,27.2 81.8,24.8 C81.1,22.4 80.1,20.7 79,19.5 C77.9,18.3 77.2,17.6 76.9,17.4 C76.5,17.2 76.4,17.1 76.4,16.9 Z" id="形状"></path>
                <path d="M97,4.6 C96.9,7.4 96.9,9.1 96.9,9.7 L96.7,14.8 C98.3,16.5 99.5,17.8 100.2,18.9 C100.9,20 101.4,21.1 101.7,22.3 C102,23.5 102.2,24.4 102.2,25.3 C102.2,26.1 102,26.8 101.7,27.4 C101.4,28 101,28.2 100.5,28.2 C99.9,28.2 99.5,27.9 99.2,27.3 C98.9,26.7 98.8,25.8 98.8,24.6 C98.8,23.4 98.7,22.4 98.6,21.6 C98.5,20.8 98.3,20 97.9,19 C97.6,18 97.1,17 96.5,16.1 C96.5,16.8 96.4,18.1 96.3,20 C96.2,21.9 95.7,24.1 94.9,26.8 C94.1,29.5 92.5,32.1 90.1,34.8 L89.2,35.8 C89,36 88.9,36 88.9,35.9 C88.8,35.8 88.8,35.7 88.8,35.6 C88.8,35.5 88.8,35.4 88.9,35.3 L89.8,34 C90.2,33.3 90.8,32.4 91.5,31.2 C92.2,30 92.7,28.3 93.2,26.2 C93.7,24.1 94,21.7 94.1,19.2 C94.2,16.7 94.3,14.4 94.3,12.3 C94.3,10.2 94.4,9 94.4,8.3 C94.4,7.6 94.4,7.2 94.4,6.9 L94.3,3.1 L94.2,1.7 L94.3,1.6 L94.8,1.8 L97.9,3 C98.2,3.1 98.3,3.3 98.3,3.5 C98.2,3.7 98.2,3.8 98.1,3.9 L97,4.6 Z M107.3,17.6 C107.2,19.2 107,20.9 106.7,22.7 C106.4,24.5 105.9,26.4 105.1,28.3 C104.3,30.2 103.1,31.9 101.3,33.4 C99.5,34.9 97.4,36.3 94.7,37.5 L93.8,37.9 C93.7,37.9 93.7,37.9 93.6,37.9 C93.5,37.9 93.5,37.8 93.5,37.8 C93.5,37.8 93.5,37.7 93.5,37.6 C93.5,37.5 93.6,37.4 93.7,37.3 L94.6,36.7 L96.3,35.6 C97.7,34.7 99.2,33.4 100.9,31.7 C102.6,30 103.7,27.7 104.1,24.8 C104.5,21.9 104.8,19.1 105,16.6 C105.1,14 105.2,11.7 105.2,9.8 C105.2,7.9 105.2,6.7 105.2,6.3 C105.2,5.9 105.2,5.6 105.2,5.4 L105.1,3.4 L105,1.9 C105,1.8 105.1,1.8 105.1,1.8 C105.1,1.8 105.2,1.8 105.4,1.9 L108.7,3.3 C108.8,3.4 108.9,3.5 108.9,3.7 C108.9,3.9 108.8,4 108.7,4.1 L107.7,5 L107.7,8.9 C107.8,10.5 107.9,12.1 108.1,13.8 C108.2,15.5 108.4,17.2 108.7,19 C109,20.8 109.4,22.6 109.9,24.3 C110.4,26 111.1,27.6 112,29.1 C112.9,30.6 113.8,31.7 114.7,32.5 L115.6,33.3 C115.7,33.4 115.8,33.5 115.8,33.6 C115.8,33.8 115.7,33.9 115.5,33.9 L114.4,34 C113.8,34.1 113.3,34.4 112.7,35.1 L112.1,35.8 L112,36 L112,36 C111.8,36 111.3,35.1 110.5,33.3 C109.7,31.5 109.1,29.8 108.8,28.4 C108.5,27 108.2,25.3 108,23.5 C107.8,21.7 107.7,20.5 107.7,20.1 L107.4,12 C107.5,14.2 107.4,16 107.3,17.6 Z" id="形状"></path>
                <path d="M135.8,36.5 L126.7,36.5 L126.7,37.7 C126.7,37.9 126.6,38.2 126.3,38.5 C126,38.8 125.6,38.9 124.8,38.9 C124.6,38.9 124.4,38.9 124.3,38.8 C124.2,38.7 124.2,38.5 124.1,38.3 L124.2,34.3 L124.2,28.2 L124.1,25.3 C123.2,26 122,26.9 120.3,28 L119.1,28.7 C118.8,28.9 118.6,29 118.5,28.9 C118.4,28.8 118.4,28.7 118.4,28.6 C118.4,28.5 118.5,28.3 118.6,28.2 L119.1,27.8 L120,27 C121,26.1 122.1,25 123.4,23.5 C124.7,22 125.9,20.5 127.1,18.9 C128.3,17.3 129.1,15.9 129.7,14.7 L130.4,13.3 C130.5,13.1 130.6,13 130.6,13.1 C130.6,13.2 130.8,13.2 131.1,13.4 L133.2,14.9 C133.4,15.1 133.6,15.2 133.7,15.3 C133.8,15.4 133.8,15.5 133.8,15.6 C133.8,15.7 133.8,15.7 133.7,15.7 L133,16.2 C134.1,18.1 135.7,19.8 137.8,21.2 C139.9,22.6 142,23.4 144.2,23.5 L145,23.5 C145.2,23.5 145.3,23.6 145.3,23.7 C145.3,23.8 145.3,23.9 145.3,24 C145.3,24.1 145.2,24.1 145.2,24.2 L144.4,24.7 C144.2,24.9 143.8,25.2 143.5,25.6 C143.1,26 142.9,26.5 142.7,27 C142.5,27.5 142.4,27.8 142.2,27.8 C142.1,27.8 141.8,27.7 141.3,27.5 C140.8,27.3 139.9,26.7 138.6,25.8 C137.3,24.9 136.1,23.5 135,21.8 C134,20.1 133.1,18.3 132.5,16.7 C130.5,19.4 128.1,21.9 125.2,24.5 L126.8,25.7 L135.5,25.7 L136.1,24.8 C136.3,24.5 136.5,24.3 136.5,24.3 C136.6,24.3 136.8,24.4 137.1,24.7 L138.5,25.9 C138.8,26.1 138.9,26.3 139,26.4 C139.1,26.5 139.1,26.6 139.1,26.7 C139.1,26.8 139,27 138.8,27.3 L138.3,28 L138.3,33.4 L138.4,37.7 C138.3,37.9 138.2,38.1 138.1,38.2 C138,38.3 137.7,38.4 137.3,38.5 C136.9,38.6 136.6,38.7 136.5,38.7 C136.3,38.7 136.1,38.7 135.9,38.5 C135.7,38.3 135.7,38.2 135.7,38 L135.7,36.5 L135.8,36.5 Z M139.8,8.3 L123.2,8.3 C123.2,8.5 123.2,8.7 123.2,8.8 C123.2,8.9 123.2,9.1 123.2,9.3 C123.2,10.1 123.1,10.9 122.9,11.5 C122.7,12.1 122.5,12.7 122.1,13.1 C121.7,13.5 121.3,13.7 120.9,13.7 C120.3,13.7 119.8,13.4 119.6,12.9 C119.4,12.4 119.2,11.9 119.2,11.3 C119.2,10.7 119.4,10.2 119.8,9.6 L120.7,8.6 C121,8.3 121.3,7.9 121.5,7.4 C121.7,7 121.8,6.5 121.9,6.1 L122,5.3 C122,5.1 122.1,4.9 122.2,4.9 C122.3,4.9 122.4,5 122.5,5.1 C122.5,5.1 122.7,5.7 123.1,6.9 L139.8,6.9 L140.3,6.1 C140.5,5.7 140.7,5.6 140.8,5.6 C140.9,5.6 141.2,5.8 141.6,6.3 L143.6,8.5 C144,9 144.3,9.4 144.3,9.8 C144.3,10.2 144.1,10.4 143.7,10.4 L142.9,10.4 C142,10.4 141.1,10.8 140.3,11.6 L139.4,12.5 C139.2,12.7 139.1,12.8 139,12.8 C138.9,12.8 138.8,12.7 138.8,12.6 C138.8,12.5 138.8,12.3 138.8,12.3 L139.2,10.9 L139.7,9 C139.6,9 139.6,8.7 139.8,8.3 Z M128.7,12.5 C128.2,13.2 127.6,14 126.9,14.8 C126.2,15.7 124.9,17 123,18.7 L121.7,19.8 C121.4,20.1 121.2,20.2 121.1,20.2 L121,20.2 C121,20.2 120.9,20.2 120.9,20.1 C120.9,20.1 120.9,20 120.9,19.9 C120.9,19.8 121,19.7 121.1,19.5 L121.6,18.8 L122.4,17.6 C122.8,17.1 123.4,16.1 124.2,14.7 C125,13.3 125.6,12 126,10.8 L126.4,9.5 C126.4,9.4 126.5,9.3 126.5,9.3 C126.5,9.3 126.6,9.3 126.8,9.5 L128.9,11.2 C129.1,11.4 129.2,11.5 129.3,11.6 C129.4,11.7 129.4,11.8 129.4,11.9 C129.4,12 129.3,12.1 129,12.2 L128.7,12.5 Z M135.8,35.4 L135.8,26.8 L126.7,26.8 L126.7,35.4 L135.8,35.4 Z M128.9,1 C128.8,0.9 128.7,0.7 128.7,0.6 C128.7,0.5 128.8,0.4 129.1,0.4 C129.2,0.4 129.5,0.5 130.1,0.7 C130.6,0.9 131.3,1.3 132.1,1.8 C132.9,2.3 133.3,3.3 133.3,4.6 C133.3,5.2 133.1,5.8 132.8,6.3 C132.5,6.8 132.1,7.1 131.6,7.1 C131.1,7.1 130.7,6.9 130.4,6.5 C130.2,6.2 130.1,6 130.1,5.7 C130.1,5.4 130,4.9 130,4.3 C130,3.6 129.9,3 129.7,2.6 C129.5,2.2 129.2,1.5 128.9,1 Z M133.5,11 C133.5,10.9 133.6,10.8 133.9,10.7 C134.2,10.7 135,11 136.3,11.7 C137.6,12.4 138.6,13.1 139.3,13.8 C140,14.5 140.3,15.3 140.3,16 C140.3,16.7 140.2,17.3 140.1,17.6 C140,17.9 139.8,18.2 139.5,18.4 C139.2,18.6 139,18.7 138.8,18.7 C138.5,18.7 138.3,18.6 138.1,18.4 C137.9,18.2 137.7,17.9 137.5,17.6 L136.6,15.2 C136.3,14.5 136,13.9 135.7,13.4 C135.3,12.9 134.9,12.4 134.4,11.9 L133.7,11.3 C133.6,11.3 133.5,11.1 133.5,11 Z" id="形状"></path>
            </g>
            <g id="编组">
                <path d="M6.4,15.9 L0.1,15.9 L0.1,14.7 C3.6,9.5 4.8,7.1 4.8,5.3 C4.8,4 4.1,3.1 3,3.1 C1.7,3.1 1,4.1 0.8,6 L0.3,6 C0.4,4.7 0.6,4 1,3.2 C1.5,2.5 2.4,2 3.5,2 C5.2,2 6.5,3.3 6.5,5.2 C6.5,6.9 5.7,8.3 1.5,14.4 L6.6,14.4 L6.4,15.9 Z" id="路径"></path>
                <path d="M14.5,3 C15.3,4 15.9,6.5 15.9,9 C15.9,11.2 15.5,13.3 14.8,14.5 C14.2,15.5 13.4,16 12.4,16 C10.1,16 8.9,13.4 8.9,8.6 C8.9,5.8 9.6,3.5 10.7,2.5 C11.2,2.2 11.8,2 12.4,2 C13.3,2 14,2.3 14.5,3 Z M10.5,8.7 C10.5,13.2 11.2,15.4 12.5,15.4 C13.7,15.4 14.4,13.2 14.4,9.1 C14.4,4.8 13.7,2.5 12.5,2.5 C11.2,2.6 10.5,4.8 10.5,8.7 Z" id="形状"></path>
                <path d="M24.3,15.9 L18,15.9 L18,14.7 C21.5,9.5 22.7,7.1 22.7,5.3 C22.7,4 22,3.1 20.9,3.1 C19.6,3.1 18.9,4.1 18.7,6 L18.2,6 C18.3,4.7 18.5,4 18.9,3.2 C19.4,2.5 20.4,2 21.4,2 C23.1,2 24.4,3.3 24.4,5.2 C24.4,6.9 23.6,8.3 19.4,14.4 L24.5,14.4 L24.3,15.9 Z" id="路径"></path>
                <path d="M32.5,3 C33.3,4 33.9,6.5 33.9,9 C33.9,11.2 33.5,13.3 32.8,14.5 C32.2,15.5 31.4,16 30.4,16 C28.1,16 26.9,13.4 26.9,8.6 C26.9,5.8 27.6,3.5 28.7,2.5 C29.2,2.1 29.8,1.9 30.4,1.9 C31.2,2 31.9,2.3 32.5,3 Z M28.4,8.7 C28.4,13.2 29.1,15.4 30.4,15.4 C31.6,15.4 32.3,13.2 32.3,9.1 C32.3,4.8 31.6,2.5 30.4,2.5 C29.2,2.6 28.4,4.8 28.4,8.7 Z" id="形状"></path>
                <path d="M37.6,6.3 L35.6,6.3 C35.5,6.3 35.4,6.2 35.4,6 C35.4,5.8 35.5,5.7 35.6,5.7 L37.6,5.7 L37.6,2.7 L37.6,1.1 C37.6,1.1 37.6,1.1 37.7,1.1 C37.8,1.1 37.8,1.1 37.9,1.2 L39.1,1.7 C39.2,1.8 39.2,1.9 39.1,2 L38.7,2.4 L38.7,5.7 L39,5.7 L39.3,5.1 C39.4,5 39.4,4.9 39.5,4.9 C39.6,4.9 39.7,5 39.9,5.3 L40.3,5.8 C40.5,6 40.5,6.1 40.5,6.2 C40.5,6.3 40.4,6.3 40.3,6.3 L38.6,6.3 L38.6,8.7 C39.4,9 39.9,9.3 40.1,9.7 C40.3,10.1 40.3,10.4 40.3,10.6 L40.3,10.7 L40.9,10.7 C40.9,10.6 40.9,10.5 40.9,10.5 L41,9.2 C41,8.5 41.1,8 41.1,7.6 L41.1,6.6 C40.9,7 40.7,7.3 40.5,7.7 L40.2,8.2 C40.1,8.3 40.1,8.4 40,8.4 C39.9,8.4 40,8.3 40,8.1 L40.2,7.5 C40.4,7 40.5,6.4 40.7,5.7 C40.9,5 41,4.6 41.1,4.2 L41.3,3.2 C41.4,2.7 41.5,2.4 41.5,2.2 L41.6,1.4 L41.6,1.1 C41.6,1.1 41.6,1.1 41.7,1.1 L42,1.3 L43.1,2 C43.2,2.1 43.2,2.1 43.3,2.2 C43.4,2.3 43.3,2.4 43.1,2.4 L42.9,2.5 L42.2,4.1 L45.9,4.1 L46.3,3.2 C46.4,3.1 46.4,3 46.4,3 C46.4,3 46.5,3 46.5,3.1 L47.5,4.2 C47.6,4.3 47.6,4.4 47.6,4.4 C47.6,4.4 47.6,4.5 47.5,4.5 L47,4.5 L47,4.5 L42,4.5 L41.3,5.9 L42.3,6.6 L45.3,6.6 L45.6,5.9 C45.7,5.8 45.7,5.7 45.7,5.7 C45.7,5.7 45.8,5.7 45.9,5.8 L46.8,6.6 C46.9,6.7 46.9,6.7 46.9,6.8 C46.9,6.9 46.9,6.9 46.8,7 L46.5,7.3 L46.4,10.3 L46.5,10.3 L46.8,9.7 C46.9,9.5 47,9.4 47,9.4 C47,9.4 47.1,9.4 47.2,9.6 L47.9,10.4 C48,10.5 48,10.6 48,10.7 C48,10.8 48,10.8 47.9,10.8 L47,10.8 L47,10.8 L46.4,10.8 C46.4,10.9 46.4,11.3 46.4,11.8 C46.4,12.3 46.4,12.8 46.4,13.2 L46.3,14.3 L46.3,14.5 L46.4,14.5 L46.7,13.8 C46.8,13.7 46.8,13.6 46.8,13.6 C46.8,13.6 46.9,13.6 47,13.8 L47.6,14.5 C47.8,14.7 47.9,14.8 47.8,14.9 C47.7,15 47.7,15 47.7,15 L46.6,15 L46.6,15 L46.2,15 C46.2,15.2 46.2,15.3 46.2,15.4 C46.2,15.5 46.2,15.6 46.2,15.8 C46.2,16 46.1,16.2 46.1,16.5 C46.1,16.8 45.9,17.1 45.8,17.3 C45.7,17.5 45.5,17.7 45.3,17.9 C45.1,18.1 44.8,18.2 44.5,18.3 C44.4,18.3 44.4,18.3 44.3,18.3 C44.2,18.3 44.3,18.2 44.2,18 C44.1,17.8 44.1,17.6 44,17.5 C43.9,17.4 43.8,17.2 43.8,17.2 C43.8,17.2 43.6,17.1 43.5,17 L43.1,16.8 L43,16.7 L43,16.6 L43.1,16.5 L43.5,16.6 C44.1,16.7 44.5,16.7 44.7,16.5 C44.9,16.3 45,16 45,15.7 L45,15.4 L45,15.1 L41.5,15.1 L41.2,15.5 C41.1,15.6 41.1,15.7 41,15.7 C40.9,15.7 40.9,15.7 40.8,15.6 L40.2,15 C40,14.8 40,14.7 40,14.7 L40,14.6 L40.2,14.4 L40.4,14.2 C40.5,13.5 40.5,13 40.6,12.5 C40.7,12 40.7,11.5 40.7,10.9 L39.9,10.9 C39.7,11.1 39.6,11.1 39.4,11.1 C39.2,11.1 39.1,11 39,10.9 C38.9,10.8 38.9,10.6 38.9,10.5 C38.9,10.4 38.9,10.2 38.9,9.9 C38.9,9.6 38.9,9.4 38.8,9.2 C38.7,9 38.7,8.9 38.6,8.8 L38.4,8.6 L38.4,16 L38.5,18.1 C38.5,18.2 38.5,18.3 38.4,18.3 C38.3,18.3 38.3,18.4 38.2,18.5 C38.1,18.6 37.9,18.6 37.7,18.6 C37.5,18.6 37.4,18.6 37.3,18.5 C37.2,18.4 37.2,18.3 37.2,18.2 L37.3,16.3 L37.3,11.2 C37.1,11.5 37,11.9 36.7,12.3 C36.4,12.7 36.3,13.1 36.1,13.5 C35.9,13.9 35.8,14 35.7,14.2 C35.6,14.4 35.6,14.4 35.6,14.4 L35.4,14.7 C35.3,14.8 35.3,14.8 35.2,14.8 C35.1,14.8 35.2,14.7 35.2,14.6 L35.4,14 C35.9,12.7 36.3,11.3 36.6,9.9 C36.9,8.5 37.5,7.3 37.6,6.3 Z M41.7,15 L45.2,15 C45.2,14.9 45.2,14.8 45.2,14.7 C45.2,14.6 45.2,14.2 45.3,13.7 L45.3,12.6 L45.3,11.5 L42,11.5 L41.7,15 Z M42,10.8 L45.4,10.8 C45.4,10.6 45.4,10.5 45.4,10.4 C45.4,10.3 45.4,10.1 45.4,9.8 C45.4,9.5 45.4,9.1 45.4,8.6 C45.4,8.1 45.4,7.9 45.4,7.8 L45.4,7.6 L42.2,7.6 L42,10.8 Z M42.9,12 C42.9,11.9 43,11.8 43.1,11.9 C43.7,12.3 44,12.6 44.2,13 C44.4,13.4 44.4,13.6 44.3,13.9 C44.3,14.1 44.2,14.3 44.1,14.4 C44,14.5 43.9,14.6 43.7,14.6 C43.5,14.6 43.4,14.5 43.3,14.3 C43.2,14.2 43.2,14.1 43.2,14 C43.2,13.9 43.2,13.7 43.2,13.4 C43.2,13.1 43.2,12.9 43.2,12.8 C43.2,12.7 43.1,12.5 43,12.3 C42.9,12.1 42.9,12 42.9,12 Z M42.9,7.9 C42.9,7.8 43.1,7.9 43.2,8 C43.3,8.1 43.6,8.2 43.7,8.3 C43.8,8.4 44,8.6 44.1,8.7 C44.2,8.8 44.3,9.1 44.3,9.3 C44.3,9.5 44.3,9.8 44.2,10 C44.1,10.2 43.9,10.3 43.7,10.3 C43.5,10.3 43.4,10.2 43.3,10 C43.2,9.9 43.2,9.7 43.2,9.5 L43.2,9 C43.2,8.6 43.1,8.4 43,8.2 C42.9,8 42.8,7.9 42.8,7.8 C42.8,7.7 42.9,7.9 42.9,7.9 Z" id="形状"></path>
                <path d="M58.3,5.6 L58.5,5.2 C58.6,5 58.7,4.9 58.8,4.9 L59,5.2 L59.6,5.8 C59.6,5.8 59.7,5.9 59.7,6 C59.7,6.1 59.7,6.1 59.6,6.1 L57.8,6.1 L57.8,7.2 L58.5,7.2 L58.8,6.8 C58.9,6.7 58.9,6.6 59,6.6 C59.1,6.6 59.1,6.7 59.2,6.8 L59.7,7.4 C59.8,7.5 59.8,7.6 59.8,7.7 C59.8,7.8 59.8,7.8 59.7,7.8 L57.9,7.8 L57.9,9 L59.9,9 L60.3,8.3 C60.4,8.1 60.5,8 60.5,8 C60.5,8 60.7,8.1 60.8,8.3 L61.5,9 C61.6,9.1 61.7,9.3 61.7,9.3 L61.7,9.4 L61.6,9.4 L60.7,9.4 L60.7,9.4 L58,9.4 C58.1,9.5 58.2,9.6 58.3,9.8 C58.4,10 58.8,10.4 59.4,10.8 C60,11.2 60.7,11.5 61.5,11.6 L62,11.6 C62,11.6 62.1,11.6 62.1,11.7 C62.1,11.8 62.1,11.8 62.1,11.8 C62.1,11.8 62.1,11.8 62.1,11.9 C62.1,12 62.1,12 62.1,12 L61.9,12.1 C61.6,12.3 61.3,12.6 61.2,12.9 C61.1,13.2 60.9,13.4 60.9,13.4 C60.6,13.4 60,12.9 59.1,12 L59,12.1 L59,13.6 L59.1,15.2 C59.1,15.3 59.1,15.3 59,15.4 C58.9,15.5 58.9,15.5 58.8,15.5 C58.7,15.5 58.6,15.6 58.6,15.6 C58.6,15.6 58.5,15.6 58.3,15.6 C58.1,15.6 58,15.6 58,15.5 C58,15.4 57.9,15.3 57.9,15.2 L57.9,11.3 L53.7,11.3 L53.7,15.6 C53.7,15.7 53.6,15.8 53.5,15.9 C53.4,16 53.2,16.1 52.9,16.1 C52.8,16.1 52.7,16.1 52.7,16 C52.7,15.9 52.6,15.9 52.6,15.8 L52.6,14.1 L52.6,11.6 C51.7,12.3 51,12.8 50.4,13.1 L49.9,13.4 C49.7,13.5 49.6,13.6 49.5,13.6 C49.4,13.6 49.4,13.6 49.4,13.6 L49.4,13.5 C49.4,13.4 49.4,13.3 49.5,13.3 L49.8,13 L50.2,12.6 C50.7,12.2 51.2,11.7 51.7,11 C52.2,10.3 52.6,9.9 52.7,9.6 C52.8,9.3 52.9,9.2 53,9.1 L50,9.1 C49.9,9.1 49.8,9 49.8,8.8 C49.8,8.6 49.9,8.5 50,8.5 L53.4,8.5 L53.4,7.7 L51.9,7.7 L51.8,7.7 C51.8,7.7 51.7,7.7 51.7,7.6 C51.7,7.5 51.7,7.5 51.7,7.4 C51.7,7.3 51.8,7.2 51.8,7.2 L53.4,7.2 L53.4,6.1 L51.9,6.1 L51.8,6.1 C51.8,6.1 51.7,6.1 51.7,6 C51.7,5.9 51.7,5.9 51.7,5.8 C51.7,5.7 51.8,5.6 51.8,5.6 L53.4,5.6 L53.4,5.4 L53.4,4.1 L53.4,4 L51.7,4 C51.7,4.1 51.7,4.2 51.7,4.3 C51.7,4.4 51.7,4.5 51.7,4.7 C51.7,4.9 51.7,5.1 51.6,5.4 C51.5,5.6 51.4,5.9 51.3,6.1 C51.2,6.3 50.9,6.5 50.7,6.5 C50.5,6.5 50.3,6.4 50.1,6.2 C49.9,6 49.9,5.8 49.9,5.5 C49.9,5.2 50,5 50.1,4.7 C50.1,4.7 50.3,4.5 50.5,4.3 C50.7,4.1 50.9,3.7 51,3.3 L51.1,2.9 C51.1,2.8 51.1,2.8 51.2,2.7 C51.3,2.6 51.3,2.8 51.3,2.9 L51.4,3.3 L51.5,3.5 L55.6,3.5 C55.4,3.4 55.3,3.4 55.3,3.3 C55.3,3.2 55.2,3.1 55.1,3 C55,2.9 55,2.7 55,2.3 C55,1.9 54.8,1.6 54.6,1.4 L54.4,1.2 C54.3,1.1 54.3,1.1 54.3,1 C54.3,0.9 54.4,0.9 54.5,0.9 C54.9,0.9 55.3,1 55.7,1.2 C56.1,1.4 56.4,1.7 56.4,2.1 C56.4,2.5 56.4,2.7 56.3,2.9 C56.2,3.1 56.1,3.2 56.1,3.3 L55.8,3.5 L59.8,3.5 L60.1,3 C60.2,2.8 60.3,2.7 60.3,2.7 C60.3,2.7 60.5,2.8 60.6,3 L61.4,4 C61.6,4.2 61.7,4.4 61.7,4.5 C61.7,4.6 61.5,4.7 61.3,4.7 C61.1,4.7 60.8,4.8 60.6,4.8 C60.4,4.8 60.2,5 60,5.1 L59.7,5.4 C59.6,5.5 59.5,5.6 59.5,5.5 C59.5,5.4 59.5,5.3 59.5,5.3 L59.8,4 L53.5,4 L53.5,4 L54.4,4.3 C54.6,4.4 54.7,4.4 54.7,4.4 L54.7,4.5 C54.7,4.5 54.7,4.6 54.5,4.7 L54.3,5 L54.3,5.5 L56.7,5.5 L56.7,5.2 C56.7,4.8 56.7,4.5 56.7,4.4 C56.7,4.3 56.7,4.3 56.7,4.3 L56.9,4.3 L57.9,4.5 C58,4.5 58.1,4.6 58.1,4.6 L58.1,4.7 C58.1,4.7 58.1,4.7 58.1,4.8 C58.1,4.9 58,4.8 58,4.8 L57.7,5 L57.7,5.5 L58.3,5.6 L58.3,5.6 Z M56.2,13 C56.2,13.4 56.1,13.9 56.1,14.5 C56.1,15.1 55.9,15.7 55.7,16.2 C55.5,16.7 55.2,17.1 54.8,17.4 C54.4,17.7 54,18 53.5,18.2 C53,18.4 52.4,18.6 51.7,18.8 L51.1,18.9 C51,18.9 51,18.9 50.9,18.9 C50.8,18.9 50.8,18.9 50.8,18.9 L50.8,18.8 C50.8,18.8 50.8,18.7 50.9,18.7 L51.2,18.6 L51.6,18.5 C52.2,18.3 52.7,18.1 53.1,17.8 C53.5,17.5 53.9,17.2 54.2,17 C54.5,16.8 54.7,16.4 54.8,15.9 C54.9,15.4 55,15 55.1,14.5 C55.2,14 55.2,13.6 55.2,13.2 L55.2,12.1 L55.2,12 C55.2,12 55.2,12 55.3,12 L56.5,12.4 C56.6,12.4 56.7,12.5 56.7,12.5 L56.8,12.6 C56.8,12.6 56.8,12.7 56.7,12.8 L56.2,13 Z M57.7,11 C57.8,10.9 57.8,10.8 57.9,10.7 C58,10.6 58,10.7 58.1,10.8 C57.9,10.3 57.7,9.8 57.7,9.4 L54.3,9.4 L54.5,9.5 C54.6,9.6 54.6,9.6 54.6,9.6 L54.6,9.7 C54.6,9.7 54.6,9.8 54.5,9.8 L54.3,9.9 L53.5,10.7 L57.7,10.7 L57.7,11 L57.7,11 Z M56.7,7.2 L56.7,6.1 L54.3,6.1 L54.3,7.2 L56.7,7.2 L56.7,7.2 Z M56.7,8.9 L56.7,7.7 L54.3,7.7 L54.3,8.9 L56.7,8.9 Z M56.1,15.9 C56.1,15.8 56.2,15.8 56.3,15.8 C56.3,15.8 56.4,15.8 56.5,15.8 C56.6,15.8 56.9,15.9 57.3,15.9 C57.7,15.9 58.3,16.1 58.9,16.3 C59.5,16.5 60,16.8 60.1,17.2 C60.2,17.6 60.4,17.8 60.4,18.1 C60.4,18.4 60.4,18.6 60.3,18.8 C60.2,19 60.1,19.1 59.9,19.1 C59.7,19.1 59.5,19 59.2,18.7 C59.2,18.7 58.9,18.4 58.6,17.8 C58.3,17.2 57.8,16.9 57.5,16.7 C57.2,16.5 56.9,16.3 56.7,16.2 L56.3,16 C56.2,16 56.1,16 56.1,15.9 Z" id="形状"></path>
                <path d="M66.2,8.9 L66.4,9.1 C66.5,9.2 66.6,9.3 66.6,9.3 C66.6,9.3 66.6,9.3 66.6,9.4 C66.6,9.5 66.6,9.4 66.6,9.5 C66.6,9.6 66.6,9.6 66.5,9.7 L66.3,10 L66.3,16.7 L66.3,18.4 C66.2,18.8 66,18.9 65.8,18.9 C65.6,18.9 65.4,18.9 65.3,18.8 C65.2,18.7 65.2,18.7 65.2,18.6 L65.3,16.6 L65.3,10.3 C65.2,10.5 65,10.8 64.7,11.2 C64.4,11.6 64.3,11.8 64.2,11.9 L63.9,12.3 C63.7,12.6 63.5,12.7 63.4,12.7 L63.3,12.7 C63.3,12.7 63.3,12.7 63.3,12.6 C63.3,12.5 63.3,12.6 63.3,12.5 C63.3,12.4 63.3,12.4 63.4,12.4 L63.6,12.1 L64,11.4 C64.2,11 64.4,10.6 64.5,10.2 C64.6,9.8 64.8,9.4 65.1,8.7 C65.4,8 65.5,7.6 65.6,7.3 C65.7,7 65.8,6.8 65.8,6.5 L66,5.7 L66,5.6 C66,5.6 66.1,5.6 66.2,5.7 L67.2,6.5 C67.3,6.6 67.3,6.6 67.4,6.7 C67.5,6.8 67.5,6.8 67.5,6.9 C67.5,7 67.4,7 67.3,7.1 L67,7.3 L66.2,8.9 Z M67.2,2.7 C66.7,3.5 66.2,4.2 65.8,4.8 C65.4,5.4 65,6 64.4,6.6 L64.1,7 C63.9,7.2 63.8,7.3 63.8,7.3 C63.8,7.3 63.8,7.3 63.7,7.3 C63.6,7.3 63.7,7.3 63.7,7.2 C63.7,7.1 63.7,7.1 63.7,7 L63.9,6.6 L64.2,6 C64.5,5.5 64.8,4.8 65.2,4 C65.6,3.2 65.8,2.4 66,1.8 L66.2,1.2 C66.2,1.1 66.2,1.1 66.3,1.1 C66.4,1.1 66.4,1.1 66.4,1.2 L67.5,2 C67.6,2.1 67.7,2.2 67.7,2.2 L67.7,2.3 C67.7,2.3 67.6,2.4 67.5,2.4 L67.2,2.7 Z M68,13.6 C68.1,13.7 68.1,13.9 68.2,14.2 C68.3,14.5 68.3,14.8 68.3,15 C68.3,15.2 68.3,15.4 68.3,15.6 C68.3,16.1 68.2,16.6 68,17 C67.8,17.4 67.6,17.6 67.3,17.6 C67.1,17.6 66.9,17.5 66.8,17.3 C66.7,17.1 66.7,16.9 66.6,16.7 C66.5,16.5 66.7,16.2 66.9,15.9 L67.2,15.5 C67.3,15.3 67.4,15.1 67.5,14.9 C67.6,14.7 67.6,14.5 67.7,14.1 L67.8,13.7 C67.9,13.6 68,13.5 68,13.6 Z M74.5,11.5 L74.9,10.8 C75,10.6 75.1,10.5 75.1,10.5 C75.1,10.5 75.3,10.6 75.4,10.8 L76,11.5 C76.1,11.7 76.2,11.8 76.2,11.9 C76.2,12 76.1,12 76.1,12 L67.1,12 C67,12 67,12 66.9,11.9 C66.8,11.8 66.8,11.8 66.8,11.6 C66.8,11.4 66.9,11.4 67,11.4 L74.5,11.4 L74.5,11.5 L74.5,11.5 Z M67.5,4.2 C67.4,4.2 67.4,4.2 67.3,4.1 C67.2,4 67.2,4 67.2,3.8 C67.2,3.6 67.3,3.6 67.4,3.6 L70.4,3.6 L70.4,2.6 L70.4,1.2 L70.4,1.1 C70.4,1.1 70.5,1.1 70.6,1.1 L71.7,1.4 C71.8,1.4 71.9,1.5 71.9,1.5 L72,1.6 L72,1.6 C72,1.6 72,1.6 72,1.7 C72,1.8 72,1.7 71.9,1.8 L71.5,2.3 L71.5,3.7 L73.5,3.7 L73.9,3 C74,2.8 74.1,2.7 74.1,2.6 C74.1,2.5 74.2,2.6 74.2,2.6 C74.2,2.6 74.4,2.7 74.5,2.9 L75.2,3.7 C75.3,3.9 75.4,4 75.4,4.1 C75.4,4.2 75.3,4.2 75.3,4.2 L71.5,4.2 L71.4,6.2 L73.5,6.2 L73.8,5.7 C73.9,5.5 74,5.5 74,5.5 C74,5.5 74.1,5.6 74.3,5.7 L74.8,6.2 C74.9,6.3 75,6.4 75,6.4 L75,6.5 C75,6.5 74.9,6.6 74.8,6.8 L74.5,7.1 L74.5,8.5 L74.5,10 C74.4,10.2 74.3,10.3 74.1,10.4 C73.9,10.5 73.7,10.5 73.7,10.5 C73.6,10.5 73.5,10.4 73.5,10.3 L73.5,9.8 L69,9.8 L69,10.5 C69,10.6 68.9,10.7 68.8,10.8 C68.7,10.9 68.5,11 68.1,11 C68,11 68,11 67.9,11 C67.8,11 67.8,10.9 67.8,10.8 L67.8,9.2 L67.8,7.3 L67.8,5.7 C67.8,5.6 67.9,5.6 67.9,5.6 C67.9,5.6 68,5.6 68.1,5.7 L69,6.3 L70.4,6.3 L70.4,4.3 L67.5,4.2 L67.5,4.2 Z M69.9,6.8 L69,6.8 L69,9.3 L69.9,9.3 L69.9,6.8 Z M70.2,13.9 L70.2,16.8 C70.2,17 70.3,17.2 70.4,17.2 C70.5,17.2 70.8,17.3 71.1,17.3 C71.7,17.3 72.2,17.3 72.5,17.1 C72.8,16.9 73,16.8 73.1,16.7 C73.2,16.6 73.3,16.2 73.4,15.9 L73.7,14.7 C73.7,14.6 73.8,14.5 73.9,14.5 C73.9,14.5 74,14.5 74,14.6 C74,14.7 74,14.7 74,14.7 L74,14.8 L73.9,15.9 C73.9,16 73.9,16.1 73.9,16.1 L73.9,16.3 C73.9,16.5 74,16.7 74.1,16.8 C74.2,16.9 74.2,17.1 74.3,17.2 C74.4,17.3 74.3,17.3 74.3,17.4 C74.3,17.8 74.1,18.1 73.7,18.3 C73.3,18.5 72.6,18.6 71.8,18.6 C71,18.6 70.5,18.6 70.1,18.5 C69.7,18.4 69.5,18.2 69.5,18 C69.5,17.8 69.4,17.5 69.4,17.4 L69.4,14.4 L69.4,12.8 C69.4,12.8 69.4,12.8 69.5,12.7 L69.7,12.8 L70.7,13.2 C70.8,13.2 70.8,13.3 70.8,13.4 C70.8,13.5 70.7,13.6 70.6,13.7 L70.2,13.9 Z M71.8,6.8 L70.9,6.8 L70.8,7 L70.8,9.3 L71.8,9.3 L71.8,6.8 Z M70.8,12.6 C70.9,12.6 70.9,12.5 70.8,12.6 C70.9,12.5 71,12.5 71.1,12.6 C71.1,12.6 71.2,12.7 71.5,12.8 C71.8,12.9 72,13.2 72.2,13.5 C72.4,13.8 72.5,14.2 72.5,14.4 C72.5,14.6 72.5,14.9 72.4,15.1 C72.3,15.4 72.1,15.5 71.8,15.5 C71.7,15.5 71.5,15.5 71.4,15.4 C71.3,15.3 71.2,15.2 71.2,15.1 C71.2,15 71.1,14.7 71.1,14.4 C71.1,14.1 71.1,13.8 71,13.6 C70.9,13.4 70.9,13.2 70.8,13.1 L70.6,12.7 C70.9,12.7 70.8,12.7 70.8,12.6 Z M73.7,6.8 L72.7,6.8 L72.6,7 L72.6,9.3 L73.7,9.3 L73.7,6.8 L73.7,6.8 Z M73.9,13.4 C73.9,13.4 73.9,13.3 73.9,13.4 C74,13.3 74.2,13.4 74.5,13.6 C74.8,13.8 75.2,14.1 75.6,14.5 C76,14.9 76.2,15.4 76.2,16 C76.2,16.2 76.2,16.4 76.1,16.6 C76,16.8 75.9,17 75.7,17.1 C75.5,17.2 75.3,17.2 75.1,16.9 C75,16.8 74.9,16.6 74.9,16.5 C74.9,16.4 74.8,16 74.8,15.6 C74.8,15.2 74.7,14.9 74.6,14.6 C74.5,14.3 74.4,14.1 74.2,13.8 L74,13.5 C73.9,13.5 73.9,13.4 73.9,13.4 Z" id="形状"></path>
                <path d="M79,12.7 L79,5.1 L77.6,5.1 C77.5,5.1 77.4,5 77.4,4.8 C77.4,4.6 77.4,4.5 77.6,4.5 L79,4.5 L79,2.7 L79,1 C79,1 79,0.9 79.1,0.9 C79.2,0.9 79.2,0.9 79.4,1 L80.3,1.4 C80.4,1.5 80.5,1.5 80.5,1.5 L80.5,1.6 C80.5,1.6 80.5,1.7 80.4,1.8 L80.2,2 L80.2,4.5 L82,4.5 L82,2.5 L82,1.1 C82,1.1 82,1 82.1,1 L82.4,1.1 L83.3,1.4 C83.4,1.4 83.5,1.5 83.5,1.5 L83.5,1.6 C83.5,1.6 83.5,1.7 83.4,1.7 L83,2.1 L83,4.6 L83.1,4.6 L83.5,3.8 C83.6,3.7 83.6,3.6 83.7,3.6 C83.8,3.6 83.8,3.7 83.9,3.9 L84.5,4.8 C84.5,4.9 84.6,4.9 84.6,4.9 L84.6,5 L84.6,5 C84.6,5 84.6,5.1 84.5,5.1 L83.5,5.1 L83.5,5.1 L83,5.1 L83,12.6 L83.4,11.9 C83.5,11.8 83.6,11.7 83.6,11.7 C83.6,11.7 83.7,11.8 83.8,11.9 L84.4,12.9 C84.5,13 84.5,13.1 84.5,13.1 C84.5,13.1 84.4,13.2 84.3,13.2 L77.6,13.2 L77.5,13.2 C77.4,13.2 77.4,13.2 77.3,13.1 C77.2,13 77.2,13 77.2,12.8 C77.2,12.6 77.3,12.6 77.4,12.6 L79,12.7 L79,12.7 Z M80.5,14.9 C79.9,15.6 79.4,16.3 78.9,16.8 C78.4,17.3 78.1,17.7 78,17.8 L77.7,18.1 C77.6,18.2 77.6,18.2 77.6,18.2 L77.6,18.2 C77.6,18.2 77.6,18.2 77.6,18.1 C77.6,18 77.6,18 77.7,17.9 L78,17.5 C78.2,17.1 78.5,16.7 78.8,16 C79.1,15.3 79.3,14.9 79.5,14.5 L79.7,14 L79.8,13.6 C79.8,13.6 79.8,13.6 79.9,13.6 L80.1,13.8 L81,14.5 C81.1,14.6 81.1,14.6 81.1,14.6 L81.1,14.7 C81.1,14.7 81.1,14.8 81,14.8 L80.5,14.9 Z M81.9,7.1 L81.9,5.1 L80.1,5.1 L80.1,7.1 L81.9,7.1 Z M81.9,9.9 L81.9,7.6 L80.1,7.6 L80.1,9.9 L81.9,9.9 L81.9,9.9 Z M81.9,12.7 L81.9,10.4 L80.1,10.4 L80.1,12.7 L81.9,12.7 Z M81.6,14.5 L81.4,14.2 L81.3,14.1 C81.3,14.1 81.3,14.1 81.3,14 C81.3,13.9 81.3,13.9 81.4,13.9 C81.5,13.9 81.8,14.1 82.2,14.4 C82.6,14.7 83,15.1 83.1,15.4 C83.2,15.7 83.4,16 83.4,16.3 C83.4,16.5 83.4,16.6 83.3,16.7 C83.2,16.8 83.2,17 83.1,17.1 C83,17.2 82.9,17.3 82.7,17.3 C82.5,17.3 82.4,17.2 82.3,17 C82.2,16.8 82.1,16.6 82.1,16.4 L82,15.8 C81.9,15.5 81.9,15.3 81.8,15.1 C81.7,14.9 81.8,14.7 81.6,14.5 Z M85.8,7.8 L88.4,7.8 L88.9,6.9 C89,6.8 89.1,6.7 89.1,6.7 C89.1,6.7 89.2,6.8 89.3,6.9 L90.1,8.1 C90.2,8.2 90.2,8.2 90.2,8.3 C90.2,8.4 90.1,8.4 90.1,8.4 L88.8,8.4 C88.8,8.5 88.7,8.5 88.7,8.6 L88.6,8.7 L88.5,8.8 L88.5,17 L88.5,18.4 C88.4,18.7 88.3,18.9 88.1,19 C87.9,19.1 87.8,19.1 87.6,19.1 C87.4,19.1 87.3,19.1 87.3,19 C87.3,18.9 87.2,18.8 87.2,18.7 L87.3,16.7 L87.3,8.3 L85.8,8.3 C85.8,9.4 85.8,10.3 85.7,11 C85.6,11.7 85.6,12.4 85.5,13 C85.4,13.6 85.3,14.2 85.1,14.7 C84.9,15.2 84.7,15.7 84.5,16.1 C84.3,16.5 84.1,16.9 83.8,17.2 L83.2,18 C83.1,18.2 83,18.3 82.9,18.4 L82.6,18.7 C82.5,18.8 82.5,18.8 82.5,18.8 L82.4,18.8 C82.4,18.8 82.4,18.8 82.4,18.7 C82.4,18.6 82.4,18.6 82.5,18.5 L82.8,18.1 C83.1,17.7 83.4,17.2 83.7,16.6 C84,16 84.1,15.5 84.3,14.8 C84.5,14.1 84.5,13.5 84.6,13 C84.7,12.5 84.7,11.9 84.7,11 C84.7,10.1 84.7,9.5 84.7,8.8 C84.7,8.1 84.7,7.7 84.7,7.4 C84.7,7 84.7,6.7 84.7,6.4 L84.7,4.3 L84.7,4.1 L84.6,2.6 C84.6,2.6 84.6,2.6 84.6,2.5 L84.8,2.7 L86,3.5 C86.6,3.2 87,2.8 87.4,2.5 C87.8,2.2 88,2 88.1,1.8 L88.4,1.4 C88.5,1.3 88.6,1.2 88.6,1.2 C88.6,1.2 88.7,1.3 88.8,1.5 L89.5,2.6 C89.6,2.7 89.6,2.8 89.6,2.9 C89.6,3 89.5,3 89.4,3 L89,3 C88.9,3 88.6,3.1 88.2,3.2 L87,3.4 L85.5,3.7 L85.5,7.8 L85.8,7.8 Z" id="形状"></path>
                <polygon id="路径" points="91 9.8 95.3 9.8 95.3 10.7 91 10.7"></polygon>
                <path d="M106.6,12.9 L107.2,11.9 C107.3,11.8 107.3,11.8 107.4,11.7 C107.5,11.7 107.5,11.8 107.6,11.9 L108.5,13 C108.6,13.1 108.6,13.2 108.6,13.3 C108.6,13.4 108.5,13.4 108.4,13.4 L105.4,13.4 L105.4,17 L105.4,18.4 C105.4,18.5 105.3,18.6 105.2,18.7 C105.1,18.8 104.9,18.9 104.7,18.9 C104.5,18.9 104.3,18.9 104.2,18.8 C104.1,18.7 104.1,18.7 104.1,18.6 L104.2,16.3 L104.2,13.3 L100.2,13.3 C100.2,13.4 100.2,13.5 100.2,13.5 L100.2,14.2 C100.1,15.2 99.9,16 99.6,16.5 C99.3,17 98.9,17.4 98.4,17.8 C97.9,18.2 97.5,18.4 97,18.6 L96.5,18.8 L96.4,18.8 C96.4,18.8 96.4,18.8 96.3,18.8 L96.3,18.8 C96.3,18.8 96.3,18.8 96.3,18.7 C96.3,18.7 96.3,18.6 96.4,18.6 L96.9,18.2 C97.8,17.5 98.4,16.8 98.6,16 C98.8,15.3 98.9,14.7 98.9,14.4 C98.9,14 98.9,13.7 98.9,13.5 L96.2,13.5 C96.1,13.5 96,13.4 96,13.2 C96,13 96,12.9 96.2,12.9 L98.9,12.9 C98.9,12.8 98.9,12.7 98.9,12.6 C98.9,12.5 98.9,12.4 98.9,12.4 C98.9,12.3 98.9,12.2 98.9,12 C98.9,11.8 98.9,11.7 98.9,11.7 L98.9,11.5 L98.9,10.7 L98.9,10.1 C98.9,10.1 98.9,10 99,10 L99.2,10.1 L100.4,10.5 C100.5,10.5 100.6,10.6 100.6,10.6 L100.7,10.7 C100.7,10.7 100.7,10.8 100.6,10.9 L100.3,11.2 C100.3,11.6 100.3,11.9 100.3,12 L100.3,12.4 L100.3,12.8 L104.3,12.8 L104.3,11.4 L104.1,10 C104.1,10 104.1,9.9 104.2,9.9 L104.4,10 L105.6,10.4 C105.7,10.4 105.8,10.5 105.8,10.6 C105.8,10.7 105.8,10.8 105.7,10.9 L105.4,11.2 L105.4,13 L106.6,13 L106.6,12.9 L106.6,12.9 Z M100.3,3.9 C100.4,3.7 100.5,3.4 100.6,3.1 C100.7,2.8 100.8,2.5 100.9,2.3 L101.1,1.5 L101.2,1 C101.2,1 101.2,1 101.3,1 C101.3,1 101.4,1 101.5,1.1 L102.9,1.9 C103,1.9 103,2 103,2 L103,2.1 C103,2.2 102.9,2.2 102.8,2.3 L102.5,2.5 C102,3.5 101.8,4 101.8,4 L105.9,4 L106.5,3 C106.6,2.8 106.7,2.8 106.7,2.8 C106.7,2.8 106.8,2.9 106.9,3 L107.9,4.2 C108,4 108,4.1 108,4.1 L108,4.2 C108,4.2 108,4.3 107.9,4.3 C107.9,4.3 107.8,4.4 107.7,4.4 L105.8,4.4 L105.4,4.4 L103.8,4.4 C104.2,5.2 104.6,5.9 105.2,6.5 C105.8,7.1 106.3,7.5 106.8,7.8 C107.3,8 107.7,8.2 108.2,8.4 L108.5,8.5 C108.6,8.5 108.6,8.6 108.6,8.7 C108.6,8.8 108.6,8.9 108.5,8.9 L108.3,9 C108.2,9.1 108.1,9.1 108,9.2 C107.9,9.3 107.8,9.4 107.7,9.6 C107.6,9.8 107.5,9.9 107.5,10 C107.5,10.1 107.5,10.1 107.4,10.2 C107.3,10.3 107.4,10.2 107.3,10.2 C107.2,10.2 106.8,10 106.2,9.4 C105.6,8.8 105,8.2 104.7,7.5 C104.4,6.8 104.1,6.2 104,5.8 C103.9,5.4 103.8,5.1 103.7,4.8 L103.7,4.6 L103.6,4.3 L101.5,4.3 C101.5,4.4 101.4,4.4 101.4,4.5 L101,5.3 C100.3,6.4 99.7,7.3 99.1,8 C98.5,8.7 98,9.1 97.7,9.4 C97.4,9.6 97.1,9.9 96.8,10.1 L96.3,10.5 L96.2,10.5 L96.1,10.5 L96.1,10.4 C96.1,10.4 96.1,10.3 96.2,10.2 L96.6,9.8 C97.1,9.3 97.6,8.7 98,8 C98.4,7.3 98.8,6.8 99,6.4 C99.2,6 99.4,5.6 99.6,5.2 L99.8,4.7 L99.9,4.5 L96.4,4.5 C96.3,4.5 96.2,4.4 96.2,4.2 C96.2,4 96.2,3.9 96.4,3.9 L100.3,3.9 Z M101.5,8.9 L99.1,8.9 C99,8.9 98.9,8.8 98.9,8.6 C98.9,8.4 98.9,8.3 99.1,8.3 L101.5,8.3 L101.5,6.7 L101.4,5.3 C101.4,5.2 101.5,5.2 101.6,5.2 L102.9,5.5 C103,5.5 103,5.5 103,5.6 L103,5.7 C103,5.7 103,5.8 102.9,5.9 L102.6,6.2 L102.6,8.2 L103.3,8.2 L103.8,7.4 C103.9,7.3 103.9,7.3 103.9,7.3 C103.9,7.3 104,7.3 104.1,7.4 L104.8,8.3 C104.9,8.4 104.9,8.4 104.9,8.5 C104.9,8.6 104.9,8.6 104.9,8.6 C104.9,8.6 104.9,8.7 104.8,8.7 C104.8,8.7 104.7,8.8 104.6,8.8 L102.5,8.8 L102.5,10.5 L102.5,11.6 C102.4,12 102.1,12.2 101.5,12.2 C101.4,12.2 101.3,12.2 101.3,12.1 C101.3,12.1 101.2,12 101.2,11.9 L101.2,10.1 L101.2,8.9 L101.5,8.9 Z" id="形状"></path>
                <path d="M113.5,3.1 L110.2,3.1 C110,3.1 110,3 110,2.8 L110,2.7 C110,2.6 110,2.5 110.1,2.5 L113.4,2.5 L113.8,1.9 C113.9,1.8 113.9,1.8 113.9,1.8 L113.9,1.8 L114,1.9 L114.9,2.8 L115,2.9 L115,3 C115,3 115,3.1 114.9,3.1 L114.5,3.5 L114,9.8 L114.3,9.8 L114.5,9.3 C114.6,9.2 114.6,9.1 114.6,9.1 C114.6,9.1 114.6,9.1 114.7,9.1 L114.8,9.2 L115.7,10.1 C115.8,10.2 115.8,10.2 115.8,10.3 C115.8,10.3 115.8,10.4 115.7,10.5 L115.5,10.8 C115.5,11.3 115.4,11.6 115.4,11.9 L115.3,13.6 C115.2,14.5 115.2,15.2 115.1,15.8 C115,16.3 114.9,16.7 114.8,17.1 C114.7,17.5 114.5,17.7 114.4,17.9 C114.3,18.1 114.1,18.2 113.8,18.4 C113.5,18.6 113.3,18.6 113.1,18.7 L113,18.7 C113,18.7 113,18.6 112.9,18.5 C112.8,18.4 112.8,18.1 112.7,17.8 C112.5,17.5 112.4,17.3 112.1,17.1 L111.8,16.9 L111.8,16.9 L111.8,16.8 C111.8,16.7 111.8,16.7 111.9,16.7 L112.2,16.8 C112.6,16.9 112.9,17 113.1,17 C113.4,17 113.7,16.9 113.8,16.7 C113.9,16.5 114,16.2 114,15.9 C114,15.6 114.1,15.2 114.2,14.8 C114.2,14.4 114.3,13.9 114.3,13.5 C114.3,13.1 114.4,12.6 114.4,12.1 C114.4,11.6 114.4,11.2 114.4,10.8 L114.4,10.4 L111.5,10.4 L111.1,11.2 C111.1,11.3 111,11.3 111,11.3 C111,11.3 110.9,11.3 110.9,11.2 L110.4,10.5 C110.3,10.3 110.2,10.2 110.2,10.2 C110.2,10.2 110.2,10.1 110.3,10.1 L110.5,9.8 C110.6,8.5 110.7,7.4 110.8,6.5 C110.9,5.6 110.9,5 111,4.7 L111.1,3.8 L111.1,3.4 L111.1,3.3 L111.3,3.4 L112.5,4 C112.5,4 112.5,4.1 112.6,4.1 C112.6,4.2 112.6,4.2 112.5,4.3 L112.2,4.6 C112.1,5.6 112,6.4 112,7 C111.9,7.6 111.9,8.6 111.8,9.8 L113.3,9.8 L113.5,3.1 Z M111,15.2 C110.8,15.4 110.7,15.5 110.7,15.5 C110.7,15.5 110.6,15.4 110.6,15.3 L110.1,14 C110.1,13.9 110,13.9 110,13.8 C110,13.8 110.1,13.7 110.3,13.7 L110.7,13.6 C111,13.5 111.5,13.3 112.2,13.1 C112.9,12.9 113.3,12.6 113.7,12.5 L113.9,12.4 L114,12.4 L114,12.5 L114,12.6 L113.6,13 L112.6,13.9 L111.7,14.7 L111,15.2 Z M116,7.5 L116,5.7 L115.9,4.2 L115.9,4.2 C115.9,4.2 116,4.2 116.1,4.3 L117.3,4.8 C117.3,4.8 117.4,4.8 117.4,4.9 C117.4,5 117.4,5 117.4,5 C117.4,5 117.4,5.1 117.3,5.2 L117,5.5 L117,7.2 L118.2,6.8 L118.2,2.8 L118.1,1.3 C118.1,1.3 118.1,1.2 118.2,1.2 C118.2,1.2 118.3,1.2 118.6,1.3 L119.5,1.6 C119.6,1.6 119.6,1.7 119.6,1.7 C119.6,1.8 119.6,1.8 119.5,1.8 L119.2,2.2 L119.2,6.1 L120.4,5.7 L120.7,5 C120.7,4.9 120.8,4.9 120.8,4.9 L120.9,4.9 L121.8,5.7 C121.9,5.8 121.9,5.8 121.9,5.9 C121.9,5.9 121.9,5.9 121.9,6 C121.9,6 121.9,6 121.9,6.1 C121.9,6.2 121.9,6.2 121.8,6.2 L121.5,6.7 C121.5,7.6 121.5,8.4 121.5,9 C121.5,9.6 121.5,10.2 121.5,10.8 C121.5,11.4 121.5,11.8 121.4,12.1 C121.3,12.4 121.3,12.7 121.2,13.1 C121.1,13.4 120.9,13.7 120.6,13.8 C120.3,13.9 120.2,14 120.1,14 C120.1,14 120,13.8 120,13.5 C119.9,13.2 119.8,13 119.6,12.8 L119.3,12.6 L119.2,12.5 C119.2,12.4 119.2,12.4 119.3,12.4 L119.4,12.4 L119.7,12.4 C119.8,12.4 119.8,12.4 119.9,12.4 C120.1,12.4 120.3,12.2 120.3,11.9 C120.3,11.6 120.4,11.3 120.4,11 C120.4,10.7 120.4,10.3 120.4,9.8 C120.4,9.3 120.4,8.8 120.4,8.4 C120.4,7.9 120.4,7.5 120.4,7.1 L120.4,6.8 L120.4,6.4 L119.1,6.9 L119.1,13.1 L119.2,14.5 C119.2,14.7 119.1,14.8 119.1,14.8 C119.1,14.9 119,14.9 118.9,15 C118.8,15.1 118.7,15.1 118.5,15.1 C118.4,15.1 118.3,15.1 118.3,15.1 C118.2,15.1 118.2,15 118.1,15 C118.1,15 118.1,14.9 118.1,14.8 L118.2,13 L118.2,7.3 L117,7.7 L117,15.7 C117,16 117,16.2 117.1,16.3 C117.2,16.4 117.3,16.5 117.5,16.6 C117.7,16.7 118.3,16.7 119.1,16.7 C120.1,16.7 120.7,16.6 120.9,16.5 C121.1,16.4 121.3,16.2 121.4,16.1 C121.5,16 121.6,15.7 121.7,15.3 C121.8,14.9 121.9,14.6 122,14.3 L122.2,13.4 C122.2,13.3 122.3,13.2 122.3,13.3 L122.4,13.4 L122.3,14.1 C122.2,14.7 122.2,15.1 122.2,15.3 C122.2,15.5 122.2,15.7 122.3,15.9 L122.5,16.3 C122.6,16.4 122.6,16.5 122.6,16.6 C122.6,16.7 122.6,16.7 122.6,16.8 C122.6,17.2 122.5,17.5 122.2,17.7 C122,17.9 121.5,18.1 120.8,18.2 C120.1,18.3 119.6,18.3 119.2,18.3 C118.5,18.3 117.8,18.2 117.1,18.1 C116.4,18 116,17.7 115.9,17.3 C115.8,16.9 115.8,16.6 115.8,16.4 L115.8,8 L114.5,8.5 C114.4,8.5 114.3,8.5 114.3,8.3 C114.3,8.1 114.3,8 114.4,8 L116,7.5 Z" id="形状"></path>
                <path d="M125.1,11.8 L125.5,10.7 C125.6,10.3 125.8,9.9 125.9,9.5 L126.6,7.4 C126.9,6.4 127.1,5.8 127.2,5.6 L127.6,4.2 C127.6,4.1 127.7,4 127.7,4 C127.7,4 127.8,4 127.8,4.1 C127.8,4.2 127.8,4.2 127.8,4.3 L127.8,4.4 L127.5,6 C127.4,6.7 127.2,7.2 127.1,7.8 L126.6,10.2 C126.4,11 126.3,11.7 126.2,12.4 C126.1,13.1 126,13.5 126,13.9 C126,14.1 126,14.3 126,14.6 L126.1,15.3 C126.1,15.6 126.2,15.8 126.2,15.9 C126.2,16.2 126.1,16.5 126,16.8 C125.9,17.1 125.7,17.2 125.5,17.2 C125.3,17.2 125.1,17.1 125,17 C124.8,16.8 124.7,16.5 124.7,16.1 C124.7,16 124.7,15.9 124.7,15.7 L124.8,14.9 C124.8,14.7 124.8,14.5 124.8,14.3 C124.8,13.8 124.6,13.3 124.3,12.8 L124.1,12.4 L124.1,12.3 L124.1,12.3 C124.1,12.3 124.1,12.3 124.1,12.2 C124.1,12.2 124.1,12.2 124.2,12.2 L124.5,12.3 C124.7,12.4 124.8,12.4 125,12.3 C124.9,12.1 125,12 125.1,11.8 Z M124.8,3.8 L124.5,3.3 C124.5,3.2 124.5,3.2 124.5,3.1 C124.5,3 124.5,3 124.6,3 C124.7,3 125.1,3.2 125.7,3.6 C126.3,4 126.6,4.6 126.5,5.3 C126.5,5.7 126.4,6 126.2,6.3 C126,6.6 125.8,6.7 125.6,6.7 C125.4,6.7 125.2,6.6 125.1,6.4 C125,6.2 125,6 125,5.8 C125,5.6 125,5.5 125,5.4 L125,4.9 C125,4.7 125,4.5 125,4.4 C124.9,4.2 124.8,4 124.8,3.8 Z M128.8,6 L129,5.5 C129,5.4 129.1,5.3 129.2,5.3 C129.2,5.3 129.3,5.3 129.4,5.4 L130.3,6.3 L130.4,6.4 L130.4,6.5 L130.4,6.6 L130.3,6.7 L130.1,7 C130,7.4 129.9,7.9 129.8,8.6 C129.7,9.2 129.6,9.7 129.6,10 C129.6,10.3 129.4,10.8 129.2,11.4 C129,12 128.8,12.7 128.4,13.3 C128,13.9 127.6,14.7 126.9,15.4 L126.4,15.9 C126.3,16 126.3,16 126.2,16 L126.1,16 L126.1,15.9 C126.1,15.9 126.1,15.8 126.2,15.7 L126.6,15 C126.8,14.7 127,14.3 127.2,13.9 C127.4,13.5 127.6,13 127.8,12.4 C128,11.8 128.1,11.2 128.2,10.8 C128.3,10.3 128.4,9.7 128.5,9 C128.6,8.3 128.7,7.8 128.7,7.4 L128.7,6.7 L128.7,6.5 L127.4,6.5 C127.3,6.5 127.2,6.4 127.2,6.3 C127.2,6.1 127.2,6.1 127.4,6.1 L128.8,6 L128.8,6 Z M134.2,5.9 L134.6,5.2 L134.8,4.8 C134.8,4.8 134.9,4.8 135,5 L136,6.3 C136.1,6.4 136.2,6.5 136.2,6.6 C136.2,6.7 136.1,6.8 136,6.8 L135.5,6.8 C135.2,7.1 135,7.2 134.8,7.4 L133.9,8.1 L132.9,8.8 C133,9.2 133.1,9.6 133.2,9.9 C133.3,10.2 133.5,10.7 133.9,11.4 C134.3,12.1 134.6,12.7 135,13.2 C135.4,13.7 135.7,14 135.9,14.2 C136.2,14.5 136.4,14.6 136.5,14.7 L136.8,14.9 C136.8,14.9 136.8,14.9 136.8,15 C136.8,15.1 136.8,15.1 136.8,15.1 C136.8,15.2 136.8,15.2 136.7,15.2 L136.4,15.3 C136.2,15.4 136,15.5 135.8,15.7 C135.6,15.9 135.5,16.1 135.4,16.1 C135.3,16.1 135.3,16.2 135.2,16.2 C135.1,16.2 135,16.1 134.8,15.8 C134.6,15.5 134.4,15.2 134.2,14.9 C134,14.6 133.8,14.2 133.6,13.6 C133.4,13.1 133.1,12.4 132.9,11.6 C132.7,10.8 132.5,9.8 132.3,8.5 L132.1,6.9 L131.9,5.5 L131.9,16.7 C131.9,16.9 131.9,17.2 131.8,17.4 C131.8,17.6 131.5,17.9 131.2,18.1 C130.9,18.3 130.5,18.5 130.3,18.5 L130.2,18.5 C130.2,18.5 130.2,18.5 130.2,18.4 C130.2,18.4 130.2,18.2 130.1,17.8 C130,17.4 129.8,17.1 129.3,16.9 L128.9,16.7 C128.8,16.7 128.8,16.6 128.8,16.5 C128.8,16.4 128.9,16.4 129,16.4 L129.5,16.4 C130,16.4 130.4,16.4 130.5,16.4 C130.6,16.4 130.7,16.3 130.7,16.2 C130.7,16.1 130.8,16 130.8,15.8 L130.8,3.8 L130.7,1.5 C130.7,1.4 130.7,1.4 130.8,1.4 L130.9,1.4 L132.4,1.8 C132.4,1.8 132.5,1.8 132.5,1.9 L132.6,2 L132.6,2 C132.6,2 132.6,2 132.6,2.1 C132.6,2.2 132.5,2.2 132.4,2.3 L132,2.7 L132,4.2 C132.3,5.8 132.5,6.7 132.5,7 L132.8,8.3 C133.6,6.9 134.1,6.1 134.2,5.9 Z" id="形状"></path>
                <path d="M143.6,4.6 L143.6,2.8 L142.4,2.8 L139.9,2.8 C139.8,2.8 139.7,2.7 139.7,2.5 C139.7,2.3 139.7,2.2 139.9,2.2 L146.7,2.2 L147.3,1.2 C147.3,1.2 147.3,1.1 147.4,1.1 C147.4,1.1 147.4,1.1 147.5,1.1 L148.6,2.4 C148.6,2.5 148.7,2.5 148.7,2.5 C148.7,2.6 148.7,2.6 148.6,2.6 L148,2.6 L148,2.6 L145.2,2.6 C145,2.9 145,3 145,3 C145,3 144.9,3.1 144.8,3.2 L144.8,4.6 L148.5,4.6 L148.9,3.9 C148.9,3.8 149,3.8 149,3.8 C149,3.8 149.1,3.8 149.1,3.9 L150.5,5.4 C150.5,5.5 150.6,5.6 150.6,5.7 C150.6,5.8 150.6,5.9 150.5,6 C150.4,6.1 150.3,6.1 150,6.1 C149.7,6.1 149.5,6.2 149.3,6.4 C149.1,6.6 148.9,6.8 148.7,7.1 L148.4,7.5 C148.3,7.6 148.3,7.6 148.3,7.6 C148.3,7.6 148.3,7.5 148.2,7.5 L148.2,7.4 L148.7,5.3 L144.9,5.3 L144.9,9.4 L144.9,10.7 C144.9,10.8 144.8,10.9 144.8,11 C144.8,11.1 144.6,11.1 144.4,11.2 C144.2,11.3 144,11.3 143.9,11.3 C143.8,11.3 143.7,11.3 143.7,11.2 C143.7,11.1 143.7,11.1 143.7,10.9 L143.7,9 L143.7,5.3 L140,5.3 C140,5.4 140,5.5 140,5.6 C140,5.7 140,5.9 140,6.1 C140,6.3 139.9,6.7 139.8,7.1 C139.7,7.5 139.4,7.7 139,7.7 C138.8,7.7 138.6,7.6 138.5,7.4 C138.4,7.2 138.3,7 138.3,6.7 C138.3,6.4 138.4,6.2 138.5,6 L139,5.4 C139.1,5.3 139.2,5.1 139.3,4.9 C139.4,4.7 139.4,4.6 139.4,4.4 C139.4,4.2 139.4,4.1 139.4,3.9 C139.4,3.7 139.4,3.6 139.5,3.6 C139.5,3.6 139.5,3.6 139.6,3.7 C139.6,3.7 139.7,3.9 139.7,4 L139.8,4.4 L139.9,4.6 L143.6,4.6 Z M139.6,8.8 L142.8,8.8 C143,8.8 143,8.9 143,9.2 C143,9.3 142.9,9.4 142.8,9.4 L139.6,9.4 C139.5,9.4 139.4,9.3 139.5,9 C139.5,8.9 139.6,8.8 139.6,8.8 Z M147.2,12 L139.9,12 C139.8,12 139.7,11.9 139.7,11.7 C139.7,11.5 139.7,11.4 139.9,11.4 L147.1,11.4 L147.3,11.1 L147.5,10.7 C147.5,10.6 147.5,10.6 147.6,10.6 C147.6,10.6 147.7,10.6 147.7,10.7 L148.9,11.7 L148.9,11.7 L148.9,11.7 L148.9,11.7 L148.9,11.7 L148.9,11.8 L148.5,12.3 L148.5,16.9 L148.5,17.9 C148.5,18 148.5,18.1 148.4,18.2 C148.3,18.3 148.2,18.4 147.9,18.5 C147.6,18.6 147.5,18.6 147.3,18.6 C147.1,18.6 147.1,18.5 147.1,18.3 L147.1,17.4 L139.7,17.4 L139.6,17.4 C139.5,17.3 139.5,17.2 139.5,17.1 C139.5,17 139.6,16.9 139.7,16.9 L147.1,16.9 L147.1,14.6 L140.1,14.6 L140,14.6 C139.9,14.5 139.9,14.4 139.9,14.3 C139.9,14.2 140,14.1 140.1,14.1 L147.2,14.1 L147.2,12 Z M140.2,6.8 L142.8,6.8 C142.9,6.8 142.9,6.9 142.9,7 C142.9,7.1 142.9,7.2 142.9,7.3 C142.9,7.4 142.8,7.4 142.8,7.4 L140.2,7.4 C140.1,7.4 140.1,7.3 140,7.2 C139.9,7.1 140,7 140,6.9 C140,6.8 140.1,6.8 140.2,6.8 Z M145.3,6.8 L147.8,6.8 C147.9,6.8 148,6.9 148,7.2 C148,7.3 147.9,7.4 147.9,7.4 L145.4,7.4 L145.3,7.4 C145.3,7.4 145.3,7.3 145.2,7.1 C145.1,6.9 145.2,6.8 145.3,6.8 Z M145.3,8.8 L148.4,8.8 C148.6,8.8 148.6,8.9 148.6,9.2 C148.6,9.3 148.5,9.4 148.4,9.4 L145.3,9.4 L145.2,9.4 C145.2,9.4 145.2,9.3 145.1,9.2 C145.1,9.1 145.1,9 145.1,9 C145.2,8.8 145.3,8.8 145.3,8.8 Z" id="形状"></path>
                <path d="M156.4,4.5 L152.4,4.5 C152.2,4.5 152.1,4.4 152.2,4.3 L152.3,4 L152.4,4 L156.3,4 L156.7,3.3 C156.7,3.2 156.8,3.2 156.8,3.1 C156.8,3.1 156.9,3.1 157,3.2 L158,4.2 C158,4.3 158.1,4.3 158.1,4.3 L158.1,4.4 C158.1,4.4 158.1,4.5 158,4.5 C158,4.6 157.9,4.6 157.9,4.7 L157.6,5 C157.4,6.2 157.2,7.1 157,7.7 C156.9,8.3 156.7,8.8 156.6,9.2 L156.2,10.3 C156.4,10.7 156.6,11 156.7,11.3 C156.8,11.6 157,11.9 157.2,12.5 C157.4,13 157.6,13.5 157.7,13.9 C157.8,14.3 157.9,14.7 157.9,15.1 C157.9,15.4 157.9,15.6 157.8,15.8 C157.7,16 157.6,16.1 157.5,16.3 C157.4,16.4 157.3,16.5 157.2,16.5 C157,16.5 156.9,16.4 156.8,16.2 C156.7,16 156.6,15.7 156.6,15.2 C156.6,14.7 156.4,14.2 156.3,13.7 C156.2,13.2 156,12.8 156,12.6 L155.7,11.9 C155.1,13 154.7,13.7 154.5,14.1 C154.3,14.5 153.9,14.9 153.6,15.4 C153.3,15.9 152.9,16.2 152.7,16.4 L152.3,16.8 C152.2,16.9 152.2,16.9 152.1,16.9 C152,16.9 152,16.9 152,16.9 C152,16.9 152,16.9 152,16.8 L152,16.8 C152,16.8 152,16.7 152.1,16.6 L152.5,16 C153,15.3 153.5,14.5 153.9,13.6 C154.3,12.7 154.8,11.7 155.2,10.7 C154.6,9.5 154,8.4 153.3,7.4 L152.9,6.8 C152.8,6.6 152.7,6.5 152.7,6.5 L152.7,6.4 C152.7,6.4 152.7,6.4 152.7,6.3 C152.7,6.2 152.7,6.3 152.8,6.3 C152.8,6.3 152.9,6.4 153,6.5 L153.4,6.9 C154.1,7.6 154.8,8.5 155.6,9.6 C155.9,8.6 156.1,7.8 156.2,7.2 C156.3,6.6 156.4,6.2 156.4,5.8 C156.4,5.1 156.4,4.8 156.4,4.5 Z M161.6,5.9 L161.6,3.8 L161.5,1.5 C161.5,1.4 161.6,1.4 161.6,1.4 C161.6,1.4 161.7,1.4 161.9,1.5 L163.1,1.8 C163.2,1.8 163.3,1.9 163.3,2 C163.3,2.1 163.2,2.2 163.2,2.3 L162.8,2.7 L162.8,6 L162.9,6 L163.5,5 C163.6,4.9 163.6,4.8 163.7,4.8 C163.7,4.8 163.8,4.9 163.9,5 L164.7,6 C164.8,6.1 164.8,6.2 164.8,6.3 C164.8,6.4 164.7,6.5 164.6,6.5 L162.8,6.5 L162.8,17.1 C162.8,17.3 162.8,17.6 162.7,17.8 C162.6,18.1 162.4,18.3 162.1,18.4 C161.8,18.6 161.5,18.7 161.3,18.7 C161.1,18.7 161,18.7 161,18.7 C161,18.7 161,18.7 161,18.6 L161,18.5 L160.9,18 C160.8,17.8 160.8,17.6 160.6,17.5 C160.5,17.4 160.4,17.2 160.3,17.2 L159.7,16.9 C159.6,16.9 159.6,16.8 159.6,16.7 C159.6,16.7 159.6,16.6 159.7,16.6 L159.8,16.6 L160.5,16.7 C160.7,16.7 160.9,16.7 161.1,16.7 C161.5,16.7 161.7,16.5 161.7,16.2 L161.7,6.5 L157.9,6.5 C157.8,6.5 157.7,6.4 157.7,6.2 C157.7,6 157.7,5.9 157.9,5.9 L161.6,5.9 Z M158.1,8.8 L158.1,8.7 C158.1,8.6 158.1,8.6 158.2,8.6 C158.3,8.6 158.5,8.7 158.8,9 C159.1,9.3 159.3,9.6 159.5,9.8 C159.7,10 159.8,10.3 159.9,10.6 C160,10.9 160,11.2 160,11.5 C160,11.9 159.9,12.2 159.8,12.4 C159.7,12.6 159.5,12.8 159.3,12.8 C159,12.8 158.9,12.7 158.8,12.4 C158.7,12.1 158.7,11.9 158.7,11.7 L158.8,10.9 C158.8,10.7 158.8,10.5 158.8,10.3 C158.8,10.1 158.7,10 158.7,9.8 L158.5,9.2 L158.1,8.8 Z" id="形状"></path>
                <path d="M167.2,11.7 L167.6,10.6 C167.7,10.4 167.8,10 168,9.4 L168.7,7.2 L169.1,5.9 C169.1,5.8 169.1,5.8 169.2,5.8 C169.3,5.8 169.3,5.8 169.3,5.8 C169.3,5.9 169.3,5.9 169.3,5.9 L169.3,6 L169,7.4 C169,7.5 168.8,8.4 168.5,10 C168.2,11.6 168,12.5 168,12.7 C168,12.9 168,13.1 168,13.2 C168,13.3 168,13.4 168,13.5 C168,13.6 168.1,13.9 168.2,14.4 C168.3,14.9 168.4,15.3 168.4,15.6 C168.4,16.2 168.2,16.6 167.9,16.8 C167.6,17 167.3,17 167.2,16.7 C167,16.5 166.9,16.2 166.9,15.9 C166.9,15.8 166.9,15.6 166.9,15.3 C166.9,15 167,14.7 167,14.5 C167,14.4 167,14.3 167,14.1 C167,13.9 167,13.7 166.9,13.5 C166.8,13.3 166.8,13.1 166.7,13 C166.6,12.8 166.5,12.7 166.5,12.7 L166.2,12.5 C166.1,12.5 166.1,12.4 166.1,12.3 C166.1,12.2 166.1,12.2 166.2,12.2 L166.6,12.3 C166.8,12.3 166.9,12.3 167,12.3 C167.1,12 167.2,11.9 167.2,11.7 Z M166.9,3.9 L166.6,3.4 C166.6,3.4 166.6,3.3 166.6,3.2 C166.6,3.1 166.6,3.1 166.7,3.1 C166.8,3.1 167.1,3.2 167.3,3.4 C167.5,3.6 167.8,3.8 168.1,4.2 C168.4,4.6 168.5,5 168.5,5.5 C168.5,5.9 168.4,6.2 168.2,6.4 C168,6.7 167.8,6.8 167.6,6.8 C167.4,6.8 167.2,6.7 167.1,6.5 C167,6.3 166.9,6.1 166.9,5.9 C166.9,5.7 166.9,5.6 166.9,5.5 L166.9,5 C166.9,4.8 166.9,4.6 166.9,4.5 C167.1,4.2 167,4.1 166.9,3.9 Z M171.8,10.4 C171.8,10.3 171.8,10.2 171.8,10.2 L171.9,8.9 L172,6.5 C172,6.3 172,6.3 172,6.2 L172,5.8 L169.7,5.8 C169.6,5.8 169.5,5.7 169.5,5.5 C169.5,5.3 169.5,5.2 169.7,5.2 L172,5.2 C172,4.8 172,4.4 172,3.9 C172,3.4 172,3.1 172,2.9 L171.9,1.7 L171.9,1.4 C171.9,1.4 171.9,1.3 172,1.3 C172.1,1.3 172.1,1.3 172.2,1.3 L173.7,1.8 C173.9,1.9 173.9,1.9 173.9,2 C173.9,2.1 173.8,2.2 173.7,2.3 L173.4,2.6 L173.4,5.2 L175.1,5.2 L175.4,4.6 C175.4,4.5 175.5,4.5 175.5,4.5 C175.5,4.5 175.6,4.5 175.7,4.6 L176.7,5.5 C176.8,5.6 176.8,5.6 176.8,5.7 C176.8,5.8 176.8,5.8 176.8,5.8 C176.8,5.9 176.8,5.9 176.7,6 L176.4,6.4 L176.4,10.3 L176.7,10.3 L177.3,9.2 C177.4,9.1 177.4,9 177.5,9 C177.5,9 177.6,9.1 177.7,9.2 L178.7,10.5 C178.7,10.6 178.8,10.6 178.8,10.7 C178.8,10.8 178.8,10.8 178.8,10.9 C178.8,11 178.7,11 178.5,11 L177.9,11 L173.6,11 C173.7,11.2 173.7,11.4 173.8,11.6 C173.9,11.8 174,12.1 174.1,12.5 C174.3,12.9 174.5,13.4 174.8,14.1 C175.1,14.8 175.6,15.3 176.3,15.9 C177,16.4 177.6,16.8 178.2,17 L178.7,17.1 C178.8,17.1 178.8,17.2 178.8,17.3 C178.8,17.4 178.7,17.5 178.7,17.5 L178.4,17.6 C178.1,17.7 177.9,17.8 177.7,17.9 C177.5,18 177.3,18.2 177.2,18.5 C177.1,18.7 177,18.8 177,18.8 C176.9,18.8 176.6,18.6 176.3,18.3 C176,18 175.7,17.6 175.2,17 C174.8,16.4 174.4,15.7 174.2,14.8 C173.9,13.9 173.8,13.1 173.7,12.6 C173.6,12 173.5,11.5 173.5,11.1 L173,11.1 C172.9,12.2 172.7,13.1 172.5,13.9 C172.3,14.7 172,15.3 171.6,15.8 C171.2,16.3 170.8,16.8 170.2,17.3 C169.6,17.8 169,18.2 168.3,18.5 L167.8,18.8 C167.7,18.9 167.6,18.9 167.6,18.8 C167.6,18.7 167.6,18.7 167.6,18.7 C167.6,18.7 167.6,18.6 167.7,18.6 L168.2,18.2 C168.9,17.7 169.4,17.2 169.8,16.6 C170.2,16 170.6,15.5 170.8,15.1 C171,14.7 171.2,14.2 171.3,13.7 C171.4,13.2 171.5,12.8 171.6,12.3 C171.7,11.8 171.7,11.4 171.7,11.1 L169,11.1 C168.9,11.1 168.8,11 168.8,10.8 C168.8,10.6 168.9,10.5 169,10.5 L171.8,10.5 L171.8,10.4 Z M174.9,10.4 L174.9,5.8 L173.2,5.8 C173.2,6.1 173.2,6.4 173.2,6.7 C173.2,7 173.2,7.3 173.2,7.7 C173.2,8.1 173.2,8.6 173.2,9.1 C173.2,9.6 173.1,10 173.1,10.4 L174.9,10.4 Z" id="形状"></path>
            </g>
        </g>
    </g>
</svg>