<?xml version="1.0" encoding="UTF-8"?>
<svg width="238px" height="136px" viewBox="0 0 238 136" version="1.1" xmlns="http://www.w3.org/2000/svg" xmlns:xlink="http://www.w3.org/1999/xlink">
    <!-- Generator: Sketch 59.1 (86144) - https://sketch.com -->
    <title>banner-国六-pc的副本 2的副本5</title>
    <desc>Created with Sketch.</desc>
    <g id="页面-1" stroke="none" stroke-width="1" fill="none" fill-rule="evenodd">
        <g id="banner-国六-pc的副本-2的副本5" fill="#FFFFFF">
            <g id="编组" transform="translate(37.000000, 109.000000)" fill-rule="nonzero">
                <g>
                    <path d="M2,3 L9.9,3 L10.2,2.6 C10.3,2.4 10.4,2.3 10.4,2.3 C10.4,2.3 10.5,2.4 10.6,2.5 L11.2,3.1 C11.3,3.2 11.4,3.3 11.4,3.4 C11.4,3.5 11.4,3.5 11.4,3.5 C11.4,3.5 11.4,3.5 11.4,3.6 C11.4,3.6 11.4,3.7 11.3,3.8 L11.1,4.2 L11.1,15.6 L11.2,18.1 C11.2,18.3 11.1,18.4 11.1,18.5 C11.1,18.6 10.9,18.6 10.8,18.7 C10.7,18.8 10.5,18.8 10.4,18.8 C10.1,18.8 10,18.7 10,18.4 L10,17.3 L2,17.3 L2,18.2 C2,18.3 2,18.4 1.9,18.5 C1.8,18.6 1.6,18.7 1.3,18.7 C1.1,18.7 1,18.7 1,18.6 C1,18.5 0.9,18.5 0.8,18.3 L0.9,15 L0.9,4.7 L0.8,2.4 C0.8,2.3 0.9,2.3 0.9,2.3 C0.9,2.3 1,2.3 1.2,2.5 L2,3 Z M9.9,3.5 L1.9,3.5 L1.9,16.6 L9.9,16.6 L9.9,3.5 Z M5,9.4 L5,5.9 L2.5,5.9 L2.4,5.9 L2.4,5.9 L2.4,5.9 C2.4,5.9 2.4,5.8 2.4,5.7 C2.4,5.6 2.5,5.5 2.6,5.5 L7.7,5.5 L8,4.9 C8.1,4.6 8.3,4.5 8.3,4.5 C8.3,4.5 8.5,4.6 8.6,4.8 L9.2,5.5 C9.4,5.7 9.4,5.8 9.4,5.9 C9.4,6 9.4,6 9.3,6 L6.4,6 L6.2,6.3 L6.2,9.5 L7.5,9.5 L7.8,8.9 C7.9,8.6 8,8.5 8.1,8.5 C8.2,8.5 8.3,8.6 8.4,8.8 L9,9.6 C9.1,9.7 9.1,9.8 9.2,9.8 C9.3,9.8 9.2,9.8 9.2,9.9 C9.2,10 9.1,10 9,10 L6.1,10 L6.1,14.3 L7.7,14.3 L8.1,13.6 C8.2,13.4 8.3,13.3 8.4,13.3 C8.5,13.3 8.5,13.4 8.6,13.5 L9.3,14.3 C9.5,14.5 9.5,14.6 9.5,14.7 C9.5,14.8 9.4,14.8 9.3,14.8 L8.3,14.8 L8.3,14.8 L2.4,14.8 C2.3,14.8 2.2,14.7 2.2,14.5 C2.2,14.3 2.2,14.2 2.4,14.2 L4.9,14.2 L4.9,9.9 L2.7,9.9 C2.6,9.9 2.6,9.9 2.5,9.8 C2.4,9.7 2.5,9.7 2.4,9.5 C2.3,9.3 2.5,9.3 2.6,9.3 L5,9.4 L5,9.4 Z M6.4,10.7 C6.4,10.6 6.5,10.6 6.6,10.6 C6.7,10.6 6.9,10.7 7.4,10.8 C7.9,10.9 8.2,11.2 8.3,11.5 C8.4,11.8 8.4,12.1 8.4,12.2 C8.4,12.3 8.4,12.4 8.4,12.5 C8.3,12.7 8.2,12.9 8.1,13 C8,13.1 7.9,13.1 7.9,13.1 C7.7,13.1 7.6,13 7.5,12.8 C7.4,12.6 7.4,12.4 7.3,12.1 C7.2,11.8 7.2,11.6 7.1,11.5 C7,11.4 6.9,11.2 6.8,11 L6.6,10.7 C6.4,10.8 6.4,10.8 6.4,10.7 Z" id="形状_8_"></path>
                    <path d="M19.5,2.8 C19.1,2.9 18.8,2.9 18.5,3 C18.2,3.1 18,3.3 17.7,3.5 C17.4,3.7 17.1,4 16.9,4.2 C16.7,4.4 16.5,4.7 16.3,5 C16.1,5.3 15.9,5.6 15.8,6 C15.7,6.4 15.5,6.6 15.5,6.8 L15.1,8.2 C15.4,7.9 15.7,7.8 15.9,7.6 C16.1,7.4 16.3,7.4 16.6,7.3 C16.9,7.2 17.1,7.2 17.4,7.2 C17.6,7.2 17.9,7.3 18.1,7.4 C18.3,7.5 18.5,7.7 18.7,7.9 C18.9,8.1 19.1,8.4 19.2,8.6 C19.3,8.8 19.4,9.1 19.5,9.5 C19.6,9.9 19.6,10.2 19.7,10.6 C19.8,11 19.7,11.3 19.7,11.7 C19.7,12.2 19.6,12.6 19.6,13 C19.6,13.4 19.4,13.8 19.3,14.3 C19.2,14.8 19,15.1 18.7,15.3 C18.4,15.5 18.2,15.8 17.9,16 C17.6,16.2 17.2,16.3 16.7,16.2 C16.3,16.2 16,16.1 15.8,16 C15.6,15.9 15.3,15.7 15.1,15.5 C14.9,15.3 14.7,15 14.5,14.8 C14.3,14.6 14.2,14.2 14,13.7 C13.8,13.2 13.8,12.8 13.7,12.3 C13.6,11.8 13.6,11.3 13.6,10.6 C13.6,9.9 13.6,9.4 13.7,8.9 C13.7,8.5 13.8,8.1 13.9,7.7 C14,7.3 14.1,6.9 14.2,6.6 C14.3,6.3 14.5,5.9 14.6,5.6 C14.7,5.3 15,4.9 15.3,4.5 C15.6,4.1 15.9,3.8 16.2,3.5 C16.5,3.2 16.9,2.9 17.2,2.7 C17.5,2.5 17.9,2.4 18.2,2.3 C18.5,2.2 18.8,2.2 18.9,2.2 L19.5,2.2 L19.5,2.8 L19.5,2.8 Z M16.8,16.1 C17.1,16 17.3,16 17.5,15.9 C17.7,15.8 17.8,15.7 17.9,15.5 C18,15.3 18.1,15.1 18.1,14.8 C18.1,14.5 18.2,14.3 18.2,14 C18.2,13.7 18.2,13.3 18.2,12.9 C18.2,12.5 18.2,12 18.2,11.5 C18.2,11 18.1,10.6 18,10.3 C17.9,10 17.8,9.6 17.7,9.4 C17.6,9.2 17.4,8.9 17.2,8.8 C17,8.7 16.7,8.6 16.4,8.6 C16,8.6 15.7,8.7 15.4,8.9 L14.7,9.4 C14.7,9.8 14.7,10.1 14.6,10.5 C14.5,10.9 14.6,11.1 14.6,11.5 C14.6,11.9 14.6,12.3 14.6,12.7 C14.6,13.1 14.7,13.5 14.8,13.9 C14.9,14.3 15,14.7 15.1,15 C15.2,15.3 15.3,15.6 15.5,15.7 C15.7,15.8 15.8,16 15.9,16.1 C16,16.2 16.6,16 16.8,16.1 Z" id="形状_9_"></path>
                    <path d="M23.2,5.6 L23.2,2.5 L23.1,1.2 L23.1,1.1 L23.3,1.2 L24.5,1.6 C24.6,1.6 24.6,1.7 24.6,1.7 C24.6,1.7 24.5,1.9 24.4,2 L24.1,2.3 L24.1,5.5 L24.8,5.5 L25.2,4.6 C25.3,4.5 25.3,4.4 25.4,4.4 C25.5,4.4 25.5,4.4 25.5,4.5 L26.4,5.6 C26.5,5.7 26.5,5.8 26.5,5.9 C26.5,6 26.5,6 26.4,6 L25.5,6 L25.5,6 L24.3,6 L24.3,8.3 C25.1,8.5 25.6,8.9 25.9,9.3 C26.2,9.7 26.3,10.1 26.3,10.4 C26.3,10.7 26.2,11 26.1,11.1 C26,11.2 25.8,11.3 25.7,11.3 C25.6,11.3 25.4,11.2 25.3,11.1 C25.2,11 25.1,10.7 25.1,10.3 C25.1,9.9 25,9.6 24.9,9.4 C24.8,9.2 24.7,8.9 24.4,8.7 L24.4,16.1 L24.5,17.8 C24.4,18.2 24.2,18.4 23.9,18.4 C23.6,18.4 23.4,18.4 23.4,18.3 C23.4,18.2 23.3,18.1 23.3,18 L23.4,16.2 L23.4,10.5 C23.1,11.3 22.7,12 22.4,12.6 C22.1,13.2 21.8,13.8 21.5,14.2 L21.2,14.7 C21.1,14.8 21.1,14.8 21.1,14.8 L21.1,14.7 C21.1,14.7 21.1,14.6 21.1,14.5 L21.4,13.8 C21.5,13.5 21.7,13.1 21.9,12.5 C22.1,11.9 22.4,10.9 22.7,9.5 C23,8.1 23.3,7.1 23.3,6.5 L23.3,6.3 L23.3,6 L21.2,6 L21.1,6 C21,6 21,6 21,6 L21,5.9 C21,5.8 21,5.7 21,5.6 C21,5.5 21.1,5.5 21.1,5.5 L23.2,5.6 L23.2,5.6 Z M27.8,11.7 C27.5,12.4 27.1,13.1 26.7,13.9 C26.3,14.7 25.8,15.5 25.2,16.4 L24.9,16.9 C24.8,17 24.8,17 24.7,17 C24.6,17 24.6,17 24.6,16.9 C24.6,16.8 24.6,16.8 24.7,16.7 L24.9,16.3 C25,16.1 25.2,15.7 25.3,15.3 C25.4,14.9 25.6,14.5 25.7,14.2 C25.8,13.9 26,13.5 26.1,12.9 C26.2,12.3 26.4,11.9 26.5,11.7 L26.7,10.8 L26.8,10.3 L26.8,10.3 C26.8,10.3 26.9,10.3 27,10.4 L28,11.1 C28.1,11.2 28.1,11.2 28.1,11.3 C28.1,11.4 28,11.4 28,11.5 L27.8,11.7 Z M25.5,8.2 C25.4,8.2 25.4,8.2 25.5,8.2 C25.4,8 25.4,8 25.4,7.9 C25.4,7.8 25.5,7.7 25.6,7.7 L31.6,7.7 L32.1,6.8 C32.2,6.6 32.2,6.5 32.3,6.6 C32.4,6.7 32.4,6.7 32.5,6.8 L33.6,8 L33.6,8.1 L33.6,8.2 C33.6,8.2 33.6,8.2 33.6,8.3 L33.5,8.4 L30.3,8.4 C30.3,8.5 30.3,8.6 30.2,8.6 L30,8.8 L30,17.3 C30,17.5 30,17.7 29.9,17.9 C29.8,18.1 29.6,18.3 29.3,18.4 C29,18.5 28.7,18.6 28.5,18.6 L28.4,18.6 C28.4,18.6 28.4,18.5 28.4,18.4 C28.4,18.3 28.3,18.1 28.3,17.8 C28.3,17.5 28,17.3 27.7,17.1 L27.4,16.9 L27.3,16.8 L27.3,16.7 C27.3,16.7 27.4,16.6 27.5,16.6 L27.8,16.7 C28.3,16.8 28.6,16.8 28.8,16.8 C29,16.8 29,16.7 29,16.5 L29,8.4 L25.5,8.2 L25.5,8.2 Z M30.7,3.2 L31,2.5 C31.2,2.2 31.3,2 31.3,2 C31.3,2 31.4,2.1 31.5,2.2 L32.4,3.2 C32.5,3.4 32.6,3.5 32.6,3.5 C32.6,3.6 32.6,3.6 32.5,3.6 C32.4,3.6 32.4,3.7 32.4,3.7 L31.9,3.7 L31.9,3.7 L26,3.7 C25.9,3.7 25.8,3.6 25.8,3.4 C25.8,3.2 25.8,3.1 26,3.1 L30.7,3.1 C30.7,3.1 30.7,3.2 30.7,3.2 Z M30.4,11.3 C30.3,11.2 30.3,11.1 30.3,11.1 C30.3,11.1 30.3,11 30.4,11 C30.4,11 30.5,11.1 30.7,11.2 C30.9,11.3 31.1,11.5 31.4,11.8 C31.7,12.1 32,12.3 32.3,12.7 C32.6,13 32.8,13.4 33,13.8 C33.2,14.2 33.3,14.7 33.3,15 C33.3,15.3 33.2,15.5 33.1,15.8 C33,16.1 32.8,16.2 32.6,16.2 C32.4,16.2 32.3,16.1 32.2,16 C32.1,15.8 32,15.6 32,15.4 L31.8,14.5 C31.7,14 31.6,13.5 31.3,12.9 C31,12.3 30.8,11.8 30.4,11.3 Z" id="形状_10_"></path>
                    <path d="M38.2,5.8 L38.7,4.5 C38.7,4.4 38.8,4.3 38.8,4.3 C38.8,4.3 38.8,4.3 38.9,4.4 L38.9,4.5 L38.9,4.6 L38.6,6 C38.5,6.4 38.3,7.1 38.1,8 C37.9,8.9 37.7,9.6 37.6,10.2 C37.5,10.8 37.4,11.3 37.3,11.7 C37.2,12.2 37.2,12.6 37.2,13 C37.2,13.3 37.2,13.6 37.3,13.9 C37.4,14.2 37.4,14.6 37.5,15.1 C37.6,15.7 37.7,16.1 37.7,16.3 C37.7,16.6 37.6,16.9 37.5,17.1 C37.4,17.4 37.2,17.5 36.9,17.5 C36.8,17.5 36.7,17.5 36.6,17.4 C36.5,17.3 36.4,17.2 36.3,17.1 C36.2,16.9 36.1,16.7 36.1,16.4 L36.1,14.8 C36.1,14.6 36.1,14.2 36,13.8 C35.9,13.4 35.7,13 35.4,12.9 L35.1,12.8 C35,12.8 35,12.7 35,12.7 C35,12.7 35,12.7 35,12.6 C35,12.5 35,12.5 35,12.5 C35,12.4 35.1,12.4 35.1,12.4 L35.4,12.4 C35.6,12.4 35.8,12.3 35.8,12.3 C35.9,12.2 35.9,12.2 36,12.1 C36.1,12 36.1,11.8 36.2,11.6 C36.3,11.4 36.5,10.8 36.8,9.8 L37.5,7.7 C37.7,7.2 37.9,6.6 38.2,5.8 Z M35.7,3.3 L35.6,3.1 L35.4,2.9 L35.4,2.8 C35.4,2.7 35.5,2.7 35.6,2.7 C35.7,2.7 35.8,2.8 36,2.8 C36.2,2.9 36.5,3 36.9,3.1 C37.2,3.2 37.4,3.5 37.5,3.9 C37.6,4.3 37.6,4.5 37.6,4.7 C37.6,4.9 37.5,5.1 37.4,5.4 C37.2,5.7 37,5.9 36.8,5.9 C36.6,5.9 36.4,5.8 36.3,5.7 C36.2,5.5 36.1,5.3 36.1,5 L36,4.3 C36,3.8 35.9,3.5 35.7,3.3 Z M46.2,5.8 L44.1,5.8 C44,5.9 44,6.1 43.8,6.3 L43.8,8.9 L44.7,8.9 L45.3,7.9 C45.3,7.8 45.4,7.8 45.4,7.8 C45.4,7.8 45.5,7.9 45.6,7.9 L46.5,9 C46.6,9.1 46.6,9.2 46.6,9.3 C46.6,9.4 46.5,9.5 46.5,9.5 L43.9,9.5 L43.9,12.6 L44.8,12.6 L45.4,11.6 C45.4,11.5 45.5,11.5 45.5,11.5 C45.5,11.5 45.6,11.5 45.7,11.6 L46.6,12.7 C46.7,12.8 46.7,12.9 46.7,12.9 C46.7,13 46.6,13.1 46.5,13.1 L45.8,13.1 L45.8,13.1 L43.9,13.1 L43.9,16.6 L45.2,16.6 L45.9,15.4 C46,15.3 46,15.3 46,15.2 C46,15.2 46.1,15.3 46.2,15.4 L47.1,16.6 C47.2,16.7 47.2,16.8 47.2,16.8 C47.2,16.9 47.2,16.9 47.1,16.9 L47,17 L46,17 L46,17 L40.7,17 L40.7,18.1 C40.7,18.3 40.6,18.5 40.4,18.6 C40.2,18.7 40,18.7 39.9,18.7 C39.7,18.7 39.6,18.7 39.5,18.6 C39.4,18.5 39.4,18.4 39.4,18.3 L39.5,15.3 L39.5,7.3 C39,8.2 38.6,8.9 38.3,9.5 L38,10 C37.9,10.1 37.9,10.1 37.8,10.1 L37.7,10 C37.7,10 37.7,9.9 37.7,9.8 L38,9.1 C38.1,9 38.2,8.7 38.3,8.2 C38.4,7.7 38.6,7.4 38.7,7 C38.8,6.6 39,6 39.3,5 C39.6,4 39.8,3.2 39.9,2.5 L40.1,1.3 L40.1,1 C40.1,1 40.2,1 40.3,1.1 L41.7,2 C41.8,2 41.8,2.1 41.8,2.2 C41.8,2.3 41.8,2.3 41.7,2.4 L41.4,2.6 C41.1,3.3 41,3.8 40.9,3.9 L40.4,5.2 L40.5,5.3 L45,5.3 L45.6,4.2 C45.6,4.1 45.7,4.1 45.7,4.1 C45.7,4.1 45.8,4.2 45.9,4.3 L46.9,5.5 C46.9,5.6 47,5.6 47,5.6 L47,5.7 L47,5.7 C47,5.8 46.9,5.9 46.8,5.9 L46.2,5.8 L46.2,5.8 Z M42.7,5.8 L40.8,5.8 L40.8,8.9 L42.7,8.9 L42.7,5.8 Z M40.8,12.5 L42.7,12.5 L42.7,9.4 L40.8,9.4 L40.8,12.5 Z M42.7,13.1 L40.8,13.1 L40.8,16.6 L42.7,16.6 L42.7,13.1 Z M42.8,2.5 L42.6,2.1 C42.6,2.1 42.6,2 42.6,1.9 C42.6,1.8 42.6,1.8 42.7,1.8 C42.9,1.8 43.2,2 43.7,2.3 C44.2,2.6 44.4,3.1 44.4,3.8 C44.4,4.1 44.3,4.3 44.2,4.6 C44.1,4.9 43.9,5 43.6,5 C43.4,5 43.2,4.9 43.1,4.7 C43,4.5 42.9,4.3 42.9,4.1 L42.9,3.3 C42.9,3 42.9,2.7 42.8,2.5 Z" id="形状_11_"></path>
                    <path d="M54.8,13.3 L54.8,10.2 L51.9,10.2 L51.4,10.9 C51.3,11 51.3,11 51.3,10.9 L50.6,9.7 C50.5,9.6 50.5,9.5 50.5,9.5 C50.5,9.5 50.6,9.4 50.8,9.3 C50.9,9.2 51,9.1 51.1,9 C51.2,8.9 51.4,8.4 51.6,7.8 C51.9,7.1 52.1,6.6 52.2,6.2 C52.3,5.8 52.5,5.4 52.7,4.8 L49.5,4.8 C49.4,4.8 49.3,4.7 49.3,4.5 C49.3,4.3 49.4,4.2 49.5,4.2 L52.9,4.2 C52.9,4.2 53,3.8 53.2,3.2 C53.4,2.6 53.6,2.1 53.6,1.7 L53.8,1.1 L53.9,0.7 L53.9,0.7 L54.1,0.9 L55.5,1.8 C55.5,1.8 55.6,1.9 55.6,2 C55.6,2.1 55.6,2.1 55.5,2.2 L55,2.5 L54.3,4.4 L58.6,4.4 L59.1,3.4 C59.2,3.2 59.3,3.1 59.3,3 C59.3,2.9 59.4,3 59.5,3.2 L60.6,4.4 C60.7,4.5 60.7,4.6 60.7,4.7 C60.7,4.8 60.7,4.8 60.6,4.8 L60.1,4.8 L60.1,4.8 L54.1,4.8 L52.1,9.7 L54.8,9.7 L54.8,7.7 L54.8,6 L54.9,5.9 L55.1,6 L56.5,6.6 C56.6,6.6 56.6,6.7 56.6,6.8 C56.6,6.9 56.6,6.9 56.5,7 L56.2,7.2 L56.2,9.7 L58.1,9.7 L58.6,8.8 C58.7,8.5 58.8,8.4 58.9,8.5 C59,8.5 59,8.6 59.2,8.8 L60.1,9.9 C60.2,10 60.2,10.1 60.2,10.2 C60.2,10.3 60.2,10.3 60.1,10.3 L56.3,10.3 L56.3,13.4 L59.5,13.4 L60.1,12.4 C60.2,12.3 60.2,12.2 60.3,12.2 C60.3,12.2 60.4,12.2 60.4,12.3 L61.4,13.5 C61.5,13.6 61.5,13.6 61.5,13.7 C61.5,13.8 61.5,13.8 61.5,13.9 C61.5,14 61.5,14 61.4,14 L59.8,14 L59.8,14 L56.3,14 L56.3,16.9 L56.3,18.6 C56.3,18.7 56.3,18.8 56.2,18.8 C56.2,18.9 56.1,18.9 56,19 C55.9,19.1 55.7,19.1 55.5,19.1 C55.3,19.1 55.1,19.1 55.1,19 C55.1,18.9 55,18.8 55,18.6 L55,17 L55,14 L49.2,14 L49.1,14 L49,14 L49,13.9 C49,13.7 49.1,13.5 49.2,13.5 L54.8,13.5 L54.8,13.3 L54.8,13.3 Z" id="路径_2_"></path>
                    <path d="M65.1,6.4 L65.1,3 L63.6,3 C63.5,3 63.4,2.9 63.4,2.7 C63.4,2.5 63.4,2.4 63.6,2.4 L68.4,2.4 L68.9,1.5 C69,1.4 69,1.3 69.1,1.3 C69.1,1.3 69.2,1.4 69.3,1.5 L70,2.5 C70.1,2.6 70.1,2.7 70.1,2.8 C70.1,2.9 70.1,2.9 70,2.9 L69.5,2.9 L68.7,2.9 C68.6,3 68.6,3.1 68.5,3.3 L68.5,6.4 L69,6.4 L69.6,5.5 C69.6,5.4 69.7,5.4 69.7,5.4 C69.7,5.4 69.8,5.4 69.9,5.5 L70.6,6.5 C70.7,6.6 70.7,6.7 70.7,6.8 C70.7,6.9 70.6,7 70.4,7 L69.1,7 L68.4,7 L68.4,10.6 L68.4,12 C68.3,12.3 68.1,12.4 67.8,12.4 C67.5,12.4 67.4,12.4 67.3,12.4 C67.3,12.4 67.2,12.3 67.2,12.2 L67.3,9.8 L67.3,7 L66.2,7 C66.2,7.1 66.2,7.2 66.2,7.2 L66.2,8.1 C66.2,8.7 66.1,9.3 66,9.8 C65.9,10.3 65.7,10.8 65.4,11.1 C65.1,11.5 64.8,11.8 64.5,12.1 C64.2,12.4 63.9,12.6 63.8,12.7 L63.3,13 L63.2,13 L63.2,13 L63.2,13 C63.2,13 63.2,13 63.2,12.9 C63.2,12.9 63.2,12.8 63.3,12.7 L63.7,12.3 C64.1,11.9 64.3,11.5 64.6,11.1 C64.8,10.6 65,10.2 65.1,9.8 C65.2,9.4 65.2,8.9 65.3,8.3 C65.3,7.7 65.3,7.4 65.3,7.3 L65.3,7.1 L63.2,7.1 C63.1,7.1 63,7 63,6.8 C63,6.6 63,6.5 63.2,6.5 L65.1,6.4 L65.1,6.4 Z M68.8,14.4 L65,14.4 C64.9,14.4 64.8,14.3 64.8,14.1 C64.8,13.9 64.8,13.8 64.9,13.8 L68.7,13.8 L68.7,12.5 L68.6,10.8 L68.7,10.7 L68.8,10.7 L70.1,11.1 C70.2,11.1 70.3,11.2 70.3,11.3 C70.3,11.4 70.3,11.5 70.2,11.6 L69.9,11.9 L69.9,13.6 L71.5,13.6 L72.1,12.6 C72.2,12.5 72.2,12.4 72.3,12.4 C72.3,12.4 72.4,12.4 72.5,12.5 L73.4,13.6 C73.5,13.7 73.5,13.8 73.5,13.9 C73.5,14 73.4,14.1 73.4,14.1 L70,14.1 L70,17 L73.2,17 L73.9,15.9 C74,15.8 74.1,15.7 74.1,15.7 C74.1,15.7 74.2,15.8 74.3,15.9 L75.1,16.9 C75.2,17 75.2,17.1 75.3,17.1 C75.3,17.2 75.3,17.2 75.3,17.3 C75.3,17.4 75.2,17.4 75,17.4 L73.7,17.4 L63.1,17.4 C63,17.4 62.9,17.3 62.9,17.1 C62.9,16.9 62.9,16.8 63.1,16.8 L68.7,16.8 L68.8,14.4 L68.8,14.4 Z M66.5,3 C66.4,3.1 66.3,3.2 66.2,3.4 L66.2,6.5 L67.3,6.5 L67.3,3 L66.5,3 Z M72,3.7 L72,8 L72,9.5 C71.9,9.9 71.6,10.1 71.2,10.1 C71.1,10.1 71,10.1 70.9,10 C70.8,10 70.8,9.9 70.8,9.8 L70.9,7.6 L70.9,4.4 L70.8,2.6 C70.8,2.6 70.8,2.5 70.9,2.5 C71,2.5 71,2.5 71.1,2.6 L72.2,3 C72.3,3 72.4,3.1 72.4,3.2 C72.4,3.3 72.4,3.3 72.3,3.4 L72,3.7 Z M74.4,2.4 L74.4,11.6 C74.4,11.7 74.4,11.9 74.3,12 C74.2,12.1 74,12.3 73.7,12.5 C73.4,12.7 73.1,12.8 72.9,12.8 C72.8,12.8 72.8,12.8 72.8,12.8 C72.8,12.8 72.7,12.6 72.7,12.4 C72.6,12.2 72.6,12 72.5,11.8 C72.4,11.6 72.3,11.6 72.2,11.5 L71.7,11.3 C71.7,11.3 71.6,11.3 71.6,11.2 L71.6,11.1 L71.6,11 L71.7,10.9 L72.3,10.9 L72.7,10.9 C73,10.9 73.1,10.9 73.2,10.9 C73.3,10.9 73.3,10.8 73.3,10.8 C73.3,10.8 73.3,10.6 73.3,10.5 L73.3,3.5 L73.2,1.1 C73.2,1.1 73.2,1.1 73.3,1.1 L73.5,1.2 L74.6,1.6 C74.7,1.6 74.7,1.7 74.8,1.7 L74.8,1.8 C74.8,1.9 74.7,1.9 74.7,2 L74.4,2.4 Z" id="形状_12_"></path>
                    <path d="M79.7,7.9 L80.2,7.9 L80.5,7.3 C80.6,7.1 80.7,7 80.7,7 C80.7,7 80.8,7.1 80.9,7.2 L81.6,8.2 C81.7,8.3 81.7,8.4 81.7,8.4 L81.6,8.5 L79.7,8.5 L79.7,12.7 C80.1,12.5 80.7,12.3 81.3,12 L81.7,11.8 C81.8,11.8 81.8,11.8 81.8,11.9 C81.8,12 81.8,12 81.7,12.1 L81.4,12.4 C81.2,12.5 80.9,12.8 80.4,13.2 C79.9,13.6 79.6,13.9 79.3,14 L78.1,14.9 L77.6,15.3 C77.3,15.5 77.2,15.6 77.2,15.6 C77.2,15.6 77.2,15.5 77.1,15.5 L76.6,14.1 L76.5,13.8 C76.5,13.8 76.5,13.8 76.5,13.7 C76.5,13.6 76.6,13.7 76.8,13.6 L77.2,13.5 C77.5,13.4 77.9,13.3 78.4,13.1 L78.4,8.5 L76.8,8.5 C76.7,8.5 76.7,8.4 76.6,8.2 C76.6,8 76.6,7.9 76.8,7.9 L78.4,7.9 L78.4,3.7 L76.6,3.7 C76.5,3.7 76.5,3.6 76.5,3.4 C76.5,3.2 76.5,3.1 76.7,3.1 L80.1,3.1 L80.5,2.4 C80.6,2.2 80.7,2.1 80.7,2 C80.7,2 80.8,2 80.9,2.2 L81.8,3.4 C81.8,3.5 81.9,3.5 81.9,3.6 C81.9,3.7 81.9,3.7 81.8,3.7 L80.1,3.7 L79.8,4.1 L79.7,7.9 L79.7,7.9 Z M85.6,5.1 C85.6,5.5 85.6,6 85.6,6.6 C85.6,7.2 85.6,7.6 85.6,7.8 C85.6,8 85.6,8.4 85.5,8.9 C85.4,9.4 85.4,9.8 85.4,10 L85.4,10.4 L86.4,10.9 C86.6,11 86.6,11.1 86.7,11.1 L86.7,11.2 C86.7,11.2 86.7,11.2 86.7,11.3 L86.7,11.4 L86.5,11.7 L86.5,16.4 C86.5,16.5 86.5,16.6 86.5,16.6 C86.5,16.7 86.7,16.7 87,16.7 C87.6,16.7 88,16.7 88.2,16.6 C88.4,16.5 88.5,16.3 88.6,16.1 C88.7,15.9 88.9,15.4 89,14.7 L89.2,13.8 C89.2,13.7 89.3,13.6 89.3,13.6 L89.4,13.7 C89.4,13.8 89.4,13.8 89.4,13.8 L89.4,14.3 C89.4,14.6 89.3,14.9 89.3,15.1 C89.3,15.3 89.3,15.5 89.3,15.7 C89.3,15.9 89.3,16.1 89.3,16.1 C89.3,16.2 89.4,16.3 89.5,16.6 C89.6,16.8 89.6,17 89.6,17.1 C89.6,17.2 89.6,17.4 89.5,17.6 C89.4,17.8 89.3,17.9 89.2,18 C89.1,18.1 88.9,18.2 88.5,18.3 C88.2,18.4 87.8,18.4 87.3,18.4 C86.5,18.4 86,18.3 85.7,18 C85.4,17.7 85.3,17.4 85.3,16.8 L85.3,11.8 C85.2,12.2 85.1,12.6 85,13 C84.9,13.4 84.7,13.9 84.4,14.5 C84.1,15.1 83.5,15.8 82.6,16.5 C81.7,17.2 80.8,17.8 79.8,18.2 L79.4,18.4 C79.4,18.4 79.4,18.4 79.3,18.4 C79.3,18.4 79.3,18.4 79.2,18.4 L79.2,18.3 C79.2,18.2 79.2,18.2 79.3,18.1 L79.8,17.8 C79.9,17.7 80.2,17.6 80.5,17.3 C80.9,17 81.2,16.7 81.5,16.5 C81.8,16.3 82.2,15.7 82.8,15 C83.3,14.3 83.7,13.4 83.9,12.5 C84.1,11.6 84.2,10.6 84.3,9.7 C84.3,8.8 84.4,7.9 84.4,7.1 C84.4,7 84.4,6.8 84.4,6.6 C84.4,6.4 84.4,6 84.4,5.4 L84.4,4.7 L84.4,4 L84.4,4 L84.8,4.1 L85.8,4.5 C85.9,4.5 86,4.6 86,4.7 C86,4.8 86,4.9 85.9,4.9 L85.6,5.1 Z M83.2,2.8 L83.2,11.4 L83.2,12 C83.1,12.4 82.9,12.6 82.5,12.6 C82.3,12.6 82.2,12.6 82.1,12.5 C82,12.4 82,12.3 82,12.2 L82.1,10.6 L82.1,3.2 L82,1.4 L82,1.4 C82,1.4 82.1,1.5 82.3,1.6 L83.2,2.2 L86.7,2.2 L87,1.6 C87.1,1.5 87.1,1.4 87.1,1.4 C87.1,1.4 87.2,1.4 87.2,1.5 L88.2,2.5 C88.3,2.6 88.3,2.6 88.3,2.7 C88.3,2.8 88.3,2.8 88.2,2.9 L87.8,3.4 L87.8,10.3 L87.9,11.9 C87.9,12.1 87.7,12.3 87.6,12.4 C87.5,12.5 87.2,12.6 87.1,12.6 C87,12.6 86.9,12.6 86.8,12.5 C86.7,12.4 86.7,12.4 86.7,12.3 L86.7,11.6 L86.7,2.7 L83.2,2.8 L83.2,2.8 Z" id="形状_13_"></path>
                    <path d="M99.4,8.5 L93.3,8.5 L93.3,15 C93.3,15.2 93.4,15.4 93.5,15.5 C93.6,15.7 94,15.8 94.8,15.9 C95.5,16 96.5,16 97.6,16 C99.3,15.9 100.3,15.9 100.7,15.8 C101.1,15.7 101.4,15.5 101.7,15.2 C102,14.9 102.2,14.3 102.5,13.4 L102.8,12.1 C102.8,12.1 102.8,12 102.9,11.9 C102.9,11.8 103,11.8 103,11.9 C103,12 103,12 103,12.1 L102.8,13.6 C102.7,14.1 102.7,14.4 102.7,14.6 C102.7,14.8 102.8,15 102.8,15.1 L103,15.6 C103.1,15.7 103.1,15.9 103.1,16 C103.1,16.1 103.1,16.3 103,16.4 C102.9,16.6 102.6,16.9 102.2,17.1 C101.8,17.3 101,17.4 99.9,17.5 C98.8,17.6 98,17.6 97.5,17.6 C96.9,17.6 96,17.6 94.9,17.5 C93.8,17.4 93.1,17.3 92.7,17 C92.3,16.8 92.1,16.5 92,16.3 C91.9,16.1 91.9,15.7 91.9,15.4 L91.9,6.3 L91.8,4.4 L91.8,4.3 C91.8,4.3 91.9,4.3 92,4.3 L93.2,4.7 C93.3,4.7 93.4,4.8 93.5,4.8 L93.5,4.9 C93.5,4.9 93.4,5 93.3,5.2 L93,5.6 L93,7.9 L99.1,7.9 L99.1,3 L91.5,3 C91.4,3 91.3,2.9 91.3,2.8 C91.3,2.7 91.3,2.5 91.5,2.5 L91.6,2.5 L99,2.5 L99.3,2 C99.4,1.8 99.5,1.7 99.5,1.7 C99.5,1.7 99.6,1.8 99.8,1.9 L100.5,2.5 C100.6,2.6 100.7,2.7 100.8,2.7 C100.9,2.7 100.8,2.8 100.9,2.8 C101,2.8 100.8,2.9 100.7,3.1 L100.4,3.5 L100.4,7.3 L100.4,9.1 C100.4,9.2 100.3,9.3 100.3,9.4 C100.3,9.5 100.1,9.5 99.9,9.6 C99.7,9.7 99.5,9.7 99.4,9.7 C99.3,9.7 99.2,9.7 99.1,9.6 C99,9.5 99,9.5 99,9.4 L99,8.5 L99.4,8.5 L99.4,8.5 Z" id="路径_3_"></path>
                    <path d="M108.7,7.1 C108.1,7.9 107.5,8.5 107,9.1 C106.5,9.6 106,10 105.7,10.3 C105.4,10.5 105.2,10.7 105.2,10.7 L104.9,10.9 L104.8,11 C104.7,11 104.7,11 104.7,11 C104.7,11 104.7,11 104.7,10.9 C104.7,10.9 104.7,10.8 104.8,10.8 L105,10.5 C105.5,9.9 106.1,9.1 106.6,8.3 C107.2,7.5 107.7,6.4 108.4,5.2 C109,4 109.5,3 109.7,2.2 L109.9,1.8 L110,1.4 L110,1.4 L110.3,1.6 L111.8,2.5 C111.9,2.5 111.9,2.6 111.9,2.6 L111.9,2.7 C111.9,2.8 111.9,2.8 111.8,2.9 L111.3,3.2 L111.2,3.3 C111.7,4.5 112.2,5.4 112.7,6 C113.2,6.6 113.7,7 114,7.3 C114.3,7.6 114.8,7.9 115.2,8.2 C115.6,8.5 116.1,8.7 116.5,8.8 L116.9,8.9 L117.2,9 C117.3,9 117.3,9.1 117.3,9.1 L117.3,9.2 C117.3,9.3 117.3,9.3 117.2,9.3 L117,9.4 C116.8,9.5 116.6,9.6 116.5,9.7 C116.4,9.8 116.3,9.9 116.1,10.1 C115.9,10.3 115.9,10.4 115.8,10.6 C115.8,10.8 115.7,10.8 115.7,10.9 C115.7,11 115.7,11 115.6,10.9 C115.5,10.9 115.1,10.6 114.3,10 C113.6,9.4 113,8.8 112.5,8.1 C112,7.4 111.7,6.7 111.4,6 C111.1,5.3 110.9,4.7 110.8,4.2 L110.6,3.5 C110.1,5.1 109.3,6.3 108.7,7.1 Z M111.8,10.1 C111.8,10.1 111.7,10.2 111.7,10.3 C111.7,10.4 111.6,10.5 111.5,10.5 L111.5,13.4 L112.8,13.4 L113.3,12.5 C113.4,12.3 113.5,12.2 113.5,12.2 C113.5,12.2 113.6,12.3 113.8,12.5 L114.7,13.5 C114.8,13.6 114.9,13.7 114.8,13.8 C114.7,13.9 114.7,13.9 114.6,13.9 L111.4,13.9 L111.4,17.5 L114.4,17.5 L115.1,16.5 L115.2,16.3 C115.3,16.2 115.3,16.1 115.3,16.1 C115.3,16.1 115.4,16.2 115.6,16.4 L116.6,17.5 C116.7,17.6 116.7,17.7 116.7,17.7 L116.7,17.8 C116.7,17.9 116.6,17.9 116.5,17.9 L115.8,17.9 L105.3,17.9 C105.2,17.9 105.1,17.8 105.1,17.6 C105.1,17.4 105.2,17.3 105.3,17.3 L110.1,17.3 L110.1,13.7 L107.2,13.7 L107.1,13.7 C107.1,13.7 107,13.7 107,13.6 C107,13.6 107,13.5 107,13.3 C107,13.2 107,13.1 107.1,13.1 L110.1,13.1 L110.1,9.8 L107.1,9.8 C107,9.8 106.9,9.7 106.9,9.5 C106.9,9.3 106.9,9.2 107.1,9.2 L112,9.2 L112.5,8.4 C112.6,8.2 112.7,8.1 112.7,8.1 C112.7,8.1 112.8,8.2 113,8.3 L113.9,9.3 C114,9.4 114,9.5 114,9.6 C114,9.7 113.9,9.7 113.8,9.7 L112.9,9.7 L111.8,9.7 L111.8,10.1 Z" id="形状_14_"></path>
                    <path d="M129.1,2.5 L129.7,1.5 C129.7,1.4 129.8,1.4 129.8,1.4 C129.8,1.4 129.9,1.4 129.9,1.5 L131,2.9 C131,3 131.1,3 131.1,3 C131.1,3 131.1,3.1 131,3.1 L125.4,3.1 L125.7,3.3 L125.7,3.3 C125.7,3.3 125.7,3.3 125.7,3.4 L125.7,3.4 C125.7,3.5 125.6,3.5 125.6,3.5 L125.3,3.7 L124,6.7 L128.5,6.7 L128.8,6 C128.8,5.9 128.9,5.9 129,6 L130.1,7.1 C130.2,7.2 130.2,7.2 130.2,7.2 C130.2,7.2 130.2,7.2 130.2,7.3 C130.2,7.3 130.2,7.4 130.1,7.4 L129.7,7.8 L129.7,17.1 L129.7,18.3 C129.7,18.4 129.6,18.5 129.6,18.5 C129.6,18.5 129.4,18.6 129.2,18.7 C129,18.8 128.8,18.8 128.7,18.8 C128.6,18.8 128.5,18.8 128.5,18.7 C128.5,18.6 128.5,18.6 128.5,18.5 L128.5,17.3 L121.1,17.3 L121.1,18.3 C121.1,18.4 121.1,18.5 121,18.6 C121,18.7 120.8,18.8 120.6,18.8 C120.4,18.9 120.2,18.9 120.1,18.9 C120,18.9 119.9,18.9 119.9,18.8 L119.9,18.7 L120,16.8 L120,7.6 L120,5.9 L120,5.9 C120,5.9 120.1,5.9 120.2,6 L121.2,6.8 L123.4,6.8 C123.6,5.7 123.7,5 123.8,4.8 L124.1,3.1 L119.1,3.1 L119.1,3.1 C119,3.1 119,3.1 119,3 C119,2.9 119,2.9 118.9,2.7 C118.9,2.6 119,2.5 119.1,2.5 L129.1,2.5 L129.1,2.5 Z M122.9,16.7 L122.9,7.2 L121.2,7.2 L121.2,16.7 L122.9,16.7 Z M125.6,10 L125.6,7.3 L124.2,7.3 C124.1,7.4 124.1,7.5 124,7.5 L124,10 L125.6,10 Z M125.6,13.2 L125.6,10.5 L123.9,10.5 L123.9,13.2 L125.6,13.2 Z M125.6,16.7 L125.6,13.7 L123.9,13.7 L123.9,16.7 L125.6,16.7 Z M128.6,16.7 L128.6,7.2 L126.9,7.2 C126.8,7.3 126.7,7.4 126.6,7.4 L126.6,16.6 L128.6,16.6 L128.6,16.7 Z" id="形状_15_"></path>
                    <path d="M136.6,3.1 L137.3,3.5 C137.4,3.6 137.5,3.6 137.5,3.7 C137.5,3.8 137.4,3.8 137.3,3.9 L137,4 L134.5,7 L138.4,7 C138.2,6.5 138,6 137.7,5.6 L137.4,5.2 L137.4,5.1 L137.4,5 C137.4,5 137.4,4.9 137.5,4.9 C137.5,4.9 137.8,5.1 138.4,5.4 C138.9,5.7 139.3,6.1 139.6,6.4 C139.8,6.8 140,7 140.1,7.3 C140.2,7.5 140.2,7.8 140.2,8 C140.2,8.3 140.1,8.7 140,8.9 C139.9,9.1 139.7,9.3 139.4,9.3 C139.2,9.3 139.1,9.2 139,9 C138.9,8.8 138.8,8.5 138.8,8.1 L138.7,7.4 L136.3,8 L137.5,8.4 C137.6,8.4 137.6,8.5 137.6,8.6 C137.6,8.7 137.6,8.7 137.5,8.8 L137.2,9.1 L137.2,11.4 L138.2,11.4 L138.8,10.3 C138.8,10.2 138.9,10.2 138.9,10.2 C138.9,10.2 139,10.2 139,10.3 L140,11.5 C140.1,11.6 140.1,11.7 140.1,11.8 C140.1,11.9 140,12 139.9,12 L137,12 L137,15.3 C137.8,15.2 138.5,15 139.2,14.9 L140.2,14.7 C140.3,14.7 140.3,14.7 140.3,14.8 L140.3,14.9 L140.3,15 L140.2,15.1 L139,15.6 C138.6,15.8 137.9,16.1 136.8,16.5 C135.7,16.9 135,17.2 134.8,17.3 L133.9,17.7 L133.5,17.9 C133.4,18 133.4,17.9 133.3,17.8 L132.9,16.4 L132.7,16 L132.7,16 C132.7,16 132.8,16 132.9,16 L133.7,15.9 C133.7,15.9 134.1,15.9 134.7,15.8 L135.6,15.7 L135.6,12.2 L132.9,12.2 C132.8,12.2 132.7,12.1 132.7,11.9 C132.7,11.7 132.8,11.6 132.9,11.6 L135.6,11.6 L135.6,9 L135.6,8.3 C135.3,8.4 135.1,8.4 134.9,8.5 L134.3,8.7 L133.8,8.9 C133.7,8.9 133.6,9 133.6,9 L133.5,9.1 C133.5,9.1 133.5,9 133.4,8.8 L132.9,7.6 L132.8,7.4 C132.8,7.4 132.8,7.4 132.8,7.3 C132.8,7.3 132.8,7.2 132.9,7.2 L133.3,7 C133.4,6.9 133.6,6.8 133.8,6.5 C134,6.2 134.3,5.9 134.5,5.4 C134.7,4.9 135.1,4.2 135.4,3.3 L132.7,3.3 C132.6,3.3 132.6,3.2 132.6,3 C132.6,2.8 132.6,2.7 132.7,2.7 L138.1,2.7 L138.7,1.7 C138.8,1.6 138.8,1.6 138.9,1.5 C138.9,1.5 139,1.5 139.1,1.7 L140,2.7 C140.2,2.9 140.2,3 140.2,3.1 C140.2,3.2 140,3.3 139.7,3.3 L136.6,3.3 L136.6,3.1 L136.6,3.1 Z M142,4.7 L142,12.5 L142,14.3 C142,14.4 141.9,14.5 141.9,14.6 C141.9,14.7 141.8,14.8 141.6,14.8 C141.5,14.9 141.3,14.9 141.2,14.9 C141.1,14.9 141,14.9 140.9,14.8 C140.8,14.7 140.8,14.7 140.8,14.6 L140.9,11.7 L140.9,5.5 L140.8,3.3 C140.8,3.3 140.8,3.3 140.9,3.3 C140.9,3.3 141,3.3 141.2,3.4 L142.3,3.8 C142.4,3.8 142.4,3.9 142.4,4 L142.4,4.1 C142.4,4.1 142.4,4.2 142.3,4.3 L142,4.7 Z M144.6,2.5 L144.6,17.2 C144.6,17.4 144.5,17.6 144.4,17.9 C144.3,18.1 144.1,18.3 143.8,18.5 C143.5,18.7 143.2,18.8 143,18.8 C142.9,18.8 142.9,18.8 142.9,18.8 C142.9,18.8 142.9,18.8 142.9,18.7 C142.9,18.6 142.9,18.5 142.8,18.1 C142.8,17.7 142.5,17.4 142,17.2 L141.5,17 C141.4,17 141.4,16.9 141.4,16.9 L141.4,16.8 C141.4,16.7 141.5,16.7 141.5,16.7 L142.1,16.8 C142.5,16.8 142.7,16.9 142.9,16.8 C143.1,16.8 143.2,16.8 143.2,16.7 C143.2,16.6 143.3,16.5 143.3,16.4 L143.3,4.4 L143.2,1.3 L143.3,1.3 L143.3,1.3 C143.3,1.3 143.4,1.3 143.6,1.4 L144.8,1.8 C144.9,1.8 144.9,1.9 144.9,1.9 L144.9,2 C144.9,2 144.8,2.1 144.7,2.2 L144.6,2.5 Z" id="形状_16_"></path>
                    <path d="M158.8,4.7 L149.7,4.7 C149.7,4.8 149.7,5 149.7,5.2 C149.7,5.4 149.7,6 149.7,6.9 C149.7,7.8 149.7,8.6 149.7,9.4 C149.7,10.2 149.6,11.1 149.5,11.9 C149.4,12.8 149.2,13.7 149,14.7 C148.8,15.7 148.3,16.7 147.7,17.8 L147.3,18.4 C147.2,18.6 147.1,18.7 147,18.7 L147,18.7 C147,18.7 147,18.7 147,18.6 C147,18.5 147,18.5 147,18.5 L147.2,18.1 L147.5,17.4 C147.8,16.7 148,15.9 148.1,15.1 C148.3,14.3 148.4,13.4 148.4,12.6 C148.4,11.8 148.5,11.1 148.5,10.6 C148.5,10.1 148.5,9.6 148.5,9.2 L148.5,7.6 C148.5,6.7 148.5,6 148.5,5.7 L148.4,3.5 C148.4,3.5 148.4,3.5 148.4,3.4 C148.4,3.4 148.4,3.3 148.5,3.3 C148.6,3.3 148.6,3.3 148.7,3.4 L149.9,4.2 L157.3,4.2 L157.8,3.4 C157.9,3.2 158,3 158.1,3 C158.1,3 158.2,3.1 158.4,3.2 L159.2,4.1 C159.4,4.3 159.5,4.4 159.5,4.5 C159.5,4.6 159.5,4.6 159.4,4.6 L158.8,4.7 L158.8,4.7 Z M154.4,8.5 L156.7,8.5 L157.2,7.7 C157.3,7.5 157.4,7.3 157.5,7.3 C157.6,7.3 157.6,7.4 157.8,7.5 L158.5,8.3 C158.7,8.5 158.8,8.7 158.8,8.8 C158.8,8.9 158.8,8.9 158.7,8.9 L157.7,8.9 L154.5,8.9 L154.5,12.4 L156.6,12.4 L156.9,11.9 C157,11.7 157.1,11.6 157.1,11.6 C157.1,11.6 157.2,11.7 157.4,11.8 L158,12.4 C158.1,12.5 158.2,12.6 158.2,12.7 C158.2,12.7 158.2,12.7 158.2,12.8 C158.2,12.8 158.2,12.8 158.2,12.9 C158.2,13 158.2,13 158,13.2 L157.7,13.6 L157.7,16.5 L157.8,18.4 C157.8,18.5 157.7,18.6 157.6,18.8 C157.5,19 157.3,19 157,19 C156.8,19 156.7,19 156.6,18.9 C156.5,18.8 156.5,18.7 156.5,18.5 L156.5,17.6 L151.5,17.6 L151.5,18.5 C151.5,18.7 151.4,18.8 151.3,18.9 C151.2,19 151,19.1 150.8,19.1 C150.6,19.1 150.5,19.1 150.5,19 C150.4,18.9 150.4,18.9 150.4,18.7 L150.5,16.7 L150.5,13.6 L150.4,11.7 C150.4,11.7 150.4,11.6 150.5,11.6 C150.5,11.6 150.6,11.6 150.7,11.7 L151.8,12.5 L153.2,12.5 L153.2,6.7 L153.1,5 C153.1,4.9 153.2,4.9 153.2,4.9 L153.4,5 L154.5,5.3 C154.7,5.4 154.8,5.5 154.9,5.5 C154.9,5.6 154.8,5.7 154.7,5.9 L154.4,6.2 L154.4,8.5 L154.4,8.5 Z M156.5,17.1 L156.5,13.1 L151.5,13.1 L151.5,17.1 L156.5,17.1 Z M152.4,0.9 C152.4,0.8 152.5,0.8 152.6,0.8 C152.6,0.8 152.8,0.9 153.2,1 C153.6,1.1 153.9,1.3 154.1,1.7 C154.3,2 154.5,2.3 154.5,2.6 C154.5,2.9 154.5,3.2 154.4,3.6 C154.3,4 154.1,4.2 153.7,4.2 C153.5,4.2 153.4,4.1 153.3,4 C153.2,3.9 153.1,3.7 153.1,3.6 C153.1,3.5 153,3.2 153,2.9 C153,2.5 152.9,2.3 152.9,2.1 C152.9,1.9 152.8,1.7 152.7,1.6 L152.5,1.2 C152.4,1 152.4,1 152.4,0.9 Z" id="形状_17_"></path>
                    <path d="M162.6,14.4 C162.8,14.4 163,14.5 163.2,14.6 C163.4,14.8 163.6,15 163.7,15.3 C163.8,15.6 163.9,15.9 163.9,16.2 C163.9,16.5 163.8,16.8 163.7,17.1 C163.6,17.4 163.4,17.6 163.2,17.8 C163,18 162.8,18 162.6,18 C162.4,18 162.2,17.9 162,17.8 C161.8,17.7 161.6,17.4 161.5,17.1 C161.4,16.8 161.3,16.5 161.3,16.2 C161.3,15.9 161.4,15.6 161.5,15.3 C161.6,15 161.8,14.8 162,14.6 C162.2,14.5 162.4,14.4 162.6,14.4 Z M162.6,15.1 C162.5,15.1 162.3,15.1 162.2,15.2 C162.1,15.3 162,15.4 161.9,15.6 C161.8,15.8 161.8,16 161.8,16.2 C161.8,16.4 161.8,16.6 161.9,16.8 C162,17 162.1,17.1 162.2,17.2 C162.3,17.3 162.5,17.3 162.6,17.3 C162.7,17.3 162.9,17.3 163,17.2 C163.1,17.1 163.2,17 163.3,16.8 C163.4,16.6 163.4,16.4 163.4,16.2 C163.4,16 163.4,15.8 163.3,15.6 C163.2,15.4 163.1,15.3 163,15.2 C162.9,15.1 162.7,15.1 162.6,15.1 Z" id="形状_18_"></path>
                </g>
                <line x1="0.4" y1="25.9" x2="157.9" y2="25.9" id="路径_4_" stroke="#FFFFFF" stroke-width="0.75"></line>
            </g>
            <g id="页面-1">
                <g id="起动即非凡pc">
                    <rect id="Rectangle-Copy-13_1_" x="104" y="78.3" width="30.3" height="1"></rect>
                    <g id="分组" transform="translate(32.000000, 27.000000)">
                        <path d="M11.2,8.5 L8.7,8.5 L8.7,14.7 L10.3,14.7 L11.4,12.8 C11.5,12.6 11.6,12.4 11.7,12.4 C11.8,12.4 11.9,12.5 12,12.6 L13.7,15.2 C13.8,15.3 13.8,15.4 13.8,15.4 L13.8,15.5 C13.8,15.6 13.8,15.6 13.8,15.7 C13.8,15.8 13.6,15.8 13.4,15.8 L9.7,15.8 C9.6,16.1 9.5,16.3 9.5,16.3 C9.5,16.3 9.3,16.5 9.1,16.5 L9.1,21.8 L10.7,21.8 L11.4,20.3 C11.6,20 11.7,19.8 11.7,19.8 C11.7,19.8 11.9,19.9 12,20.2 L13.4,22.3 C13.5,22.4 13.5,22.5 13.6,22.6 C13.6,22.6 13.6,22.7 13.6,22.8 C13.6,22.9 13.5,22.9 13.3,22.9 L9,22.9 L9,32.5 C9.7,32.7 10.5,32.9 11.3,33.1 C12.1,33.3 13.9,33.4 16.5,33.4 C20.9,33.4 23.8,33.1 25.4,32.4 L26.7,31.9 C26.8,31.9 26.8,31.9 26.9,32 C27,32.1 27,32.1 27,32.2 C27,32.3 26.9,32.4 26.9,32.4 L26,33.4 C25.8,33.6 25.6,33.9 25.4,34.2 C25.2,34.6 25.1,34.9 25,35.3 L24.7,36.3 L24.6,37.1 C24.6,37.1 24.5,37.1 24.3,37.1 L23.5,37.1 C22.4,37.1 20.4,37.1 17.5,37 C14.6,36.9 12.3,36.7 10.6,36.4 C8.9,36.1 7.6,35.4 6.5,34.3 C5.4,33.2 4.7,31.8 4.2,30.1 L3.4,27.5 C2.7,29.9 2.2,31.7 1.9,32.6 C1.6,33.6 1.3,34.4 1,35 L0.6,36 C0.5,36.2 0.5,36.2 0.4,36.3 C0.3,36.3 0.3,36.2 0.3,36.1 C0.3,35.9 0.3,35.8 0.3,35.7 L0.6,34.4 C0.7,34 0.9,33 1.1,31.7 C1.3,30.4 1.5,29.2 1.6,28.3 C1.7,27.4 1.8,26.2 2,24.7 C2.2,23.2 2.2,22.2 2.2,21.7 L2.3,19.4 C2.3,19.1 2.3,18.9 2.3,18.8 C2.3,18.7 2.3,18.7 2.4,18.7 L2.6,18.8 L5.1,20.1 C5.2,20.1 5.2,20.2 5.3,20.3 C5.3,20.4 5.4,20.4 5.4,20.5 C5.4,20.6 5.3,20.7 5.1,20.9 L4.9,21.1 C4.6,22.8 4.2,24.4 3.9,26.1 C4.6,28 5.1,29.1 5.4,29.5 L6.4,30.9 L6.4,15.8 L0.6,15.8 C0.5,15.8 0.4,15.7 0.3,15.5 C0.2,14.9 0.4,14.7 0.6,14.7 L6.4,14.7 L6.4,8.5 L1.4,8.5 C1.2,8.5 1,8.3 1,7.9 C1,7.5 1.1,7.3 1.4,7.3 L6.4,7.3 L6.4,3.2 L6.3,0.2 C6.3,0.1 6.3,0.1 6.4,0.1 L6.6,0.2 L9.3,1.3 C9.5,1.4 9.6,1.5 9.7,1.6 C9.8,1.7 9.6,1.9 9.5,2 L8.9,2.8 L8.9,7.3 L10.2,7.3 L11.3,5.4 C11.4,5.3 11.4,5.2 11.5,5.2 C11.6,5.2 11.6,5.3 11.8,5.4 L13.7,8 C13.8,8.1 13.8,8.2 13.8,8.2 C13.8,8.3 13.7,8.4 13.5,8.4 L11.2,8.5 Z M16.9,16.2 L16.9,25.5 C16.9,25.9 17,26.2 17.2,26.6 C17.4,27 18.3,27 19.8,27 C21.8,27 23,26.8 23.4,26.3 C23.8,25.8 24.2,25.2 24.5,24.3 L25,22.3 L25.5,20.4 C25.5,20.2 25.6,20.1 25.7,20.1 C25.8,20.1 25.8,20.2 25.8,20.4 L25.6,22.7 C25.5,23.5 25.5,24.2 25.5,24.7 C25.5,25.2 25.6,25.6 25.7,25.9 L26.1,26.6 C26.3,26.9 26.3,27.2 26.3,27.5 C26.3,27.8 26.2,28.2 25.9,28.6 C25.5,29.2 24.8,29.6 23.9,29.9 C23,30.1 21.4,30.2 19.3,30.3 C16.8,30.4 15.4,29.9 15.1,29 C14.8,28.1 14.6,27.3 14.6,26.7 L14.6,16.4 L14.6,13.1 L14.7,13 C14.7,13 14.9,13.1 15.2,13.4 L16.9,15.1 L21.8,15.1 L21.8,6.3 L14.5,6.3 C14,6.3 13.9,6.1 14.1,5.8 L14.3,5.3 L14.5,5.2 L21.5,5.2 L22.2,4 C22.3,3.9 22.3,3.8 22.4,3.8 C22.4,3.8 22.5,3.9 22.7,4 L24.7,6 C24.8,6.1 24.8,6.2 24.9,6.2 C25,6.2 24.9,6.3 24.9,6.3 C24.9,6.3 24.9,6.4 24.8,6.5 L24.3,7.1 L24.3,14 L24.4,16.9 C24.3,17.1 24.2,17.4 24,17.7 C23.8,18 23.4,18.1 22.9,18.1 C22.4,18.1 22,18 22,17.9 C21.9,17.8 21.9,17.6 21.9,17.3 L21.9,16.3 L16.9,16.3 L16.9,16.2 Z" id="形状" fill-rule="nonzero"></path>
                        <path d="M35.5,16 L30,16 C29.8,16 29.7,15.8 29.7,15.5 C29.7,15.2 29.8,15 30,15 L40.7,15 L41.9,12.9 C42.1,12.6 42.2,12.4 42.3,12.4 C42.4,12.4 42.5,12.5 42.8,12.8 L44.5,15 C44.6,15.2 44.7,15.3 44.8,15.5 C44.9,15.6 44.9,15.7 44.9,15.8 C44.9,15.9 44.9,16 44.8,16 C44.7,16 44.6,16.1 44.5,16.1 L37,16.1 L38.7,17 C39,17.2 39.2,17.4 39.2,17.6 C39.2,17.8 39.1,17.9 38.8,18 L38.2,18.3 C37.4,20.1 36.7,21.7 36.1,23 C35.5,24.3 34.7,25.9 33.6,27.7 C35.9,27.5 38.3,27.2 40.8,26.9 C40.7,26.4 40.6,26.1 40.6,25.8 C40.6,25.5 40.4,25.1 40.1,24.4 C39.8,23.8 39.6,23.2 39.3,22.8 L38.6,21.6 C38.6,21.5 38.5,21.5 38.5,21.4 C38.5,21.3 38.5,21.2 38.4,21.2 C38.3,21.2 38.5,21.1 38.6,21.1 C38.8,21.1 39.3,21.3 40,21.8 C40.7,22.3 41.4,22.9 42,23.5 C42.6,24.2 43,24.8 43.4,25.3 C43.8,25.8 43.9,26.4 44,27 C44.1,27.6 44.1,28.1 44.2,28.6 C44.3,29.1 44.1,29.6 43.9,30 C43.6,30.8 43.1,31.2 42.5,31.2 C42.1,31.2 41.7,31 41.5,30.6 C41.3,30.2 41.1,29.7 41.1,29.2 L40.9,28 C37.9,29.4 35.6,30.5 34,31.4 L32.9,32 L32.3,32.4 C32.2,32.4 32.2,32.4 32.1,32.4 C32,32.4 32,32.1 31.8,31.7 L30.9,29.3 C30.8,29.1 30.8,28.9 30.7,28.9 C30.7,28.8 30.6,28.8 30.6,28.7 C30.6,28.7 30.7,28.6 30.9,28.4 L31.4,28 C31.6,27.9 32,27.4 32.5,26.6 C33,25.8 33.6,24.2 34.2,22 C34.8,19.8 35.2,17.5 35.5,16 Z M39.8,6.4 L40.8,4.5 C40.9,4.3 41,4.1 41.1,4.1 C41.2,4.1 41.4,4.2 41.6,4.5 L43.3,6.4 C43.4,6.6 43.5,6.7 43.6,6.8 C43.7,6.9 43.7,7 43.7,7.1 C43.7,7.2 43.7,7.3 43.6,7.3 C43.5,7.3 43.4,7.4 43.2,7.4 L41.2,7.4 L31.3,7.4 C31.1,7.4 30.9,7.2 30.9,6.8 C30.9,6.4 31,6.2 31.3,6.2 L39.8,6.2 L39.8,6.4 L39.8,6.4 Z M42.3,10.8 L42.5,10.8 L46.6,10.5 C46.6,9.3 46.6,8.2 46.6,7.2 C46.6,6.2 46.6,5.3 46.6,4.5 L46.5,2.3 L46.4,0.5 C46.5,0.4 46.5,0.4 46.6,0.4 C46.7,0.4 46.9,0.4 47.2,0.5 L49.9,1.2 C50,1.2 50.1,1.3 50.2,1.4 C50.3,1.5 50.4,1.5 50.4,1.6 C50.4,1.7 50.4,1.7 50.4,1.7 L50.4,1.8 L50.1,2.2 L49.3,3.3 C49.3,5.3 49.3,6.5 49.3,6.9 L49.3,10.4 L52.6,10.2 L53.3,8.8 C53.4,8.5 53.6,8.4 53.7,8.4 C53.8,8.4 54,8.5 54.2,8.7 L56.3,10.8 C56.3,10.8 56.4,10.9 56.5,11 C56.6,11.1 56.7,11.2 56.7,11.2 L56.7,11.3 C56.7,11.3 56.7,11.4 56.7,11.5 C56.7,11.6 56.6,11.7 56.5,11.8 L55.5,12.8 C55.5,14.7 55.4,16.3 55.4,17.5 C55.4,18.7 55.3,20.7 55.2,23.5 C55.1,26.3 55,28.4 54.9,29.9 C54.8,31.4 54.5,32.7 54.2,33.7 C53.9,34.7 53.5,35.4 53.1,35.9 C52.7,36.4 52.3,36.7 51.8,37 C51.3,37.3 51.1,37.4 51,37.4 C50.9,37.4 50.9,37.4 50.8,37.3 C50.7,37.2 50.7,37.2 50.7,37 L50.4,35.9 C50.1,35 49.6,34.4 48.9,34 L47.8,33.5 C47.7,33.5 47.6,33.4 47.6,33.3 C47.5,33.2 47.5,33.1 47.5,33.1 C47.5,32.9 47.6,32.8 47.9,32.8 L49.2,32.9 C50.1,33 50.8,32.8 51.1,32.5 C51.4,32.2 51.7,31.6 52,30.7 C52.3,29.8 52.4,28.2 52.5,25.8 L52.7,20.1 C52.7,19.2 52.8,17.8 52.8,15.9 C52.8,14 52.8,13 52.8,12.9 L52.8,11.3 L49.2,11.5 C49.2,11.7 49.2,11.9 49.2,12 L49.1,14.2 C49,19.1 48.6,22.7 48,25 C47.4,27.3 46.8,29.1 46,30.3 C45.2,31.5 44.4,32.8 43.4,33.8 C42.4,34.8 41.4,35.8 40.4,36.6 L39.5,37.3 C39.4,37.4 39.2,37.5 39.2,37.5 C39.1,37.5 39.1,37.5 39,37.4 C38.9,37.3 39,37.3 39,37.2 C39,37.1 39.1,37 39.2,36.8 L40.2,35.7 C42.4,33.1 43.9,30.9 44.5,29.1 C45.1,27.3 45.6,25.6 45.9,23.9 C46.2,22.2 46.4,20.6 46.5,18.9 C46.6,17.2 46.7,15.7 46.7,14.1 L46.7,12.8 L46.7,11.6 L42.4,11.9 C42.2,11.9 42.1,11.8 42.1,11.4 C41.9,11.1 42,10.9 42.3,10.8 Z" id="形状" fill-rule="nonzero"></path>
                        <path d="M63.6,36.7 L64.1,36 C64.2,35.9 64.3,35.7 64.6,35.2 C64.9,34.7 65,34.4 65.1,34.2 C65.2,34 65.3,33.6 65.5,33 C65.7,32.4 65.7,32 65.6,31.7 C65.5,31.4 65.4,31.3 65.3,31.2 C65.3,31.2 65.1,31.2 64.9,31.3 C64.7,31.4 64.5,31.4 64.4,31.4 C63.9,31.4 63.5,31.1 63.2,30.7 C62.9,30.3 62.7,29.6 62.7,28.9 C62.7,28.2 62.9,27.5 63.3,27 C63.7,26.5 64.2,26.2 64.7,26.2 C65.4,26.2 66,26.6 66.4,27.3 C66.8,28 67,28.7 67.1,29.5 C67.2,30.3 67.1,31 67.1,31.7 C66.9,32.7 66.7,33.6 66.3,34.4 C65.9,35.2 65.6,35.8 65.3,36.1 C65,36.5 64.7,36.8 64.4,37.1 C64.1,37.4 63.8,37.6 63.7,37.5 C63.6,37.4 63.4,37.3 63.4,37.2 C63.4,37.1 63.5,36.9 63.6,36.7 Z" id="路径"></path>
                        <path d="M93.5,3 L97.9,3 L98.7,1.7 C98.8,1.5 99,1.3 99,1.3 C99.1,1.3 99.3,1.4 99.5,1.7 L101.4,3.5 C101.6,3.7 101.7,3.8 101.7,3.9 C101.7,4 101.8,4.1 101.8,4.2 C101.8,4.3 101.7,4.4 101.5,4.6 L100.8,5.3 L100.8,13.7 L100.9,17.9 C100.8,18.2 100.7,18.5 100.6,18.6 C100.5,18.7 100.2,18.9 99.9,19.1 C99.5,19.3 99.2,19.3 98.8,19.3 C98.6,19.3 98.4,19.2 98.3,19.1 C98.2,19 98.2,18.7 98.2,18.4 L98.2,17.2 L93.2,17.2 L93.2,28.1 L98.2,26.2 C97.8,25.1 97.6,24.5 97.5,24.2 C97.4,23.9 97.1,23.5 96.9,23 L96.3,22 C96.2,21.9 96.2,21.8 96.2,21.7 C96.2,21.6 96.3,21.5 96.4,21.5 C96.7,21.5 97.1,21.7 97.6,22.1 C98.1,22.5 98.7,23 99.3,23.7 C99.9,24.3 100.4,25 100.9,25.8 C101.4,26.6 101.6,27.6 101.6,28.8 C101.6,29.4 101.5,29.9 101.4,30.2 C101.3,30.6 101.1,30.9 100.8,31.2 C100.6,31.5 100.2,31.6 99.9,31.6 C99.7,31.6 99.5,31.5 99.2,31.3 C98.9,31.1 98.8,30.8 98.7,30.4 C98.6,30 98.5,29.4 98.5,28.5 L98.4,27.2 C96.1,29 94.7,30.2 94.1,30.8 L92.3,32.5 L91.3,33.6 C91.2,33.7 91.1,33.7 91,33.6 C90.9,33.5 90.8,33.2 90.7,32.7 L90,30.6 C89.8,30.1 89.7,29.8 89.7,29.7 C89.7,29.6 89.7,29.6 89.8,29.5 L90.2,29.2 C90.3,29.1 90.4,28.9 90.4,28.6 C90.4,28.3 90.5,27.9 90.5,27.5 L90.5,7.5 L90.4,1 C90.5,0.9 90.5,0.9 90.6,0.9 C90.7,0.9 90.8,1 90.9,1.1 L93.5,3 Z M93.2,4.1 L93.2,9.5 L98.2,9.5 L98.2,4.1 L93.2,4.1 Z M93.2,10.6 L93.2,16.2 L98.2,16.2 L98.2,10.6 L93.2,10.6 Z M106.1,4.8 L106.1,31.4 L106.2,35.9 C106.2,36.2 106.1,36.4 106,36.6 C105.9,36.8 105.7,36.9 105.3,37.1 C104.9,37.3 104.6,37.4 104.3,37.3 C104,37.3 103.8,37.2 103.7,37.1 C103.6,36.9 103.6,36.8 103.5,36.5 L103.6,30.3 L103.6,8 L103.5,1.8 C103.6,1.7 103.6,1.6 103.6,1.6 C103.6,1.6 103.8,1.7 104.2,2 L106.4,3.6 L110.1,3.6 L110.9,2.3 C111.2,1.8 111.4,1.5 111.4,1.5 C111.4,1.5 111.5,1.5 111.7,1.7 L113.7,3.8 C113.8,3.9 113.8,4 113.8,4.1 C113.8,4.2 113.7,4.4 113.5,4.6 L112.8,5.5 L112.8,26.6 C112.8,27.1 112.7,27.5 112.6,27.9 C112.5,28.3 112.2,28.7 111.6,29 C111,29.3 110.6,29.5 110.3,29.7 C110,29.9 109.7,29.9 109.6,29.9 C109.5,29.9 109.5,29.9 109.4,29.8 L109.3,29.7 C109.3,29.7 109.2,29.5 109.2,29.2 C109.2,28.9 109.1,28.6 109,28.3 C108.9,28 108.8,27.7 108.6,27.4 C108.4,27.1 108.2,26.9 107.9,26.8 L106.8,26.3 C106.7,26.3 106.7,26.2 106.6,26.1 C106.6,26 106.5,25.9 106.5,25.7 C106.5,25.5 106.6,25.5 106.8,25.5 L108.5,25.6 C109.2,25.7 109.6,25.6 109.7,25.4 C109.8,25.2 109.9,25 109.9,24.9 C109.9,24.7 109.9,24.4 109.9,24 L109.9,4.8 L106.1,4.8 Z" id="形状" fill-rule="nonzero"></path>
                        <path d="M126.3,25.7 L126.3,18.3 L119.5,18.3 C119.3,18.3 119.1,18.1 119.1,17.7 C119.1,17.3 119.2,17.1 119.5,17.1 L126.3,17.1 L126.3,9.5 L118.7,9.5 C118.5,9.5 118.3,9.3 118.3,8.9 C118.3,8.5 118.4,8.3 118.7,8.3 L126.3,8.3 L126.3,4.6 L126.2,0.7 L126.3,0.6 C126.3,0.6 126.4,0.6 126.5,0.7 L129.2,1.8 C129.3,1.8 129.3,1.9 129.4,1.9 C129.5,1.9 129.5,2 129.5,2.1 C129.5,2.2 129.5,2.2 129.4,2.3 L128.7,3.2 L128.7,32.5 L128.8,35.6 C128.8,35.7 128.7,36 128.6,36.2 C128.5,36.5 128.1,36.6 127.5,36.7 C126.9,36.8 126.5,36.7 126.4,36.5 C126.3,36.3 126.3,36.2 126.3,36 L126.4,32.2 L126.4,26.5 L118.9,26.5 C118.7,26.5 118.5,26.3 118.5,25.9 C118.5,25.5 118.6,25.3 118.9,25.3 L126.3,25.3 L126.3,25.7 Z M139.8,9 L140.8,7 C140.9,6.8 141,6.7 141.1,6.7 C141.2,6.7 141.3,6.8 141.4,6.9 L143.6,9.6 L143.7,9.8 L143.7,9.9 C143.7,10.1 143.6,10.1 143.4,10.1 L134.9,10.1 L134.9,17.7 L139.1,17.7 L140.2,15.9 C140.4,15.6 140.5,15.5 140.5,15.5 C140.5,15.5 140.7,15.6 140.8,15.8 L141.9,17.1 L142.8,18.3 C142.9,18.4 142.9,18.6 143,18.7 C143,18.8 142.9,18.9 142.7,18.9 L141.7,18.9 L138.2,18.9 L135.2,18.9 L135.2,26.4 L140.4,26.4 L141.2,24.8 C141.4,24.3 141.6,24.1 141.7,24.1 C141.8,24.1 141.9,24.2 142.1,24.5 L144.1,27.1 C144.2,27.2 144.2,27.3 144.2,27.4 C144.2,27.5 144.1,27.6 144,27.6 L142.5,27.6 L135.2,27.6 L135.2,33 L135.3,36.4 C135.3,36.5 135.2,36.7 135.1,37 C135,37.3 134.6,37.4 133.9,37.5 C133.2,37.5 132.8,37.5 132.7,37.4 C132.6,37.3 132.6,37.2 132.6,36.9 L132.7,32.5 L132.7,4.5 L132.6,1 C132.6,0.9 132.7,0.9 132.7,0.9 L133,1 L135.5,1.8 C135.8,1.9 135.9,2 135.9,2.1 C135.9,2.2 135.9,2.2 135.9,2.2 C135.9,2.2 135.9,2.3 135.8,2.3 L135.1,3 L135.1,9 L139.8,9 Z" id="形状" fill-rule="nonzero"></path>
                        <path d="M162.6,3.3 L163.3,1.9 C163.5,1.6 163.5,1.5 163.6,1.4 C163.6,1.4 163.8,1.5 164.1,1.7 L166.4,3.8 C166.5,3.9 166.6,4 166.7,4.1 C166.8,4.2 166.8,4.3 166.8,4.4 C166.8,4.5 166.7,4.6 166.5,4.8 L165.7,5.6 L165.7,30.4 C165.7,30.8 165.7,31 165.8,31.2 C165.9,31.4 166,31.5 166.1,31.6 C166.3,31.7 166.9,31.8 168.1,31.8 C169.6,31.9 170.5,31.7 170.9,31.2 C171.3,30.7 171.6,30.2 171.7,29.7 C171.8,29.2 172.1,28.4 172.4,27.3 L173.1,24.8 C173.2,24.5 173.3,24.4 173.4,24.4 C173.5,24.4 173.5,24.5 173.5,24.6 C173.5,24.7 173.5,24.8 173.5,24.8 C173.5,24.9 173.5,24.9 173.5,25 L173.2,27.7 C173.1,28.3 173.1,28.9 173.1,29.4 C173.1,29.9 173.2,30.4 173.3,30.8 L173.7,31.8 C173.8,32 173.8,32.2 173.8,32.3 C173.8,32.4 173.8,32.5 173.8,32.6 C173.8,32.8 173.8,32.9 173.7,33.1 C173.6,33.3 173.4,33.7 173,34.5 C172.6,35.3 170.9,35.6 167.9,35.6 C165.5,35.6 164.1,35.3 163.6,34.6 C163.1,34 162.9,33.1 162.9,31.9 L162.9,4.4 L156.1,4.4 C156.1,5.4 156.1,6.2 156.1,7 C156.1,7.8 156.1,9.2 156.1,11.3 C156.1,13.4 156.1,14.7 156.1,15.2 C156.1,17.3 156,19.1 156,20.7 C156,22.3 155.6,24.5 155,27.1 C154.4,29.7 152.6,32.4 149.6,35 L148.5,36 C148.4,36.1 148.3,36.1 148.2,36.1 C148.1,36.1 148.1,36.1 148,36 C148,36 148,35.9 148,35.8 C148,35.7 148,35.6 148.1,35.4 L149.2,34 C150.5,32.4 151.4,30.8 152,29.1 C152.6,27.4 153,25.6 153.2,23.8 C153.4,22 153.5,19.5 153.5,16.2 C153.5,15.3 153.5,13.7 153.4,11.5 C153.4,9.3 153.3,7.6 153.3,6.4 L153.2,3.2 L153.1,1.3 C153.1,1.2 153.2,1.2 153.2,1.2 C153.2,1.2 153.5,1.3 153.9,1.6 L156.2,3 L162.6,3 L162.6,3.3 L162.6,3.3 Z M157.6,13.9 L157.1,12.7 C157.1,12.6 157,12.5 157,12.4 C157,12.3 157.1,12.2 157.2,12.2 C157.3,12.2 157.6,12.4 157.9,12.8 L158.8,13.7 C159.2,14.1 159.6,14.7 160,15.3 C160.4,15.9 160.7,16.5 160.9,17 C161.1,17.5 161.2,18.1 161.2,18.8 C161.2,19.5 161,20.1 160.7,20.7 C160.4,21.3 160,21.6 159.5,21.5 C159,21.5 158.7,21.3 158.4,20.8 C158.1,20.3 158,19.7 158,18.8 L158,17.8 C158,17.5 158,17.2 158,16.7 C158,16.1 157.9,15.6 157.8,15.2 C157.9,14.8 157.8,14.3 157.6,13.9 Z" id="形状" fill-rule="nonzero"></path>
                    </g>
                    <g id="编组">
                        <g fill-rule="nonzero" id="形状">
                            <path d="M4.6,6.3 C4,7.1 3.4,7.7 2.9,8.3 C2.4,8.9 1.9,9.2 1.6,9.5 C1.3,9.8 1.1,9.9 1.1,9.9 L0.9,10 L0.8,10.1 L0.7,10.1 C0.7,10.1 0.7,10.1 0.7,10 C0.7,9.9 0.7,9.9 0.8,9.9 L1,9.6 C1.5,9 2.1,8.2 2.6,7.4 C3.1,6.6 3.7,5.5 4.4,4.3 C5.1,3.1 5.5,2.1 5.7,1.3 L5.9,0.8 L6,0.4 L6.3,0.6 L7.8,1.5 C7.9,1.5 7.9,1.6 7.9,1.6 L7.9,1.7 C7.9,1.7 7.9,1.8 7.8,1.9 L7.3,2.2 L7.2,2.3 C7.7,3.5 8.2,4.4 8.7,5 C9.2,5.6 9.7,6 10,6.3 C10.3,6.6 10.8,6.9 11.2,7.2 C11.6,7.5 12.1,7.7 12.5,7.8 L12.9,7.9 L13.4,8.1 C13.5,8.1 13.6,8.1 13.6,8.1 L13.6,8.2 C13.6,8.3 13.6,8.3 13.5,8.3 L13.3,8.4 C13.1,8.5 12.9,8.6 12.8,8.7 C12.7,8.8 12.6,8.9 12.4,9.1 C12.2,9.3 12.2,9.4 12.1,9.6 C12,9.8 12,9.8 12,9.9 C12,10 12,10 11.9,9.9 C11.8,9.9 11.4,9.6 10.6,9 C9.8,8.4 9.3,7.8 8.8,7.1 C8.3,6.4 8.1,5.8 7.8,5.1 C7.5,4.4 7.3,3.8 7.2,3.3 L7,2.6 C6,4.3 5.2,5.5 4.6,6.3 Z M7.7,9.2 C7.7,9.2 7.6,9.3 7.6,9.4 C7.6,9.5 7.5,9.6 7.4,9.6 L7.4,12.5 L8.7,12.5 L9.2,11.6 C9.3,11.4 9.4,11.3 9.4,11.3 C9.4,11.3 9.5,11.4 9.7,11.6 L10.6,12.6 C10.7,12.7 10.8,12.8 10.7,12.9 C10.6,13 10.7,13.1 10.6,13.1 L7.4,13.1 L7.4,16.7 L10.4,16.7 L11.1,15.7 L11.2,15.5 C11.3,15.4 11.3,15.3 11.3,15.3 C11.3,15.3 11.4,15.4 11.6,15.6 L12.6,16.7 C12.7,16.8 12.7,16.9 12.7,16.9 L12.7,17 C12.7,17 12.6,17.1 12.5,17.1 L11.8,17.1 L1.3,17.1 C1.2,17.1 1.1,17 1.1,16.8 C1.1,16.6 1.2,16.5 1.3,16.5 L6.1,16.5 L6.1,13.1 L3.2,13.1 L3.1,13.1 C3.1,13.1 3,13.1 3,13 C3,12.9 3,12.9 3,12.7 C3,12.5 3,12.5 3.1,12.5 L6.1,12.5 L6.1,9.2 L3.1,9.2 C3,9.2 2.9,9.1 2.9,9 C2.9,8.9 2.9,8.7 3.1,8.7 L8,8.7 L8.5,7.9 C8.6,7.7 8.7,7.6 8.7,7.6 C8.7,7.6 8.8,7.7 9,7.8 L9.9,8.8 C10,8.9 10,9 10,9.1 C10,9.2 9.9,9.2 9.8,9.2 L8.9,9.2 L7.7,9.2 Z"></path>
                            <path d="M19.7,3.1 L20,2.4 C20.1,2.1 20.2,2 20.2,2 C20.2,2 20.3,2.1 20.5,2.3 L21.2,3.1 C21.3,3.3 21.4,3.4 21.4,3.4 C21.4,3.4 21.4,3.5 21.3,3.5 C21.2,3.5 21.2,3.5 21.2,3.5 L20,3.5 L19.3,3.5 L20.4,4.3 C20.5,4.4 20.6,4.4 20.6,4.5 C20.6,4.6 20.6,4.6 20.6,4.6 C20.6,4.6 20.5,4.7 20.4,4.7 L20.1,5.1 C19.7,6.1 19.4,6.8 19.1,7.3 L19.9,7.3 L20.3,6.6 C20.4,6.4 20.5,6.3 20.5,6.3 C20.5,6.3 20.5,6.3 20.6,6.3 C20.7,6.3 20.7,6.4 20.8,6.5 L21.4,7.3 C21.5,7.5 21.6,7.6 21.6,7.7 C21.6,7.7 21.6,7.8 21.5,7.8 C21.4,7.8 21.4,7.9 21.3,7.9 L19.1,7.9 L19,8 C19,8 18.9,8 18.8,8.1 L18.8,10.1 L19.4,10.1 L19.9,9.4 C20,9.3 20,9.2 20.1,9.2 C20.2,9.2 20.2,9.3 20.4,9.5 L21.1,10.4 C21.2,10.5 21.2,10.5 21.2,10.6 L21.2,10.7 L21.1,10.7 L18.9,10.7 L18.9,15.9 C18.9,16.2 18.9,16.4 18.8,16.6 C18.7,16.8 18.6,16.9 18.5,17 C18.4,17.1 18.1,17.1 17.9,17.2 C17.7,17.3 17.5,17.3 17.4,17.3 C17.4,17.3 17.4,17.3 17.3,17.3 C17.2,17.3 17.3,17.3 17.3,17.2 C17.3,17.1 17.3,17.1 17.3,17 C17.3,16.9 17.3,16.7 17.2,16.5 C17.1,16.3 17,16.1 16.8,15.9 L16.4,15.7 C16.3,15.6 16.3,15.6 16.3,15.5 C16.3,15.4 16.4,15.4 16.5,15.4 L16.9,15.5 C17,15.5 17.1,15.5 17.2,15.5 C17.3,15.5 17.3,15.5 17.4,15.5 L17.6,15.5 C17.8,15.5 17.9,15.5 17.9,15.3 L17.9,10.7 L15.4,10.7 L15.3,10.7 C15.2,10.6 15.2,10.5 15.2,10.4 C15.2,10.3 15.3,10.2 15.4,10.2 L18,10.2 L18,7.8 L15.3,7.8 L15.2,7.8 C15.2,7.8 15.1,7.8 15.1,7.7 C15.1,7.6 15.1,7.6 15.1,7.5 C15.1,7.4 15.2,7.3 15.3,7.3 L18.9,7.3 C19,6.9 19.1,6.3 19.2,5.6 C19.3,4.9 19.4,4.4 19.4,4.2 L19.5,3.7 L15.5,3.7 C15.4,3.7 15.3,3.6 15.3,3.4 C15.3,3.2 15.3,3.1 15.5,3.1 L19.7,3.1 Z M17,12.4 C16.8,13 16.6,13.3 16.5,13.5 C16.4,13.7 16.2,14.1 15.9,14.7 C15.6,15.3 15.4,15.7 15.3,15.8 L15,16.2 C14.9,16.4 14.9,16.4 14.9,16.4 C14.9,16.4 14.9,16.4 14.9,16.3 C14.9,16.2 14.9,16.2 14.9,16.1 L15.1,15.7 C15.1,15.6 15.2,15.4 15.3,15.1 C15.4,14.8 15.5,14.5 15.5,14.4 C15.5,14.3 15.6,14 15.7,13.5 C15.8,13 15.9,12.6 15.9,12.4 L16,11.8 L16,11.3 C16,11.3 16,11.3 16,11.2 L16.2,11.3 L17.2,11.9 C17.3,12 17.4,12 17.4,12.1 C17.4,12.1 17.4,12.1 17.4,12.2 C17.4,12.3 17.4,12.3 17.3,12.3 L17,12.4 Z M16.3,4.7 L16.2,4.4 C16.2,4.4 16.2,4.4 16.2,4.3 C16.2,4.2 16.2,4.2 16.2,4.2 C16.2,4.1 16.2,4.1 16.3,4.1 C16.4,4.1 16.6,4.3 17,4.7 C17.4,5.1 17.7,5.6 17.6,6.2 C17.6,6.4 17.5,6.7 17.4,6.9 C17.3,7.1 17.1,7.2 16.9,7.2 C16.6,7.2 16.5,7.1 16.4,6.9 C16.3,6.7 16.4,6.4 16.4,6.2 C16.4,6 16.4,5.8 16.4,5.7 C16.4,5.3 16.4,4.9 16.3,4.7 Z M17,0.7 L16.9,0.4 L16.9,0.3 L16.9,0.2 C16.9,0.2 16.9,0.1 17,0.1 C17,0.1 17.2,0.1 17.4,0.2 C17.6,0.3 17.9,0.4 18.2,0.6 C18.5,0.8 18.7,1 18.7,1.4 C18.7,1.8 18.8,1.9 18.8,2 C18.8,2.1 18.8,2.1 18.8,2.2 C18.8,2.4 18.7,2.5 18.6,2.7 C18.5,2.9 18.3,3.1 18.1,3 C17.9,3 17.7,2.9 17.6,2.8 C17.5,2.7 17.5,2.5 17.4,2.3 L17.3,1.7 C17.3,1.5 17.3,1.4 17.2,1.3 C17.1,1.2 17.2,0.9 17,0.7 Z M25.5,6.9 L25.9,6.2 C26,5.9 26.1,5.8 26.1,5.8 C26.1,5.8 26.1,5.8 26.2,5.8 C26.3,5.8 26.3,5.9 26.5,6.2 L27.2,7.1 C27.3,7.2 27.3,7.3 27.3,7.3 L27.3,7.4 C27.3,7.5 27.3,7.6 27.2,7.6 L25.7,7.6 C25.6,7.7 25.6,7.8 25.6,7.8 L25.5,7.9 L25.5,16.1 L25.5,17.3 C25.4,17.5 25.3,17.7 25.2,17.8 C25.1,17.9 24.9,17.9 24.7,17.9 C24.5,17.9 24.4,17.9 24.4,17.8 C24.4,17.7 24.3,17.6 24.3,17.5 L24.4,15.5 L24.4,7.5 L23.1,7.5 C23.1,8.4 23.1,9.1 23,9.8 C22.9,10.5 22.9,11 22.9,11.6 C22.9,12.2 22.7,12.8 22.5,13.5 C22.3,14.2 22,14.9 21.5,15.5 C21,16.1 20.7,16.5 20.5,16.8 C20.3,17.1 20,17.3 19.9,17.4 L19.6,17.6 C19.5,17.6 19.5,17.7 19.5,17.7 L19.4,17.7 C19.4,17.7 19.4,17.7 19.4,17.6 C19.4,17.5 19.4,17.6 19.4,17.5 C19.4,17.4 19.4,17.4 19.5,17.4 L19.8,17.1 C20.4,16.4 20.9,15.6 21.3,14.8 C21.7,14 21.9,13.1 22,12.2 C22.1,11.3 22.2,10.5 22.2,9.7 C22.2,8.9 22.2,8 22.2,6.9 C22.2,6.2 22.2,5.5 22.2,4.8 C22.2,4.1 22.2,3.7 22.2,3.7 L22.2,3.2 L22.1,1.8 C22.1,1.8 22.2,1.9 22.4,2 L23.4,2.7 C24.2,2.3 24.8,1.8 25.3,1.4 L25.2,1.1 L25.4,0.8 L25.5,0.8 L25.7,1.1 L26.5,2 C26.6,2.2 26.7,2.3 26.7,2.3 C26.7,2.4 26.6,2.4 26.6,2.4 L26.2,2.5 L24.4,2.9 L22.9,3.2 C22.9,3.9 22.9,4.5 22.9,4.8 L22.9,5.9 L22.9,7 L25.5,6.9 Z M19.4,12.2 L19.3,12 C19.2,11.9 19.2,11.8 19.2,11.7 C19.2,11.6 19.2,11.6 19.2,11.6 C19.3,11.6 19.5,11.7 19.8,12 C20.1,12.3 20.4,12.6 20.5,12.8 C20.6,13 20.7,13.4 20.7,13.7 C20.7,13.9 20.6,14.1 20.5,14.3 C20.4,14.5 20.2,14.6 20,14.6 C19.8,14.6 19.6,14.5 19.6,14.3 C19.6,14.1 19.5,13.9 19.5,13.7 L19.5,13.1 C19.6,12.8 19.5,12.5 19.4,12.2 Z"></path>
                            <path d="M30.8,5.4 L28.8,5.4 C28.7,5.4 28.6,5.3 28.6,5.1 C28.6,4.9 28.7,4.8 28.8,4.8 L30.8,4.8 L30.8,1.8 L30.8,0.2 C30.8,0.2 30.8,0.2 30.9,0.2 C31,0.2 31,0.2 31.1,0.3 L32.3,0.8 C32.4,0.9 32.4,1 32.3,1.1 L31.9,1.5 L31.9,4.8 L32.2,4.8 L32.5,4.2 C32.6,4.2 32.6,4.1 32.7,4.1 C32.8,4.1 32.9,4.2 33.1,4.5 L33.5,5 C33.7,5.2 33.7,5.3 33.7,5.4 C33.7,5.5 33.6,5.5 33.5,5.5 L31.8,5.5 L31.8,7.9 C32.6,8.2 33.1,8.5 33.3,8.9 C33.5,9.3 33.5,9.6 33.5,9.8 L33.5,9.9 L34.1,9.9 C34.1,9.8 34.1,9.7 34.1,9.7 L34.2,8.4 C34.2,7.7 34.3,7.2 34.3,6.8 L34.3,5.8 C34.1,6.2 33.9,6.5 33.7,6.9 L33.4,7.4 C33.3,7.5 33.3,7.6 33.2,7.6 C33.1,7.6 33.2,7.5 33.2,7.3 L33.4,6.7 C33.6,6.2 33.7,5.6 33.9,4.9 C34.1,4.2 34.2,3.8 34.3,3.4 L34.5,2.4 C34.6,1.9 34.7,1.6 34.7,1.4 L34.9,0.7 L34.9,0.4 C34.9,0.4 34.9,0.4 35,0.4 L35.3,0.6 L36.4,1.3 C36.5,1.4 36.5,1.4 36.6,1.5 C36.7,1.6 36.6,1.7 36.4,1.7 L36.2,1.8 L35.5,3.4 L39.2,3.4 L39.6,2.5 C39.7,2.4 39.7,2.3 39.7,2.3 C39.7,2.3 39.8,2.3 39.8,2.4 L40.8,3.5 C40.9,3.6 40.9,3.7 40.9,3.7 C40.9,3.7 40.9,3.8 40.8,3.8 L40.2,3.8 L35.3,3.8 L34.6,5.2 L35.6,5.9 L38.6,5.9 L38.9,5.2 C38.9,5.3 38.9,5.3 39,5.2 C39.1,5.1 39.1,5.2 39.2,5.3 L40.1,6.1 C40.2,6.2 40.2,6.2 40.2,6.3 C40.2,6.4 40.2,6.4 40.1,6.5 L39.8,6.8 L39.7,9.8 L39.8,9.8 L40.1,9.2 C40.2,9 40.3,8.9 40.3,8.9 C40.3,8.9 40.4,8.9 40.5,9.1 L41.2,9.9 C41.3,10 41.3,10.1 41.3,10.2 C41.3,10.3 41.3,10.3 41.2,10.3 L40.3,10.3 L39.7,10.3 C39.7,10.4 39.7,10.8 39.7,11.3 C39.7,11.8 39.7,12.3 39.7,12.7 L39.6,13.8 L39.6,14 L39.7,14 L40,13.3 C40.1,13.2 40.1,13.1 40.1,13.1 C40.1,13.1 40.2,13.1 40.3,13.3 L40.9,14.1 C41.1,14.3 41.2,14.4 41.1,14.5 C41,14.6 41,14.6 41,14.6 L39.9,14.6 L39.5,14.6 C39.5,14.8 39.5,14.9 39.5,15 C39.5,15.1 39.5,15.2 39.5,15.4 C39.5,15.6 39.4,15.8 39.4,16.1 C39.4,16.4 39.2,16.7 39.1,16.9 C39,17.1 38.8,17.3 38.6,17.5 C38.4,17.7 38.1,17.8 37.8,17.9 C37.7,17.9 37.7,17.9 37.6,17.9 C37.5,17.9 37.6,17.8 37.5,17.6 C37.4,17.4 37.4,17.2 37.3,17.1 C37.2,17 37.1,16.8 37.1,16.8 C37.1,16.8 36.9,16.7 36.8,16.6 L36.4,16.4 L36.3,16.3 L36.3,16.2 L36.4,16.1 L36.8,16.2 C37.4,16.3 37.8,16.3 38,16.1 C38.2,15.9 38.3,15.6 38.3,15.3 L38.3,15 L38.3,14.7 L34.8,14.7 L34.5,15.1 C34.4,15.2 34.4,15.3 34.3,15.3 C34.2,15.3 34.2,15.3 34.1,15.2 L33.5,14.6 C33.3,14.4 33.3,14.3 33.3,14.3 L33.3,14.2 L33.5,14 L33.7,13.8 C33.8,13.1 33.8,12.6 33.9,12.1 C34,11.6 34,11.1 34,10.5 L33.2,10.5 C33,10.7 32.9,10.7 32.7,10.7 C32.5,10.7 32.4,10.6 32.3,10.5 C32.2,10.4 32.2,10.2 32.2,10.1 C32.2,10 32.2,9.8 32.2,9.5 C32.2,9.2 32.2,9 32.1,8.8 C32,8.6 32,8.5 31.9,8.4 L31.7,8.2 L31.7,15.1 L31.8,17.2 C31.8,17.3 31.8,17.4 31.7,17.4 C31.6,17.4 31.6,17.5 31.5,17.6 C31.4,17.7 31.2,17.7 31,17.7 C30.8,17.7 30.7,17.7 30.6,17.6 C30.5,17.5 30.5,17.4 30.5,17.3 L30.6,15.4 L30.6,10.3 C30.4,10.6 30.3,11 30,11.4 C29.7,11.8 29.6,12.2 29.4,12.6 C29.2,13 29.1,13.1 29,13.3 C28.9,13.5 28.9,13.5 28.9,13.5 L28.9,13.8 C28.8,13.9 28.8,13.9 28.7,13.9 C28.6,13.9 28.7,13.8 28.7,13.7 L28.9,13.1 C29.4,11.8 29.8,10.4 30.1,9 C30.4,7.6 30.6,6.4 30.8,5.4 Z M34.8,14.1 L38.3,14.1 C38.3,14 38.3,13.9 38.3,13.8 C38.3,13.7 38.3,13.3 38.4,12.8 L38.4,11.7 L38.4,10.6 L35,10.6 L34.8,14.1 Z M35.2,9.9 L38.6,9.9 C38.6,9.7 38.6,9.6 38.6,9.5 C38.6,9.4 38.6,9.2 38.6,8.9 C38.6,8.6 38.6,8.2 38.6,7.7 C38.6,7.2 38.6,7 38.6,6.9 L38.6,6.7 L35.4,6.7 L35.2,9.9 Z M36,11.1 C36,11 36.1,10.9 36.2,11 C36.8,11.4 37.1,11.7 37.3,12.1 C37.5,12.5 37.5,12.7 37.4,13 C37.4,13.2 37.3,13.4 37.2,13.5 C37.1,13.6 37,13.7 36.8,13.7 C36.6,13.7 36.5,13.6 36.4,13.4 C36.3,13.3 36.3,13.2 36.3,13.1 C36.3,13 36.3,12.8 36.3,12.5 C36.3,12.2 36.3,12 36.3,11.9 C36.3,11.8 36.2,11.6 36.1,11.4 C36,11.2 36,11.1 36,11.1 Z M36.1,7 C36.1,6.9 36.3,7 36.4,7.1 C36.5,7.2 36.8,7.3 36.9,7.4 C37,7.5 37.2,7.7 37.3,7.8 C37.4,7.9 37.5,8.2 37.5,8.4 C37.5,8.6 37.5,8.9 37.4,9.1 C37.3,9.3 37.1,9.4 36.9,9.4 C36.7,9.4 36.6,9.3 36.5,9.1 C36.4,9 36.4,8.8 36.4,8.6 L36.4,8.1 C36.4,7.7 36.3,7.5 36.2,7.3 C36.1,7.1 36.1,7.2 36.1,7 L36.1,7 Z"></path>
                            <path d="M51.5,4.7 L51.7,4.3 C51.8,4.1 51.9,4 52,4 L52.2,4.3 L52.8,4.9 C52.8,4.9 52.9,5 52.9,5.1 C52.9,5.2 52.9,5.2 52.8,5.2 L50.9,5.2 L50.9,6.3 L51.6,6.3 L51.9,5.9 C52,5.8 52,5.7 52.1,5.7 C52.2,5.7 52.2,5.8 52.3,5.9 L52.8,6.5 C52.8,6.6 52.9,6.7 52.9,6.7 C52.9,6.8 52.9,6.8 52.8,6.8 L50.9,6.8 L50.9,8 L52.9,8 L53.3,7.3 C53.4,7.2 53.5,7.1 53.6,7.1 C53.7,7.1 53.8,7.2 53.9,7.4 L54.5,8.1 C54.6,8.2 54.7,8.4 54.7,8.4 L54.7,8.5 L54.6,8.5 L53.7,8.5 L51.1,8.5 C51.2,8.6 51.3,8.7 51.4,8.9 C51.5,9.1 51.9,9.5 52.5,9.9 C53.1,10.3 53.8,10.6 54.6,10.7 L55.1,10.7 C55.1,10.7 55.2,10.7 55.2,10.8 C55.2,10.9 55.2,10.9 55.2,10.9 C55.2,10.9 55.2,10.9 55.2,11 C55.2,11.1 55.2,11.1 55.2,11.1 L55,11.2 C54.7,11.4 54.4,11.7 54.3,12 C54.2,12.3 54,12.5 54,12.5 C53.7,12.5 53.1,12 52.2,11.1 L52.1,11.2 L52.1,12.7 L52.2,14.3 C52.2,14.4 52.2,14.4 52.1,14.5 C52,14.6 52,14.6 51.9,14.6 C51.8,14.6 51.7,14.7 51.7,14.7 C51.7,14.7 51.6,14.7 51.4,14.7 C51.2,14.7 51.1,14.7 51.1,14.6 C51.1,14.5 51,14.4 51,14.3 L51,10.4 L46.8,10.4 L46.8,14.7 C46.8,14.8 46.7,14.9 46.6,15 C46.5,15.1 46.3,15.2 46,15.2 C45.9,15.2 45.8,15.2 45.8,15.1 C45.8,15 45.7,15 45.7,14.9 L45.7,13.2 L45.7,10.7 C44.8,11.4 44.1,11.9 43.5,12.2 L43,12.5 C42.8,12.6 42.7,12.7 42.6,12.7 C42.5,12.7 42.5,12.7 42.5,12.7 L42.5,12.6 C42.5,12.5 42.5,12.4 42.6,12.4 L42.9,12.1 L43.3,11.7 C43.8,11.3 44.3,10.8 44.8,10.1 C45.3,9.4 45.7,9 45.8,8.7 C45.9,8.4 46,8.3 46.1,8.2 L43,8.2 C42.9,8.2 42.8,8.1 42.8,7.9 C42.8,7.7 42.9,7.6 43,7.6 L46.4,7.6 L46.4,6.8 L44.9,6.8 L44.8,6.8 C44.8,6.8 44.7,6.8 44.7,6.7 C44.7,6.6 44.7,6.6 44.7,6.5 C44.7,6.4 44.8,6.3 44.8,6.3 L46.4,6.3 L46.4,5.2 L44.9,5.2 L44.8,5.2 C44.8,5.2 44.7,5.2 44.7,5.1 C44.7,5 44.7,5 44.7,4.9 C44.7,4.8 44.8,4.7 44.8,4.7 L46.4,4.7 L46.4,4.5 L46.4,3.2 L46.4,3.1 L44.7,3.1 C44.7,3.2 44.7,3.3 44.7,3.4 C44.7,3.5 44.7,3.6 44.7,3.8 C44.7,4 44.7,4.2 44.6,4.5 C44.5,4.7 44.4,5 44.3,5.2 C44.2,5.4 43.9,5.6 43.7,5.6 C43.5,5.6 43.3,5.5 43.1,5.3 C42.9,5.1 42.9,4.9 42.9,4.6 C42.9,4.3 43,4.1 43.1,3.8 C43.1,3.8 43.3,3.6 43.5,3.4 C43.7,3.2 43.9,2.8 44,2.4 L44.1,2 C44.1,1.9 44.1,1.9 44.2,1.8 C44.3,1.7 44.3,1.9 44.3,2 L44.4,2.4 L44.5,2.6 L48.6,2.6 C48.4,2.5 48.3,2.5 48.3,2.4 C48.3,2.3 48.3,2.2 48.3,2.1 C48.3,2 48.2,1.8 48.1,1.4 C48,1 47.9,0.7 47.8,0.5 L47.6,0.3 C47.5,0.2 47.5,0.2 47.5,0.1 C47.5,0 47.6,0 47.7,0 C48.1,0 48.5,0.1 48.9,0.3 C49.3,0.5 49.6,0.8 49.6,1.2 C49.6,1.6 49.6,1.8 49.5,2 C49.4,2.2 49.3,2.3 49.3,2.4 L48.9,2.6 L52.9,2.6 L53.3,2.1 C53.4,1.9 53.5,1.8 53.5,1.8 C53.5,1.8 53.7,1.9 53.8,2.1 L54.6,3.1 C54.8,3.3 54.9,3.5 54.9,3.6 C54.9,3.7 54.7,3.8 54.5,3.8 C54.3,3.8 54,3.9 53.8,3.9 C53.6,3.9 53.4,4.1 53.2,4.2 L52.9,4.6 C52.8,4.7 52.7,4.8 52.7,4.7 C52.7,4.6 52.7,4.5 52.7,4.5 L53,3.2 L46.7,3.2 L47.6,3.5 C47.8,3.6 47.9,3.6 47.9,3.6 L47.9,3.7 C47.9,3.7 47.9,3.8 47.7,3.9 L47.5,4.1 L47.5,4.6 L49.9,4.6 L49.9,4.3 C49.9,3.9 49.9,3.6 49.9,3.5 C49.9,3.4 49.9,3.4 49.9,3.4 L50.1,3.4 L51.1,3.6 C51.2,3.6 51.3,3.7 51.3,3.7 L51.3,3.8 C51.3,3.8 51.3,3.8 51.3,3.9 C51.3,4 51.2,4 51.2,4 L50.9,4.2 L50.9,4.7 L51.5,4.7 Z M49.4,12.1 C49.4,12.5 49.3,13 49.3,13.6 C49.3,14.2 49.1,14.8 48.9,15.3 C48.7,15.8 48.4,16.2 48,16.5 C47.6,16.8 47.2,17.1 46.7,17.3 C46.2,17.5 45.6,17.7 44.9,17.9 L44.3,18 C44.2,18 44.2,18 44.1,18 C44,18 44,18 44,18 L44,17.9 C44,17.9 44,17.8 44.1,17.8 L44.4,17.7 L44.8,17.6 C45.4,17.4 45.9,17.2 46.3,16.9 C46.7,16.6 47.1,16.3 47.4,16.1 C47.7,15.9 47.9,15.5 48,15 C48.1,14.5 48.2,14.1 48.3,13.6 C48.4,13.1 48.4,12.7 48.4,12.3 L48.4,11.2 L48.4,11.1 C48.4,11.1 48.4,11.1 48.5,11.1 L49.7,11.5 C49.8,11.5 49.9,11.6 49.9,11.6 L50,11.7 C50,11.7 50,11.8 49.9,11.9 L49.4,12.1 Z M50.9,10.1 C51,10 51,9.9 51.1,9.8 C51.2,9.7 51.2,9.8 51.3,9.9 C51.1,9.4 50.9,8.9 50.9,8.5 L47.5,8.5 L47.7,8.6 C47.8,8.7 47.8,8.7 47.8,8.7 L47.8,8.8 C47.8,8.8 47.8,8.9 47.7,8.9 L47.5,9 L46.7,10.1 L50.9,10.1 Z M49.9,6.3 L49.9,5.2 L47.5,5.2 L47.5,6.3 L49.9,6.3 L49.9,6.3 Z M49.9,8 L49.9,6.8 L47.5,6.8 L47.5,8 L49.9,8 Z M49.3,15 C49.3,14.9 49.4,14.9 49.5,14.9 C49.5,14.9 49.6,14.9 49.7,14.9 C49.8,14.9 50.1,15 50.5,15 C50.9,15 51.5,15.2 52.1,15.4 C52.7,15.6 53.2,15.9 53.3,16.3 C53.4,16.7 53.6,16.9 53.6,17.2 C53.6,17.5 53.6,17.7 53.5,17.9 C53.4,18.1 53.3,18.2 53.1,18.2 C52.9,18.2 52.7,18.1 52.4,17.8 C52.4,17.8 52.1,17.5 51.8,16.9 C51.5,16.3 51,16 50.7,15.8 C50.4,15.6 50.1,15.4 49.9,15.3 L49.5,15.1 C49.4,15.1 49.3,15.1 49.3,15 Z"></path>
                            <path d="M59.4,8 L59.6,8.2 C59.7,8.3 59.8,8.4 59.8,8.4 C59.8,8.4 59.8,8.4 59.8,8.5 C59.8,8.6 59.8,8.5 59.8,8.6 C59.8,8.7 59.8,8.7 59.7,8.8 L59.5,9.1 L59.5,15.8 L59.5,17.5 C59.4,17.9 59.2,18 59,18 C58.8,18 58.6,18 58.5,17.9 C58.4,17.8 58.4,17.8 58.4,17.7 L58.5,15.7 L58.5,9.4 C58.4,9.6 58.2,9.9 57.9,10.3 C57.6,10.7 57.5,10.9 57.4,11 L57.1,11.4 C56.9,11.7 56.7,11.8 56.6,11.8 L56.5,11.8 C56.5,11.8 56.5,11.8 56.5,11.7 C56.5,11.6 56.5,11.7 56.5,11.6 C56.5,11.5 56.5,11.5 56.6,11.5 L56.9,11.1 L57.3,10.4 C57.5,10 57.7,9.6 57.8,9.2 C57.9,8.8 58.1,8.4 58.4,7.7 C58.7,7 58.8,6.6 58.9,6.3 C59,6 59.1,5.8 59.1,5.5 L59.3,4.7 L59.3,4.6 C59.3,4.6 59.4,4.6 59.5,4.7 L60.5,5.5 C60.6,5.6 60.6,5.6 60.7,5.7 C60.8,5.8 60.8,5.8 60.8,5.9 C60.8,6 60.7,6 60.6,6.1 L60.3,6.3 L59.4,8 Z M60.4,1.8 C59.9,2.6 59.4,3.3 59,3.9 C58.6,4.5 58.1,5.1 57.6,5.7 L57.2,6.1 C57,6.3 56.9,6.4 56.9,6.4 C56.9,6.4 56.9,6.4 56.8,6.4 C56.7,6.4 56.8,6.4 56.8,6.3 C56.8,6.2 56.8,6.2 56.8,6.1 L57,5.7 L57.4,5.1 C57.7,4.6 58,3.9 58.4,3.1 C58.8,2.3 59,1.5 59.2,0.9 L59.4,0.3 C59.4,0.2 59.4,0.2 59.5,0.2 C59.6,0.2 59.6,0.2 59.6,0.3 L60.7,1.1 C60.8,1.2 60.9,1.3 60.9,1.3 L60.9,1.4 C60.9,1.4 60.8,1.5 60.7,1.5 L60.4,1.8 Z M61.2,12.7 C61.3,12.8 61.3,13 61.4,13.3 C61.5,13.6 61.5,13.9 61.5,14.1 C61.5,14.3 61.5,14.5 61.5,14.7 C61.5,15.2 61.4,15.7 61.2,16.1 C61,16.5 60.8,16.7 60.5,16.7 C60.3,16.7 60.1,16.6 60,16.4 C59.9,16.2 59.9,16.1 59.9,15.9 C59.9,15.7 60,15.4 60.2,15.1 L60.5,14.7 C60.6,14.5 60.7,14.3 60.8,14.1 C60.9,13.9 60.9,13.7 61,13.3 L61.1,12.9 C61.1,12.7 61.1,12.6 61.2,12.7 Z M67.6,10.6 L68,9.9 C68.1,9.7 68.2,9.6 68.2,9.6 C68.2,9.6 68.4,9.7 68.5,9.9 L69.1,10.6 C69.2,10.8 69.3,10.9 69.3,11 C69.3,11.1 69.2,11.1 69.2,11.1 L60.2,11.1 C60.1,11.1 60.1,11.1 60,11 C59.9,10.9 59.9,10.9 59.9,10.7 C59.9,10.5 60,10.5 60.1,10.5 L67.6,10.5 L67.6,10.6 L67.6,10.6 Z M60.7,3.3 C60.6,3.3 60.6,3.3 60.5,3.2 C60.4,3.1 60.4,3.1 60.4,2.9 C60.4,2.7 60.5,2.7 60.6,2.7 L63.6,2.7 L63.6,1.7 L63.6,0.3 L63.6,0.2 C63.6,0.2 63.7,0.2 63.8,0.2 L64.9,0.5 C65,0.5 65.1,0.6 65.1,0.6 L65.2,0.7 C65.2,0.7 65.2,0.7 65.2,0.8 C65.2,0.9 65.2,0.8 65.1,0.9 L64.9,1.4 L64.9,2.8 L66.9,2.8 L67.3,2.1 C67.4,1.9 67.5,1.8 67.5,1.7 C67.5,1.6 67.6,1.7 67.6,1.7 C67.6,1.7 67.8,1.8 67.9,2 L68.6,2.8 C68.7,3 68.8,3.1 68.8,3.2 C68.8,3.3 68.7,3.3 68.7,3.3 L64.9,3.3 L64.8,5.3 L66.9,5.3 L67.2,4.8 C67.3,4.6 67.4,4.6 67.4,4.6 C67.4,4.6 67.5,4.7 67.7,4.8 L68.2,5.3 C68.3,5.4 68.4,5.5 68.4,5.5 L68.4,5.6 C68.4,5.6 68.3,5.7 68.2,5.9 L67.9,6.2 L67.9,7.6 L67.9,9.1 C67.8,9.3 67.7,9.4 67.5,9.5 C67.3,9.6 67.1,9.6 67.1,9.6 C67,9.6 66.9,9.5 66.9,9.4 L66.9,8.9 L62.2,8.9 L62.2,9.6 C62.2,9.7 62.1,9.8 62,9.9 C61.9,10 61.7,10.1 61.3,10.1 C61.2,10.1 61.2,10.1 61.1,10.1 C61,10.1 61,10 61,9.9 L61,8.3 L61,6.4 L61,4.8 C61,4.7 61.1,4.7 61.1,4.7 C61.1,4.7 61.2,4.7 61.3,4.8 L62.2,5.4 L63.6,5.4 L63.6,3.4 L60.7,3.3 Z M63.1,5.9 L62.2,5.9 L62.2,8.4 L63.1,8.4 L63.1,5.9 Z M63.4,13 L63.4,15.9 C63.4,16.1 63.5,16.3 63.6,16.3 C63.7,16.3 64,16.4 64.3,16.4 C64.9,16.4 65.4,16.4 65.7,16.2 C66,16 66.2,15.9 66.3,15.8 C66.4,15.7 66.5,15.3 66.6,15 L66.9,13.8 C66.9,13.7 67,13.6 67.1,13.6 C67.1,13.6 67.2,13.6 67.2,13.7 C67.2,13.8 67.2,13.8 67.2,13.8 L67.2,13.9 L67.1,15 C67.1,15.1 67.1,15.2 67.1,15.2 L67.1,15.4 C67.1,15.6 67.2,15.8 67.3,15.9 C67.4,16 67.4,16.2 67.5,16.3 C67.6,16.4 67.5,16.4 67.5,16.5 C67.5,16.9 67.3,17.2 66.9,17.4 C66.5,17.6 65.8,17.7 65,17.7 C64.2,17.7 63.7,17.7 63.3,17.6 C62.9,17.5 62.7,17.3 62.7,17.1 C62.7,16.9 62.6,16.6 62.6,16.5 L62.6,13.5 L62.6,11.9 C62.6,11.9 62.6,11.9 62.7,11.8 L62.9,11.9 L63.9,12.3 C64,12.3 64,12.4 64,12.5 C64,12.6 63.9,12.7 63.8,12.8 L63.4,13 Z M64.9,5.9 L64,5.9 L64,6.1 L64,8.4 L65,8.4 L64.9,5.9 Z M64,11.7 C64,11.7 64.1,11.6 64,11.7 C64.1,11.6 64.2,11.6 64.3,11.7 C64.3,11.7 64.4,11.8 64.7,11.9 C65,12 65.2,12.3 65.4,12.6 C65.6,12.9 65.7,13.3 65.7,13.5 C65.7,13.7 65.7,14 65.6,14.2 C65.5,14.5 65.3,14.6 65,14.6 C64.9,14.6 64.7,14.6 64.6,14.5 C64.5,14.4 64.4,14.3 64.4,14.2 C64.4,14.1 64.3,13.8 64.3,13.5 C64.3,13.2 64.3,12.9 64.2,12.7 C64.1,12.5 64.1,12.3 64,12.2 L63.8,11.8 C64,11.8 64,11.8 64,11.7 Z M66.9,5.9 L65.9,5.9 L65.8,6.1 L65.8,8.4 L66.9,8.4 L66.9,5.9 Z M67.1,12.5 C67.1,12.5 67.1,12.4 67.2,12.4 C67.2,12.4 67.4,12.5 67.7,12.7 C68,12.9 68.4,13.2 68.8,13.6 C69.2,14 69.4,14.5 69.4,15.1 C69.4,15.3 69.4,15.5 69.3,15.7 C69.2,15.9 69.1,16.1 68.9,16.2 C68.7,16.3 68.5,16.3 68.3,16 C68.2,15.9 68.1,15.7 68.1,15.6 C68.1,15.5 68,15.1 68,14.7 C68,14.3 67.9,14 67.8,13.7 C67.7,13.4 67.6,13.2 67.4,12.9 L67.2,12.6 C67.1,12.6 67.1,12.5 67.1,12.5 Z"></path>
                            <path d="M72.2,11.8 L72.2,4.2 L70.8,4.2 C70.7,4.2 70.6,4.1 70.6,3.9 C70.6,3.7 70.6,3.6 70.8,3.6 L72.2,3.6 L72.2,1.8 L72.1,0.1 C72.1,0.1 72.1,8.32667268e-17 72.2,8.32667268e-17 C72.3,8.32667268e-17 72.3,8.32667268e-17 72.5,0.1 L73.4,0.5 C73.5,0.6 73.6,0.6 73.6,0.6 L73.6,0.7 C73.6,0.7 73.6,0.8 73.5,0.9 L73.3,1.1 L73.3,3.6 L75.1,3.6 L75.1,1.6 L75.1,0.2 C75.1,0.2 75.1,0.1 75.2,0.1 L75.5,0.2 L76.4,0.5 C76.5,0.5 76.6,0.6 76.6,0.6 L76.6,0.7 C76.6,0.7 76.6,0.8 76.5,0.8 L76.2,1.1 L76.2,3.6 L76.3,3.6 L76.7,2.8 C76.8,2.7 76.8,2.6 76.9,2.6 C77,2.6 77,2.7 77.1,2.9 L77.7,3.8 C77.7,3.9 77.8,3.9 77.8,3.9 L77.8,4 C77.8,4 77.8,4.1 77.7,4.1 L76.7,4.1 L76.2,4.1 L76.2,11.6 L76.6,10.9 C76.7,10.8 76.8,10.7 76.8,10.7 C76.8,10.7 76.9,10.8 77,10.9 L77.6,11.9 C77.7,12 77.7,12.1 77.7,12.1 C77.7,12.1 77.6,12.2 77.5,12.2 L70.8,12.2 L70.7,12.2 C70.6,12.2 70.6,12.2 70.5,12.1 C70.4,12 70.4,12 70.4,11.8 C70.4,11.6 70.5,11.6 70.6,11.6 L72.2,11.6 L72.2,11.8 L72.2,11.8 Z M73.6,14 C73,14.7 72.5,15.4 72,15.9 C71.5,16.4 71.2,16.8 71.1,16.9 L70.8,17.2 C70.7,17.3 70.7,17.3 70.7,17.3 C70.7,17.3 70.7,17.3 70.7,17.2 C70.7,17.1 70.7,17.1 70.8,17 L71.1,16.6 C71.3,16.2 71.6,15.8 71.9,15.1 C72.2,14.4 72.4,14 72.6,13.6 L72.8,13.1 L72.9,12.7 C72.9,12.7 72.9,12.7 73,12.7 L73.2,12.9 L74.1,13.6 C74.2,13.7 74.2,13.7 74.2,13.7 L74.2,13.8 C74.2,13.8 74.2,13.9 74.1,13.9 L73.6,14 Z M75.1,6.2 L75.1,4.2 L73.3,4.2 L73.3,6.2 L75.1,6.2 Z M75.1,9 L75.1,6.7 L73.3,6.7 L73.3,9 L75.1,9 Z M75.1,11.8 L75.1,9.5 L73.3,9.5 L73.3,11.8 L75.1,11.8 Z M74.8,13.6 L74.6,13.3 L74.5,13.2 C74.5,13.2 74.5,13.2 74.5,13.1 C74.5,13 74.5,13 74.6,13 C74.7,13 75,13.2 75.4,13.5 C75.8,13.8 76.2,14.2 76.3,14.5 C76.4,14.8 76.6,15.1 76.6,15.4 C76.6,15.6 76.6,15.7 76.5,15.8 C76.4,15.9 76.4,16.1 76.3,16.2 C76.2,16.3 76.1,16.4 75.9,16.4 C75.7,16.4 75.6,16.3 75.5,16.1 C75.4,15.9 75.3,15.7 75.3,15.5 L75.2,14.9 C75.1,14.6 75.1,14.4 75,14.2 C74.9,14 74.9,13.8 74.8,13.6 Z M79,6.9 L81.6,6.9 L82.1,6 C82.2,5.9 82.3,5.8 82.3,5.8 C82.3,5.8 82.4,5.9 82.5,6 L83.3,7.2 C83.4,7.3 83.4,7.3 83.4,7.4 C83.4,7.5 83.3,7.5 83.3,7.5 L81.9,7.5 C81.9,7.6 81.8,7.6 81.8,7.7 L81.7,7.8 L81.6,7.9 L81.6,16.1 L81.6,17.5 C81.5,17.8 81.4,18 81.2,18.1 C81,18.2 80.9,18.2 80.7,18.2 C80.5,18.2 80.4,18.2 80.4,18.1 C80.3,18 80.3,17.9 80.3,17.8 L80.4,15.8 L80.4,7.4 L78.9,7.4 C78.9,8.5 78.9,9.4 78.8,10.1 C78.7,10.8 78.7,11.5 78.6,12.1 C78.5,12.7 78.4,13.3 78.2,13.8 C78,14.3 77.8,14.8 77.7,15.2 C77.6,15.6 77.3,16 77,16.3 L76.4,17.1 C76.3,17.3 76.2,17.4 76.1,17.5 L75.8,17.8 C75.7,17.9 75.7,17.9 75.7,17.9 L75.6,17.9 C75.6,17.9 75.6,17.9 75.6,17.8 C75.6,17.7 75.6,17.7 75.7,17.6 L76,17.2 C76.3,16.8 76.6,16.3 76.9,15.7 C77.2,15.1 77.3,14.6 77.5,13.9 C77.6,13.2 77.7,12.6 77.8,12.1 C77.9,11.6 77.9,11 77.9,10.1 C77.9,9.3 77.9,8.6 77.9,7.9 C77.9,7.2 77.9,6.8 77.9,6.5 C77.9,6.1 77.9,5.8 77.9,5.5 L77.9,3.4 L77.9,3.2 L77.8,1.7 C77.8,1.7 77.8,1.7 77.8,1.6 L78,1.8 L79.2,2.6 C79.8,2.3 80.2,1.9 80.6,1.6 C81,1.3 81.2,1.1 81.3,0.9 L81.6,0.5 C81.7,0.4 81.8,0.3 81.8,0.3 C81.8,0.3 81.9,0.4 82,0.6 L82.7,1.7 C82.9,2 82.9,2.1 82.9,2.1 C82.9,2.1 82.8,2.2 82.7,2.2 L82.3,2.2 C82.2,2.2 81.9,2.3 81.5,2.4 L80.3,2.6 L78.8,2.9 L78.8,6.9 L79,6.9 Z"></path>
                        </g>
                        <g transform="translate(84.000000, 0.000000)">
                            <polygon id="路径" points="0.7 8.9 5 8.9 5 9.8 0.7 9.8"></polygon>
                            <path d="M7.6,12.9 C7.5,13.3 7.4,13.7 7.4,13.9 C7.4,14.3 7.7,14.5 8.5,14.5 L8.5,15 C7.8,14.9 7.4,14.9 6.9,14.9 C6.4,14.9 6,14.9 5.3,15 L5.3,14.5 C6.3,14.4 6.5,14.3 6.9,13 L10.8,0.5 L14.3,13.3 C14.6,14.3 14.8,14.4 15.8,14.5 L15.8,15 C14.9,14.9 14.4,14.8 13.8,14.8 C13.2,14.8 12.7,14.8 11.7,15 L11.7,14.5 C12.4,14.4 12.7,14.2 12.7,13.9 C12.7,13.7 12.7,13.5 12.6,13.2 L12,10.9 L8.2,10.9 L7.6,12.9 Z M11.9,10.3 L10.3,4.1 L8.4,10.3 L11.9,10.3 Z" id="形状" fill-rule="nonzero"></path>
                            <path d="M18.7,13.1 L18.7,13.3 C18.7,14.2 18.9,14.4 20.1,14.5 L20.1,15 C19.3,14.9 18.9,14.9 18.4,14.9 C17.9,14.9 17.6,14.9 16.7,15 L16.7,14.5 L16.9,14.5 C17.9,14.4 18,14.2 18.1,13.1 L18.5,2.8 L18.5,2.7 C18.5,1.7 18.3,1.5 17.1,1.4 L17.1,0.9 C17.8,1 18.1,1 18.5,1 C19.1,1 19.5,1 20.1,0.9 L23.2,11.4 L26.3,0.9 C27.1,1 27.5,1 27.9,1 C28.3,1 28.6,1 29.2,0.9 L29.2,1.4 C28,1.5 27.8,1.7 27.8,2.8 L28,13.1 C28,14.2 28.2,14.4 29.4,14.5 L29.4,15 C28.3,14.9 27.8,14.8 27.3,14.8 C26.8,14.8 26.3,14.8 25.2,15 L25.2,14.5 C26.4,14.4 26.6,14.2 26.6,13.2 L26.4,2.6 L23.7,11.7 L22.9,14.7 L22.6,14.7 L21.7,11.7 L19,2.6 L18.7,13.1 Z" id="路径"></path>
                            <path d="M38.8,0.7 L39.1,0.7 L39.1,4.9 L38.7,4.9 C38.2,2.5 37.3,1.4 35.8,1.4 C33.7,1.4 32.7,3.7 32.7,8.1 C32.7,12.4 33.8,14.6 35.8,14.6 C36.5,14.6 37.1,14.4 37.9,13.9 L37.9,10.3 C37.9,9.5 37.7,9.4 36.7,9.3 L36.7,8.7 C37.6,8.8 38,8.8 38.6,8.8 C39.2,8.8 39.6,8.8 40.5,8.7 L40.5,9.2 C39.5,9.3 39.4,9.4 39.4,10.3 L39.4,13.8 C37.9,14.8 36.9,15.2 35.8,15.2 C32.9,15.2 31.1,12.4 31.1,7.9 C31.1,3.5 32.9,0.7 35.7,0.7 C36.7,0.7 37.6,1.1 38.3,1.9 L38.8,0.7 Z" id="路径"></path>
                            <path d="M47.9,12.9 C47.8,13.3 47.7,13.7 47.7,13.9 C47.7,14.3 48,14.5 48.8,14.5 L48.8,15 C48.1,14.9 47.7,14.9 47.2,14.9 C46.7,14.9 46.3,14.9 45.6,15 L45.6,14.5 C46.6,14.4 46.8,14.3 47.2,13 L51.1,0.5 L54.6,13.3 C54.9,14.3 55.1,14.4 56.1,14.5 L56.1,15 C55.2,14.9 54.7,14.8 54.1,14.8 C53.5,14.8 53,14.8 52,15 L52,14.5 C52.7,14.4 53,14.2 53,13.9 C53,13.7 53,13.5 52.9,13.2 L52.3,10.9 L48.5,10.9 L47.9,12.9 Z M52.1,10.3 L50.5,4.1 L48.6,10.3 L52.1,10.3 Z" id="形状" fill-rule="nonzero"></path>
                            <path d="M62.3,11.1 C62.4,13.1 63.1,14.1 64.5,14.1 C65.9,14.1 66.9,12.9 66.9,11.1 C66.9,10 66.6,9 66,8.6 C65.6,8.3 65,8.1 64.1,8.1 L64,8.1 L64,7.3 C65,7.3 65.4,7.1 65.8,6.6 C66.2,6.1 66.4,5.4 66.4,4.6 C66.4,3.1 65.7,2.2 64.6,2.2 C63.4,2.2 62.7,3 62.5,4.8 L62,4.8 C62.2,2.4 63.2,1.1 65,1.1 C66.8,1.1 68,2.4 68,4.4 C68,5.9 67.2,7 65.8,7.5 C67.6,8 68.4,9.2 68.4,11 C68.4,13.4 66.9,15.1 64.9,15.1 C62.9,15.1 61.7,13.6 61.7,11 L62.3,11 L62.3,11.1 L62.3,11.1 Z" id="路径"></path>
                            <path d="M72.7,2.8 L71.9,6.8 C72.5,6 73.2,5.6 74.1,5.6 C76.1,5.6 77.4,7.4 77.4,10.2 C77.4,11.9 76.8,13.6 75.8,14.4 C75.2,14.9 74.6,15.2 73.8,15.2 C72,15.2 71,14 70.9,11.7 L71.5,11.7 C71.6,13.3 72.3,14.1 73.5,14.1 C74.9,14.1 75.9,12.5 75.9,10.2 C75.9,8 75,6.6 73.7,6.6 C72.8,6.6 72.2,7.1 71.7,8.2 L71,8.2 L72.2,1.3 L76.9,1.3 L76.8,2.8 L72.7,2.8 Z" id="路径"></path>
                            <path d="M91.2,15 L83.8,15 L83.8,14.5 C85,14.4 85.1,14.2 85.1,13.1 L85.1,2.8 C85.1,1.7 84.9,1.5 83.8,1.4 L83.8,0.9 C84.7,1 85.2,1 85.9,1 C86.6,1 87.1,1 88,0.9 L88,1.4 C86.9,1.5 86.7,1.7 86.7,2.8 L86.7,13 C86.7,14 86.9,14.2 87.7,14.2 L88.9,14.2 C90.2,14.2 90.7,13.7 91.2,11.5 L91.6,11.5 L91.2,15 Z" id="路径"></path>
                            <path d="M101.1,11.3 L96.6,11.3 L101.2,0.9 L102.7,0.9 L102.7,10 L104.4,10 L104.4,11.3 L102.7,11.3 L102.7,15.2 L101.2,15.2 L101.2,11.3 L101.1,11.3 Z M101.2,2.2 L97.9,10 L101.2,10 L101.2,2.2 L101.2,2.2 Z" id="形状" fill-rule="nonzero"></path>
                            <path d="M107.8,13.1 L107.8,13.3 C107.8,14.2 108,14.4 109.2,14.5 L109.2,15 C108.4,14.9 108,14.9 107.5,14.9 C107,14.9 106.7,14.9 105.8,15 L105.8,14.5 L106,14.5 C107,14.4 107.1,14.2 107.2,13.1 L107.6,2.8 L107.6,2.7 C107.6,1.7 107.4,1.5 106.2,1.4 L106.2,0.9 C106.9,1 107.2,1 107.6,1 C108.2,1 108.6,1 109.2,0.9 L112.3,11.4 L115.4,0.9 C116.2,1 116.6,1 117,1 C117.4,1 117.7,1 118.3,0.9 L118.3,1.4 C117.1,1.5 116.9,1.7 116.9,2.8 L117.1,13.1 C117.1,14.2 117.3,14.4 118.5,14.5 L118.5,15 C117.4,14.9 116.9,14.8 116.4,14.8 C115.9,14.8 115.4,14.8 114.3,15 L114.3,14.5 C115.5,14.4 115.7,14.2 115.7,13.2 L115.5,2.6 L112.8,11.7 L112,14.7 L111.7,14.7 L110.8,11.7 L108.1,2.6 L107.8,13.1 Z" id="路径"></path>
                            <path d="M121.8,12.9 C121.7,13.3 121.6,13.7 121.6,13.9 C121.6,14.3 121.9,14.5 122.7,14.5 L122.7,15 C122,14.9 121.6,14.9 121.1,14.9 C120.6,14.9 120.2,14.9 119.5,15 L119.5,14.5 C120.5,14.4 120.7,14.3 121.1,13 L125,0.5 L128.5,13.3 C128.8,14.3 129,14.4 130,14.5 L130,15 C129.1,14.9 128.6,14.8 128,14.8 C127.4,14.8 126.9,14.8 125.9,15 L125.9,14.5 C126.6,14.4 126.9,14.2 126.9,13.9 C126.9,13.7 126.9,13.5 126.8,13.2 L126.2,10.9 L122.4,10.9 L121.8,12.9 Z M126,10.3 L124.4,4.1 L122.5,10.3 L126,10.3 Z" id="形状" fill-rule="nonzero"></path>
                            <path d="M138.1,4.2 C137.6,2.1 137.3,1.6 136.1,1.6 L135.1,1.6 L135.1,13.1 C135.1,14.2 135.2,14.4 136.4,14.5 L136.4,15 C135.4,14.9 134.9,14.8 134.3,14.8 C133.7,14.8 133.3,14.8 132.2,15 L132.2,14.5 C133.4,14.4 133.5,14.2 133.5,13.1 L133.5,1.6 L132.6,1.6 C131.4,1.6 131,2.1 130.5,4.2 L130.1,4.2 L130.6,1 L137.9,1 L138.4,4.2 L138.1,4.2 Z" id="路径"></path>
                            <path d="M143.8,15 C142.7,14.9 142.2,14.8 141.7,14.8 C141.2,14.8 140.7,14.8 139.6,15 L139.6,14.5 C140.8,14.4 140.9,14.2 140.9,13.1 L140.9,2.8 C140.9,1.7 140.7,1.5 139.6,1.4 L139.6,0.9 C140.5,1 141,1 141.7,1 C142.4,1 142.9,1 143.8,0.9 L143.8,1.4 C142.7,1.5 142.5,1.7 142.5,2.8 L142.5,13.1 C142.5,14.2 142.6,14.4 143.8,14.5 L143.8,15 Z" id="路径"></path>
                            <path d="M153.6,10.2 C153.5,13.3 152.1,15.2 149.9,15.2 C147.2,15.2 145.4,12.3 145.4,8 C145.4,3.6 147.2,0.7 150,0.7 C151.1,0.7 151.9,1.1 152.6,1.9 L153.2,0.7 L153.5,0.7 L153.5,4.8 L153,4.8 C152.5,2.4 151.6,1.3 150.1,1.3 C148.1,1.3 147,3.7 147,7.9 C147,11.9 148.1,14.2 150.1,14.2 C151.7,14.2 152.8,12.7 152.9,10.1 L153.6,10.1 L153.6,10.2 Z" id="路径"></path>
                        </g>
                    </g>
                </g>
            </g>
        </g>
    </g>
</svg>