<?xml version="1.0" encoding="UTF-8"?>
<svg width="232px" height="80px" viewBox="0 0 232 80" version="1.1" xmlns="http://www.w3.org/2000/svg" xmlns:xlink="http://www.w3.org/1999/xlink">
    <!-- Generator: Sketch 59.1 (86144) - https://sketch.com -->
    <title>banner-国六-pc</title>
    <desc>Created with Sketch.</desc>
    <g id="页面-1" stroke="none" stroke-width="1" fill="none" fill-rule="evenodd">
        <g id="banner-国六-pc" fill="#FFFFFF" fill-rule="nonzero">
            <rect id="Rectangle-Copy-13_3_" x="102" y="78.2" width="30.3" height="1"></rect>
            <g id="编组" transform="translate(0.000000, 26.000000)">
                <path d="M5.6,26.4 C4.4,28.8 3.2,30.7 1.9,32.2 L1.1,33.2 C0.9,33.4 0.8,33.5 0.8,33.4 C0.8,33.3 0.7,33.2 0.7,33.1 C0.7,33 0.7,32.9 0.8,32.8 L1.3,31.7 C1.6,31.1 1.8,30.6 1.9,30.3 C2,30 2.3,29.2 2.7,28 C3.1,26.8 3.3,25.9 3.4,25.2 C3.5,24.6 3.5,24.2 3.6,24.1 C3.7,24 3.7,24 3.8,23.9 C3.8,23.9 3.9,23.9 4.1,24.1 L6.2,25.3 C6.4,25.4 6.5,25.5 6.5,25.6 C6.6,25.7 6.6,25.8 6.6,25.9 C6.6,26 6.5,26.1 6.2,26.3 L5.6,26.4 Z M12.4,7.9 L13.5,6 C13.7,5.7 13.8,5.5 13.9,5.5 C14,5.5 14.1,5.6 14.3,5.7 L16.1,7.9 C16.3,8.1 16.4,8.3 16.4,8.4 C16.4,8.5 16.5,8.6 16.5,8.6 C16.5,8.7 16.5,8.7 16.4,8.8 C16.3,8.9 16.1,9 15.9,9 L1.6,9 L1.5,9 C1.4,9 1.3,8.9 1.2,8.9 C1.1,8.8 1.1,8.7 1.1,8.4 C1.1,8.1 1.2,8 1.5,8 L12.4,7.9 L12.4,7.9 Z M11,21.6 L10.2,21.6 C10.1,21.9 10,22.2 9.8,22.5 L9.8,35.2 C9.8,35.9 9.6,36.4 9.2,36.7 C8.8,37 8.4,37.3 7.9,37.5 C7.4,37.7 7.1,37.9 6.9,37.9 C6.8,37.9 6.8,37.9 6.7,37.9 C6.6,37.9 6.6,37.8 6.6,37.8 C6.6,37.7 6.5,37.4 6.3,36.9 C6.2,36.3 6,35.9 5.8,35.7 C5.6,35.4 5.3,35.2 5,35.1 L4.1,34.7 C4,34.6 3.9,34.5 3.9,34.4 C3.9,34.3 3.9,34.2 4,34.2 C4.1,34.2 4.1,34.1 4.2,34.1 L5.3,34.2 C6.5,34.3 7.1,34.3 7.3,34.1 C7.4,33.9 7.5,33.8 7.5,33.6 L7.5,21.6 L5.7,21.6 L5.7,22.3 C5.7,22.6 5.6,22.8 5.3,23 C5,23.2 4.7,23.3 4.3,23.3 C3.9,23.3 3.7,23.3 3.6,23.1 C3.5,22.9 3.4,22.8 3.4,22.6 L3.5,19 L3.5,14.5 L3.4,11.4 C3.5,11.3 3.5,11.3 3.6,11.3 C3.7,11.3 3.8,11.4 4,11.5 L6,12.9 L10.8,12.9 L11.4,11.8 C11.5,11.5 11.7,11.4 11.7,11.4 C11.7,11.4 11.9,11.5 12,11.6 L13.8,13.4 C13.9,13.5 13.9,13.5 14,13.6 C14.1,13.7 14.1,13.8 14.1,13.9 C14.1,14 14.1,14.1 13.9,14.2 L13.4,14.8 L13.4,19.5 L13.5,21.9 C13.3,22.7 12.8,23.1 11.8,23.1 C11.2,23.1 11,22.8 11,22.2 L11,21.6 L11,21.6 Z M11,14.1 L5.7,14.1 L5.7,20.5 L11,20.5 L11,14.1 Z M6.7,2.5 L6.3,1.8 C6.3,1.7 6.2,1.7 6.2,1.6 C6.2,1.5 6.2,1.5 6.2,1.4 C6.2,1.3 6.2,1.3 6.2,1.3 C6.2,1.2 6.3,1.1 6.5,1.1 C6.7,1.1 7.1,1.3 8,1.6 C8.9,1.9 9.4,2.4 9.8,3.1 C10.2,3.8 10.4,4.5 10.4,5.2 C10.4,5.9 10.2,6.5 9.9,7 C9.6,7.5 9.2,7.7 8.8,7.7 C8.3,7.7 8,7.5 7.8,7.1 C7.6,6.7 7.5,6.2 7.4,5.6 L7.4,4.3 C7.2,3.6 7,3 6.7,2.5 Z M11,26.1 L10.4,25.3 C10.4,25.3 10.3,25.2 10.3,25.1 C10.3,25 10.3,25 10.3,25 C10.3,24.9 10.4,24.8 10.6,24.8 C10.9,24.8 11.8,25.2 13,25.8 C14.2,26.4 14.9,27.6 14.9,29.3 C14.9,29.5 14.9,29.8 14.8,30 C14.7,30.3 14.6,30.6 14.4,30.9 C14.2,31.2 13.9,31.4 13.5,31.4 C13.2,31.4 12.9,31.3 12.7,31 C12.5,30.7 12.3,30.3 12.2,29.7 L12,28.6 C11.9,27.5 11.5,26.7 11,26.1 Z M26.7,14.6 L26.7,14.6 L19.9,14.6 L19.9,15.3 L22.5,16.3 C22.8,16.4 23,16.5 23,16.6 C23,16.7 23,16.8 23,16.9 C23,17 22.9,17.2 22.7,17.3 L22.2,18 L22.2,33.3 C22.2,33.8 22.3,34 22.5,34.2 C22.7,34.4 23.1,34.4 23.5,34.4 C24.1,34.4 24.5,34.3 24.7,34.1 C24.9,33.9 25.1,33.7 25.3,33.3 C25.5,32.9 25.6,32.3 25.8,31.6 L26.7,28.1 C26.8,27.9 26.9,27.8 27,27.8 C27.1,27.8 27.2,27.9 27.2,28.1 C27.2,28.3 27.2,28.4 27.2,28.4 L26.8,31.7 C26.7,32.2 26.7,32.6 26.7,32.9 C26.7,33.2 26.8,33.6 27,34 L27.3,34.6 C27.4,34.8 27.4,34.9 27.5,35 C27.6,35.1 27.6,35.3 27.6,35.4 C27.6,35.6 27.6,35.8 27.5,36 C27,37.2 25.7,37.9 23.4,37.9 C21.2,37.9 20.1,37.5 19.9,36.6 C19.8,35.7 19.7,35 19.7,34.6 L19.7,17.5 C19.6,19 19.4,20.4 19.3,21.6 C19.2,22.8 18.9,24.3 18.4,26.1 C17.9,27.9 17.3,29.6 16.5,31.1 C15.7,32.6 14.9,33.7 14.3,34.6 C13.7,35.5 12.7,36.4 11.7,37.5 L11,38.2 C10.9,38.3 10.8,38.3 10.7,38.3 C10.6,38.3 10.5,38.3 10.5,38.2 C10.5,38.1 10.5,38.1 10.5,38 C10.5,37.9 10.6,37.8 10.7,37.6 L11.4,36.6 C12,35.8 12.6,34.9 13.3,33.8 C14,32.7 14.6,31.2 15.3,29.2 C16,27.2 16.5,25 16.7,22.6 C17,20.2 17.1,18.4 17.2,17.1 L17.3,14.8 L17.3,14.3 L14.4,14.3 C14.2,14.3 14,14.1 14,13.7 C14,13.3 14.1,13.1 14.4,13.1 L17.3,13.1 C17.3,12.2 17.3,11.2 17.3,10.3 C17.3,9.4 17.3,8.5 17.3,7.5 C17.3,6.5 17.3,5.6 17.2,4.8 L17.1,2.4 L17,0.9 C17,0.8 17.1,0.8 17.1,0.8 L17.4,0.9 L20.4,1.8 C20.5,1.9 20.6,1.9 20.7,2 C20.7,2.1 20.8,2.1 20.8,2.2 C20.8,2.3 20.8,2.4 20.7,2.5 C20.6,2.6 20.6,2.8 20.5,2.9 L19.9,3.6 C19.9,5 19.9,6.4 19.9,7.6 C19.9,8.8 19.9,9.9 19.8,10.8 L19.9,13 L19.9,13.5 L23.6,13.5 L24.6,11.6 C24.8,11.2 25,11 25.1,11 C25.2,11 25.4,11.2 25.6,11.5 L27.3,13.6 C27.4,13.7 27.4,13.8 27.5,13.9 C27.6,14 27.6,14.1 27.6,14.2 C27.6,14.3 27.6,14.4 27.5,14.5 C27.4,14.6 27.3,14.6 27.2,14.6 L26.7,14.6 L26.7,14.6 Z M21.4,6.2 L21,5.7 C20.9,5.5 20.8,5.4 20.8,5.4 C20.8,5.4 20.8,5.3 20.8,5.2 C20.8,5 20.9,5 21.2,4.9 C21.5,4.9 22,5 22.8,5.4 C23.6,5.8 24.2,6.2 24.5,6.9 C24.8,7.6 25,8.2 25,8.8 C25,9.4 24.8,9.9 24.6,10.4 C24.3,10.9 23.9,11.1 23.5,11.1 C23.3,11.1 23,11 22.8,10.8 C22.6,10.6 22.4,10.3 22.3,9.9 C22.2,9.5 22.1,9 22.1,8.4 C22.1,7.8 22,7.4 21.9,7.1 C21.8,6.8 21.7,6.5 21.4,6.2 Z" id="形状"></path>
                <path d="M51.8,18.4 L52.7,16.6 C52.9,16.3 53,16.1 53.1,16.1 C53.2,16.1 53.3,16.2 53.4,16.4 L55.2,18.7 C55.4,18.9 55.5,19.1 55.4,19.3 C55.4,19.5 55.3,19.5 55.2,19.5 L45.6,19.5 L45,20.4 L45,25.4 L49.1,25.4 L50.1,23.6 C50.3,23.3 50.4,23.1 50.4,23.1 C50.4,23.1 50.5,23.1 50.6,23.3 L52.6,25.8 C53,26 53,26.2 53,26.3 C53,26.5 52.9,26.5 52.7,26.5 L50.8,26.5 L45,26.5 L45,33.4 C47,33.8 48.8,34 50.6,34 C52.6,34 54.1,33.8 55.2,33.5 L56.3,33.2 C56.3,33.2 56.4,33.2 56.5,33.2 C56.6,33.2 56.6,33.3 56.6,33.5 C56.6,33.7 56.6,33.7 56.4,33.8 L56,34.3 C55.6,34.6 55.3,35.1 54.9,35.6 C54.5,36.2 54.3,36.7 54.3,37.2 C54.3,37.7 54.2,38 54.2,38 C54.2,38.1 54.1,38.1 53.9,38.1 C53,38.1 51.6,38 49.7,37.7 C47.8,37.4 46.1,37.1 44.8,36.6 C43.4,36.1 42.2,35.1 41.1,33.6 C40,32.1 39.3,30.8 38.9,29.8 L38.1,28 C37.8,28.7 37.5,29.7 37,30.7 C36.5,31.8 35.8,33 34.7,34.2 C33.6,35.4 32.7,36.4 31.8,37.1 L31,37.7 C30.7,37.9 30.6,37.9 30.6,37.7 C30.6,37.5 30.6,37.3 30.7,37.2 L31.4,36.4 C31.8,35.9 32.5,35.1 33.2,33.9 C33.9,32.7 34.5,31.4 35,30.1 C35.5,28.8 35.8,27.5 36,26.3 C36.2,25.1 36.4,24.1 36.5,23.4 L36.6,22 C36.7,21.4 36.7,21.1 36.7,21.1 C36.7,21.1 36.7,21.1 36.8,21.2 C36.9,21.3 37,21.3 37.3,21.5 L39.9,22.9 C40,22.9 40,23 40,23.1 C40,23.2 40,23.3 39.8,23.4 L39.1,23.9 C38.8,25 38.5,26 38.3,27 C38.7,28 39.3,28.9 39.9,29.7 C40.5,30.5 41.4,31.4 42.5,32.2 L42.5,19.5 L31.7,19.5 C31.4,19.5 31.3,19.3 31.3,18.9 C31.3,18.5 31.5,18.3 31.7,18.3 L51.8,18.3 L51.8,18.4 Z M38.8,15 L38.8,16 C38.8,16.3 38.8,16.5 38.7,16.7 C38.6,16.9 38.5,17 38.2,17.1 C37.9,17.2 37.6,17.3 37.2,17.3 C36.8,17.3 36.5,17.2 36.5,17.1 C36.5,17 36.4,16.8 36.4,16.6 L36.5,13.6 L36.5,4.5 L36.4,1.8 C36.4,1.7 36.5,1.7 36.5,1.7 C36.5,1.7 36.6,1.7 36.9,1.9 L39,3.1 L47.6,3.1 L48,2 C48.2,1.6 48.4,1.4 48.4,1.3 C48.5,1.3 48.6,1.3 48.7,1.4 L50.8,3.5 C51,3.7 51.1,3.8 51.1,4 C51.1,4.2 51,4.3 50.8,4.5 L50.1,5.2 L50.1,12.1 L50.2,15.5 C50.1,15.8 50,16.1 49.7,16.4 C49.5,16.7 49.1,16.8 48.5,16.8 C47.9,16.8 47.6,16.8 47.5,16.6 C47.4,16.4 47.3,16.3 47.3,16 L47.3,15 L38.8,15 Z M38.8,4.2 L38.8,8.4 L47.6,8.4 L47.6,4.2 L38.8,4.2 Z M38.8,9.5 L38.8,13.8 L47.6,13.8 L47.6,9.5 L38.8,9.5 Z" id="形状"></path>
                <path d="M64.5,18 L60,18 C59.8,18 59.7,17.8 59.6,17.4 C59.6,17 59.7,16.8 60,16.8 L64.5,16.8 L65,16 C65.2,15.6 65.3,15.5 65.4,15.5 C65.5,15.5 65.7,15.6 66,16 L67.3,17.2 C67.5,17.4 67.6,17.5 67.7,17.7 C67.8,17.9 67.8,18 67.8,18 C67.8,18.1 67.7,18.2 67.5,18.5 L66.9,19.1 L66.9,30.6 C68.6,31.6 69.7,32.2 70.2,32.5 C70.7,32.8 71.4,33 72.5,33.3 C73.5,33.6 74.8,33.7 76.4,33.7 C79.7,33.7 82.7,33.4 85.2,32.8 L86.3,32.5 C86.4,32.5 86.5,32.5 86.6,32.5 C86.7,32.5 86.7,32.6 86.8,32.6 C86.9,32.6 86.8,32.7 86.8,32.7 L86.8,32.8 C86.8,32.8 86.7,32.9 86.6,33 L86.2,33.4 C86,33.6 85.8,33.9 85.6,34.2 C85.5,34.5 85.4,34.8 85.3,35.1 C85.2,35.4 85.2,35.7 85.1,36 C85.1,36.3 85,36.6 85,36.7 C85,36.8 84.9,36.9 84.8,37 C84.7,37.1 84.5,37.1 84.3,37.1 C84,37.1 83.6,37.1 82.8,37.2 C82,37.3 81.3,37.3 80.4,37.3 C79.3,37.3 77.9,37.2 76.2,37.1 C74.5,37 73.3,36.8 72.4,36.5 C71.5,36.2 70.8,35.9 70.3,35.5 C69.8,35.1 69.1,34.5 68.1,33.5 C67.1,32.5 66.3,32 65.5,31.9 C64.7,31.8 63.7,32.9 62.5,35.1 L61.9,36.2 C61.8,36.4 61.7,36.5 61.7,36.5 C61.7,36.5 61.6,36.4 61.5,36.1 L60.2,33.2 C60.1,33 60.1,32.9 60.1,32.8 C60.1,32.7 60.2,32.6 60.4,32.5 L61.4,31.9 C62.5,31.2 63.2,30.9 63.4,30.8 L64.6,30.4 L64.5,18 L64.5,18 Z M62.2,4.6 C62.1,4.4 62,4.3 62,4.1 C62,4 62.1,3.9 62.3,3.9 C62.3,3.9 62.4,3.9 62.5,3.9 C62.6,3.9 62.7,4 63.1,4.1 C63.4,4.2 63.8,4.3 64.3,4.6 C64.8,4.9 65.3,5.2 65.6,5.5 C65.9,5.8 66.3,6.3 66.5,6.8 C66.8,7.3 66.9,7.9 66.9,8.5 C66.9,9.1 66.7,9.6 66.4,10.1 C66.1,10.6 65.7,10.9 65.1,10.9 C64.8,10.9 64.5,10.8 64.2,10.5 C64,10.3 63.8,10 63.7,9.7 C63.6,9.4 63.6,8.9 63.5,8.2 C63.4,7.4 63.3,6.8 63.2,6.4 C63,5.9 62.9,5.6 62.8,5.4 C62.7,5.3 62.5,5 62.2,4.6 Z M79.2,10.4 L81,11.6 C81.4,11.9 81.6,12.1 81.7,12.1 C81.8,12.1 81.8,12.3 81.8,12.4 C81.8,12.5 81.7,12.6 81.4,12.8 L80.8,13.1 C79.6,16.1 79,17.8 78.8,18.2 L78,20 C79,21.1 79.9,22.1 80.5,22.9 C81.1,23.7 81.7,24.7 82.3,25.9 C82.9,27.1 83.1,28.1 83.1,28.8 C83.1,29.2 82.9,29.7 82.7,30.2 C82.5,30.8 82.1,31.1 81.5,31.1 C81.1,31.1 80.8,31 80.6,30.7 C80.4,30.4 80.1,29.9 79.9,29.3 L79.3,27.2 C79.1,26.7 78.9,26.1 78.5,25.1 C78.1,24.2 77.8,23.5 77.5,23 L76.9,22.1 C75.7,24 74.6,25.5 73.8,26.4 C73,27.4 71.9,28.4 70.5,29.6 L69.6,30.4 C69.3,30.6 69.1,30.8 69,30.8 L68.9,30.8 L68.8,30.7 C68.8,30.7 68.8,30.6 68.8,30.5 C68.8,30.4 68.9,30.3 69,30.1 L69.5,29.6 L70.3,28.6 C71.2,27.5 72.2,26.1 73.2,24.4 C74.2,22.7 74.9,21.2 75.5,19.9 C73.9,17.8 72.4,16.2 71.2,15.1 L70.3,14.3 C70.2,14.2 70.2,14.2 70.1,14.1 C70,14 70,13.9 70,13.9 C70,13.8 70,13.7 70.1,13.7 C70.2,13.7 70.2,13.7 70.3,13.7 L71.1,14.3 C72.3,15.1 73.2,15.8 73.9,16.2 C74.6,16.6 75.3,17.3 76.2,18.1 C76.6,17 77,15.8 77.4,14.4 C77.8,13 78.1,12.1 78.2,11.6 C78.3,11.1 78.4,10.7 78.5,10.4 L67.8,10.4 C67.6,10.4 67.5,10.2 67.5,9.8 C67.5,9.4 67.6,9.2 67.8,9.2 L82,9.2 L82.9,7.6 C83.2,7.1 83.4,6.9 83.4,6.9 C83.4,6.9 83.6,7 83.9,7.3 L85.7,9.2 C86.1,9.6 86.3,9.9 86.3,10.1 C86.3,10.3 86.2,10.4 86.1,10.4 L79.2,10.4 L79.2,10.4 Z M72.9,2.3 C72.8,2.2 72.8,2.1 72.8,2 C72.8,1.9 72.9,1.8 73.1,1.8 C73.3,1.8 73.9,2 74.9,2.5 C75.9,3 76.6,3.6 77,4.4 C77.4,5.2 77.6,5.9 77.6,6.6 C77.6,7.3 77.4,7.8 77.1,8.4 C76.8,8.9 76.3,9.2 75.8,9.2 C75.4,9.2 75,9 74.8,8.7 C74.5,8.4 74.4,8.1 74.3,7.8 C74.2,7.5 74.2,7 74.2,6.2 C74.2,5.4 74.1,4.8 74,4.4 C73.9,4 73.7,3.7 73.6,3.4 C73.4,3.1 73.2,2.7 72.9,2.3 Z" id="形状"></path>
                <path d="M104.5,5.3 C102,9.6 100,12.8 98.7,14.7 C97.4,16.6 95.9,18.5 94.2,20.3 C92.5,22.1 91.4,23.2 90.9,23.7 L89.8,24.7 C89.7,24.8 89.7,24.8 89.6,24.8 C89.5,24.8 89.5,24.8 89.5,24.7 C89.5,24.6 89.5,24.6 89.5,24.5 L89.5,24.4 C89.5,24.4 89.5,24.3 89.6,24.2 L90.6,22.8 C91.4,21.7 92.3,20.6 93.2,19.3 C94.1,18 95.2,16.2 96.5,13.9 C97.8,11.5 98.9,9.5 99.7,7.6 C100.5,5.8 101,4.6 101.2,4.1 L101.9,2.2 L102.1,1.4 C102.1,1.3 102.2,1.3 102.3,1.2 C102.4,1.2 102.6,1.3 103,1.7 L105.7,4 C105.9,4.2 106,4.3 106,4.5 C106,4.6 105.9,4.7 105.9,4.8 C105.8,4.9 105.7,5 105.6,5 L104.5,5.3 Z M111.1,31.7 C110.7,30.9 110.4,30.3 110.2,29.8 C109.9,29.3 109.6,28.7 109.2,28.1 C108.8,27.4 108.4,26.9 108,26.5 C107.7,26.1 107.4,25.9 107.3,25.7 C107.2,25.5 107.2,25.5 107.2,25.3 C107.2,25.1 107.3,25.1 107.4,25.1 C107.5,25.1 107.7,25.1 107.8,25.2 C107.9,25.3 108.5,25.7 109.8,26.6 C111.1,27.5 112.3,28.8 113.4,30.5 C114.6,32.3 115.1,33.9 114.9,35.5 C114.7,37 114.2,37.8 113.4,37.7 C112.9,37.7 112.4,37.2 112.1,36.2 L111.8,34.3 L111.4,32.5 C110.7,32.7 109.9,32.9 109.1,33.1 C108.3,33.3 106.4,33.7 103.1,34.4 C99.9,35.1 97.8,35.6 96.7,36 L95.2,36.6 L94.4,37 C94.3,37 94.2,36.8 94,36.4 L92.8,33.2 L92.7,32.7 L92.7,32.6 C92.7,32.6 92.8,32.5 92.9,32.4 C93,32.4 93.3,32.2 93.9,32 C94.5,31.8 95.4,31 96.4,29.7 C97.5,28.4 98.4,27 99.3,25.5 C100.2,24 101.1,22.4 102.1,20.5 C103.1,18.6 103.8,17.2 104.2,16.4 C104.6,15.6 104.9,14.7 105.1,13.9 L105.4,12.9 L105.6,12.2 C105.7,12.1 105.9,12.1 106.2,12.4 L109,14.7 C109.2,14.9 109.3,15.1 109.3,15.3 C109.3,15.5 109.2,15.6 109,15.7 L107.8,16.1 C103.7,22.8 100.6,27.4 98.4,30 L96.2,32.6 C101.1,32.4 106.1,32.1 111.1,31.7 Z" id="形状"></path>
                <path d="M119.3,14.6 C119.1,14.6 119,14.5 118.9,14.4 C118.8,14.3 118.8,14.1 118.8,13.9 C118.8,13.7 118.9,13.5 119.2,13.5 L129.1,13.5 C129.1,12.9 129.1,12.4 129.1,12.1 L129.1,10.7 C129.1,10 129.1,9 129.1,7.8 C129.1,6.6 129.1,5.8 129.1,5.2 L129,3.1 L128.9,1.4 C129,1.3 129.1,1.2 129.2,1.2 L129.7,1.3 L132.4,2 C132.7,2.1 132.9,2.2 133,2.3 C133.1,2.4 133.1,2.5 133.1,2.5 C133.1,2.5 133.1,2.6 133,2.8 C132.9,2.9 132.9,3 132.8,3.1 L132.1,3.7 C132,6.2 132,8.1 132,9.3 C132,10.5 132,11.2 132,11.4 L132,13.4 L139.8,13.4 L140.9,11.4 C141.1,10.9 141.3,10.7 141.4,10.7 C141.5,10.7 141.7,10.9 142,11.2 L144.1,13.5 C144.4,13.8 144.5,14 144.5,14.2 C144.5,14.4 144.3,14.5 143.9,14.5 L132.8,14.5 C133,15.8 133.3,17.5 133.8,19.4 C134.3,21.3 135.4,23.9 137.2,27.2 C139.1,30.5 141.4,32.7 144.2,33.9 L144.9,34.2 C145.1,34.3 145.3,34.5 145.3,34.6 C145.3,34.7 145.3,34.7 145.2,34.8 C145.1,34.9 145.1,34.9 145,34.9 L144.5,35 C143.7,35.2 143.2,35.5 142.9,35.7 C142.6,36 142.3,36.4 142,36.9 C141.7,37.4 141.5,37.7 141.4,37.7 C141.3,37.7 141.1,37.5 140.8,37.2 L139.6,36 C139.4,35.8 139,35.4 138.4,34.6 C137.8,33.8 137.2,33 136.7,32.3 C136.2,31.5 135.6,30.3 134.9,28.5 C134.2,26.7 133.7,25 133.4,23.6 C133.1,22.2 132.9,20.8 132.7,19.6 C132.5,18.4 132.4,17.2 132.3,16.1 L132.2,14.4 L132,14.4 C132,15.2 131.9,16 131.9,17 C131.9,18 131.7,19.4 131.4,21.3 C131.1,23.2 130.7,25 130.1,26.7 C129.5,28.4 128.5,30 127.2,31.5 C125.9,33 124.7,34.2 123.5,35.1 C122.3,36 121.2,36.8 120,37.4 L119.2,37.9 C119,38 118.9,38 118.9,38 C118.8,38 118.8,38 118.8,37.9 C118.8,37.9 118.8,37.8 118.8,37.7 C118.8,37.6 118.9,37.5 119,37.4 L119.6,36.9 L120.9,35.9 C121.6,35.3 122.5,34.4 123.4,33.3 C124.3,32.2 125.2,30.9 126,29.3 C126.8,27.7 127.5,25.8 128,23.4 C128.5,21.1 128.9,18.7 129,16.4 L129.1,14.4 L119.4,14.4 L119.3,14.4 L119.3,14.6 Z" id="路径"></path>
                <path d="M165,11.8 L169.4,11.8 L170.5,9.7 C170.7,9.3 170.8,9.2 170.9,9.2 C171,9.2 171.1,9.4 171.3,9.6 L173.3,12.1 C173.4,12.3 173.5,12.4 173.5,12.5 C173.5,12.6 173.5,12.7 173.5,12.8 C173.5,12.9 173.4,12.9 173.3,12.9 L171.1,12.9 L165,12.9 L165,35.3 C165,35.6 164.9,36 164.8,36.5 C164.7,37 164.1,37.4 163,37.8 C161.9,38.2 161.3,38.3 161.2,38.1 C161.2,38.1 161.2,37.9 161.1,37.6 C161,37.3 161,36.9 160.7,36.2 C160.4,35.6 160,35.1 159.4,34.7 L158.5,34.2 C158.3,34.1 158.3,34 158.3,33.8 C158.3,33.6 158.4,33.5 158.6,33.6 L159.2,33.7 C159.9,33.9 160.5,33.9 161.1,33.9 C161.9,33.9 162.2,33.6 162.2,33 L162.2,17.6 C160.6,20 158.8,22.4 156.7,24.9 C154.6,27.4 152.5,29.4 150.4,31 L149,32 C148.8,32.1 148.7,32.1 148.7,32.1 C148.7,32.1 148.6,31.9 148.6,31.8 C148.6,31.7 148.7,31.6 148.8,31.5 L149.4,30.9 C150.7,29.7 151.9,28.3 153,26.8 C154.1,25.3 155.4,23.2 156.8,20.9 C158.2,18.5 159,16.9 159.5,16.1 C160,15.3 160.4,14.2 160.9,13 L148.9,13 C148.7,13 148.5,12.8 148.5,12.4 C148.5,12 148.6,11.8 148.9,11.8 L162.3,11.8 L162.3,5.8 L162.2,1.7 C162.3,1.7 162.3,1.6 162.3,1.6 C162.3,1.6 162.6,1.7 163.1,1.9 L165.8,3 C166,3.1 166.1,3.2 166.1,3.3 C166.1,3.4 166,3.6 165.8,3.8 L165.1,4.4 L165.1,11.8 L165,11.8 Z" id="路径"></path>
                <path d="M178.1,14.6 C177.9,14.6 177.8,14.5 177.7,14.4 C177.6,14.3 177.6,14.1 177.6,13.9 C177.6,13.7 177.7,13.5 178,13.5 L187.9,13.5 C187.9,12.9 187.9,12.4 187.9,12.1 L187.9,10.7 C187.9,10 187.9,9 187.9,7.8 C187.9,6.6 187.9,5.8 187.9,5.2 L187.8,3.1 L187.7,1.4 C187.8,1.3 187.9,1.2 188,1.2 L188.5,1.3 L191.2,2 C191.5,2.1 191.7,2.2 191.8,2.3 C191.9,2.4 191.9,2.5 191.9,2.5 C191.9,2.5 191.9,2.6 191.8,2.8 C191.7,2.9 191.7,3 191.6,3.1 L190.9,3.7 C190.8,6.2 190.8,8.1 190.8,9.3 C190.8,10.5 190.8,11.2 190.8,11.4 L190.8,13.4 L198.6,13.4 L199.7,11.4 C199.9,10.9 200.1,10.7 200.2,10.7 C200.3,10.7 200.5,10.9 200.8,11.2 L202.9,13.5 C203.2,13.8 203.3,14 203.3,14.2 C203.3,14.4 203.1,14.5 202.7,14.5 L191.6,14.5 C191.8,15.8 192.1,17.5 192.6,19.4 C193.1,21.3 194.2,23.9 196,27.2 C197.9,30.5 200.2,32.7 203,33.9 L203.7,34.2 C203.9,34.3 204.1,34.5 204.1,34.6 C204.1,34.7 204.1,34.7 204,34.8 C203.9,34.9 203.9,34.9 203.8,34.9 L203.3,35 C202.5,35.2 202,35.5 201.7,35.7 C201.4,36 201.1,36.4 200.8,36.9 C200.5,37.4 200.3,37.7 200.2,37.7 C200.1,37.7 199.9,37.5 199.6,37.2 L198.4,36 C198.2,35.8 197.8,35.4 197.2,34.6 C196.6,33.8 196,33 195.5,32.3 C195,31.5 194.4,30.3 193.7,28.5 C193,26.7 192.5,25 192.2,23.6 C191.9,22.2 191.7,20.8 191.5,19.6 C191.3,18.4 191.2,17.2 191.1,16.1 L191,14.4 L190.8,14.4 C190.8,15.2 190.7,16 190.7,17 C190.7,18 190.5,19.4 190.2,21.3 C189.9,23.2 189.5,25 188.9,26.7 C188.3,28.4 187.3,30 186,31.5 C184.7,33 183.5,34.2 182.3,35.1 C181.1,36 180,36.8 178.8,37.4 L178,37.9 C177.8,38 177.7,38 177.7,38 C177.6,38 177.6,38 177.6,37.9 C177.6,37.9 177.6,37.8 177.6,37.7 C177.6,37.6 177.7,37.5 177.8,37.4 L178.4,36.9 L179.7,35.9 C180.4,35.3 181.3,34.4 182.2,33.3 C183.1,32.2 184,30.9 184.8,29.3 C185.6,27.7 186.3,25.8 186.8,23.4 C187.3,21.1 187.7,18.7 187.8,16.4 L187.9,14.4 L178.2,14.4 L178.1,14.4 L178.1,14.6 L178.1,14.6 Z" id="路径"></path>
                <path d="M213.6,3.8 L227.4,3.8 L228.2,2.2 C228.2,2.1 228.3,2.1 228.3,2.1 C228.3,2.1 228.6,2.2 229,2.6 L230.8,4.2 C231,4.4 231.1,4.6 231.1,4.7 C231.1,4.8 231.1,4.8 231.1,4.9 C231.1,5 230.8,5.3 230.4,5.8 L230.4,34 C230.4,34.5 230.4,34.9 230.4,35.1 C230.4,35.3 230.3,35.7 230,36.1 C229.8,36.5 229.3,36.8 228.5,37.1 C227.7,37.4 227.2,37.5 226.8,37.4 C226.7,37.4 226.7,37.4 226.6,37.3 C226.5,37.2 226.5,37.1 226.6,36.8 C226.6,36.5 226.6,36.2 226.6,36.1 C226.5,35.8 226.4,35.5 226.2,35.2 C226,34.9 225.8,34.7 225.6,34.5 C225.4,34.3 225.1,34.2 224.9,34.1 C224.7,34 224.5,33.9 224.4,33.9 C224.3,33.9 224.3,33.7 224.3,33.6 C224.3,33.5 224.3,33.4 224.4,33.3 C224.4,33.3 224.7,33.3 225.2,33.4 C225.7,33.5 226.2,33.6 226.7,33.5 C227.2,33.5 227.5,33.4 227.6,33.3 C227.7,33.1 227.7,32.9 227.7,32.6 L227.7,22.6 L221.4,22.6 L221.4,32.8 L221.5,35.2 C221.5,35.4 221.4,35.6 221.4,35.8 C221.4,36 221.2,36.1 221,36.3 C220.8,36.4 220.5,36.5 220.3,36.6 C220.1,36.7 219.8,36.7 219.8,36.7 C219.7,36.7 219.5,36.7 219.4,36.6 C219.3,36.5 219.1,36.4 219.1,36.3 C219.1,36.2 219,36 219,35.7 L219.1,33.4 L219.1,22.6 L213.6,22.6 C213.5,23.6 213.3,24.6 213.2,25.7 C213.1,26.8 212.9,27.9 212.6,29 C212.4,30.1 212,31.1 211.5,32.1 C211,33.1 210.5,34 210,34.9 C209.5,35.8 209.1,36.4 208.8,36.7 C208.5,37 208.3,37.3 208,37.6 C207.7,37.9 207.6,38.1 207.5,38.2 C207.4,38.3 207.4,38.4 207.3,38.3 C207.3,38.3 207.2,38.3 207.2,38.2 C207.2,38.1 207,38.1 207,38 C207,37.9 207,37.8 207.1,37.7 L207.8,36.6 C207.9,36.4 208.1,36 208.4,35.4 C208.7,34.8 208.9,34.4 209,34.1 C209.1,33.8 209.3,33.2 209.6,32.3 C209.9,31.4 210.1,30.4 210.3,29.5 C210.5,28.6 210.6,27.6 210.7,26.4 C210.8,25.3 210.9,24.1 210.9,22.8 C211,21.6 211,19.6 211,16.8 L211,9.5 L210.9,4.5 L210.7,2.1 C210.7,2 210.8,2 210.9,1.9 L212.2,2.8 L213.6,3.8 Z M218.9,21.4 L218.9,13.8 L213.6,13.8 L213.4,21.4 L218.9,21.4 Z M218.9,12.7 L218.9,5 L213.6,5 L213.6,12.7 L218.9,12.7 Z M227.6,12.7 L227.6,5 L221.6,5 L221.4,5.4 L221.4,12.7 L227.6,12.7 L227.6,12.7 Z M227.6,21.4 L227.6,13.8 L221.3,13.8 L221.3,21.4 L227.6,21.4 Z" id="形状"></path>
            </g>
            <g id="编组" transform="translate(71.000000, 0.000000)">
                <path d="M4.2,6.2 C3.6,7 3,7.6 2.5,8.2 C2,8.8 1.5,9.1 1.2,9.4 C0.9,9.7 0.7,9.8 0.7,9.8 L0.4,10 L0.3,10.1 L0.2,10.1 C0.2,10.1 0.2,10.1 0.2,10 C0.2,9.9 0.2,9.9 0.3,9.9 L0.5,9.6 C1,9 1.6,8.2 2.1,7.4 C2.6,6.6 3.2,5.5 3.9,4.3 C4.6,3.1 5,2.1 5.2,1.3 L5.4,0.9 L5.5,0.5 L5.5,0.5 L5.8,0.7 L7.3,1.6 C7.4,1.6 7.4,1.7 7.4,1.7 L7.4,1.8 C7.4,1.8 7.4,1.9 7.3,2 L6.8,2.3 L6.7,2.4 C7.2,3.6 7.7,4.5 8.2,5.1 C8.7,5.7 9.2,6.1 9.5,6.4 C9.8,6.7 10.3,7 10.7,7.3 C11.1,7.6 11.6,7.8 12,7.9 L12.4,8 L13,8 C13.1,8 13.1,8.1 13.1,8.1 L13.1,8.2 C13.1,8.3 13.1,8.3 13,8.3 L12.8,8.4 C12.6,8.5 12.4,8.6 12.3,8.7 C12.2,8.8 12.1,8.9 11.9,9.1 C11.7,9.3 11.7,9.4 11.6,9.6 C11.5,9.8 11.5,9.8 11.5,9.9 C11.5,10 11.5,10 11.4,9.9 C11.3,9.9 10.9,9.6 10.1,9 C9.3,8.4 8.8,7.8 8.3,7.1 C7.8,6.4 7.5,5.7 7.2,5 C6.9,4.3 6.7,3.7 6.6,3.2 L6.4,2.5 C5.6,4.2 4.8,5.4 4.2,6.2 Z M7.3,9.1 C7.3,9.1 7.2,9.2 7.2,9.3 C7.2,9.4 7.1,9.5 7,9.5 L7,12.4 L8.3,12.4 L8.8,11.5 C8.9,11.3 9,11.2 9,11.2 C9,11.2 9.1,11.3 9.3,11.5 L10.2,12.5 C10.3,12.6 10.4,12.7 10.3,12.8 C10.2,12.9 10.2,12.9 10.1,12.9 L7,12.9 L7,16.5 L10,16.5 L10.7,15.5 L10.8,15.3 C10.9,15.2 10.9,15.1 10.9,15.1 C10.9,15.1 11,15.2 11.2,15.4 L12.2,16.5 C12.3,16.6 12.3,16.7 12.3,16.7 L12.3,16.8 C12.3,16.8 12.2,16.9 12.1,16.9 L11.4,16.9 L0.8,16.9 C0.7,16.9 0.6,16.8 0.6,16.6 C0.6,16.4 0.7,16.3 0.8,16.3 L5.6,16.3 L5.6,13 L2.7,13 L2.6,13 C2.6,13 2.5,13 2.5,12.9 C2.5,12.8 2.5,12.8 2.5,12.6 C2.5,12.4 2.5,12.4 2.6,12.4 L5.6,12.4 L5.6,9.1 L2.6,9.1 C2.5,9.1 2.4,9 2.4,8.8 C2.4,8.6 2.4,8.5 2.6,8.5 L7.5,8.5 L8,7.7 C8.1,7.5 8.2,7.4 8.2,7.4 C8.2,7.4 8.3,7.5 8.5,7.6 L9.4,8.6 C9.5,8.7 9.5,8.8 9.5,8.9 C9.5,9 9.4,9 9.3,9 L8.4,9 L7.3,9 L7.3,9.1 Z" id="形状"></path>
                <path d="M19.3,3 L19.6,2.3 C19.7,2 19.8,1.9 19.8,1.9 C19.8,1.9 19.9,2 20.1,2.2 L20.7,3 C20.8,3.2 20.9,3.3 20.9,3.3 C20.9,3.3 20.9,3.4 20.8,3.4 C20.7,3.4 20.7,3.4 20.7,3.4 L19.5,3.4 L19.5,3.4 L18.8,3.4 L19.9,4.2 C20,4.3 20.1,4.3 20.1,4.4 C20.1,4.5 20.1,4.5 20.1,4.5 C20.1,4.5 20,4.6 19.9,4.6 L19.7,5 C19.3,6 19,6.7 18.7,7.2 L19.5,7.2 L19.9,6.5 C20,6.3 20.1,6.2 20.1,6.2 C20.1,6.2 20.1,6.2 20.2,6.2 C20.3,6.2 20.3,6.3 20.4,6.4 L21,7.2 C21.1,7.4 21.2,7.5 21.2,7.6 C21.2,7.6 21.2,7.7 21.1,7.7 C21,7.7 21,7.8 20.9,7.8 L18.7,7.8 L18.6,7.9 C18.6,7.9 18.5,8 18.4,8.1 L18.4,10.1 L19,10.1 L19.4,9.3 C19.5,9.2 19.5,9.1 19.6,9.1 C19.7,9.1 19.7,9.2 19.9,9.4 L20.6,10.3 C20.7,10.4 20.7,10.4 20.7,10.5 L20.7,10.6 L20.6,10.6 L18.4,10.6 L18.4,15.8 C18.4,16.1 18.4,16.3 18.3,16.5 C18.2,16.7 18.1,16.8 18,16.9 C17.9,17 17.7,17.1 17.5,17.2 C17.3,17.3 17.1,17.3 17,17.3 C17,17.3 17,17.3 16.9,17.3 C16.8,17.3 16.9,17.3 16.9,17.2 C16.9,17.1 16.9,17.1 16.9,17 C16.9,16.9 16.9,16.7 16.8,16.5 C16.7,16.3 16.6,16.1 16.4,15.9 L16,15.7 C15.9,15.6 15.9,15.6 15.9,15.5 C15.9,15.4 16,15.4 16.1,15.4 L16.5,15.5 C16.6,15.5 16.7,15.5 16.8,15.5 C16.9,15.5 16.9,15.5 17,15.5 L17.2,15.5 C17.4,15.5 17.5,15.5 17.5,15.3 L17.5,10.7 L15,10.7 L14.9,10.7 C14.8,10.6 14.8,10.5 14.8,10.4 C14.8,10.3 14.9,10.2 15,10.2 L17.6,10.2 L17.6,7.7 L14.9,7.7 L14.8,7.7 C14.8,7.7 14.7,7.7 14.7,7.6 C14.7,7.5 14.7,7.5 14.7,7.4 C14.7,7.3 14.8,7.2 14.9,7.2 L18.5,7.2 C18.6,6.8 18.7,6.2 18.8,5.5 C18.9,4.8 19,4.3 19,4.1 L19.1,3.6 L15.1,3.6 C15,3.6 14.9,3.5 14.9,3.3 C14.9,3.1 14.9,3 15.1,3 L19.3,3 Z M16.6,12.3 C16.4,12.9 16.2,13.2 16.1,13.4 C16,13.6 15.8,14 15.5,14.6 C15.2,15.2 15,15.6 14.9,15.7 L14.6,16.1 C14.5,16.2 14.5,16.2 14.5,16.2 L14.5,16.2 C14.5,16.2 14.5,16.2 14.5,16.1 C14.5,16 14.5,16 14.5,15.9 L14.7,15.5 C14.7,15.4 14.8,15.2 14.9,14.9 C15,14.6 15.1,14.3 15.1,14.2 C15.1,14.1 15.2,13.8 15.3,13.3 C15.4,12.8 15.5,12.4 15.5,12.2 L15.6,11.6 L15.6,11.1 C15.6,11.1 15.6,11.1 15.6,11 L15.8,11.1 L16.8,11.7 C16.9,11.8 17,11.8 17,11.9 C17,11.9 17,11.9 17,12 C17,12.1 17,12.1 16.9,12.1 L16.6,12.3 Z M15.9,4.6 L15.8,4.3 C15.8,4.3 15.8,4.3 15.8,4.2 C15.8,4.1 15.8,4.1 15.8,4.1 C15.8,4 15.8,4 15.9,4 C16,4 16.2,4.2 16.6,4.6 C17,5 17.3,5.5 17.2,6.1 C17.2,6.3 17.1,6.6 17,6.8 C16.9,7 16.7,7.1 16.5,7.1 C16.2,7.1 16.1,7 16,6.8 C15.9,6.6 16,6.3 16,6.1 C16,5.9 16,5.7 16,5.6 C16,5.2 16,4.8 15.9,4.6 Z M16.6,0.6 L16.4,0.4 L16.4,0.3 L16.4,0.2 C16.4,0.2 16.4,0.1 16.5,0.1 C16.5,0.1 16.7,0.1 16.9,0.2 C17.1,0.3 17.4,0.4 17.7,0.6 C18,0.8 18.2,1 18.2,1.4 C18.2,1.8 18.3,1.9 18.3,2 C18.3,2.1 18.3,2.1 18.3,2.2 C18.3,2.4 18.2,2.5 18.1,2.7 C18,2.9 17.8,3 17.6,3 C17.4,3 17.2,2.9 17.1,2.8 C17,2.7 17,2.5 16.9,2.3 L17,1.5 C17,1.3 17,1.2 16.9,1.1 C16.8,1 16.8,0.8 16.6,0.6 Z M25.1,6.8 L25.4,6.1 C25.5,5.8 25.6,5.7 25.6,5.7 C25.6,5.7 25.6,5.7 25.7,5.7 C25.8,5.7 25.8,5.8 26,6.1 L26.7,7 C26.8,7.1 26.8,7.2 26.8,7.2 L26.8,7.3 C26.8,7.4 26.8,7.5 26.7,7.5 L25.2,7.5 C25.1,7.6 25.1,7.7 25.1,7.7 L25,7.8 L25,16 L25,17.2 C24.9,17.4 24.8,17.6 24.7,17.7 C24.6,17.8 24.4,17.8 24.2,17.8 C24,17.8 23.9,17.8 23.9,17.7 C23.9,17.6 23.8,17.5 23.8,17.4 L23.9,15.4 L23.9,7.4 L22.6,7.4 C22.6,8.3 22.6,9 22.5,9.7 C22.4,10.4 22.4,10.9 22.4,11.5 C22.4,12.1 22.2,12.7 22,13.4 C21.8,14.1 21.5,14.8 21,15.4 C20.5,16 20.2,16.4 20,16.7 C19.8,17 19.5,17.2 19.4,17.3 L19.1,17.5 C19,17.5 19,17.6 19,17.6 L18.9,17.6 C18.9,17.6 18.9,17.6 18.9,17.5 C18.9,17.4 18.9,17.5 18.9,17.4 C18.9,17.3 18.9,17.3 19,17.3 L19.3,17 C19.9,16.3 20.4,15.5 20.8,14.7 C21.2,13.9 21.4,13 21.5,12.1 C21.6,11.2 21.7,10.4 21.7,9.6 C21.7,8.8 21.7,7.9 21.7,6.8 C21.7,6.1 21.7,5.4 21.7,4.7 C21.7,4 21.7,3.6 21.7,3.6 L21.7,3.1 L21.6,1.7 L21.6,1.7 C21.6,1.7 21.7,1.8 21.9,1.9 L22.9,2.6 C23.7,2.2 24.3,1.7 24.8,1.3 L25.1,1 L25.3,0.7 L25.4,0.7 L25.6,1 L26.4,1.9 C26.5,2.1 26.6,2.2 26.6,2.2 C26.6,2.3 26.5,2.3 26.5,2.3 L26.1,2.4 L24.3,2.8 L22.8,3 C22.8,3.7 22.8,4.3 22.8,4.6 L22.8,5.7 L22.8,6.8 L25.1,6.8 Z M19,12.1 L18.9,11.9 C18.8,11.8 18.8,11.7 18.8,11.6 C18.8,11.5 18.8,11.5 18.8,11.5 L18.8,11.5 C18.9,11.5 19.1,11.6 19.4,11.9 C19.7,12.2 20,12.5 20.1,12.7 C20.2,12.9 20.3,13.3 20.3,13.6 C20.3,13.8 20.2,14 20.1,14.2 C20,14.4 19.8,14.5 19.6,14.5 C19.4,14.5 19.2,14.4 19.2,14.2 C19.2,14 19.1,13.8 19.1,13.6 L19.1,13 C19.2,12.7 19.1,12.4 19,12.1 Z" id="形状"></path>
                <path d="M36.3,0.6 L36.6,0.6 L36.6,4.8 L36.2,4.8 C35.7,2.4 34.8,1.3 33.3,1.3 C31.2,1.3 30.2,3.6 30.2,8 C30.2,12.3 31.3,14.5 33.3,14.5 C34,14.5 34.6,14.3 35.4,13.8 L35.4,10.2 C35.4,9.4 35.2,9.3 34.2,9.2 L34.2,8.6 C35.1,8.7 35.5,8.7 36.1,8.7 C36.7,8.7 37.1,8.7 38,8.6 L38,9.1 C37,9.2 36.9,9.3 36.9,10.2 L36.9,13.7 C35.4,14.7 34.4,15.1 33.3,15.1 C30.4,15.1 28.6,12.3 28.6,7.8 C28.6,3.4 30.4,0.6 33.2,0.6 C34.2,0.6 35.1,1 35.8,1.8 L36.3,0.6 Z" id="路径"></path>
                <path d="M46.5,14.9 L39.1,14.9 L39.1,14.4 C40.3,14.3 40.4,14.1 40.4,13 L40.4,2.7 C40.4,1.6 40.2,1.4 39.1,1.3 L39.1,0.8 C40,0.9 40.5,0.9 41.2,0.9 C41.9,0.9 42.4,0.9 43.3,0.8 L43.3,1.3 C42.2,1.4 42,1.6 42,2.7 L42,12.9 C42,13.9 42.2,14.1 43,14.1 L44.2,14.1 C45.5,14.1 46,13.6 46.5,11.4 L46.9,11.4 L46.5,14.9 Z" id="路径"></path>
                <path d="M52.1,0.9 C53.3,0.9 54.2,1.2 54.7,1.9 C55.2,2.5 55.5,3.4 55.5,4.3 C55.5,5.8 54.8,6.8 53.5,7.4 C55.1,7.8 56,9.1 56,10.9 C56,12.4 55.3,13.8 54.2,14.4 C53.6,14.7 53,14.9 51.9,14.9 L47.7,14.9 L47.7,14.4 C48.9,14.3 49,14.1 49,13 L49,2.8 C49,1.7 48.8,1.5 47.7,1.4 L47.7,0.9 L52.1,0.9 Z M51.5,7.2 C52.5,7.2 53.1,6.9 53.5,6.3 C53.8,5.8 53.9,5.1 53.9,4.3 C53.9,3.2 53.6,2.3 53.1,1.9 C52.8,1.7 52.3,1.5 51.8,1.5 L50.6,1.5 L50.6,7.2 L51.5,7.2 Z M50.7,13.1 C50.7,14 50.9,14.2 51.7,14.2 L52.1,14.2 C53.6,14.2 54.5,13 54.5,10.9 C54.5,9.8 54.2,8.8 53.6,8.3 C53.3,8 52.7,7.9 52,7.9 L50.7,7.9 L50.7,13.1 Z" id="形状"></path>
                <path d="M62.9,10.6 C63.2,13.1 64.2,14.4 65.8,14.4 C67.1,14.4 68.1,13.3 68.1,11.7 C68.1,10.3 67.6,9.6 65.8,8.5 C63.3,7 62.7,6.1 62.7,4.3 C62.7,2.1 64,0.6 65.9,0.6 C66.8,0.6 67.5,0.9 68.1,1.7 L68.6,0.5 L68.9,0.5 L68.9,4.4 L68.5,4.4 C68.1,2.2 67.3,1.3 66.1,1.3 C64.9,1.3 64,2.4 64,3.8 C64,5 64.4,5.6 66.6,6.9 C68.9,8.3 69.5,9.2 69.5,11.1 C69.5,13.4 68.1,15 66.1,15 C65.1,15 64.3,14.6 63.5,13.8 L62.9,15.1 L62.6,15.1 L62.6,10.5 L62.9,10.5 L62.9,10.6 L62.9,10.6 Z" id="路径"></path>
                <path d="M77.8,0.8 C78.8,0.9 79.1,0.9 79.5,0.9 C79.9,0.9 80.3,0.9 81.1,0.8 L81.1,1.3 C79.9,1.4 79.8,1.6 79.8,2.7 L79.8,10.6 C79.8,11.9 79.7,12.6 79.2,13.4 C78.6,14.5 77.5,15.1 76,15.1 C74.6,15.1 73.4,14.4 72.7,13.3 C72.3,12.6 72.2,11.9 72.2,10.7 L72.2,2.7 C72.2,1.6 72,1.4 70.9,1.3 L70.9,0.8 C71.8,0.9 72.3,0.9 73,0.9 C73.7,0.9 74.2,0.9 75.1,0.8 L75.1,1.3 C74,1.4 73.8,1.6 73.8,2.7 L73.8,10.8 C73.8,11.9 73.9,12.5 74.1,13 C74.5,13.8 75.3,14.2 76.3,14.2 C77.2,14.2 78,13.9 78.4,13.3 C78.8,12.8 79.1,11.9 79.1,10.7 L79.1,2.7 C79.1,1.6 78.9,1.4 77.8,1.3 L77.8,0.8 L77.8,0.8 Z" id="路径"></path>
                <path d="M90.2,2.9 C90.3,2.5 90.4,2.1 90.4,2 C90.4,1.6 90.1,1.4 89.3,1.4 L89.3,0.8 C89.9,0.9 90.2,0.9 90.8,0.9 C91.4,0.9 91.8,0.9 92.4,0.8 L92.4,1.3 C91.5,1.4 91.2,1.6 90.9,2.5 L87.3,15.1 L86.9,15.1 L83.4,2.6 C83.1,1.6 82.9,1.4 81.9,1.3 L81.9,0.8 C82.7,0.9 83.1,0.9 83.9,0.9 C84.7,0.9 85.1,0.9 85.9,0.8 L85.9,1.3 C85.2,1.4 84.9,1.6 84.9,1.9 C84.9,2 84.9,2.3 85,2.6 L87.5,12 L90.2,2.9 Z" id="路径"></path>
            </g>
        </g>
    </g>
</svg>