<?xml version="1.0" standalone="no"?><!DOCTYPE svg PUBLIC "-//W3C//DTD SVG 1.1//EN" "http://www.w3.org/Graphics/SVG/1.1/DTD/svg11.dtd"><svg t="1580902093318" class="icon" viewBox="0 0 1024 1024" version="1.1" xmlns="http://www.w3.org/2000/svg" p-id="2108" xmlns:xlink="http://www.w3.org/1999/xlink" width="32" height="32"><defs><style type="text/css"></style></defs><path d="M229.98144 501.65888c1.12896-2.33728 2.63936-4.53504 4.57728-6.47424L684.33664 45.40928c9.28768-9.2864 24.34304-9.2864 33.62816 0l71.45984 71.45856c9.28512 9.2864 9.28512 24.34176 0 33.62816L427.92064 512l361.50528 361.504c9.2864 9.2864 9.2864 24.34432 0 33.62944l-71.45856 71.45856c-9.2864 9.2864-24.34176 9.28512-33.62816-0.00128L306.0224 600.27648c-0.00128-0.00128-0.00128-0.00256-0.00256-0.00256l-71.45856-71.45856c-0.58112-0.58112-1.12512-1.184-1.63328-1.80736C227.00544 519.74912 226.04032 509.81504 229.98144 501.65888L229.98144 501.65888z" p-id="2109" fill="#ffffff"></path></svg>