<?xml version="1.0" standalone="no"?><!DOCTYPE svg PUBLIC "-//W3C//DTD SVG 1.1//EN" "http://www.w3.org/Graphics/SVG/1.1/DTD/svg11.dtd"><svg t="1581405178239" class="icon" viewBox="0 0 1024 1024" version="1.1" xmlns="http://www.w3.org/2000/svg" p-id="1979" width="32" height="32" xmlns:xlink="http://www.w3.org/1999/xlink"><defs><style type="text/css"></style></defs><path d="M269.351474 343.397329c0 9.803981 4.127992 19.865961 11.093978 26.831948 6.965986 6.965986 16.769967 11.093978 26.831948 11.093978 10.06198 0 19.865961-4.127992 26.831947-11.093978 6.965986-6.965986 11.093978-16.769967 11.093979-26.831948 0-10.06198-4.127992-19.865961-11.093979-26.831947-6.965986-6.965986-16.769967-11.093978-26.831947-11.093979-9.803981 0-19.865961 4.127992-26.831948 11.093979-6.965986 7.223986-11.093978 17.027967-11.093978 26.831947z m295.151423 196.079617c0 7.997984 3.095994 15.47997 8.513984 21.155959 5.675989 5.417989 13.157974 8.513983 21.155959 8.513983 7.739985 0 15.47997-3.095994 20.897959-8.513983 5.675989-5.675989 8.771983-13.157974 8.771983-21.155959 0-7.739985-3.095994-15.47997-8.771983-20.897959-5.417989-5.417989-13.157974-8.771983-20.897959-8.771983s-15.47997 3.095994-21.155959 8.771983c-5.15999 5.417989-8.513983 13.157974-8.513984 20.897959z m-101.909801-196.079617c0 9.803981 4.127992 19.865961 11.093979 26.831948 6.965986 6.965986 16.769967 11.093978 26.831947 11.093978 9.803981 0 19.865961-4.127992 26.831948-11.093978 6.965986-6.965986 11.093978-16.769967 11.093978-26.831948 0-10.06198-4.127992-19.865961-11.093978-26.831947-6.965986-6.965986-17.027967-11.093978-26.831948-11.093979-10.06198 0-19.865961 4.127992-26.831947 11.093979-6.965986 7.223986-11.093978 17.027967-11.093979 26.831947z m-63.209876 318.629378c-34.055933 0-61.40388-6.965986-95.459814-13.673973l-95.459813 47.729906L235.55354 614.038801C167.441673 566.566893 126.419753 504.905014 126.419753 429.82716c0-129.773747 122.80776-231.941547 272.963467-231.941546 134.159738 0 251.807508 81.527841 275.285462 191.435626-8.771983-1.031998-17.543966-1.547997-26.315948-1.547997-129.515747 0-231.941547 96.749811-231.941547 215.945578 0 19.865961 3.095994 38.957924 8.513983 57.017888-8.513983 1.031998-17.027967 1.289997-25.54195 1.289998z m402.479214 95.717813l20.38196 68.111867-74.819854-41.02192c-27.347947 6.707987-54.695893 13.673973-82.04384 13.673973-129.773747 0-231.941547-88.751827-231.941547-198.143613 0-109.133787 102.1678-197.885614 231.941547-197.885613 122.549761 0 231.683547 89.009826 231.683548 197.885613 0.257999 61.66188-40.247921 116.099773-95.201814 157.379693z m-88.493827-218.267574c0 7.997984 3.095994 15.47997 8.771983 21.155959 5.417989 5.417989 13.157974 8.513983 20.897959 8.513983s15.47997-3.095994 20.897959-8.513983c5.417989-5.675989 8.771983-13.157974 8.771983-21.155959 0-7.739985-3.095994-15.47997-8.771983-20.897959-5.417989-5.417989-13.157974-8.771983-20.897959-8.771983s-15.47997 3.095994-20.897959 8.771983c-5.675989 5.417989-8.771983 13.157974-8.771983 20.897959z" p-id="1980" fill="#333333"></path></svg>