<?xml version="1.0" standalone="no"?><!DOCTYPE svg PUBLIC "-//W3C//DTD SVG 1.1//EN" "http://www.w3.org/Graphics/SVG/1.1/DTD/svg11.dtd"><svg t="1581315991714" class="icon" viewBox="0 0 1024 1024" version="1.1" xmlns="http://www.w3.org/2000/svg" p-id="6860" width="44" height="44" xmlns:xlink="http://www.w3.org/1999/xlink"><defs><style type="text/css"></style></defs><path d="M513.344 31.104c-266.133 0-481.856 215.723-481.856 481.835 0 266.133 215.723 481.856 481.856 481.856 266.112 0 481.856-215.723 481.856-481.856 0-266.112-215.744-481.835-481.856-481.835z m-87.381 595.35c-25.984 0-46.891-5.313-72.918-10.411l-72.81 36.458 20.821-62.634c-52.139-36.459-83.328-83.435-83.328-140.608 0-99.115 93.76-177.11 208.235-177.11 102.4 0 192.085 62.336 210.112 146.24a180.203 180.203 0 0 0-20.096-1.258c-98.88 0-176.982 73.834-177.024 164.821 0 15.19 2.389 29.781 6.442 43.69-6.4 0.513-12.885 0.811-19.434 0.811z m307.114 72.98l15.659 52.054-57.088-31.339c-20.843 5.206-41.75 10.411-62.507 10.411-99.072 0-177.088-67.627-177.088-151.104 0-83.221 77.974-151.104 177.088-151.104 93.59 0 176.918 67.84 176.918 151.104 0.021 46.997-31.147 88.576-72.982 119.979z" fill="#45C45D" p-id="6861"></path><path d="M504.021 412.757c15.744 0 26.07-10.432 26.07-26.026 0-15.659-10.326-26.006-26.07-26.006-15.594 0-31.21 10.304-31.21 26.006 0 15.573 15.68 26.026 31.21 26.026z m-145.706-52.032c-15.638 0-31.382 10.326-31.382 26.006 0 15.594 15.744 26.026 31.382 26.026 15.616 0 25.984-10.432 25.984-26.026 0-15.702-10.368-26.006-25.984-26.006z m213.418 151.062c-10.304 0-20.821 10.432-20.821 20.8 0 10.517 10.496 20.842 20.821 20.842 15.808 0 26.07-10.304 26.07-20.842-0.022-10.368-10.262-20.8-26.07-20.8z m114.56 0c-10.304 0-20.714 10.432-20.714 20.8 0 10.517 10.453 20.842 20.714 20.842 15.659 0 26.048-10.304 26.048-20.842 0-10.368-10.389-20.8-26.048-20.8z" fill="#51C332" p-id="6862"></path></svg>