<?xml version="1.0" standalone="no"?><!DOCTYPE svg PUBLIC "-//W3C//DTD SVG 1.1//EN" "http://www.w3.org/Graphics/SVG/1.1/DTD/svg11.dtd"><svg t="1583410759411" class="icon" viewBox="0 0 1024 1024" version="1.1" xmlns="http://www.w3.org/2000/svg" p-id="6943" width="30" height="30" xmlns:xlink="http://www.w3.org/1999/xlink"><defs><style type="text/css"></style></defs><path d="M512 0C235.60704 0 11.1872 224.41984 11.1872 500.8128c0 276.39808 224.41984 500.81792 500.8128 500.81792s500.80768-224.41984 500.80768-500.81792C1012.80768 224.41984 788.39296 0 512 0z" fill="#FFFFFF" p-id="6944"></path><path d="M512 0C235.60704 0 11.1872 224.41984 11.1872 500.8128c0 276.39808 224.41984 500.81792 500.8128 500.81792s500.80768-224.41984 500.80768-500.81792C1012.80768 224.41984 788.39296 0 512 0zM419.92704 632.99072c-24.09472 0-48.01536-4.13184-70.21568-9.984-1.8944 0-4.13184-1.8944-4.13184-1.8944l-54.03648 32.01024c-13.94176 8.0896-24.09472 1.8944-19.96288-13.94176 0 0 13.94176-58.16832 12.04736-58.16832-52.1472-34.06848-76.06784-78.1312-76.06784-138.19392 4.13184-102.22592 92.07296-182.4256 212.37248-182.4256 110.31552 0 200.32512 67.97824 216.33536 158.336h-9.984c-110.31552 0-200.32512 76.24192-200.32512 170.20928 0 16.00512 1.8944 30.12096 6.02112 44.0576h-12.05248z m322.51392 78.30016l16.01024 32.18432c8.0896 13.94176 1.88928 19.96288-12.05248 12.04736 0 0-39.92576-24.0896-41.98912-22.02624-18.06848 6.02624-58.16832 12.04736-78.13632 12.04736-102.22592 0-186.38336-70.2208-186.38336-156.26752s84.16256-156.43648 186.20928-156.43648c102.06208 0 186.38848 70.21568 186.38848 156.26752 0 50.0736-25.98912 91.89376-70.04672 122.18368z" fill="#00AE66" p-id="6945"></path><path d="M313.73824 378.624A28.09344 28.09344 0 0 0 327.68 402.88768a28.14464 28.14464 0 0 0 28.05248 0c8.60672-4.992 13.94176-14.2848 13.94176-24.26368s-5.33504-19.2768-13.94176-24.2688a28.14464 28.14464 0 0 0-28.05248 0 28.1088 28.1088 0 0 0-13.94176 24.2688z m356.59264 150.24128a24.1664 24.1664 0 0 0 24.09984 24.09472 24.16128 24.16128 0 0 0 24.0896-24.09472 24.1664 24.1664 0 0 0-24.0896-24.09472 24.1664 24.1664 0 0 0-24.09984 24.09472z m-132.34176 0c0 13.25568 10.83904 24.09472 24.0896 24.09472s24.09472-10.83904 24.09472-24.09472c0-13.25056-10.84416-24.09472-24.09472-24.09472s-24.0896 10.84416-24.0896 24.09472zM482.05312 378.624a28.0576 28.0576 0 0 0 56.10496 0 28.1088 28.1088 0 0 0-13.94176-24.2688 28.14464 28.14464 0 0 0-28.05248 0c-8.94464 4.992-14.11072 14.2848-14.11072 24.2688z" fill="#00AE66" p-id="6946"></path></svg>