<?xml version="1.0" standalone="no"?><!DOCTYPE svg PUBLIC "-//W3C//DTD SVG 1.1//EN" "http://www.w3.org/Graphics/SVG/1.1/DTD/svg11.dtd"><svg t="1581405215493" class="icon" viewBox="0 0 1024 1024" version="1.1" xmlns="http://www.w3.org/2000/svg" p-id="2966" width="32" height="32" xmlns:xlink="http://www.w3.org/1999/xlink"><defs><style type="text/css"></style></defs><path d="M713.007 500.28c-11.263-3.397-18.982-5.71-13.086-20.622 12.769-32.36 14.104-60.291 0.237-80.199-25.962-37.37-97.026-35.348-178.468-1.018 0-0.04-25.572 11.275-19.042-9.161 12.531-40.556 10.641-74.528-8.856-94.145-44.19-44.521-161.7 1.679-262.461 103.134C155.872 474.278 112.05 554.821 112.05 624.472c0 133.232 169.651 214.238 335.621 214.238 217.576 0 362.309-127.298 362.309-228.383C809.98 549.27 758.903 514.609 713.007 500.28L713.007 500.28zM448.114 790.95c-132.439 13.166-246.756-47.126-255.362-134.688-8.599-87.549 91.825-169.202 224.245-182.394 132.452-13.18 246.782 47.098 255.362 134.634C680.938 696.104 580.58 777.757 448.114 790.95L448.114 790.95zM857.489 256.471c-52.545-58.665-130.048-81.032-201.574-65.711l-0.04 0c-16.55 3.569-27.099 19.96-23.556 36.603 3.529 16.656 19.802 27.297 36.364 23.741 50.88-10.879 105.963 5.036 143.307 46.702 37.33 41.679 47.456 98.521 31.474 148.342l0.014 0.013c-5.209 16.233 3.608 33.589 19.749 38.837 16.061 5.235 33.338-3.622 38.56-19.815l0.014-0.119C924.219 394.965 910.047 315.084 857.489 256.471M776.801 329.796c-25.564-28.566-63.331-39.419-98.189-31.963-14.25 3.067-23.317 17.185-20.277 31.54 3.054 14.303 17.065 23.49 31.275 20.371l0 0.04c17.039-3.635 35.52 1.652 48.012 15.598 12.518 13.973 15.889 33.008 10.522 49.716l0.026 0c-4.469 13.933 3.105 28.923 16.959 33.443 13.867 4.468 28.725-3.146 33.192-17.118C809.28 397.279 802.434 358.362 776.801 329.796M461.346 541.259c-63.021-16.511-134.244 15.122-161.621 71.038-27.878 57.039-0.925 120.345 62.75 141.046 65.949 21.414 143.689-11.408 170.729-72.969C559.854 620.201 526.568 558.231 461.346 541.259L461.346 541.259zM413.229 686.904c-12.816 20.582-40.251 29.609-60.906 20.105-20.364-9.332-26.372-33.232-13.563-53.312 12.657-19.987 39.168-28.884 59.67-20.226C419.178 642.383 425.807 666.124 413.229 686.904L413.229 686.904zM455.431 632.363c-4.64 7.971-14.878 11.817-22.901 8.486-7.885-3.265-10.357-12.188-5.876-20.027 4.613-7.798 14.455-11.593 22.32-8.445C456.971 615.311 459.846 624.339 455.431 632.363L455.431 632.363zM455.431 632.363" p-id="2967" fill="#333333"></path></svg>