<?xml version="1.0" standalone="no"?><!DOCTYPE svg PUBLIC "-//W3C//DTD SVG 1.1//EN" "http://www.w3.org/Graphics/SVG/1.1/DTD/svg11.dtd"><svg t="1581316459950" class="icon" viewBox="0 0 1024 1024" version="1.1" xmlns="http://www.w3.org/2000/svg" p-id="2899" width="44" height="44" xmlns:xlink="http://www.w3.org/1999/xlink"><defs><style type="text/css"></style></defs><path d="M512 0C229.2224 0 0 229.2224 0 512s229.2224 512 512 512 512-229.2224 512-512S794.7776 0 512 0zM460.8 778.24c-175.3088 0-317.44-91.648-317.44-204.8 0-113.1008 212.8384-291.6864 294.2976-291.6864 34.0992 0 101.12 25.4464 54.272 106.0864-3.2768 5.632 105.728-46.8992 165.2736-12.288 59.5968 34.5088 0 90.0096 0 96.1536 0 6.144 119.6544 6.144 119.6544 101.7344 0 113.152-140.7488 204.8-316.0576 204.8z m249.4976-418.816c-19.7632-23.3984-55.04-17.92-55.04-17.92a19.456 19.456 0 0 1-19.8144-16.8448c-0.1024 1.024-0.5632 1.8944-0.5632 2.9184v-5.7344c0 1.024 0.4608 1.8944 0.5632 2.816a23.808 23.808 0 0 1 19.7632-20.1216s42.7008-11.6736 79.7184 21.6064c37.0176 33.3312 21.8624 88.4224 21.8624 88.4224a24.7296 24.7296 0 0 1-23.9104 20.1728h-2.048c-11.4176 0-18.0224-8.8064-14.8992-19.6096 0 0 14.08-32.256-5.632-55.6544z m140.288 70.8608c-1.3824 15.5648-15.0016 28.2624-30.464 30.0032 1.1264 0.1536 2.2016 0.3584 3.4304 0.3584h-6.9632c1.1776 0 2.3552-0.2048 3.5328-0.3584a25.7024 25.7024 0 0 1-22.9376-30.0544S813.8752 365.6192 773.12 307.2c-40.704-58.4192-128.2048-48.3328-128.2048-48.3328a30.208 30.208 0 0 1-30.208-26.7264c-0.1536 1.0752-0.3584 2.1504-0.3584 3.2256v-6.4c0 1.0752 0.2048 2.0992 0.3072 3.1744a30.8736 30.8736 0 0 1 30.3616-27.5456s91.136-9.216 158.9248 54.9376c67.8912 64.1536 46.592 170.752 46.592 170.752zM430.08 573.44a20.48 20.48 0 1 0 40.96 0 20.48 20.48 0 0 0-40.96 0z m-26.7776 67.2256c7.4752-6.1952 11.8784-17.2032 11.6224-28.928-0.3072-11.7248-5.2736-22.3232-13.0048-27.8528a19.456 19.456 0 0 0-24.576 1.0752c-11.52 9.5744-15.104 29.7472-7.936 45.1584 7.168 15.36 22.3744 20.0704 33.8944 10.5472z m28.7232-188.8256c-111.9744 15.7184-194.4576 87.552-184.2688 160.3072 10.24 72.8576 109.312 119.0912 221.3376 103.3216 112.0256-15.7184 194.56-87.5008 184.32-160.3072-10.24-72.8064-109.3632-119.0912-221.3888-103.3216z m16.384 243.8144c-66.6624 12.9536-129.3824-21.504-140.1856-77.056-10.752-55.5008 34.4576-111.0016 101.0688-123.904 66.6624-13.0048 129.3824 21.504 140.1856 77.0048 10.752 55.5008-34.4576 111.0016-101.0688 123.9552z" fill="#d81e06" p-id="2900"></path></svg>