<?xml version="1.0" standalone="no"?><!DOCTYPE svg PUBLIC "-//W3C//DTD SVG 1.1//EN" "http://www.w3.org/Graphics/SVG/1.1/DTD/svg11.dtd"><svg t="1583410818712" class="icon" viewBox="0 0 1024 1024" version="1.1" xmlns="http://www.w3.org/2000/svg" p-id="8662" width="30" height="30" xmlns:xlink="http://www.w3.org/1999/xlink"><defs><style type="text/css"></style></defs><path d="M0 512C0 229.226667 229.226667 0 512 0s512 229.226667 512 512-229.226667 512-512 512S0 794.773333 0 512z" fill="#55ACEE" p-id="8663"></path><path d="M496.661333 416.170667l1.088 17.706666-17.92-2.176c-65.173333-8.298667-122.112-36.501333-170.474666-83.882666l-23.637334-23.488-6.08 17.344c-12.885333 38.698667-4.650667 79.552 22.208 107.029333 14.314667 15.189333 11.093333 17.344-13.610666 8.32-8.597333-2.901333-16.128-5.077333-16.832-3.989333-2.517333 2.538667 6.08 35.434667 12.885333 48.448 9.322667 18.090667 28.288 35.797333 49.066667 46.293333l17.557333 8.298667-20.778667 0.362666c-20.053333 0-20.778667 0.362667-18.624 7.957334 7.168 23.509333 35.456 48.448 66.965334 59.306666l22.208 7.594667-19.328 11.562667a201.557333 201.557333 0 0 1-95.978667 26.752c-16.128 0.362667-29.376 1.813333-29.376 2.901333 0 3.605333 43.690667 23.850667 69.12 31.808 76.288 23.509333 166.890667 13.376 234.944-26.752 48.341333-28.565333 96.682667-85.333333 119.253333-140.288 12.181333-29.290667 24.341333-82.794667 24.341334-108.458667 0-16.64 1.088-18.816 21.141333-38.698666 11.818667-11.562667 22.912-24.213333 25.066667-27.84 3.584-6.869333 3.221333-6.869333-15.04-0.725334-30.442667 10.858667-34.730667 9.408-19.690667-6.869333 11.093333-11.562667 24.341333-32.533333 24.341333-38.677333 0-1.088-5.376 0.725333-11.456 3.968-6.442667 3.626667-20.778667 9.045333-31.509333 12.309333l-19.349333 6.144-17.536-11.946667c-9.685333-6.506667-23.296-13.738667-30.442667-15.893333-18.282667-5.077333-46.208-4.352-62.677333 1.450667-44.778667 16.256-73.066667 58.197333-69.845334 104.128z" fill="#FFFFFF" p-id="8664"></path></svg>