<?xml version="1.0" encoding="UTF-8"?>
<svg width="271px" height="136px" viewBox="0 0 271 136" version="1.1" xmlns="http://www.w3.org/2000/svg" xmlns:xlink="http://www.w3.org/1999/xlink">
    <!-- Generator: Sketch 59.1 (86144) - https://sketch.com -->
    <title>0830-GLS-SUV-pc</title>
    <desc>Created with Sketch.</desc>
    <g id="页面-1" stroke="none" stroke-width="1" fill="none" fill-rule="evenodd">
        <g id="0830-GLS-SUV-pc" fill="#FFFFFF" fill-rule="nonzero">
            <g id="Page-1" transform="translate(0.000000, 27.000000)">
                <g id="banner-GLS-SUV-pc">
                    <g id="Group" transform="translate(107.000000, 82.000000)">
                        <path d="M1.8,3.2 L9.7,3.2 L10,2.8 C10.1,2.6 10.2,2.5 10.2,2.5 C10.2,2.5 10.3,2.6 10.4,2.7 L11,3.3 C11.1,3.4 11.2,3.5 11.2,3.6 C11.2,3.7 11.2,3.7 11.2,3.7 C11.2,3.7 11.2,3.7 11.2,3.8 C11.2,3.8 11.2,3.9 11.1,4 L10.9,4.4 L10.9,15.8 L11,18.3 C11,18.5 10.9,18.6 10.9,18.7 C10.9,18.8 10.7,18.8 10.6,18.9 C10.5,19 10.3,19 10.2,19 C9.9,19 9.8,18.9 9.8,18.6 L9.8,17.5 L1.8,17.5 L1.8,18.4 C1.8,18.5 1.8,18.6 1.7,18.7 C1.6,18.8 1.4,18.9 1.1,18.9 C0.9,18.9 0.8,18.9 0.8,18.8 C0.8,18.7 0.7,18.7 0.6,18.5 L0.7,15.2 L0.7,4.9 L0.6,2.6 C0.6,2.5 0.7,2.5 0.7,2.5 C0.7,2.5 0.8,2.5 1,2.7 L1.8,3.2 Z M9.7,3.7 L1.7,3.7 L1.7,16.8 L9.7,16.8 L9.7,3.7 Z M4.8,9.6 L4.8,6.1 L2.3,6.1 L2.2,6.1 L2.2,6.1 L2.2,6.1 C2.2,6.1 2.2,6 2.2,5.9 C2.2,5.8 2.3,5.7 2.4,5.7 L7.5,5.7 L7.8,5.1 C7.9,4.8 8.1,4.7 8.1,4.7 C8.1,4.7 8.3,4.8 8.4,5 L9,5.7 C9.2,5.9 9.2,6 9.2,6.1 C9.2,6.2 9.2,6.2 9.1,6.2 L6.2,6.2 L6,6.5 L6,9.7 L7.3,9.7 L7.6,9.1 C7.7,8.8 7.8,8.7 7.9,8.7 C8,8.7 8.1,8.8 8.2,9 L8.8,9.8 C8.9,9.9 8.9,10 9,10 C9.1,10 9,10 9,10.1 C9,10.2 8.9,10.2 8.8,10.2 L5.9,10.2 L5.9,14.5 L7.5,14.5 L7.9,13.8 C8,13.6 8.1,13.5 8.2,13.5 C8.3,13.5 8.3,13.6 8.4,13.7 L9.1,14.5 C9.3,14.7 9.3,14.8 9.3,14.9 C9.3,15 9.2,15 9.1,15 L8.1,15 L8.1,15 L2.2,15 C2.1,15 2,14.9 2,14.7 C2,14.5 2,14.4 2.2,14.4 L4.7,14.4 L4.7,10.1 L2.5,10.1 C2.4,10.1 2.4,10.1 2.3,10 C2.2,9.9 2.3,9.9 2.2,9.7 C2.1,9.5 2.3,9.5 2.4,9.5 L4.8,9.6 L4.8,9.6 Z M6.2,10.9 C6.2,10.8 6.3,10.8 6.4,10.8 C6.5,10.8 6.7,10.9 7.2,11 C7.7,11.1 8,11.4 8.1,11.7 C8.2,12 8.2,12.3 8.2,12.4 C8.2,12.5 8.2,12.6 8.2,12.7 C8.1,12.9 8,13.1 7.9,13.2 C7.8,13.3 7.7,13.3 7.7,13.3 C7.5,13.3 7.4,13.2 7.3,13 C7.2,12.8 7.2,12.6 7.1,12.3 C7,12 7,11.8 6.9,11.7 C6.8,11.6 6.7,11.4 6.6,11.2 L6.4,10.9 C6.2,11 6.2,11 6.2,10.9 Z" id="形状_8_"></path>
                        <path d="M19.3,3 C18.9,3.1 18.6,3.1 18.3,3.2 C18,3.3 17.8,3.5 17.5,3.7 C17.2,3.9 16.9,4.2 16.7,4.4 C16.5,4.6 16.3,4.9 16.1,5.2 C15.9,5.5 15.7,5.8 15.6,6.2 C15.5,6.6 15.3,6.8 15.3,7 L14.9,8.4 C15.2,8.1 15.5,8 15.7,7.8 C15.9,7.6 16.1,7.6 16.4,7.5 C16.7,7.4 16.9,7.4 17.2,7.4 C17.4,7.4 17.7,7.5 17.9,7.6 C18.1,7.7 18.3,7.9 18.5,8.1 C18.7,8.3 18.9,8.6 19,8.8 C19.1,9 19.2,9.3 19.3,9.7 C19.4,10.1 19.4,10.4 19.5,10.8 C19.6,11.2 19.5,11.5 19.5,11.9 C19.5,12.4 19.4,12.8 19.4,13.2 C19.4,13.6 19.2,14 19.1,14.5 C19,15 18.8,15.3 18.5,15.5 C18.2,15.7 18,16 17.7,16.2 C17.4,16.4 17,16.5 16.5,16.4 C16.1,16.4 15.8,16.3 15.6,16.2 C15.4,16.1 15.1,15.9 14.9,15.7 C14.7,15.5 14.5,15.2 14.3,15 C14.1,14.8 14,14.4 13.8,13.9 C13.6,13.4 13.6,13 13.5,12.5 C13.4,12 13.4,11.5 13.4,10.8 C13.4,10.1 13.4,9.6 13.5,9.1 C13.5,8.7 13.6,8.3 13.7,7.9 C13.8,7.5 13.9,7.1 14,6.8 C14.1,6.5 14.3,6.1 14.4,5.8 C14.5,5.5 14.8,5.1 15.1,4.7 C15.4,4.3 15.7,4 16,3.7 C16.3,3.4 16.7,3.1 17,2.9 C17.3,2.7 17.7,2.6 18,2.5 C18.3,2.4 18.6,2.4 18.7,2.4 L19.3,2.4 L19.3,3 L19.3,3 Z M16.6,16.3 C16.9,16.2 17.1,16.2 17.3,16.1 C17.5,16 17.6,15.9 17.7,15.7 C17.8,15.5 17.9,15.3 17.9,15 C17.9,14.7 18,14.5 18,14.2 C18,13.9 18,13.5 18,13.1 C18,12.7 18,12.2 18,11.7 C18,11.2 17.9,10.8 17.8,10.5 C17.7,10.2 17.6,9.8 17.5,9.6 C17.4,9.4 17.2,9.1 17,9 C16.8,8.9 16.5,8.8 16.2,8.8 C15.8,8.8 15.5,8.9 15.2,9.1 L14.5,9.6 C14.5,10 14.5,10.3 14.4,10.7 C14.3,11.1 14.4,11.3 14.4,11.7 C14.4,12.1 14.4,12.5 14.4,12.9 C14.4,13.3 14.5,13.7 14.6,14.1 C14.7,14.5 14.8,14.9 14.9,15.2 C15,15.5 15.1,15.8 15.3,15.9 C15.5,16 15.6,16.2 15.7,16.3 C15.8,16.4 16.4,16.2 16.6,16.3 Z" id="形状_9_"></path>
                        <path d="M23,5.8 L23,2.7 L22.9,1.4 L22.9,1.3 L23.1,1.4 L24.3,1.8 C24.4,1.8 24.4,1.9 24.4,1.9 C24.4,1.9 24.3,2.1 24.2,2.2 L23.9,2.5 L23.9,5.7 L24.6,5.7 L25,4.8 C25.1,4.7 25.1,4.6 25.2,4.6 C25.3,4.6 25.3,4.6 25.3,4.7 L26.2,5.8 C26.3,5.9 26.3,6 26.3,6.1 C26.3,6.2 26.3,6.2 26.2,6.2 L25.3,6.2 L25.3,6.2 L24.1,6.2 L24.1,8.5 C24.9,8.7 25.4,9.1 25.7,9.5 C26,9.9 26.1,10.3 26.1,10.6 C26.1,10.9 26,11.2 25.9,11.3 C25.8,11.4 25.6,11.5 25.5,11.5 C25.4,11.5 25.2,11.4 25.1,11.3 C25,11.2 24.9,10.9 24.9,10.5 C24.9,10.1 24.8,9.8 24.7,9.6 C24.6,9.4 24.5,9.1 24.2,8.9 L24.2,16.3 L24.3,18 C24.2,18.4 24,18.6 23.7,18.6 C23.4,18.6 23.2,18.6 23.2,18.5 C23.2,18.4 23.1,18.3 23.1,18.2 L23.2,16.4 L23.2,10.7 C22.9,11.5 22.5,12.2 22.2,12.8 C21.9,13.4 21.6,14 21.3,14.4 L21,14.9 C20.9,15 20.9,15 20.9,15 L20.9,14.9 C20.9,14.9 20.9,14.8 20.9,14.7 L21.2,14 C21.3,13.7 21.5,13.3 21.7,12.7 C21.9,12.1 22.2,11.1 22.5,9.7 C22.8,8.3 23.1,7.3 23.1,6.7 L23.1,6.5 L23.1,6.2 L21,6.2 L20.9,6.2 C20.8,6.2 20.8,6.2 20.8,6.2 L20.8,6.1 C20.8,6 20.8,5.9 20.8,5.8 C20.8,5.7 20.9,5.7 20.9,5.7 L23,5.8 L23,5.8 Z M27.6,11.9 C27.3,12.6 26.9,13.3 26.5,14.1 C26.1,14.9 25.6,15.7 25,16.6 L24.7,17.1 C24.6,17.2 24.6,17.2 24.5,17.2 C24.4,17.2 24.4,17.2 24.4,17.1 C24.4,17 24.4,17 24.5,16.9 L24.7,16.5 C24.8,16.3 25,15.9 25.1,15.5 C25.2,15.1 25.4,14.7 25.5,14.4 C25.6,14.1 25.8,13.7 25.9,13.1 C26,12.5 26.2,12.1 26.3,11.9 L26.5,11 L26.6,10.5 L26.6,10.5 C26.6,10.5 26.7,10.5 26.8,10.6 L27.8,11.3 C27.9,11.4 27.9,11.4 27.9,11.5 C27.9,11.6 27.8,11.6 27.8,11.7 L27.6,11.9 Z M25.3,8.4 C25.2,8.4 25.2,8.4 25.3,8.4 C25.2,8.2 25.2,8.2 25.2,8.1 C25.2,8 25.3,7.9 25.4,7.9 L31.4,7.9 L31.9,7 C32,6.8 32,6.7 32.1,6.8 C32.2,6.9 32.2,6.9 32.3,7 L33.4,8.2 L33.4,8.3 L33.4,8.4 C33.4,8.4 33.4,8.4 33.4,8.5 L33.3,8.6 L30.1,8.6 C30.1,8.7 30.1,8.8 30,8.8 L29.8,9 L29.8,17.5 C29.8,17.7 29.8,17.9 29.7,18.1 C29.6,18.3 29.4,18.5 29.1,18.6 C28.8,18.7 28.5,18.8 28.3,18.8 L28.2,18.8 C28.2,18.8 28.2,18.7 28.2,18.6 C28.2,18.5 28.1,18.3 28.1,18 C28.1,17.7 27.8,17.5 27.5,17.3 L27.2,17.1 L27.1,17 L27.1,16.9 C27.1,16.9 27.2,16.8 27.3,16.8 L27.6,16.9 C28.1,17 28.4,17 28.6,17 C28.8,17 28.8,16.9 28.8,16.7 L28.8,8.6 L25.3,8.4 L25.3,8.4 Z M30.5,3.4 L30.8,2.7 C31,2.4 31.1,2.2 31.1,2.2 C31.1,2.2 31.2,2.3 31.3,2.4 L32.2,3.4 C32.3,3.6 32.4,3.7 32.4,3.7 C32.4,3.8 32.4,3.8 32.3,3.8 C32.2,3.8 32.2,3.9 32.2,3.9 L31.7,3.9 L31.7,3.9 L25.8,3.9 C25.7,3.9 25.6,3.8 25.6,3.6 C25.6,3.4 25.6,3.3 25.8,3.3 L30.5,3.3 L30.5,3.4 L30.5,3.4 Z M30.2,11.5 C30.1,11.4 30.1,11.3 30.1,11.3 C30.1,11.3 30.1,11.2 30.2,11.2 C30.2,11.2 30.3,11.3 30.5,11.4 C30.7,11.5 30.9,11.7 31.2,12 C31.5,12.3 31.8,12.5 32.1,12.9 C32.4,13.2 32.6,13.6 32.8,14 C33,14.4 33.1,14.9 33.1,15.2 C33.1,15.5 33,15.7 32.9,16 C32.8,16.3 32.6,16.4 32.4,16.4 C32.2,16.4 32.1,16.3 32,16.2 C31.9,16 31.8,15.8 31.8,15.6 L31.6,14.7 C31.5,14.2 31.4,13.7 31.1,13.1 C30.8,12.5 30.6,12 30.2,11.5 Z" id="形状_10_"></path>
                        <path d="M38,6 L38.5,4.7 C38.5,4.6 38.6,4.5 38.6,4.5 C38.6,4.5 38.6,4.5 38.7,4.6 L38.7,4.7 L38.7,4.8 L38.4,6.2 C38.3,6.6 38.1,7.3 37.9,8.2 C37.7,9.1 37.5,9.8 37.4,10.4 C37.3,11 37.2,11.5 37.1,11.9 C37,12.4 37,12.8 37,13.2 C37,13.5 37,13.8 37.1,14.1 C37.2,14.4 37.2,14.8 37.3,15.3 C37.4,15.9 37.5,16.3 37.5,16.5 C37.5,16.8 37.4,17.1 37.3,17.3 C37.2,17.6 37,17.7 36.7,17.7 C36.6,17.7 36.5,17.7 36.4,17.6 C36.3,17.5 36.2,17.4 36.1,17.3 C36,17.1 35.9,16.9 35.9,16.6 L35.9,15 C35.9,14.8 35.9,14.4 35.8,14 C35.7,13.6 35.5,13.2 35.2,13.1 L34.9,13 C34.8,13 34.8,12.9 34.8,12.9 C34.8,12.9 34.8,12.9 34.8,12.8 C34.8,12.7 34.8,12.7 34.8,12.7 C34.8,12.6 34.9,12.6 34.9,12.6 L35.2,12.6 C35.4,12.6 35.6,12.5 35.6,12.5 C35.7,12.4 35.7,12.4 35.8,12.3 C35.9,12.2 35.9,12 36,11.8 C36.1,11.6 36.3,11 36.6,10 L37.3,7.9 C37.5,7.4 37.7,6.8 38,6 Z M35.5,3.5 L35.4,3.3 L35.2,3.1 L35.2,3 C35.2,2.9 35.3,2.9 35.4,2.9 C35.5,2.9 35.6,3 35.8,3 C36,3.1 36.3,3.2 36.7,3.3 C37,3.4 37.2,3.7 37.3,4.1 C37.4,4.5 37.4,4.7 37.4,4.9 C37.4,5.1 37.3,5.3 37.2,5.6 C37,5.9 36.8,6.1 36.6,6.1 C36.4,6.1 36.2,6 36.1,5.9 C36,5.7 35.9,5.5 35.9,5.2 L35.8,4.5 C35.8,4 35.7,3.7 35.5,3.5 Z M46,6 L43.9,6 C43.8,6.1 43.8,6.3 43.6,6.5 L43.6,9.1 L44.5,9.1 L45.1,8.1 C45.1,8 45.2,8 45.2,8 C45.2,8 45.3,8.1 45.4,8.1 L46.3,9.2 C46.4,9.3 46.4,9.4 46.4,9.5 C46.4,9.6 46.3,9.7 46.3,9.7 L43.7,9.7 L43.7,12.8 L44.6,12.8 L45.2,11.8 C45.2,11.7 45.3,11.7 45.3,11.7 C45.3,11.7 45.4,11.7 45.5,11.8 L46.4,12.9 C46.5,13 46.5,13.1 46.5,13.1 C46.5,13.2 46.4,13.3 46.3,13.3 L45.6,13.3 L45.6,13.3 L43.7,13.3 L43.7,16.8 L45,16.8 L45.7,15.6 C45.8,15.5 45.8,15.5 45.8,15.4 C45.8,15.4 45.9,15.5 46,15.6 L46.9,16.8 C47,16.9 47,17 47,17 C47,17.1 47,17.1 46.9,17.1 L46.8,17.2 L45.8,17.2 L45.8,17.2 L40.5,17.2 L40.5,18.3 C40.5,18.5 40.4,18.7 40.2,18.8 C40,18.9 39.8,18.9 39.7,18.9 C39.5,18.9 39.4,18.9 39.3,18.8 C39.2,18.7 39.2,18.6 39.2,18.5 L39.3,15.5 L39.3,7.5 C38.8,8.4 38.4,9.1 38.1,9.7 L37.8,10.2 C37.7,10.3 37.7,10.3 37.6,10.3 L37.5,10.2 C37.5,10.2 37.5,10.1 37.5,10 L37.8,9.3 C37.9,9.2 38,8.9 38.1,8.4 C38.2,7.9 38.4,7.6 38.5,7.2 C38.6,6.8 38.8,6.2 39.1,5.2 C39.4,4.2 39.6,3.4 39.7,2.7 L39.9,1.5 L39.9,1.2 C39.9,1.2 40,1.2 40.1,1.3 L41.5,2.2 C41.6,2.2 41.6,2.3 41.6,2.4 C41.6,2.5 41.6,2.5 41.5,2.6 L41.2,2.8 C40.9,3.5 40.8,4 40.7,4.1 L40.2,5.4 L40.3,5.5 L44.8,5.5 L45.4,4.4 C45.4,4.3 45.5,4.3 45.5,4.3 C45.5,4.3 45.6,4.4 45.7,4.5 L46.7,5.7 C46.7,5.8 46.8,5.8 46.8,5.8 L46.8,5.9 L46.8,5.9 C46.8,6 46.7,6.1 46.6,6.1 L46,6 L46,6 Z M42.5,6 L40.6,6 L40.6,9.1 L42.5,9.1 L42.5,6 Z M40.6,12.7 L42.5,12.7 L42.5,9.6 L40.6,9.6 L40.6,12.7 Z M42.5,13.3 L40.6,13.3 L40.6,16.8 L42.5,16.8 L42.5,13.3 Z M42.6,2.7 L42.4,2.3 C42.4,2.3 42.4,2.2 42.4,2.1 C42.4,2 42.4,2 42.5,2 C42.7,2 43,2.2 43.5,2.5 C44,2.8 44.2,3.3 44.2,4 C44.2,4.3 44.1,4.5 44,4.8 C43.9,5.1 43.7,5.2 43.4,5.2 C43.2,5.2 43,5.1 42.9,4.9 C42.8,4.7 42.7,4.5 42.7,4.3 L42.7,3.5 C42.7,3.2 42.7,2.9 42.6,2.7 Z" id="形状_11_"></path>
                        <path d="M54.6,13.5 L54.6,10.4 L51.7,10.4 L51.2,11.1 C51.1,11.2 51.1,11.2 51.1,11.1 L50.4,9.9 C50.3,9.8 50.3,9.7 50.3,9.7 C50.3,9.7 50.4,9.6 50.6,9.5 C50.7,9.4 50.8,9.3 50.9,9.2 C51,9.1 51.2,8.6 51.4,8 C51.7,7.3 51.9,6.8 52,6.4 C52.1,6 52.3,5.6 52.5,5 L49.3,5 C49.2,5 49.1,4.9 49.1,4.7 C49.1,4.5 49.2,4.4 49.3,4.4 L52.7,4.4 C52.7,4.4 52.8,4 53,3.4 C53.2,2.8 53.4,2.3 53.4,1.9 L53.6,1.3 L53.7,0.9 L53.7,0.9 L53.9,1.1 L55.3,2 C55.3,2 55.4,2.1 55.4,2.2 C55.4,2.3 55.4,2.3 55.3,2.4 L54.8,2.7 L54.1,4.6 L58.4,4.6 L58.9,3.6 C59,3.4 59.1,3.3 59.1,3.2 C59.1,3.1 59.2,3.2 59.3,3.4 L60.4,4.6 C60.5,4.7 60.5,4.8 60.5,4.9 C60.5,5 60.5,5 60.4,5 L59.9,5 L59.9,5 L53.9,5 L51.9,9.9 L54.6,9.9 L54.6,7.9 L54.6,6.2 L54.7,6.1 L54.9,6.2 L56.3,6.8 C56.4,6.8 56.4,6.9 56.4,7 C56.4,7.1 56.4,7.1 56.3,7.2 L56,7.4 L56,9.9 L57.9,9.9 L58.4,9 C58.5,8.7 58.6,8.6 58.7,8.7 C58.8,8.7 58.8,8.8 59,9 L59.9,10.1 C60,10.2 60,10.3 60,10.4 C60,10.5 60,10.5 59.9,10.5 L56.1,10.5 L56.1,13.6 L59.3,13.6 L59.9,12.6 C60,12.5 60,12.4 60.1,12.4 C60.1,12.4 60.2,12.4 60.2,12.5 L61.2,13.7 C61.3,13.8 61.3,13.8 61.3,13.9 C61.3,14 61.3,14 61.3,14.1 C61.3,14.2 61.3,14.2 61.2,14.2 L59.6,14.2 L59.6,14.2 L56.1,14.2 L56.1,17.1 L56.1,18.8 C56.1,18.9 56.1,19 56,19 C56,19.1 55.9,19.1 55.8,19.2 C55.7,19.3 55.5,19.3 55.3,19.3 C55.1,19.3 54.9,19.3 54.9,19.2 C54.9,19.1 54.8,19 54.8,18.8 L54.8,17.2 L54.8,14.2 L49,14.2 L48.9,14.2 L48.8,14.2 L48.8,14.1 C48.8,13.9 48.9,13.7 49,13.7 L54.6,13.7 L54.6,13.5 L54.6,13.5 Z" id="路径_2_"></path>
                        <path d="M64.9,6.6 L64.9,3.2 L63.4,3.2 C63.3,3.2 63.2,3.1 63.2,2.9 C63.2,2.7 63.2,2.6 63.4,2.6 L68.2,2.6 L68.7,1.7 C68.8,1.6 68.8,1.5 68.9,1.5 C68.9,1.5 69,1.6 69.1,1.7 L69.8,2.7 C69.9,2.8 69.9,2.9 69.9,3 C69.9,3.1 69.9,3.1 69.8,3.1 L69.3,3.1 L68.5,3.1 C68.4,3.2 68.4,3.3 68.3,3.5 L68.3,6.6 L68.8,6.6 L69.4,5.7 C69.4,5.6 69.5,5.6 69.5,5.6 C69.5,5.6 69.6,5.6 69.7,5.7 L70.4,6.7 C70.5,6.8 70.5,6.9 70.5,7 C70.5,7.1 70.4,7.2 70.2,7.2 L68.9,7.2 L68.2,7.2 L68.2,10.8 L68.2,12.2 C68.1,12.5 67.9,12.6 67.6,12.6 C67.3,12.6 67.2,12.6 67.1,12.6 C67.1,12.6 67,12.5 67,12.4 L67.1,10 L67.1,7.2 L66,7.2 C66,7.3 66,7.4 66,7.4 L66,8.3 C66,8.9 65.9,9.5 65.8,10 C65.7,10.5 65.5,11 65.2,11.3 C64.9,11.7 64.6,12 64.3,12.3 C64,12.6 63.7,12.8 63.6,12.9 L63.1,13.2 L63,13.2 L63,13.2 L63,13.2 C63,13.2 63,13.2 63,13.1 C63,13.1 63,13 63.1,12.9 L63.5,12.5 C63.9,12.1 64.1,11.7 64.4,11.3 C64.6,10.8 64.8,10.4 64.9,10 C65,9.6 65,9.1 65.1,8.5 C65.1,7.9 65.1,7.6 65.1,7.5 L65.1,7.3 L63,7.3 C62.9,7.3 62.8,7.2 62.8,7 C62.8,6.8 62.8,6.7 63,6.7 L64.9,6.6 L64.9,6.6 Z M68.6,14.6 L64.8,14.6 C64.7,14.6 64.6,14.5 64.6,14.3 C64.6,14.1 64.6,14 64.7,14 L68.5,14 L68.5,12.7 L68.4,11 L68.5,10.9 L68.6,10.9 L69.9,11.3 C70,11.3 70.1,11.4 70.1,11.5 C70.1,11.6 70.1,11.7 70,11.8 L69.7,12.1 L69.7,13.8 L71.3,13.8 L71.9,12.8 C72,12.7 72,12.6 72.1,12.6 C72.1,12.6 72.2,12.6 72.3,12.7 L73.2,13.8 C73.3,13.9 73.3,14 73.3,14.1 C73.3,14.2 73.2,14.3 73.2,14.3 L69.8,14.3 L69.8,17.2 L73,17.2 L73.7,16.1 C73.8,16 73.9,15.9 73.9,15.9 C73.9,15.9 74,16 74.1,16.1 L74.9,17.1 C75,17.2 75,17.3 75.1,17.3 C75.1,17.4 75.1,17.4 75.1,17.5 C75.1,17.6 75,17.6 74.8,17.6 L73.5,17.6 L62.9,17.6 C62.8,17.6 62.7,17.5 62.7,17.3 C62.7,17.1 62.7,17 62.9,17 L68.5,17 L68.6,14.6 L68.6,14.6 Z M66.3,3.2 C66.2,3.3 66.1,3.4 66,3.6 L66,6.7 L67.1,6.7 L67.1,3.2 L66.3,3.2 Z M71.8,3.9 L71.8,8.2 L71.8,9.7 C71.7,10.1 71.4,10.3 71,10.3 C70.9,10.3 70.8,10.3 70.7,10.2 C70.6,10.2 70.6,10.1 70.6,10 L70.7,7.8 L70.7,4.6 L70.6,2.8 C70.6,2.8 70.6,2.7 70.7,2.7 C70.8,2.7 70.8,2.7 70.9,2.8 L72,3.2 C72.1,3.2 72.2,3.3 72.2,3.4 C72.2,3.5 72.2,3.5 72.1,3.6 L71.8,3.9 Z M74.2,2.6 L74.2,11.8 C74.2,11.9 74.2,12.1 74.1,12.2 C74,12.3 73.8,12.5 73.5,12.7 C73.2,12.9 72.9,13 72.7,13 C72.6,13 72.6,13 72.6,13 C72.6,13 72.5,12.8 72.5,12.6 C72.4,12.4 72.4,12.2 72.3,12 C72.2,11.8 72.1,11.8 72,11.7 L71.5,11.5 C71.5,11.5 71.4,11.5 71.4,11.4 L71.4,11.3 L71.4,11.2 L71.5,11.1 L72.1,11.1 L72.5,11.1 C72.8,11.1 72.9,11.1 73,11.1 C73.1,11.1 73.1,11 73.1,11 C73.1,11 73.1,10.8 73.1,10.7 L73.1,3.7 L73,1.3 C73,1.3 73,1.3 73.1,1.3 L73.3,1.4 L74.4,1.8 C74.5,1.8 74.5,1.9 74.6,1.9 L74.6,2 C74.6,2.1 74.5,2.1 74.5,2.2 L74.2,2.6 Z" id="形状_12_"></path>
                        <path d="M79.5,8.1 L80,8.1 L80.3,7.5 C80.4,7.3 80.5,7.2 80.5,7.2 C80.5,7.2 80.6,7.3 80.7,7.4 L81.4,8.4 C81.5,8.5 81.5,8.6 81.5,8.6 L81.4,8.7 L79.5,8.7 L79.5,12.9 C79.9,12.7 80.5,12.5 81.1,12.2 L81.5,12 C81.6,12 81.6,12 81.6,12.1 C81.6,12.2 81.6,12.2 81.5,12.3 L81.2,12.6 C81,12.7 80.7,13 80.2,13.4 C79.7,13.8 79.4,14.1 79.1,14.2 L77.9,15.1 L77.4,15.5 C77.1,15.7 77,15.8 77,15.8 C77,15.8 77,15.7 76.9,15.7 L76.4,14.3 L76.3,14 C76.3,14 76.3,14 76.3,13.9 C76.3,13.8 76.4,13.9 76.6,13.8 L77,13.7 C77.3,13.6 77.7,13.5 78.2,13.3 L78.2,8.7 L76.6,8.7 C76.5,8.7 76.5,8.6 76.4,8.4 C76.4,8.2 76.4,8.1 76.6,8.1 L78.2,8.1 L78.2,3.9 L76.4,3.9 C76.3,3.9 76.3,3.8 76.3,3.6 C76.3,3.4 76.3,3.3 76.5,3.3 L79.9,3.3 L80.3,2.6 C80.4,2.4 80.5,2.3 80.5,2.2 C80.5,2.2 80.6,2.2 80.7,2.4 L81.6,3.6 C81.6,3.7 81.7,3.7 81.7,3.8 C81.7,3.9 81.7,3.9 81.6,3.9 L79.9,3.9 L79.6,4.3 L79.5,8.1 L79.5,8.1 Z M85.4,5.3 C85.4,5.7 85.4,6.2 85.4,6.8 C85.4,7.4 85.4,7.8 85.4,8 C85.4,8.2 85.4,8.6 85.3,9.1 C85.2,9.6 85.2,10 85.2,10.2 L85.2,10.6 L86.2,11.1 C86.4,11.2 86.4,11.3 86.5,11.3 L86.5,11.4 C86.5,11.4 86.5,11.4 86.5,11.5 L86.5,11.6 L86.3,11.9 L86.3,16.6 C86.3,16.7 86.3,16.8 86.3,16.8 C86.3,16.9 86.5,16.9 86.8,16.9 C87.4,16.9 87.8,16.9 88,16.8 C88.2,16.7 88.3,16.5 88.4,16.3 C88.5,16.1 88.7,15.6 88.8,14.9 L89,14 C89,13.9 89.1,13.8 89.1,13.8 L89.2,13.9 C89.2,14 89.2,14 89.2,14 L89.2,14.5 C89.2,14.8 89.1,15.1 89.1,15.3 C89.1,15.5 89.1,15.7 89.1,15.9 C89.1,16.1 89.1,16.3 89.1,16.3 C89.1,16.4 89.2,16.5 89.3,16.8 C89.4,17 89.4,17.2 89.4,17.3 C89.4,17.4 89.4,17.6 89.3,17.8 C89.2,18 89.1,18.1 89,18.2 C88.9,18.3 88.7,18.4 88.3,18.5 C88,18.6 87.6,18.6 87.1,18.6 C86.3,18.6 85.8,18.5 85.5,18.2 C85.2,17.9 85.1,17.6 85.1,17 L85.1,12 C85,12.4 84.9,12.8 84.8,13.2 C84.7,13.6 84.5,14.1 84.2,14.7 C83.9,15.3 83.3,16 82.4,16.7 C81.5,17.4 80.6,18 79.6,18.4 L79.2,18.6 C79.2,18.6 79.2,18.6 79.1,18.6 C79.1,18.6 79.1,18.6 79,18.6 L79,18.5 C79,18.4 79,18.4 79.1,18.3 L79.6,18 C79.7,17.9 80,17.8 80.3,17.5 C80.7,17.2 81,16.9 81.3,16.7 C81.6,16.5 82,15.9 82.6,15.2 C83.1,14.5 83.5,13.6 83.7,12.7 C83.9,11.8 84,10.8 84.1,9.9 C84.1,9 84.2,8.1 84.2,7.3 C84.2,7.2 84.2,7 84.2,6.8 C84.2,6.6 84.2,6.2 84.2,5.6 L84.2,4.9 L84.2,4.2 L84.2,4.2 L84.6,4.3 L85.6,4.7 C85.7,4.7 85.8,4.8 85.8,4.9 C85.8,5 85.8,5.1 85.7,5.1 L85.4,5.3 Z M83,3 L83,11.6 L83,12.2 C82.9,12.6 82.7,12.8 82.3,12.8 C82.1,12.8 82,12.8 81.9,12.7 C81.8,12.6 81.8,12.5 81.8,12.4 L81.9,10.8 L81.9,3.4 L81.8,1.6 L81.8,1.6 C81.8,1.6 81.9,1.7 82.1,1.8 L83,2.4 L86.5,2.4 L86.8,1.8 C86.9,1.7 86.9,1.6 86.9,1.6 C86.9,1.6 87,1.6 87,1.7 L88,2.7 C88.1,2.8 88.1,2.8 88.1,2.9 C88.1,3 88.1,3 88,3.1 L87.6,3.6 L87.6,10.5 L87.7,12.1 C87.7,12.3 87.5,12.5 87.4,12.6 C87.3,12.7 87,12.8 86.9,12.8 C86.8,12.8 86.7,12.8 86.6,12.7 C86.5,12.6 86.5,12.6 86.5,12.5 L86.5,11.8 L86.5,2.9 L83,3 L83,3 Z" id="形状_13_"></path>
                        <path d="M99.2,8.7 L93.1,8.7 L93.1,15.2 C93.1,15.4 93.2,15.6 93.3,15.7 C93.4,15.9 93.8,16 94.6,16.1 C95.3,16.2 96.3,16.2 97.4,16.2 C99.1,16.1 100.1,16.1 100.5,16 C100.9,15.9 101.2,15.7 101.5,15.4 C101.8,15.1 102,14.5 102.3,13.6 L102.6,12.3 C102.6,12.3 102.6,12.2 102.7,12.1 C102.7,12 102.8,12 102.8,12.1 C102.8,12.2 102.8,12.2 102.8,12.3 L102.6,13.8 C102.5,14.3 102.5,14.6 102.5,14.8 C102.5,15 102.6,15.2 102.6,15.3 L102.8,15.8 C102.9,15.9 102.9,16.1 102.9,16.2 C102.9,16.3 102.9,16.5 102.8,16.6 C102.7,16.8 102.4,17.1 102,17.3 C101.6,17.5 100.8,17.6 99.7,17.7 C98.6,17.8 97.8,17.8 97.3,17.8 C96.7,17.8 95.8,17.8 94.7,17.7 C93.6,17.6 92.9,17.5 92.5,17.2 C92.1,17 91.9,16.7 91.8,16.5 C91.7,16.3 91.7,15.9 91.7,15.6 L91.7,6.5 L91.6,4.6 L91.6,4.5 C91.6,4.5 91.7,4.5 91.8,4.5 L93,4.9 C93.1,4.9 93.2,5 93.3,5 L93.3,5.1 C93.3,5.1 93.2,5.2 93.1,5.4 L92.8,5.8 L92.8,8.1 L98.9,8.1 L98.9,3.2 L91.3,3.2 C91.2,3.2 91.1,3.1 91.1,3 C91.1,2.9 91.1,2.7 91.3,2.7 L91.4,2.7 L98.8,2.7 L99.1,2.2 C99.2,2 99.3,1.9 99.3,1.9 C99.3,1.9 99.4,2 99.6,2.1 L100.3,2.7 C100.4,2.8 100.5,2.9 100.6,2.9 C100.7,2.9 100.6,3 100.7,3 C100.8,3 100.6,3.1 100.5,3.3 L100.2,3.7 L100.2,7.5 L100.2,9.3 C100.2,9.4 100.1,9.5 100.1,9.6 C100.1,9.7 99.9,9.7 99.7,9.8 C99.5,9.9 99.3,9.9 99.2,9.9 C99.1,9.9 99,9.9 98.9,9.8 C98.8,9.7 98.8,9.7 98.8,9.6 L98.8,8.7 L99.2,8.7 L99.2,8.7 Z" id="路径_3_"></path>
                        <path d="M108.5,7.3 C107.9,8.1 107.3,8.7 106.8,9.3 C106.3,9.8 105.8,10.2 105.5,10.5 C105.2,10.7 105,10.9 105,10.9 L104.7,11.1 L104.6,11.2 C104.5,11.2 104.5,11.2 104.5,11.2 C104.5,11.2 104.5,11.2 104.5,11.1 C104.5,11.1 104.5,11 104.6,11 L104.8,10.7 C105.3,10.1 105.9,9.3 106.4,8.5 C107,7.7 107.5,6.6 108.2,5.4 C108.8,4.2 109.3,3.2 109.5,2.4 L109.7,2 L109.8,1.6 L109.8,1.6 L110.1,1.8 L111.6,2.7 C111.7,2.7 111.7,2.8 111.7,2.8 L111.7,2.9 C111.7,3 111.7,3 111.6,3.1 L111.1,3.4 L111,3.5 C111.5,4.7 112,5.6 112.5,6.2 C113,6.8 113.5,7.2 113.8,7.5 C114.1,7.8 114.6,8.1 115,8.4 C115.4,8.7 115.9,8.9 116.3,9 L116.7,9.1 L117,9.2 C117.1,9.2 117.1,9.3 117.1,9.3 L117.1,9.4 C117.1,9.5 117.1,9.5 117,9.5 L116.8,9.6 C116.6,9.7 116.4,9.8 116.3,9.9 C116.2,10 116.1,10.1 115.9,10.3 C115.7,10.5 115.7,10.6 115.6,10.8 C115.6,11 115.5,11 115.5,11.1 C115.5,11.2 115.5,11.2 115.4,11.1 C115.3,11.1 114.9,10.8 114.1,10.2 C113.4,9.6 112.8,9 112.3,8.3 C111.8,7.6 111.5,6.9 111.2,6.2 C110.9,5.5 110.7,4.9 110.6,4.4 L110.4,3.7 C109.9,5.3 109.1,6.5 108.5,7.3 Z M111.6,10.3 C111.6,10.3 111.5,10.4 111.5,10.5 C111.5,10.6 111.4,10.7 111.3,10.7 L111.3,13.6 L112.6,13.6 L113.1,12.7 C113.2,12.5 113.3,12.4 113.3,12.4 C113.3,12.4 113.4,12.5 113.6,12.7 L114.5,13.7 C114.6,13.8 114.7,13.9 114.6,14 C114.5,14.1 114.5,14.1 114.4,14.1 L111.2,14.1 L111.2,17.7 L114.2,17.7 L114.9,16.7 L115,16.5 C115.1,16.4 115.1,16.3 115.1,16.3 C115.1,16.3 115.2,16.4 115.4,16.6 L116.4,17.7 C116.5,17.8 116.5,17.9 116.5,17.9 L116.5,18 C116.5,18.1 116.4,18.1 116.3,18.1 L115.6,18.1 L105.1,18.1 C105,18.1 104.9,18 104.9,17.8 C104.9,17.6 105,17.5 105.1,17.5 L109.9,17.5 L109.9,13.9 L107,13.9 L106.9,13.9 C106.9,13.9 106.8,13.9 106.8,13.8 C106.8,13.8 106.8,13.7 106.8,13.5 C106.8,13.4 106.8,13.3 106.9,13.3 L109.9,13.3 L109.9,10 L106.9,10 C106.8,10 106.7,9.9 106.7,9.7 C106.7,9.5 106.7,9.4 106.9,9.4 L111.8,9.4 L112.3,8.6 C112.4,8.4 112.5,8.3 112.5,8.3 C112.5,8.3 112.6,8.4 112.8,8.5 L113.7,9.5 C113.8,9.6 113.8,9.7 113.8,9.8 C113.8,9.9 113.7,9.9 113.6,9.9 L112.7,9.9 L111.6,9.9 L111.6,10.3 L111.6,10.3 Z" id="形状_14_"></path>
                        <path d="M128.9,2.7 L129.5,1.7 C129.5,1.6 129.6,1.6 129.6,1.6 C129.6,1.6 129.7,1.6 129.7,1.7 L130.8,3.1 C130.8,3.2 130.9,3.2 130.9,3.2 C130.9,3.2 130.9,3.3 130.8,3.3 L125.2,3.3 L125.5,3.5 L125.5,3.5 C125.5,3.5 125.5,3.5 125.5,3.6 L125.5,3.6 C125.5,3.7 125.4,3.7 125.4,3.7 L125.1,3.9 L123.8,6.9 L128.3,6.9 L128.6,6.2 C128.6,6.1 128.7,6.1 128.8,6.2 L129.9,7.3 C130,7.4 130,7.4 130,7.4 C130,7.4 130,7.4 130,7.5 C130,7.5 130,7.6 129.9,7.6 L129.5,8 L129.5,17.3 L129.5,18.5 C129.5,18.6 129.4,18.7 129.4,18.7 C129.4,18.7 129.2,18.8 129,18.9 C128.8,19 128.6,19 128.5,19 C128.4,19 128.3,19 128.3,18.9 C128.3,18.8 128.3,18.8 128.3,18.7 L128.3,17.5 L120.9,17.5 L120.9,18.5 C120.9,18.6 120.9,18.7 120.8,18.8 C120.8,18.9 120.6,19 120.4,19 C120.2,19.1 120,19.1 119.9,19.1 C119.8,19.1 119.7,19.1 119.7,19 L119.7,18.9 L119.8,17 L119.8,7.8 L119.8,6.1 L119.8,6.1 C119.8,6.1 119.9,6.1 120,6.2 L121,7 L123.2,7 C123.4,5.9 123.5,5.2 123.6,5 L123.9,3.3 L118.9,3.3 L118.9,3.3 C118.8,3.3 118.8,3.3 118.8,3.2 C118.8,3.1 118.8,3.1 118.7,2.9 C118.7,2.8 118.8,2.7 118.9,2.7 L128.9,2.7 L128.9,2.7 Z M122.7,16.9 L122.7,7.4 L121,7.4 L121,16.9 L122.7,16.9 Z M125.4,10.2 L125.4,7.5 L124,7.5 C123.9,7.6 123.9,7.7 123.8,7.7 L123.8,10.2 L125.4,10.2 Z M125.4,13.4 L125.4,10.7 L123.7,10.7 L123.7,13.4 L125.4,13.4 Z M125.4,16.9 L125.4,13.9 L123.7,13.9 L123.7,16.9 L125.4,16.9 Z M128.4,16.9 L128.4,7.4 L126.7,7.4 C126.6,7.5 126.5,7.6 126.4,7.6 L126.4,16.8 L128.4,16.8 L128.4,16.9 Z" id="形状_15_"></path>
                        <path d="M136.4,3.3 L137.1,3.7 C137.2,3.8 137.3,3.8 137.3,3.9 C137.3,4 137.2,4 137.1,4.1 L136.8,4.2 L134.3,7.2 L138.2,7.2 C138,6.7 137.8,6.2 137.5,5.8 L137.2,5.4 L137.2,5.3 L137.2,5.2 C137.2,5.2 137.2,5.1 137.3,5.1 C137.3,5.1 137.6,5.3 138.2,5.6 C138.7,5.9 139.1,6.3 139.4,6.6 C139.6,7 139.8,7.2 139.9,7.5 C140,7.7 140,8 140,8.2 C140,8.5 139.9,8.9 139.8,9.1 C139.7,9.3 139.5,9.5 139.2,9.5 C139,9.5 138.9,9.4 138.8,9.2 C138.7,9 138.6,8.7 138.6,8.3 L138.5,7.6 L136.1,8.2 L137.3,8.6 C137.4,8.6 137.4,8.7 137.4,8.8 C137.4,8.9 137.4,8.9 137.3,9 L137,9.3 L137,11.6 L138,11.6 L138.6,10.5 C138.6,10.4 138.7,10.4 138.7,10.4 C138.7,10.4 138.8,10.4 138.8,10.5 L139.8,11.7 C139.9,11.8 139.9,11.9 139.9,12 C139.9,12.1 139.8,12.2 139.7,12.2 L136.8,12.2 L136.8,15.5 C137.6,15.4 138.3,15.2 139,15.1 L140,14.9 C140.1,14.9 140.1,14.9 140.1,15 L140.1,15.1 L140.1,15.2 L140,15.3 L138.8,15.8 C138.4,16 137.7,16.3 136.6,16.7 C135.5,17.1 134.8,17.4 134.6,17.5 L133.7,17.9 L133.3,18.1 C133.2,18.2 133.2,18.1 133.1,18 L132.7,16.6 L132.5,16.2 L132.5,16.2 C132.5,16.2 132.6,16.2 132.7,16.2 L133.5,16.1 C133.5,16.1 133.9,16.1 134.5,16 L135.4,15.9 L135.4,12.4 L132.7,12.4 C132.6,12.4 132.5,12.3 132.5,12.1 C132.5,11.9 132.6,11.8 132.7,11.8 L135.4,11.8 L135.4,9.2 L135.4,8.5 C135.1,8.6 134.9,8.6 134.7,8.7 L134.1,8.9 L133.6,9.1 C133.5,9.1 133.4,9.2 133.4,9.2 L133.3,9.3 C133.3,9.3 133.3,9.2 133.2,9 L132.7,7.8 L132.6,7.6 C132.6,7.6 132.6,7.6 132.6,7.5 C132.6,7.5 132.6,7.4 132.7,7.4 L133.1,7.2 C133.2,7.1 133.4,7 133.6,6.7 C133.8,6.4 134.1,6.1 134.3,5.6 C134.5,5.1 134.9,4.4 135.2,3.5 L132.5,3.5 C132.4,3.5 132.4,3.4 132.4,3.2 C132.4,3 132.4,2.9 132.5,2.9 L137.9,2.9 L138.5,1.9 C138.6,1.8 138.6,1.8 138.7,1.7 C138.7,1.7 138.8,1.7 138.9,1.9 L139.8,2.9 C140,3.1 140,3.2 140,3.3 C140,3.4 139.8,3.5 139.5,3.5 L136.4,3.5 L136.4,3.3 Z M141.8,4.9 L141.8,12.7 L141.8,14.5 C141.8,14.6 141.7,14.7 141.7,14.8 C141.7,14.9 141.6,15 141.4,15 C141.3,15.1 141.1,15.1 141,15.1 C140.9,15.1 140.8,15.1 140.7,15 C140.6,14.9 140.6,14.9 140.6,14.8 L140.7,11.9 L140.7,5.7 L140.6,3.5 C140.6,3.5 140.6,3.5 140.7,3.5 C140.7,3.5 140.8,3.5 141,3.6 L142.1,4 C142.2,4 142.2,4.1 142.2,4.2 L142.2,4.3 C142.2,4.3 142.2,4.4 142.1,4.5 L141.8,4.9 Z M144.4,2.7 L144.4,17.4 C144.4,17.6 144.3,17.8 144.2,18.1 C144.1,18.3 143.9,18.5 143.6,18.7 C143.3,18.9 143,19 142.8,19 C142.7,19 142.7,19 142.7,19 C142.7,19 142.7,19 142.7,18.9 C142.7,18.8 142.7,18.7 142.6,18.3 C142.6,17.9 142.3,17.6 141.8,17.4 L141.3,17.2 C141.2,17.2 141.2,17.1 141.2,17.1 L141.2,17 C141.2,16.9 141.3,16.9 141.3,16.9 L141.9,17 C142.3,17 142.5,17.1 142.7,17 C142.9,17 143,17 143,16.9 C143,16.8 143.1,16.7 143.1,16.6 L143.1,4.6 L143,1.5 L143.1,1.5 L143.1,1.5 C143.1,1.5 143.2,1.5 143.4,1.6 L144.6,2 C144.7,2 144.7,2.1 144.7,2.1 L144.7,2.2 C144.7,2.2 144.6,2.3 144.5,2.4 L144.4,2.7 Z" id="形状_16_"></path>
                        <path d="M158.6,4.9 L149.5,4.9 C149.5,5 149.5,5.2 149.5,5.4 C149.5,5.6 149.5,6.2 149.5,7.1 C149.5,8 149.5,8.8 149.5,9.6 C149.5,10.4 149.4,11.3 149.3,12.1 C149.2,13 149,13.9 148.8,14.9 C148.6,15.9 148.1,16.9 147.5,18 L147.1,18.6 C147,18.8 146.9,18.9 146.8,18.9 L146.8,18.9 C146.8,18.9 146.8,18.9 146.8,18.8 C146.8,18.7 146.8,18.7 146.8,18.7 L147,18.3 L147.3,17.6 C147.6,16.9 147.8,16.1 147.9,15.3 C148.1,14.5 148.2,13.6 148.2,12.8 C148.2,12 148.3,11.3 148.3,10.8 C148.3,10.3 148.3,9.8 148.3,9.4 L148.3,7.8 C148.3,6.9 148.3,6.2 148.3,5.9 L148.2,3.7 C148.2,3.7 148.2,3.7 148.2,3.6 C148.2,3.6 148.2,3.5 148.3,3.5 C148.4,3.5 148.4,3.5 148.5,3.6 L149.7,4.4 L157.1,4.4 L157.6,3.6 C157.7,3.4 157.8,3.2 157.9,3.2 C157.9,3.2 158,3.3 158.2,3.4 L159,4.3 C159.2,4.5 159.3,4.6 159.3,4.7 C159.3,4.8 159.3,4.8 159.2,4.8 L158.6,4.9 L158.6,4.9 Z M154.2,8.7 L156.5,8.7 L157,7.9 C157.1,7.7 157.2,7.5 157.3,7.5 C157.4,7.5 157.4,7.6 157.6,7.7 L158.3,8.5 C158.5,8.7 158.6,8.9 158.6,9 C158.6,9.1 158.6,9.1 158.5,9.1 L157.5,9.1 L154.3,9.1 L154.3,12.6 L156.4,12.6 L156.7,12.1 C156.8,11.9 156.9,11.8 156.9,11.8 C156.9,11.8 157,11.9 157.2,12 L157.8,12.6 C157.9,12.7 158,12.8 158,12.9 C158,12.9 158,12.9 158,13 C158,13 158,13 158,13.1 C158,13.2 158,13.2 157.8,13.4 L157.5,13.8 L157.5,16.7 L157.6,18.6 C157.6,18.7 157.5,18.8 157.4,19 C157.3,19.2 157.1,19.2 156.8,19.2 C156.6,19.2 156.5,19.2 156.4,19.1 C156.3,19 156.3,18.9 156.3,18.7 L156.3,17.8 L151.3,17.8 L151.3,18.7 C151.3,18.9 151.2,19 151.1,19.1 C151,19.2 150.8,19.3 150.6,19.3 C150.4,19.3 150.3,19.3 150.3,19.2 C150.2,19.1 150.2,19.1 150.2,18.9 L150.3,16.9 L150.3,13.8 L150.2,11.9 C150.2,11.9 150.2,11.8 150.3,11.8 C150.3,11.8 150.4,11.8 150.5,11.9 L151.6,12.7 L153,12.7 L153,6.9 L152.9,5.2 C152.9,5.1 153,5.1 153,5.1 L153.2,5.2 L154.3,5.5 C154.5,5.6 154.6,5.7 154.7,5.7 C154.7,5.8 154.6,5.9 154.5,6.1 L154.2,6.4 L154.2,8.7 L154.2,8.7 Z M156.3,17.3 L156.3,13.3 L151.3,13.3 L151.3,17.3 L156.3,17.3 Z M152.2,1.1 C152.2,1 152.3,1 152.4,1 C152.4,1 152.6,1.1 153,1.2 C153.4,1.3 153.7,1.5 153.9,1.9 C154.1,2.2 154.3,2.5 154.3,2.8 C154.3,3.1 154.3,3.4 154.2,3.8 C154.1,4.2 153.9,4.4 153.5,4.4 C153.3,4.4 153.2,4.3 153.1,4.2 C153,4.1 152.9,3.9 152.9,3.8 C152.9,3.7 152.8,3.4 152.8,3.1 C152.8,2.7 152.7,2.5 152.7,2.3 C152.7,2.1 152.6,1.9 152.5,1.8 L152.3,1.4 C152.2,1.2 152.2,1.2 152.2,1.1 Z" id="形状_17_"></path>
                        <path d="M162.4,14.6 C162.6,14.6 162.8,14.7 163,14.8 C163.2,15 163.4,15.2 163.5,15.5 C163.6,15.8 163.7,16.1 163.7,16.4 C163.7,16.7 163.6,17 163.5,17.3 C163.4,17.6 163.2,17.8 163,18 C162.8,18.2 162.6,18.2 162.4,18.2 C162.2,18.2 162,18.1 161.8,18 C161.6,17.9 161.4,17.6 161.3,17.3 C161.2,17 161.1,16.7 161.1,16.4 C161.1,16.1 161.2,15.8 161.3,15.5 C161.4,15.2 161.6,15 161.8,14.8 C162,14.7 162.2,14.6 162.4,14.6 Z M162.4,15.3 C162.3,15.3 162.1,15.3 162,15.4 C161.9,15.5 161.8,15.6 161.7,15.8 C161.6,16 161.6,16.2 161.6,16.4 C161.6,16.6 161.6,16.8 161.7,17 C161.8,17.2 161.9,17.3 162,17.4 C162.1,17.5 162.3,17.5 162.4,17.5 C162.5,17.5 162.7,17.5 162.8,17.4 C162.9,17.3 163,17.2 163.1,17 C163.2,16.8 163.2,16.6 163.2,16.4 C163.2,16.2 163.2,16 163.1,15.8 C163,15.6 162.9,15.5 162.8,15.4 C162.7,15.3 162.5,15.3 162.4,15.3 Z" id="形状_18_"></path>
                    </g>
                    <line x1="107.2" y1="108.1" x2="264.7" y2="108.1" id="路径_4_" stroke="#FFFFFF" stroke-width="0.75"></line>
                    <g id="Group_1_" transform="translate(0.000000, 87.000000)">
                        <path d="M0.5,3.9 L0.5,3.9 L0.3,3.9 C0.3,3.9 0.3,3.8 0.2,3.7 C0.2,3.6 0.2,3.6 0.3,3.6 L3.5,3.6 L3.8,3.1 C3.9,2.9 4,2.8 4,2.8 C4,2.8 4.1,2.8 4.1,2.9 C4.2,3 4.2,3 4.2,3.1 L4.7,3.8 C4.7,3.9 4.8,3.9 4.8,3.9 C4.8,3.9 4.8,3.9 4.8,4 C4.8,4 4.8,4 4.8,4.1 C4.8,4.1 4.8,4.1 4.7,4.1 L2.7,4.1 C2.7,4.1 2.7,4.2 2.6,4.2 L2.6,4.2 C2.6,4.2 2.6,4.2 2.5,4.3 L2.4,4.4 L2.3,6.1 L3.3,6.1 L3.4,5.8 C3.4,5.7 3.5,5.6 3.5,5.6 C3.5,5.6 3.6,5.7 3.7,5.8 L4.2,6.3 C4.4,5.5 4.5,4.9 4.6,4.5 C4.7,4 4.8,3.5 4.9,2.9 C5,2.3 5.1,1.9 5.1,1.5 L5.2,0.9 L5.2,0.6 L5.2,0.3 C5.2,0.2 5.3,0.2 5.4,0.3 L6.3,0.8 C6.4,0.8 6.4,0.9 6.5,0.9 C6.6,0.9 6.5,1 6.5,1 C6.5,1 6.5,1.1 6.4,1.1 L6.1,1.3 C5.9,2.1 5.7,2.8 5.6,3.3 L5.5,3.7 L5.5,3.8 L8,3.8 L8.4,3.1 L8.5,2.9 L8.6,2.9 C8.6,2.9 8.7,3 8.8,3.1 L9.4,3.8 C9.5,3.9 9.5,3.9 9.5,4 L9.5,4.1 C9.5,4.1 9.4,4.2 9.3,4.2 L8.9,4.2 L7.9,4.2 L8.4,4.5 C8.5,4.6 8.5,4.6 8.5,4.6 L8.5,4.6 C8.5,4.6 8.5,4.6 8.4,4.7 L8.2,4.9 C8.1,5.8 8,6.4 7.9,6.8 C7.8,7.2 7.7,7.6 7.6,8 C7.5,8.4 7.3,8.9 7.1,9.7 C7.6,10.4 8,10.8 8.3,11.1 C8.6,11.4 8.9,11.5 9,11.6 L9.4,11.8 L9.5,11.9 L9.6,12 C9.6,12 9.6,12 9.6,12.1 C9.6,12.1 9.6,12.1 9.6,12.2 C9.6,12.2 9.6,12.2 9.5,12.2 L9.4,12.2 C9.3,12.2 9.2,12.2 9.1,12.3 C9,12.4 8.9,12.5 8.8,12.6 C8.7,12.7 8.6,12.8 8.6,13 C8.6,13.1 8.5,13.2 8.5,13.1 C8.4,13.1 8.2,12.8 7.8,12.3 C7.4,11.8 7.1,11.4 6.9,11.2 L6.6,10.7 C6.1,11.4 5.7,11.9 5.2,12.3 C4.7,12.7 4.4,12.9 4.2,13.1 C4,13.2 3.9,13.3 3.9,13.3 L3.6,13.5 C3.6,13.5 3.6,13.5 3.5,13.5 L3.5,13.5 C3.5,13.5 3.5,13.5 3.5,13.4 L3.5,13.3 L3.7,13.1 L4,12.8 C4.4,12.4 4.8,12 5.1,11.5 C5.4,11.1 5.8,10.5 6.1,9.9 C5.9,9.4 5.8,8.9 5.8,8.6 C5.7,8.3 5.7,7.9 5.6,7.6 C5.6,7.3 5.5,7 5.5,6.7 C5.5,6.4 5.4,5.7 5.4,4.8 C5.3,5 5.3,5.1 5.2,5.2 C5.1,5.3 5,5.7 4.7,6.4 L4.8,6.5 C4.8,6.5 4.8,6.5 4.8,6.6 C4.8,6.6 4.8,6.7 4.7,6.7 L4.5,7 C4.5,7.5 4.5,7.9 4.4,8.1 C4.4,8.4 4.3,8.9 4.3,9.8 C4.2,10.6 4.2,11.2 4.1,11.6 C4,12 3.9,12.3 3.7,12.5 C3.5,12.7 3.3,12.9 3.2,13 C3.1,13.1 2.9,13.1 2.9,13.1 L2.8,13.1 C2.8,13.1 2.8,13 2.8,12.8 C2.8,12.6 2.7,12.4 2.6,12.3 C2.5,12.1 2.4,12 2.2,11.9 L2.1,11.8 C2,11.8 2,11.7 2,11.7 L2,11.6 L2.1,11.6 L2.3,11.7 C2.5,11.8 2.7,11.8 2.9,11.8 C3,11.8 3.1,11.8 3.2,11.7 C3.3,11.6 3.3,11.5 3.4,11.3 C3.4,11.1 3.5,10.8 3.5,10.4 C3.5,10 3.6,9.6 3.6,9.2 L3.7,7.3 C3.7,7 3.7,6.8 3.7,6.8 L3.7,6.6 L2.6,6.6 C2.6,6.7 2.6,6.7 2.6,6.8 L2.6,7.2 C2.6,7.7 2.5,8.4 2.3,9.2 C2.2,10 1.9,10.7 1.6,11.2 C1.3,11.7 1,12.3 0.6,12.7 L0.4,13 C0.3,13.1 0.3,13.1 0.3,13.1 L0.3,13.1 C0.3,13.1 0.3,13.1 0.3,13 L0.3,12.9 L0.5,12.6 C0.5,12.5 0.6,12.4 0.7,12.1 C0.8,11.9 1,11.4 1.2,10.7 C1.4,10 1.6,9.1 1.6,7.9 C1.7,6.7 1.7,5.9 1.7,5.4 L1.7,4.1 L0.5,4.1 L0.5,3.9 Z M1.6,0.4 L1.6,0.4 C1.6,0.3 1.6,0.3 1.7,0.3 C1.8,0.3 2,0.4 2.5,0.7 C2.9,1 3.2,1.4 3.2,2.1 C3.2,2.3 3.1,2.5 3,2.7 C2.9,2.9 2.7,3 2.6,3 C2.4,3 2.3,2.9 2.2,2.7 C2.2,2.6 2.1,2.6 2.1,2.5 C2.1,2.4 2.1,2.4 2.1,2.3 L2.1,1.2 C2.1,1.1 2,0.9 1.9,0.7 C1.6,0.5 1.6,0.4 1.6,0.4 Z M5.6,4.1 L5.5,4.3 C5.5,4.6 5.6,4.9 5.6,5.2 C5.6,5.5 5.7,5.8 5.7,6 C5.7,6.2 5.8,6.6 5.9,7.1 C6,7.6 6.2,8.2 6.4,8.7 C6.7,7.8 6.8,7.1 6.9,6.6 C7,6.1 7,5.6 7.1,5.3 C7.1,4.9 7.2,4.7 7.2,4.6 L7.2,4.5 L7.2,4.2 L5.6,4.1 L5.6,4.1 Z" id="Shape"></path>
                        <path d="M11.3,3.2 C11.3,3.1 11.3,3.1 11.3,3.2 C11.3,3.1 11.4,3.1 11.3,3.2 C11.4,3.1 11.5,3.3 11.6,3.6 C11.7,3.9 11.8,4.2 11.8,4.4 C11.8,4.7 11.9,4.8 11.9,4.9 C11.9,5 11.9,5.1 11.9,5.2 C11.9,5.3 11.9,5.5 11.8,5.6 C11.7,5.8 11.7,6 11.5,6.2 C11.4,6.4 11.2,6.4 11.1,6.4 C11,6.4 10.8,6.3 10.8,6.2 C10.7,6.1 10.7,5.9 10.7,5.7 C10.7,5.5 10.8,5.3 10.9,5.1 L11.1,4.8 C11.3,4.5 11.3,4.2 11.4,4 C11.4,3.7 11.4,3.5 11.3,3.2 C11.3,3.3 11.3,3.2 11.3,3.2 Z M13,1 L13,11.4 L13.1,12.9 C13,13.2 12.8,13.4 12.4,13.4 C12.3,13.4 12.2,13.4 12.2,13.3 C12.2,13.3 12.1,13.2 12.1,13.1 L12.2,11.1 L12.2,2.1 L12.1,0.2 C12.1,0.2 12.1,0.1 12.2,0.1 C12.2,0.1 12.3,0.1 12.4,0.2 L13.3,0.5 C13.4,0.5 13.4,0.6 13.4,0.6 C13.4,0.6 13.4,0.6 13.4,0.7 C13.4,0.7 13.4,0.7 13.4,0.8 L13,1 Z M13.3,2.9 C13.3,2.8 13.4,2.8 13.5,2.9 L13.7,3.1 C13.7,3.1 13.8,3.2 13.9,3.3 C14,3.4 14.1,3.5 14.2,3.6 C14.3,3.7 14.4,3.8 14.4,4 C14.5,4.2 14.5,4.4 14.5,4.6 C14.5,4.8 14.5,5 14.4,5.1 C14.3,5.2 14.2,5.4 14,5.4 C13.9,5.4 13.8,5.3 13.7,5.2 C13.6,5.1 13.6,5 13.6,4.9 L13.6,3.9 C13.6,3.8 13.6,3.7 13.5,3.6 C13.5,3.4 13.4,3.3 13.3,3.1 L13.2,2.9 C13.3,3 13.3,3 13.3,2.9 Z M13.6,1.9 C13.5,1.9 13.5,1.9 13.5,1.8 C13.5,1.7 13.5,1.7 13.4,1.6 C13.4,1.5 13.4,1.4 13.6,1.4 L18.5,1.4 L18.8,0.8 C18.9,0.7 18.9,0.6 18.9,0.6 C18.9,0.6 19,0.7 19.1,0.8 L19.8,1.5 C19.9,1.6 20,1.7 20,1.8 C20,1.9 19.9,1.9 19.8,1.9 L17.1,1.9 L17.7,2.2 L17.8,2.3 C17.8,2.3 17.8,2.3 17.8,2.4 C17.8,2.4 17.8,2.4 17.8,2.5 L17.6,2.7 L16.8,4.6 L17.2,4.8 C17.3,4.8 17.3,4.9 17.4,4.9 L17.4,5 C17.4,5 17.4,5.1 17.3,5.1 L17.1,5.3 L17.1,11.3 L17.2,12.8 C17.2,12.9 17.2,13 17.1,13 C17,13 17,13.1 16.9,13.2 C16.8,13.3 16.6,13.3 16.5,13.3 C16.4,13.3 16.3,13.3 16.3,13.2 C16.3,13.2 16.2,13.1 16.2,13 L16.3,11.2 L16.3,6 C15.7,7 15.3,7.7 15.1,8.1 C14.8,8.5 14.6,8.8 14.4,9.1 C14.2,9.4 14,9.6 14,9.7 L13.8,9.9 L13.7,9.9 L13.7,9.9 L13.7,9.9 L13.7,9.9 C13.7,9.9 13.7,9.9 13.7,9.8 L13.8,9.6 C14.4,8.7 14.8,7.8 15.2,6.8 C15.6,5.8 15.9,5 16.1,4.3 C16.3,3.6 16.5,2.8 16.7,2 L13.6,1.9 L13.6,1.9 Z M17.7,5.4 C17.7,5.3 17.7,5.3 17.7,5.4 C17.8,5.3 17.8,5.4 18,5.4 C18.1,5.5 18.3,5.7 18.6,6 C18.9,6.3 19.2,6.7 19.4,7 C19.6,7.3 19.8,7.7 19.8,7.9 C19.9,8.2 19.9,8.4 19.9,8.7 C19.9,9 19.8,9.2 19.7,9.4 C19.6,9.6 19.5,9.6 19.3,9.6 C19,9.6 18.9,9.5 18.8,9.2 C18.7,8.9 18.7,8.5 18.6,8 C18.5,7.5 18.4,7 18.2,6.6 C18,6.2 17.9,5.8 17.7,5.5 L17.7,5.4 L17.7,5.4 Z" id="Shape_1_"></path>
                        <path d="M28.2,1.2 L28.7,0.4 C28.7,0.3 28.8,0.3 28.8,0.3 C28.8,0.3 28.9,0.3 29,0.4 L29.7,1.1 C29.8,1.2 29.8,1.3 29.8,1.4 C29.8,1.5 29.7,1.6 29.6,1.6 L26.4,1.6 C26.3,1.7 26.2,1.8 26.1,1.9 C26.1,2.4 26.1,2.8 26.1,3.1 C26.1,3.4 26.1,3.9 26.1,4.3 L26.1,5.2 L26.1,5.4 L28.9,5.4 L29.4,4.6 C29.5,4.5 29.5,4.4 29.5,4.4 C29.5,4.4 29.6,4.4 29.6,4.5 L30.3,5.4 C30.4,5.5 30.4,5.5 30.4,5.6 L30.4,5.7 C30.4,5.8 30.3,5.8 30.2,5.8 L29.1,5.8 L26.3,5.8 C26.4,6.1 26.4,6.5 26.6,7.1 C26.7,7.7 27.1,8.4 27.6,9.3 C28.1,10.2 28.7,10.8 29.1,11.2 C29.6,11.6 29.9,11.8 30.2,11.8 L30.5,11.9 L30.6,12 C30.6,12.1 30.6,12.1 30.5,12.1 L30.3,12.2 C30.2,12.2 30.1,12.3 30,12.4 C29.9,12.5 29.8,12.6 29.7,12.7 C29.6,12.8 29.5,12.9 29.5,13 C29.4,13.1 29.4,13.2 29.4,13.2 C29.4,13.2 29.3,13.2 29.2,13.1 C29.1,13 28.8,12.7 28.4,12.3 C28,11.8 27.6,11.2 27.3,10.4 C27,9.6 26.7,8.8 26.6,7.9 C26.5,7 26.4,6.3 26.4,5.8 L26,5.8 C26,5.9 26,5.9 26,6 L26,6.7 C25.9,8 25.7,9 25.3,9.7 C25,10.4 24.5,11 24,11.6 C23.5,12.2 22.8,12.7 22,13.2 L21.6,13.4 L21.5,13.4 L21.4,13.4 C21.4,13.4 21.4,13.4 21.4,13.3 C21.4,13.3 21.4,13.2 21.5,13.2 L21.9,12.9 C22.4,12.5 22.9,11.9 23.5,11.2 C24.1,10.5 24.4,9.7 24.6,8.9 C24.8,8.1 24.9,7.5 24.9,7 C24.9,6.5 25,6.2 25,5.9 L21.3,5.9 C21.2,5.9 21.2,5.8 21.2,5.7 C21.2,5.6 21.2,5.5 21.3,5.5 L25,5.5 C25,5.4 25,5.3 25,5.2 C25,5.1 25,4.7 25,4.1 C25,3.5 25,3.1 25,3.1 L25,1.7 L21.8,1.7 C21.7,1.7 21.6,1.6 21.6,1.5 C21.6,1.4 21.7,1.3 21.8,1.3 L28.2,1.2 L28.2,1.2 Z" id="Path"></path>
                        <path d="M33.1,4.4 L33.1,2 L33.1,0.3 L33.1,0.3 L33.2,0.3 L34.1,0.6 C34.1,0.6 34.2,0.6 34.2,0.7 C34.2,0.8 34.2,0.8 34.2,0.8 C34.2,0.8 34.2,0.9 34.1,1 L33.9,1.3 L33.9,4.4 L34.2,4.4 L34.6,3.7 C34.6,3.6 34.7,3.6 34.7,3.6 C34.7,3.6 34.8,3.6 34.8,3.7 L35.3,4.4 C35.4,4.5 35.4,4.6 35.4,4.6 L35.4,4.7 L35.3,4.7 L34,4.7 L34,9.3 L35.3,8.6 C35.4,8.6 35.4,8.6 35.5,8.6 C35.6,8.6 35.5,8.7 35.5,8.7 C35.5,8.7 35.5,8.7 35.5,8.8 C35.5,8.8 35.5,8.9 35.4,8.9 L34.8,9.5 C34.4,9.9 34,10.3 33.8,10.5 L33,11.2 L32.5,11.7 L32.3,11.9 C32.3,11.9 32.3,11.9 32.2,11.9 C32.1,11.9 32.2,11.8 32.1,11.7 L31.6,10.6 C31.6,10.5 31.5,10.4 31.5,10.4 L31.5,10.4 L31.8,10.3 L33,9.8 L33,4.8 L31.5,4.8 C31.4,4.8 31.3,4.7 31.4,4.6 C31.4,4.5 31.5,4.4 31.6,4.4 L33.1,4.4 Z M35.6,6.2 L34.5,6.8 C34.3,6.9 34.2,6.9 34.2,6.8 C34.2,6.7 34.2,6.6 34.3,6.5 L35.6,5.8 L35.6,4.1 L35.6,2.7 C35.6,2.7 35.6,2.7 35.7,2.6 L35.9,2.7 L36.6,3 C36.7,3 36.7,3.1 36.7,3.1 L36.7,3.2 C36.7,3.2 36.7,3.2 36.7,3.3 C36.7,3.3 36.7,3.4 36.6,3.4 L36.4,3.6 L36.4,5.5 L37.5,4.9 L37.5,2.3 L37.5,0.6 C37.5,0.6 37.5,0.6 37.6,0.5 L37.7,0.5 L38.6,0.8 C38.6,0.8 38.7,0.8 38.7,0.9 L38.7,1 C38.7,1 38.7,1.1 38.6,1.2 L38.4,1.4 L38.4,4.4 L39.4,3.8 L39.6,3.3 C39.7,3.2 39.7,3.1 39.7,3.1 C39.7,3.1 39.8,3.1 39.9,3.2 L40.6,3.7 C40.7,3.8 40.7,3.8 40.8,3.9 C40.9,4 40.8,4 40.8,4 C40.8,4 40.8,4.1 40.7,4.2 L40.5,4.5 C40.5,5 40.5,5.5 40.5,5.9 C40.5,6.3 40.5,6.7 40.5,7.1 C40.5,7.5 40.5,7.9 40.4,8.4 C40.4,8.8 40.3,9.2 40.2,9.4 C40.1,9.6 40,9.8 39.9,9.9 C39.8,10 39.7,10.1 39.5,10.1 C39.4,10.1 39.3,10.2 39.2,10.2 L39.1,10.2 L39.1,10.2 C39.1,10.2 39.1,10 39,9.7 C38.9,9.4 38.8,9.2 38.5,9 L38.4,8.9 L38.4,8.7 L38.7,8.7 C38.9,8.7 39.1,8.7 39.2,8.7 C39.3,8.7 39.4,8.6 39.4,8.5 C39.4,8.4 39.5,8.2 39.5,7.9 C39.5,7.6 39.5,7.3 39.5,6.8 C39.5,6.3 39.5,5.8 39.5,5.4 L39.5,4.8 L39.5,4.2 L38.4,4.9 L38.4,9.5 L38.4,10.6 C38.3,10.8 38.3,10.9 38.1,10.9 C38,11 37.9,11 37.8,11 C37.7,11 37.6,11 37.6,10.9 C37.6,10.8 37.6,10.8 37.5,10.7 L37.5,9 L37.5,5.4 L37.5,5.4 L36.4,6 L36.4,11.1 C36.4,11.4 36.4,11.6 36.4,11.7 C36.4,11.8 36.4,11.8 36.5,11.9 C36.5,12 36.7,12 36.9,12.1 C37.2,12.2 37.5,12.2 38,12.2 C38.9,12.2 39.4,12.1 39.7,12 C39.9,11.9 40.1,11.7 40.2,11.6 C40.3,11.5 40.4,11.2 40.6,10.7 L41,9.5 C41,9.4 41.1,9.4 41.1,9.4 C41.1,9.4 41.1,9.4 41.2,9.5 C41.3,9.6 41.2,9.6 41.2,9.6 L41.2,9.7 L41,10.8 C41,10.9 41,11 41,11.1 C41,11.2 41,11.3 41,11.4 C41,11.5 41,11.7 41.1,11.8 L41.2,12.1 C41.2,12.2 41.2,12.2 41.2,12.3 L41.2,12.4 L41.2,12.5 C41.1,12.9 40.9,13.2 40.4,13.3 C39.9,13.5 39.3,13.5 38.4,13.5 C37.1,13.5 36.4,13.4 36.2,13.2 C36,13 35.9,12.8 35.8,12.6 C35.7,12.4 35.7,12.3 35.7,12.2 C35.7,12.1 35.7,11.9 35.7,11.6 L35.7,6.2 L35.6,6.2 Z" id="Shape_2_"></path>
                        <path d="M43.7,13.2 L43.9,13 C43.9,13 44,12.9 44.1,12.7 C44.2,12.5 44.2,12.4 44.3,12.4 C44.3,12.3 44.4,12.2 44.4,12 C44.5,11.8 44.5,11.6 44.4,11.5 C44.4,11.4 44.3,11.3 44.3,11.3 L44.2,11.3 C44.1,11.3 44.1,11.3 44,11.3 C43.8,11.3 43.7,11.2 43.6,11 C43.5,10.8 43.4,10.6 43.4,10.3 C43.4,10 43.5,9.8 43.6,9.6 C43.7,9.4 43.9,9.3 44.1,9.3 C44.4,9.3 44.6,9.4 44.7,9.7 C44.8,9.9 44.9,10.2 44.9,10.5 C44.9,10.8 44.9,11 44.9,11.3 C44.8,11.7 44.8,12 44.6,12.3 C44.5,12.6 44.4,12.8 44.2,12.9 C44,13 44,13.2 43.9,13.3 C43.8,13.4 43.7,13.5 43.6,13.5 C43.5,13.5 43.5,13.4 43.5,13.4 C43.6,13.3 43.6,13.2 43.7,13.2 Z" id="Path_1_"></path>
                        <path d="M59.6,4.3 L57.9,4.3 C57.9,4.4 58,4.7 58.2,5.1 C58.3,5.5 58.6,5.9 59,6.4 C59.4,6.9 59.9,7.3 60.3,7.6 C60.7,8 61.2,8.2 61.7,8.3 L62.1,8.4 C62.2,8.4 62.2,8.5 62.2,8.5 C62.2,8.5 62.2,8.6 62.1,8.6 L61.8,8.8 C61.7,8.8 61.7,8.9 61.5,9.1 C61.3,9.3 61.3,9.4 61.2,9.6 C61.1,9.8 61.1,9.8 61,9.8 C61,9.8 60.8,9.7 60.6,9.5 C60.4,9.3 60.2,9.2 60.1,9 C60,8.9 59.7,8.6 59.3,8.2 C58.9,7.8 58.6,7.2 58.3,6.5 C58,5.8 57.7,5 57.6,4.1 L55.4,4.1 C55.4,4.2 55.4,4.3 55.4,4.3 C55.4,4.4 55.4,4.6 55.4,4.9 C55.4,5.2 55.4,5.6 55.3,6 C55.3,6.5 55.1,7 55,7.5 C54.8,8 54.5,8.5 54.2,9 C53.8,9.5 53.5,9.9 53.2,10.2 L52.9,10.5 C52.8,10.6 52.8,10.6 52.7,10.6 L52.6,10.6 L52.6,10.5 C52.6,10.5 52.6,10.4 52.7,10.4 C52.8,10.3 52.8,10.3 52.8,10.2 L53.1,9.9 C53.7,9.1 54.1,8.3 54.2,7.6 C54.3,6.9 54.4,6.3 54.4,5.9 C54.4,5.5 54.4,5.1 54.5,4.7 C54.5,4.2 54.5,3.8 54.5,3.3 C54.5,2.8 54.5,2.4 54.5,1.9 L54.4,0.2 L54.4,0.2 C54.4,0.2 54.4,0.2 54.4,0.1 L54.5,0.2 L55.5,0.8 L59.4,0.8 L59.6,0.5 C59.7,0.3 59.8,0.3 59.8,0.3 C59.8,0.3 59.9,0.4 60,0.5 L60.4,0.9 C60.5,1 60.6,1.1 60.6,1.1 L60.6,1.2 C60.6,1.2 60.6,1.3 60.5,1.4 L60.3,1.6 L60.3,3.6 L60.3,5 C60.3,5.1 60.2,5.2 60.2,5.2 C60.2,5.2 60.1,5.3 60,5.3 C59.9,5.3 59.8,5.3 59.7,5.3 C59.5,5.3 59.4,5.2 59.4,5 L59.4,4.3 L59.6,4.3 Z M59.6,4 L59.6,1.4 L55.5,1.4 L55.5,4 L59.6,4 L59.6,4 Z M55.8,10.3 C55.8,10.3 55.8,10.2 55.9,10.2 L56,10.2 C56.1,10.2 56.2,10.3 56.5,10.3 C56.8,10.4 57.1,10.5 57.6,10.7 C58.1,10.9 58.4,11.2 58.6,11.5 C58.8,11.8 58.9,12.1 58.9,12.5 C58.9,12.6 58.9,12.8 58.8,13 C58.7,13.2 58.6,13.3 58.4,13.3 C58.3,13.3 58.2,13.3 58.1,13.2 C58,13.1 57.9,12.8 57.6,12.3 C57.3,11.8 57.1,11.4 56.9,11.1 C56.6,10.8 56.4,10.6 56.2,10.5 L55.9,10.3 C55.8,10.4 55.8,10.4 55.8,10.3 Z M56.1,7.3 C56.1,7.2 56.2,7.2 56.3,7.2 L56.4,7.2 C56.5,7.2 56.7,7.3 57,7.4 C57.3,7.5 57.6,7.6 57.9,7.9 C58.2,8.1 58.4,8.4 58.5,8.6 C58.6,8.8 58.6,9 58.6,9.2 C58.6,9.4 58.5,9.6 58.4,9.8 C58.3,9.9 58.2,10 58.1,10 C57.9,10 57.8,9.9 57.7,9.8 C57.6,9.7 57.5,9.4 57.4,9.1 C57.3,8.8 57.1,8.5 57,8.3 C56.9,8.1 56.7,7.9 56.5,7.8 L56.2,7.6 C56.1,7.4 56.1,7.4 56.1,7.3 Z" id="Shape_3_"></path>
                        <path d="M64.6,3.6 L64.6,1.4 L64.5,0.3 C64.5,0.3 64.6,0.2 64.7,0.3 L65.5,0.6 C65.6,0.6 65.7,0.7 65.7,0.7 L65.7,0.8 C65.7,0.8 65.7,0.9 65.6,0.9 L65.3,1.2 L65.3,3.6 L65.5,3.6 L65.7,3.1 C65.7,3 65.8,3 65.8,3 C65.8,3 65.9,3 66,3.1 L66.4,3.7 C66.4,3.8 66.5,3.8 66.5,3.9 C66.5,4 66.5,4 66.5,4 L66.4,4.1 L65.4,4.1 L65.4,6.3 C65.5,6.3 65.8,6.1 66.3,5.8 L66.5,5.7 C66.6,5.7 66.6,5.7 66.6,5.7 L66.6,5.8 C66.6,5.8 66.6,5.8 66.6,5.9 L66.5,6 C66.3,6.2 66,6.5 65.5,7 L65.5,12.4 C65.5,12.6 65.5,12.7 65.5,12.8 C65.5,12.9 65.4,13 65.3,13.1 C65.2,13.2 65,13.3 64.8,13.3 C64.6,13.3 64.5,13.4 64.5,13.4 L64.4,13.4 C64.4,13.4 64.4,13.3 64.4,13.2 C64.4,13.1 64.4,12.9 64.3,12.8 C64.2,12.7 64.1,12.6 64,12.5 L63.8,12.4 C63.8,12.4 63.8,12.4 63.7,12.3 L63.7,12.2 C63.7,12.2 63.7,12.2 63.7,12.1 C63.7,12.1 63.7,12 63.8,12.1 L64,12.1 C64.3,12.1 64.5,12.2 64.5,12.2 C64.6,12.2 64.6,12.2 64.6,12.1 C64.6,12.1 64.7,12 64.7,11.9 C64.7,11.8 64.7,11.7 64.7,11.4 L64.7,7.9 C64.6,8 64.5,8.1 64.3,8.2 C64.2,8.3 64.1,8.4 64.1,8.4 L63.9,8.6 C63.8,8.7 63.7,8.8 63.7,8.8 C63.7,8.8 63.6,8.7 63.6,8.6 L63.3,7.6 C63.3,7.5 63.2,7.4 63.2,7.4 L63.2,7.4 C63.2,7.4 63.2,7.4 63.3,7.3 L63.5,7.2 C63.7,7.1 64.1,7 64.6,6.7 L64.6,4 L63.2,4 L63.2,4 C63.2,4 63.1,4 63.1,3.9 C63.1,3.8 63.1,3.8 63.1,3.7 C63.1,3.6 63.1,3.6 63.2,3.6 L64.6,3.6 Z M69.7,7.8 L69.6,9 L70.4,9.4 C70.5,9.4 70.5,9.5 70.5,9.6 C70.5,9.7 70.5,9.7 70.4,9.8 L70.2,9.9 L70.2,11.8 C70.2,11.9 70.2,12 70.3,12.1 C70.4,12.2 70.5,12.2 70.7,12.2 C71.2,12.2 71.5,12.1 71.7,12 C71.9,11.9 71.9,11.7 72,11.5 C72.1,11.3 72.2,11 72.3,10.5 L72.4,10.1 C72.4,10 72.4,10 72.5,10 C72.6,10 72.6,10 72.6,10.1 C72.6,10.2 72.6,10.2 72.6,10.2 L72.5,10.6 C72.4,11 72.4,11.3 72.4,11.5 C72.4,11.7 72.4,11.8 72.5,12 L72.6,12.2 C72.6,12.3 72.7,12.4 72.7,12.5 C72.7,12.6 72.7,12.7 72.7,12.7 C72.6,13 72.4,13.2 72,13.3 C71.6,13.4 71.2,13.4 70.7,13.4 C70.3,13.4 70,13.3 69.8,13.2 C69.6,13.1 69.6,12.8 69.6,12.4 L69.6,9.6 C69.5,9.8 69.5,10 69.4,10.3 C69.3,10.6 69.2,10.9 69,11.4 C68.8,11.9 68.4,12.3 67.9,12.6 C67.4,12.9 66.9,13.2 66.4,13.4 L66.2,13.5 C66.2,13.5 66.2,13.5 66.1,13.5 C66.1,13.5 66.1,13.5 66.1,13.4 C66.1,13.4 66.1,13.4 66.1,13.3 C66.1,13.3 66.1,13.3 66.1,13.2 L66.3,13.1 C67,12.7 67.6,12.3 67.9,11.8 C68.2,11.3 68.4,10.8 68.6,10.4 C68.7,10 68.8,9.6 68.9,9.2 C68.9,8.8 69,8.5 69,8.1 L69,7.5 L69,7.2 L69,7 L69,7 C69,7 69.1,7 69.3,7.1 L70,7.4 C70.1,7.4 70.1,7.4 70.1,7.5 L70.1,7.6 C70.1,7.6 70.1,7.7 70,7.7 L69.7,7.8 Z M67.5,1.9 L67.5,3.9 L67.5,4.7 C67.5,4.9 67.4,5 67.2,5.1 C67.1,5.2 66.9,5.2 66.8,5.2 C66.7,5.2 66.6,5.2 66.6,5.1 C66.6,5.1 66.6,5 66.5,4.9 L66.5,4 L66.5,2.2 L66.5,1.1 L66.6,1 C66.6,1 66.7,1 66.9,1.1 L67.5,1.4 C67.6,1.4 67.6,1.5 67.6,1.5 L67.6,1.6 C67.6,1.6 67.6,1.7 67.5,1.8 L67.5,1.9 L67.5,1.9 Z M67.8,6.2 L67.8,9.9 C67.8,10 67.8,10.1 67.7,10.2 C67.7,10.3 67.6,10.3 67.5,10.4 C67.4,10.5 67.3,10.5 67.2,10.5 C67.1,10.5 67,10.5 67,10.4 C67,10.4 66.9,10.3 66.9,10.2 L67,9 L67,6.5 L66.9,5.3 C66.9,5.3 66.9,5.2 67,5.2 C67,5.2 67.1,5.2 67.2,5.3 L67.9,5.7 L70.7,5.7 L70.9,5.2 C70.9,5.1 71,5.1 71,5.1 C71,5.1 71.1,5.1 71.2,5.2 L71.8,5.7 C71.9,5.8 71.9,5.8 71.9,5.9 L71.9,6 C71.9,6 71.9,6.1 71.8,6.1 L71.6,6.3 L71.6,8.3 L71.7,9.6 C71.6,9.9 71.4,10 71.1,10 C70.9,10 70.8,10 70.8,9.9 C70.8,9.9 70.8,9.7 70.8,9.5 L70.8,6 L67.8,6 L67.8,6.2 Z M68.9,1.2 L68.9,4.2 L68.9,5 C68.9,5.1 68.8,5.3 68.6,5.3 C68.4,5.3 68.4,5.4 68.2,5.4 C68.1,5.4 68.1,5.4 68,5.3 C67.9,5.2 67.9,5.2 67.9,5.1 L68,3.8 L68,1.4 L68,0.4 L68,0.3 L68.3,0.4 L68.9,0.6 C69,0.6 69,0.7 69,0.7 C69,0.8 69,0.8 68.9,0.9 L68.9,1.2 Z M71.4,2.6 L71.7,2 C71.7,1.9 71.8,1.9 71.8,1.9 C71.8,1.9 71.9,2 72,2.1 L72.5,2.7 C72.6,2.8 72.6,2.9 72.6,2.9 L72.5,3 L70.2,3 C69.9,3.6 69.6,4.1 69.4,4.4 L69.3,4.6 C69.3,4.7 69.2,4.7 69.2,4.7 L69.2,4.6 L69.2,4.5 L69.3,4.3 L69.4,4 C69.6,3.4 69.7,2.8 69.9,2.2 C70,1.6 70.1,1.2 70.2,1 L70.2,0.7 L70.2,0.5 L70.3,0.5 L71.1,1 C71.2,1 71.2,1.1 71.2,1.1 C71.2,1.1 71.2,1.1 71.2,1.2 C71.2,1.2 71.2,1.2 71.2,1.3 C71.2,1.4 71.2,1.4 71.1,1.4 L70.9,1.5 C70.5,2.4 70.3,2.8 70.3,2.9 L71.4,2.9 L71.4,2.6 L71.4,2.6 Z M70.2,3.4 C70.2,3.3 70.2,3.3 70.2,3.4 C70.3,3.3 70.4,3.4 70.6,3.4 C70.8,3.5 71,3.6 71.2,3.7 C71.4,3.8 71.5,4.1 71.5,4.4 C71.5,4.5 71.5,4.6 71.4,4.8 C71.3,5 71.2,5 71,5 C70.9,5 70.8,5 70.7,4.9 C70.6,4.8 70.6,4.7 70.5,4.5 L70.5,4.2 C70.5,4.1 70.4,3.9 70.4,3.8 C70.4,3.7 70.3,3.6 70.3,3.6 C70.3,3.5 70.2,3.5 70.2,3.5 L70.2,3.4 C70.2,3.5 70.2,3.4 70.2,3.4 Z" id="Shape_4_"></path>
                        <path d="M78.4,4.7 C78.4,5.2 78.3,5.8 78.2,6.5 C78.1,7.2 77.9,7.9 77.7,8.7 C77.5,9.5 77,10.3 76.3,11.1 C75.6,11.9 74.9,12.6 74.1,13 L73.7,13.2 L73.6,13.2 L73.6,13.2 C73.6,13.2 73.6,13.2 73.6,13.1 C73.6,13.1 73.6,13 73.7,13 L74.1,12.7 C74.9,12 75.6,11.1 76.1,10.1 C76.6,9.1 77,8 77.2,6.9 C77.4,5.8 77.5,4.8 77.5,3.9 C77.5,3 77.6,2.5 77.6,2.2 C77.6,2 77.6,1.7 77.6,1.5 L77.6,0.9 L77.5,0.3 L77.5,0.3 L77.6,0.4 L78.8,0.8 C78.8,0.8 78.9,0.8 78.9,0.9 L78.9,1 C78.9,1 78.9,1.1 78.8,1.1 L78.5,1.5 C78.6,2.4 78.7,3.2 78.8,3.9 C78.9,4.7 79.1,5.5 79.4,6.4 C79.7,7.3 80,8.2 80.5,9 C80.9,9.8 81.3,10.5 81.8,11 C82.2,11.5 82.5,11.8 82.7,11.9 L83.1,12.2 L83.2,12.3 C83.2,12.4 83.2,12.4 83.1,12.4 L82.7,12.4 C82.6,12.4 82.4,12.4 82.2,12.5 C82,12.6 81.9,12.7 81.8,12.7 L81.6,12.9 C81.5,13 81.5,13 81.5,13 C81.5,13 81.5,13 81.4,12.9 L81.1,12.5 C80.5,11.6 80,10.6 79.6,9.3 C79.2,8.1 78.9,7 78.8,6 L78.4,2.8 C78.5,3.7 78.4,4.2 78.4,4.7 Z" id="Path_2_"></path>
                        <path d="M88.4,12.5 L88.4,8.4 L85.8,8.4 C85.7,8.4 85.7,8.3 85.7,8.2 C85.7,8.1 85.7,8 85.8,8 L88.4,8 L88.4,4.6 L86.3,4.6 C86.2,4.9 86.1,5.2 86.1,5.4 C86,5.6 85.9,6 85.6,6.7 C85.4,7.4 85.2,7.8 85.1,7.9 C85,8.1 84.9,8.3 84.8,8.7 L84.6,9.2 L84.5,9.3 C84.5,9.3 84.4,9.3 84.4,9.2 L84.4,9.1 L84.6,8.5 C84.7,8.2 84.8,7.8 85,7.2 C85.1,6.7 85.3,6.1 85.4,5.5 C85.5,4.9 85.6,4.3 85.7,3.7 C85.8,3.1 85.8,2.7 85.9,2.5 L86,1.8 L86,1.5 L86,1.5 C86,1.5 86.1,1.5 86.2,1.6 L87.2,2.2 C87.3,2.2 87.3,2.3 87.3,2.3 L87.3,2.3 L87.3,2.3 C87.3,2.3 87.3,2.3 87.2,2.4 L87,2.6 C86.9,3 86.8,3.3 86.8,3.4 L86.6,3.9 L86.6,4.1 L88.6,4.1 L88.6,2.1 L88.5,0.1 C88.5,0.1 88.6,0.1 88.8,0.2 L89.7,0.5 C89.8,0.5 89.8,0.6 89.8,0.6 L89.8,0.7 C89.8,0.7 89.8,0.8 89.7,0.9 L89.5,1.2 L89.5,4.2 L91.6,4.2 L91.8,3.8 C92,3.5 92,3.3 92.1,3.3 C92.2,3.3 92.2,3.4 92.4,3.5 L93.1,4.2 C93.2,4.3 93.2,4.3 93.2,4.4 C93.2,4.5 93.1,4.5 93,4.5 L92.6,4.5 L89.6,4.5 L89.6,7.9 L91.3,7.9 L91.7,7.2 C91.8,7.1 91.8,7.1 91.8,7.1 C91.8,7.1 91.9,7.1 92,7.2 L92.7,8 C92.7,8.1 92.8,8.1 92.8,8.1 L92.8,8.2 C92.8,8.2 92.7,8.2 92.6,8.2 L89.6,8.2 L89.6,12.3 L92.1,12.3 L92.5,11.5 C92.5,11.4 92.6,11.4 92.6,11.4 C92.6,11.4 92.7,11.4 92.8,11.5 L93.6,12.3 C93.7,12.4 93.7,12.4 93.7,12.5 L93.7,12.6 L93.6,12.6 L92.6,12.6 L84.7,12.6 C84.6,12.6 84.6,12.5 84.6,12.4 C84.6,12.3 84.6,12.2 84.7,12.2 L88.4,12.2 L88.4,12.5 L88.4,12.5 Z" id="Path_3_"></path>
                        <path d="M96.6,9.8 C96.8,9.8 97,9.9 97.2,10 C97.4,10.2 97.6,10.4 97.7,10.7 C97.8,11 97.9,11.3 97.9,11.6 C97.9,11.9 97.8,12.2 97.7,12.5 C97.6,12.8 97.4,13 97.2,13.2 C97,13.4 96.8,13.4 96.6,13.4 C96.4,13.4 96.2,13.3 96,13.2 C95.8,13 95.6,12.8 95.5,12.5 C95.4,12.2 95.3,11.9 95.3,11.6 C95.3,11.3 95.4,11 95.5,10.7 C95.6,10.4 95.8,10.2 96,10 C96.2,9.9 96.4,9.8 96.6,9.8 Z M96.6,10.5 C96.5,10.5 96.3,10.5 96.2,10.6 C96.1,10.7 96,10.8 95.9,11 C95.8,11.2 95.8,11.4 95.8,11.6 C95.8,11.8 95.8,12 95.9,12.2 C96,12.4 96.1,12.5 96.2,12.6 C96.3,12.7 96.5,12.7 96.6,12.7 C96.7,12.7 96.9,12.7 97,12.6 C97.1,12.5 97.2,12.4 97.3,12.2 C97.4,12 97.4,11.8 97.4,11.6 C97.4,11.4 97.4,11.2 97.3,11 C97.2,10.8 97.1,10.7 97,10.6 C96.9,10.6 96.8,10.5 96.6,10.5 Z" id="Shape_5_"></path>
                    </g>
                    <rect id="Rectangle-Copy-13_3_" x="120" y="51.4" width="30.3" height="1"></rect>
                    <g id="Group_2_" transform="translate(78.000000, 0.000000)">
                        <path d="M0.9,11 L0.5,11 L0.3,10.9 C0.2,10.8 0.2,10.6 0.1,10.3 C0.1,10 0.2,9.9 0.5,9.9 L9.5,9.9 L10.3,8.4 C10.6,7.9 10.7,7.7 10.8,7.6 C10.9,7.5 11,7.7 11.2,7.8 C11.4,7.9 11.5,8.1 11.6,8.2 L13,10.1 C13.1,10.3 13.2,10.4 13.2,10.5 C13.2,10.6 13.3,10.6 13.3,10.7 C13.3,10.8 13.3,10.8 13.2,10.9 C13.1,11 13.1,11 13,11 L7.4,11 C7.3,11.1 7.3,11.2 7.3,11.3 C7.3,11.4 7.3,11.4 7.2,11.4 C7.2,11.4 7.1,11.5 7.1,11.6 L6.8,12 L6.6,16.6 L9.5,16.6 L9.9,15.7 C10,15.4 10.1,15.2 10.2,15.2 C10.3,15.2 10.5,15.4 10.8,15.7 L12,17.2 C12.5,15.1 12.9,13.4 13.2,12.1 C13.5,10.8 13.7,9.3 14,7.7 C14.3,6.1 14.5,4.8 14.6,3.9 L14.8,2.3 L14.9,1.5 L14.9,0.7 C15,0.5 15.1,0.5 15.4,0.6 L18,2 C18.2,2.1 18.4,2.2 18.4,2.3 C18.5,2.4 18.5,2.5 18.5,2.6 C18.5,2.7 18.4,2.8 18.1,3 L17.4,3.5 C16.8,5.8 16.3,7.7 15.9,9.1 L15.5,10.2 L15.4,10.6 L21.8,10.6 L22.8,8.5 L23.1,7.9 C23.2,7.9 23.2,7.9 23.3,7.9 C23.4,8 23.6,8.2 23.9,8.5 L25.5,10.5 C25.7,10.7 25.8,10.9 25.8,11 C25.8,11.1 25.9,11.2 25.9,11.4 C25.9,11.6 25.8,11.6 25.5,11.6 L24.4,11.6 L21.5,11.6 L22.8,12.5 C23,12.7 23.1,12.8 23.1,12.8 L23.1,12.9 C23.1,12.9 23,13 22.9,13.2 L22.2,13.8 C21.8,16.2 21.5,18 21.3,19.2 C21.1,20.4 20.8,21.5 20.5,22.5 C20.2,23.5 19.7,25.1 19,27.2 C20.4,29.1 21.5,30.3 22.4,31.1 C23.3,31.9 23.9,32.3 24.5,32.6 L25.6,33.2 L26,33.2 C26.1,33.3 26.2,33.3 26.3,33.4 C26.4,33.5 26.4,33.5 26.4,33.6 C26.4,33.7 26.4,33.7 26.3,33.8 C26.2,33.9 26.2,33.9 26.1,33.9 L25.7,33.9 C25.4,33.9 25.1,34 24.8,34.3 C24.5,34.5 24.2,34.8 23.9,35.2 C23.6,35.6 23.5,35.9 23.3,36.2 C23.1,36.5 23.1,36.6 23,36.6 C22.8,36.5 22.1,35.8 20.9,34.4 C19.7,33 18.9,32 18.5,31.2 L17.6,29.8 C16.3,31.7 14.9,33.2 13.7,34.2 C12.5,35.2 11.5,36 10.9,36.4 C10.3,36.8 10,37 9.9,37.1 L9.2,37.6 C9.2,37.6 9.1,37.6 9,37.6 C8.9,37.6 8.9,37.5 8.9,37.5 C8.9,37.4 8.9,37.4 8.9,37.3 C8.9,37.2 8.9,37.1 9,37.1 L9.6,36.5 L10.4,35.7 C11.6,34.5 12.6,33.3 13.5,32.1 C14.4,30.9 15.3,29.3 16.3,27.5 C15.9,26 15.5,24.8 15.3,23.8 C15.1,22.8 15,21.9 14.9,21.1 C14.8,20.3 14.7,19.4 14.7,18.5 C14.6,17.6 14.5,15.8 14.3,13 C14.1,13.5 14,13.9 13.8,14.2 C13.6,14.6 13.1,15.7 12.3,17.5 C12.4,17.6 12.4,17.7 12.5,17.7 C12.6,17.7 12.5,17.8 12.6,17.9 C12.7,18 12.5,18.1 12.4,18.3 L11.7,19.1 C11.6,20.4 11.6,21.5 11.5,22.3 C11.4,23.1 11.3,24.7 11.1,26.9 C10.9,29.1 10.7,30.9 10.4,31.9 C10.1,33 9.8,33.8 9.3,34.5 C8.8,35.1 8.3,35.6 7.9,35.8 C7.4,36 7.1,36.1 7,36.1 C6.9,36.1 6.8,36.1 6.8,36 C6.8,35.9 6.7,35.7 6.7,35.2 C6.7,34.7 6.5,34.2 6.2,33.7 C5.9,33.2 5.5,32.8 5.1,32.5 L4.7,32.3 C4.5,32.2 4.4,32.1 4.5,31.9 C4.5,31.8 4.5,31.7 4.6,31.7 C4.7,31.7 4.8,31.6 4.9,31.6 L5.4,31.7 C6,31.9 6.5,32 7.1,31.9 C7.5,31.9 7.8,31.8 8,31.6 C8.2,31.4 8.3,31 8.5,30.5 C8.7,30 8.7,29.1 8.9,27.9 C9,26.7 9.1,25.6 9.2,24.6 L9.5,19.4 C9.5,18.6 9.6,18.1 9.6,18 L9.6,17.5 L6.5,17.5 C6.5,17.7 6.5,17.9 6.5,18 L6.4,19.2 C6.3,20.6 6.1,22.5 5.6,24.7 C5.1,26.9 4.6,28.9 3.7,30.4 C2.8,31.9 1.9,33.4 1,34.7 L0.5,35.4 C0.3,35.6 0.2,35.7 0.1,35.7 L0,35.7 C0,35.7 0,35.6 0,35.5 C0,35.4 0,35.3 0.1,35.1 L0.6,34.2 C0.7,34 0.9,33.5 1.2,32.9 C1.5,32.2 2,30.9 2.7,29.1 C3.4,27.2 3.8,24.6 4,21.2 C4.2,17.8 4.2,15.5 4.3,14.3 L4.3,10.8 L0.9,10.8 L0.9,11 Z M3.8,1.2 C3.8,1.2 3.8,1.1 3.8,1 C3.8,0.9 3.9,0.9 4,0.9 C4.2,0.9 4.9,1.3 6.1,2.1 C7.3,2.9 8,4.2 7.9,5.9 C7.9,6.5 7.7,7.1 7.4,7.6 C7.1,8.1 6.7,8.4 6.2,8.4 C5.7,8.4 5.3,8.1 5.1,7.6 C5,7.4 4.9,7.3 4.9,7.1 C4.9,6.9 4.8,6.8 4.8,6.7 L4.9,3.6 C4.8,3.2 4.6,2.7 4.3,2.1 C3.9,1.5 3.8,1.2 3.8,1.2 Z M15.1,11.5 L14.9,12 C15,12.8 15.1,13.6 15.2,14.4 C15.3,15.2 15.4,15.9 15.5,16.6 C15.6,17.2 15.8,18.3 16.2,19.8 C16.6,21.3 17,22.8 17.6,24.3 C18.3,21.8 18.8,19.9 19,18.4 C19.2,17 19.4,15.7 19.5,14.7 C19.6,13.6 19.7,13 19.7,12.7 L19.7,12.3 L19.7,11.6 L15.1,11.5 L15.1,11.5 Z" id="Shape_6_"></path>
                        <path d="M31.1,8.8 C31.1,8.7 31.1,8.6 31.2,8.5 C31.3,8.4 31.3,8.5 31.4,8.6 C31.4,8.6 31.6,9.1 31.8,9.9 C32,10.7 32.3,11.5 32.4,12.2 C32.5,12.9 32.6,13.4 32.6,13.7 C32.6,14 32.6,14.3 32.6,14.7 C32.6,15.1 32.5,15.5 32.4,16 C32.3,16.6 32,17.1 31.7,17.5 C31.4,17.9 31,18.2 30.5,18.1 C30.1,18.1 29.8,17.9 29.5,17.5 C29.2,17.1 29.1,16.7 29.1,16.1 C29.1,15.5 29.2,15 29.5,14.4 L29.9,13.6 C30.3,12.8 30.6,12.1 30.7,11.3 C30.8,10.5 30.8,10 30.8,9.4 C31,9.1 31,8.9 31.1,8.8 Z M35.9,2.8 L35.9,32 L36.1,36.1 C35.8,37.1 35.2,37.5 34.2,37.5 C33.9,37.5 33.7,37.4 33.6,37.3 C33.5,37.2 33.4,36.9 33.3,36.6 L33.5,30.9 L33.5,5.7 L33.3,0.4 C33.4,0.3 33.4,0.2 33.5,0.2 C33.5,0.2 33.7,0.2 34,0.3 L36.5,1.2 C36.8,1.3 36.9,1.4 36.9,1.5 C36.9,1.5 36.9,1.6 36.8,1.6 C36.7,1.6 36.8,1.7 36.7,1.7 L35.9,2.8 Z M36.7,8.1 C36.7,7.9 36.9,7.9 37.1,8.2 L37.7,8.6 C37.8,8.7 38,8.9 38.4,9.2 C38.8,9.5 39.1,9.8 39.3,10.1 C39.5,10.4 39.8,10.8 40,11.3 C40.2,11.8 40.3,12.4 40.3,12.9 C40.3,13.4 40.2,13.9 39.9,14.4 C39.7,14.9 39.3,15.2 38.7,15.2 C38.4,15.2 38.1,15 37.9,14.7 C37.7,14.4 37.6,14.1 37.5,13.8 L37.6,11.1 C37.6,10.9 37.5,10.6 37.4,10.2 C37.3,9.8 37.1,9.3 36.9,8.9 L36.6,8.4 C36.6,8.4 36.6,8.3 36.7,8.1 Z M37.6,5.1 C37.4,5.1 37.3,5 37.2,5 C37.1,5 37.1,4.7 37,4.4 C36.9,4.1 37.1,4 37.4,4 L51.2,4 L52.1,2.2 C52.3,1.8 52.4,1.6 52.4,1.6 C52.4,1.6 52.6,1.8 53,2.2 L54.8,4.2 C55.1,4.5 55.2,4.8 55.2,4.9 C55.2,5.1 55,5.1 54.7,5.1 L47.1,5.1 L48.9,6 C49,6.1 49.1,6.2 49.1,6.3 C49.1,6.3 49.1,6.4 49,6.5 C48.9,6.6 48.9,6.6 48.9,6.7 L48.2,7.2 L46,12.6 L47.1,13.1 C47.3,13.2 47.5,13.3 47.6,13.4 C47.7,13.5 47.7,13.6 47.7,13.7 C47.7,13.8 47.6,13.9 47.5,14.1 L46.9,14.7 L46.9,31.5 L47.1,35.6 C47.1,35.9 47,36.1 46.9,36.3 C46.8,36.5 46.6,36.7 46.2,36.8 C45.8,37 45.5,37 45.1,37 C44.8,37 44.6,36.9 44.5,36.8 C44.4,36.7 44.3,36.5 44.2,36.2 L44.4,31.1 L44.4,16.7 C42.9,19.6 41.7,21.6 41,22.7 C40.3,23.8 39.6,24.8 38.9,25.6 C38.3,26.4 37.8,27 37.7,27.2 L37.2,27.8 C37.1,27.9 37,27.9 37,27.9 C37,27.9 36.9,27.9 36.9,27.8 C36.9,27.7 36.9,27.7 36.9,27.7 L36.9,27.6 C36.9,27.6 36.9,27.5 37,27.4 L37.4,26.7 C38.9,24.2 40.2,21.6 41.3,18.8 C42.4,16.1 43.2,13.7 43.8,11.7 C44.4,9.7 45,7.6 45.6,5.1 L37.9,5.1 L37.6,5.1 L37.6,5.1 Z M48.9,15 C48.9,14.9 49,14.8 49.1,14.8 C49.2,14.8 49.3,14.9 49.7,15.1 C50.1,15.3 50.6,15.9 51.5,16.8 C52.4,17.7 53.1,18.7 53.7,19.7 C54.3,20.7 54.7,21.5 54.9,22.2 C55.1,22.9 55.2,23.7 55.2,24.5 C55.2,25.3 55,26 54.7,26.5 C54.4,27 54,27.2 53.6,27.2 C52.9,27.2 52.4,26.8 52.3,26 C52.1,25.2 51.9,24.1 51.7,22.6 C51.5,21.1 51.2,19.8 50.7,18.6 C50.3,17.4 49.8,16.4 49.3,15.6 L48.9,15 C48.9,15.1 48.9,15.1 48.9,15 Z" id="Shape_7_"></path>
                        <path d="M78.2,3.4 L79.5,1.2 C79.6,1 79.7,0.9 79.8,0.9 C79.9,0.9 80.1,1 80.3,1.3 L82.2,3.4 C82.5,3.7 82.6,4 82.6,4.2 C82.6,4.5 82.4,4.7 82.1,4.7 L73.1,4.7 C72.9,5 72.7,5.3 72.4,5.5 C72.4,6.8 72.4,7.9 72.4,8.9 C72.4,9.9 72.4,11 72.3,12.3 L72.2,14.9 L72.2,15.4 L80.1,15.4 L81.4,13.1 C81.6,12.8 81.7,12.6 81.8,12.6 C81.9,12.6 82,12.7 82.2,12.9 L84.3,15.4 C84.4,15.6 84.5,15.8 84.6,15.9 C84.7,16 84.7,16.1 84.7,16.1 C84.7,16.3 84.5,16.4 84,16.4 L81,16.4 L73.2,16.4 C73.3,17.1 73.6,18.3 74,19.9 C74.4,21.5 75.3,23.6 76.9,26.1 C78.5,28.6 79.9,30.4 81.2,31.3 C82.5,32.2 83.5,32.9 84.1,33 L84.9,33.2 C85,33.2 85.1,33.4 85.1,33.6 C85.1,33.8 85,33.9 84.8,34 L84.1,34.2 C83.9,34.3 83.6,34.4 83.2,34.7 C82.8,35 82.5,35.2 82.3,35.5 C82,35.8 81.8,36.1 81.7,36.4 C81.5,36.7 81.4,36.9 81.3,36.9 C81.2,36.9 81,36.8 80.7,36.6 C80.4,36.4 79.6,35.6 78.4,34.2 C77.2,32.8 76.1,31.1 75.2,28.9 C74.3,26.7 73.6,24.4 73.3,21.9 C72.9,19.4 72.7,17.5 72.6,16.1 L72.1,16.1 C72.1,16.3 72.1,16.5 72.1,16.6 L72,18.4 C71.7,22.1 71.1,24.9 70.2,26.8 C69.3,28.7 68.1,30.4 66.6,32.1 C65.1,33.8 63.3,35.2 60.9,36.5 L59.8,37.1 C59.7,37.2 59.6,37.2 59.4,37.2 C59.3,37.2 59.2,37.2 59.2,37.1 C59.2,37 59.2,37 59.2,36.9 C59.2,36.8 59.3,36.7 59.5,36.5 L60.7,35.6 C62.1,34.5 63.6,32.9 65.2,30.8 C66.8,28.7 67.8,26.6 68.2,24.3 C68.6,22 68.9,20.3 69,19.1 C69.1,17.9 69.2,16.9 69.2,16.1 L58.7,16.1 C58.5,16.1 58.4,15.9 58.3,15.6 C58.3,15.2 58.4,15.1 58.7,15.1 L69.2,15.1 C69.2,14.9 69.2,14.6 69.2,14.3 C69.2,14 69.2,12.9 69.3,11.2 C69.3,9.4 69.3,8.5 69.3,8.4 L69.3,4.4 L60.5,4.4 C60.1,4.4 60,4.2 60,3.8 C60,3.4 60.2,3.2 60.5,3.2 L78.2,3.2 L78.2,3.4 Z" id="Path_4_"></path>
                        <path d="M92.1,12.4 L92.1,5.8 L92,1.2 L92.1,1.1 C92.1,1.1 92.3,1.1 92.5,1.2 L95,2.1 C95.1,2.1 95.2,2.2 95.3,2.3 C95.4,2.4 95.4,2.5 95.4,2.6 C95.4,2.7 95.3,2.8 95.1,3.1 L94.4,3.9 L94.4,12.5 L95.2,12.5 L96.3,10.7 C96.4,10.5 96.5,10.4 96.6,10.4 C96.7,10.4 96.8,10.5 97,10.7 L98.5,12.7 C98.7,13 98.8,13.2 98.8,13.3 C98.8,13.4 98.8,13.5 98.7,13.5 C98.6,13.6 98.6,13.6 98.5,13.6 L94.6,13.6 L94.6,26.4 L98.3,24.4 C98.5,24.3 98.7,24.3 98.7,24.4 C98.7,24.5 98.8,24.6 98.8,24.6 C98.8,24.6 98.8,24.7 98.8,24.8 C98.8,24.9 98.7,25 98.6,25.1 L96.9,26.7 C95.6,27.9 94.7,28.9 94,29.5 L91.7,31.6 L90.4,32.9 L89.9,33.4 C89.8,33.4 89.8,33.4 89.7,33.4 C89.6,33.4 89.6,33.2 89.5,33 L88.2,30 C88.1,29.7 88,29.6 88,29.6 C88,29.6 88,29.5 88.1,29.5 L88.8,29.2 L92.2,27.8 L92.2,13.8 L88,13.8 C87.7,13.8 87.6,13.6 87.6,13.2 C87.6,12.8 87.8,12.6 88.1,12.6 L92.1,12.4 Z M99.1,17.3 L96,19 C95.5,19.3 95.3,19.2 95.2,18.9 C95.1,18.6 95.2,18.3 95.5,18.2 L99.1,16.1 L99.1,11.2 L99,7.2 C99.1,7.1 99.1,7.1 99.2,7 L99.9,7.3 L101.8,8 C102,8.1 102.1,8.2 102.2,8.2 C102.3,8.3 102.3,8.3 102.3,8.4 C102.3,8.4 102.3,8.5 102.2,8.7 C102.1,8.9 102.1,8.9 102,9 L101.5,9.6 L101.5,14.8 L104.6,13.1 L104.6,5.8 L104.5,1 C104.6,0.9 104.6,0.9 104.7,0.9 L105,1 L107.4,1.8 C107.5,1.8 107.6,1.9 107.6,2 C107.7,2.1 107.7,2.2 107.7,2.3 C107.7,2.4 107.6,2.5 107.5,2.7 L106.9,3.4 L106.9,11.8 L109.8,10.1 L110.4,8.6 C110.6,8.2 110.7,8 110.7,8 C110.8,8 110.9,8.1 111.2,8.3 L113.1,9.7 C113.3,9.9 113.5,10 113.5,10.1 C113.6,10.2 113.6,10.3 113.6,10.4 C113.6,10.5 113.5,10.7 113.3,11 L112.7,11.9 C112.7,13.4 112.7,14.7 112.7,15.8 C112.7,16.9 112.7,18 112.6,19.2 C112.5,20.4 112.5,21.5 112.4,22.7 C112.3,23.9 112.1,24.9 111.8,25.6 C111.5,26.3 111.2,26.8 110.9,27 C110.6,27.2 110.2,27.5 109.9,27.6 C109.6,27.7 109.3,27.8 109.2,27.8 C109.1,27.8 109,27.8 109,27.7 C109,27.7 109,27.6 108.9,27.6 C108.9,27.6 108.8,27.1 108.6,26.3 C108.5,25.5 108,24.8 107.3,24.4 L106.9,24.1 L106.9,23.5 L107.6,23.6 C108.2,23.7 108.6,23.7 108.9,23.7 C109.2,23.7 109.4,23.5 109.6,23.1 C109.8,22.7 109.9,22.2 109.9,21.4 C109.9,20.6 110,19.6 110,18.3 C110,17 110.1,15.6 110.1,14.3 L110.1,12.6 L110.1,11.2 L106.9,13 L106.9,25.8 L107,28.8 C106.9,29.3 106.6,29.6 106.2,29.8 C105.8,29.9 105.5,30 105.3,30 C104.9,30 104.7,29.9 104.7,29.7 C104.6,29.5 104.6,29.4 104.6,29.2 L104.7,24.4 L104.7,14.3 L104.7,14.3 L101.6,16 L101.6,30.4 C101.6,31.3 101.6,31.9 101.6,32.1 C101.6,32.3 101.7,32.5 101.8,32.7 C101.9,32.9 102.3,33.1 103,33.3 C103.7,33.5 104.8,33.6 106.2,33.6 C108.7,33.6 110.2,33.4 110.8,33 C111.4,32.6 111.9,32.2 112.1,31.9 C112.3,31.5 112.7,30.7 113.1,29.3 L114.1,26.1 C114.2,25.8 114.3,25.7 114.4,25.7 C114.5,25.7 114.5,25.8 114.6,25.9 C114.7,26 114.7,26.1 114.7,26.2 C114.7,26.3 114.7,26.4 114.7,26.5 L114.2,29.6 C114.1,29.9 114.1,30.2 114.1,30.5 C114.1,30.8 114.1,31 114.1,31.3 C114.1,31.7 114.2,32 114.3,32.3 L114.6,33.1 C114.6,33.3 114.7,33.4 114.7,33.6 C114.7,33.8 114.7,33.8 114.7,33.9 C114.7,34 114.7,34.1 114.7,34.2 C114.5,35.3 113.7,36.1 112.4,36.5 C111.1,36.9 109.2,37.2 106.7,37.1 C103.2,37.1 101.2,36.8 100.6,36.2 C100.1,35.6 99.7,35.1 99.5,34.6 C99.3,34.1 99.2,33.8 99.2,33.5 C99.2,33.2 99.2,32.6 99.2,31.8 L99.1,17.3 L99.1,17.3 Z" id="Shape_8_"></path>
                    </g>
                </g>
            </g>
            <g id="编组" transform="translate(89.000000, 0.000000)">
                <path d="M4.9,6.8 C4.3,7.6 3.7,8.2 3.2,8.8 C2.7,9.4 2.2,9.7 1.9,10 C1.6,10.3 1.4,10.4 1.4,10.4 L1.1,10.6 C1.1,10.6 1,10.7 1,10.7 C1,10.7 0.9,10.7 0.9,10.7 C0.9,10.7 0.9,10.7 0.9,10.6 C0.9,10.5 0.9,10.5 1,10.5 L1.2,10.2 C1.7,9.6 2.3,8.8 2.8,8 C3.3,7.2 4,6 4.6,4.8 C5.2,3.6 5.7,2.6 5.9,1.8 L6.1,1.4 L6.2,1 C6.2,1 6.2,1 6.2,1 L6.5,1.2 L8.1,2 C8.2,2 8.2,2.1 8.2,2.1 C8.2,2.1 8.2,2.2 8.2,2.2 C8.2,2.2 8.2,2.3 8.1,2.4 L7.6,2.7 L7.5,2.8 C8,4 8.5,4.9 9,5.5 C9.5,6.1 10,6.5 10.3,6.8 C10.6,7.1 11.1,7.4 11.5,7.7 C11.9,8 12.4,8.2 12.8,8.3 L13.2,8.4 L13.5,8.5 C13.6,8.5 13.6,8.6 13.6,8.6 C13.6,8.6 13.6,8.7 13.6,8.7 C13.6,8.8 13.6,8.8 13.5,8.8 L13.3,8.9 C13.1,9 12.9,9.1 12.8,9.2 C12.7,9.3 12.6,9.4 12.4,9.6 C12.2,9.8 12.2,9.9 12.1,10.1 C12,10.3 12,10.3 12,10.4 C12,10.5 12,10.5 11.9,10.4 C11.8,10.4 11.4,10.1 10.6,9.5 C9.8,8.9 9.3,8.3 8.8,7.6 C8.3,6.9 8,6.2 7.7,5.5 C7.4,4.8 7.2,4.2 7.1,3.7 L6.9,3 C6.3,4.8 5.5,6 4.9,6.8 Z M8,9.7 C8,9.7 7.9,9.8 7.9,9.9 C7.9,10 7.8,10.1 7.7,10.1 L7.7,13 L9,13 L9.5,12.1 C9.6,11.9 9.7,11.8 9.7,11.8 C9.7,11.8 9.8,11.9 10,12.1 L10.9,13.1 C11,13.2 11.1,13.3 11,13.4 C10.9,13.5 10.9,13.5 10.8,13.5 L7.6,13.5 L7.6,17.1 L10.6,17.1 L11.3,16.1 L11.4,15.9 C11.5,15.8 11.5,15.7 11.5,15.7 C11.5,15.7 11.6,15.8 11.8,16 L12.8,17.1 C12.9,17.2 12.9,17.3 12.9,17.3 C12.9,17.3 12.9,17.4 12.9,17.4 C12.9,17.4 12.8,17.5 12.7,17.5 L12,17.5 L1.6,17.5 C1.5,17.5 1.4,17.4 1.4,17.2 C1.4,17 1.5,16.9 1.6,16.9 L6.4,16.9 L6.4,13.3 L3.5,13.3 L3.4,13.3 C3.4,13.3 3.3,13.3 3.3,13.2 C3.3,13.1 3.3,13.1 3.3,12.9 C3.3,12.7 3.3,12.7 3.4,12.7 L6.4,12.7 L6.4,9.4 L3.4,9.4 C3.3,9.4 3.2,9.3 3.2,9.1 C3.2,8.9 3.2,8.8 3.4,8.8 L8.3,8.8 L8.8,8 C8.9,7.8 9,7.7 9,7.7 C9,7.7 9.1,7.8 9.3,7.9 L10.2,8.9 C10.3,9 10.3,9.1 10.3,9.2 C10.3,9.3 10.2,9.3 10.1,9.3 L9.2,9.3 L8,9.3 L8,9.7 Z" id="形状"></path>
                <path d="M20,3.6 L20.3,2.9 C20.4,2.6 20.5,2.5 20.5,2.5 C20.5,2.5 20.6,2.6 20.8,2.8 L21.4,3.6 C21.5,3.8 21.6,3.9 21.6,3.9 C21.6,3.9 21.6,4 21.5,4 C21.4,4 21.4,4 21.4,4 L20.2,4 L20.2,4 L19.5,4 L20.6,4.8 C20.7,4.9 20.8,4.9 20.8,5 C20.8,5.1 20.8,5.1 20.8,5.1 C20.8,5.1 20.7,5.2 20.6,5.2 L20.2,5.4 C19.8,6.4 19.5,7.1 19.2,7.6 L20,7.6 L20.4,6.9 C20.5,6.7 20.6,6.6 20.6,6.6 C20.6,6.6 20.6,6.6 20.7,6.6 C20.8,6.6 20.8,6.7 20.9,6.8 L21.5,7.6 C21.6,7.8 21.7,7.9 21.7,8 C21.7,8 21.7,8.1 21.6,8.1 C21.5,8.1 21.5,8.2 21.4,8.2 L19.2,8.2 C19.2,8.2 19.1,8.3 19.1,8.3 C19.1,8.3 19,8.4 18.9,8.5 L18.9,10.5 L19.5,10.5 L19.9,9.7 C20,9.6 20,9.5 20.1,9.5 C20.2,9.5 20.2,9.6 20.4,9.8 L21.1,10.7 C21.2,10.8 21.2,10.8 21.2,10.9 C21.2,10.9 21.2,11 21.2,11 C21.2,11 21.1,11 21.1,11 L18.9,11 L18.9,16.2 C18.9,16.5 18.9,16.7 18.8,16.9 C18.7,17.1 18.6,17.2 18.5,17.3 C18.4,17.4 18.2,17.5 18,17.6 C17.8,17.7 17.6,17.7 17.5,17.7 C17.5,17.7 17.5,17.7 17.4,17.7 C17.3,17.7 17.4,17.7 17.4,17.6 C17.4,17.5 17.4,17.5 17.4,17.4 C17.4,17.3 17.4,17.1 17.3,16.9 C17.2,16.7 17.1,16.5 16.9,16.3 L16.5,16.1 C16.4,16 16.4,16 16.4,15.9 C16.4,15.8 16.5,15.8 16.6,15.8 L17,15.9 C17.1,15.9 17.2,15.9 17.3,15.9 C17.4,15.9 17.4,15.9 17.5,15.9 L17.7,15.9 C17.9,15.9 18,15.9 18,15.7 L18,11.1 L15.5,11.1 L15.4,11.1 C15.3,11 15.3,10.9 15.3,10.8 C15.3,10.7 15.4,10.6 15.5,10.6 L18.1,10.6 L18.1,8.3 L15.4,8.3 L15.3,8.3 C15.3,8.3 15.2,8.3 15.2,8.2 C15.2,8.1 15.2,8.1 15.2,8 C15.2,7.9 15.3,7.8 15.4,7.8 L19,7.8 C19.1,7.4 19.2,6.8 19.3,6.1 C19.4,5.4 19.5,4.9 19.5,4.7 L19.6,4.2 L15.6,4.2 C15.5,4.2 15.4,4.1 15.4,3.9 C15.4,3.7 15.4,3.6 15.6,3.6 L20,3.6 Z M17.3,12.9 C17.1,13.5 16.9,13.8 16.8,14 C16.7,14.2 16.5,14.6 16.2,15.2 C15.9,15.8 15.7,16.2 15.6,16.3 L15.3,16.7 C15.2,16.8 15.2,16.8 15.2,16.8 C15.2,16.8 15.2,16.8 15.2,16.8 C15.2,16.8 15.2,16.8 15.2,16.7 C15.2,16.6 15.2,16.6 15.2,16.5 L15.4,16.1 C15.4,16 15.5,15.8 15.6,15.5 C15.7,15.2 15.8,14.9 15.8,14.8 C15.8,14.7 15.9,14.4 16,13.9 C16.1,13.4 16.2,13 16.2,12.8 L16.3,12.2 L16.3,11.7 C16.3,11.7 16.3,11.7 16.3,11.6 L16.5,11.7 L17.5,12.3 C17.6,12.4 17.7,12.4 17.7,12.5 C17.7,12.5 17.7,12.5 17.7,12.6 C17.7,12.7 17.7,12.7 17.6,12.7 L17.3,12.9 Z M16.6,5.2 L16.5,4.9 C16.5,4.9 16.5,4.9 16.5,4.8 C16.5,4.7 16.5,4.7 16.5,4.7 C16.5,4.6 16.5,4.6 16.6,4.6 C16.7,4.6 16.9,4.8 17.3,5.2 C17.7,5.6 18,6.1 17.9,6.7 C17.9,6.9 17.8,7.2 17.7,7.4 C17.6,7.6 17.4,7.7 17.2,7.7 C16.9,7.7 16.8,7.6 16.7,7.4 C16.6,7.2 16.7,6.9 16.7,6.7 C16.7,6.5 16.7,6.3 16.7,6.2 C16.7,5.8 16.7,5.5 16.6,5.2 Z M17.3,1.2 L17.1,1 C17.1,1 17.1,0.9 17.1,0.9 C17.1,0.9 17.1,0.8 17.1,0.8 C17.1,0.8 17.1,0.7 17.2,0.7 C17.2,0.7 17.4,0.7 17.6,0.8 C17.8,0.9 18.1,1 18.4,1.2 C18.7,1.4 19,1.6 19,2 C19,2.4 19.1,2.5 19.1,2.6 C19.1,2.7 19.1,2.7 19.1,2.8 C19.1,3 19,3.1 18.9,3.3 C18.8,3.5 18.6,3.6 18.4,3.6 C18.2,3.6 18,3.5 17.9,3.4 C17.8,3.3 17.8,3.1 17.7,2.9 L17.6,2.3 C17.6,2.1 17.6,2 17.5,1.9 C17.4,1.8 17.5,1.4 17.3,1.2 Z M25.8,7.4 L26.1,6.7 C26.2,6.4 26.3,6.3 26.3,6.3 C26.3,6.3 26.3,6.3 26.4,6.3 C26.5,6.3 26.5,6.4 26.7,6.7 L27.4,7.6 C27.5,7.7 27.5,7.8 27.5,7.8 C27.5,7.8 27.5,7.9 27.5,7.9 C27.5,8 27.5,8.1 27.4,8.1 L25.9,8.1 C25.8,8.2 25.8,8.3 25.8,8.3 C25.8,8.3 25.7,8.4 25.7,8.4 L25.7,16.8 L25.7,18 C25.6,18.2 25.5,18.4 25.4,18.5 C25.3,18.6 25.1,18.6 24.9,18.6 C24.7,18.6 24.6,18.6 24.6,18.5 C24.6,18.4 24.5,18.3 24.5,18.2 L24.6,16.2 L24.6,8 L23.3,8 C23.3,8.9 23.3,9.6 23.2,10.3 C23.1,11 23.1,11.5 23.1,12.1 C23.1,12.7 22.9,13.3 22.7,14 C22.5,14.7 22.2,15.4 21.7,16 C21.2,16.6 20.9,17 20.7,17.3 C20.5,17.6 20.2,17.8 20.1,17.9 L19.8,18.1 C19.7,18.1 19.7,18.2 19.7,18.2 C19.7,18.2 19.6,18.2 19.6,18.2 C19.6,18.2 19.6,18.2 19.6,18.1 C19.6,18 19.6,18.1 19.6,18 C19.6,17.9 19.6,17.9 19.7,17.9 L20,17.6 C20.6,16.9 21.1,16.1 21.5,15.3 C21.9,14.5 22.1,13.6 22.2,12.7 C22.3,11.8 22.4,11 22.4,10.2 C22.4,9.4 22.4,8.5 22.4,7.4 C22.4,6.7 22.4,6 22.4,5.3 C22.4,4.6 22.4,4.2 22.4,4.2 L22.4,3.7 L22.3,2.3 C22.3,2.3 22.3,2.3 22.3,2.3 C22.3,2.3 22.4,2.4 22.6,2.5 L23.6,3.2 C24.4,2.8 25,2.3 25.5,1.9 L25.8,1.6 L26,1.3 C26,1.3 26.1,1.3 26.1,1.3 L26.3,1.6 L27.1,2.5 C27.2,2.7 27.3,2.8 27.3,2.8 C27.3,2.9 27.2,2.9 27.2,2.9 L26.8,3 L25,3.4 L23.5,3.6 C23.5,4.3 23.5,4.9 23.5,5.2 L23.5,6.3 L23.5,7.4 L25.8,7.4 Z M19.7,12.7 L19.6,12.5 C19.5,12.4 19.5,12.3 19.5,12.2 C19.5,12.1 19.5,12.1 19.5,12.1 C19.5,12.1 19.5,12.1 19.5,12.1 C19.6,12.1 19.8,12.2 20.1,12.5 C20.4,12.8 20.7,13.1 20.8,13.3 C20.9,13.5 21,13.9 21,14.2 C21,14.4 20.9,14.6 20.8,14.8 C20.7,15 20.5,15.1 20.3,15.1 C20.1,15.1 19.9,15 19.9,14.8 C19.9,14.6 19.8,14.4 19.8,14.2 L19.8,13.6 C19.9,13.3 19.8,13 19.7,12.7 Z" id="形状"></path>
                <path d="M37,1.2 L37.3,1.2 L37.3,5.4 L37,5.4 C36.5,3 35.6,1.9 34.1,1.9 C32,1.9 31,4.2 31,8.6 C31,12.9 32.1,15.1 34.1,15.1 C34.8,15.1 35.4,14.9 36.2,14.4 L36.2,10.8 C36.2,10 36,9.9 35,9.8 L35,9.3 C35.9,9.4 36.3,9.4 36.9,9.4 C37.5,9.4 37.9,9.4 38.8,9.3 L38.8,9.8 C37.8,9.9 37.7,10 37.7,10.9 L37.7,14.4 C36.2,15.4 35.2,15.8 34.1,15.8 C31.2,15.8 29.4,13 29.4,8.5 C29.4,4.1 31.2,1.3 34,1.3 C35,1.3 35.9,1.7 36.6,2.5 L37,1.2 Z" id="路径"></path>
                <path d="M47.2,15.5 L39.8,15.5 L39.8,15 C41,14.9 41.1,14.7 41.1,13.6 L41.1,3.3 C41.1,2.2 40.9,2 39.8,1.9 L39.8,1.4 C40.7,1.5 41.2,1.5 41.9,1.5 C42.6,1.5 43.1,1.5 44,1.4 L44,1.9 C42.9,2 42.7,2.2 42.7,3.3 L42.7,13.5 C42.7,14.5 42.9,14.7 43.7,14.7 L44.9,14.7 C46.2,14.7 46.7,14.2 47.2,12 L47.6,12 L47.2,15.5 Z" id="路径"></path>
                <path d="M49.6,11.2 C49.9,13.7 50.9,15 52.5,15 C53.8,15 54.8,13.9 54.8,12.3 C54.8,10.9 54.3,10.2 52.5,9.1 C50,7.6 49.4,6.7 49.4,4.9 C49.4,2.7 50.7,1.2 52.6,1.2 C53.5,1.2 54.2,1.5 54.8,2.3 L55.3,1.1 L55.6,1.1 L55.6,5 L55.2,5 C54.8,2.8 54,1.9 52.8,1.9 C51.6,1.9 50.7,3 50.7,4.4 C50.7,5.6 51.1,6.2 53.3,7.5 C55.6,8.9 56.2,9.8 56.2,11.7 C56.2,14 54.8,15.6 52.8,15.6 C51.8,15.6 51,15.2 50.2,14.4 L49.6,15.7 L49.3,15.7 L49.3,11.1 L49.6,11.1 L49.6,11.2 Z" id="路径"></path>
                <path d="M62.9,11.2 C63.2,13.7 64.2,15 65.8,15 C67.1,15 68.1,13.9 68.1,12.3 C68.1,10.9 67.6,10.2 65.8,9.1 C63.3,7.6 62.7,6.7 62.7,4.9 C62.7,2.7 64,1.2 65.9,1.2 C66.8,1.2 67.5,1.5 68.1,2.3 L68.6,1.1 L68.9,1.1 L68.9,5 L68.5,5 C68.1,2.8 67.3,1.9 66.1,1.9 C64.9,1.9 64,3 64,4.4 C64,5.6 64.4,6.2 66.6,7.5 C68.9,8.9 69.5,9.8 69.5,11.7 C69.5,14 68.1,15.6 66.1,15.6 C65.1,15.6 64.3,15.2 63.5,14.4 L62.9,15.7 L62.6,15.7 L62.6,11.1 L62.9,11.1 L62.9,11.2 Z" id="路径"></path>
                <path d="M77.8,1.4 C78.8,1.5 79.1,1.5 79.5,1.5 C79.9,1.5 80.3,1.5 81.1,1.4 L81.1,1.9 C79.9,2 79.8,2.2 79.8,3.3 L79.8,11.2 C79.8,12.5 79.7,13.2 79.2,14 C78.6,15.1 77.5,15.7 76,15.7 C74.6,15.7 73.4,15 72.7,13.9 C72.3,13.2 72.2,12.5 72.2,11.3 L72.2,3.3 C72.2,2.2 72,2 70.9,1.9 L70.9,1.4 C71.8,1.5 72.3,1.5 73,1.5 C73.7,1.5 74.2,1.5 75.1,1.4 L75.1,1.9 C74,2 73.8,2.2 73.8,3.3 L73.8,11.4 C73.8,12.5 73.9,13.1 74.1,13.6 C74.5,14.4 75.3,14.8 76.3,14.8 C77.2,14.8 78,14.5 78.4,13.9 C78.8,13.4 79.1,12.5 79.1,11.3 L79.1,3.3 C79.1,2.2 78.9,2 77.8,1.9 L77.8,1.4 L77.8,1.4 Z" id="路径"></path>
                <path d="M90.2,3.5 C90.3,3.1 90.4,2.7 90.4,2.6 C90.4,2.2 90.1,2 89.3,2 L89.3,1.4 C89.9,1.5 90.2,1.5 90.8,1.5 C91.4,1.5 91.8,1.5 92.4,1.4 L92.4,1.9 C91.5,2 91.2,2.2 90.9,3.1 L87.3,15.7 L86.9,15.7 L83.4,3.2 C83.1,2.2 82.9,2 81.9,1.9 L81.9,1.4 C82.7,1.5 83.1,1.5 83.9,1.5 C84.7,1.5 85.1,1.5 85.9,1.4 L85.9,1.9 C85.2,2 84.9,2.2 84.9,2.5 C84.9,2.6 84.9,2.9 85,3.2 L87.5,12.6 L90.2,3.5 Z" id="路径"></path>
            </g>
        </g>
    </g>
</svg>