<?xml version="1.0" encoding="UTF-8"?>
<svg width="335px" height="81px" viewBox="0 0 335 81" version="1.1" xmlns="http://www.w3.org/2000/svg" xmlns:xlink="http://www.w3.org/1999/xlink">
    <!-- Generator: Sketch 52.5 (67469) - http://www.bohemiancoding.com/sketch -->
    <title>22222_复111制</title>
    <desc>Created with Sketch.</desc>
    <g id="页面-1" stroke="none" stroke-width="1" fill="none" fill-rule="evenodd">
        <g id="22222_复111制">
            <g id="Page-1" transform="translate(152.000000, 79.000000)" fill="#FFFFFF">
                <g id="banner-国六-pc的副本-3">
                    <rect id="Rectangle-Copy-13_3_" x="0.6" y="0.2" width="30.3" height="1"></rect>
                </g>
            </g>
            <rect id="矩形" fill="#ABBEC4" x="167.5" y="0.8" width="1" height="1"></rect>
            <g id="分组" transform="translate(0.000000, 26.000000)" fill="#FFFFFF">
                <path d="M12.7,35.6 L12.7,29.6 L6.1,29.6 C5.9,29.6 5.8,29.4 5.8,29.1 C5.8,28.8 5.9,28.6 6.1,28.6 L12.7,28.6 L12.7,23.3 L7.3,23.3 C7.2,23.5 6.9,24 6.3,25 C5.8,26 5.1,27 4.3,28.2 C3.5,29.4 3,30.1 2.7,30.5 L2,31.4 C1.8,31.6 1.7,31.7 1.7,31.6 C1.6,31.5 1.6,31.4 1.6,31.3 C1.6,31.2 1.6,31.1 1.7,30.9 L2.2,29.9 C2.8,28.6 3.5,27 4.2,25.2 C4.9,23.4 5.5,21.5 6,19.7 L6.4,18.4 L6.7,17.1 C6.7,17.1 6.7,17.1 6.8,17.1 C6.8,17.1 6.9,17.1 7,17.2 C7,17.3 7,17.4 7.1,17.4 L9.6,19.3 C9.7,19.4 9.8,19.5 9.8,19.7 C9.8,19.9 9.7,19.9 9.5,20 L8.8,20.3 L8,22.2 L12.7,22.2 L12.7,19.7 L12.6,16.3 C12.7,16.2 12.7,16.2 12.8,16.1 L13.4,16.3 L16.1,17.2 C16.2,17.2 16.3,17.3 16.3,17.3 C16.3,17.3 16.3,17.4 16.3,17.5 C16.3,17.6 16.1,17.8 16,18 L15.3,18.8 L15.3,22.2 L20.7,22.2 L21.6,20.5 C21.8,20.1 22,19.9 22.1,19.9 C22.2,19.9 22.3,20 22.4,20.1 L24.3,22.3 C24.4,22.5 24.5,22.6 24.6,22.8 C24.7,23 24.7,23.1 24.7,23.2 C24.7,23.3 24.6,23.4 24.4,23.4 L24.1,23.4 L15.3,23.4 L15.3,28.7 L19.9,28.7 L20.8,27 C20.9,26.7 21,26.6 21.1,26.6 C21.2,26.6 21.3,26.7 21.4,26.8 L23.4,29.2 C23.5,29.4 23.6,29.5 23.6,29.7 C23.6,29.8 23.5,29.9 23.4,29.9 L15.4,29.9 L15.4,35.9 L22.9,35.9 L24,34 C24.2,33.7 24.3,33.6 24.3,33.5 C24.4,33.5 24.5,33.6 24.7,33.8 L26.6,36.1 C26.9,36.4 27,36.7 27,36.8 C27,37 26.9,37 26.7,37 L23.5,37 L1.3,37 C1.1,37 1,36.8 0.9,36.4 C0.9,36 1,35.8 1.3,35.8 L12.7,35.8 L12.7,35.6 Z M20.1,15.7 L7.3,15.7 L7.3,16.1 C7.3,16.2 7.2,16.4 7,16.6 C6.8,16.8 6.4,17 5.8,17.1 C5.2,17.2 4.9,17.1 4.8,16.9 C4.7,16.7 4.7,16.5 4.7,16.3 L4.8,13.2 L4.8,6.3 L4.7,2.6 C4.7,2.5 4.8,2.5 4.8,2.5 C4.8,2.5 5,2.6 5.3,2.8 L7.5,4.4 L20.2,4.4 L20.8,3.2 C21,2.7 21.2,2.5 21.2,2.4 C21.2,2.4 21.3,2.4 21.5,2.6 L23.6,4.7 C23.6,4.7 23.6,4.8 23.7,4.9 C23.7,5 23.8,5 23.8,5.1 C23.8,5.2 23.8,5.3 23.7,5.3 L23,6.1 L23,12.6 L23.1,15.9 C23.1,16.2 23,16.4 22.9,16.6 C22.8,16.8 22.6,17 22.2,17.1 C21.8,17.2 21.4,17.3 21.1,17.3 C20.8,17.3 20.5,17.2 20.5,17.1 C20.4,16.9 20.4,16.8 20.4,16.6 L20.4,15.7 L20.1,15.7 Z M20.1,5.5 L7.3,5.5 L7.3,9.3 L20.1,9.3 L20.1,5.5 Z M20.1,10.4 L7.3,10.4 L7.3,14.7 L20.1,14.7 L20.1,10.4 Z" id="形状" fill-rule="nonzero"></path>
                <path d="M34.9,18.3 L30.3,18.3 C30.1,18.3 29.9,18.1 29.9,17.7 C29.9,17.3 30,17.1 30.3,17.1 L34.6,17.1 L35.2,16.2 C35.5,15.8 35.7,15.6 35.7,15.6 C35.8,15.6 36,15.7 36.3,16 L37.5,17.1 C37.7,17.4 37.9,17.5 38,17.7 C38.1,17.9 38.1,17.9 38.1,18 C38.1,18.1 38,18.2 37.8,18.5 L37.2,19.2 L37.2,32.6 C38.3,33.5 39.4,34.1 40.7,34.5 C42,34.9 43.7,35.1 45.8,35 C47.4,35 49.2,34.9 51.2,34.6 C53.2,34.3 54.6,34 55.5,33.8 L56.4,33.5 C56.5,33.5 56.6,33.5 56.7,33.5 C56.8,33.5 56.8,33.6 56.8,33.7 C56.8,33.8 56.7,33.9 56.6,34 L56,34.6 C55.9,34.7 55.7,34.9 55.6,35.2 C55.5,35.5 55.3,35.8 55.2,36.3 C55.1,36.7 55,37.1 55,37.4 C55,37.7 54.9,37.9 54.9,38 C54.9,38.1 54.4,38.2 53.5,38.3 C52.6,38.4 50.8,38.5 48,38.4 C45.5,38.4 43.7,38.2 42.5,37.8 C41.3,37.4 40.4,37.1 39.8,36.7 C39.2,36.3 38.4,35.6 37.3,34.6 C36.2,33.6 35.4,33.1 34.9,33.1 C34.5,33.1 34.1,33.3 33.7,33.7 C33.3,34.1 32.8,34.6 32.5,35.3 L32,36.7 C31.8,37 31.7,37.1 31.7,37.1 C31.6,37.1 31.5,36.9 31.5,36.7 L30.5,33.6 L30.4,33.3 C30.4,33.2 30.5,33.2 30.8,33 L31.9,32.5 C32.1,32.4 33.2,32 35.1,31.5 L35.1,18.3 L34.9,18.3 Z M32.5,3.7 C32.4,3.5 32.3,3.4 32.3,3.3 C32.3,3.2 32.4,3.1 32.6,3.1 C32.6,3.1 32.7,3.1 32.8,3.2 C32.9,3.3 33.2,3.3 33.9,3.5 C34.6,3.7 35.1,4 35.7,4.5 C36.2,5 36.6,5.5 36.9,6 C37.2,6.5 37.3,7.1 37.3,7.7 C37.3,8.3 37.1,8.8 36.8,9.4 C36.4,9.8 36,10 35.5,10 C35.2,10 34.9,9.9 34.6,9.6 C34.3,9.3 34.2,9.1 34.1,8.8 C34,8.5 33.9,8 33.9,7.3 C33.9,6.6 33.7,5.9 33.6,5.5 C33.5,5.1 33.3,4.7 33.2,4.5 C33.1,4.3 32.8,4 32.5,3.7 Z M41.8,18.5 L40.9,19.7 C40.8,19.9 40.7,19.9 40.7,20 C40.7,20 40.6,20 40.6,19.8 L39.1,17.5 C39,17.4 39,17.3 38.9,17.2 C38.9,17.1 39,17 39.2,16.9 C39.4,16.8 39.6,16.7 39.7,16.5 C39.8,16.3 40,16.1 40.2,15.7 C40.4,15.3 40.5,14.9 40.7,14.4 L42.1,9.6 L40.2,9.6 L38.5,9.6 L38.4,9.6 C38.2,9.6 38.1,9.5 38,9.5 C38,9.5 38,9.3 38,9 C38,8.7 38.1,8.6 38.3,8.6 L42.5,8.6 L43.6,4.4 L44.2,1.5 C44.3,1.3 44.3,1.2 44.4,1.2 L44.6,1.3 L46.8,2.5 C47.1,2.7 47.3,2.8 47.3,2.9 C47.3,3 47.4,3.1 47.4,3.2 C47.4,3.3 47.3,3.4 47,3.7 L46.5,4.2 L45.1,8.7 L51.7,8.7 L52.5,7.1 C52.8,6.5 53,6.1 53.1,6.1 C53.2,6.1 53.4,6.3 53.9,6.9 L55.4,8.7 C55.8,9.2 56,9.4 56,9.6 C56,9.8 55.9,9.8 55.7,9.8 L54,9.8 L44.7,9.8 L42.1,17.5 L45.6,17.5 L45.6,14.9 L45.5,12 C45.6,11.9 45.6,11.8 45.7,11.8 C45.8,11.8 45.9,11.8 46.1,11.9 L48.3,12.5 C48.5,12.6 48.6,12.6 48.7,12.7 C48.8,12.8 48.9,12.8 48.9,12.9 C48.9,13 48.9,13 48.9,13.1 C48.9,13.2 48.8,13.3 48.6,13.5 L48.1,14 L48.1,17.4 L50.7,17.4 L51.6,15.9 C51.9,15.4 52,15.2 52.1,15.2 C52.2,15.2 52.2,15.2 52.3,15.3 L52.9,15.8 L54.2,17.3 C54.4,17.5 54.5,17.7 54.6,17.9 C54.7,18.1 54.7,18.2 54.7,18.3 C54.7,18.4 54.6,18.5 54.4,18.5 L52.4,18.5 L48,18.5 L48,24.7 L51.9,24.7 L52.7,23.3 C53,22.7 53.3,22.4 53.4,22.4 C53.5,22.4 53.8,22.6 54.2,23 L55.5,24.4 C56,24.9 56.2,25.3 56.2,25.5 C56.2,25.7 56.1,25.8 55.9,25.8 L48.1,25.8 L48.1,29 L48.2,33.1 C48.1,33.5 47.8,33.8 47.5,34 C47.1,34.2 46.8,34.3 46.5,34.3 C46.2,34.3 46,34.3 45.9,34.1 C45.8,33.9 45.7,33.8 45.7,33.6 L45.8,29.2 L45.8,25.9 L38.6,25.9 L38.4,25.9 C38.3,25.8 38.2,25.8 38.2,25.7 C38.1,25.6 38.1,25.4 38.1,25.2 C38.1,25 38.2,24.8 38.4,24.8 L45.7,24.8 L45.7,18.6 L41.8,18.6 L41.8,18.5 Z" id="形状" fill-rule="nonzero"></path>
                <path d="M63.2,15.4 C63.3,15.2 63.3,15.1 63.4,15.2 C63.5,15.2 63.6,15.5 63.7,15.9 C63.8,16.3 64,17 64.2,17.9 C64.4,18.8 64.5,19.6 64.6,20.1 C64.7,20.6 64.7,21.2 64.7,22 C64.7,22.8 64.6,23.7 64.4,24.8 C64.2,25.9 63.9,26.8 63.3,27.6 C62.7,28.4 62.2,28.8 61.6,28.7 C61.1,28.7 60.7,28.4 60.4,27.9 C60.2,27.4 60,26.9 60,26.5 C60,26.1 60.1,25.7 60.2,25.3 C60.3,25 60.6,24.5 61,23.8 C61.4,23.1 61.8,22.5 62.1,21.9 C62.4,21.3 62.6,20.6 62.8,19.7 C63,18.8 63.1,18.1 63.1,17.6 C63.1,17.1 63.1,16.6 63.1,16.2 L63.2,15.4 Z M69.8,10.8 L69.8,32 C69.8,32.6 69.9,33.1 70,33.4 C70.2,33.7 70.6,33.9 71.4,34.1 C72.2,34.3 72.9,34.3 73.8,34.3 C75.9,34.3 77.1,34.1 77.4,33.6 C77.7,33.1 78,32.7 78.1,32.4 C78.2,32.1 78.3,31.6 78.5,31.1 L79,29.3 L79.6,27 L79.8,26.2 C79.8,26.1 79.9,26 80,26 C80.1,26 80.1,26.1 80.2,26.2 C80.2,26.3 80.3,26.4 80.3,26.4 C80.3,26.4 80.3,26.5 80.3,26.5 L80,27.6 C79.9,28.2 79.8,29 79.7,29.9 C79.6,30.8 79.6,31.4 79.6,31.7 C79.6,32.1 79.6,32.5 79.7,32.8 C79.8,33.1 79.9,33.5 80.2,33.9 C80.4,34.3 80.6,34.6 80.6,34.8 C80.6,35 80.6,35.1 80.6,35.3 C80.6,35.5 80.6,35.6 80.5,35.8 C80.3,36.7 79.7,37.2 78.8,37.5 C77.9,37.8 76.5,37.9 74.3,37.9 C71.5,37.9 69.7,37.6 68.8,37.1 C67.9,36.6 67.4,36 67.3,35.5 C67.2,35 67.1,34.4 67.1,33.9 L67.1,13.5 L67,7.8 C67.1,7.7 67.2,7.6 67.2,7.6 C67.2,7.6 67.5,7.7 68,7.9 L70.6,9 C70.8,9.1 70.9,9.2 71,9.2 C71,9.3 71.1,9.3 71.1,9.4 C71.1,9.5 71,9.6 70.8,9.8 L69.8,10.8 Z M71.7,3 C71.7,2.9 71.7,2.9 71.7,2.8 C71.7,2.7 71.7,2.7 71.7,2.7 C71.7,2.7 71.8,2.6 71.9,2.6 C72,2.6 72.1,2.6 72.2,2.7 C72.3,2.8 72.5,2.9 72.9,3.1 C73.3,3.3 74,3.9 75.3,5.1 C76.6,6.2 77.2,7.8 77.2,9.7 C77.2,10.3 77.1,11 76.8,11.7 C76.6,12.4 76.1,12.8 75.5,12.7 C74.9,12.7 74.4,12.4 74.3,11.9 C74.2,11.4 74,10.9 74,10.3 L73.9,8.5 C73.7,6.5 73.2,4.9 72.4,3.8 L71.7,3 Z M80.2,15.2 C80.1,15.1 80,14.9 80.1,14.9 C80.1,14.8 80.2,14.7 80.3,14.7 C80.3,14.7 80.5,14.8 80.8,14.9 C81.1,15 81.8,15.9 83,17.4 C84.2,18.9 85,20.3 85.3,21.5 C85.7,22.7 85.8,23.9 85.8,24.9 C85.8,25.9 85.6,26.8 85.3,27.5 C85,28.2 84.5,28.5 84,28.5 C83.4,28.5 83,28.2 82.8,27.6 C82.6,27 82.4,26.4 82.4,25.8 L82.5,21.8 C82.5,21 82.3,20 82,18.8 C81.7,17.7 81.2,16.6 80.6,15.6 L80.2,15.2 Z" id="形状" fill-rule="nonzero"></path>
                <path d="M93.4,4.1 L96.7,4.1 L97.2,3.2 C97.5,2.7 97.6,2.4 97.7,2.4 C97.7,2.4 97.9,2.5 98.2,2.8 L99.8,4.4 C100,4.7 100.2,4.8 100.2,4.9 C100.2,5 100.2,5 100.2,5.1 C100.2,5.2 100.1,5.3 99.9,5.4 L99.1,6.2 L99.1,34.4 C99.1,35.1 99,35.7 98.9,36.1 C98.8,36.5 98.6,36.7 98.5,36.9 C98.3,37 97.9,37.3 97.3,37.6 C96.7,37.9 96.3,38.1 96.2,38 C96.1,38 96,37.9 96,37.8 C96,37.7 96,37.4 96,37 C96,36.6 95.8,36.1 95.5,35.6 C95.2,35.1 94.8,34.7 94.4,34.4 L94,34.2 C93.9,34.2 93.9,34.1 93.8,34 C93.7,33.9 93.7,33.8 93.8,33.8 C93.8,33.7 93.8,33.7 93.9,33.6 C94,33.5 94,33.5 94.1,33.5 L94.7,33.7 C95.6,33.9 96.2,34 96.5,33.9 C96.8,33.8 96.9,33.7 96.9,33.6 C96.9,33.5 97,32.9 97,32 L97,22.8 L93.5,22.8 C93.4,23.7 93.3,24.7 93.2,25.6 C93.1,26.5 92.9,27.6 92.7,28.8 C92.5,30 92.2,31.1 91.9,32 C91.6,32.9 91.2,33.9 90.8,34.8 C90.4,35.7 90.1,36.4 90,36.7 L89.5,37.5 C89.3,37.9 89.2,38 89.1,37.9 C89,37.9 89,37.8 89,37.7 C89,37.6 89,37.5 89.1,37.4 L89.5,36.3 C89.6,36.1 89.7,35.5 89.9,34.7 C90.1,33.9 90.4,32.5 90.7,30.7 C91,28.9 91.2,26.9 91.3,24.8 C91.3,22.7 91.4,20.6 91.3,18.4 C91.3,15.2 91.2,12.5 91.2,10.2 C91.2,7.9 91.2,6.5 91.2,6 L91.2,4.4 L91.1,2.6 C91.1,2.5 91.2,2.4 91.2,2.4 C91.2,2.4 91.4,2.4 91.7,2.6 L93.4,4.1 Z M97,12.5 L97,5.2 L93.5,5.2 L93.5,12.5 L97,12.5 Z M97,21.7 L97,13.7 L93.5,13.7 L93.5,21.7 L97,21.7 Z M109.3,4.8 L109.9,3.8 C110,3.6 110.1,3.5 110.2,3.5 C110.3,3.5 110.4,3.6 110.6,3.8 L112.5,5.8 C112.7,6 112.8,6.1 112.8,6.1 C112.8,6.1 112.8,6.2 112.8,6.2 C112.8,6.2 112.7,6.4 112.5,6.6 L111.9,7.2 C111.9,8.6 111.8,10 111.7,11.2 C111.6,12.4 111.4,13.4 111.1,14 C110.8,14.6 110.3,15.2 109.6,15.6 C108.9,16.1 108.5,16.3 108.3,16.2 C108.2,16.2 108.1,16.2 108.1,16.1 C108,16 108,15.6 107.9,14.9 C107.8,14.1 107.4,13.5 106.6,13.1 L106.1,12.9 C106,12.9 106,12.8 105.9,12.8 C105.8,12.8 105.8,12.7 105.8,12.6 C105.8,12.5 105.8,12.5 105.9,12.4 C106,12.3 106,12.3 106.1,12.3 L106.8,12.5 C107.2,12.6 107.6,12.6 108,12.6 C108.4,12.6 108.7,12.4 108.9,12.1 C109.1,11.8 109.2,11.3 109.2,10.5 C109.2,9.7 109.3,8.9 109.3,8.1 C109.3,7.3 109.4,6.7 109.4,6.3 L109.4,5.8 L104,5.8 L104,18.2 L110.4,18.2 L110.8,17.6 C111,17.3 111.1,17.1 111.1,17.1 C111.1,17.1 111.3,17.2 111.4,17.4 L113.2,19.5 C113.4,19.7 113.5,19.8 113.5,19.9 C113.5,20 113.6,20.1 113.6,20.1 C113.6,20.1 113.5,20.3 113.3,20.4 L112.6,20.9 C111.9,23.6 111.5,25.3 111.3,26.1 C111.1,26.8 110.7,28.1 110,29.8 C110.4,30.3 110.7,30.6 111,30.9 C111.3,31.2 111.8,31.6 112.6,32.1 C113.4,32.6 113.9,33 114.3,33.1 L115.1,33.5 L115.4,33.7 C115.5,33.7 115.5,33.8 115.5,34 C115.5,34.1 115.4,34.2 115.3,34.3 L115,34.4 L114.5,34.5 C114.3,34.6 114.1,34.7 113.9,34.9 C113.7,35.1 113.5,35.3 113.4,35.5 C113.3,35.7 113.2,35.9 113,36.2 C112.9,36.5 112.8,36.7 112.7,36.8 C112.6,36.9 112.6,36.9 112.6,36.9 C112.5,36.9 112.3,36.7 112,36.4 L111.1,35.4 C110.8,35.1 110,34.1 108.6,32.3 C107.9,33.3 107.4,33.9 107.2,34.2 C107,34.5 106.4,35.2 105.4,36.3 L104.9,36.9 C104.7,37.1 104.6,37.2 104.5,37.2 C104.4,37.2 104.4,37.2 104.3,37.2 C104.3,37.2 104.3,37.1 104.2,37 C104.1,36.9 104.3,36.7 104.4,36.5 L104.9,35.7 C105,35.5 105.4,34.9 105.9,33.9 C106.5,32.9 106.8,32.3 106.8,32.2 L107.6,30.6 C107.3,29.8 107,29.2 106.8,28.6 C106.6,28 106.4,27.2 106.2,26.2 C106,25.2 105.8,24.2 105.7,23.3 C105.6,22.4 105.5,21.5 105.5,20.8 L105.5,20.3 L105.5,19.5 L104,19.5 L104,34 L104.1,37.1 C104,37.7 103.7,38.1 103.3,38.2 C102.9,38.4 102.6,38.4 102.5,38.4 C102.1,38.4 101.9,38.3 101.8,38.1 C101.7,37.9 101.6,37.8 101.6,37.6 L101.8,33 L101.8,9.5 L101.6,3.3 C101.7,3.2 101.8,3.2 101.8,3.1 C101.9,3.1 102.1,3.2 102.4,3.5 L104,4.7 L109.3,4.7 L109.3,4.8 Z M110.3,19.4 L105.8,19.4 C105.9,19.8 105.9,20.4 106.1,21 C106.2,21.6 106.5,22.6 106.9,24 C107.4,25.3 107.9,26.6 108.6,27.8 C108.8,27.1 108.9,26.6 109.1,26.1 C109.2,25.6 109.4,24.8 109.7,23.5 C110,22.2 110.1,21.3 110.2,20.7 C110.2,20.1 110.3,19.7 110.3,19.4 Z" id="形状" fill-rule="nonzero"></path>
                <path d="M136.3,7.1 L136.9,6.1 C137.1,5.8 137.2,5.7 137.3,5.7 C137.4,5.7 137.5,5.7 137.7,5.9 L140.2,8.2 C140.4,8.4 140.5,8.6 140.7,8.9 C140.9,9.2 140.7,9.3 140.2,9.5 L139.1,9.8 C137.3,12 135.6,13.9 133.8,15.7 C134.5,16.2 135.3,16.7 136.1,17.3 C136.9,17.8 138,18.3 139.2,18.7 C140.4,19.1 141.3,19.4 141.7,19.4 C142.1,19.5 142.8,19.5 143.7,19.5 L144.7,19.5 C144.7,19.5 144.8,19.5 144.8,19.6 C144.8,19.7 144.9,19.8 144.9,19.9 C144.9,20 144.8,20.1 144.7,20.2 L144.1,20.7 C143.8,20.9 143.6,21.2 143.3,21.6 C143.1,22 142.9,22.3 142.7,22.6 C142.5,22.9 142.4,23.2 142.4,23.5 C142.4,23.8 142.3,24 142.2,24 C142.2,24 142.1,24.1 142,24.1 C141.7,24.1 140.8,23.8 139.2,23 C137.6,22.2 136.2,21.3 135,20.3 C133.8,19.3 132.7,18.2 131.8,17.2 C130.9,18 129.9,18.7 128.9,19.3 L132.2,20.3 C132.5,20.4 132.7,20.6 132.7,20.7 C132.7,20.9 132.6,21.1 132.4,21.2 L131.7,21.8 C131.6,22.4 131.6,22.9 131.5,23.2 L131.5,23.6 L131.4,24.2 L137,24.2 L137.4,23.3 C137.5,23 137.6,22.9 137.7,22.9 C137.8,22.9 138,23 138.2,23.2 L140.4,25 C140.5,25.1 140.6,25.2 140.7,25.4 C140.8,25.5 140.8,25.6 140.8,25.7 C140.8,25.8 140.8,25.9 140.7,26 C140.6,26.1 140.6,26.2 140.5,26.3 L139.7,26.9 C139.6,27.9 139.4,29.3 139.2,31 C139,32.8 138.6,34.4 138,35.8 C137.4,37.2 136.5,38.2 135.2,38.6 L133.8,39 C133.6,39.1 133.5,39.1 133.4,39.1 C133.3,39.1 133.2,39.1 133.2,39 C133.2,38.9 133.1,38.9 133.1,38.8 C133.1,38.7 133,38.5 133,38.1 C133,37.7 132.8,37.3 132.6,36.9 C132.4,36.5 132.2,36.2 131.9,36 L130.8,35.3 C130.7,35.2 130.7,35.2 130.6,35.1 C130.5,35 130.6,35 130.6,34.9 C130.6,34.7 130.7,34.7 130.9,34.7 L132.3,34.9 C133.5,35.1 134.3,35 134.8,34.8 C135.3,34.6 135.6,34.1 135.9,33.5 C136.2,32.9 136.4,31.9 136.6,30.5 C136.8,29.2 136.9,28 137,26.9 L137,25.7 L137,25.2 L131.2,25.2 C130.9,26.7 130.7,27.8 130.5,28.6 C130.3,29.4 129.9,30.5 129.1,31.8 C128.3,33.2 127.1,34.4 125.5,35.5 C123.8,36.6 122.2,37.4 120.7,37.8 L119.5,38.2 C119.4,38.3 119.2,38.3 119.2,38.2 C119.2,38.1 119.1,38.1 119.1,37.9 C119.1,37.7 119.2,37.7 119.4,37.6 L120.4,37 C123.8,35.2 125.9,33.3 126.7,31.3 C127.5,29.3 128,27.8 128.2,27 L128.5,25.5 L128.6,25.1 L121.6,25.1 C121.4,25.1 121.3,24.9 121.2,24.5 C121.1,24.1 121.3,23.9 121.6,23.9 L128.8,23.9 C128.8,23.5 128.9,23.3 128.9,23.1 L128.9,21.8 L129,20.3 L129,19 C127.4,20 125.9,20.9 124.5,21.6 C123.1,22.3 121.7,22.9 120.1,23.3 L119,23.6 C118.7,23.7 118.5,23.7 118.5,23.6 C118.5,23.5 118.5,23.4 118.5,23.4 C118.5,23.2 118.6,23.1 118.7,23 L120,22.4 C120.9,22 122.3,21.1 124.3,19.8 C126.3,18.5 128.3,16.8 130.3,14.7 C129.5,13.1 129,11.9 128.7,11.2 C128.4,10.5 128.3,9.9 128.2,9.5 L127.8,7.8 C126.7,9.8 125.7,11.3 124.9,12.5 C124.1,13.7 123.1,14.9 121.9,16.1 L120.9,17.1 C120.7,17.3 120.6,17.3 120.6,17.2 C120.5,17.1 120.5,17 120.5,16.9 C120.5,16.8 120.5,16.7 120.7,16.5 L121.5,15.1 C122,14.2 122.5,13.3 123,12.4 C123.5,11.5 124.2,10 124.9,8.1 C125.7,6.2 126.3,4.5 126.7,3.1 L127.1,1.5 C127.2,1.1 127.3,0.9 127.3,0.8 C127.3,0.7 127.3,0.8 127.4,0.7 L127.9,1 L130.5,2.5 C130.8,2.7 130.9,2.8 130.9,3 C130.9,3.2 130.8,3.3 130.5,3.5 L129.9,3.8 C129.3,4.9 128.9,5.8 128.6,6.4 L136.3,6.4 L136.3,7.1 Z M135.8,8.2 L128.4,8.2 C128.8,9.3 129.3,10.3 129.7,11 C130.1,11.8 130.7,12.7 131.5,13.8 C133.4,11.6 134.8,9.8 135.8,8.2 Z" id="形状" fill-rule="nonzero"></path>
                <path d="M152.2,38.1 L152.7,37.4 C152.8,37.3 152.9,37.1 153.2,36.6 C153.5,36.1 153.6,35.8 153.7,35.6 C153.8,35.4 153.9,35 154.1,34.4 C154.3,33.8 154.3,33.4 154.2,33.1 C154.1,32.8 154,32.7 153.9,32.6 C153.9,32.6 153.7,32.6 153.5,32.7 C153.3,32.8 153.1,32.8 153,32.8 C152.5,32.8 152.1,32.5 151.8,32.1 C151.5,31.6 151.3,31 151.3,30.3 C151.3,29.6 151.5,28.9 151.9,28.4 C152.3,27.9 152.8,27.6 153.3,27.6 C154,27.6 154.6,28 155,28.7 C155.4,29.4 155.6,30.1 155.7,30.9 C155.8,31.7 155.7,32.4 155.7,33.1 C155.5,34.1 155.3,35 154.9,35.8 C154.5,36.6 154.2,37.1 153.9,37.5 C153.6,37.9 153.3,38.2 153,38.5 C152.7,38.8 152.4,39 152.3,38.9 C152.1,38.8 152,38.7 152,38.6 C152,38.5 152,38.3 152.2,38.1 Z" id="路径"></path>
                <path d="M179.6,31.1 L179.6,9.9 L179.5,4.3 C179.6,4.2 179.6,4.2 179.7,4.2 C179.8,4.2 179.9,4.3 180.1,4.4 L182.2,5.9 L186.8,5.9 L187.6,4.4 C187.8,4.1 187.9,4 187.9,4 C188,4 188.1,4 188.2,4.2 L190.2,5.9 C190.4,6.1 190.5,6.2 190.5,6.2 C190.5,6.2 190.6,6.4 190.6,6.5 C190.6,6.6 190.5,6.8 190.3,7 L189.5,7.8 L189.5,29 L192.2,28.4 C192.3,28.4 192.4,28.4 192.5,28.5 C192.6,28.6 192.7,28.7 192.6,28.9 C192.5,29.1 192.5,29.2 192.4,29.2 L190.9,29.9 C190.7,30 189.8,30.4 188.1,31.2 C186.4,32 185,32.7 183.6,33.3 C182.3,33.9 181.4,34.3 181,34.5 L179.4,35.3 C179,35.5 178.8,35.6 178.8,35.6 C178.8,35.6 178.7,35.7 178.7,35.7 C178.7,35.7 178.6,35.5 178.4,35 L177.5,32 C177.4,31.6 177.3,31.5 177.3,31.4 C177.3,31.3 177.5,31.3 178,31.3 L179.6,31.1 Z M187,13.7 L187,7 L182,7 L182,13.7 L187,13.7 Z M187,21.6 L187,14.8 L182,14.8 L182,21.6 L187,21.6 Z M187,22.7 L182,22.7 L182,30.7 L187,29.6 L187,22.7 Z M196.8,13.2 C196.8,13.4 196.8,13.6 196.8,13.7 L196.7,16.5 C196.6,21 196.3,24.3 195.9,26.3 C195.5,28.3 195,29.9 194.3,31.1 C193.7,32.3 192.7,33.6 191.6,34.9 C190.4,36.2 189.1,37.2 187.8,38 L186.7,38.6 C186.6,38.7 186.5,38.7 186.4,38.7 C186.3,38.7 186.3,38.7 186.2,38.6 C186.2,38.5 186.2,38.5 186.1,38.4 C186.1,38.3 186.2,38.2 186.4,38 L187.4,37.1 C190.1,34.8 191.9,32.4 192.7,29.9 C193.5,27.3 194,24.7 194.1,22 C194.2,19.3 194.3,17.4 194.3,16.4 C194.3,15.4 194.3,14.8 194.3,14.5 C194.3,14.2 194.3,14.1 194.3,14 L194.3,13.4 L190.8,13.8 C190.8,13.8 190.7,13.8 190.6,13.8 C190.5,13.8 190.4,13.6 190.3,13.3 C190.2,13 190.4,12.8 190.7,12.7 L194.3,12.3 C194.3,11.2 194.3,10.4 194.3,9.7 C194.3,9 194.3,8.3 194.3,7.5 C194.3,6.7 194.3,6.2 194.3,6 L194.1,3.5 C194,2.6 194,2.1 194.1,2 C194.1,2 194.4,2 194.7,2.1 L197.4,2.9 C197.5,3 197.7,3 197.7,3.1 C197.8,3.2 197.8,3.3 197.8,3.4 C197.8,3.5 197.7,3.7 197.5,3.9 L196.8,4.8 C196.8,5.9 196.8,7 196.8,8.2 C196.8,9.4 196.8,10 196.8,10.1 L196.8,12.1 L200,11.8 L200.6,10.5 C200.7,10.2 200.8,10 200.9,10 C201,10 201.2,10.1 201.5,10.3 L203.4,11.9 C203.5,12 203.6,12.2 203.7,12.3 C203.8,12.4 203.8,12.5 203.8,12.7 C203.8,12.9 203.7,13 203.5,13.2 L202.6,14.1 C202.6,15.9 202.6,17.8 202.5,19.9 C202.5,21.9 202.5,23.7 202.4,25.2 C202.3,26.7 202.2,28.4 202.1,30.4 C201.9,32.3 201.7,33.8 201.3,34.8 C200.9,35.8 200.4,36.5 199.7,37 C199.1,37.5 198.5,37.7 198.2,37.8 C197.9,37.9 197.6,37.9 197.5,37.8 C197.5,37.8 197.4,37.7 197.4,37.6 C197.4,37.5 197.3,37.3 197.2,36.9 C197.1,36.5 197,36.2 196.9,35.8 C196.8,35.4 196.5,35.1 196.1,34.9 L195.2,34.4 C195.1,34.4 195,34.3 195,34.2 C195,34.1 195,34.1 195,34 C195,33.9 195,33.9 195,33.9 C195,33.7 195.2,33.7 195.4,33.7 L196.8,33.7 C197.6,33.7 198.2,33.6 198.5,33.3 C198.8,33 199.1,32.7 199.3,32.3 C199.5,31.9 199.6,31.2 199.8,30.2 C199.9,29.2 200,27.7 200.1,25.9 C200.2,24.1 200.2,22.4 200.2,20.9 C200.2,19.4 200.2,18.2 200.2,17.2 L200.2,12.8 L196.8,13.2 Z" id="形状" fill-rule="nonzero"></path>
                <path d="M217.5,11.4 C217.5,10.3 217.5,9.8 217.5,9.7 L217.6,6.9 C217.6,6.8 217.6,6.6 217.6,6.6 L217.6,4.5 L217.5,2.5 C217.5,2.5 217.6,2.4 217.6,2.4 C217.6,2.4 217.8,2.4 218.2,2.6 L221.2,3.7 C221.3,3.8 221.4,3.8 221.5,3.9 C221.6,4 221.6,4.1 221.6,4.2 C221.6,4.3 221.4,4.6 221.2,4.9 L220.6,5.6 C220.5,7 220.5,8.1 220.5,8.8 L220.4,10.2 L220.3,11.6 L227.3,11.6 L228,10.3 C228.2,9.9 228.3,9.7 228.4,9.8 C228.5,9.8 228.6,9.9 228.8,10.1 L231,12.2 C231.3,12.5 231.5,12.7 231.5,12.8 C231.5,12.9 231.6,12.9 231.6,13 C231.6,13.1 231.6,13.2 231.5,13.3 C231.4,13.4 231.3,13.6 231.1,13.7 L230.5,14.2 C230.5,15.6 230.5,16.7 230.5,17.7 C230.5,18.7 230.4,20.1 230.4,21.9 C230.3,23.7 230.3,25.6 230.2,27.6 C230.1,29.6 229.9,31.3 229.6,32.8 C229.3,34.2 228.9,35.3 228.4,36 C227.9,36.7 227.3,37.3 226.6,37.9 C225.9,38.5 225.3,38.8 224.8,38.8 C224.7,38.8 224.6,38.8 224.6,38.7 C224.6,38.6 224.5,38.6 224.5,38.5 C224.5,38.4 224.3,38 224.1,37.3 C223.9,36.5 223.2,35.8 222.2,35.1 L221.3,34.5 C221.2,34.4 221.1,34.3 221.1,34.2 C221.1,34 221.2,33.9 221.4,33.9 L222.6,34.1 C223.2,34.2 223.8,34.2 224.4,34.2 C225.3,34.2 225.9,33.9 226.3,33.2 C226.7,32.5 227,31.6 227.2,30.3 C227.4,29.1 227.5,27.7 227.5,26.3 C227.6,24.9 227.6,23.1 227.7,20.9 C227.8,18.7 227.8,17 227.8,15.8 L227.8,13.2 L227.8,12.7 L220.5,12.7 C220.5,13.7 220.4,14.9 220.3,16.4 C220.2,17.9 220.1,19.5 219.8,21.2 C219.6,23 219.1,25.1 218.3,27.6 C217.5,30.1 216.4,32.1 215,33.4 C213.6,34.7 212.3,35.7 211.2,36.5 C210.1,37.3 209.3,37.8 208.9,37.9 L207.8,38.4 C207.6,38.5 207.5,38.5 207.4,38.4 C207.3,38.3 207.4,38.2 207.4,38.1 C207.4,38 207.5,37.9 207.6,37.8 L208.6,37 C210.2,35.8 211.7,34.3 212.9,32.5 C214.1,30.7 215.1,28.9 215.6,27.1 C216.2,25.3 216.6,23.4 216.9,21.5 C217.2,19.6 217.4,17.9 217.4,16.4 L217.6,13.1 L217.6,12.6 L208.2,12.6 C208,12.6 207.9,12.4 207.8,12 C207.8,11.6 207.9,11.4 208.2,11.4 L217.5,11.4 Z" id="路径"></path>
                <path d="M240.5,20.1 L240.5,6.6 L240.3,2 C240.3,1.9 240.3,1.9 240.3,1.9 C240.3,1.9 240.4,1.9 240.6,2 L243.4,3 C243.5,3.1 243.6,3.1 243.6,3.2 C243.6,3.3 243.5,3.4 243.4,3.5 L242.6,4.3 L242.6,10.5 L245.7,10.5 L246.6,8.5 C246.7,8.3 246.8,8.2 246.9,8.2 C247,8.2 247,8.3 247.1,8.4 L248.8,10.7 C248.9,10.9 249,11 249.1,11.1 C249.1,11.2 249.1,11.3 249.1,11.4 C249.1,11.5 249,11.6 248.8,11.6 L246.8,11.6 L242.5,11.6 L242.5,20 L244.7,20 L245.4,18.6 C245.6,18.3 245.7,18.1 245.7,18.1 C245.7,18.1 245.8,18.2 246.1,18.4 L247.9,20.2 C248.1,20.4 248.1,20.5 248.1,20.6 C248.1,20.7 248,20.8 247.9,20.9 L247.2,21.8 L247.2,28.8 L247.4,33 C247.3,33.3 247.2,33.6 247.1,33.8 C246.9,34 246.5,34.2 245.9,34.2 C245.4,34.2 245.1,34.1 245,33.9 C244.9,33.7 244.9,33.5 244.9,33.3 L244.9,32.3 L239,32.3 L239,35.4 C239,35.8 239,36.1 239,36.2 C239,36.3 238.8,36.5 238.6,36.7 C238.3,36.9 238,37 237.6,37 C237.2,37 236.9,36.9 236.8,36.8 C236.7,36.7 236.7,36.5 236.6,36.2 L236.8,31.6 L236.8,21.8 L236.7,18.5 C236.8,18.4 236.8,18.3 236.8,18.3 C236.8,18.3 236.9,18.3 237.1,18.5 L239.1,20.1 L240.5,20.1 Z M245.1,31.3 L245.1,21.2 L239,21.2 L239,31.3 L245.1,31.3 Z M245.7,16.4 C245.7,16.4 245.6,16.4 245.5,16.4 C245.4,16.4 245.3,16.2 245.4,15.9 C245.5,15.6 245.5,15.4 245.7,15.4 L251.1,14.2 C251,11.9 250.9,10.1 250.9,8.8 C250.9,7.5 250.8,6.3 250.8,5.3 L250.8,3.6 L250.6,2.1 C250.6,2 250.6,2 250.7,1.9 C250.7,1.9 250.9,1.9 251.3,2.1 L253.9,2.9 C254.1,3 254.1,3 254.1,3.1 C254.1,3.2 254.1,3.2 254.1,3.3 C254.1,3.4 254,3.5 253.9,3.7 L253.2,4.5 C253.2,5.6 253.2,6.5 253.2,7.1 C253.2,7.7 253.2,8.1 253.2,8.1 L253.3,13.8 L256.9,12.9 L257.6,11.1 C257.8,10.6 258,10.3 258,10.2 C258.1,10.2 258.2,10.2 258.4,10.4 L260.8,12.4 C261,12.6 261.1,12.8 261.1,13 C261.1,13.2 261,13.3 260.8,13.3 L253.3,14.9 C253.3,15.7 253.4,16.4 253.4,17.1 C253.4,17.8 253.5,18.8 253.7,20.1 C253.9,21.4 254,22.5 254.2,23.4 L254.5,24.8 C255,23.7 255.3,22.9 255.6,22.3 C255.8,21.8 256.1,21 256.4,20 C256.7,19 257,18.3 257.1,17.8 L257.4,16.7 L257.6,15.8 C257.6,15.8 257.7,15.8 257.7,15.8 C257.7,15.8 257.9,15.9 258.2,16.1 L260.6,18 C260.7,18.1 260.8,18.2 260.8,18.4 C260.8,18.5 260.7,18.6 260.6,18.7 L259.8,19.1 C258.9,21.3 258.2,22.9 257.7,24 C257.2,25.1 256.5,26.5 255.6,28.2 C256.3,30 256.9,31.1 257.2,31.6 C257.5,32.1 257.9,32.6 258.4,33.1 C258.9,33.6 259.1,33.9 259.3,33.8 C259.5,33.8 259.6,33.6 259.8,33.3 C260,33 260.2,32.5 260.5,31.8 L261.2,30 L261.8,28.4 C261.8,28.3 261.9,28.2 262,28.3 C262.1,28.3 262.2,28.4 262.2,28.5 C262.2,28.6 262.2,28.7 262.2,28.7 L261.8,30.7 C261.6,31.4 261.5,32 261.4,32.7 C261.3,33.4 261.3,34 261.3,34.5 C261.3,35.1 261.4,35.7 261.5,36.2 L261.8,37.4 C261.8,37.6 261.9,37.8 261.9,37.9 C261.9,38 261.9,38.1 261.9,38.2 C261.8,38.7 261.6,38.9 261.1,38.9 C260.7,38.9 260.2,38.7 259.6,38.3 C259,37.9 258.3,37.4 257.7,36.8 C257.1,36.2 256.4,35.2 255.7,33.9 C255,32.6 254.5,31.5 254.1,30.7 C253,31.9 252.1,32.8 251.4,33.5 C250.7,34.2 249.8,34.8 248.9,35.5 C248,36.1 247.4,36.6 246.9,36.8 C246.5,37 245.9,37.3 245.3,37.6 L244.5,37.9 C244.4,38 244.3,37.9 244.3,37.9 C244.3,37.9 244.2,37.7 244.2,37.7 C244.2,37.7 244.2,37.5 244.3,37.5 L245.5,36.7 C246.4,36.1 247.3,35.4 248.1,34.7 C248.9,33.9 249.9,32.9 250.9,31.6 C251.9,30.3 252.7,29.2 253.2,28.4 C253,27.4 252.8,26.4 252.6,25.5 C252.4,24.5 252.2,23.4 252.1,22 C252,20.6 251.8,19.3 251.7,18 L251.5,15.7 L245.7,16.4 Z M254.1,5.7 C254.1,5.6 254,5.5 254,5.4 C254,5.3 254.1,5.2 254.4,5.1 C254.6,4.9 255.2,4.9 256,4.9 C257,4.9 257.7,5.2 258.1,5.8 C258.5,6.4 258.7,7 258.7,7.6 C258.7,8 258.6,8.4 258.4,8.8 C258.2,9.2 257.9,9.4 257.4,9.4 C257.1,9.4 256.9,9.3 256.7,9.2 C256.5,9 256.4,8.8 256.3,8.4 L256.1,7.7 C255.9,7.2 255.7,6.8 255.5,6.5 C255.3,6.2 255,6 254.7,5.9 C254.4,5.8 254.1,5.7 254.1,5.7 Z" id="形状" fill-rule="nonzero"></path>
                <path d="M285.1,1.9 L284.5,2.6 C284.2,3 283.9,3.4 283.7,4 C283.5,4.5 283.3,5.1 283.2,5.6 C283.1,6.1 283,6.6 283,6.9 C283,7.2 283.1,7.4 283.1,7.4 C283.1,7.4 283.3,7.4 283.5,7.3 C283.7,7.2 284,7.1 284.3,7.2 C284.6,7.2 284.9,7.5 285.2,7.9 C285.5,8.3 285.6,8.9 285.6,9.6 C285.6,10.3 285.4,10.9 285,11.3 C284.6,11.7 284.2,12 283.7,11.9 C283,11.9 282.5,11.5 282.2,10.9 C281.9,10.3 281.7,9.6 281.6,8.9 C281.5,8.2 281.5,7.5 281.6,6.7 C281.7,5.7 282,4.9 282.3,4.2 C282.6,3.5 283,2.9 283.3,2.5 C283.6,2.1 283.9,1.8 284.2,1.5 C284.5,1.2 284.7,1.2 284.9,1.2 C285.1,1.2 285.2,1.3 285.2,1.5 C285.2,1.7 285.2,1.8 285.1,1.9 Z M290.3,1.9 L289.7,2.6 C289.4,3 289.1,3.4 288.9,4 C288.7,4.6 288.5,5.1 288.4,5.6 C288.3,6.1 288.3,6.5 288.3,6.8 C288.3,7.1 288.4,7.3 288.4,7.4 C288.4,7.5 288.6,7.4 288.8,7.3 C289,7.2 289.3,7.1 289.6,7.2 C289.9,7.3 290.2,7.5 290.5,7.9 C290.8,8.3 290.9,8.9 290.9,9.6 C290.9,10.3 290.7,10.8 290.3,11.3 C289.9,11.8 289.5,12 289,11.9 C288.3,11.9 287.8,11.5 287.5,10.9 C287.2,10.3 286.9,9.6 286.9,8.9 C286.9,8.2 286.8,7.5 287,6.7 C287.1,5.7 287.4,4.9 287.7,4.2 C288,3.5 288.4,3 288.7,2.6 C289,2.2 289.3,1.9 289.6,1.6 C289.9,1.3 290.1,1.2 290.3,1.3 C290.5,1.4 290.6,1.4 290.6,1.6 C290.4,1.7 290.4,1.8 290.3,1.9 Z" id="形状" fill-rule="nonzero"></path>
                <path d="M315.6,9.2 L302.3,9.2 C302.3,9.9 302.3,10.5 302.3,11.1 C302.3,11.7 302.3,12.7 302.3,14 C302.3,15.3 302.3,16.2 302.3,16.6 C302.3,19.3 302.2,21.5 302.1,23.1 C302,24.7 301.8,26.3 301.4,27.8 C301.1,29.2 300.6,30.6 300,31.8 C299.4,33 298.8,34.1 298.2,34.9 C297.6,35.7 297.1,36.4 296.7,36.9 L295.7,38 C295.6,38.1 295.6,38.1 295.5,38.1 C295.4,38.1 295.4,38.1 295.4,38.1 C295.4,38.1 295.4,38 295.4,37.9 C295.4,37.8 295.4,37.7 295.5,37.5 L296.4,36 C296.8,35.4 297.2,34.6 297.6,33.7 C298,32.8 298.4,31.8 298.6,30.9 C298.9,29.9 299.1,28.7 299.3,27.2 C299.5,25.7 299.6,24.6 299.7,23.7 L299.8,22.2 C299.2,22.7 298.7,23.1 298.4,23.3 L297.2,24.5 L296.1,25.4 C295.9,25.6 295.7,25.8 295.6,25.9 C295.5,26 295.5,26 295.4,26 C295.4,26 295.3,25.8 295.3,25.4 L294.8,22.5 L294.7,21.9 C294.7,21.8 294.7,21.8 294.8,21.7 L295.2,21.7 L296.6,21.4 C298.3,21.1 299.4,20.9 299.9,20.7 C299.9,19.3 299.9,18 299.9,16.7 C299.9,15.4 299.9,14.4 299.9,13.6 C299.9,12.8 299.8,11.5 299.8,9.8 L299.7,7.7 C299.7,6.9 299.7,6.5 299.7,6.5 C299.7,6.5 299.7,6.4 299.8,6.4 C299.9,6.4 300.1,6.5 300.5,6.8 L302,7.9 L316.8,7.9 L318,6 C318.2,5.7 318.3,5.6 318.4,5.6 C318.5,5.6 318.6,5.7 318.9,6 L320.8,8.3 C321,8.5 321.1,8.7 321.2,8.9 C321.3,9.1 321.1,9.2 320.6,9.2 L316.8,9.2 L315.6,9.2 Z M295.9,12 L295.5,11.2 C295.5,11.1 295.5,11.1 295.5,10.9 C295.5,10.7 295.5,10.7 295.7,10.7 C295.9,10.7 296.3,11 297,11.7 C297.6,12.4 298.1,13 298.4,13.5 C298.7,14 298.8,14.6 298.8,15.3 C298.8,16 298.6,16.5 298.4,17 C298.2,17.5 297.8,17.7 297.4,17.7 C297.1,17.7 296.8,17.6 296.6,17.2 C296.4,16.8 296.3,16.6 296.3,16.4 L296.4,13.5 C296.4,13.4 296.3,13.1 296.3,12.7 C296,12.4 296,12.1 295.9,12 Z M306.3,25.7 L303.3,25.7 C303.1,25.7 303,25.5 303,25.1 C303,24.7 303.1,24.5 303.3,24.5 L313.3,24.5 L313.8,23.5 C313.9,23.3 314,23.2 314.1,23.2 C314.2,23.2 314.4,23.3 314.6,23.5 L316.6,25.3 C316.7,25.4 316.8,25.5 316.8,25.6 C316.9,25.7 316.9,25.8 316.9,25.8 C316.9,25.8 316.9,25.9 316.8,26 C316.7,26.1 316.6,26.2 316.6,26.2 L315.8,26.6 C315.3,27.7 314.8,28.7 314.3,29.5 C313.8,30.3 313.3,31.3 312.5,32.4 C314.3,33.5 315.9,34.2 317.4,34.4 C318.8,34.6 319.7,34.7 320.1,34.7 L321,34.7 C321.2,34.7 321.3,34.8 321.3,34.9 C321.3,35 321.2,35.2 321,35.3 L320.3,35.7 C320.1,35.9 319.8,36.1 319.6,36.3 C319.4,36.6 319.2,36.9 319,37.2 C318.8,37.5 318.7,37.8 318.6,38.1 C318.5,38.3 318.5,38.5 318.4,38.6 C318.4,38.7 318.3,38.7 318.2,38.7 C317.9,38.7 317.1,38.4 315.7,37.7 C314.3,37.1 313.3,36.5 312.7,36 C312.1,35.5 311.3,34.9 310.6,34.2 C309.1,35.3 307.5,36.2 305.8,37 C304.1,37.7 302.6,38.2 301.5,38.5 L300.1,38.8 C300,38.8 299.9,38.8 299.8,38.8 C299.8,38.8 299.7,38.7 299.7,38.7 C299.7,38.7 299.7,38.6 299.7,38.6 C299.7,38.6 299.7,38.5 299.7,38.5 C299.7,38.4 299.8,38.4 299.9,38.4 L301.2,37.8 C301.9,37.5 302.9,37.1 304.1,36.4 C305.3,35.7 307,34.4 309,32.5 C308.4,31.6 308,30.9 307.7,30.4 C307.4,29.9 307.1,29.2 306.9,28.3 C306.7,27.4 306.5,26.7 306.3,25.7 Z M312.5,14.1 L308.4,14.1 C308.4,14.4 308.4,14.7 308.4,15 C308.4,15.3 308.4,15.7 308.3,16.3 C308.3,16.9 308.1,17.7 307.9,18.6 C307.7,19.5 307.3,20.4 306.7,21.3 C306.1,22.2 305.2,23 303.8,23.7 L302.9,24.2 C302.7,24.3 302.5,24.4 302.5,24.3 C302.5,24.2 302.5,24.1 302.5,24 C302.5,23.9 302.6,23.8 302.7,23.7 L303.6,22.9 C304.3,22.3 304.8,21.6 305.1,20.9 C305.4,20.1 305.6,19.3 305.8,18.3 C306,17.3 306,16.6 306,15.9 C306,15.8 306,15.7 306,15.5 C306,15.3 306,15 306,14.4 L306,12.7 L305.9,11.4 C305.9,11.3 306,11.3 306,11.3 C306,11.3 306.2,11.4 306.5,11.6 L308.4,13 L312.1,13 L312.8,11.6 C312.9,11.4 313,11.3 313,11.3 C313.1,11.3 313.2,11.3 313.3,11.5 L315.1,13.2 C315.2,13.3 315.2,13.4 315.3,13.4 C315.4,13.4 315.4,13.5 315.4,13.6 C315.4,13.6 315.4,13.7 315.3,13.8 C315.2,13.9 315.2,14 315.1,14 L314.6,14.4 L314.6,18.2 C314.6,18.8 315.1,19.1 316,19.1 C316.5,19.1 317,19 317.4,18.9 C317.8,18.8 318.1,18.7 318.4,18.6 C318.7,18.5 318.9,18.4 319,18.4 C319.2,18.4 319.4,18.5 319.6,18.7 C319.8,18.9 320,19.2 320.1,19.6 C320.2,19.9 320.3,20.2 320.3,20.4 C320.3,21.6 319,22.2 316.5,22.2 C315.7,22.2 314.9,22.1 314.2,21.9 C313.4,21.7 313,21.4 312.8,21.1 C312.6,20.8 312.5,20.4 312.5,20.1 C312.5,19.8 312.4,19.4 312.4,18.8 L312.4,14.1 L312.5,14.1 Z M306.9,25.7 C307.4,27 307.8,27.9 308.2,28.5 C308.6,29.1 309.3,29.9 310.4,31 C311.1,29.9 311.6,29 311.9,28.4 C312.2,27.8 312.6,26.9 313.1,25.7 L306.9,25.7 Z M307.5,3 L307.1,2.4 C307,2.3 307,2.2 307,2.1 C307,2 307,1.9 307,1.9 C307,1.9 307.1,1.9 307.2,1.8 C307.3,1.8 307.7,1.9 308.3,2.1 C308.9,2.3 309.4,2.5 309.7,2.6 C310,2.7 310.3,3.1 310.6,3.6 C310.9,4.1 311.1,4.7 311.1,5.3 C311.1,5.9 311,6.3 310.9,6.7 C310.8,7 310.6,7.3 310.3,7.5 C310,7.7 309.8,7.8 309.5,7.8 C308.9,7.8 308.6,7.6 308.4,7.1 C308.2,6.6 308.1,6.1 308.1,5.5 L308.1,4.4 C308.1,4 308,3.8 307.9,3.6 C307.8,3.4 307.6,3.2 307.5,3 Z" id="形状" fill-rule="nonzero"></path>
                <path d="M325.8,11.1 L326.4,10.4 C326.7,10 327,9.6 327.2,9 C327.4,8.4 327.6,8 327.7,7.4 C327.8,6.8 327.8,6.5 327.8,6.1 C327.8,5.8 327.8,5.6 327.7,5.5 C327.7,5.5 327.5,5.5 327.3,5.6 C327.1,5.7 326.8,5.8 326.5,5.7 C326.2,5.7 325.9,5.4 325.6,5 C325.3,4.6 325.2,4 325.2,3.3 C325.2,2.6 325.4,2 325.7,1.6 C326,1.2 326.5,0.9 327,1 C327.7,1 328.2,1.4 328.5,2 C328.8,2.6 329,3.3 329.1,4 C329.2,4.7 329.2,5.4 329.1,6.2 C329,7.2 328.7,8 328.4,8.7 C328.1,9.4 327.7,10 327.4,10.3 C327.1,10.7 326.8,11 326.5,11.2 C326.2,11.5 326,11.6 325.8,11.5 C325.6,11.5 325.5,11.4 325.5,11.2 C325.5,11 325.7,11.2 325.8,11.1 Z M330.9,11.1 L331.5,10.4 C331.8,10 332.1,9.5 332.4,9 C332.6,8.5 332.8,8 332.9,7.5 C333,7 333,6.6 333,6.2 C333,5.9 333,5.7 332.9,5.6 C332.9,5.6 332.7,5.6 332.5,5.7 C332.3,5.8 332,5.9 331.7,5.8 C331.4,5.8 331.1,5.5 330.8,5.1 C330.5,4.7 330.4,4.1 330.4,3.4 C330.4,2.7 330.6,2.1 331,1.7 C331.3,1.2 331.8,1 332.3,1.1 C333,1.1 333.5,1.5 333.8,2.1 C334.1,2.7 334.3,3.4 334.4,4.1 C334.5,4.8 334.5,5.5 334.4,6.3 C334.3,7.3 334,8.1 333.7,8.8 C333.4,9.5 333,10 332.7,10.4 C332.4,10.8 332.1,11.1 331.8,11.3 C331.5,11.5 331.3,11.7 331.1,11.6 C330.9,11.6 330.8,11.5 330.8,11.3 C330.7,11.3 330.8,11.2 330.9,11.1 Z" id="形状" fill-rule="nonzero"></path>
            </g>
        </g>
    </g>
</svg>