<?xml version="1.0" encoding="UTF-8"?>
<svg width="250px" height="137px" viewBox="0 0 250 137" version="1.1" xmlns="http://www.w3.org/2000/svg" xmlns:xlink="http://www.w3.org/1999/xlink">
    <!-- Generator: Sketch 53.2 (72643) - https://sketchapp.com -->
    <title>banner-全新B级运动旅行车-pc</title>
    <desc>Created with Sketch.</desc>
    <g id="Page-1" stroke="none" stroke-width="1" fill="none" fill-rule="evenodd">
        <g id="banner-全新B级运动旅行车-pc" fill="#FFFFFF" fill-rule="nonzero">
            <g id="Group" transform="translate(0.000000, 110.000000)">
                <g transform="translate(86.000000, 0.000000)">
                    <path d="M2,3 L9.9,3 L10.2,2.6 C10.3,2.4 10.4,2.3 10.4,2.3 C10.4,2.3 10.5,2.4 10.6,2.5 L11.2,3.1 C11.3,3.2 11.4,3.3 11.4,3.4 C11.4,3.5 11.4,3.5 11.4,3.5 C11.4,3.5 11.4,3.5 11.4,3.6 C11.4,3.6 11.4,3.7 11.3,3.8 L11.1,4.2 L11.1,15.6 L11.2,18.1 C11.2,18.3 11.1,18.4 11.1,18.5 C11.1,18.6 10.9,18.6 10.8,18.7 C10.7,18.8 10.5,18.8 10.4,18.8 C10.1,18.8 10,18.7 10,18.4 L10,17.3 L2,17.3 L2,18.2 C2,18.3 2,18.4 1.9,18.5 C1.8,18.6 1.6,18.7 1.3,18.7 C1.1,18.7 1,18.7 1,18.6 C1,18.5 0.9,18.5 0.8,18.3 L0.9,15 L0.9,4.7 L0.8,2.4 C0.8,2.3 0.9,2.3 0.9,2.3 C0.9,2.3 1,2.3 1.2,2.5 L2,3 Z M9.9,3.5 L1.9,3.5 L1.9,16.6 L9.9,16.6 L9.9,3.5 Z M5,9.4 L5,5.9 L2.5,5.9 L2.4,5.9 L2.4,5.9 L2.4,5.9 C2.4,5.9 2.4,5.8 2.4,5.7 C2.4,5.6 2.5,5.5 2.6,5.5 L7.7,5.5 L8,4.9 C8.1,4.6 8.3,4.5 8.3,4.5 C8.3,4.5 8.5,4.6 8.6,4.8 L9.2,5.5 C9.4,5.7 9.4,5.8 9.4,5.9 C9.4,6 9.4,6 9.3,6 L6.4,6 L6.2,6.3 L6.2,9.5 L7.5,9.5 L7.8,8.9 C7.9,8.6 8,8.5 8.1,8.5 C8.2,8.5 8.3,8.6 8.4,8.8 L9,9.6 C9.1,9.7 9.1,9.8 9.2,9.8 C9.3,9.8 9.2,9.8 9.2,9.9 C9.2,10 9.1,10 9,10 L6.1,10 L6.1,14.3 L7.7,14.3 L8.1,13.6 C8.2,13.4 8.3,13.3 8.4,13.3 C8.5,13.3 8.5,13.4 8.6,13.5 L9.3,14.3 C9.5,14.5 9.5,14.6 9.5,14.7 C9.5,14.8 9.4,14.8 9.3,14.8 L8.3,14.8 L8.3,14.8 L2.4,14.8 C2.3,14.8 2.2,14.7 2.2,14.5 C2.2,14.3 2.2,14.2 2.4,14.2 L4.9,14.2 L4.9,9.9 L2.7,9.9 C2.6,9.9 2.6,9.9 2.5,9.8 C2.4,9.7 2.5,9.7 2.4,9.5 C2.3,9.3 2.5,9.3 2.6,9.3 L5,9.4 L5,9.4 Z M6.4,10.7 C6.4,10.6 6.5,10.6 6.6,10.6 C6.7,10.6 6.9,10.7 7.4,10.8 C7.9,10.9 8.2,11.2 8.3,11.5 C8.4,11.8 8.4,12.1 8.4,12.2 C8.4,12.3 8.4,12.4 8.4,12.5 C8.3,12.7 8.2,12.9 8.1,13 C8,13.1 7.9,13.1 7.9,13.1 C7.7,13.1 7.6,13 7.5,12.8 C7.4,12.6 7.4,12.4 7.3,12.1 C7.2,11.8 7.2,11.6 7.1,11.5 C7,11.4 6.9,11.2 6.8,11 L6.6,10.7 C6.4,10.8 6.4,10.8 6.4,10.7 Z" id="形状_8_"></path>
                    <path d="M19.5,2.8 C19.1,2.9 18.8,2.9 18.5,3 C18.2,3.1 18,3.3 17.7,3.5 C17.4,3.7 17.1,4 16.9,4.2 C16.7,4.4 16.5,4.7 16.3,5 C16.1,5.3 15.9,5.6 15.8,6 C15.7,6.4 15.5,6.6 15.5,6.8 L15.1,8.2 C15.4,7.9 15.7,7.8 15.9,7.6 C16.1,7.4 16.3,7.4 16.6,7.3 C16.9,7.2 17.1,7.2 17.4,7.2 C17.6,7.2 17.9,7.3 18.1,7.4 C18.3,7.5 18.5,7.7 18.7,7.9 C18.9,8.1 19.1,8.4 19.2,8.6 C19.3,8.8 19.4,9.1 19.5,9.5 C19.6,9.9 19.6,10.2 19.7,10.6 C19.8,11 19.7,11.3 19.7,11.7 C19.7,12.2 19.6,12.6 19.6,13 C19.6,13.4 19.4,13.8 19.3,14.3 C19.2,14.8 19,15.1 18.7,15.3 C18.4,15.5 18.2,15.8 17.9,16 C17.6,16.2 17.2,16.3 16.7,16.2 C16.3,16.2 16,16.1 15.8,16 C15.6,15.9 15.3,15.7 15.1,15.5 C14.9,15.3 14.7,15 14.5,14.8 C14.3,14.6 14.2,14.2 14,13.7 C13.8,13.2 13.8,12.8 13.7,12.3 C13.6,11.8 13.6,11.3 13.6,10.6 C13.6,9.9 13.6,9.4 13.7,8.9 C13.7,8.5 13.8,8.1 13.9,7.7 C14,7.3 14.1,6.9 14.2,6.6 C14.3,6.3 14.5,5.9 14.6,5.6 C14.7,5.3 15,4.9 15.3,4.5 C15.6,4.1 15.9,3.8 16.2,3.5 C16.5,3.2 16.9,2.9 17.2,2.7 C17.5,2.5 17.9,2.4 18.2,2.3 C18.5,2.2 18.8,2.2 18.9,2.2 L19.5,2.2 L19.5,2.8 L19.5,2.8 Z M16.8,16.1 C17.1,16 17.3,16 17.5,15.9 C17.7,15.8 17.8,15.7 17.9,15.5 C18,15.3 18.1,15.1 18.1,14.8 C18.1,14.5 18.2,14.3 18.2,14 C18.2,13.7 18.2,13.3 18.2,12.9 C18.2,12.5 18.2,12 18.2,11.5 C18.2,11 18.1,10.6 18,10.3 C17.9,10 17.8,9.6 17.7,9.4 C17.6,9.2 17.4,8.9 17.2,8.8 C17,8.7 16.7,8.6 16.4,8.6 C16,8.6 15.7,8.7 15.4,8.9 L14.7,9.4 C14.7,9.8 14.7,10.1 14.6,10.5 C14.5,10.9 14.6,11.1 14.6,11.5 C14.6,11.9 14.6,12.3 14.6,12.7 C14.6,13.1 14.7,13.5 14.8,13.9 C14.9,14.3 15,14.7 15.1,15 C15.2,15.3 15.3,15.6 15.5,15.7 C15.7,15.8 15.8,16 15.9,16.1 C16,16.2 16.6,16 16.8,16.1 Z" id="形状_9_"></path>
                    <path d="M23.2,5.6 L23.2,2.5 L23.1,1.2 L23.1,1.1 L23.3,1.2 L24.5,1.6 C24.6,1.6 24.6,1.7 24.6,1.7 C24.6,1.7 24.5,1.9 24.4,2 L24.1,2.3 L24.1,5.5 L24.8,5.5 L25.2,4.6 C25.3,4.5 25.3,4.4 25.4,4.4 C25.5,4.4 25.5,4.4 25.5,4.5 L26.4,5.6 C26.5,5.7 26.5,5.8 26.5,5.9 C26.5,6 26.5,6 26.4,6 L25.5,6 L25.5,6 L24.3,6 L24.3,8.3 C25.1,8.5 25.6,8.9 25.9,9.3 C26.2,9.7 26.3,10.1 26.3,10.4 C26.3,10.7 26.2,11 26.1,11.1 C26,11.2 25.8,11.3 25.7,11.3 C25.6,11.3 25.4,11.2 25.3,11.1 C25.2,11 25.1,10.7 25.1,10.3 C25.1,9.9 25,9.6 24.9,9.4 C24.8,9.2 24.7,8.9 24.4,8.7 L24.4,16.1 L24.5,17.8 C24.4,18.2 24.2,18.4 23.9,18.4 C23.6,18.4 23.4,18.4 23.4,18.3 C23.4,18.2 23.3,18.1 23.3,18 L23.4,16.2 L23.4,10.5 C23.1,11.3 22.7,12 22.4,12.6 C22.1,13.2 21.8,13.8 21.5,14.2 L21.2,14.7 C21.1,14.8 21.1,14.8 21.1,14.8 L21.1,14.7 C21.1,14.7 21.1,14.6 21.1,14.5 L21.4,13.8 C21.5,13.5 21.7,13.1 21.9,12.5 C22.1,11.9 22.4,10.9 22.7,9.5 C23,8.1 23.3,7.1 23.3,6.5 L23.3,6.3 L23.3,6 L21.2,6 L21.1,6 C21,6 21,6 21,6 L21,5.9 C21,5.8 21,5.7 21,5.6 C21,5.5 21.1,5.5 21.1,5.5 L23.2,5.6 L23.2,5.6 Z M27.8,11.7 C27.5,12.4 27.1,13.1 26.7,13.9 C26.3,14.7 25.8,15.5 25.2,16.4 L24.9,16.9 C24.8,17 24.8,17 24.7,17 C24.6,17 24.6,17 24.6,16.9 C24.6,16.8 24.6,16.8 24.7,16.7 L24.9,16.3 C25,16.1 25.2,15.7 25.3,15.3 C25.4,14.9 25.6,14.5 25.7,14.2 C25.8,13.9 26,13.5 26.1,12.9 C26.2,12.3 26.4,11.9 26.5,11.7 L26.7,10.8 L26.8,10.3 L26.8,10.3 C26.8,10.3 26.9,10.3 27,10.4 L28,11.1 C28.1,11.2 28.1,11.2 28.1,11.3 C28.1,11.4 28,11.4 28,11.5 L27.8,11.7 Z M25.5,8.2 C25.4,8.2 25.4,8.2 25.5,8.2 C25.4,8 25.4,8 25.4,7.9 C25.4,7.8 25.5,7.7 25.6,7.7 L31.6,7.7 L32.1,6.8 C32.2,6.6 32.2,6.5 32.3,6.6 C32.4,6.7 32.4,6.7 32.5,6.8 L33.6,8 L33.6,8.1 L33.6,8.2 C33.6,8.2 33.6,8.2 33.6,8.3 L33.5,8.4 L30.3,8.4 C30.3,8.5 30.3,8.6 30.2,8.6 L30,8.8 L30,17.3 C30,17.5 30,17.7 29.9,17.9 C29.8,18.1 29.6,18.3 29.3,18.4 C29,18.5 28.7,18.6 28.5,18.6 L28.4,18.6 C28.4,18.6 28.4,18.5 28.4,18.4 C28.4,18.3 28.3,18.1 28.3,17.8 C28.3,17.5 28,17.3 27.7,17.1 L27.4,16.9 L27.3,16.8 L27.3,16.7 C27.3,16.7 27.4,16.6 27.5,16.6 L27.8,16.7 C28.3,16.8 28.6,16.8 28.8,16.8 C29,16.8 29,16.7 29,16.5 L29,8.4 L25.5,8.2 L25.5,8.2 Z M30.7,3.2 L31,2.5 C31.2,2.2 31.3,2 31.3,2 C31.3,2 31.4,2.1 31.5,2.2 L32.4,3.2 C32.5,3.4 32.6,3.5 32.6,3.5 C32.6,3.6 32.6,3.6 32.5,3.6 C32.4,3.6 32.4,3.7 32.4,3.7 L31.9,3.7 L31.9,3.7 L26,3.7 C25.9,3.7 25.8,3.6 25.8,3.4 C25.8,3.2 25.8,3.1 26,3.1 L30.7,3.1 C30.7,3.1 30.7,3.2 30.7,3.2 Z M30.4,11.3 C30.3,11.2 30.3,11.1 30.3,11.1 C30.3,11.1 30.3,11 30.4,11 C30.4,11 30.5,11.1 30.7,11.2 C30.9,11.3 31.1,11.5 31.4,11.8 C31.7,12.1 32,12.3 32.3,12.7 C32.6,13 32.8,13.4 33,13.8 C33.2,14.2 33.3,14.7 33.3,15 C33.3,15.3 33.2,15.5 33.1,15.8 C33,16.1 32.8,16.2 32.6,16.2 C32.4,16.2 32.3,16.1 32.2,16 C32.1,15.8 32,15.6 32,15.4 L31.8,14.5 C31.7,14 31.6,13.5 31.3,12.9 C31,12.3 30.8,11.8 30.4,11.3 Z" id="形状_10_"></path>
                    <path d="M38.2,5.8 L38.7,4.5 C38.7,4.4 38.8,4.3 38.8,4.3 C38.8,4.3 38.8,4.3 38.9,4.4 L38.9,4.5 L38.9,4.6 L38.6,6 C38.5,6.4 38.3,7.1 38.1,8 C37.9,8.9 37.7,9.6 37.6,10.2 C37.5,10.8 37.4,11.3 37.3,11.7 C37.2,12.2 37.2,12.6 37.2,13 C37.2,13.3 37.2,13.6 37.3,13.9 C37.4,14.2 37.4,14.6 37.5,15.1 C37.6,15.7 37.7,16.1 37.7,16.3 C37.7,16.6 37.6,16.9 37.5,17.1 C37.4,17.4 37.2,17.5 36.9,17.5 C36.8,17.5 36.7,17.5 36.6,17.4 C36.5,17.3 36.4,17.2 36.3,17.1 C36.2,16.9 36.1,16.7 36.1,16.4 L36.1,14.8 C36.1,14.6 36.1,14.2 36,13.8 C35.9,13.4 35.7,13 35.4,12.9 L35.1,12.8 C35,12.8 35,12.7 35,12.7 C35,12.7 35,12.7 35,12.6 C35,12.5 35,12.5 35,12.5 C35,12.4 35.1,12.4 35.1,12.4 L35.4,12.4 C35.6,12.4 35.8,12.3 35.8,12.3 C35.9,12.2 35.9,12.2 36,12.1 C36.1,12 36.1,11.8 36.2,11.6 C36.3,11.4 36.5,10.8 36.8,9.8 L37.5,7.7 C37.7,7.2 37.9,6.6 38.2,5.8 Z M35.7,3.3 L35.6,3.1 L35.4,2.9 L35.4,2.8 C35.4,2.7 35.5,2.7 35.6,2.7 C35.7,2.7 35.8,2.8 36,2.8 C36.2,2.9 36.5,3 36.9,3.1 C37.2,3.2 37.4,3.5 37.5,3.9 C37.6,4.3 37.6,4.5 37.6,4.7 C37.6,4.9 37.5,5.1 37.4,5.4 C37.2,5.7 37,5.9 36.8,5.9 C36.6,5.9 36.4,5.8 36.3,5.7 C36.2,5.5 36.1,5.3 36.1,5 L36,4.3 C36,3.8 35.9,3.5 35.7,3.3 Z M46.2,5.8 L44.1,5.8 C44,5.9 44,6.1 43.8,6.3 L43.8,8.9 L44.7,8.9 L45.3,7.9 C45.3,7.8 45.4,7.8 45.4,7.8 C45.4,7.8 45.5,7.9 45.6,7.9 L46.5,9 C46.6,9.1 46.6,9.2 46.6,9.3 C46.6,9.4 46.5,9.5 46.5,9.5 L43.9,9.5 L43.9,12.6 L44.8,12.6 L45.4,11.6 C45.4,11.5 45.5,11.5 45.5,11.5 C45.5,11.5 45.6,11.5 45.7,11.6 L46.6,12.7 C46.7,12.8 46.7,12.9 46.7,12.9 C46.7,13 46.6,13.1 46.5,13.1 L45.8,13.1 L45.8,13.1 L43.9,13.1 L43.9,16.6 L45.2,16.6 L45.9,15.4 C46,15.3 46,15.3 46,15.2 C46,15.2 46.1,15.3 46.2,15.4 L47.1,16.6 C47.2,16.7 47.2,16.8 47.2,16.8 C47.2,16.9 47.2,16.9 47.1,16.9 L47,17 L46,17 L46,17 L40.7,17 L40.7,18.1 C40.7,18.3 40.6,18.5 40.4,18.6 C40.2,18.7 40,18.7 39.9,18.7 C39.7,18.7 39.6,18.7 39.5,18.6 C39.4,18.5 39.4,18.4 39.4,18.3 L39.5,15.3 L39.5,7.3 C39,8.2 38.6,8.9 38.3,9.5 L38,10 C37.9,10.1 37.9,10.1 37.8,10.1 L37.7,10 C37.7,10 37.7,9.9 37.7,9.8 L38,9.1 C38.1,9 38.2,8.7 38.3,8.2 C38.4,7.7 38.6,7.4 38.7,7 C38.8,6.6 39,6 39.3,5 C39.6,4 39.8,3.2 39.9,2.5 L40.1,1.3 L40.1,1 C40.1,1 40.2,1 40.3,1.1 L41.7,2 C41.8,2 41.8,2.1 41.8,2.2 C41.8,2.3 41.8,2.3 41.7,2.4 L41.4,2.6 C41.1,3.3 41,3.8 40.9,3.9 L40.4,5.2 L40.5,5.3 L45,5.3 L45.6,4.2 C45.6,4.1 45.7,4.1 45.7,4.1 C45.7,4.1 45.8,4.2 45.9,4.3 L46.9,5.5 C46.9,5.6 47,5.6 47,5.6 L47,5.7 L47,5.7 C47,5.8 46.9,5.9 46.8,5.9 L46.2,5.8 L46.2,5.8 Z M42.7,5.8 L40.8,5.8 L40.8,8.9 L42.7,8.9 L42.7,5.8 Z M40.8,12.5 L42.7,12.5 L42.7,9.4 L40.8,9.4 L40.8,12.5 Z M42.7,13.1 L40.8,13.1 L40.8,16.6 L42.7,16.6 L42.7,13.1 Z M42.8,2.5 L42.6,2.1 C42.6,2.1 42.6,2 42.6,1.9 C42.6,1.8 42.6,1.8 42.7,1.8 C42.9,1.8 43.2,2 43.7,2.3 C44.2,2.6 44.4,3.1 44.4,3.8 C44.4,4.1 44.3,4.3 44.2,4.6 C44.1,4.9 43.9,5 43.6,5 C43.4,5 43.2,4.9 43.1,4.7 C43,4.5 42.9,4.3 42.9,4.1 L42.9,3.3 C42.9,3 42.9,2.7 42.8,2.5 Z" id="形状_11_"></path>
                    <path d="M54.8,13.3 L54.8,10.2 L51.9,10.2 L51.4,10.9 C51.3,11 51.3,11 51.3,10.9 L50.6,9.7 C50.5,9.6 50.5,9.5 50.5,9.5 C50.5,9.5 50.6,9.4 50.8,9.3 C50.9,9.2 51,9.1 51.1,9 C51.2,8.9 51.4,8.4 51.6,7.8 C51.9,7.1 52.1,6.6 52.2,6.2 C52.3,5.8 52.5,5.4 52.7,4.8 L49.5,4.8 C49.4,4.8 49.3,4.7 49.3,4.5 C49.3,4.3 49.4,4.2 49.5,4.2 L52.9,4.2 C52.9,4.2 53,3.8 53.2,3.2 C53.4,2.6 53.6,2.1 53.6,1.7 L53.8,1.1 L53.9,0.7 L53.9,0.7 L54.1,0.9 L55.5,1.8 C55.5,1.8 55.6,1.9 55.6,2 C55.6,2.1 55.6,2.1 55.5,2.2 L55,2.5 L54.3,4.4 L58.6,4.4 L59.1,3.4 C59.2,3.2 59.3,3.1 59.3,3 C59.3,2.9 59.4,3 59.5,3.2 L60.6,4.4 C60.7,4.5 60.7,4.6 60.7,4.7 C60.7,4.8 60.7,4.8 60.6,4.8 L60.1,4.8 L60.1,4.8 L54.1,4.8 L52.1,9.7 L54.8,9.7 L54.8,7.7 L54.8,6 L54.9,5.9 L55.1,6 L56.5,6.6 C56.6,6.6 56.6,6.7 56.6,6.8 C56.6,6.9 56.6,6.9 56.5,7 L56.2,7.2 L56.2,9.7 L58.1,9.7 L58.6,8.8 C58.7,8.5 58.8,8.4 58.9,8.5 C59,8.5 59,8.6 59.2,8.8 L60.1,9.9 C60.2,10 60.2,10.1 60.2,10.2 C60.2,10.3 60.2,10.3 60.1,10.3 L56.3,10.3 L56.3,13.4 L59.5,13.4 L60.1,12.4 C60.2,12.3 60.2,12.2 60.3,12.2 C60.3,12.2 60.4,12.2 60.4,12.3 L61.4,13.5 C61.5,13.6 61.5,13.6 61.5,13.7 C61.5,13.8 61.5,13.8 61.5,13.9 C61.5,14 61.5,14 61.4,14 L59.8,14 L59.8,14 L56.3,14 L56.3,16.9 L56.3,18.6 C56.3,18.7 56.3,18.8 56.2,18.8 C56.2,18.9 56.1,18.9 56,19 C55.9,19.1 55.7,19.1 55.5,19.1 C55.3,19.1 55.1,19.1 55.1,19 C55.1,18.9 55,18.8 55,18.6 L55,17 L55,14 L49.2,14 L49.1,14 L49,14 L49,13.9 C49,13.7 49.1,13.5 49.2,13.5 L54.8,13.5 L54.8,13.3 Z" id="路径_2_"></path>
                    <path d="M65.1,6.4 L65.1,3 L63.6,3 C63.5,3 63.4,2.9 63.4,2.7 C63.4,2.5 63.4,2.4 63.6,2.4 L68.4,2.4 L68.9,1.5 C69,1.4 69,1.3 69.1,1.3 C69.1,1.3 69.2,1.4 69.3,1.5 L70,2.5 C70.1,2.6 70.1,2.7 70.1,2.8 C70.1,2.9 70.1,2.9 70,2.9 L69.5,2.9 L68.7,2.9 C68.6,3 68.6,3.1 68.5,3.3 L68.5,6.4 L69,6.4 L69.6,5.5 C69.6,5.4 69.7,5.4 69.7,5.4 C69.7,5.4 69.8,5.4 69.9,5.5 L70.6,6.5 C70.7,6.6 70.7,6.7 70.7,6.8 C70.7,6.9 70.6,7 70.4,7 L69.1,7 L68.4,7 L68.4,10.6 L68.4,12 C68.3,12.3 68.1,12.4 67.8,12.4 C67.5,12.4 67.4,12.4 67.3,12.4 C67.3,12.4 67.2,12.3 67.2,12.2 L67.3,9.8 L67.3,7 L66.2,7 C66.2,7.1 66.2,7.2 66.2,7.2 L66.2,8.1 C66.2,8.7 66.1,9.3 66,9.8 C65.9,10.3 65.7,10.8 65.4,11.1 C65.1,11.5 64.8,11.8 64.5,12.1 C64.2,12.4 63.9,12.6 63.8,12.7 L63.3,13 L63.2,13 L63.2,13 L63.2,13 C63.2,13 63.2,13 63.2,12.9 C63.2,12.9 63.2,12.8 63.3,12.7 L63.7,12.3 C64.1,11.9 64.3,11.5 64.6,11.1 C64.8,10.6 65,10.2 65.1,9.8 C65.2,9.4 65.2,8.9 65.3,8.3 C65.3,7.7 65.3,7.4 65.3,7.3 L65.3,7.1 L63.2,7.1 C63.1,7.1 63,7 63,6.8 C63,6.6 63,6.5 63.2,6.5 L65.1,6.4 L65.1,6.4 Z M68.8,14.4 L65,14.4 C64.9,14.4 64.8,14.3 64.8,14.1 C64.8,13.9 64.8,13.8 64.9,13.8 L68.7,13.8 L68.7,12.5 L68.6,10.8 L68.7,10.7 L68.8,10.7 L70.1,11.1 C70.2,11.1 70.3,11.2 70.3,11.3 C70.3,11.4 70.3,11.5 70.2,11.6 L69.9,11.9 L69.9,13.6 L71.5,13.6 L72.1,12.6 C72.2,12.5 72.2,12.4 72.3,12.4 C72.3,12.4 72.4,12.4 72.5,12.5 L73.4,13.6 C73.5,13.7 73.5,13.8 73.5,13.9 C73.5,14 73.4,14.1 73.4,14.1 L70,14.1 L70,17 L73.2,17 L73.9,15.9 C74,15.8 74.1,15.7 74.1,15.7 C74.1,15.7 74.2,15.8 74.3,15.9 L75.1,16.9 C75.2,17 75.2,17.1 75.3,17.1 C75.3,17.2 75.3,17.2 75.3,17.3 C75.3,17.4 75.2,17.4 75,17.4 L73.7,17.4 L63.1,17.4 C63,17.4 62.9,17.3 62.9,17.1 C62.9,16.9 62.9,16.8 63.1,16.8 L68.7,16.8 L68.8,14.4 L68.8,14.4 Z M66.5,3 C66.4,3.1 66.3,3.2 66.2,3.4 L66.2,6.5 L67.3,6.5 L67.3,3 L66.5,3 Z M72,3.7 L72,8 L72,9.5 C71.9,9.9 71.6,10.1 71.2,10.1 C71.1,10.1 71,10.1 70.9,10 C70.8,10 70.8,9.9 70.8,9.8 L70.9,7.6 L70.9,4.4 L70.8,2.6 C70.8,2.6 70.8,2.5 70.9,2.5 C71,2.5 71,2.5 71.1,2.6 L72.2,3 C72.3,3 72.4,3.1 72.4,3.2 C72.4,3.3 72.4,3.3 72.3,3.4 L72,3.7 Z M74.4,2.4 L74.4,11.6 C74.4,11.7 74.4,11.9 74.3,12 C74.2,12.1 74,12.3 73.7,12.5 C73.4,12.7 73.1,12.8 72.9,12.8 C72.8,12.8 72.8,12.8 72.8,12.8 C72.8,12.8 72.7,12.6 72.7,12.4 C72.6,12.2 72.6,12 72.5,11.8 C72.4,11.6 72.3,11.6 72.2,11.5 L71.7,11.3 C71.7,11.3 71.6,11.3 71.6,11.2 L71.6,11.1 L71.6,11 L71.7,10.9 L72.3,10.9 L72.7,10.9 C73,10.9 73.1,10.9 73.2,10.9 C73.3,10.9 73.3,10.8 73.3,10.8 C73.3,10.8 73.3,10.6 73.3,10.5 L73.3,3.5 L73.2,1.1 C73.2,1.1 73.2,1.1 73.3,1.1 L73.5,1.2 L74.6,1.6 C74.7,1.6 74.7,1.7 74.8,1.7 L74.8,1.8 C74.8,1.9 74.7,1.9 74.7,2 L74.4,2.4 Z" id="形状_12_"></path>
                    <path d="M79.7,7.9 L80.2,7.9 L80.5,7.3 C80.6,7.1 80.7,7 80.7,7 C80.7,7 80.8,7.1 80.9,7.2 L81.6,8.2 C81.7,8.3 81.7,8.4 81.7,8.4 L81.6,8.5 L79.7,8.5 L79.7,12.7 C80.1,12.5 80.7,12.3 81.3,12 L81.7,11.8 C81.8,11.8 81.8,11.8 81.8,11.9 C81.8,12 81.8,12 81.7,12.1 L81.4,12.4 C81.2,12.5 80.9,12.8 80.4,13.2 C79.9,13.6 79.6,13.9 79.3,14 L78.1,14.9 L77.6,15.3 C77.3,15.5 77.2,15.6 77.2,15.6 C77.2,15.6 77.2,15.5 77.1,15.5 L76.6,14.1 L76.5,13.8 C76.5,13.8 76.5,13.8 76.5,13.7 C76.5,13.6 76.6,13.7 76.8,13.6 L77.2,13.5 C77.5,13.4 77.9,13.3 78.4,13.1 L78.4,8.5 L76.8,8.5 C76.7,8.5 76.7,8.4 76.6,8.2 C76.6,8 76.6,7.9 76.8,7.9 L78.4,7.9 L78.4,3.7 L76.6,3.7 C76.5,3.7 76.5,3.6 76.5,3.4 C76.5,3.2 76.5,3.1 76.7,3.1 L80.1,3.1 L80.5,2.4 C80.6,2.2 80.7,2.1 80.7,2 C80.7,2 80.8,2 80.9,2.2 L81.8,3.4 C81.8,3.5 81.9,3.5 81.9,3.6 C81.9,3.7 81.9,3.7 81.8,3.7 L80.1,3.7 L79.8,4.1 L79.7,7.9 L79.7,7.9 Z M85.6,5.1 C85.6,5.5 85.6,6 85.6,6.6 C85.6,7.2 85.6,7.6 85.6,7.8 C85.6,8 85.6,8.4 85.5,8.9 C85.4,9.4 85.4,9.8 85.4,10 L85.4,10.4 L86.4,10.9 C86.6,11 86.6,11.1 86.7,11.1 L86.7,11.2 C86.7,11.2 86.7,11.2 86.7,11.3 L86.7,11.4 L86.5,11.7 L86.5,16.4 C86.5,16.5 86.5,16.6 86.5,16.6 C86.5,16.7 86.7,16.7 87,16.7 C87.6,16.7 88,16.7 88.2,16.6 C88.4,16.5 88.5,16.3 88.6,16.1 C88.7,15.9 88.9,15.4 89,14.7 L89.2,13.8 C89.2,13.7 89.3,13.6 89.3,13.6 L89.4,13.7 C89.4,13.8 89.4,13.8 89.4,13.8 L89.4,14.3 C89.4,14.6 89.3,14.9 89.3,15.1 C89.3,15.3 89.3,15.5 89.3,15.7 C89.3,15.9 89.3,16.1 89.3,16.1 C89.3,16.2 89.4,16.3 89.5,16.6 C89.6,16.8 89.6,17 89.6,17.1 C89.6,17.2 89.6,17.4 89.5,17.6 C89.4,17.8 89.3,17.9 89.2,18 C89.1,18.1 88.9,18.2 88.5,18.3 C88.2,18.4 87.8,18.4 87.3,18.4 C86.5,18.4 86,18.3 85.7,18 C85.4,17.7 85.3,17.4 85.3,16.8 L85.3,11.8 C85.2,12.2 85.1,12.6 85,13 C84.9,13.4 84.7,13.9 84.4,14.5 C84.1,15.1 83.5,15.8 82.6,16.5 C81.7,17.2 80.8,17.8 79.8,18.2 L79.4,18.4 C79.4,18.4 79.4,18.4 79.3,18.4 C79.3,18.4 79.3,18.4 79.2,18.4 L79.2,18.3 C79.2,18.2 79.2,18.2 79.3,18.1 L79.8,17.8 C79.9,17.7 80.2,17.6 80.5,17.3 C80.9,17 81.2,16.7 81.5,16.5 C81.8,16.3 82.2,15.7 82.8,15 C83.3,14.3 83.7,13.4 83.9,12.5 C84.1,11.6 84.2,10.6 84.3,9.7 C84.3,8.8 84.4,7.9 84.4,7.1 C84.4,7 84.4,6.8 84.4,6.6 C84.4,6.4 84.4,6 84.4,5.4 L84.4,4.7 L84.4,4 L84.4,4 L84.8,4.1 L85.8,4.5 C85.9,4.5 86,4.6 86,4.7 C86,4.8 86,4.9 85.9,4.9 L85.6,5.1 Z M83.2,2.8 L83.2,11.4 L83.2,12 C83.1,12.4 82.9,12.6 82.5,12.6 C82.3,12.6 82.2,12.6 82.1,12.5 C82,12.4 82,12.3 82,12.2 L82.1,10.6 L82.1,3.2 L82,1.4 L82,1.4 C82,1.4 82.1,1.5 82.3,1.6 L83.2,2.2 L86.7,2.2 L87,1.6 C87.1,1.5 87.1,1.4 87.1,1.4 C87.1,1.4 87.2,1.4 87.2,1.5 L88.2,2.5 C88.3,2.6 88.3,2.6 88.3,2.7 C88.3,2.8 88.3,2.8 88.2,2.9 L87.8,3.4 L87.8,10.3 L87.9,11.9 C87.9,12.1 87.7,12.3 87.6,12.4 C87.5,12.5 87.2,12.6 87.1,12.6 C87,12.6 86.9,12.6 86.8,12.5 C86.7,12.4 86.7,12.4 86.7,12.3 L86.7,11.6 L86.7,2.7 L83.2,2.8 L83.2,2.8 Z" id="形状_13_"></path>
                    <path d="M99.4,8.5 L93.3,8.5 L93.3,15 C93.3,15.2 93.4,15.4 93.5,15.5 C93.6,15.7 94,15.8 94.8,15.9 C95.5,16 96.5,16 97.6,16 C99.3,15.9 100.3,15.9 100.7,15.8 C101.1,15.7 101.4,15.5 101.7,15.2 C102,14.9 102.2,14.3 102.5,13.4 L102.8,12.1 C102.8,12.1 102.8,12 102.9,11.9 C102.9,11.8 103,11.8 103,11.9 C103,12 103,12 103,12.1 L102.8,13.6 C102.7,14.1 102.7,14.4 102.7,14.6 C102.7,14.8 102.8,15 102.8,15.1 L103,15.6 C103.1,15.7 103.1,15.9 103.1,16 C103.1,16.1 103.1,16.3 103,16.4 C102.9,16.6 102.6,16.9 102.2,17.1 C101.8,17.3 101,17.4 99.9,17.5 C98.8,17.6 98,17.6 97.5,17.6 C96.9,17.6 96,17.6 94.9,17.5 C93.8,17.4 93.1,17.3 92.7,17 C92.3,16.8 92.1,16.5 92,16.3 C91.9,16.1 91.9,15.7 91.9,15.4 L91.9,6.3 L91.8,4.4 L91.8,4.3 C91.8,4.3 91.9,4.3 92,4.3 L93.2,4.7 C93.3,4.7 93.4,4.8 93.5,4.8 L93.5,4.9 C93.5,4.9 93.4,5 93.3,5.2 L93,5.6 L93,7.9 L99.1,7.9 L99.1,3 L91.5,3 C91.4,3 91.3,2.9 91.3,2.8 C91.3,2.7 91.3,2.5 91.5,2.5 L91.6,2.5 L99,2.5 L99.3,2 C99.4,1.8 99.5,1.7 99.5,1.7 C99.5,1.7 99.6,1.8 99.8,1.9 L100.5,2.5 C100.6,2.6 100.7,2.7 100.8,2.7 C100.9,2.7 100.8,2.8 100.9,2.8 C101,2.8 100.8,2.9 100.7,3.1 L100.4,3.5 L100.4,7.3 L100.4,9.1 C100.4,9.2 100.3,9.3 100.3,9.4 C100.3,9.5 100.1,9.5 99.9,9.6 C99.7,9.7 99.5,9.7 99.4,9.7 C99.3,9.7 99.2,9.7 99.1,9.6 C99,9.5 99,9.5 99,9.4 L99,8.5 L99.4,8.5 L99.4,8.5 Z" id="路径_3_"></path>
                    <path d="M108.7,7.1 C108.1,7.9 107.5,8.5 107,9.1 C106.5,9.6 106,10 105.7,10.3 C105.4,10.5 105.2,10.7 105.2,10.7 L104.9,10.9 L104.8,11 C104.7,11 104.7,11 104.7,11 C104.7,11 104.7,11 104.7,10.9 C104.7,10.9 104.7,10.8 104.8,10.8 L105,10.5 C105.5,9.9 106.1,9.1 106.6,8.3 C107.2,7.5 107.7,6.4 108.4,5.2 C109,4 109.5,3 109.7,2.2 L109.9,1.8 L110,1.4 L110,1.4 L110.3,1.6 L111.8,2.5 C111.9,2.5 111.9,2.6 111.9,2.6 L111.9,2.7 C111.9,2.8 111.9,2.8 111.8,2.9 L111.3,3.2 L111.2,3.3 C111.7,4.5 112.2,5.4 112.7,6 C113.2,6.6 113.7,7 114,7.3 C114.3,7.6 114.8,7.9 115.2,8.2 C115.6,8.5 116.1,8.7 116.5,8.8 L116.9,8.9 L117.2,9 C117.3,9 117.3,9.1 117.3,9.1 L117.3,9.2 C117.3,9.3 117.3,9.3 117.2,9.3 L117,9.4 C116.8,9.5 116.6,9.6 116.5,9.7 C116.4,9.8 116.3,9.9 116.1,10.1 C115.9,10.3 115.9,10.4 115.8,10.6 C115.8,10.8 115.7,10.8 115.7,10.9 C115.7,11 115.7,11 115.6,10.9 C115.5,10.9 115.1,10.6 114.3,10 C113.6,9.4 113,8.8 112.5,8.1 C112,7.4 111.7,6.7 111.4,6 C111.1,5.3 110.9,4.7 110.8,4.2 L110.6,3.5 C110.1,5.1 109.3,6.3 108.7,7.1 Z M111.8,10.1 C111.8,10.1 111.7,10.2 111.7,10.3 C111.7,10.4 111.6,10.5 111.5,10.5 L111.5,13.4 L112.8,13.4 L113.3,12.5 C113.4,12.3 113.5,12.2 113.5,12.2 C113.5,12.2 113.6,12.3 113.8,12.5 L114.7,13.5 C114.8,13.6 114.9,13.7 114.8,13.8 C114.7,13.9 114.7,13.9 114.6,13.9 L111.4,13.9 L111.4,17.5 L114.4,17.5 L115.1,16.5 L115.2,16.3 C115.3,16.2 115.3,16.1 115.3,16.1 C115.3,16.1 115.4,16.2 115.6,16.4 L116.6,17.5 C116.7,17.6 116.7,17.7 116.7,17.7 L116.7,17.8 C116.7,17.9 116.6,17.9 116.5,17.9 L115.8,17.9 L105.3,17.9 C105.2,17.9 105.1,17.8 105.1,17.6 C105.1,17.4 105.2,17.3 105.3,17.3 L110.1,17.3 L110.1,13.7 L107.2,13.7 L107.1,13.7 C107.1,13.7 107,13.7 107,13.6 C107,13.6 107,13.5 107,13.3 C107,13.2 107,13.1 107.1,13.1 L110.1,13.1 L110.1,9.8 L107.1,9.8 C107,9.8 106.9,9.7 106.9,9.5 C106.9,9.3 106.9,9.2 107.1,9.2 L112,9.2 L112.5,8.4 C112.6,8.2 112.7,8.1 112.7,8.1 C112.7,8.1 112.8,8.2 113,8.3 L113.9,9.3 C114,9.4 114,9.5 114,9.6 C114,9.7 113.9,9.7 113.8,9.7 L112.9,9.7 L111.8,9.7 L111.8,10.1 L111.8,10.1 Z" id="形状_14_"></path>
                    <path d="M129.1,2.5 L129.7,1.5 C129.7,1.4 129.8,1.4 129.8,1.4 C129.8,1.4 129.9,1.4 129.9,1.5 L131,2.9 C131,3 131.1,3 131.1,3 C131.1,3 131.1,3.1 131,3.1 L125.4,3.1 L125.7,3.3 L125.7,3.3 C125.7,3.3 125.7,3.3 125.7,3.4 L125.7,3.4 C125.7,3.5 125.6,3.5 125.6,3.5 L125.3,3.7 L124,6.7 L128.5,6.7 L128.8,6 C128.8,5.9 128.9,5.9 129,6 L130.1,7.1 C130.2,7.2 130.2,7.2 130.2,7.2 C130.2,7.2 130.2,7.2 130.2,7.3 C130.2,7.3 130.2,7.4 130.1,7.4 L129.7,7.8 L129.7,17.1 L129.7,18.3 C129.7,18.4 129.6,18.5 129.6,18.5 C129.6,18.5 129.4,18.6 129.2,18.7 C129,18.8 128.8,18.8 128.7,18.8 C128.6,18.8 128.5,18.8 128.5,18.7 C128.5,18.6 128.5,18.6 128.5,18.5 L128.5,17.3 L121.1,17.3 L121.1,18.3 C121.1,18.4 121.1,18.5 121,18.6 C121,18.7 120.8,18.8 120.6,18.8 C120.4,18.9 120.2,18.9 120.1,18.9 C120,18.9 119.9,18.9 119.9,18.8 L119.9,18.7 L120,16.8 L120,7.6 L120,5.9 L120,5.9 C120,5.9 120.1,5.9 120.2,6 L121.2,6.8 L123.4,6.8 C123.6,5.7 123.7,5 123.8,4.8 L124.1,3.1 L119.1,3.1 L119.1,3.1 C119,3.1 119,3.1 119,3 C119,2.9 119,2.9 118.9,2.7 C118.9,2.6 119,2.5 119.1,2.5 L129.1,2.5 L129.1,2.5 Z M122.9,16.7 L122.9,7.2 L121.2,7.2 L121.2,16.7 L122.9,16.7 Z M125.6,10 L125.6,7.3 L124.2,7.3 C124.1,7.4 124.1,7.5 124,7.5 L124,10 L125.6,10 Z M125.6,13.2 L125.6,10.5 L123.9,10.5 L123.9,13.2 L125.6,13.2 Z M125.6,16.7 L125.6,13.7 L123.9,13.7 L123.9,16.7 L125.6,16.7 Z M128.6,16.7 L128.6,7.2 L126.9,7.2 C126.8,7.3 126.7,7.4 126.6,7.4 L126.6,16.6 L128.6,16.6 L128.6,16.7 Z" id="形状_15_"></path>
                    <path d="M136.6,3.1 L137.3,3.5 C137.4,3.6 137.5,3.6 137.5,3.7 C137.5,3.8 137.4,3.8 137.3,3.9 L137,4 L134.5,7 L138.4,7 C138.2,6.5 138,6 137.7,5.6 L137.4,5.2 L137.4,5.1 L137.4,5 C137.4,5 137.4,4.9 137.5,4.9 C137.5,4.9 137.8,5.1 138.4,5.4 C138.9,5.7 139.3,6.1 139.6,6.4 C139.8,6.8 140,7 140.1,7.3 C140.2,7.5 140.2,7.8 140.2,8 C140.2,8.3 140.1,8.7 140,8.9 C139.9,9.1 139.7,9.3 139.4,9.3 C139.2,9.3 139.1,9.2 139,9 C138.9,8.8 138.8,8.5 138.8,8.1 L138.7,7.4 L136.3,8 L137.5,8.4 C137.6,8.4 137.6,8.5 137.6,8.6 C137.6,8.7 137.6,8.7 137.5,8.8 L137.2,9.1 L137.2,11.4 L138.2,11.4 L138.8,10.3 C138.8,10.2 138.9,10.2 138.9,10.2 C138.9,10.2 139,10.2 139,10.3 L140,11.5 C140.1,11.6 140.1,11.7 140.1,11.8 C140.1,11.9 140,12 139.9,12 L137,12 L137,15.3 C137.8,15.2 138.5,15 139.2,14.9 L140.2,14.7 C140.3,14.7 140.3,14.7 140.3,14.8 L140.3,14.9 L140.3,15 L140.2,15.1 L139,15.6 C138.6,15.8 137.9,16.1 136.8,16.5 C135.7,16.9 135,17.2 134.8,17.3 L133.9,17.7 L133.5,17.9 C133.4,18 133.4,17.9 133.3,17.8 L132.9,16.4 L132.7,16 L132.7,16 C132.7,16 132.8,16 132.9,16 L133.7,15.9 C133.7,15.9 134.1,15.9 134.7,15.8 L135.6,15.7 L135.6,12.2 L132.9,12.2 C132.8,12.2 132.7,12.1 132.7,11.9 C132.7,11.7 132.8,11.6 132.9,11.6 L135.6,11.6 L135.6,9 L135.6,8.3 C135.3,8.4 135.1,8.4 134.9,8.5 L134.3,8.7 L133.8,8.9 C133.7,8.9 133.6,9 133.6,9 L133.5,9.1 C133.5,9.1 133.5,9 133.4,8.8 L132.9,7.6 L132.8,7.4 C132.8,7.4 132.8,7.4 132.8,7.3 C132.8,7.3 132.8,7.2 132.9,7.2 L133.3,7 C133.4,6.9 133.6,6.8 133.8,6.5 C134,6.2 134.3,5.9 134.5,5.4 C134.7,4.9 135.1,4.2 135.4,3.3 L132.7,3.3 C132.6,3.3 132.6,3.2 132.6,3 C132.6,2.8 132.6,2.7 132.7,2.7 L138.1,2.7 L138.7,1.7 C138.8,1.6 138.8,1.6 138.9,1.5 C138.9,1.5 139,1.5 139.1,1.7 L140,2.7 C140.2,2.9 140.2,3 140.2,3.1 C140.2,3.2 140,3.3 139.7,3.3 L136.6,3.3 L136.6,3.1 L136.6,3.1 Z M142,4.7 L142,12.5 L142,14.3 C142,14.4 141.9,14.5 141.9,14.6 C141.9,14.7 141.8,14.8 141.6,14.8 C141.5,14.9 141.3,14.9 141.2,14.9 C141.1,14.9 141,14.9 140.9,14.8 C140.8,14.7 140.8,14.7 140.8,14.6 L140.9,11.7 L140.9,5.5 L140.8,3.3 C140.8,3.3 140.8,3.3 140.9,3.3 C140.9,3.3 141,3.3 141.2,3.4 L142.3,3.8 C142.4,3.8 142.4,3.9 142.4,4 L142.4,4.1 C142.4,4.1 142.4,4.2 142.3,4.3 L142,4.7 Z M144.6,2.5 L144.6,17.2 C144.6,17.4 144.5,17.6 144.4,17.9 C144.3,18.1 144.1,18.3 143.8,18.5 C143.5,18.7 143.2,18.8 143,18.8 C142.9,18.8 142.9,18.8 142.9,18.8 C142.9,18.8 142.9,18.8 142.9,18.7 C142.9,18.6 142.9,18.5 142.8,18.1 C142.8,17.7 142.5,17.4 142,17.2 L141.5,17 C141.4,17 141.4,16.9 141.4,16.9 L141.4,16.8 C141.4,16.7 141.5,16.7 141.5,16.7 L142.1,16.8 C142.5,16.8 142.7,16.9 142.9,16.8 C143.1,16.8 143.2,16.8 143.2,16.7 C143.2,16.6 143.3,16.5 143.3,16.4 L143.3,4.4 L143.2,1.3 L143.3,1.3 L143.3,1.3 C143.3,1.3 143.4,1.3 143.6,1.4 L144.8,1.8 C144.9,1.8 144.9,1.9 144.9,1.9 L144.9,2 C144.9,2 144.8,2.1 144.7,2.2 L144.6,2.5 Z" id="形状_16_"></path>
                    <path d="M158.8,4.7 L149.7,4.7 C149.7,4.8 149.7,5 149.7,5.2 C149.7,5.4 149.7,6 149.7,6.9 C149.7,7.8 149.7,8.6 149.7,9.4 C149.7,10.2 149.6,11.1 149.5,11.9 C149.4,12.8 149.2,13.7 149,14.7 C148.8,15.7 148.3,16.7 147.7,17.8 L147.3,18.4 C147.2,18.6 147.1,18.7 147,18.7 L147,18.7 C147,18.7 147,18.7 147,18.6 C147,18.5 147,18.5 147,18.5 L147.2,18.1 L147.5,17.4 C147.8,16.7 148,15.9 148.1,15.1 C148.3,14.3 148.4,13.4 148.4,12.6 C148.4,11.8 148.5,11.1 148.5,10.6 C148.5,10.1 148.5,9.6 148.5,9.2 L148.5,7.6 C148.5,6.7 148.5,6 148.5,5.7 L148.4,3.5 C148.4,3.5 148.4,3.5 148.4,3.4 C148.4,3.4 148.4,3.3 148.5,3.3 C148.6,3.3 148.6,3.3 148.7,3.4 L149.9,4.2 L157.3,4.2 L157.8,3.4 C157.9,3.2 158,3 158.1,3 C158.1,3 158.2,3.1 158.4,3.2 L159.2,4.1 C159.4,4.3 159.5,4.4 159.5,4.5 C159.5,4.6 159.5,4.6 159.4,4.6 L158.8,4.7 L158.8,4.7 Z M154.4,8.5 L156.7,8.5 L157.2,7.7 C157.3,7.5 157.4,7.3 157.5,7.3 C157.6,7.3 157.6,7.4 157.8,7.5 L158.5,8.3 C158.7,8.5 158.8,8.7 158.8,8.8 C158.8,8.9 158.8,8.9 158.7,8.9 L157.7,8.9 L154.5,8.9 L154.5,12.4 L156.6,12.4 L156.9,11.9 C157,11.7 157.1,11.6 157.1,11.6 C157.1,11.6 157.2,11.7 157.4,11.8 L158,12.4 C158.1,12.5 158.2,12.6 158.2,12.7 C158.2,12.7 158.2,12.7 158.2,12.8 C158.2,12.8 158.2,12.8 158.2,12.9 C158.2,13 158.2,13 158,13.2 L157.7,13.6 L157.7,16.5 L157.8,18.4 C157.8,18.5 157.7,18.6 157.6,18.8 C157.5,19 157.3,19 157,19 C156.8,19 156.7,19 156.6,18.9 C156.5,18.8 156.5,18.7 156.5,18.5 L156.5,17.6 L151.5,17.6 L151.5,18.5 C151.5,18.7 151.4,18.8 151.3,18.9 C151.2,19 151,19.1 150.8,19.1 C150.6,19.1 150.5,19.1 150.5,19 C150.4,18.9 150.4,18.9 150.4,18.7 L150.5,16.7 L150.5,13.6 L150.4,11.7 C150.4,11.7 150.4,11.6 150.5,11.6 C150.5,11.6 150.6,11.6 150.7,11.7 L151.8,12.5 L153.2,12.5 L153.2,6.7 L153.1,5 C153.1,4.9 153.2,4.9 153.2,4.9 L153.4,5 L154.5,5.3 C154.7,5.4 154.8,5.5 154.9,5.5 C154.9,5.6 154.8,5.7 154.7,5.9 L154.4,6.2 L154.4,8.5 L154.4,8.5 Z M156.5,17.1 L156.5,13.1 L151.5,13.1 L151.5,17.1 L156.5,17.1 Z M152.4,0.9 C152.4,0.8 152.5,0.8 152.6,0.8 C152.6,0.8 152.8,0.9 153.2,1 C153.6,1.1 153.9,1.3 154.1,1.7 C154.3,2 154.5,2.3 154.5,2.6 C154.5,2.9 154.5,3.2 154.4,3.6 C154.3,4 154.1,4.2 153.7,4.2 C153.5,4.2 153.4,4.1 153.3,4 C153.2,3.9 153.1,3.7 153.1,3.6 C153.1,3.5 153,3.2 153,2.9 C153,2.5 152.9,2.3 152.9,2.1 C152.9,1.9 152.8,1.7 152.7,1.6 L152.5,1.2 C152.4,1 152.4,1 152.4,0.9 Z" id="形状_17_"></path>
                    <path d="M162.6,14.4 C162.8,14.4 163,14.5 163.2,14.6 C163.4,14.8 163.6,15 163.7,15.3 C163.8,15.6 163.9,15.9 163.9,16.2 C163.9,16.5 163.8,16.8 163.7,17.1 C163.6,17.4 163.4,17.6 163.2,17.8 C163,18 162.8,18 162.6,18 C162.4,18 162.2,17.9 162,17.8 C161.8,17.7 161.6,17.4 161.5,17.1 C161.4,16.8 161.3,16.5 161.3,16.2 C161.3,15.9 161.4,15.6 161.5,15.3 C161.6,15 161.8,14.8 162,14.6 C162.2,14.5 162.4,14.4 162.6,14.4 Z M162.6,15.1 C162.5,15.1 162.3,15.1 162.2,15.2 C162.1,15.3 162,15.4 161.9,15.6 C161.8,15.8 161.8,16 161.8,16.2 C161.8,16.4 161.8,16.6 161.9,16.8 C162,17 162.1,17.1 162.2,17.2 C162.3,17.3 162.5,17.3 162.6,17.3 C162.7,17.3 162.9,17.3 163,17.2 C163.1,17.1 163.2,17 163.3,16.8 C163.4,16.6 163.4,16.4 163.4,16.2 C163.4,16 163.4,15.8 163.3,15.6 C163.2,15.4 163.1,15.3 163,15.2 C162.9,15.1 162.7,15.1 162.6,15.1 Z" id="形状_18_"></path>
                </g>
                <path d="M86.4,25.9 L243.9,25.9" id="路径_4_" stroke="#FFFFFF" stroke-width="0.75"></path>
                <g transform="translate(0.000000, 4.000000)">
                    <path d="M2.5,5.5 L2.7,5 C2.8,4.9 2.8,4.8 2.8,4.8 C2.8,4.8 2.9,4.8 2.9,4.9 L3.6,5.6 C3.6,5.6 3.7,5.7 3.7,5.7 C3.7,5.7 3.7,5.8 3.7,5.8 C3.7,5.8 3.7,5.9 3.6,5.9 L3.3,6.2 C3.2,6.6 3.2,7 3.1,7.4 C3,7.9 2.8,8.5 2.5,9.3 C2.2,10.1 1.9,10.8 1.5,11.3 C1.1,11.8 0.9,12.2 0.7,12.4 L0.3,12.8 C0.3,12.8 0.2,12.8 0.2,12.8 C0.2,12.8 0.2,12.8 0.2,12.7 C0.2,12.7 0.2,12.6 0.2,12.5 L0.5,12.1 C0.7,11.8 0.9,11.3 1.2,10.7 C1.5,10.1 1.7,9.4 1.8,8.8 C1.9,8.1 2,7.6 2.1,7.3 C2.2,7 2.2,6.7 2.2,6.4 C2.2,6.2 2.2,6.1 2.2,6 L2.2,5.8 L0.3,5.8 C0.2,5.8 0.2,5.7 0.2,5.6 C0.2,5.5 0.2,5.4 0.3,5.4 L2.5,5.4 L2.5,5.5 Z M5.3,6.2 L5.6,6.2 L5.8,5.8 C5.8,5.7 5.9,5.7 5.9,5.7 C5.9,5.7 6,5.7 6,5.8 L6.5,6.4 C6.5,6.5 6.6,6.5 6.6,6.6 C6.6,6.6 6.6,6.7 6.5,6.7 L5.3,6.7 L5.3,8.2 L5.7,8.2 L5.9,7.8 C6,7.7 6,7.6 6,7.6 C6,7.6 6,7.6 6.1,7.7 L6.6,8.4 C6.6,8.5 6.7,8.5 6.7,8.6 C6.7,8.7 6.7,8.7 6.6,8.7 L5.2,8.7 L5.2,10.1 L6.1,10.1 L6.4,9.6 C6.5,9.5 6.5,9.4 6.5,9.4 C6.5,9.4 6.6,9.5 6.6,9.5 L7.1,10.2 C7.1,10.2 7.1,10.3 7.1,10.3 C7.1,10.3 7.1,10.4 7.1,10.4 C7.1,10.4 7.1,10.5 7,10.5 L5.2,10.5 L5.2,13.3 C5.2,13.5 5.2,13.6 5.1,13.7 C5,13.8 4.9,13.9 4.8,14 C4.7,14.1 4.5,14.2 4.3,14.2 C4.1,14.3 4,14.3 4,14.2 C4,14.2 4,14.1 4,14 C4,13.9 4,13.7 3.9,13.6 C3.8,13.5 3.7,13.3 3.7,13.3 C3.6,13.2 3.5,13.2 3.4,13.1 L3.2,13 C3.2,13 3.2,13 3.1,12.9 C3,12.8 3.1,12.9 3.1,12.8 C3.1,12.8 3.1,12.8 3.1,12.8 C3.1,12.8 3.1,12.7 3.2,12.8 L3.5,12.9 C4,13 4.3,13 4.4,13 C4.5,13 4.5,12.8 4.5,12.8 L4.5,10.6 L2.9,10.6 L2.8,10.6 C2.7,10.5 2.7,10.5 2.7,10.4 C2.7,10.3 2.7,10.2 2.9,10.2 L4.5,10.2 L4.5,8.8 L3.3,8.8 C3.3,8.8 3.2,8.8 3.2,8.7 C3.2,8.7 3.2,8.6 3.2,8.5 C3.2,8.4 3.2,8.4 3.3,8.4 L4.5,8.4 L4.5,6.9 L3.7,6.9 C3.6,6.9 3.6,6.9 3.6,6.8 C3.6,6.8 3.6,6.7 3.6,6.6 C3.6,6.5 3.6,6.4 3.7,6.4 L4.6,6.4 L4.6,4.9 L4.6,3.6 C4.6,3.6 4.6,3.6 4.6,3.6 C4.6,3.6 4.6,3.6 4.7,3.6 L5.3,3.8 C5.5,3.4 5.8,2.9 6.1,2.4 L1.9,2.4 C1.8,2.4 1.8,2.3 1.8,2.2 C1.8,2.1 1.8,2 1.9,2 L6.3,2 L6.7,1.5 C6.8,1.4 6.8,1.4 6.8,1.4 C6.8,1.4 6.8,1.4 6.9,1.5 L7.8,2.4 C7.9,2.6 8,2.7 8,2.8 C8,2.9 7.9,3 7.6,3 C7.4,3 7.2,3.1 7.1,3.2 L5.6,4.1 L5.8,4.2 C5.8,4.2 5.8,4.2 5.8,4.3 C5.8,4.3 5.8,4.4 5.8,4.4 L5.5,4.7 L5.5,6.2 L5.3,6.2 Z M7.2,6.5 C7.7,6 8,5.5 8.2,5.2 L8.5,4.8 L8.6,4.6 C8.6,4.6 8.6,4.6 8.7,4.6 L8.8,4.8 L9.4,5.7 C9.4,5.8 9.5,5.8 9.5,5.9 C9.5,5.9 9.5,5.9 9.5,6 C9.5,6.1 9.5,6 9.4,6 L9,6 C8.5,6.3 7.9,6.6 7.3,6.8 C7.4,7 7.4,7.2 7.4,7.3 C7.4,7.4 7.5,7.7 7.7,8 C7.8,8.4 8,8.9 8.3,9.5 C8.6,10.1 9,10.7 9.6,11.2 L9.9,11.4 C9.9,11.4 9.9,11.5 9.9,11.5 C9.9,11.5 9.9,11.5 9.9,11.6 C9.9,11.6 9.9,11.6 9.9,11.6 L9.7,11.6 C9.3,11.6 9,11.7 8.8,11.9 C8.7,12.1 8.6,12.2 8.6,12.2 C8.6,12.2 8.5,12.1 8.5,12 C8.4,11.9 8.3,11.7 8.1,11.3 C7.9,10.9 7.8,10.6 7.7,10.4 C7.6,10.1 7.5,9.8 7.4,9.4 C7.3,9 7.2,8.6 7.1,8.2 C7,7.8 6.9,7.4 6.9,6.9 C6.8,6.4 6.8,6 6.8,5.7 L6.8,5 C6.8,4.7 6.8,4.5 6.8,4.3 C6.8,4.1 6.8,4 6.9,4 C6.9,4 7,4.1 7,4.2 L7.1,4.9 C6.9,5.4 7,5.8 7.2,6.5 Z" id="Shape"></path>
                    <path d="M14.2,2.8 L14.8,2.8 L15.2,2.2 C15.2,2.1 15.3,2.1 15.3,2.1 C15.3,2.1 15.4,2.1 15.4,2.2 L16,3 C16.1,3.1 16.1,3.1 16.1,3.2 C16.1,3.3 16.1,3.3 16,3.3 L15.5,3.3 L14.2,3.3 L14.2,4.8 L16.4,4.8 C16.4,4.6 16.4,4.5 16.4,4.4 C16.4,4.3 16.4,4.1 16.4,3.6 C16.4,3.1 16.4,2.7 16.4,2.1 L16.4,1.3 L16.4,0.8 C16.4,0.8 16.4,0.8 16.5,0.7 L16.7,0.8 L17.7,1.1 C17.8,1.1 17.8,1.2 17.8,1.2 C17.8,1.2 17.8,1.3 17.7,1.4 L17.4,1.7 C17.4,2 17.4,2.2 17.4,2.5 C17.4,2.7 17.4,3 17.4,3.4 C17.4,3.8 17.4,4.3 17.4,4.8 L18.8,4.8 L19.2,4 C19.2,3.9 19.3,3.9 19.3,3.9 C19.3,3.9 19.3,3.9 19.4,4 L20.2,4.9 C20.2,4.9 20.2,5 20.3,5 C20.3,5.1 20.3,5.1 20.3,5.1 C20.3,5.1 20.3,5.2 20.2,5.2 L19.1,5.2 L17.4,5.2 C17.4,5.3 17.4,5.5 17.4,5.9 C17.4,6.3 17.5,6.7 17.5,7.2 C17.5,7.7 17.7,8.4 17.8,9.3 C17.9,9.1 17.9,9 18,8.8 C18.1,8.7 18.1,8.4 18.3,7.9 C18.4,7.4 18.5,7.1 18.6,6.9 L18.7,6.3 L18.7,6.1 C18.7,6.1 18.7,6.1 18.7,6.1 C18.7,6.1 18.8,6.1 18.8,6.2 L19.8,6.9 C19.8,6.9 19.9,7 19.8,7 C19.8,7 19.8,7 19.8,7.1 C19.8,7.1 19.8,7.1 19.8,7.2 L19.5,7.4 C19.4,7.7 19.3,8.1 19.1,8.5 C18.9,8.9 18.6,9.6 18.1,10.6 C18.3,11.1 18.5,11.6 18.8,11.9 L19.2,12.3 C19.3,12.4 19.4,12.5 19.4,12.5 C19.4,12.5 19.5,12.4 19.6,12.3 C19.8,12 20,11.6 20.1,11.2 L20.3,10.8 C20.3,10.7 20.3,10.7 20.4,10.7 C20.4,10.7 20.4,10.7 20.4,10.7 C20.4,10.7 20.4,10.7 20.4,10.8 C20.4,10.8 20.4,10.8 20.4,10.9 L20.2,11.5 C20.1,11.8 20.1,12 20,12.3 C20,12.6 19.9,12.8 19.9,12.9 C19.9,13 19.9,13.1 19.9,13.3 L20,13.7 C20,13.8 20,13.9 20,14 C20,14.2 19.9,14.4 19.6,14.4 C19.3,14.4 19,14.2 18.7,13.8 C18.4,13.4 18.1,13.1 18,12.8 C17.8,12.5 17.6,12.1 17.4,11.6 C16.8,12.4 16.1,13.1 15.3,13.6 L14.9,13.9 C14.8,14 14.8,14 14.7,13.9 C14.7,13.9 14.7,13.8 14.7,13.8 C14.7,13.8 14.7,13.7 14.8,13.7 L15.1,13.4 C15.6,12.9 16,12.4 16.4,11.9 C16.8,11.4 17,11 17.1,10.7 C17,10.4 17,10.1 16.9,9.8 C16.8,9.5 16.8,8.9 16.6,8.2 C16.5,7.4 16.4,6.7 16.4,6.1 L16.4,5.6 L16.4,5.4 L13,5.4 L13.8,5.8 C13.8,5.8 13.8,5.9 13.9,5.9 C13.9,5.9 13.9,6 13.8,6 L13.6,6.2 C13.5,6.4 13.5,6.5 13.4,6.6 C13.4,6.7 13.4,6.8 13.3,6.8 L15,6.8 L15.3,6.3 C15.4,6.1 15.4,6.1 15.5,6.1 C15.5,6.1 15.5,6.1 15.5,6.1 L16.2,6.9 C16.3,7 16.3,7 16.3,7.1 C16.3,7.2 16.3,7.2 16.2,7.2 L15.4,7.2 L13.3,7.2 C13.2,7.4 13.1,7.7 13,8 C12.9,8.3 12.7,8.7 12.5,9.2 L13.5,9.2 L13.5,8.7 L13.5,7.7 C13.5,7.7 13.5,7.6 13.5,7.6 L13.6,7.7 L14.5,8 C14.6,8 14.6,8.1 14.6,8.1 C14.6,8.1 14.6,8.2 14.5,8.3 L14.3,8.5 L14.3,9.2 L15,9.2 L15.3,8.6 C15.4,8.5 15.4,8.4 15.4,8.4 C15.4,8.4 15.5,8.4 15.5,8.5 L16.2,9.3 C16.2,9.4 16.3,9.4 16.3,9.5 C16.3,9.6 16.3,9.6 16.2,9.6 L15.7,9.6 L14.4,9.6 L14.4,11.1 C14.9,11 15.2,10.9 15.5,10.9 C15.8,10.8 16,10.8 16.1,10.8 L16.4,10.7 C16.5,10.7 16.5,10.7 16.5,10.8 C16.5,10.9 16.5,10.9 16.4,11 L16.2,11.1 L15.2,11.5 L14.5,11.8 L14.5,13.1 L14.5,14.2 C14.5,14.5 14.2,14.6 13.9,14.6 C13.8,14.6 13.7,14.6 13.7,14.5 C13.7,14.4 13.6,14.4 13.6,14.3 L13.6,13 L13.6,12 C13.2,12.1 12.8,12.3 12.3,12.5 L11.8,12.7 L11.6,12.8 C11.6,12.8 11.6,12.8 11.5,12.8 L11.4,12.6 L11.1,11.6 L11.1,11.5 C11.1,11.5 11.1,11.5 11.2,11.4 L11.3,11.4 L11.9,11.4 C12.1,11.4 12.7,11.3 13.6,11.2 L13.6,9.6 L12.5,9.6 L12.4,9.8 L12.4,9.9 C12.4,9.9 12.4,9.9 12.4,9.9 C12.4,9.9 12.4,9.9 12.3,9.8 L11.7,9.3 C11.7,9.3 11.7,9.3 11.7,9.2 C11.7,9.2 11.7,9.2 11.7,9.1 L11.9,9 C12,9 12,8.8 12.1,8.6 C12.2,8.4 12.4,7.9 12.6,7.2 L11,7.2 C10.9,7.2 10.9,7.1 10.9,7 C10.9,6.9 10.9,6.8 11,6.8 L12.5,6.8 C12.6,6.6 12.6,6.3 12.7,6 C12.8,5.7 12.8,5.6 12.8,5.5 L12.8,5.3 L10.9,5.3 C10.8,5.3 10.8,5.2 10.8,5.1 C10.8,5 10.8,4.9 10.9,4.9 L13.4,4.9 L13.4,3.4 L11.5,3.4 C11.4,3.4 11.4,3.3 11.4,3.2 C11.4,3.1 11.4,3 11.5,3 L13.4,3 L13.4,2.1 L13.4,1.1 C13.4,1.1 13.4,1.1 13.5,1 L13.6,1 L14.5,1.3 C14.6,1.3 14.6,1.4 14.6,1.4 C14.6,1.4 14.6,1.5 14.5,1.5 L14.3,1.7 L14.3,2.8 L14.2,2.8 Z M17.7,2.1 C17.7,2.1 17.6,2 17.7,1.9 C17.7,1.8 17.9,1.8 18.2,1.8 C18.3,1.8 18.4,1.8 18.5,1.8 C18.6,1.8 18.8,1.9 18.9,1.9 C19,1.9 19.1,2 19.3,2.2 C19.4,2.4 19.5,2.6 19.5,2.8 C19.5,3 19.5,3.2 19.4,3.4 C19.3,3.6 19.2,3.6 19,3.6 C18.8,3.6 18.7,3.5 18.6,3.4 C18.5,3.3 18.5,3.1 18.5,2.9 C18.5,2.7 18.4,2.6 18.4,2.5 C18.3,2.4 18.3,2.3 18.1,2.2 C17.9,2.1 17.7,2.1 17.7,2.1 Z" id="Shape"></path>
                    <path d="M29.1,11.5 L29.4,10.9 C29.5,10.7 29.5,10.6 29.6,10.6 C29.6,10.6 29.7,10.7 29.8,10.8 L30.4,11.5 C30.5,11.6 30.6,11.7 30.6,11.7 C30.6,11.7 30.6,11.7 30.6,11.7 C30.6,11.8 30.5,11.8 30.4,11.8 L28.7,11.8 C28.6,12.2 28.6,12.5 28.5,12.7 C28.4,12.9 28.4,13.2 28.2,13.4 C28.1,13.7 27.9,13.9 27.7,14 C27.5,14.1 27.4,14.2 27.2,14.2 C27.1,14.2 27,14.3 27,14.3 C27,14.3 26.9,14.3 26.9,14.3 C26.8,14.3 26.8,14.3 26.8,14.2 C26.8,14.2 26.8,14.1 26.8,14 C26.8,13.9 26.7,13.7 26.6,13.6 C26.5,13.4 26.3,13.3 26.2,13.2 L25.9,13.1 L25.7,13 C25.7,13 25.7,13 25.6,12.9 C25.6,12.9 25.6,12.9 25.6,12.8 C25.6,12.8 25.6,12.8 25.6,12.7 C25.6,12.7 25.7,12.6 25.7,12.7 L25.9,12.7 C26.2,12.8 26.4,12.8 26.7,12.8 C27,12.8 27.2,12.7 27.3,12.6 C27.4,12.5 27.5,12.3 27.6,12 L27.7,11.6 L23.8,11.6 L23.6,12.1 C23.5,12.3 23.5,12.3 23.5,12.4 C23.5,12.4 23.4,12.3 23.3,12.2 L22.7,11.6 C22.6,11.5 22.6,11.5 22.6,11.4 C22.6,11.4 22.6,11.3 22.6,11.3 C22.6,11.3 22.7,11.2 22.8,11.1 C22.9,11 22.9,10.9 23,10.8 L23,10.6 L23,10.4 L23.2,8.4 L21.4,8.4 C21.3,8.4 21.3,8.3 21.3,8.2 C21.3,8.1 21.3,8 21.4,8 L23.2,8 C23.2,7.6 23.3,7.1 23.3,6.5 C23.4,5.9 23.4,5.4 23.4,5.1 L23.4,4.6 L23.4,4.3 C23.4,4.3 23.4,4.3 23.4,4.3 C23.4,4.3 23.5,4.3 23.5,4.4 L24.3,4.9 L27.7,4.9 L27.9,4.5 C28,4.3 28,4.3 28,4.2 C28,4.2 28.1,4.2 28.2,4.3 L28.9,4.9 C29,5 29.1,5.1 29.1,5.1 C29.1,5.1 29.1,5.2 29.1,5.2 C29.1,5.2 29.1,5.3 29,5.3 L28.7,5.6 L28.6,7.9 L29.1,7.9 L29.4,7.2 C29.5,7 29.5,7 29.5,7 C29.5,7 29.6,7.1 29.8,7.2 L30.4,7.9 C30.5,8 30.6,8.1 30.6,8.2 C30.6,8.3 30.5,8.3 30.4,8.3 L28.5,8.3 C28.5,8.6 28.5,9 28.4,9.6 C28.4,10.2 28.4,10.5 28.4,10.6 L28.4,11 L28.4,11.2 L29.1,11.2 L29.1,11.5 Z M29.9,3.3 L23.9,3.3 C23.9,3.4 23.7,3.7 23.3,4.4 C23,5.1 22.4,5.8 21.8,6.6 L21.6,6.9 C21.5,7 21.5,7 21.5,7 C21.5,7 21.5,6.9 21.5,6.9 C21.5,6.9 21.5,6.8 21.5,6.8 L21.7,6.5 L21.9,6.1 C22.1,5.8 22.3,5.4 22.5,4.9 C22.7,4.4 22.9,4 23,3.6 C23.1,3.2 23.3,2.8 23.4,2.3 C23.5,1.8 23.6,1.6 23.6,1.4 L23.7,1.1 L23.7,0.9 C23.7,0.9 23.7,0.9 23.7,0.9 C23.7,0.9 23.8,0.9 23.9,1 L24.9,1.6 C25,1.7 25,1.7 25,1.8 C25,1.9 25,1.9 24.9,1.9 L24.6,2.1 C24.4,2.6 24.2,2.9 24.1,3.1 L28.8,3.1 L29.1,2.5 C29.1,2.4 29.2,2.4 29.2,2.3 C29.2,2.2 29.3,2.2 29.3,2.2 C29.3,2.2 29.4,2.3 29.5,2.5 L30.1,3.2 C30.2,3.3 30.2,3.4 30.2,3.5 C30.2,3.6 30.1,3.6 30,3.6 L29.9,3.6 L29.9,3.3 Z M23.8,11.5 L27.8,11.5 C27.8,11.2 27.9,10.9 27.9,10.6 L28,9.3 L28,8.9 L28,8.7 L24.2,8.7 L23.8,11.5 Z M24.4,5.5 L24.2,8.2 L28,8.2 L28.1,5.5 L24.4,5.5 Z M25.2,8.8 C25.2,8.8 25.2,8.8 25.2,8.8 C25.3,8.7 25.4,8.8 25.7,9 C26,9.2 26.2,9.4 26.3,9.6 C26.4,9.8 26.5,10.1 26.5,10.3 C26.5,10.4 26.5,10.6 26.4,10.8 C26.3,11 26.2,11.1 26,11.1 C25.8,11.1 25.7,11 25.7,10.9 C25.6,10.8 25.6,10.6 25.6,10.5 L25.6,10 C25.6,9.7 25.5,9.3 25.3,9.1 L25.2,8.8 C25.2,8.9 25.2,8.9 25.2,8.8 Z M25.3,5.8 C25.3,5.8 25.3,5.8 25.3,5.8 C25.3,5.7 25.3,5.7 25.3,5.8 C25.4,5.7 25.4,5.7 25.5,5.8 L25.8,6 C25.9,6.1 26.1,6.2 26.3,6.4 C26.5,6.6 26.6,6.8 26.6,7.1 C26.6,7.4 26.6,7.6 26.5,7.8 C26.4,7.9 26.3,8 26.1,8 C26,8 25.9,8 25.8,7.9 C25.7,7.8 25.7,7.7 25.7,7.7 C25.7,7.6 25.7,7.4 25.7,7.2 C25.7,6.9 25.7,6.7 25.6,6.6 C25.6,6.4 25.5,6.3 25.4,6.2 L25.3,5.8 L25.3,5.8 Z" id="Shape"></path>
                    <path d="M39.3,7.5 L39.9,6.4 C40,6.3 40,6.2 40,6.2 C40,6.2 40.1,6.2 40.1,6.3 L41.1,7.5 C41.2,7.6 41.2,7.6 41.2,7.7 C41.2,7.8 41.1,7.8 41.1,7.8 L32,7.8 C31.9,7.8 31.9,7.8 31.9,7.7 C31.9,7.7 31.9,7.6 31.9,7.5 C31.9,7.4 31.9,7.4 32,7.4 L39.3,7.4 L39.3,7.5 Z" id="Path"></path>
                    <path d="M45.4,2.3 C45.1,3.2 44.7,4.1 44.4,5 L44.8,5.3 C44.9,5.4 44.9,5.4 44.9,5.4 C44.9,5.4 44.9,5.4 44.9,5.5 C44.9,5.5 44.9,5.6 44.8,5.7 L44.5,5.9 L44.5,12.3 L44.6,13.6 C44.5,13.9 44.3,14.1 43.9,14.1 C43.8,14.1 43.7,14.1 43.7,14 C43.7,14 43.6,13.9 43.6,13.8 L43.7,12 L43.7,6.7 C43.5,7 43.4,7.2 43.3,7.3 L42.8,8 L42.6,8.2 C42.5,8.3 42.5,8.3 42.5,8.3 C42.5,8.3 42.5,8.3 42.5,8.3 C42.5,8.3 42.5,8.3 42.5,8.2 C42.5,8.2 42.5,8.1 42.5,8.1 L42.6,7.8 C42.9,7 43.2,6.3 43.3,5.8 C43.5,5.2 43.6,4.6 43.8,4 C44,3.4 44.1,3 44.1,2.7 L44.3,1.8 L44.4,1.3 C44.4,1.2 44.5,1.1 44.5,1.1 C44.5,1.1 44.6,1.1 44.7,1.2 L45.6,1.8 C45.7,1.8 45.7,1.9 45.7,1.9 C45.7,1.9 45.7,2 45.7,2 C45.7,2 45.7,2.1 45.6,2.1 L45.4,2.3 Z M47.5,3.2 C47,4.3 46.7,5 46.5,5.5 C46.3,6 45.8,6.7 45.1,7.6 L44.9,7.9 C44.8,8 44.8,8 44.8,8 C44.8,8 44.8,8 44.8,8 C44.8,8 44.8,8 44.8,7.9 C44.8,7.8 44.8,7.8 44.8,7.8 L45,7.4 C45.4,6.6 45.7,5.8 45.9,5.1 C46.1,4.4 46.3,3.9 46.4,3.5 C46.5,3.1 46.6,2.8 46.6,2.6 L46.7,2.1 C46.7,2 46.7,1.9 46.7,1.9 C46.7,1.9 46.8,1.9 46.9,2 L47.7,2.5 C47.8,2.6 47.9,2.7 48,2.7 C48,2.7 48,2.8 48,2.8 C48,2.8 48,2.8 48,2.9 C48,2.9 48,3 47.9,3 L47.5,3.2 Z M49.2,7.2 L49.3,7 C49.4,6.9 49.4,6.8 49.4,6.8 C49.4,6.8 49.5,6.8 49.6,6.9 L50.3,7.6 C50.4,7.7 50.5,7.8 50.5,7.9 C50.5,7.9 50.5,7.9 50.5,8 C50.5,8 50.5,8 50.5,8.1 C50.5,8.1 50.4,8.2 50.4,8.2 L50.2,8.4 C50.2,8.7 50.2,9.1 50.2,9.4 C50.2,9.7 50.2,10.2 50.1,10.9 C50.1,11.6 50,12.1 49.9,12.5 C49.8,12.9 49.7,13.2 49.6,13.4 C49.4,13.6 49.2,13.8 48.9,13.9 C48.6,14 48.4,14.1 48.4,14.1 C48.4,14.1 48.4,14.1 48.3,14.1 C48.2,14.1 48.3,14.1 48.3,14 C48.3,14 48.2,13.8 48.2,13.5 C48.1,13.2 47.9,13 47.6,12.8 L47.5,12.8 L47.4,12.8 C47.4,12.8 47.3,12.7 47.3,12.7 C47.3,12.6 47.4,12.6 47.5,12.6 L47.7,12.6 C48,12.7 48.3,12.7 48.5,12.7 C48.7,12.7 48.9,12.6 49,12.4 C49.1,12.2 49.1,11.9 49.2,11.6 C49.2,11.3 49.3,10.8 49.3,10.3 C49.3,9.8 49.3,9.3 49.3,8.8 L49.3,7.9 L49.3,7.7 L48,7.7 C47.9,7.8 47.9,7.9 47.8,8.1 C47.8,8.4 47.7,8.7 47.7,9.1 C47.7,9.4 47.6,9.9 47.5,10.5 C47.4,11.1 47.1,11.7 46.6,12.3 C46.1,12.9 45.7,13.4 45.2,13.7 L44.9,13.9 C44.9,13.9 44.8,13.9 44.8,13.9 C44.8,13.9 44.8,13.9 44.8,13.9 C44.8,13.9 44.8,13.9 44.8,13.9 C44.8,13.9 44.8,13.8 44.8,13.8 C44.8,13.8 44.8,13.8 44.9,13.7 L45.1,13.5 C45.5,13 45.9,12.6 46.1,12.1 C46.3,11.6 46.5,11.2 46.5,10.8 C46.6,10.4 46.7,10 46.7,9.5 C46.8,9.1 46.8,8.7 46.8,8.3 L46.8,7.8 L46.8,7.6 L45.8,7.6 C45.7,7.6 45.7,7.5 45.7,7.4 C45.7,7.3 45.7,7.2 45.8,7.2 L49.2,7.2 Z M49.1,2.4 C49.2,2.7 49.3,3 49.4,3.5 C49.5,4 49.8,4.6 50.3,5.2 C50.8,5.9 51.2,6.3 51.7,6.5 L51.8,6.6 C51.9,6.6 51.9,6.7 51.9,6.7 C51.9,6.8 51.9,6.8 51.8,6.8 L51.7,6.8 C51.6,6.8 51.5,6.9 51.3,7 C51.1,7.1 51,7.3 50.9,7.4 C50.8,7.6 50.7,7.7 50.7,7.7 C50.7,7.7 50.6,7.6 50.5,7.4 C50.5,7.3 50.3,7.1 50.1,6.8 C49.9,6.5 49.6,6 49.5,5.5 C49.3,5 49.2,4.5 49.1,4.2 C49,3.9 49,3.5 48.9,3.1 C48.8,2.7 48.8,2.5 48.8,2.3 L48.7,1.9 C48.7,1.7 48.6,1.6 48.5,1.5 C48.4,1.4 48.4,1.3 48.4,1.2 C48.4,1.1 48.5,1.1 48.7,1.1 L49.4,1.4 C49.5,1.4 49.6,1.5 49.6,1.6 C49.6,1.7 49.6,1.8 49.5,1.9 L49.1,2.4 Z" id="Shape"></path>
                    <path d="M56,11.6 L54.2,11.6 L54.2,13 C54.2,13.1 54.2,13.2 54.1,13.3 C54,13.4 53.9,13.5 53.7,13.5 C53.5,13.5 53.4,13.5 53.4,13.4 C53.4,13.4 53.3,13.3 53.3,13.2 L53.4,11.4 L53.4,5.6 L53.4,3.2 C53.4,3.2 53.4,3.2 53.5,3.2 C53.5,3.2 53.6,3.2 53.7,3.3 L54.3,3.7 L54.6,3.7 C54.6,3.3 54.7,2.9 54.7,2.7 C54.7,2.4 54.8,2.1 54.8,1.8 L54.9,1 L54.9,0.7 C54.9,0.7 54.9,0.7 54.9,0.7 C54.9,0.7 55,0.7 55,0.8 L55.9,1.3 C56,1.3 56,1.4 56,1.4 C56,1.4 56,1.5 56,1.5 C56,1.5 56,1.6 55.8,1.6 L55.6,1.7 C55.5,2 55.4,2.2 55.4,2.3 L55.1,3.1 L54.9,3.7 L55.9,3.7 L56.2,3.2 C56.2,3.1 56.3,3.1 56.3,3.1 C56.3,3.1 56.4,3.1 56.4,3.2 L57.1,3.8 C57.1,3.8 57.2,3.9 57.2,3.9 C57.2,3.9 57.2,3.9 57.2,4 C57.2,4 57.2,4.1 57.1,4.1 L56.9,4.4 L56.9,11.4 L56.9,12.5 C56.9,12.7 56.8,12.8 56.6,12.9 C56.5,13 56.3,13 56.2,13 C56.1,13 56,13 56,12.9 C56,12.8 56,12.8 56,12.6 L56,11.6 L56,11.6 Z M56,7.3 L56,4.2 L54.2,4.2 L54.2,7.3 L56,7.3 Z M56,11.2 L56,7.7 L54.2,7.7 L54.2,11.2 L56,11.2 Z M58.4,4.4 C58.3,4.6 58.2,5 58,5.5 C57.8,6 57.7,6.4 57.6,6.5 L57.4,7 L57.2,7.5 C57.2,7.6 57.1,7.6 57.1,7.6 C57.1,7.6 57.1,7.6 57.1,7.6 C57.1,7.6 57.1,7.6 57.1,7.6 C57.1,7.6 57.1,7.5 57.1,7.4 L57.2,6.9 C57.3,6.5 57.3,6.3 57.4,6.2 C57.4,6.1 57.5,5.8 57.6,5.3 C57.7,4.8 57.8,4.4 57.8,4.2 L58,3 C58.1,2.5 58.1,2.2 58.1,2.1 L58.2,1.3 C58.2,1.1 58.2,1.1 58.2,1.1 C58.2,1.1 58.2,1.1 58.3,1.1 L59.4,1.6 C59.5,1.6 59.5,1.7 59.5,1.7 C59.5,1.8 59.5,1.8 59.4,1.9 L59.2,2.1 C59.1,2.4 59.1,2.5 59,2.7 L58.8,3.5 C58.7,3.7 58.7,3.9 58.6,4.1 L60.9,4.1 L61.1,3.7 C61.2,3.6 61.2,3.5 61.2,3.5 C61.2,3.5 61.3,3.5 61.4,3.6 L62.1,4.2 C62.1,4.2 62.2,4.3 62.2,4.3 C62.2,4.3 62.2,4.4 62.2,4.4 C62.2,4.4 62.2,4.4 62.2,4.5 C62.2,4.5 62.2,4.6 62.1,4.6 L61.9,4.9 C61.9,5.3 61.9,5.5 61.9,5.7 C61.9,5.9 61.9,6 61.9,6.1 C61.9,6.6 61.9,7.3 61.9,8.2 C61.9,9 61.9,9.8 61.8,10.4 C61.8,11.1 61.7,11.7 61.6,12.2 C61.5,12.8 61.4,13.2 61.2,13.5 C61,13.8 60.7,14 60.4,14.1 C60.1,14.2 59.9,14.3 59.7,14.3 C59.7,14.3 59.7,14.3 59.6,14.3 C59.5,14.3 59.6,14.3 59.6,14.2 C59.6,14.1 59.6,14.1 59.6,14 C59.6,13.9 59.5,13.7 59.5,13.5 C59.4,13.3 59.3,13.1 59.1,13 L58.7,12.7 C58.6,12.7 58.6,12.6 58.6,12.6 C58.6,12.5 58.6,12.5 58.7,12.5 L59.2,12.6 C59.4,12.7 59.6,12.7 59.8,12.7 C60.1,12.7 60.3,12.6 60.5,12.4 C60.6,12.2 60.7,11.8 60.8,11.4 C60.8,11 60.9,10.5 60.9,10 C60.9,9.5 60.9,8.9 61,8.2 C61.1,7.5 61,6.8 61,6.2 C61,5.5 61,5.2 61,5.1 L61,4.6 L58.4,4.6 L58.4,4.4 Z M58.1,7.4 L57.9,7.1 C57.9,7.1 57.9,7 57.9,7 C57.9,7 57.9,6.9 58,6.9 C58.1,6.9 58.3,7 58.7,7.2 C59,7.4 59.3,7.7 59.4,8 C59.5,8.3 59.6,8.6 59.6,8.8 C59.6,9.1 59.5,9.3 59.4,9.5 C59.3,9.7 59.1,9.8 59,9.8 C58.8,9.8 58.7,9.7 58.6,9.6 C58.5,9.4 58.5,9.3 58.5,9.1 L58.5,8.8 C58.5,8.1 58.3,7.7 58.1,7.4 Z" id="Shape"></path>
                    <path d="M66.9,5.6 L66.9,5.6 L67.9,6.1 C68,6.1 68,6.2 68,6.2 C68,6.2 68,6.3 68,6.3 C68,6.3 68,6.3 68,6.4 C68,6.4 68,6.5 68,6.5 L67.7,6.8 L67.5,7.5 L70.9,7.5 L71.3,6.8 C71.4,6.7 71.4,6.6 71.5,6.6 C71.5,6.6 71.6,6.7 71.7,6.8 L72.3,7.5 C72.4,7.6 72.4,7.7 72.4,7.7 C72.4,7.8 72.4,7.8 72.3,7.8 L72.1,7.8 L72.1,7.8 L67.4,7.8 L67,9 L69.6,9 L69.9,8.5 C69.9,8.4 70,8.4 70,8.4 C70,8.4 70.1,8.5 70.2,8.6 L70.9,9.3 C70.9,9.3 71,9.4 71,9.4 C71,9.4 71,9.5 71,9.5 C71,9.5 71,9.6 70.9,9.6 L70.6,9.8 C70.1,10.7 69.8,11.1 69.8,11.2 L69.3,11.9 C69.8,12.2 70.3,12.4 70.7,12.6 C71.2,12.8 71.7,12.8 72.2,12.8 L72.4,12.8 C72.5,12.8 72.5,12.8 72.5,12.9 C72.5,13 72.5,13 72.4,13.1 L72.2,13.2 C72.1,13.3 72,13.4 71.9,13.5 C71.8,13.6 71.7,13.8 71.7,14 C71.6,14.2 71.6,14.3 71.6,14.3 C71.6,14.3 71.6,14.3 71.5,14.3 C71.5,14.3 71.3,14.2 71.2,14.2 C71,14.1 70.8,14 70.5,13.9 C70.2,13.8 70,13.6 69.7,13.5 C69.4,13.3 69.1,13.1 68.7,12.6 C68,13.2 67.4,13.6 66.8,13.8 C66.2,14.1 65.7,14.2 65.3,14.3 L65.1,14.3 C65,14.3 65,14.3 65,14.2 C65,14.2 65,14.2 65,14.1 C65,14 65,14.1 65.1,14 L65.3,13.9 C65.6,13.8 66,13.6 66.6,13.2 C67.1,12.9 67.7,12.4 68.4,11.7 C68.2,11.3 68,11 67.9,10.7 C67.8,10.4 67.7,9.9 67.5,9.4 L67.1,9.4 C66.6,10.7 66,11.6 65.4,12.3 C64.8,13 64.4,13.4 64.1,13.6 L63.9,13.7 C63.8,13.7 63.8,13.8 63.8,13.8 C63.8,13.8 63.8,13.8 63.8,13.8 C63.8,13.8 63.8,13.8 63.8,13.8 C63.8,13.8 63.8,13.8 63.8,13.7 C63.8,13.6 63.8,13.6 63.9,13.6 L64.1,13.4 C64.4,13 64.8,12.5 65.2,11.9 C65.6,11.3 65.9,10.6 66.2,9.8 C66.5,9 66.6,8.4 66.8,7.8 L64.4,7.8 C64.3,7.8 64.3,7.7 64.3,7.6 C64.3,7.5 64.3,7.4 64.4,7.4 L66.9,7.4 C66.9,7.3 66.9,7.2 67,7 C67,6.8 67.1,6.5 67.1,6.2 L67.1,5.9 L66.9,5.6 L64.9,5.6 C64.9,5.7 64.9,5.7 64.9,5.7 C64.9,5.7 64.9,5.8 64.9,5.8 L64.9,5.9 C64.9,6.1 64.8,6.4 64.7,6.6 C64.6,6.8 64.4,7 64.2,7 C64,7 63.8,6.9 63.8,6.7 C63.8,6.5 63.7,6.4 63.7,6.3 C63.7,6.2 63.7,6.1 63.8,6.1 C63.8,6 63.9,6 63.9,5.9 C63.9,5.9 64,5.7 64.2,5.6 C64.4,5.4 64.4,5.2 64.5,4.8 C64.5,4.5 64.5,4.3 64.6,4.3 C64.7,4.3 64.8,4.6 64.9,5.1 L69.6,5.1 C69.7,4.5 69.8,4.1 69.9,3.8 C70,3.5 70,3.2 70.1,3 L70.2,2.6 C70.2,2.5 70.2,2.4 70.3,2.4 C70.4,2.4 70.4,2.4 70.4,2.5 L71.3,3.1 C71.3,3.1 71.4,3.2 71.4,3.2 C71.4,3.2 71.4,3.3 71.4,3.3 C71.4,3.3 71.4,3.4 71.3,3.4 L71,3.5 C70.9,3.6 70.6,4.2 70.1,5.1 L71.3,5.1 L71.6,4.6 C71.6,4.5 71.7,4.5 71.7,4.5 C71.7,4.5 71.8,4.6 71.9,4.7 L72.5,5.4 C72.6,5.6 72.7,5.7 72.7,5.8 C72.7,5.9 72.7,6 72.6,6 C72.5,6 72.4,6 72.1,6 C71.9,6 71.7,6.1 71.5,6.2 C71.3,6.3 71.2,6.4 71.1,6.6 L71,6.8 C71,6.9 70.9,6.9 70.9,6.9 C70.9,6.9 70.8,6.9 70.8,6.8 C70.8,6.7 70.8,6.7 70.8,6.7 L70.9,6.4 L71,6 L71.1,5.8 L71.2,5.6 L66.9,5.6 L66.9,5.6 Z M70.1,1.1 L70.4,0.9 L70.5,0.8 C70.5,0.8 70.5,0.8 70.5,0.8 C70.5,0.8 70.6,0.9 70.7,1.1 L71.3,1.8 C71.4,2 71.5,2.1 71.5,2.1 C71.5,2.2 71.4,2.2 71.4,2.2 L71.2,2.2 C70.9,2.2 70.7,2.3 70.5,2.3 L68.9,2.5 C68,2.6 67.2,2.7 66.4,2.8 C65.6,2.8 65.2,2.9 65,2.9 C64.8,2.9 64.7,2.9 64.7,2.9 L64.5,2.9 C64.5,2.9 64.4,2.9 64.4,2.9 C64.4,2.9 64.4,2.9 64.4,2.8 C64.4,2.8 64.4,2.7 64.5,2.7 L64.7,2.7 L65.1,2.6 L66.2,2.4 C66.4,2.4 66.9,2.2 67.6,2 C68.3,1.8 68.9,1.6 69.3,1.4 C69.7,1.2 70,1.2 70.1,1.1 Z M65.4,3.2 C65.4,3.1 65.4,3.1 65.4,3.2 C65.5,3.1 65.8,3.3 66.1,3.5 C66.4,3.7 66.6,4 66.6,4.5 C66.6,4.6 66.6,4.8 66.5,4.9 C66.4,5.1 66.3,5.1 66.1,5.1 C65.9,5.1 65.8,5 65.8,4.9 C65.8,4.8 65.7,4.7 65.7,4.6 L65.7,4.1 C65.7,3.8 65.6,3.5 65.4,3.3 L65.4,3.2 C65.4,3.2 65.4,3.2 65.4,3.2 Z M67.5,3.1 C67.5,3.1 67.5,3 67.5,3.1 C67.6,3 67.6,3 67.7,3 C67.8,3 67.8,3 67.9,3.1 C68,3.2 68.2,3.3 68.4,3.5 C68.6,3.7 68.8,4 68.8,4.4 C68.8,4.6 68.7,4.8 68.6,4.9 C68.5,5 68.4,5.1 68.3,5.1 C68.2,5.1 68.1,5.1 68,4.9 C67.9,4.8 67.9,4.7 67.9,4.5 L67.9,3.9 C67.9,3.8 67.9,3.7 67.8,3.6 C67.7,3.5 67.7,3.4 67.6,3.3 L67.5,3.1 C67.5,3.2 67.5,3.1 67.5,3.1 Z M69.6,9.4 L67.6,9.4 C67.8,9.8 67.9,10.1 68,10.4 C68.1,10.7 68.3,10.9 68.6,11.2 C69.1,10.5 69.4,9.9 69.6,9.4 Z" id="Shape"></path>
                    <path d="M75.9,10.6 C76.1,10.6 76.3,10.7 76.5,10.8 C76.7,10.9 76.9,11.2 77,11.5 C77.1,11.8 77.2,12.1 77.2,12.4 C77.2,12.7 77.1,13 77,13.3 C76.9,13.6 76.7,13.8 76.5,14 C76.3,14.2 76.1,14.2 75.9,14.2 C75.7,14.2 75.5,14.1 75.3,14 C75.1,13.8 74.9,13.6 74.8,13.3 C74.7,13 74.6,12.7 74.6,12.4 C74.6,12.1 74.7,11.8 74.8,11.5 C74.9,11.2 75.1,11 75.3,10.8 C75.4,10.7 75.7,10.6 75.9,10.6 Z M75.9,11.3 C75.8,11.3 75.6,11.3 75.5,11.4 C75.4,11.5 75.3,11.6 75.2,11.8 C75.1,12 75.1,12.2 75.1,12.4 C75.1,12.6 75.1,12.8 75.2,13 C75.3,13.2 75.4,13.3 75.5,13.4 C75.6,13.5 75.8,13.5 75.9,13.5 C76,13.5 76.2,13.5 76.3,13.4 C76.4,13.3 76.5,13.2 76.6,13 C76.7,12.8 76.7,12.6 76.7,12.4 C76.7,12.2 76.7,12 76.6,11.8 C76.5,11.6 76.4,11.5 76.3,11.4 C76.1,11.4 76,11.3 75.9,11.3 Z" id="Shape"></path>
                </g>
            </g>
            <rect id="Rectangle-Copy-13_3_" x="110" y="79.2" width="30.3" height="1"></rect>
            <g id="Group" transform="translate(38.000000, 27.000000)">
                <path d="M10,14.2 L10.1,14.3 L12.8,15.8 C13,15.9 13.1,16 13.2,16.1 C13.3,16.2 13.3,16.3 13.3,16.3 C13.3,16.3 13.3,16.4 13.2,16.5 C13.1,16.6 13.1,16.6 13.1,16.7 L12.2,17.5 L11.8,19.4 L21.4,19.4 L22.5,17.6 C22.7,17.2 22.9,17.1 22.9,17.1 C22.9,17.1 23.2,17.3 23.6,17.8 L25.1,19.6 C25.4,19.9 25.5,20.1 25.5,20.3 C25.5,20.5 25.4,20.6 25.2,20.6 L24.7,20.6 L24.7,20.6 L11.5,20.6 L10.5,24.1 L17.7,24.1 L18.5,22.7 C18.6,22.5 18.7,22.4 18.7,22.4 C18.7,22.4 18.9,22.5 19.3,22.9 L21.2,24.8 C21.3,24.9 21.4,25 21.4,25.1 C21.4,25.2 21.4,25.2 21.4,25.3 C21.4,25.4 21.3,25.5 21.1,25.6 L20.4,26.1 C19,28.5 18.2,29.8 18.1,30 L16.8,31.9 C18.2,32.7 19.5,33.4 20.8,33.9 C22.1,34.4 23.5,34.6 25,34.5 L25.6,34.5 C25.8,34.5 25.8,34.6 25.8,34.8 C25.8,35 25.7,35.1 25.6,35.2 L25.1,35.5 C24.7,35.7 24.4,36 24.1,36.4 C23.8,36.8 23.6,37.3 23.4,37.8 C23.2,38.3 23.1,38.6 23,38.6 C23,38.6 22.9,38.6 22.8,38.5 C22.7,38.4 22.4,38.3 21.8,38.1 C21.3,37.9 20.7,37.6 20,37.3 C19.3,37 18.6,36.5 17.9,36.1 C17.2,35.7 16.2,34.9 15,33.7 C13.2,35.2 11.4,36.4 9.6,37.2 C7.9,38 6.4,38.4 5.3,38.6 L4.6,38.7 C4.4,38.7 4.3,38.6 4.3,38.4 C4.3,38.4 4.3,38.3 4.4,38.2 C4.4,38.1 4.5,38.1 4.5,38 L5,37.8 C5.8,37.5 7,36.9 8.5,36 C10,35.1 11.7,33.6 13.4,31.7 C12.8,30.7 12.4,29.7 12,28.8 C11.6,27.8 11.3,26.6 11,25.1 L9.9,25.1 C8.4,28.7 6.9,31.3 5.2,33.2 C3.5,35.1 2.3,36.2 1.5,36.9 L1.2,37 C1,37.1 0.9,37.2 0.8,37.2 C0.7,37.2 0.7,37.2 0.7,37.1 C0.7,37.1 0.7,37 0.7,37 C0.7,37 0.7,36.9 0.7,36.9 C0.7,36.9 0.8,36.7 0.9,36.6 L1.4,36 C2.3,34.9 3.3,33.5 4.5,31.8 C5.7,30 6.6,28 7.3,25.8 C8,23.6 8.5,21.8 8.8,20.3 L2.1,20.3 C1.9,20.3 1.7,20.1 1.7,19.7 C1.7,19.3 1.8,19.1 2.1,19.1 L9,19.1 C9,18.9 9.1,18.5 9.2,18 C9.3,17.5 9.4,16.7 9.5,15.8 L9.6,14.9 L9.7,14.2 L4.2,14.2 C4.2,14.4 4.2,14.5 4.2,14.5 C4.2,14.5 4.2,14.7 4.2,14.8 L4.2,15.2 C4.2,15.8 4,16.5 3.7,17.2 C3.4,17.9 3,18.2 2.4,18.2 C1.8,18.2 1.4,18 1.3,17.5 C1.2,17 1.1,16.6 1.1,16.4 C1.1,16.2 1.1,16 1.3,15.7 C1.4,15.5 1.4,15.4 1.5,15.2 C1.6,15.1 1.9,14.8 2.3,14.3 C2.7,13.8 3,13.1 3,12.2 C3,11.3 3.1,10.8 3.2,10.8 C3.4,10.8 3.6,11.6 4,13 L17.3,13 C17.6,11.5 17.9,10.2 18.1,9.3 C18.3,8.4 18.5,7.7 18.6,7.1 L18.8,6.1 C18.8,5.8 18.9,5.7 18.9,5.6 C18.9,5.5 19.1,5.6 19.3,5.8 L21.7,7.4 C21.8,7.5 21.9,7.6 21.9,7.6 C21.9,7.6 22,7.8 22,7.9 C22,8 21.9,8.1 21.6,8.2 L21,8.6 C20.8,8.9 19.9,10.4 18.4,13.1 L21.9,13.1 L22.6,11.7 C22.7,11.4 22.9,11.3 23,11.3 C23.1,11.3 23.3,11.5 23.7,11.8 L25.4,13.7 C25.8,14.2 26,14.5 26,14.8 C26,15.1 25.9,15.3 25.7,15.4 C25.5,15.5 25.1,15.5 24.4,15.5 C23.7,15.5 23.2,15.7 22.8,15.9 C22.4,16.1 22,16.5 21.8,17.1 L21.5,17.6 C21.4,17.8 21.3,17.9 21.2,17.9 C21.1,17.9 21,17.8 21,17.7 C21,17.6 21,17.4 21,17.3 L21.2,16.5 L21.5,15.2 L21.6,14.6 L21.7,14 L10,14 L10,14.2 Z M18.9,1.7 L19.7,1.1 L20.1,0.8 C20.1,0.8 20.1,0.8 20.1,0.8 C20.1,0.8 20.3,1 20.7,1.5 L22.3,3.6 C22.7,4.1 22.9,4.4 22.8,4.5 C22.8,4.7 22.7,4.7 22.4,4.7 L21.8,4.8 C21,4.9 20.3,5 19.8,5.1 L15.4,5.8 C12.9,6.2 10.6,6.4 8.5,6.6 C6.4,6.7 5.1,6.8 4.6,6.9 C4.1,7 3.9,7 3.7,7 L3.3,7 C3.2,7 3.1,7 3,6.9 C2.9,6.8 2.9,6.8 2.9,6.6 C2.9,6.4 3,6.4 3.2,6.3 L3.8,6.2 L5,5.9 L8,5.3 C8.6,5.2 10,4.8 12,4.2 C14,3.6 15.7,3.1 16.8,2.6 C17.9,2.1 18.7,1.8 18.9,1.7 Z M5.8,7.4 C5.8,7.3 5.9,7.3 5.9,7.3 C6.1,7.3 6.8,7.6 7.8,8.2 C8.8,8.8 9.3,9.7 9.3,10.9 C9.3,11.2 9.2,11.6 9,12.1 C8.8,12.6 8.5,12.8 8,12.8 C7.5,12.8 7.2,12.6 7.1,12.3 C7,11.9 6.9,11.6 6.8,11.4 L6.7,10.1 C6.6,9.2 6.4,8.5 5.9,7.9 L5.7,7.6 C5.8,7.5 5.8,7.5 5.8,7.4 Z M11.6,7.2 C11.6,7.1 11.7,7 11.9,7 C12,7 12,7 12.1,7.1 C12.2,7.2 12.4,7.2 12.6,7.3 C12.9,7.4 13.4,7.8 14,8.3 C14.7,8.9 15,9.7 15,10.8 C15,11.4 14.8,11.9 14.6,12.2 C14.3,12.5 14,12.7 13.7,12.7 C13.3,12.7 13.1,12.6 12.8,12.3 C12.6,12.1 12.5,11.7 12.4,11.3 L12.4,9.6 C12.4,9.3 12.3,9 12.2,8.7 C12.1,8.4 12,8.1 11.8,7.7 L11.6,7.4 C11.6,7.4 11.6,7.3 11.6,7.2 Z M17.5,24.9 L11.9,24.9 C12.3,26 12.7,26.9 13.1,27.6 C13.5,28.3 14.1,29.1 14.8,29.9 C16,27.8 16.9,26.1 17.5,24.9 Z" id="Shape"></path>
                <path d="M33.8,37.6 L34.3,36.9 C34.4,36.8 34.5,36.6 34.8,36.1 C35.1,35.6 35.2,35.3 35.3,35.1 C35.4,34.9 35.5,34.5 35.7,33.9 C35.9,33.3 35.9,32.9 35.8,32.6 C35.7,32.3 35.6,32.2 35.5,32.1 C35.5,32.1 35.3,32.1 35.1,32.2 C34.9,32.3 34.7,32.3 34.6,32.3 C34.1,32.3 33.7,32 33.4,31.6 C33.1,31.1 32.9,30.5 32.9,29.8 C32.9,29.1 33.1,28.4 33.5,27.9 C33.9,27.4 34.4,27.1 34.9,27.1 C35.6,27.1 36.2,27.5 36.6,28.2 C37,28.9 37.2,29.6 37.3,30.4 C37.4,31.2 37.3,31.9 37.3,32.6 C37.1,33.6 36.9,34.5 36.5,35.3 C36.1,36.1 35.8,36.7 35.5,37 C35.2,37.4 34.9,37.7 34.6,38 C34.3,38.3 34,38.5 33.9,38.4 C33.7,38.3 33.6,38.2 33.6,38.1 C33.7,38 33.7,37.8 33.8,37.6 Z" id="Path"></path>
                <path d="M80.5,16.3 L81.8,14 C82,13.7 82.1,13.5 82.1,13.5 C82.1,13.5 82.2,13.6 82.4,13.8 L84.9,16.4 C85.2,16.7 85.3,16.9 85.2,17.1 C85.2,17.3 85.1,17.4 84.9,17.4 L73.9,17.4 L76.4,18.5 C76.6,18.6 76.8,18.7 76.8,18.9 C76.8,19 76.8,19.1 76.7,19.2 L75.9,20.1 L75.9,32.2 C75.9,32.5 76,32.8 76.1,33.1 C76.2,33.4 77.4,33.6 79.6,33.5 C80.8,33.5 81.6,33.3 82.1,32.8 C82.6,32.4 83.1,31.4 83.6,29.8 L84.5,26.9 C84.5,26.8 84.6,26.7 84.7,26.7 C84.8,26.7 84.8,26.7 84.9,26.8 C84.9,26.9 84.9,26.9 84.9,27 C84.9,27.1 84.9,27.1 84.9,27.1 L84.5,29.3 C84.5,29.5 84.4,29.9 84.4,30.4 C84.4,30.9 84.4,31.3 84.4,31.4 C84.4,31.9 84.5,32.3 84.7,32.7 L85,33.3 C85.2,33.7 85.2,34 85.2,34.2 C85.2,34.4 85.1,34.6 85,34.9 C84.9,35.2 84.6,35.6 84,36 C83.4,36.5 81.6,36.7 78.6,36.7 C76.4,36.7 75,36.5 74.4,35.9 C73.8,35.4 73.5,34.9 73.4,34.5 C73.3,34.1 73.2,33.5 73.2,32.9 L73.2,21.1 L73.1,17.4 L72,17.4 C71.8,18.7 71.6,20 71.3,21.5 C71,23 70.3,24.9 69.3,27.1 C68.2,29.4 67,31.1 65.7,32.3 C64.3,33.5 63.2,34.4 62.3,35.2 C61.4,36 60.7,36.4 60.2,36.6 L59.5,36.9 C59.3,37 59.2,37 59.2,36.8 C59.2,36.6 59.2,36.5 59.3,36.4 L60.3,35.6 C61.2,34.9 62.1,34 63,32.8 C63.9,31.6 64.7,30.6 65.1,29.8 C65.6,29 66.1,28 66.5,26.9 C67,25.8 67.4,24.8 67.7,23.8 C68,22.8 68.3,21.9 68.5,20.9 C68.7,19.9 68.9,18.7 69.2,17.2 L59.1,17.2 C58.9,17.2 58.7,17 58.7,16.6 C58.7,16.2 58.8,16 59.1,16 L69.4,16 C69.5,15.5 69.5,14.8 69.6,14.1 C69.7,13.4 69.7,12.5 69.8,11.5 C69.8,10.5 69.9,9.4 69.9,8.4 C69.9,7.4 69.9,6.8 69.9,6.8 L69.9,6.3 L60.4,6.3 C60.2,6.3 60.1,6.1 60.1,5.7 C60.1,5.3 60.2,5.1 60.4,5.1 L78.4,5.1 L79.7,2.8 C79.9,2.5 80,2.3 80.1,2.3 C80.2,2.3 80.2,2.4 80.3,2.5 L83,5.3 C83.2,5.5 83.3,5.7 83.2,5.9 C83.1,6.1 83,6.2 82.6,6.2 L72,6.2 L73.3,6.9 C73.5,7 73.6,7.1 73.6,7.2 C73.6,7.3 73.5,7.5 73.3,7.7 L73,8.2 C72.9,9.1 72.8,9.9 72.8,10.5 C72.8,11.1 72.7,12.1 72.6,13.4 C72.5,14.7 72.4,15.6 72.3,16.1 L80.5,16.1 L80.5,16.3 Z" id="Path"></path>
                <path d="M97.6,22.6 L93.4,22.6 C93.3,23.5 93.2,24.4 93.2,25 C93.1,25.7 93,26.7 92.7,28 C92.4,29.3 92,30.9 91.2,32.7 C90.4,34.5 89.7,35.9 89.1,37 L88.6,37.9 C88.4,38.2 88.3,38.3 88.3,38.2 C88.3,38.1 88.2,38.1 88.2,38 C88.2,37.9 88.2,37.8 88.2,37.7 L88.6,36.7 L89.1,35.4 C89.3,34.8 89.6,33.9 89.8,32.6 C90.1,31.3 90.3,30.1 90.5,29 C90.7,27.9 90.8,26.7 90.8,25.4 C90.9,24.1 90.9,22.7 90.9,21.1 C90.9,19.5 90.9,16.9 90.9,13.1 C90.9,11.7 90.9,10.6 90.9,9.8 C90.9,9 90.9,8.3 90.9,7.7 L90.8,5.5 L90.7,4.3 C90.7,4.1 90.8,4.1 90.8,4.1 C90.8,4.1 91,4.2 91.3,4.4 L93.6,6.1 C95.5,4.7 96.9,3.5 97.8,2.5 L98.2,2 L98.5,1.7 C98.6,1.7 98.7,1.9 99,2.2 L100.9,4.5 C100.9,4.6 101,4.7 101,4.8 C101,4.9 101.1,5 101.1,5 C101.1,5.2 101,5.3 100.7,5.3 L100,5.4 C99.8,5.4 99.4,5.5 98.8,5.7 C98.3,5.9 97.5,6.1 96.4,6.4 C95.3,6.7 94.3,7 93.4,7.2 L93.4,13.1 L97.4,13.1 L97.9,11.9 C98,11.6 98.1,11.4 98.2,11.4 C98.3,11.4 98.4,11.5 98.6,11.7 L100.6,13.5 C100.8,13.7 100.9,13.8 100.9,13.8 C100.9,13.9 100.9,13.9 100.9,14 C100.9,14.1 100.8,14.2 100.6,14.4 L100,15.1 L100,21 L100.1,23.7 C99.9,24.5 99.3,24.9 98.4,24.9 C97.8,24.9 97.5,24.6 97.5,23.9 L97.5,22.6 L97.6,22.6 Z M97.6,21.4 L97.6,13.9 L93.4,13.9 L93.4,21.4 L97.6,21.4 Z M110.9,15.2 L112,13.2 C112.2,12.9 112.3,12.7 112.4,12.7 C112.5,12.7 112.7,12.9 113,13.3 L114.9,15.4 C115,15.6 115.2,15.8 115.2,16 C115.2,16.2 115.1,16.3 114.6,16.3 L113.8,16.3 L110.8,16.3 L110.2,17 L110.2,33 L110.3,37.7 C110.2,38 110.2,38.2 110.1,38.3 C110,38.5 109.8,38.6 109.5,38.7 C109.2,38.8 108.9,38.9 108.5,38.9 C108.2,38.9 108,38.8 107.8,38.7 C107.7,38.6 107.5,38.4 107.5,38.1 L107.7,33 L107.7,16.3 L104.5,16.3 C104.5,16.5 104.5,16.7 104.5,16.9 C104.5,17.1 104.5,17.7 104.4,18.7 C104.3,19.7 104.3,20.8 104.2,21.8 C104.1,22.8 104,23.9 103.8,25 C103.6,26.1 103.1,27.8 102.4,30.1 C101.6,32.4 99.4,34.9 95.7,37.8 L95.2,38.2 C95.1,38.3 95.1,38.3 95,38.3 C94.9,38.3 94.9,38.3 94.9,38.2 C94.9,38.2 94.9,38.1 94.9,38 C94.9,37.9 95,37.8 95.1,37.7 L95.5,37.3 C95.7,37 96.2,36.5 96.8,35.8 C97.4,35 98.3,33.9 99.3,32.4 C100.3,30.9 101,29.1 101.3,26.8 C101.6,24.6 101.8,22.8 101.9,21.5 C102,20.2 102,18 102,15 C102,12.9 102,11.4 102,10.5 C102,9.6 101.9,8.6 101.9,7.6 L101.8,5.7 L101.7,4.6 C101.7,4.5 101.8,4.4 101.9,4.4 C102,4.4 102.1,4.5 102.4,4.6 L104.5,6.1 C105.3,5.6 106.3,5 107.3,4.1 C108.4,3.3 109.1,2.6 109.5,2.2 L110.1,1.6 C110.4,1.3 110.5,1.2 110.6,1.2 C110.6,1.2 110.8,1.3 111,1.6 L113.2,4.2 C113.3,4.3 113.4,4.4 113.4,4.5 C113.4,4.6 113.5,4.7 113.5,4.7 C113.5,4.8 113.3,4.9 113,5 L111.9,5.2 C111.6,5.3 110.5,5.5 108.5,6 L105.6,6.7 L104.7,6.9 L104.7,15.3 L110.9,15.3 L110.9,15.2 Z" id="Shape"></path>
                <path d="M134.6,5.9 L135.8,6.6 C136,6.7 136.1,6.8 136.1,6.9 C136.1,7 136.2,7.1 136.2,7.2 C136.2,7.3 136.1,7.4 135.9,7.6 L135.2,8.1 C134.1,9.9 132.9,11.8 131.7,13.6 L133.2,14.6 C133.3,14.7 133.4,14.8 133.5,14.9 C133.6,15 133.6,15.1 133.6,15.2 C133.6,15.3 133.5,15.4 133.3,15.6 L132.5,16.4 L132.5,34 L132.6,37.9 C132.6,38.1 132.5,38.3 132.4,38.5 C132.3,38.7 132.1,38.8 131.7,38.9 C131.3,39 130.9,39.1 130.5,39.1 C130.1,39.1 129.9,39.1 129.8,38.9 C129.7,38.7 129.7,38.5 129.7,38.2 L129.8,33.2 L129.8,16.3 C127.6,19.3 125.7,21.6 124.2,23.1 C122.7,24.6 121.1,26 119.5,27.4 L118.4,28.3 C118.3,28.4 118.2,28.4 118.1,28.4 C118,28.4 118,28.4 118,28.3 C118,28.3 118,28.2 118,28.1 C118,28 118.1,27.8 118.2,27.6 L119.1,26.6 C121.5,23.8 124,20.4 126.4,16.4 C128.8,12.4 130.7,8.9 132,5.9 L118.6,5.9 C118.4,5.9 118.2,5.7 118.2,5.3 C118.2,4.9 118.3,4.7 118.6,4.7 L139,4.7 L140.3,2.3 C140.6,1.8 140.7,1.6 140.8,1.6 C140.9,1.6 141,1.7 141.3,2 L144,5.1 C144.1,5.2 144.1,5.3 144.2,5.4 C144.3,5.5 144.3,5.6 144.3,5.6 C144.3,5.8 144.2,5.8 143.9,5.8 L134.6,5.8 L134.6,5.9 Z M134.3,16.9 C134.3,16.7 134.4,16.7 134.5,16.6 C134.6,16.6 134.8,16.6 134.9,16.7 L135.9,17.1 C136.4,17.3 137,17.7 137.8,18.1 C138.6,18.5 139.4,19.2 140.3,19.9 C141.2,20.6 142,21.7 142.9,23.1 C143.8,24.5 144.1,25.9 143.9,27.3 C143.7,28.7 143.2,29.4 142.2,29.4 C141.9,29.4 141.6,29.2 141.3,28.9 C141,28.6 140.4,27.2 139.7,24.8 C139,22.4 138,20.7 136.9,19.5 C135.8,18.3 135.1,17.6 134.8,17.4 C134.3,17.2 134.2,17.1 134.3,16.9 Z" id="Shape"></path>
                <path d="M156.5,6.4 L158.2,6.4 L159.2,4.6 C159.3,4.4 159.4,4.3 159.5,4.4 C159.6,4.4 159.7,4.5 159.8,4.6 L161.6,6.8 C161.7,7 161.8,7.2 161.8,7.3 C161.8,7.4 161.7,7.5 161.6,7.5 L160.3,7.5 L156.5,7.5 L156.5,11.8 L162.7,11.8 C162.7,11.3 162.7,11 162.7,10.7 C162.7,10.4 162.7,9.7 162.6,8.4 C162.5,7.1 162.5,5.7 162.5,4.3 L162.5,2.1 L162.4,0.6 C162.4,0.5 162.5,0.5 162.5,0.5 L163,0.7 L165.7,1.6 C165.9,1.7 165.9,1.7 166,1.9 C166.1,2.1 165.9,2.2 165.7,2.4 L165,3.2 C165,4 165,4.7 164.9,5.4 C164.9,6 164.9,6.9 164.9,8 C164.9,9.1 164.9,10.4 165,11.9 L169,11.9 L170.1,9.7 C170.2,9.5 170.3,9.4 170.3,9.3 C170.3,9.2 170.4,9.3 170.6,9.5 L172.8,12.1 C172.9,12.2 172.9,12.3 173,12.5 C173.1,12.7 173.1,12.8 173.1,12.9 C173.1,13 173,13.1 172.8,13.1 L169.7,13.1 L165,13.1 C165,13.3 165,13.9 165.1,14.9 C165.2,15.9 165.2,17.1 165.4,18.6 C165.6,20.1 165.8,22 166.4,24.5 C166.6,24 166.8,23.6 166.9,23.2 C167,22.8 167.3,22 167.7,20.7 C168.1,19.4 168.3,18.5 168.4,18 L168.7,16.4 L168.8,15.7 C168.8,15.7 168.9,15.7 168.9,15.7 C168.9,15.7 169,15.8 169.2,15.9 L171.9,17.9 C172,18 172,18.1 172,18.1 C172,18.1 172,18.2 172,18.3 C172,18.4 171.9,18.4 171.9,18.4 L171,19.1 C170.7,20 170.3,21 169.9,22.2 C169.5,23.4 168.6,25.3 167.2,28.1 C167.8,29.6 168.4,30.8 169.1,31.7 L170.1,32.9 C170.3,33.2 170.5,33.4 170.7,33.4 C170.8,33.4 171,33.2 171.3,32.7 C171.8,31.7 172.4,30.7 172.8,29.6 L173.2,28.5 C173.3,28.3 173.3,28.3 173.4,28.3 C173.5,28.3 173.5,28.4 173.5,28.4 C173.5,28.5 173.5,28.5 173.5,28.6 C173.5,28.7 173.5,28.7 173.5,28.8 L173.1,30.4 C172.9,31.2 172.7,31.9 172.6,32.6 C172.5,33.3 172.4,33.9 172.4,34.3 C172.4,34.6 172.4,35 172.5,35.3 L172.7,36.3 C172.7,36.6 172.8,36.9 172.8,37.1 C172.8,37.8 172.4,38.1 171.8,38.2 C171,38.3 170.2,37.7 169.2,36.6 C168.3,35.5 167.6,34.6 167.1,33.8 C166.7,33.1 166.1,31.9 165.5,30.4 C163.7,32.7 161.8,34.6 159.7,36.1 L158.5,37 C158.3,37.2 158.1,37.2 158.1,37.1 C158.1,37 158,36.9 158,36.8 C158,36.7 158.1,36.6 158.2,36.5 L159.1,35.6 C160.5,34.2 161.7,32.8 162.7,31.4 C163.7,30 164.4,28.9 164.8,28 C164.6,27.1 164.4,26.3 164.2,25.4 C164,24.5 163.8,23 163.5,20.8 C163.2,18.6 163,16.6 162.9,14.9 L162.8,13.6 L162.8,13.1 L153.3,13.1 L155.4,14.3 C155.5,14.4 155.5,14.5 155.6,14.6 C155.7,14.7 155.6,14.9 155.4,14.9 L154.8,15.4 C154.6,15.9 154.4,16.3 154.3,16.6 C154.2,16.9 154.2,17.1 154.1,17.2 L158.8,17.2 L159.5,15.8 C159.7,15.3 159.9,15.1 160,15.1 C160.1,15.1 160.1,15.2 160.1,15.2 L162,17.5 C162.2,17.7 162.3,17.9 162.2,18.1 C162.2,18.3 162.1,18.3 161.9,18.3 L159.7,18.3 L153.8,18.3 C153.6,18.9 153.3,19.6 153,20.4 C152.7,21.2 152.3,22.3 151.7,23.8 L154.5,23.8 L154.5,22.3 L154.4,19.6 C154.4,19.5 154.5,19.4 154.5,19.4 L154.8,19.5 L157.3,20.3 C157.5,20.4 157.6,20.5 157.6,20.6 C157.6,20.7 157.5,20.9 157.3,21.1 L156.8,21.7 L156.8,23.7 L158.7,23.7 L159.6,22.1 C159.8,21.8 159.9,21.7 159.9,21.6 C159.9,21.5 160,21.6 160.2,21.8 L162,24.2 C162.1,24.4 162.2,24.5 162.2,24.7 C162.2,24.8 162.1,24.9 162,24.9 L160.5,24.9 L156.8,24.9 L156.8,29 C158.1,28.7 159.1,28.5 159.9,28.3 C160.7,28.1 161.2,28 161.6,27.9 L162.3,27.7 C162.5,27.7 162.6,27.7 162.6,28 C162.6,28.3 162.5,28.4 162.4,28.4 L161.7,28.7 L158.8,29.9 L156.7,30.7 L156.7,34.4 L156.8,37.6 C156.7,38.4 156.1,38.8 155,38.8 C154.7,38.8 154.5,38.7 154.5,38.6 C154.4,38.4 154.3,38.3 154.3,38.1 L154.4,34.4 L154.4,31.7 C153.2,32.1 152,32.5 150.9,33 L149.5,33.6 L148.9,33.9 C148.8,33.9 148.8,33.9 148.7,33.9 L148.6,33.3 L147.7,30.4 L147.6,30.2 C147.6,30.1 147.7,30.1 147.8,30.1 L148.2,30.1 L149.8,30 C150.4,30 152,29.8 154.5,29.3 L154.5,24.8 L151.4,24.8 L151,25.4 L150.9,25.6 C150.9,25.6 150.9,25.7 150.9,25.7 C150.9,25.7 150.8,25.6 150.5,25.3 L148.9,23.8 C148.8,23.7 148.8,23.7 148.8,23.6 C148.8,23.5 148.8,23.5 148.9,23.4 L149.4,23.1 C149.6,23 149.8,22.6 150.1,22 C150.4,21.4 150.9,20.1 151.6,18.1 L147.6,18.1 C147.4,18.1 147.3,17.9 147.3,17.5 C147.3,17.1 147.4,16.9 147.6,16.9 L151.9,16.9 C152.1,16.2 152.3,15.5 152.5,14.7 C152.7,13.9 152.8,13.5 152.8,13.2 L152.8,12.7 L147.4,12.7 C147.2,12.7 147,12.5 147,12.1 C147,11.7 147.1,11.5 147.4,11.5 L154.3,11.5 L154.3,7.2 L149,7.2 C148.8,7.2 148.6,7 148.6,6.6 C148.6,6.2 148.7,6 149,6 L154.3,6 L154.3,3.5 L154,1 C154,0.9 154.1,0.9 154.2,0.9 L154.5,1 L157.1,1.8 C157.3,1.9 157.3,2 157.3,2.1 C157.3,2.2 157.2,2.3 157.1,2.5 L156.5,3.2 L156.5,6.4 Z M166.3,4.4 C166.2,4.3 166.1,4.1 166.2,4 C166.3,3.9 166.6,3.8 167.5,3.8 C167.7,3.8 167.9,3.9 168.3,3.9 C168.7,4 169,4.1 169.3,4.2 C169.6,4.3 170,4.6 170.3,5.1 C170.6,5.6 170.8,6.1 170.8,6.7 C170.8,7.3 170.7,7.8 170.4,8.3 C170.1,8.8 169.8,9 169.4,8.9 C168.8,8.9 168.5,8.7 168.3,8.3 C168.1,7.9 168,7.5 167.9,7 C167.8,6.5 167.7,6.1 167.5,5.7 C167.3,5.3 167.1,5 166.8,4.8 C166.5,4.7 166.4,4.5 166.3,4.4 Z" id="Shape"></path>
            </g>
            <g id="Group" transform="translate(65.000000, 0.000000)">
                <g transform="translate(0.000000, 1.000000)" id="Shape">
                    <path d="M4.1,6.2 C3.5,7 2.9,7.6 2.4,8.2 C1.9,8.8 1.4,9.1 1.1,9.4 C0.8,9.7 0.6,9.8 0.6,9.8 L0.3,10 C0.3,10 0.2,10.1 0.2,10.1 C0.2,10.1 0.1,10.1 0.1,10.1 C0.1,10.1 0.1,10.1 0.1,10 C0.1,9.9 0.1,9.9 0.2,9.9 L0.4,9.6 C0.9,9 1.5,8.2 2,7.4 C2.5,6.6 3.1,5.5 3.8,4.3 C4.5,3.1 4.9,2.1 5.1,1.3 L5.3,0.9 L5.4,0.5 C5.4,0.5 5.4,0.5 5.4,0.5 L5.7,0.7 L7.2,1.6 C7.3,1.6 7.3,1.7 7.3,1.7 C7.3,1.7 7.3,1.8 7.3,1.8 C7.3,1.8 7.3,1.9 7.2,2 L6.7,2.3 L6.6,2.4 C7.1,3.6 7.6,4.5 8.1,5.1 C8.6,5.7 9.1,6.1 9.4,6.4 C9.7,6.7 10.2,7 10.6,7.3 C11,7.6 11.5,7.8 11.9,7.9 L12.3,8 L12.6,8.1 C13,8 13,8 13.1,8 C13.2,8 13.1,8.1 13.1,8.1 C13.1,8.2 13.1,8.2 13,8.2 L12.8,8.3 C12.6,8.4 12.4,8.5 12.3,8.6 C12.2,8.7 12.1,8.8 11.9,9 C11.7,9.2 11.7,9.3 11.6,9.5 C11.5,9.7 11.5,9.7 11.5,9.8 C11.5,9.9 11.5,9.9 11.4,9.8 C11.3,9.8 10.9,9.5 10.1,8.9 C9.3,8.3 8.8,7.7 8.3,7 C7.8,6.3 7.5,5.6 7.2,4.9 C6.9,4.2 6.7,3.6 6.6,3.1 L6.4,2.4 C5.5,4.2 4.7,5.4 4.1,6.2 Z M7.2,9.1 C7.2,9.1 7.1,9.2 7.1,9.3 C7.1,9.4 7,9.5 6.9,9.5 L6.9,12.4 L8.2,12.4 L8.7,11.5 C8.8,11.3 8.9,11.2 8.9,11.2 C8.9,11.2 9,11.3 9.2,11.5 L10.1,12.5 C10.2,12.6 10.3,12.7 10.2,12.8 C10.1,12.9 10.1,12.9 10,12.9 L6.8,12.9 L6.8,16.5 L9.8,16.5 L10.5,15.5 L10.6,15.3 C10.7,15.2 10.7,15.1 10.7,15.1 C10.7,15.1 10.8,15.2 11,15.4 L12,16.5 C12.1,16.6 12.1,16.7 12.1,16.7 C12.1,16.7 12.1,16.8 12.1,16.8 C12.1,16.8 12,16.9 11.9,16.9 L11.2,16.9 L0.7,16.9 C0.6,16.9 0.5,16.8 0.5,16.6 C0.5,16.4 0.6,16.3 0.7,16.3 L5.5,16.3 L5.5,13 L2.6,13 L2.5,13 C2.5,13 2.4,13 2.4,12.9 C2.4,12.8 2.4,12.8 2.4,12.6 C2.4,12.4 2.4,12.4 2.5,12.4 L5.5,12.4 L5.5,9.1 L2.5,9.1 C2.4,9.1 2.3,9 2.3,8.8 C2.3,8.6 2.3,8.5 2.5,8.5 L7.4,8.5 L7.9,7.7 C8,7.5 8.1,7.4 8.1,7.4 C8.1,7.4 8.2,7.5 8.4,7.6 L9.3,8.6 C9.4,8.7 9.4,8.8 9.4,8.9 C9.4,9 9.3,9 9.2,9 L8.3,9 L7.2,9 L7.2,9.1 Z"></path>
                    <path d="M19.2,3 L19.5,2.3 C19.6,2 19.7,1.9 19.7,1.9 C19.7,1.9 19.8,2 20,2.2 L20.6,3 C20.7,3.2 20.8,3.3 20.8,3.3 C20.8,3.3 20.8,3.4 20.7,3.4 C20.6,3.4 20.6,3.4 20.6,3.4 L19.4,3.4 L19.4,3.4 L18.7,3.4 L19.8,4.2 C19.9,4.3 20,4.3 20,4.4 C20,4.5 20,4.5 20,4.5 C20,4.5 19.9,4.6 19.8,4.6 L19.6,5 C19.2,6 18.9,6.7 18.6,7.2 L19.4,7.2 L19.8,6.5 C19.9,6.3 20,6.2 20,6.2 C20,6.2 20,6.2 20.1,6.2 C20.2,6.2 20.2,6.3 20.3,6.4 L20.9,7.2 C21,7.4 21.1,7.5 21.1,7.6 C21.1,7.6 21.1,7.7 21,7.7 C20.9,7.7 20.9,7.8 20.8,7.8 L18.6,7.8 C18.6,7.8 18.5,7.9 18.5,7.9 C18.5,7.9 18.4,8 18.3,8.1 L18.3,10.1 L18.9,10.1 L19.3,9.3 C19.4,9.2 19.4,9.1 19.5,9.1 C19.6,9.1 19.6,9.2 19.8,9.4 L20.5,10.3 C20.6,10.4 20.6,10.4 20.6,10.5 C20.6,10.5 20.6,10.6 20.6,10.6 C20.6,10.6 20.5,10.6 20.5,10.6 L18.3,10.6 L18.3,15.8 C18.3,16.1 18.3,16.3 18.2,16.5 C18.1,16.7 18,16.8 17.9,16.9 C17.8,17 17.6,17.1 17.4,17.2 C17.2,17.3 17,17.3 16.9,17.3 C16.9,17.3 16.9,17.3 16.8,17.3 C16.7,17.3 16.8,17.3 16.8,17.2 C16.8,17.1 16.8,17.1 16.8,17 C16.8,16.9 16.8,16.7 16.7,16.5 C16.6,16.3 16.5,16.1 16.3,15.9 L15.9,15.7 C15.8,15.6 15.8,15.6 15.8,15.5 C15.8,15.4 15.9,15.4 16,15.4 L16.4,15.5 C16.5,15.5 16.6,15.5 16.7,15.5 C16.8,15.5 16.8,15.5 16.9,15.5 L17.1,15.5 C17.3,15.5 17.4,15.5 17.4,15.3 L17.4,10.7 L14.9,10.7 L14.8,10.7 C14.7,10.6 14.7,10.5 14.7,10.4 C14.7,10.3 14.8,10.2 14.9,10.2 L17.5,10.2 L17.5,7.7 L14.8,7.7 L14.7,7.7 C14.7,7.7 14.6,7.7 14.6,7.6 C14.6,7.5 14.6,7.5 14.6,7.4 C14.6,7.3 14.7,7.2 14.8,7.2 L18.4,7.2 C18.5,6.8 18.6,6.2 18.7,5.5 C18.8,4.8 18.9,4.3 18.9,4.1 L19,3.6 L15,3.6 C14.9,3.6 14.8,3.5 14.8,3.3 C14.8,3.1 14.8,3 15,3 L19.2,3 Z M16.5,12.3 C16.3,12.9 16.1,13.2 16,13.4 C15.9,13.6 15.7,14 15.4,14.6 C15.1,15.2 14.9,15.6 14.8,15.7 L14.5,16.1 C14.4,16.2 14.4,16.2 14.4,16.2 C14.4,16.2 14.4,16.2 14.4,16.2 C14.4,16.2 14.4,16.2 14.4,16.1 C14.4,16 14.4,16 14.4,15.9 L14.6,15.5 C14.6,15.4 14.7,15.2 14.8,14.9 C14.9,14.6 15,14.3 15,14.2 C15,14.1 15.1,13.8 15.2,13.3 C15.3,12.8 15.4,12.4 15.4,12.2 L15.5,11.6 L15.5,11.1 C15.5,11.1 15.5,11.1 15.5,11 L15.7,11.1 L16.7,11.7 C16.8,11.8 16.9,11.8 16.9,11.9 C16.9,11.9 16.9,11.9 16.9,12 C16.9,12.1 16.9,12.1 16.8,12.1 L16.5,12.3 Z M15.8,4.6 L15.7,4.3 C15.7,4.3 15.7,4.3 15.7,4.2 C15.7,4.1 15.7,4.1 15.7,4.1 C15.7,4 15.7,4 15.8,4 C15.9,4 16.1,4.2 16.5,4.6 C16.9,5 17.2,5.5 17.1,6.1 C17.1,6.3 17,6.6 16.9,6.8 C16.8,7 16.6,7.1 16.4,7.1 C16.1,7.1 16,7 15.9,6.8 C15.8,6.6 15.9,6.3 15.9,6.1 C15.9,5.9 15.9,5.7 15.9,5.6 C15.9,5.2 15.9,4.8 15.8,4.6 Z M16.5,0.6 L16.3,0.4 C16.3,0.4 16.3,0.3 16.3,0.3 C16.3,0.3 16.3,0.2 16.3,0.2 C16.3,0.2 16.3,0.1 16.4,0.1 C16.4,0.1 16.6,0.1 16.8,0.2 C17,0.3 17.3,0.4 17.6,0.6 C17.9,0.8 18.1,1 18.1,1.4 C18.1,1.8 18.2,1.9 18.2,2 C18.2,2.1 18.2,2.1 18.2,2.2 C18.2,2.4 18.1,2.5 18,2.7 C17.9,2.9 17.7,3 17.5,3 C17.3,3 17.1,2.9 17,2.8 C16.9,2.7 16.9,2.5 16.8,2.3 L16.7,1.7 C16.7,1.5 16.7,1.4 16.6,1.3 C16.5,1.2 16.6,0.8 16.5,0.6 Z M25,6.8 L25.3,6.1 C25.4,5.8 25.5,5.7 25.5,5.7 C25.5,5.7 25.5,5.7 25.6,5.7 C25.7,5.7 25.7,5.8 25.9,6.1 L26.6,7 C26.7,7.1 26.7,7.2 26.7,7.2 C26.7,7.2 26.7,7.3 26.7,7.3 C26.7,7.4 26.7,7.5 26.6,7.5 L25.1,7.5 C25,7.6 25,7.7 25,7.7 C25,7.7 24.9,7.8 24.9,7.8 L24.9,16 L24.9,17.2 C24.8,17.4 24.7,17.6 24.6,17.7 C24.5,17.8 24.3,17.8 24.1,17.8 C23.9,17.8 23.8,17.8 23.8,17.7 C23.8,17.6 23.7,17.5 23.7,17.4 L23.8,15.4 L23.8,7.4 L22.5,7.4 C22.5,8.3 22.5,9 22.4,9.7 C22.3,10.4 22.3,10.9 22.3,11.5 C22.3,12.1 22.1,12.7 21.9,13.4 C21.7,14.1 21.4,14.8 20.9,15.4 C20.4,16 20.1,16.4 19.9,16.7 C19.7,17 19.4,17.2 19.3,17.3 L19,17.5 C18.9,17.5 18.9,17.6 18.9,17.6 C18.9,17.6 18.8,17.6 18.8,17.6 C18.8,17.6 18.8,17.6 18.8,17.5 C18.8,17.4 18.8,17.5 18.8,17.4 C18.8,17.3 18.8,17.3 18.9,17.3 L19.2,17 C19.8,16.3 20.3,15.5 20.7,14.7 C21.1,13.9 21.3,13 21.4,12.1 C21.5,11.2 21.6,10.4 21.6,9.6 C21.6,8.8 21.6,7.9 21.6,6.8 C21.6,6.1 21.6,5.4 21.6,4.7 C21.6,4 21.6,3.6 21.6,3.6 L21.6,3.1 L21.5,1.7 C21.5,1.7 21.5,1.7 21.5,1.7 C21.5,1.7 21.6,1.8 21.8,1.9 L22.8,2.6 C23.6,2.2 24.2,1.7 24.7,1.3 L25,1 L25.2,0.7 C25.2,0.7 25.3,0.7 25.3,0.7 L25.5,1 L26.3,1.9 C26.4,2.1 26.5,2.2 26.5,2.2 C26.5,2.3 26.5,2.3 26.4,2.3 L26,2.4 L24.2,2.8 L22.7,3 C22.7,3.7 22.7,4.3 22.7,4.6 L22.7,5.7 L22.7,6.8 L25,6.8 Z M18.9,12.1 L18.8,11.9 C18.7,11.8 18.7,11.7 18.7,11.6 C18.7,11.5 18.7,11.5 18.7,11.5 C18.7,11.5 18.7,11.5 18.7,11.5 C18.8,11.5 19,11.6 19.3,11.9 C19.6,12.2 19.9,12.5 20,12.7 C20.1,12.9 20.2,13.3 20.2,13.6 C20.2,13.8 20.1,14 20,14.2 C19.9,14.4 19.7,14.5 19.5,14.5 C19.3,14.5 19.1,14.4 19.1,14.2 C19.1,14 19,13.8 19,13.6 L19,13 C19.1,12.7 19,12.4 18.9,12.1 Z"></path>
                </g>
                <path d="M32.6,1.9 C33.8,1.9 34.7,2.2 35.2,2.9 C35.7,3.5 36,4.4 36,5.3 C36,6.8 35.3,7.8 34,8.4 C35.6,8.8 36.5,10.1 36.5,11.9 C36.5,13.4 35.8,14.8 34.7,15.4 C34.1,15.7 33.5,15.9 32.4,15.9 L28.2,15.9 L28.2,15.4 C29.4,15.3 29.5,15.1 29.5,14 L29.5,3.8 C29.5,2.7 29.3,2.5 28.2,2.4 L28.2,1.9 L32.6,1.9 Z M32,8.2 C33,8.2 33.6,7.9 34,7.3 C34.3,6.8 34.4,6.1 34.4,5.3 C34.4,4.2 34.1,3.3 33.6,2.9 C33.3,2.7 32.8,2.5 32.3,2.5 L31.1,2.5 L31.1,8.2 L32,8.2 Z M31.1,14.1 C31.1,15 31.3,15.2 32.1,15.2 L32.5,15.2 C34,15.2 34.9,14 34.9,11.9 C34.9,10.8 34.6,9.8 34,9.3 C33.7,9 33.1,8.9 32.4,8.9 L31.1,8.9 L31.1,14.1 Z" id="Shape"></path>
                <g transform="translate(37.000000, 0.000000)">
                    <path d="M1.6,7 L3.5,7.5 C3.7,7.2 3.7,7 3.8,6.9 C3.9,6.8 3.9,6.5 4.1,6.2 L4.5,5.2 L4.5,5.1 C4.5,5.1 4.6,5.1 4.6,5.2 L5.8,6.4 C5.9,6.5 5.9,6.5 5.9,6.6 C5.9,6.7 5.8,6.7 5.7,6.8 L5.3,6.9 C4.4,8.3 3.8,9.2 3.6,9.5 L2,11.7 C2.6,11.7 3.1,11.6 3.7,11.6 C4.3,11.6 4.6,11.5 4.8,11.5 L5.5,11.4 C5.6,11.4 5.6,11.4 5.6,11.5 C5.6,11.6 5.6,11.6 5.5,11.7 L4.8,12 C3.3,12.6 2.4,13 1.9,13.2 L1.2,13.5 C1.1,13.6 1,13.6 1,13.6 C1,13.6 1,13.5 0.9,13.4 L0.5,12 C0.5,11.9 0.5,11.9 0.5,11.8 C0.5,11.7 0.5,11.7 0.6,11.7 L0.8,11.6 C0.9,11.6 1.1,11.5 1.3,11.3 C1.5,11.1 1.9,10.4 2.6,9.2 L3.2,8.1 C2.5,8.2 1.9,8.3 1.4,8.5 L1,8.6 L0.9,8.6 C0.9,8.6 0.9,8.6 0.8,8.5 L0.5,7.1 C0.5,7 0.5,7 0.5,7 C0.5,7 0.5,6.9 0.6,6.9 L0.8,6.8 C1.1,6.7 1.4,6.1 1.8,5.2 C2.2,4.3 2.5,3.3 2.8,2.4 L3,1.8 L3.1,1.6 C3.1,1.6 3.1,1.6 3.1,1.6 L3.2,1.7 L4.5,2.7 C4.6,2.8 4.6,2.8 4.6,2.9 C4.6,3 4.6,3 4.5,3 L4,2.8 C3.2,4.3 2.4,5.6 1.6,7 Z M1.4,15.6 C3.2,15 4.3,14.5 4.9,14.3 L5.4,14.1 C5.4,14.1 5.5,14.1 5.5,14.1 C5.5,14.1 5.6,14.2 5.5,14.2 C5.4,14.2 5.5,14.3 5.4,14.4 L5,14.8 C3.3,16.2 2.3,17 2,17.2 L1.4,17.7 C1.3,17.8 1.2,17.8 1.2,17.8 C1.2,17.8 1.2,17.7 1.2,17.7 L0.8,16.2 L0.7,15.9 C0.7,15.9 0.7,15.8 0.7,15.8 L0.8,15.8 L1.4,15.6 Z M5.3,3.5 C5.2,3.5 5.1,3.4 5.1,3.2 C5.1,3 5.1,2.9 5.3,2.9 L9.9,2.9 L10.3,2.2 C10.3,2.1 10.4,2.1 10.4,2.1 C10.4,2.1 10.5,2.1 10.5,2.2 L11.5,3.2 C11.5,3.2 11.6,3.3 11.6,3.3 C11.6,3.3 11.6,3.4 11.6,3.4 C11.6,3.4 11.6,3.5 11.5,3.5 L11.1,3.8 C10.8,4.9 10.6,5.6 10.5,6.2 C10.4,6.8 10.2,7.3 10,7.9 L11.1,7.9 L11.4,7.4 C11.4,7.3 11.5,7.3 11.5,7.3 C11.5,7.3 11.6,7.3 11.7,7.4 L12.7,8.4 C12.7,8.5 12.8,8.5 12.8,8.5 C12.8,8.5 12.8,8.5 12.8,8.5 C12.8,8.5 12.8,8.5 12.8,8.5 C12.8,8.5 12.8,8.5 12.8,8.6 L12.5,8.9 C11.9,11.3 11.4,12.7 11.1,13.4 L10.4,14.9 C10.6,15.2 10.9,15.5 11.1,15.8 C11.3,16.1 11.7,16.3 12,16.5 C12.3,16.7 12.6,16.8 12.8,16.9 L13.2,17 C13.3,17 13.3,17.1 13.3,17.1 C13.3,17.1 13.3,17.2 13.2,17.3 L12.8,17.5 C12.4,17.7 12.1,17.9 12,18.1 L11.7,18.5 C11.6,18.6 11.6,18.6 11.6,18.6 C11.6,18.6 11.6,18.6 11.5,18.5 L11.3,18.3 C10.7,17.7 10.2,16.9 9.6,16 C9.3,16.3 8.9,16.7 8.3,17.2 C7.8,17.7 6.9,18.1 5.8,18.5 L5.3,18.7 C5.3,18.7 5.2,18.7 5.2,18.7 C5.2,18.7 5.2,18.7 5.2,18.7 C5.2,18.7 5.2,18.6 5.2,18.6 C5.2,18.6 5.2,18.5 5.3,18.5 L5.7,18.3 C6.8,17.6 7.9,16.5 9,15 C8.7,14.3 8.5,13.6 8.3,12.8 C8.1,12 7.9,11.2 7.8,10.3 L7.6,8.5 C7.5,9.7 7.5,10.9 7.4,11.9 C7.3,12.9 7.1,14 6.7,15 C6.3,16 5.8,16.9 5.2,17.5 C4.6,18.1 4.2,18.5 4,18.7 L3.6,19 C3.5,19.1 3.5,19.1 3.4,19 C3.3,18.9 3.4,18.9 3.4,18.9 C3.4,18.9 3.4,18.8 3.5,18.8 L3.9,18.4 C4.2,18 4.6,17.5 5,16.9 C5.4,16.3 5.8,15.3 6,13.9 C6.2,12.5 6.4,11.3 6.5,10.1 C6.6,8.9 6.6,7.7 6.6,6.4 C6.6,5.1 6.6,4.5 6.6,4.4 L6.6,3.5 L5.3,3.5 L5.3,3.5 Z M9.9,3.5 L7.9,3.5 C7.9,3.6 7.8,3.6 7.8,3.7 C7.8,3.8 7.7,3.8 7.6,3.9 C7.6,4.5 7.6,5 7.6,5.3 C7.6,5.6 7.6,6.2 7.6,6.9 C7.6,7.6 7.7,8.7 8,9.9 C8.3,11.1 8.6,12.2 9,13.1 L9.4,14 C9.5,13.7 9.7,13.4 9.8,13 C9.9,12.6 10.1,12.1 10.3,11.3 C10.5,10.5 10.6,10 10.7,9.5 C10.8,9 10.8,8.7 10.9,8.6 L9.7,8.6 L9.5,9 C9.4,9.1 9.4,9.2 9.4,9.2 C9.4,9.2 9.4,9.2 9.3,9.2 L8.5,8.2 C8.5,8.2 8.5,8.2 8.5,8.1 C8.5,8 8.5,8.1 8.5,8 C8.5,7.9 8.5,7.9 8.6,7.9 L8.8,7.7 C8.9,7.7 8.9,7.6 8.9,7.5 C8.9,7.4 9,7.3 9,7.1 L9.1,6.6 L9.9,3.5 Z" id="Shape"></path>
                    <path d="M16.9,8.9 L14.8,8.9 C14.7,8.9 14.6,8.8 14.6,8.6 C14.6,8.4 14.6,8.3 14.8,8.3 L16.8,8.3 L17.1,7.8 L17.2,7.6 C17.2,7.6 17.3,7.6 17.3,7.6 C17.3,7.6 17.4,7.7 17.6,7.8 L18.2,8.3 C18.4,8.5 18.5,8.6 18.5,8.6 C18.5,8.6 18.5,8.7 18.5,8.7 C18.5,8.7 18.4,8.8 18.3,9 L18,9.5 L18,15.4 C18.4,15.8 18.8,16 19.2,16.2 C19.6,16.4 20.1,16.5 20.6,16.6 C21.1,16.7 21.8,16.7 22.8,16.7 C24.5,16.7 25.8,16.6 26.8,16.3 L27.3,16.1 C27.4,16.1 27.5,16.1 27.5,16.1 C27.5,16.1 27.5,16.2 27.4,16.4 L27.1,16.7 C27,16.8 26.9,16.9 26.9,17.1 C26.9,17.2 26.8,17.4 26.8,17.5 C26.8,17.6 26.8,17.7 26.7,17.9 C26.7,18.1 26.6,18.2 26.6,18.3 C26.6,18.4 26.1,18.4 25.2,18.4 C25.1,18.4 24.9,18.4 24.6,18.4 C24.3,18.4 23.9,18.4 23.5,18.4 C23.1,18.4 22.5,18.4 21.7,18.3 C20.9,18.2 20.3,18.1 19.8,17.9 C19.3,17.7 18.9,17.4 18.6,17.1 L17.8,16.3 C17.5,16.1 17.3,16 17.1,16 C16.9,16 16.6,16.1 16.3,16.4 C16,16.7 15.8,17 15.7,17.2 L15.4,17.8 C15.3,17.9 15.3,18 15.3,17.9 C15.3,17.8 15.2,17.8 15.2,17.7 L14.8,16.3 L14.7,16.1 C14.7,16.1 14.8,16 14.9,16 L15.3,15.8 C15.8,15.6 16.3,15.4 16.8,15.3 L16.8,8.9 L16.9,8.9 Z M15.9,1.9 C15.8,1.8 15.8,1.7 15.8,1.7 C15.8,1.7 15.9,1.6 15.9,1.6 C16.5,1.8 17.1,2 17.5,2.5 C17.9,3 18.1,3.4 18.1,4.1 C18.1,4.3 18,4.6 17.9,4.8 C17.8,5 17.6,5.1 17.3,5.1 C17.1,5.1 17,5 16.9,4.9 C16.8,4.8 16.7,4.6 16.7,4.5 C16.7,4.4 16.6,4.1 16.6,3.7 C16.6,3.3 16.5,3 16.4,2.8 C16.3,2.6 16.1,2.2 15.9,1.9 Z M22,7.8 L22.8,8.3 C22.9,8.4 23,8.5 23,8.5 C23,8.5 23,8.6 23,8.6 C23,8.6 22.9,8.7 22.8,8.8 L22.6,9 C22.3,9.5 22,10 21.7,10.6 C21.4,11.2 20.8,12 20,13.1 C21.6,13.1 23.2,13 24.8,12.8 C24.5,11.9 24.1,11.2 23.8,10.7 L23.5,10.2 C23.5,10.1 23.4,10.1 23.4,10 C23.4,9.9 23.4,9.9 23.5,9.9 C23.6,9.9 23.8,10.1 24.3,10.4 C24.8,10.7 25.2,11.2 25.6,11.6 C26,12 26.2,12.4 26.3,12.8 C26.4,13.2 26.5,13.5 26.5,13.7 C26.5,13.9 26.4,14.2 26.3,14.5 C26.2,14.8 26,15 25.7,15 C25.5,15 25.4,14.9 25.2,14.8 C25,14.7 25,14.4 25,14.2 L24.9,13.6 L24.8,13.1 L23.7,13.4 C22.5,13.8 21.6,14 21.2,14.2 L19.6,14.8 C19.5,14.8 19.5,14.8 19.4,14.6 L18.9,13.2 C18.8,13 18.8,12.9 18.8,12.9 C18.8,12.9 18.8,12.9 18.9,12.8 L19.2,12.6 C19.4,12.5 19.5,12.4 19.7,12.2 C19.9,12 20.1,11.6 20.4,10.9 C20.7,10.2 21,9.6 21.2,9.1 C21.4,8.6 21.6,8.1 21.7,7.6 L18.3,7.6 C18.2,7.6 18.1,7.5 18.1,7.3 C18.1,7.1 18.1,7 18.3,7 L25.3,7 L25.7,6.3 C25.9,6 26,5.9 26,5.9 C26.1,5.9 26.2,6 26.4,6.2 L27,6.9 C27.2,7.1 27.3,7.3 27.3,7.3 C27.3,7.3 27.3,7.4 27.3,7.4 C27.3,7.4 27.3,7.5 27.3,7.5 C27.3,7.5 27.2,7.5 27.2,7.5 L26.1,7.5 L22,7.5 L22,7.8 Z M24,3.2 L24.5,2.4 C24.6,2.2 24.7,2.1 24.7,2.1 C24.7,2.1 24.8,2.2 25.1,2.4 L25.9,3.2 C26.1,3.4 26.2,3.5 26.2,3.6 C26.2,3.7 26.2,3.7 26.1,3.7 L24.8,3.7 L18.9,3.7 C18.8,3.7 18.7,3.6 18.7,3.4 C18.7,3.2 18.7,3.1 18.9,3.1 L24,3.1 L24,3.2 Z" id="Shape"></path>
                    <path d="M31.3,8.6 L28.7,8.6 C28.6,8.6 28.6,8.5 28.6,8.4 C28.6,8.3 28.6,8.2 28.7,8.2 L33.8,8.2 L34.4,7.2 C34.5,7 34.6,7 34.6,7 C34.6,7 34.7,7.1 34.8,7.2 L35.6,8.2 C35.7,8.3 35.7,8.4 35.7,8.4 C35.7,8.5 35.7,8.5 35.7,8.5 C35.7,8.5 35.7,8.6 35.6,8.6 C35.6,8.6 35.5,8.7 35.5,8.7 L31.9,8.7 L32.7,9.1 C32.8,9.2 32.9,9.3 32.9,9.4 C32.9,9.5 32.8,9.6 32.7,9.6 L32.4,9.7 C32,10.6 31.7,11.3 31.4,11.9 C31.1,12.5 30.7,13.3 30.2,14.1 C31.3,14 32.4,13.9 33.6,13.7 C33.6,13.5 33.5,13.3 33.5,13.2 C33.5,13.1 33.4,12.8 33.3,12.5 C33.2,12.2 33,11.9 32.9,11.8 L32.6,11.2 C32.6,11.2 32.6,11.1 32.6,11.1 C32.6,11.1 32.6,11 32.6,11 C32.6,11 32.6,10.9 32.7,10.9 C32.8,10.9 33,11 33.4,11.3 C33.7,11.5 34,11.8 34.3,12.1 C34.6,12.4 34.8,12.7 34.9,13 C35.1,13.3 35.2,13.5 35.2,13.8 C35.2,14.1 35.3,14.3 35.3,14.6 C35.3,14.8 35.3,15.1 35.2,15.3 C35,15.7 34.8,15.9 34.6,15.9 C34.4,15.9 34.2,15.8 34.1,15.6 C34,15.4 33.9,15.2 33.9,14.9 L33.8,14.3 C32.4,15 31.3,15.5 30.5,15.9 L30,16.2 L29.7,16.4 C29.7,16.4 29.6,16.4 29.6,16.4 C29.6,16.4 29.5,16.3 29.5,16.1 L29.1,15 C29.1,14.9 29,14.8 29,14.8 C29,14.8 29,14.7 29,14.7 C29,14.7 29,14.6 29.1,14.6 L29.3,14.4 C29.4,14.3 29.6,14.1 29.8,13.7 C30,13.3 30.3,12.6 30.6,11.5 C30.9,10.4 31.2,9.3 31.3,8.6 Z M33.4,4.1 L33.9,3.2 C33.9,3 34,3 34,3 C34,3 34.1,3.1 34.2,3.2 L35,4.1 C35.1,4.2 35.1,4.2 35.1,4.3 C35.1,4.4 35.1,4.4 35.1,4.4 C35.1,4.4 35.1,4.5 35,4.5 C34.9,4.5 35,4.6 35,4.6 L34,4.6 L34,4.6 L29.3,4.6 C29.2,4.6 29.1,4.5 29.1,4.3 C29.1,4.1 29.1,4 29.3,4 L33.4,4 L33.4,4.1 Z M34.5,6.2 L34.5,6.2 L36.6,6.1 C36.6,5.5 36.6,5 36.6,4.6 C36.6,4.1 36.6,3.7 36.6,3.3 L36.6,2.2 L36.6,1.3 C36.6,1.3 36.7,1.3 36.7,1.3 C36.7,1.3 36.8,1.3 37,1.3 L38.3,1.6 C38.4,1.6 38.4,1.6 38.5,1.7 C38.6,1.8 38.6,1.8 38.6,1.8 C38.6,1.8 38.6,1.8 38.6,1.9 C38.6,1.9 38.6,1.9 38.6,2 L38.2,2 L37.8,2.5 C37.8,3.4 37.8,4 37.8,4.2 L37.8,5.9 L39.4,5.8 L39.7,5.1 C39.8,5 39.8,4.9 39.9,4.9 C39.9,4.9 40,4.9 40.1,5 L41.1,6 C41.1,6 41.1,6.1 41.2,6.1 C41.2,6.2 41.3,6.2 41.3,6.2 C41.3,6.2 41.3,6.2 41.3,6.3 C41.3,6.3 41.3,6.4 41.3,6.4 C41.3,6.4 41.3,6.5 41.2,6.6 L40.7,7.1 C40.7,8 40.7,8.8 40.7,9.3 C40.7,9.8 40.7,10.8 40.6,12.2 C40.6,13.5 40.5,14.5 40.4,15.3 C40.3,16 40.2,16.6 40.1,17.1 C39.9,17.6 39.8,17.9 39.6,18.1 C39.4,18.3 39.2,18.5 39,18.6 C38.8,18.7 38.6,18.8 38.6,18.8 C38.6,18.8 38.5,18.8 38.5,18.8 C38.5,18.8 38.5,18.7 38.4,18.7 L38.3,18.2 C38.2,17.8 37.9,17.5 37.6,17.3 L37.1,17 C37.1,17 37,16.9 37,16.9 C37,16.9 37,16.8 37,16.8 C37,16.7 37.1,16.7 37.2,16.7 L37.8,16.7 C38.2,16.7 38.6,16.7 38.7,16.5 C38.9,16.4 39,16.1 39.1,15.7 C39.2,15.3 39.3,14.5 39.3,13.4 L39.4,10.7 C39.4,10.3 39.4,9.6 39.4,8.7 C39.4,7.8 39.4,7.3 39.4,7.3 L39.4,6.4 L37.7,6.5 C37.7,6.6 37.7,6.7 37.7,6.7 L37.7,7.7 C37.6,10.1 37.5,11.8 37.2,12.9 C36.9,14 36.6,14.8 36.3,15.4 C36,16 35.5,16.6 35.1,17.1 C34.6,17.6 34.2,18.1 33.7,18.4 L33.3,18.7 C33.2,18.8 33.2,18.8 33.1,18.8 C33,18.8 33,18.8 33,18.8 C33,18.8 33,18.7 33,18.7 C33,18.6 33,18.6 33.1,18.5 L33.6,18 C34.7,16.8 35.3,15.7 35.6,14.9 C35.9,14.1 36.1,13.2 36.2,12.4 C36.3,11.6 36.4,10.8 36.5,10 C36.6,9.2 36.6,8.5 36.6,7.7 L36.6,7.1 L36.6,6.5 L34.5,6.6 C34.4,6.6 34.4,6.5 34.3,6.4 C34.2,6.3 34.4,6.2 34.5,6.2 Z" id="Shape"></path>
                    <path d="M47,5.2 L47.2,4.7 C47.3,4.4 47.4,4.2 47.5,4.2 C47.6,4.2 47.7,4.3 47.8,4.5 L48.4,5.3 C48.5,5.4 48.6,5.5 48.6,5.5 C48.6,5.5 48.6,5.6 48.6,5.6 C48.6,5.6 48.6,5.7 48.6,5.7 C48.6,5.7 48.5,5.8 48.4,5.8 L46,5.8 C46,5.9 45.9,5.9 45.9,6 C45.9,6 45.9,6.1 45.9,6.1 L45.9,6.2 L45.8,6.3 C45.8,7.1 45.7,7.5 45.7,7.7 L45.6,9 L46.5,9 L46.8,8.4 C46.9,8.3 46.9,8.2 46.9,8.2 C46.9,8.2 47,8.2 47.1,8.3 L48,9.1 C48.1,9.2 48.1,9.2 48.1,9.3 C48.1,9.3 48.1,9.4 48.1,9.4 C48.1,9.4 48.1,9.5 48,9.6 L47.7,9.9 C47.7,10.2 47.7,10.5 47.7,10.6 L47.6,12.6 C47.6,13 47.5,13.5 47.5,14.1 C47.5,14.7 47.4,15.3 47.3,15.9 C47.2,16.5 47.1,16.9 46.9,17.3 C46.7,17.7 46.5,18 46.2,18.2 C45.9,18.4 45.7,18.5 45.5,18.5 C45.4,18.5 45.4,18.5 45.4,18.5 C45.4,18.5 45.4,18.4 45.3,18.2 C45.3,18 45.2,17.8 45.1,17.5 C45,17.2 44.8,17 44.5,16.9 L44.3,16.8 C44.3,16.8 44.3,16.8 44.2,16.7 C44.1,16.6 44.2,16.6 44.2,16.6 C44.2,16.6 44.2,16.5 44.2,16.5 C44.2,16.5 44.3,16.5 44.3,16.5 L44.6,16.6 C44.9,16.7 45.2,16.7 45.3,16.7 C45.5,16.7 45.7,16.6 45.8,16.5 C45.9,16.4 46,16.2 46.1,15.9 C46.2,15.6 46.2,15.2 46.3,14.6 C46.4,14 46.4,13.5 46.5,13 C46.5,12.5 46.6,12 46.6,11.4 C46.6,10.8 46.6,10.2 46.7,9.6 L45.6,9.6 C45.6,9.7 45.6,9.8 45.6,9.9 C45.6,10 45.6,10.3 45.5,10.9 C45.4,11.5 45.3,12.1 45.2,12.8 C45.1,13.5 44.9,14.3 44.6,14.9 C44.3,15.5 44.1,16.1 43.9,16.4 C43.7,16.7 43.5,17 43.3,17.4 C43.1,17.7 42.9,17.9 42.9,18 L42.7,18.2 C42.6,18.3 42.6,18.3 42.5,18.3 C42.5,18.3 42.5,18.3 42.5,18.3 C42.5,18.3 42.5,18.3 42.5,18.2 C42.5,18.2 42.5,18.1 42.6,18 L42.7,17.7 L42.9,17.4 C43.1,17 43.3,16.5 43.6,15.8 C43.8,15.1 44,14.4 44.1,13.7 C44.2,13 44.3,12.4 44.3,11.9 C44.3,11.4 44.4,10.8 44.4,10 C44.4,9.2 44.5,8.5 44.5,7.9 L44.5,5.9 L42.4,5.9 L42.3,5.8 C42.2,5.7 42.2,5.6 42.2,5.5 C42.2,5.4 42.3,5.3 42.4,5.3 L47,5.3 L47,5.2 Z M44.5,1.6 C44.5,1.5 44.5,1.5 44.5,1.6 C44.5,1.5 44.5,1.5 44.5,1.6 C44.5,1.5 44.5,1.5 44.6,1.5 C44.6,1.5 44.6,1.5 44.7,1.5 C44.7,1.5 44.9,1.6 45,1.7 C45.2,1.8 45.5,2 45.8,2.4 C46.2,2.8 46.4,3.2 46.4,3.6 C46.4,4.1 46.3,4.4 46.1,4.6 C45.9,4.8 45.7,4.9 45.6,4.9 C45.4,4.9 45.3,4.8 45.1,4.6 C45,4.5 45,4.4 44.9,4.3 C44.8,4.2 45,4.1 44.9,4 L44.9,2.8 C44.9,2.7 44.9,2.6 44.8,2.4 C44.7,2.2 44.7,2 44.6,1.9 L44.5,1.6 L44.5,1.6 Z M53.9,5.8 L53.9,5.8 L49.6,5.8 C49.5,6 49.4,6.1 49.4,6.3 L48.8,7.5 C48.6,7.8 48.5,8.1 48.4,8.2 L48.2,8.5 C48.1,8.6 48.1,8.6 48.1,8.6 C48.1,8.6 48.1,8.6 48.1,8.6 C48.1,8.6 48.1,8.6 48.1,8.5 C48.1,8.5 48.1,8.4 48.1,8.3 L48.2,8 C48.6,6.9 48.9,5.9 49.1,4.9 C49.3,3.9 49.4,3.2 49.5,2.8 C49.6,2.4 49.6,2.1 49.6,1.9 L49.6,1.4 C49.6,1.3 49.6,1.3 49.6,1.3 C49.6,1.3 49.6,1.3 49.6,1.3 C49.6,1.3 49.7,1.3 49.8,1.4 L51,2 C51.1,2.1 51.2,2.1 51.2,2.2 C51.2,2.3 51.2,2.3 51.1,2.4 L50.8,2.6 C50.7,3 50.5,3.2 50.5,3.4 L50.2,4.4 C50.1,4.7 50,5 49.9,5.2 L53.3,5.2 L53.8,4.3 C53.8,4.2 53.9,4.2 53.9,4.1 C53.9,4 54,4 54,4 C54,4 54.1,4.1 54.3,4.3 L55.1,5.3 C55.2,5.4 55.3,5.5 55.3,5.6 C55.3,5.7 55.2,5.7 55.1,5.7 L53.9,5.7 L53.9,5.8 Z M51.2,9 C51.2,9.4 51.3,9.7 51.3,9.9 C51.3,10.1 51.4,10.4 51.5,10.8 C51.6,11.2 51.7,11.5 51.7,11.7 L51.9,12.4 C52.6,11.4 53.1,10.6 53.4,10.1 L53.5,9.8 C53.6,9.7 53.6,9.6 53.6,9.6 C53.6,9.6 53.7,9.7 53.8,9.8 L54.6,10.9 C54.6,11 54.7,11 54.7,11.1 C54.7,11.2 54.7,11.2 54.7,11.2 C54.7,11.2 54.6,11.3 54.5,11.3 L54.1,11.3 C53,12 52.3,12.4 51.9,12.6 C52,12.9 52.2,13.3 52.4,14 C52.6,14.7 53,15.2 53.6,15.8 C54.2,16.4 54.6,16.8 55,17 L55.1,17.1 C55.2,17.2 55.3,17.2 55.2,17.3 C55.2,17.4 55.1,17.4 55.1,17.4 L55,17.4 C54.9,17.4 54.8,17.4 54.6,17.5 C54.4,17.6 54.3,17.7 54.2,17.8 C54.1,17.9 54,18 53.9,18.2 C53.8,18.4 53.7,18.5 53.7,18.5 C53.6,18.5 53.4,18.3 53.1,17.9 C52.8,17.5 52.6,17.2 52.4,16.9 C52.3,16.6 52.1,16.2 51.8,15.7 C50.6,16.9 49.8,17.7 49.5,18.2 L49.2,18.6 C49.1,18.8 49,18.9 49,18.9 C49,18.9 49,18.9 49,18.8 L48.5,17.7 C48.3,17.3 48.2,17.1 48.3,17.1 C48.3,17.1 48.4,17 48.4,16.9 L48.6,16.5 C48.6,16.4 48.7,16.3 48.7,16.1 C48.7,15.9 48.7,15.7 48.7,15.4 L48.7,9.6 L48.6,8.1 C48.6,8 48.7,8 48.7,8 C48.7,8 48.8,8 48.8,8.1 L49.8,8.8 C50.9,8.2 51.7,7.7 52.2,7.2 L52.3,7.1 C52.4,7 52.5,6.9 52.5,6.9 C52.5,6.9 52.5,6.9 52.5,6.9 L52.7,7.1 L53.4,8 C53.5,8.2 53.6,8.3 53.6,8.3 C53.6,8.3 53.6,8.4 53.6,8.4 C53.6,8.4 53.6,8.5 53.6,8.5 C53.6,8.5 53.6,8.5 53.5,8.5 L53.2,8.5 C53.1,8.5 52.9,8.5 52.6,8.6 C52.5,8.7 51.9,8.8 51.2,9 Z M49.9,16.4 C50.5,16.1 51.2,15.8 51.9,15.5 C51.8,15.4 51.8,15.2 51.7,14.9 C51.6,14.6 51.5,14.1 51.3,13.3 C51.1,12.5 51,11.7 51,11 C51,10.3 50.9,9.7 50.9,9.3 L50.9,9 L49.9,9.1 L49.9,16.4 Z" id="Shape"></path>
                    <path d="M60.1,8.6 L60.4,8.8 C60.4,8.8 60.5,8.9 60.5,8.9 C60.5,9 60.5,9 60.4,9 L60.1,9.2 L60.1,16.3 L60.2,18.2 C60.2,18.3 60.2,18.4 60.1,18.5 C60.1,18.6 59.9,18.7 59.7,18.7 C59.5,18.8 59.3,18.8 59.2,18.8 C59.1,18.8 59,18.8 59,18.7 C59,18.7 59,18.6 59,18.5 L59.1,16.2 L59.1,10 C58.3,10.9 57.7,11.5 57.4,11.8 L57,12.2 C56.9,12.3 56.9,12.3 56.9,12.2 C56.9,12.1 56.9,12.1 56.9,12.1 C56.9,12.1 56.9,12.1 56.9,12 C56.9,11.9 56.9,11.9 56.9,11.9 L57.2,11.5 C57.6,11 58.1,10.2 58.8,8.9 C59.5,7.6 60,6.7 60.2,6.1 L60.6,5.2 L60.7,5 C60.7,5 60.7,5 60.7,5 C60.7,5 60.7,5 60.8,5.1 L61.9,6.1 C61.9,6.1 61.9,6.2 62,6.2 C62,6.2 62,6.3 62,6.3 C62,6.3 62,6.4 61.9,6.4 L61.6,6.5 L60.1,8.6 Z M60.9,2.7 C59.2,4.8 58.2,5.9 58,6.1 C57.8,6.3 57.6,6.5 57.4,6.7 L57,7.1 C57,7.1 56.9,7.2 56.9,7.1 C56.9,7.1 56.9,7 56.9,7 C56.9,7 56.9,6.9 56.9,6.9 L57.2,6.5 C57.6,6 58,5.2 58.5,4.3 C59,3.4 59.3,2.7 59.5,2.2 L59.9,1.3 L60,1.1 C60,1.1 60,1.1 60,1.1 L60.2,1.2 L61.3,2.3 C61.4,2.4 61.4,2.4 61.4,2.4 C61.4,2.5 61.4,2.5 61.3,2.5 L60.9,2.7 Z M61.2,8.1 C61.1,8.1 61.1,8.1 61.1,8 C61.1,7.9 61.1,7.9 61.1,7.8 C61.1,7.7 61.2,7.6 61.3,7.6 L67.5,7.6 L68,6.7 C68,6.6 68.1,6.6 68.1,6.6 C68.1,6.6 68.2,6.6 68.3,6.7 L69.3,7.9 C69.3,7.9 69.3,8 69.4,8 C69.4,8.1 69.4,8.1 69.3,8.1 L67.3,8.1 C67.3,8.2 67.3,8.3 67.2,8.4 C67.2,8.5 67.1,8.5 67,8.5 L67,17 C67,17.2 67,17.5 66.9,17.7 C66.8,18 66.6,18.2 66.3,18.3 C66,18.4 65.7,18.6 65.5,18.6 L65.2,18.7 C65.1,18.7 65,18.7 65,18.7 L65,18.6 L64.9,18.2 C64.9,18 64.8,17.9 64.7,17.7 C64.6,17.5 64.5,17.4 64.3,17.3 L63.8,17 C63.7,17 63.7,16.9 63.7,16.8 C63.7,16.7 63.7,16.6 63.9,16.7 L64.4,16.8 C64.8,16.9 65.2,16.9 65.5,16.9 C65.6,16.9 65.7,16.9 65.8,16.8 C65.8,16.7 65.9,16.6 65.9,16.4 L65.9,8.1 L61.2,8.1 L61.2,8.1 Z M66.7,3.1 L67.3,2.1 C67.3,2 67.4,2 67.4,2 C67.4,2 67.4,2 67.5,2.1 L68.5,3.4 C68.5,3.4 68.5,3.5 68.5,3.5 C68.5,3.5 68.5,3.5 68.5,3.6 C68.5,3.6 68.5,3.6 68.5,3.7 C68.5,3.7 68.5,3.7 68.4,3.7 L62.1,3.7 L62.1,3.7 C62,3.7 62,3.7 62,3.6 C62,3.6 61.9,3.5 61.9,3.3 C61.9,3.2 62,3.1 62.1,3.1 L66.7,3.1 L66.7,3.1 Z" id="Shape"></path>
                    <path d="M76.7,13.4 L76.7,10.3 L73.8,10.3 L73.3,11 C73.2,11.1 73.2,11.1 73.2,11 L72.5,9.8 C72.4,9.7 72.4,9.6 72.4,9.6 C72.4,9.6 72.5,9.5 72.7,9.4 C72.8,9.3 72.9,9.2 73,9.1 C73.1,9 73.3,8.5 73.5,7.9 C73.8,7.2 74,6.7 74.1,6.3 C74.2,5.9 74.4,5.5 74.6,4.9 L71.4,4.9 C71.3,4.9 71.2,4.8 71.2,4.6 C71.2,4.4 71.3,4.3 71.4,4.3 L74.8,4.3 C74.8,4.3 74.9,3.9 75.1,3.3 C75.3,2.7 75.5,2.2 75.5,1.8 L75.7,1.2 L75.8,0.8 C75.8,0.8 75.8,0.8 75.8,0.8 L76,1 L77.4,1.9 C77.4,1.9 77.5,2 77.5,2.1 C77.5,2.2 77.5,2.2 77.4,2.3 L76.9,2.6 L76.2,4.5 L80.5,4.5 L81,3.5 C81.1,3.3 81.2,3.2 81.2,3.1 C81.2,3 81.3,3.1 81.4,3.3 L82.5,4.5 C82.6,4.6 82.6,4.7 82.6,4.8 C82.6,4.9 82.6,4.9 82.5,4.9 L82,4.9 L82,4.9 L76,4.9 L74,9.8 L76.7,9.8 L76.7,7.8 L76.7,6.1 C76.7,6.1 76.8,6 76.8,6 L77,6.1 L78.4,6.7 C78.5,6.7 78.5,6.8 78.5,6.9 C78.5,7 78.5,7 78.4,7.1 L78.1,7.3 L78.1,9.8 L80,9.8 L80.5,8.9 C80.6,8.6 80.7,8.5 80.8,8.6 C80.9,8.7 80.9,8.7 81.1,8.9 L82,10 C82.1,10.1 82.1,10.2 82.1,10.3 C82.1,10.4 82.1,10.4 82,10.4 L78.2,10.4 L78.2,13.5 L81.4,13.5 L82,12.5 C82.1,12.4 82.1,12.3 82.2,12.3 C82.2,12.3 82.3,12.3 82.3,12.4 L83.3,13.6 C83.4,13.7 83.4,13.7 83.4,13.8 C83.4,13.9 83.4,13.9 83.4,14 C83.4,14.1 83.4,14.1 83.3,14.1 L81.7,14.1 L81.7,14.1 L78.2,14.1 L78.2,17 L78.2,18.7 C78.2,18.8 78.2,18.9 78.1,18.9 C78,18.9 78,19 77.9,19.1 C77.8,19.2 77.6,19.2 77.4,19.2 C77.2,19.2 77,19.2 77,19.1 C77,19 76.9,18.9 76.9,18.7 L76.9,17.1 L76.9,14.1 L71.1,14.1 L71,14.1 C71,14.1 70.9,14.1 70.9,14.1 L70.9,14 C70.9,13.8 71,13.6 71.1,13.6 L76.7,13.6 L76.7,13.4 Z" id="Path"></path>
                </g>
            </g>
        </g>
    </g>
</svg>