<?xml version="1.0" standalone="no"?><!DOCTYPE svg PUBLIC "-//W3C//DTD SVG 1.1//EN" "http://www.w3.org/Graphics/SVG/1.1/DTD/svg11.dtd"><svg t="1581515673446" class="icon" viewBox="0 0 1024 1024" version="1.1" xmlns="http://www.w3.org/2000/svg" p-id="5335" width="16" height="16" xmlns:xlink="http://www.w3.org/1999/xlink"><defs><style type="text/css"></style></defs><path d="M576.78131 1023.993484c-17.268065 0-33.139791-3.956295-48.406436-11.915431l-131.954085-73.540548a99.140106 99.140106 0 0 1-52.362732-88.109023V431.852439a20.71237 20.71237 0 0 0-8.052224-15.871726L30.998737 171.528208 27.740612 167.571913c-28.578415-28.531871-35.2343-70.840958-19.269486-107.98359A97.743766 97.743766 0 0 1 99.88482 0.011171h823.142146a101.001892 101.001892 0 0 1 92.158408 59.577152c16.430262 36.304827 9.355475 78.939727-17.873146 107.98359l-4.00284 3.956295-309.05648 247.059005a21.224361 21.224361 0 0 0-7.260965 15.871726v488.90501A99.18665 99.18665 0 0 1 576.827855 1023.993484h-0.046545zM83.408014 111.904511l303.703845 242.497629c23.830861 19.129851 37.840801 47.661722 37.840801 78.101924v418.576043c0 7.30751 3.258126 14.61502 9.91401 17.91969l131.954085 72.190753c6.00426 3.258126 13.916851 3.258126 20.572735 0a20.852003 20.852003 0 0 0 9.914011-17.826601V435.203654c0-30.486746 13.31177-58.925528 37.189176-78.195013l304.402015-245.011041a20.479646 20.479646 0 0 0 1.954875-21.224361 19.967655 19.967655 0 0 0-17.91969-11.263805H99.977909a18.804039 18.804039 0 0 0-17.91969 11.263805 20.200378 20.200378 0 0 0 1.30325 21.224361v-0.093089z m902.500775 415.969542h-216.47917a39.097506 39.097506 0 0 1-38.02698-39.702587c0-21.875986 17.081887-39.702587 38.02698-39.702587h216.47917c20.945093 0 38.02698 17.826601 38.026979 39.702587a38.259703 38.259703 0 0 1-38.026979 39.702587z m0 152.666454h-216.47917a39.097506 39.097506 0 0 1-38.02698-39.749132c0-21.92253 17.081887-39.749132 38.02698-39.749131h216.47917c20.945093 0 38.02698 17.91969 38.026979 39.749131a38.259703 38.259703 0 0 1-38.026979 39.749132z m0 152.666454h-216.47917a39.097506 39.097506 0 0 1-38.02698-39.842221c0-21.782896 17.081887-39.702587 38.02698-39.702587h216.47917c20.945093 0 38.02698 17.91969 38.026979 39.702587a38.63206 38.63206 0 0 1-38.026979 39.795676z" fill="#00ADEF" p-id="5336"></path></svg>