<?xml version="1.0" standalone="no"?><!DOCTYPE svg PUBLIC "-//W3C//DTD SVG 1.1//EN" "http://www.w3.org/Graphics/SVG/1.1/DTD/svg11.dtd"><svg t="1583411656092" class="icon" viewBox="0 0 1024 1024" version="1.1" xmlns="http://www.w3.org/2000/svg" p-id="16719" width="30" height="30" xmlns:xlink="http://www.w3.org/1999/xlink"><defs><style type="text/css"></style></defs><path d="M512.7 0C229.9 0 0.7 229.2 0.7 512s229.2 512 512 512 512-229.2 512-512S795.5 0 512.7 0zM530 198.3c42.1-56.1 102.8-65.4 107.5-60.8 3.1 4.7 12.5 60.8-28.1 112.2-46.7 60.8-107.5 65.5-112.2 60.8-4.6-4.6-4.6-60.7 32.8-112.2zM609.5 842c-42.1-28.1-116.9-23.4-140.3-9.4-46.7 23.3-74.8 32.7-116.9 4.7-42.1-28.1-154.3-176.1-146.5-335.1 9.4-159 130.9-196.3 173-196.3 51.4 0 93.5 32.7 140.3 32.7 37.4 0 65.4-28 121.5-32.7 88.8-4.7 149.6 70.1 149.6 70.1v4.7c-14 9.4-84.2 56.1-79.5 130.9 4.7 126.2 98.2 149.6 109.1 148.1-84 186.9-158.9 201-210.3 182.3z" p-id="16720"></path></svg>