<?xml version="1.0" standalone="no"?><!DOCTYPE svg PUBLIC "-//W3C//DTD SVG 1.1//EN" "http://www.w3.org/Graphics/SVG/1.1/DTD/svg11.dtd"><svg t="1581318922018" class="icon" viewBox="0 0 1024 1024" version="1.1" xmlns="http://www.w3.org/2000/svg" p-id="2596" width="60" height="60" xmlns:xlink="http://www.w3.org/1999/xlink"><defs><style type="text/css"></style></defs><path d="M747.2 724.799c-17.6-3.2-33.6 8.001-36.8 25.6-3.201 17.6 8 33.601 25.6 36.801 91.199 17.6 145.599 46.4 145.599 60.8 0 3.2-4.8 8-17.6 17.599-17.6 11.2-43.2 22.401-76.8 32.001-72 20.8-169.6 32.001-273.6 32.001-104.001 0-203.2-11.2-273.6-32.001-33.6-9.6-59.199-20.8-76.8-32.001-14.4-9.599-19.2-14.399-19.2-17.599 0-12.8 49.6-40 132.8-57.6 17.6-3.2 28.8-20.8 24-38.4-1.6-17.6-19.2-28.8-36.8-24-113.601 24-184 62.4-184 120 0 89.601 192 144 432 144s432-54.399 432-144c0-59.2-75.2-99.2-196.8-123.201zM269.777 478.293l216.352 345.701c4.653 9.492 14.517 16.005 25.87 16.005 11.351 0 21.124-6.513 25.869-16.005l216.353-345.701h-0.558c29.684-45.411 46.992-99.475 46.992-157.729 0-159.31-129.254-288.564-288.657-288.564-159.404 0-288.657 129.254-288.657 288.564 0 58.252 17.214 112.318 46.9 157.729h-0.466zM512 188.985c72.676 0 131.58 58.903 131.58 131.58s-58.904 131.579-131.58 131.579c-72.677 0-131.581-58.904-131.581-131.58s58.904-131.579 131.581-131.579z" p-id="2597" fill="#666666"></path></svg>