<?xml version="1.0" standalone="no"?><!DOCTYPE svg PUBLIC "-//W3C//DTD SVG 1.1//EN" "http://www.w3.org/Graphics/SVG/1.1/DTD/svg11.dtd"><svg t="1581319042787" class="icon" viewBox="0 0 1024 1024" version="1.1" xmlns="http://www.w3.org/2000/svg" p-id="6388" width="60" height="60" xmlns:xlink="http://www.w3.org/1999/xlink"><defs><style type="text/css"></style></defs><path d="M519.062069 430.786207c-68.855172 0-124.998621 56.143448-124.998621 124.998621s56.143448 124.998621 124.998621 124.99862 124.998621-56.143448 124.998621-124.99862S587.917241 430.786207 519.062069 430.786207z" p-id="6389" fill="#666666"></path><path d="M519.062069 10.24C240.110345 10.24 14.124138 236.57931 14.124138 515.177931s225.986207 504.937931 504.937931 504.937931 504.937931-225.986207 504.937931-504.937931-225.986207-504.937931-504.937931-504.937931z m-93.21931 902.17931c-167.724138-38.488276-296.253793-179.729655-315.32138-354.162758l6.708966-1.059311s167.724138-9.18069 240.463448 73.445518c50.14069 56.849655 74.151724 159.249655 68.148966 281.776551z m-64.617931-356.634482c0-67.795862 42.725517-125.351724 102.753103-147.950345-135.944828 0.353103-265.533793 1.765517-343.216552 4.237241C165.958621 235.166897 326.267586 104.518621 517.296552 104.518621c191.028966 0 351.337931 130.648276 396.535172 307.553103-78.035862-2.471724-205.85931-3.884138-339.685517-3.884138 60.027586 22.245517 102.753103 80.154483 102.753103 147.950345 0 87.216552-70.973793 157.837241-157.837241 157.837241-87.216552-0.353103-157.837241-70.973793-157.837241-158.190344z m251.762758 355.575172c-6.002759-122.526897 18.008276-224.573793 68.148966-281.423448 72.73931-82.273103 240.110345-73.092414 240.110345-73.092414l2.824827 0.353103c-18.361379 173.726897-145.125517 314.615172-311.084138 354.162759z" p-id="6390" fill="#666666"></path><path d="M504.937931 420.546207c-68.855172 0-124.998621 56.143448-124.998621 124.998621s56.143448 124.998621 124.998621 124.99862 124.998621-56.143448 124.998621-124.99862-56.143448-124.998621-124.998621-124.998621z" p-id="6391" fill="#666666"></path><path d="M504.937931 0C225.986207 0 0 225.986207 0 504.937931s225.986207 504.937931 504.937931 504.937931 504.937931-225.986207 504.937931-504.937931S783.889655 0 504.937931 0z m-93.21931 902.17931c-167.724138-38.488276-296.253793-179.729655-315.32138-354.162758l6.708966-1.059311s167.724138-9.18069 240.463448 73.445518c50.14069 56.849655 74.151724 158.896552 68.148966 281.776551z m-64.617931-356.634482c0-67.795862 42.725517-125.351724 102.753103-147.950345-135.944828 0.353103-265.533793 1.765517-343.216552 4.237241C151.834483 224.926897 312.143448 93.925517 503.172414 93.925517c191.028966 0 351.337931 130.648276 396.535172 307.553104-78.035862-2.471724-205.85931-3.884138-339.685517-3.884138 60.027586 22.245517 102.753103 80.154483 102.753103 147.950345 0 87.216552-70.973793 157.837241-157.837241 157.837241-87.216552 0-157.837241-70.973793-157.837241-157.837241z m251.762758 355.575172c-6.002759-122.526897 18.008276-224.573793 68.148966-281.423448 72.73931-82.273103 240.110345-73.092414 240.110345-73.092414l2.824827 0.353103c-18.361379 173.373793-145.125517 314.262069-311.084138 354.162759z" p-id="6392" fill="#666666"></path></svg>