<?xml version="1.0" standalone="no"?><!DOCTYPE svg PUBLIC "-//W3C//DTD SVG 1.1//EN" "http://www.w3.org/Graphics/SVG/1.1/DTD/svg11.dtd"><svg t="1581319002982" class="icon" viewBox="0 0 1241 1024" version="1.1" xmlns="http://www.w3.org/2000/svg" p-id="5464" width="72.71484375" height="60" xmlns:xlink="http://www.w3.org/1999/xlink"><defs><style type="text/css"></style></defs><path d="M1239.34689 459.248485c-14.336-43.845818-43.008-77.948121-100.32097-73.076364-9.526303 0-23.893333-14.584242-28.64097-29.230545-28.672-73.107394-52.534303-146.183758-81.175272-219.291152-14.336-48.717576-47.786667-77.948121-90.763637-87.691636-62.060606-14.646303-124.183273-24.358788-181.496242-39.005091-90.732606-14.584242-167.160242-14.584242-267.450182 0-33.419636 4.871758-66.839273 9.774545-105.068606 14.646303-90.732606 19.48703-162.381576 58.461091-191.022546 155.927273-14.336 58.461091-38.229333 116.953212-62.091636 175.414303-4.778667 9.743515-19.114667 29.230545-23.893333 29.230545-62.060606-9.743515-90.732606 29.230545-105.068606 82.850909-4.778667 9.743515 0 24.358788 0 29.230546 23.893333 4.871758 47.786667 14.615273 66.870303 19.48703 0 92.594424-4.778667 185.157818-4.778667 277.752242 0 48.717576-4.778667 102.337939 0 151.055516 0 24.358788 9.557333 58.461091 23.893333 68.235636 9.557333 14.584242 171.907879 9.743515 205.358546 0 14.336-4.871758 19.114667-77.979152 33.419636-121.82497h601.770667c14.336 38.974061-14.30497 92.563394 33.450667 121.82497 14.30497 9.743515 191.022545 9.743515 195.801212-4.871758 9.557333-4.902788 19.114667-39.005091 19.114666-58.492121V595.719758c0-24.389818-4.778667-53.620364-9.557333-77.979152 23.893333-4.871758 47.786667-14.615273 71.64897-19.48703 0-9.743515 4.778667-24.358788 0-38.974061z m-864.442182 214.419394c-4.778667 14.615273-23.893333 24.358788-38.229333 29.230545-23.893333 4.871758-47.755636 4.871758-66.870303 4.871758-33.419636-4.871758-66.839273-4.871758-95.511273-9.743515-42.97697-9.743515-52.534303-38.974061-38.198303-97.435152 9.557333-39.005091 38.198303-39.005091 62.060606-29.261576 52.565333 19.518061 105.099636 39.005091 152.855273 63.363879 14.336 4.871758 28.64097 29.230545 23.893333 38.974061z m-157.63394-268.008727c28.672-87.691636 57.31297-165.701818 85.95394-243.64994 4.809697-14.584242 28.672-29.230545 47.786667-34.102303 38.198303-4.871758 81.175273-14.584242 124.183272-14.584242 128.930909 0 257.861818 4.840727 386.823758 9.712485 52.534303 0 85.953939 29.230545 105.099636 82.850909a8689.105455 8689.105455 0 0 0 62.060606 199.773091c-272.228848 58.492121-539.67903 58.492121-811.907879 0z m864.442182 292.367515c-33.419636 9.743515-66.839273 9.743515-95.511272 14.615272-33.419636-4.871758-57.31297 0-85.95394-9.743515-33.419636-4.871758-42.97697-43.845818-14.336-58.461091 62.091636-29.230545 124.183273-53.589333 186.274909-73.107394 23.893333-9.743515 42.97697 14.646303 42.97697 43.876849s9.557333 68.204606-33.450667 82.850909z" p-id="5465" fill="#666666"></path></svg>