<?xml version="1.0" standalone="no"?><!DOCTYPE svg PUBLIC "-//W3C//DTD SVG 1.1//EN" "http://www.w3.org/Graphics/SVG/1.1/DTD/svg11.dtd"><svg t="1581593258471" class="icon" viewBox="0 0 1024 1024" version="1.1" xmlns="http://www.w3.org/2000/svg" p-id="2036" width="8" height="8" xmlns:xlink="http://www.w3.org/1999/xlink"><defs><style type="text/css"></style></defs><path d="M819.291688 494.749104c0 11.252275 0 22.503527 0 33.755802-0.38374 0.785899-1.006933 1.539053-1.115404 2.360767-1.982144 14.909571-3.25923 29.945009-5.961782 44.720527-6.958482 38.044478-22.183232 72.870658-43.333948 105.074104-14.432711 21.976524-30.720675 42.511209-51.157123 59.350736-10.735505 8.846482-21.378913 17.878183-32.718169 25.900903-19.615757 13.878079-40.989553 24.518417-63.431681 33.249265-31.53625 12.268418-64.282049 18.281365-97.845469 20.187785-10.342556 0.587378-20.804838-0.339738-31.176047-1.083681-12.001335-0.861624-24.13263-1.396813-35.910884-3.632737-32.964786-6.258541-64.379263-17.053398-93.834108-33.494858-32.108279-17.923208-59.916625-40.862663-84.110653-68.497047-13.750165-15.70468-25.518187-32.714076-35.636638-50.846038-19.171642-34.358529-31.575136-71.01131-36.071543-110.223381-0.528026-4.612041-1.508353-9.17087-2.278903-13.755282 0-17.071817 0-34.143635 0-51.215452 0.38374-0.784876 0.997724-1.534959 1.118474-2.358721 2.067079-14.116509 3.048429-28.484751 6.309706-42.315758 6.633071-28.135804 16.693194-55.100946 31.04097-80.370469 12.384052-21.809725 26.939559-42.085514 44.128033-60.233849 10.661827-11.259438 22.539342-21.48943 34.613332-31.265074 26.354228-21.334911 55.80498-37.257555 87.860047-48.438199 26.360368-9.194406 53.43398-15.415085 81.255629-16.408715 20.345374-0.727571 40.859593 0.464581 61.163011 2.308579 13.504572 1.226944 26.819832 4.878101 40.128953 7.847735 28.296463 6.313799 54.271044 18.587334 78.903048 33.313733 28.102035 16.799618 52.624545 38.149878 74.045413 63.079664 15.842827 18.439978 29.132504 38.476313 40.34487 59.97393 9.685593 18.567891 17.270339 38.000476 22.690792 58.175981 5.387707 20.054755 9.422603 40.418548 9.867742 61.318554C818.200844 492.410849 818.903855 493.577419 819.291688 494.749104z" p-id="2037" fill="#2c2c2c"></path></svg>